0, 0, Header, 1, 17, 384
1, 0, Start_track
1, 0, Time_signature, 4, 2, 24, 8
1, 0, Tempo, 526310
1, 158208, End_track
2, 0, Start_track
2, 0, Title_t, "E.PIANO 2"
2, 1536, System_exclusive, 5, 126, 127, 9, 1, 247
2, 1928, Program_c, 0, 5
2, 1932, Control_c, 0, 7, 105
2, 1932, Control_c, 0, 10, 64
2, 1932, Control_c, 0, 11, 127
2, 1936, Control_c, 0, 91, 50
2, 1936, Control_c, 0, 93, 30
2, 4636, Note_on_c, 0, 65, 84
2, 4640, Control_c, 0, 1, 0
2, 4640, Pitch_bend_c, 0, 8192
2, 4640, Note_on_c, 0, 54, 60
2, 4640, Note_on_c, 0, 61, 60
2, 4648, Note_on_c, 0, 58, 60
2, 5036, Note_off_c, 0, 61, 64
2, 5052, Note_off_c, 0, 54, 64
2, 5072, Note_off_c, 0, 65, 64
2, 5112, Note_off_c, 0, 58, 64
2, 5192, Note_on_c, 0, 63, 71
2, 5204, Note_on_c, 0, 58, 51
2, 5204, Note_on_c, 0, 56, 58
2, 5204, Note_on_c, 0, 60, 62
2, 5996, Note_off_c, 0, 60, 64
2, 6008, Note_off_c, 0, 56, 64
2, 6016, Note_off_c, 0, 63, 64
2, 6048, Note_off_c, 0, 58, 64
2, 6132, Note_on_c, 0, 63, 75
2, 6140, Note_on_c, 0, 56, 62
2, 6140, Note_on_c, 0, 60, 68
2, 6608, Note_off_c, 0, 56, 64
2, 6636, Note_off_c, 0, 63, 64
2, 6640, Note_off_c, 0, 60, 64
2, 6724, Note_on_c, 0, 61, 71
2, 6732, Note_on_c, 0, 56, 68
2, 6732, Note_on_c, 0, 53, 62
2, 7484, Note_off_c, 0, 53, 64
2, 7488, Note_off_c, 0, 56, 64
2, 7532, Note_off_c, 0, 61, 64
2, 7692, Note_on_c, 0, 65, 89
2, 7692, Note_on_c, 0, 58, 71
2, 7692, Note_on_c, 0, 54, 71
2, 7692, Note_on_c, 0, 61, 68
2, 8072, Note_off_c, 0, 61, 64
2, 8108, Note_off_c, 0, 54, 64
2, 8112, Note_off_c, 0, 65, 64
2, 8172, Note_off_c, 0, 58, 64
2, 8256, Note_on_c, 0, 63, 75
2, 8256, Note_on_c, 0, 56, 71
2, 8260, Note_on_c, 0, 60, 68
2, 8260, Note_on_c, 0, 58, 68
2, 9084, Note_off_c, 0, 63, 64
2, 9092, Note_off_c, 0, 56, 64
2, 9116, Note_off_c, 0, 58, 64
2, 9116, Note_off_c, 0, 60, 64
2, 9208, Note_on_c, 0, 63, 71
2, 9212, Note_on_c, 0, 56, 71
2, 9216, Note_on_c, 0, 60, 71
2, 9652, Note_off_c, 0, 56, 64
2, 9680, Note_off_c, 0, 60, 64
2, 9712, Note_off_c, 0, 63, 64
2, 9800, Note_on_c, 0, 61, 71
2, 9800, Note_on_c, 0, 56, 75
2, 9808, Note_on_c, 0, 53, 68
2, 10532, Note_off_c, 0, 56, 64
2, 10548, Note_off_c, 0, 53, 64
2, 10596, Note_off_c, 0, 61, 64
2, 10740, Note_on_c, 0, 65, 84
2, 10748, Note_on_c, 0, 58, 71
2, 10748, Note_on_c, 0, 61, 68
2, 10752, Note_on_c, 0, 54, 62
2, 11188, Note_off_c, 0, 61, 64
2, 11200, Note_off_c, 0, 54, 64
2, 11220, Note_off_c, 0, 65, 64
2, 11268, Note_off_c, 0, 58, 64
2, 11336, Note_on_c, 0, 63, 71
2, 11340, Note_on_c, 0, 58, 48
2, 11340, Note_on_c, 0, 56, 71
2, 11348, Note_on_c, 0, 60, 60
2, 12144, Note_off_c, 0, 63, 64
2, 12152, Note_off_c, 0, 60, 64
2, 12152, Note_off_c, 0, 56, 64
2, 12184, Note_off_c, 0, 58, 64
2, 12288, Note_on_c, 0, 63, 71
2, 12288, Note_on_c, 0, 56, 71
2, 12296, Note_on_c, 0, 60, 71
2, 12748, Note_off_c, 0, 56, 64
2, 12760, Note_off_c, 0, 60, 64
2, 12792, Note_off_c, 0, 63, 64
2, 12868, Note_on_c, 0, 61, 75
2, 12872, Note_on_c, 0, 53, 68
2, 12876, Note_on_c, 0, 56, 71
2, 13628, Note_off_c, 0, 53, 64
2, 13632, Note_off_c, 0, 56, 64
2, 13688, Note_off_c, 0, 61, 64
2, 13824, Note_on_c, 0, 65, 84
2, 13828, Note_on_c, 0, 61, 62
2, 13832, Note_on_c, 0, 58, 68
2, 13832, Note_on_c, 0, 54, 60
2, 14264, Note_off_c, 0, 61, 64
2, 14284, Note_off_c, 0, 54, 64
2, 14284, Note_off_c, 0, 65, 64
2, 14312, Note_off_c, 0, 58, 64
2, 14412, Note_on_c, 0, 63, 75
2, 14416, Note_on_c, 0, 56, 62
2, 14420, Note_on_c, 0, 60, 62
2, 14424, Note_on_c, 0, 58, 60
2, 14996, Note_off_c, 0, 58, 64
2, 14996, Note_off_c, 0, 60, 64
2, 15008, Note_off_c, 0, 56, 64
2, 15040, Note_off_c, 0, 63, 64
2, 15168, Note_on_c, 0, 63, 75
2, 15168, Note_on_c, 0, 60, 75
2, 15168, Note_on_c, 0, 56, 68
2, 15464, Note_off_c, 0, 56, 64
2, 15512, Note_off_c, 0, 60, 64
2, 15516, Note_off_c, 0, 63, 64
2, 15548, Note_on_c, 0, 61, 71
2, 15548, Note_on_c, 0, 65, 89
2, 15552, Note_on_c, 0, 56, 84
2, 15636, Note_off_c, 0, 56, 64
2, 15660, Note_off_c, 0, 65, 64
2, 15660, Note_off_c, 0, 61, 64
2, 15744, Note_on_c, 0, 61, 62
2, 15744, Note_on_c, 0, 56, 71
2, 15744, Note_on_c, 0, 65, 75
2, 16736, Note_off_c, 0, 56, 64
2, 16748, Note_off_c, 0, 65, 64
2, 16760, Note_off_c, 0, 61, 64
2, 16892, Note_on_c, 0, 61, 62
2, 16892, Note_on_c, 0, 54, 68
2, 16892, Note_on_c, 0, 58, 68
2, 16892, Note_on_c, 0, 65, 94
2, 18276, Note_off_c, 0, 61, 64
2, 18280, Note_off_c, 0, 65, 64
2, 18292, Note_off_c, 0, 54, 64
2, 18344, Note_off_c, 0, 58, 64
2, 18412, Note_on_c, 0, 63, 71
2, 18412, Note_on_c, 0, 58, 51
2, 18416, Note_on_c, 0, 56, 62
2, 18428, Note_on_c, 0, 60, 60
2, 19792, Note_off_c, 0, 60, 64
2, 19808, Note_off_c, 0, 63, 64
2, 19812, Note_off_c, 0, 56, 64
2, 19820, Note_off_c, 0, 58, 64
2, 19960, Note_on_c, 0, 54, 60
2, 19960, Note_on_c, 0, 65, 89
2, 19964, Note_on_c, 0, 61, 71
2, 19964, Note_on_c, 0, 58, 71
2, 21436, Note_off_c, 0, 58, 64
2, 21436, Note_off_c, 0, 65, 64
2, 21440, Note_off_c, 0, 61, 64
2, 21440, Note_off_c, 0, 54, 64
2, 23040, Note_on_c, 0, 65, 89
2, 23044, Note_on_c, 0, 58, 71
2, 23048, Note_on_c, 0, 61, 68
2, 23048, Note_on_c, 0, 54, 71
2, 24408, Note_off_c, 0, 61, 64
2, 24428, Note_off_c, 0, 65, 64
2, 24432, Note_off_c, 0, 54, 64
2, 24528, Note_off_c, 0, 58, 64
2, 24584, Note_on_c, 0, 58, 42
2, 24588, Note_on_c, 0, 60, 68
2, 24588, Note_on_c, 0, 56, 68
2, 24592, Note_on_c, 0, 63, 71
2, 25940, Note_off_c, 0, 56, 64
2, 25940, Note_off_c, 0, 60, 64
2, 25948, Note_off_c, 0, 58, 64
2, 25968, Note_off_c, 0, 63, 64
2, 26112, Note_on_c, 0, 54, 58
2, 26112, Note_on_c, 0, 65, 78
2, 26116, Note_on_c, 0, 61, 62
2, 26116, Note_on_c, 0, 58, 71
2, 27636, Note_off_c, 0, 58, 64
2, 27640, Note_off_c, 0, 61, 64
2, 27640, Note_off_c, 0, 65, 64
2, 27640, Note_off_c, 0, 54, 64
2, 35328, Note_on_c, 0, 65, 78
2, 35328, Note_on_c, 0, 54, 60
2, 35328, Note_on_c, 0, 58, 62
2, 35328, Note_on_c, 0, 61, 62
2, 35788, Note_off_c, 0, 54, 64
2, 35804, Note_off_c, 0, 65, 64
2, 35808, Note_off_c, 0, 61, 64
2, 35864, Note_off_c, 0, 58, 64
2, 35916, Note_on_c, 0, 58, 48
2, 35920, Note_on_c, 0, 56, 60
2, 35924, Note_on_c, 0, 63, 75
2, 35924, Note_on_c, 0, 60, 51
2, 36732, Note_off_c, 0, 60, 64
2, 36748, Note_off_c, 0, 56, 64
2, 36768, Note_off_c, 0, 63, 64
2, 36772, Note_off_c, 0, 58, 64
2, 36876, Note_on_c, 0, 63, 68
2, 36884, Note_on_c, 0, 56, 62
2, 36884, Note_on_c, 0, 60, 65
2, 37332, Note_off_c, 0, 56, 64
2, 37356, Note_off_c, 0, 60, 64
2, 37368, Note_off_c, 0, 63, 64
2, 37440, Note_on_c, 0, 61, 71
2, 37444, Note_on_c, 0, 56, 68
2, 37448, Note_on_c, 0, 53, 62
2, 38172, Note_off_c, 0, 53, 64
2, 38196, Note_off_c, 0, 56, 64
2, 38228, Note_off_c, 0, 61, 64
2, 38412, Note_on_c, 0, 65, 84
2, 38416, Note_on_c, 0, 58, 68
2, 38416, Note_on_c, 0, 54, 68
2, 38416, Note_on_c, 0, 61, 62
2, 38828, Note_off_c, 0, 61, 64
2, 38852, Note_off_c, 0, 65, 64
2, 38860, Note_off_c, 0, 54, 64
2, 38904, Note_off_c, 0, 58, 64
2, 38984, Note_on_c, 0, 63, 75
2, 38988, Note_on_c, 0, 56, 68
2, 38988, Note_on_c, 0, 60, 65
2, 39000, Note_on_c, 0, 58, 62
2, 39740, Note_off_c, 0, 60, 64
2, 39748, Note_off_c, 0, 56, 64
2, 39768, Note_off_c, 0, 58, 64
2, 39828, Note_off_c, 0, 63, 64
2, 39928, Note_on_c, 0, 63, 71
2, 39932, Note_on_c, 0, 56, 68
2, 39936, Note_on_c, 0, 60, 68
2, 40216, Note_off_c, 0, 56, 64
2, 40288, Note_off_c, 0, 63, 64
2, 40300, Note_off_c, 0, 60, 64
2, 40344, Note_on_c, 0, 56, 68
2, 40344, Note_on_c, 0, 65, 75
2, 40344, Note_on_c, 0, 61, 62
2, 41248, Note_off_c, 0, 56, 64
2, 41264, Note_off_c, 0, 65, 64
2, 41268, Note_off_c, 0, 61, 64
2, 41452, Note_on_c, 0, 54, 62
2, 41452, Note_on_c, 0, 65, 84
2, 41456, Note_on_c, 0, 58, 71
2, 41456, Note_on_c, 0, 61, 71
2, 41872, Note_off_c, 0, 61, 64
2, 41908, Note_off_c, 0, 65, 64
2, 41908, Note_off_c, 0, 54, 64
2, 41984, Note_off_c, 0, 58, 64
2, 42048, Note_on_c, 0, 58, 47
2, 42052, Note_on_c, 0, 63, 71
2, 42056, Note_on_c, 0, 56, 62
2, 42060, Note_on_c, 0, 60, 60
2, 42800, Note_off_c, 0, 60, 64
2, 42852, Note_off_c, 0, 56, 64
2, 42856, Note_off_c, 0, 63, 64
2, 42892, Note_off_c, 0, 58, 64
2, 43004, Note_on_c, 0, 63, 62
2, 43012, Note_on_c, 0, 56, 60
2, 43012, Note_on_c, 0, 60, 62
2, 43472, Note_off_c, 0, 56, 64
2, 43484, Note_off_c, 0, 60, 64
2, 43492, Note_off_c, 0, 63, 64
2, 43588, Note_on_c, 0, 61, 75
2, 43592, Note_on_c, 0, 56, 71
2, 43592, Note_on_c, 0, 53, 60
2, 44304, Note_off_c, 0, 53, 64
2, 44308, Note_off_c, 0, 56, 64
2, 44360, Note_off_c, 0, 61, 64
2, 44552, Note_on_c, 0, 65, 78
2, 44556, Note_on_c, 0, 54, 60
2, 44556, Note_on_c, 0, 58, 68
2, 44560, Note_on_c, 0, 61, 62
2, 44992, Note_off_c, 0, 54, 64
2, 45000, Note_off_c, 0, 61, 64
2, 45008, Note_off_c, 0, 65, 64
2, 45060, Note_off_c, 0, 58, 64
2, 45128, Note_on_c, 0, 63, 68
2, 45132, Note_on_c, 0, 58, 60
2, 45136, Note_on_c, 0, 60, 54
2, 45144, Note_on_c, 0, 56, 58
2, 45860, Note_off_c, 0, 56, 64
2, 45876, Note_off_c, 0, 60, 64
2, 45908, Note_off_c, 0, 58, 64
2, 45920, Note_off_c, 0, 63, 64
2, 46068, Note_on_c, 0, 56, 62
2, 46068, Note_on_c, 0, 63, 68
2, 46072, Note_on_c, 0, 60, 71
2, 46332, Note_off_c, 0, 56, 64
2, 46400, Note_off_c, 0, 60, 64
2, 46400, Note_off_c, 0, 63, 64
2, 46460, Note_on_c, 0, 56, 68
2, 46464, Note_on_c, 0, 65, 75
2, 46468, Note_on_c, 0, 61, 68
2, 47516, Note_off_c, 0, 61, 64
2, 47516, Note_off_c, 0, 56, 64
2, 47528, Note_off_c, 0, 65, 64
2, 47616, Note_on_c, 0, 65, 89
2, 47616, Note_on_c, 0, 54, 62
2, 47616, Note_on_c, 0, 61, 62
2, 47616, Note_on_c, 0, 58, 62
2, 48960, Note_off_c, 0, 61, 64
2, 48980, Note_off_c, 0, 65, 64
2, 48988, Note_off_c, 0, 54, 64
2, 49008, Note_off_c, 0, 58, 64
2, 49132, Note_on_c, 0, 63, 68
2, 49144, Note_on_c, 0, 58, 51
2, 49148, Note_on_c, 0, 56, 58
2, 49148, Note_on_c, 0, 60, 60
2, 50508, Note_off_c, 0, 56, 64
2, 50512, Note_off_c, 0, 60, 64
2, 50516, Note_off_c, 0, 63, 64
2, 50520, Note_off_c, 0, 58, 64
2, 50684, Note_on_c, 0, 65, 89
2, 50688, Note_on_c, 0, 61, 62
2, 50688, Note_on_c, 0, 58, 60
2, 50688, Note_on_c, 0, 54, 54
2, 52128, Note_off_c, 0, 58, 64
2, 52128, Note_off_c, 0, 65, 64
2, 52136, Note_off_c, 0, 54, 64
2, 52136, Note_off_c, 0, 61, 64
2, 53772, Note_on_c, 0, 65, 78
2, 53776, Note_on_c, 0, 54, 54
2, 53776, Note_on_c, 0, 58, 62
2, 53780, Note_on_c, 0, 61, 60
2, 55104, Note_off_c, 0, 54, 64
2, 55104, Note_off_c, 0, 65, 64
2, 55108, Note_off_c, 0, 61, 64
2, 55128, Note_off_c, 0, 58, 64
2, 55288, Note_on_c, 0, 63, 71
2, 55296, Note_on_c, 0, 56, 54
2, 55304, Note_on_c, 0, 60, 62
2, 55304, Note_on_c, 0, 58, 60
2, 56648, Note_off_c, 0, 60, 64
2, 56660, Note_off_c, 0, 56, 64
2, 56664, Note_off_c, 0, 63, 64
2, 56672, Note_off_c, 0, 58, 64
2, 56832, Note_on_c, 0, 65, 84
2, 56832, Note_on_c, 0, 54, 62
2, 56832, Note_on_c, 0, 58, 71
2, 56840, Note_on_c, 0, 61, 62
2, 58184, Note_off_c, 0, 58, 64
2, 58184, Note_off_c, 0, 54, 64
2, 58196, Note_off_c, 0, 61, 64
2, 58196, Note_off_c, 0, 65, 64
2, 66048, Note_on_c, 0, 65, 78
2, 66048, Note_on_c, 0, 54, 58
2, 66048, Note_on_c, 0, 58, 62
2, 66048, Note_on_c, 0, 61, 62
2, 66476, Note_off_c, 0, 61, 64
2, 66492, Note_off_c, 0, 54, 64
2, 66492, Note_off_c, 0, 65, 64
2, 66516, Note_off_c, 0, 58, 64
2, 66616, Note_on_c, 0, 63, 68
2, 66624, Note_on_c, 0, 58, 53
2, 66624, Note_on_c, 0, 56, 58
2, 66640, Note_on_c, 0, 60, 53
2, 67448, Note_off_c, 0, 60, 64
2, 67448, Note_off_c, 0, 56, 64
2, 67460, Note_off_c, 0, 63, 64
2, 67480, Note_off_c, 0, 58, 64
2, 67588, Note_on_c, 0, 63, 71
2, 67596, Note_on_c, 0, 56, 60
2, 67604, Note_on_c, 0, 60, 68
2, 68012, Note_off_c, 0, 56, 64
2, 68036, Note_off_c, 0, 63, 64
2, 68040, Note_off_c, 0, 60, 64
2, 68144, Note_on_c, 0, 61, 71
2, 68152, Note_on_c, 0, 56, 62
2, 68152, Note_on_c, 0, 53, 60
2, 68920, Note_off_c, 0, 56, 64
2, 68944, Note_off_c, 0, 53, 64
2, 68988, Note_off_c, 0, 61, 64
2, 69144, Note_on_c, 0, 65, 84
2, 69148, Note_on_c, 0, 58, 68
2, 69148, Note_on_c, 0, 54, 62
2, 69152, Note_on_c, 0, 61, 68
2, 69556, Note_off_c, 0, 54, 64
2, 69560, Note_off_c, 0, 65, 64
2, 69564, Note_off_c, 0, 61, 64
2, 69616, Note_off_c, 0, 58, 64
2, 69684, Note_on_c, 0, 58, 53
2, 69688, Note_on_c, 0, 63, 71
2, 69688, Note_on_c, 0, 56, 68
2, 69696, Note_on_c, 0, 60, 62
2, 70408, Note_off_c, 0, 60, 64
2, 70416, Note_off_c, 0, 58, 64
2, 70480, Note_off_c, 0, 56, 64
2, 70508, Note_off_c, 0, 63, 64
2, 70644, Note_on_c, 0, 63, 62
2, 70644, Note_on_c, 0, 56, 68
2, 70652, Note_on_c, 0, 60, 68
2, 70936, Note_off_c, 0, 56, 64
2, 70996, Note_off_c, 0, 60, 64
2, 71004, Note_off_c, 0, 63, 64
2, 71044, Note_on_c, 0, 56, 71
2, 71048, Note_on_c, 0, 61, 68
2, 71048, Note_on_c, 0, 65, 84
2, 71956, Note_off_c, 0, 56, 64
2, 71964, Note_off_c, 0, 65, 64
2, 71980, Note_off_c, 0, 61, 64
2, 72168, Note_on_c, 0, 65, 84
2, 72172, Note_on_c, 0, 58, 71
2, 72176, Note_on_c, 0, 54, 62
2, 72176, Note_on_c, 0, 61, 68
2, 72576, Note_off_c, 0, 61, 64
2, 72604, Note_off_c, 0, 65, 64
2, 72608, Note_off_c, 0, 54, 64
2, 72684, Note_off_c, 0, 58, 64
2, 72760, Note_on_c, 0, 63, 71
2, 72760, Note_on_c, 0, 58, 48
2, 72764, Note_on_c, 0, 56, 62
2, 72764, Note_on_c, 0, 60, 65
2, 73568, Note_off_c, 0, 60, 64
2, 73572, Note_off_c, 0, 63, 64
2, 73580, Note_off_c, 0, 56, 64
2, 73596, Note_off_c, 0, 58, 64
2, 73712, Note_on_c, 0, 63, 62
2, 73720, Note_on_c, 0, 60, 65
2, 73720, Note_on_c, 0, 56, 60
2, 74196, Note_off_c, 0, 56, 64
2, 74204, Note_off_c, 0, 60, 64
2, 74228, Note_off_c, 0, 63, 64
2, 74304, Note_on_c, 0, 61, 75
2, 74304, Note_on_c, 0, 56, 68
2, 74312, Note_on_c, 0, 53, 65
2, 75040, Note_off_c, 0, 56, 64
2, 75060, Note_off_c, 0, 53, 64
2, 75112, Note_off_c, 0, 61, 64
2, 75272, Note_on_c, 0, 65, 78
2, 75272, Note_on_c, 0, 61, 62
2, 75272, Note_on_c, 0, 54, 62
2, 75272, Note_on_c, 0, 58, 62
2, 75716, Note_off_c, 0, 54, 64
2, 75720, Note_off_c, 0, 65, 64
2, 75744, Note_off_c, 0, 61, 64
2, 75764, Note_off_c, 0, 58, 64
2, 75852, Note_on_c, 0, 63, 71
2, 75852, Note_on_c, 0, 60, 68
2, 75852, Note_on_c, 0, 56, 68
2, 75864, Note_on_c, 0, 58, 58
2, 76604, Note_off_c, 0, 60, 64
2, 76608, Note_off_c, 0, 58, 64
2, 76624, Note_off_c, 0, 56, 64
2, 76668, Note_off_c, 0, 63, 64
2, 76796, Note_on_c, 0, 63, 68
2, 76800, Note_on_c, 0, 56, 71
2, 76800, Note_on_c, 0, 60, 71
2, 77080, Note_off_c, 0, 56, 64
2, 77136, Note_off_c, 0, 60, 64
2, 77140, Note_off_c, 0, 63, 64
2, 77192, Note_on_c, 0, 56, 68
2, 77196, Note_on_c, 0, 65, 84
2, 77200, Note_on_c, 0, 61, 71
2, 78124, Note_off_c, 0, 61, 64
2, 78136, Note_off_c, 0, 65, 64
2, 78136, Note_off_c, 0, 56, 64
2, 78356, Note_on_c, 0, 65, 84
2, 78356, Note_on_c, 0, 54, 62
2, 78356, Note_on_c, 0, 61, 62
2, 78356, Note_on_c, 0, 58, 75
2, 78776, Note_off_c, 0, 61, 64
2, 78808, Note_off_c, 0, 54, 64
2, 78812, Note_off_c, 0, 65, 64
2, 78864, Note_off_c, 0, 58, 64
2, 78932, Note_on_c, 0, 63, 68
2, 78936, Note_on_c, 0, 58, 47
2, 78936, Note_on_c, 0, 60, 62
2, 78940, Note_on_c, 0, 56, 60
2, 79696, Note_off_c, 0, 63, 64
2, 79728, Note_off_c, 0, 56, 64
2, 79732, Note_off_c, 0, 60, 64
2, 79764, Note_off_c, 0, 58, 64
2, 79844, Note_on_c, 0, 63, 71
2, 79852, Note_on_c, 0, 60, 65
2, 79852, Note_on_c, 0, 56, 68
2, 80324, Note_off_c, 0, 56, 64
2, 80336, Note_off_c, 0, 60, 64
2, 80356, Note_off_c, 0, 63, 64
2, 80440, Note_on_c, 0, 61, 71
2, 80444, Note_on_c, 0, 53, 65
2, 80444, Note_on_c, 0, 56, 68
2, 81200, Note_off_c, 0, 56, 64
2, 81224, Note_off_c, 0, 53, 64
2, 81264, Note_off_c, 0, 61, 64
2, 81408, Note_on_c, 0, 65, 84
2, 81416, Note_on_c, 0, 54, 62
2, 81416, Note_on_c, 0, 61, 62
2, 81420, Note_on_c, 0, 58, 71
2, 81860, Note_off_c, 0, 65, 64
2, 81868, Note_off_c, 0, 54, 64
2, 81876, Note_off_c, 0, 61, 64
2, 81916, Note_off_c, 0, 58, 64
2, 81984, Note_on_c, 0, 58, 48
2, 81984, Note_on_c, 0, 56, 68
2, 81984, Note_on_c, 0, 60, 65
2, 81984, Note_on_c, 0, 63, 71
2, 82732, Note_off_c, 0, 60, 64
2, 82760, Note_off_c, 0, 58, 64
2, 82764, Note_off_c, 0, 56, 64
2, 82816, Note_off_c, 0, 63, 64
2, 82944, Note_on_c, 0, 63, 68
2, 82944, Note_on_c, 0, 56, 62
2, 82952, Note_on_c, 0, 60, 65
2, 83240, Note_off_c, 0, 56, 64
2, 83280, Note_off_c, 0, 60, 64
2, 83288, Note_off_c, 0, 63, 64
2, 83340, Note_on_c, 0, 56, 68
2, 83344, Note_on_c, 0, 61, 62
2, 83344, Note_on_c, 0, 65, 75
2, 84224, Note_off_c, 0, 56, 64
2, 84228, Note_off_c, 0, 61, 64
2, 84232, Note_off_c, 0, 65, 64
2, 84452, Note_on_c, 0, 65, 75
2, 84452, Note_on_c, 0, 61, 68
2, 84452, Note_on_c, 0, 54, 62
2, 84452, Note_on_c, 0, 58, 75
2, 84900, Note_off_c, 0, 61, 64
2, 84912, Note_off_c, 0, 54, 64
2, 84912, Note_off_c, 0, 65, 64
2, 84988, Note_off_c, 0, 58, 64
2, 85048, Note_on_c, 0, 63, 71
2, 85048, Note_on_c, 0, 56, 62
2, 85048, Note_on_c, 0, 58, 54
2, 85060, Note_on_c, 0, 60, 58
2, 85816, Note_off_c, 0, 60, 64
2, 85832, Note_off_c, 0, 56, 64
2, 85844, Note_off_c, 0, 63, 64
2, 85868, Note_off_c, 0, 58, 64
2, 86008, Note_on_c, 0, 63, 68
2, 86012, Note_on_c, 0, 56, 71
2, 86016, Note_on_c, 0, 60, 71
2, 86472, Note_off_c, 0, 56, 64
2, 86488, Note_off_c, 0, 60, 64
2, 86508, Note_off_c, 0, 63, 64
2, 86592, Note_on_c, 0, 61, 68
2, 86596, Note_on_c, 0, 56, 71
2, 86600, Note_on_c, 0, 53, 65
2, 87320, Note_off_c, 0, 56, 64
2, 87340, Note_off_c, 0, 53, 64
2, 87384, Note_off_c, 0, 61, 64
2, 87560, Note_on_c, 0, 65, 84
2, 87560, Note_on_c, 0, 61, 60
2, 87560, Note_on_c, 0, 58, 71
2, 87560, Note_on_c, 0, 54, 68
2, 87976, Note_off_c, 0, 65, 64
2, 87988, Note_off_c, 0, 54, 64
2, 88004, Note_off_c, 0, 61, 64
2, 88056, Note_off_c, 0, 58, 64
2, 88116, Note_on_c, 0, 58, 51
2, 88120, Note_on_c, 0, 63, 71
2, 88124, Note_on_c, 0, 56, 68
2, 88132, Note_on_c, 0, 60, 60
2, 88896, Note_off_c, 0, 60, 64
2, 88912, Note_off_c, 0, 58, 64
2, 88956, Note_off_c, 0, 63, 64
2, 88960, Note_off_c, 0, 56, 64
2, 89088, Note_on_c, 0, 63, 68
2, 89088, Note_on_c, 0, 56, 71
2, 89096, Note_on_c, 0, 60, 71
2, 89352, Note_off_c, 0, 56, 64
2, 89400, Note_off_c, 0, 63, 64
2, 89408, Note_off_c, 0, 60, 64
2, 89484, Note_on_c, 0, 56, 68
2, 89488, Note_on_c, 0, 65, 84
2, 89488, Note_on_c, 0, 61, 71
2, 90288, Note_off_c, 0, 61, 64
2, 90304, Note_off_c, 0, 65, 64
2, 90304, Note_off_c, 0, 56, 64
2, 121344, Note_on_c, 0, 58, 62
2, 121344, Note_on_c, 0, 54, 62
2, 121344, Note_on_c, 0, 65, 78
2, 121344, Note_on_c, 0, 61, 68
2, 121800, Note_off_c, 0, 65, 64
2, 121808, Note_off_c, 0, 54, 64
2, 121824, Note_off_c, 0, 61, 64
2, 121848, Note_off_c, 0, 58, 64
2, 121924, Note_on_c, 0, 58, 54
2, 121924, Note_on_c, 0, 63, 75
2, 121932, Note_on_c, 0, 56, 71
2, 121936, Note_on_c, 0, 60, 62
2, 122744, Note_off_c, 0, 60, 64
2, 122744, Note_off_c, 0, 56, 64
2, 122752, Note_off_c, 0, 63, 64
2, 122752, Note_off_c, 0, 58, 64
2, 122880, Note_on_c, 0, 63, 71
2, 122892, Note_on_c, 0, 56, 68
2, 122892, Note_on_c, 0, 60, 68
2, 123324, Note_off_c, 0, 56, 64
2, 123344, Note_off_c, 0, 60, 64
2, 123356, Note_off_c, 0, 63, 64
2, 123440, Note_on_c, 0, 61, 71
2, 123444, Note_on_c, 0, 56, 68
2, 123448, Note_on_c, 0, 53, 65
2, 124240, Note_off_c, 0, 56, 64
2, 124248, Note_off_c, 0, 53, 64
2, 124288, Note_off_c, 0, 61, 64
2, 124452, Note_on_c, 0, 58, 68
2, 124452, Note_on_c, 0, 65, 84
2, 124456, Note_on_c, 0, 54, 62
2, 124460, Note_on_c, 0, 61, 62
2, 124848, Note_off_c, 0, 61, 64
2, 124884, Note_off_c, 0, 65, 64
2, 124892, Note_off_c, 0, 54, 64
2, 124952, Note_off_c, 0, 58, 64
2, 125000, Note_on_c, 0, 63, 71
2, 125004, Note_on_c, 0, 60, 65
2, 125004, Note_on_c, 0, 56, 60
2, 125016, Note_on_c, 0, 58, 60
2, 125716, Note_off_c, 0, 60, 64
2, 125756, Note_off_c, 0, 58, 64
2, 125756, Note_off_c, 0, 56, 64
2, 125820, Note_off_c, 0, 63, 64
2, 125952, Note_on_c, 0, 63, 71
2, 125952, Note_on_c, 0, 56, 68
2, 125952, Note_on_c, 0, 60, 68
2, 126232, Note_off_c, 0, 56, 64
2, 126292, Note_off_c, 0, 60, 64
2, 126308, Note_off_c, 0, 63, 64
2, 126356, Note_on_c, 0, 56, 71
2, 126356, Note_on_c, 0, 65, 78
2, 126356, Note_on_c, 0, 61, 68
2, 127232, Note_off_c, 0, 61, 64
2, 127236, Note_off_c, 0, 56, 64
2, 127256, Note_off_c, 0, 65, 64
2, 127468, Note_on_c, 0, 65, 78
2, 127472, Note_on_c, 0, 61, 68
2, 127472, Note_on_c, 0, 54, 62
2, 127476, Note_on_c, 0, 58, 71
2, 127900, Note_off_c, 0, 61, 64
2, 127924, Note_off_c, 0, 54, 64
2, 127924, Note_off_c, 0, 65, 64
2, 127984, Note_off_c, 0, 58, 64
2, 128052, Note_on_c, 0, 58, 60
2, 128052, Note_on_c, 0, 63, 75
2, 128060, Note_on_c, 0, 56, 68
2, 128060, Note_on_c, 0, 60, 68
2, 128836, Note_off_c, 0, 60, 64
2, 128856, Note_off_c, 0, 56, 64
2, 128856, Note_off_c, 0, 63, 64
2, 128880, Note_off_c, 0, 58, 64
2, 129012, Note_on_c, 0, 63, 68
2, 129012, Note_on_c, 0, 56, 75
2, 129016, Note_on_c, 0, 60, 75
2, 129476, Note_off_c, 0, 56, 64
2, 129492, Note_off_c, 0, 60, 64
2, 129516, Note_off_c, 0, 63, 64
2, 129584, Note_on_c, 0, 61, 75
2, 129592, Note_on_c, 0, 53, 62
2, 129596, Note_on_c, 0, 56, 62
2, 130348, Note_off_c, 0, 56, 64
2, 130356, Note_off_c, 0, 53, 64
2, 130404, Note_off_c, 0, 61, 64
2, 130568, Note_on_c, 0, 58, 68
2, 130568, Note_on_c, 0, 65, 78
2, 130568, Note_on_c, 0, 61, 68
2, 130568, Note_on_c, 0, 54, 62
2, 131012, Note_off_c, 0, 61, 64
2, 131020, Note_off_c, 0, 54, 64
2, 131024, Note_off_c, 0, 65, 64
2, 131036, Note_off_c, 0, 58, 64
2, 131140, Note_on_c, 0, 63, 71
2, 131148, Note_on_c, 0, 56, 71
2, 131148, Note_on_c, 0, 60, 62
2, 131152, Note_on_c, 0, 58, 58
2, 131876, Note_off_c, 0, 60, 64
2, 131904, Note_off_c, 0, 56, 64
2, 131908, Note_off_c, 0, 58, 64
2, 131964, Note_off_c, 0, 63, 64
2, 132084, Note_on_c, 0, 63, 68
2, 132092, Note_on_c, 0, 56, 62
2, 132092, Note_on_c, 0, 60, 65
2, 132384, Note_off_c, 0, 56, 64
2, 132432, Note_off_c, 0, 60, 64
2, 132440, Note_off_c, 0, 63, 64
2, 132496, Note_on_c, 0, 56, 68
2, 132500, Note_on_c, 0, 65, 84
2, 132500, Note_on_c, 0, 61, 68
2, 133412, Note_off_c, 0, 56, 64
2, 133420, Note_off_c, 0, 65, 64
2, 133424, Note_off_c, 0, 61, 64
2, 133648, Note_on_c, 0, 65, 84
2, 133648, Note_on_c, 0, 58, 75
2, 133648, Note_on_c, 0, 61, 68
2, 133648, Note_on_c, 0, 54, 62
2, 134060, Note_off_c, 0, 61, 64
2, 134072, Note_off_c, 0, 54, 64
2, 134080, Note_off_c, 0, 65, 64
2, 134148, Note_off_c, 0, 58, 64
2, 134208, Note_on_c, 0, 63, 68
2, 134212, Note_on_c, 0, 56, 60
2, 134212, Note_on_c, 0, 58, 58
2, 134212, Note_on_c, 0, 60, 60
2, 134996, Note_off_c, 0, 56, 64
2, 135020, Note_off_c, 0, 60, 64
2, 135020, Note_off_c, 0, 63, 64
2, 135032, Note_off_c, 0, 58, 64
2, 135148, Note_on_c, 0, 63, 71
2, 135156, Note_on_c, 0, 56, 62
2, 135156, Note_on_c, 0, 60, 71
2, 135652, Note_off_c, 0, 56, 64
2, 135672, Note_off_c, 0, 60, 64
2, 135696, Note_off_c, 0, 63, 64
2, 135756, Note_on_c, 0, 56, 68
2, 135756, Note_on_c, 0, 61, 71
2, 135760, Note_on_c, 0, 53, 75
2, 136524, Note_off_c, 0, 56, 64
2, 136528, Note_off_c, 0, 53, 64
2, 136564, Note_off_c, 0, 61, 64
2, 136700, Note_on_c, 0, 65, 84
2, 136704, Note_on_c, 0, 58, 75
2, 136704, Note_on_c, 0, 54, 68
2, 136704, Note_on_c, 0, 61, 68
2, 137112, Note_off_c, 0, 61, 64
2, 137144, Note_off_c, 0, 54, 64
2, 137156, Note_off_c, 0, 65, 64
2, 137208, Note_off_c, 0, 58, 64
2, 137284, Note_on_c, 0, 60, 68
2, 137288, Note_on_c, 0, 63, 68
2, 137288, Note_on_c, 0, 58, 48
2, 137296, Note_on_c, 0, 56, 54
2, 138040, Note_off_c, 0, 60, 64
2, 138068, Note_off_c, 0, 58, 64
2, 138084, Note_off_c, 0, 56, 64
2, 138136, Note_off_c, 0, 63, 64
2, 138244, Note_on_c, 0, 63, 71
2, 138248, Note_on_c, 0, 56, 71
2, 138256, Note_on_c, 0, 60, 75
2, 138536, Note_off_c, 0, 56, 64
2, 138596, Note_off_c, 0, 63, 64
2, 138600, Note_off_c, 0, 60, 64
2, 138644, Note_on_c, 0, 65, 84
2, 138648, Note_on_c, 0, 56, 62
2, 138652, Note_on_c, 0, 61, 62
2, 139576, Note_off_c, 0, 56, 64
2, 139576, Note_off_c, 0, 65, 64
2, 139580, Note_off_c, 0, 61, 64
2, 139752, Note_on_c, 0, 65, 78
2, 139756, Note_on_c, 0, 61, 62
2, 139756, Note_on_c, 0, 58, 75
2, 139760, Note_on_c, 0, 54, 62
2, 140220, Note_off_c, 0, 54, 64
2, 140224, Note_off_c, 0, 61, 64
2, 140224, Note_off_c, 0, 65, 64
2, 140284, Note_off_c, 0, 58, 64
2, 140348, Note_on_c, 0, 58, 60
2, 140352, Note_on_c, 0, 63, 68
2, 140352, Note_on_c, 0, 56, 68
2, 140364, Note_on_c, 0, 60, 56
2, 141156, Note_off_c, 0, 63, 64
2, 141164, Note_off_c, 0, 56, 64
2, 141172, Note_off_c, 0, 58, 64
2, 141180, Note_off_c, 0, 60, 64
2, 141296, Note_on_c, 0, 63, 62
2, 141300, Note_on_c, 0, 56, 68
2, 141304, Note_on_c, 0, 60, 65
2, 141764, Note_off_c, 0, 56, 64
2, 141788, Note_off_c, 0, 63, 64
2, 141812, Note_off_c, 0, 60, 64
2, 141888, Note_on_c, 0, 61, 71
2, 141892, Note_on_c, 0, 53, 68
2, 141892, Note_on_c, 0, 56, 75
2, 142648, Note_off_c, 0, 56, 64
2, 142664, Note_off_c, 0, 53, 64
2, 142684, Note_off_c, 0, 61, 64
2, 142840, Note_on_c, 0, 58, 71
2, 142844, Note_on_c, 0, 65, 78
2, 142844, Note_on_c, 0, 54, 68
2, 142844, Note_on_c, 0, 61, 71
2, 143268, Note_off_c, 0, 61, 64
2, 143296, Note_off_c, 0, 54, 64
2, 143304, Note_off_c, 0, 65, 64
2, 143356, Note_off_c, 0, 58, 64
2, 143416, Note_on_c, 0, 58, 51
2, 143416, Note_on_c, 0, 56, 62
2, 143416, Note_on_c, 0, 63, 71
2, 143424, Note_on_c, 0, 60, 62
2, 144144, Note_off_c, 0, 60, 64
2, 144152, Note_off_c, 0, 58, 64
2, 144168, Note_off_c, 0, 56, 64
2, 144228, Note_off_c, 0, 63, 64
2, 144380, Note_on_c, 0, 56, 68
2, 144384, Note_on_c, 0, 63, 62
2, 144384, Note_on_c, 0, 60, 71
2, 144660, Note_off_c, 0, 56, 64
2, 144720, Note_off_c, 0, 60, 64
2, 144720, Note_off_c, 0, 63, 64
2, 144776, Note_on_c, 0, 65, 89
2, 144784, Note_on_c, 0, 56, 68
2, 144788, Note_on_c, 0, 61, 62
2, 145692, Note_off_c, 0, 61, 64
2, 145692, Note_off_c, 0, 56, 64
2, 145704, Note_off_c, 0, 65, 64
2, 145912, Note_on_c, 0, 65, 89
2, 145916, Note_on_c, 0, 54, 62
2, 145920, Note_on_c, 0, 61, 62
2, 145920, Note_on_c, 0, 58, 68
2, 146356, Note_off_c, 0, 54, 64
2, 146356, Note_off_c, 0, 65, 64
2, 146360, Note_off_c, 0, 61, 64
2, 146432, Note_off_c, 0, 58, 64
2, 146512, Note_on_c, 0, 63, 71
2, 146516, Note_on_c, 0, 56, 67
2, 146520, Note_on_c, 0, 60, 61
2, 146528, Note_on_c, 0, 58, 50
2, 147324, Note_off_c, 0, 56, 64
2, 147340, Note_off_c, 0, 60, 64
2, 147340, Note_off_c, 0, 63, 64
2, 147356, Note_off_c, 0, 58, 64
2, 147456, Note_on_c, 0, 63, 59
2, 147468, Note_on_c, 0, 56, 51
2, 147468, Note_on_c, 0, 60, 56
2, 147896, Note_off_c, 0, 56, 64
2, 147936, Note_off_c, 0, 60, 64
2, 147956, Note_off_c, 0, 63, 64
2, 148016, Note_on_c, 0, 61, 57
2, 148024, Note_on_c, 0, 53, 52
2, 148024, Note_on_c, 0, 56, 54
2, 148776, Note_off_c, 0, 56, 64
2, 148788, Note_off_c, 0, 53, 64
2, 148832, Note_off_c, 0, 61, 64
2, 148984, Note_on_c, 0, 58, 44
2, 148988, Note_on_c, 0, 54, 39
2, 148988, Note_on_c, 0, 65, 51
2, 148988, Note_on_c, 0, 61, 44
2, 149436, Note_off_c, 0, 65, 64
2, 149448, Note_off_c, 0, 54, 64
2, 149468, Note_off_c, 0, 61, 64
2, 149476, Note_off_c, 0, 58, 64
2, 149564, Note_on_c, 0, 63, 41
2, 149568, Note_on_c, 0, 56, 35
2, 149568, Note_on_c, 0, 58, 26
2, 149568, Note_on_c, 0, 60, 37
2, 150340, Note_off_c, 0, 60, 64
2, 150344, Note_off_c, 0, 56, 64
2, 150360, Note_off_c, 0, 58, 64
2, 150408, Note_off_c, 0, 63, 64
2, 150524, Note_on_c, 0, 63, 28
2, 150524, Note_on_c, 0, 56, 33
2, 150532, Note_on_c, 0, 60, 33
2, 150844, Note_off_c, 0, 56, 64
2, 150880, Note_off_c, 0, 60, 64
2, 150888, Note_off_c, 0, 63, 64
2, 150940, Note_on_c, 0, 65, 37
2, 150948, Note_on_c, 0, 56, 28
2, 150948, Note_on_c, 0, 61, 28
2, 151868, Note_off_c, 0, 65, 64
2, 151872, Note_off_c, 0, 56, 64
2, 151880, Note_off_c, 0, 61, 64
2, 152064, Note_on_c, 0, 65, 21
2, 152076, Note_on_c, 0, 58, 18
2, 152080, Note_on_c, 0, 54, 15
2, 152080, Note_on_c, 0, 61, 16
2, 152528, Note_off_c, 0, 54, 64
2, 152536, Note_off_c, 0, 61, 64
2, 152536, Note_off_c, 0, 65, 64
2, 152592, Note_off_c, 0, 58, 64
2, 152656, Note_on_c, 0, 63, 17
2, 152660, Note_on_c, 0, 56, 8
2, 152660, Note_on_c, 0, 58, 14
2, 152660, Note_on_c, 0, 60, 13
2, 153464, Note_off_c, 0, 60, 64
2, 153476, Note_off_c, 0, 56, 64
2, 153488, Note_off_c, 0, 63, 64
2, 153504, Note_off_c, 0, 58, 64
2, 153616, Note_on_c, 0, 63, 6
2, 153620, Note_on_c, 0, 56, 6
2, 153620, Note_on_c, 0, 60, 8
2, 154052, Note_off_c, 0, 56, 64
2, 154100, Note_off_c, 0, 60, 64
2, 154108, Note_off_c, 0, 63, 64
2, 154176, Note_on_c, 0, 61, 3
2, 154176, Note_on_c, 0, 53, 2
2, 154184, Note_on_c, 0, 56, 2
2, 154928, Note_off_c, 0, 56, 64
2, 154940, Note_off_c, 0, 53, 64
2, 154984, Note_off_c, 0, 61, 64
2, 155152, Note_on_c, 0, 65, 1
2, 155152, Note_on_c, 0, 61, 1
2, 155152, Note_on_c, 0, 58, 1
2, 155160, Note_on_c, 0, 54, 1
2, 155580, Note_off_c, 0, 54, 64
2, 155588, Note_off_c, 0, 65, 64
2, 155612, Note_off_c, 0, 61, 64
2, 155640, Note_off_c, 0, 58, 64
2, 155708, Note_on_c, 0, 58, 1
2, 155708, Note_on_c, 0, 56, 1
2, 155712, Note_on_c, 0, 63, 1
2, 155720, Note_on_c, 0, 60, 1
2, 156448, Note_off_c, 0, 60, 64
2, 156488, Note_off_c, 0, 58, 64
2, 156504, Note_off_c, 0, 56, 64
2, 156528, Note_off_c, 0, 63, 64
2, 158208, End_track
3, 0, Start_track
3, 0, Title_t, "SYN BASS 2"
3, 1948, Program_c, 1, 39
3, 1952, Control_c, 1, 7, 90
3, 1952, Control_c, 1, 10, 64
3, 1952, Control_c, 1, 11, 127
3, 1956, Control_c, 1, 91, 5
3, 1956, Control_c, 1, 93, 0
3, 4608, Note_on_c, 1, 27, 105
3, 4612, Control_c, 1, 1, 0
3, 4612, Pitch_bend_c, 1, 8192
3, 4692, Note_off_c, 1, 27, 64
3, 4796, Note_on_c, 1, 27, 114
3, 4864, Note_off_c, 1, 27, 64
3, 4896, Note_on_c, 1, 27, 105
3, 4972, Note_off_c, 1, 27, 64
3, 5084, Note_on_c, 1, 36, 108
3, 5152, Note_off_c, 1, 36, 64
3, 5180, Note_on_c, 1, 34, 114
3, 5252, Note_off_c, 1, 34, 64
3, 5372, Note_on_c, 1, 32, 105
3, 5460, Note_off_c, 1, 32, 64
3, 5564, Note_on_c, 1, 32, 119
3, 5668, Note_off_c, 1, 32, 64
3, 5948, Note_on_c, 1, 27, 98
3, 6032, Note_off_c, 1, 27, 64
3, 6048, Note_on_c, 1, 32, 98
3, 6104, Note_off_c, 1, 32, 64
3, 6144, Note_on_c, 1, 29, 114
3, 6232, Note_off_c, 1, 29, 64
3, 6332, Note_on_c, 1, 29, 108
3, 6392, Note_off_c, 1, 29, 64
3, 6428, Note_on_c, 1, 29, 108
3, 6516, Note_off_c, 1, 29, 64
3, 6628, Note_on_c, 1, 36, 108
3, 6708, Note_off_c, 1, 36, 64
3, 6724, Note_on_c, 1, 34, 114
3, 6820, Note_off_c, 1, 34, 64
3, 7108, Note_on_c, 1, 34, 105
3, 7160, Note_off_c, 1, 34, 64
3, 7204, Note_on_c, 1, 34, 114
3, 7256, Note_off_c, 1, 34, 64
3, 7300, Note_on_c, 1, 34, 119
3, 7360, Note_off_c, 1, 34, 64
3, 7396, Note_on_c, 1, 36, 108
3, 7468, Note_off_c, 1, 36, 64
3, 7588, Note_on_c, 1, 34, 105
3, 7644, Note_off_c, 1, 34, 64
3, 7684, Note_on_c, 1, 27, 105
3, 7764, Note_off_c, 1, 27, 64
3, 7868, Note_on_c, 1, 27, 105
3, 7928, Note_off_c, 1, 27, 64
3, 7972, Note_on_c, 1, 27, 101
3, 8060, Note_off_c, 1, 27, 64
3, 8164, Note_on_c, 1, 36, 105
3, 8228, Note_off_c, 1, 36, 64
3, 8260, Note_on_c, 1, 34, 114
3, 8348, Note_off_c, 1, 34, 64
3, 8448, Note_on_c, 1, 32, 114
3, 8548, Note_off_c, 1, 32, 64
3, 8644, Note_on_c, 1, 32, 105
3, 8728, Note_off_c, 1, 32, 64
3, 9024, Note_on_c, 1, 32, 101
3, 9068, Note_off_c, 1, 32, 64
3, 9116, Note_on_c, 1, 32, 114
3, 9172, Note_off_c, 1, 32, 64
3, 9216, Note_on_c, 1, 29, 114
3, 9292, Note_off_c, 1, 29, 64
3, 9404, Note_on_c, 1, 29, 119
3, 9460, Note_off_c, 1, 29, 64
3, 9504, Note_on_c, 1, 29, 119
3, 9592, Note_off_c, 1, 29, 64
3, 9700, Note_on_c, 1, 36, 108
3, 9756, Note_off_c, 1, 36, 64
3, 9796, Note_on_c, 1, 34, 119
3, 9896, Note_off_c, 1, 34, 64
3, 10180, Note_on_c, 1, 32, 114
3, 10264, Note_off_c, 1, 32, 64
3, 10372, Note_on_c, 1, 32, 105
3, 10420, Note_off_c, 1, 32, 64
3, 10468, Note_on_c, 1, 32, 114
3, 10548, Note_off_c, 1, 32, 64
3, 10652, Note_on_c, 1, 37, 101
3, 10736, Note_off_c, 1, 37, 64
3, 10752, Note_on_c, 1, 27, 105
3, 10836, Note_off_c, 1, 27, 64
3, 10940, Note_on_c, 1, 27, 114
3, 11008, Note_off_c, 1, 27, 64
3, 11040, Note_on_c, 1, 27, 105
3, 11116, Note_off_c, 1, 27, 64
3, 11228, Note_on_c, 1, 36, 108
3, 11296, Note_off_c, 1, 36, 64
3, 11324, Note_on_c, 1, 34, 114
3, 11396, Note_off_c, 1, 34, 64
3, 11516, Note_on_c, 1, 32, 105
3, 11604, Note_off_c, 1, 32, 64
3, 11708, Note_on_c, 1, 32, 119
3, 11812, Note_off_c, 1, 32, 64
3, 12092, Note_on_c, 1, 27, 98
3, 12176, Note_off_c, 1, 27, 64
3, 12192, Note_on_c, 1, 32, 98
3, 12248, Note_off_c, 1, 32, 64
3, 12288, Note_on_c, 1, 29, 114
3, 12376, Note_off_c, 1, 29, 64
3, 12476, Note_on_c, 1, 29, 108
3, 12536, Note_off_c, 1, 29, 64
3, 12572, Note_on_c, 1, 29, 108
3, 12660, Note_off_c, 1, 29, 64
3, 12772, Note_on_c, 1, 36, 108
3, 12852, Note_off_c, 1, 36, 64
3, 12868, Note_on_c, 1, 34, 114
3, 12964, Note_off_c, 1, 34, 64
3, 13252, Note_on_c, 1, 34, 105
3, 13304, Note_off_c, 1, 34, 64
3, 13348, Note_on_c, 1, 34, 114
3, 13400, Note_off_c, 1, 34, 64
3, 13444, Note_on_c, 1, 34, 119
3, 13504, Note_off_c, 1, 34, 64
3, 13540, Note_on_c, 1, 36, 108
3, 13612, Note_off_c, 1, 36, 64
3, 13732, Note_on_c, 1, 34, 105
3, 13788, Note_off_c, 1, 34, 64
3, 13828, Note_on_c, 1, 27, 105
3, 13908, Note_off_c, 1, 27, 64
3, 14012, Note_on_c, 1, 27, 105
3, 14072, Note_off_c, 1, 27, 64
3, 14116, Note_on_c, 1, 27, 101
3, 14204, Note_off_c, 1, 27, 64
3, 14308, Note_on_c, 1, 36, 105
3, 14372, Note_off_c, 1, 36, 64
3, 14404, Note_on_c, 1, 34, 114
3, 14492, Note_off_c, 1, 34, 64
3, 14592, Note_on_c, 1, 32, 114
3, 14692, Note_off_c, 1, 32, 64
3, 14788, Note_on_c, 1, 32, 105
3, 14872, Note_off_c, 1, 32, 64
3, 15168, Note_on_c, 1, 32, 101
3, 15212, Note_off_c, 1, 32, 64
3, 15260, Note_on_c, 1, 32, 114
3, 15316, Note_off_c, 1, 32, 64
3, 15360, Note_on_c, 1, 29, 114
3, 15436, Note_off_c, 1, 29, 64
3, 15548, Note_on_c, 1, 29, 119
3, 15604, Note_off_c, 1, 29, 64
3, 15648, Note_on_c, 1, 29, 119
3, 15736, Note_off_c, 1, 29, 64
3, 15844, Note_on_c, 1, 36, 108
3, 15900, Note_off_c, 1, 36, 64
3, 15940, Note_on_c, 1, 34, 119
3, 16040, Note_off_c, 1, 34, 64
3, 16324, Note_on_c, 1, 32, 114
3, 16408, Note_off_c, 1, 32, 64
3, 16516, Note_on_c, 1, 32, 105
3, 16564, Note_off_c, 1, 32, 64
3, 16612, Note_on_c, 1, 32, 114
3, 16692, Note_off_c, 1, 32, 64
3, 16796, Note_on_c, 1, 37, 101
3, 16880, Note_off_c, 1, 37, 64
3, 16896, Note_on_c, 1, 34, 114
3, 16956, Note_off_c, 1, 34, 64
3, 17092, Note_on_c, 1, 34, 114
3, 17136, Note_off_c, 1, 34, 64
3, 17184, Note_on_c, 1, 34, 119
3, 17248, Note_off_c, 1, 34, 64
3, 17380, Note_on_c, 1, 37, 114
3, 17432, Note_off_c, 1, 37, 64
3, 17472, Note_on_c, 1, 36, 114
3, 17536, Note_off_c, 1, 36, 64
3, 17660, Note_on_c, 1, 32, 114
3, 17732, Note_off_c, 1, 32, 64
3, 17852, Note_on_c, 1, 34, 105
3, 17936, Note_off_c, 1, 34, 64
3, 18236, Note_on_c, 1, 29, 108
3, 18292, Note_off_c, 1, 29, 64
3, 18332, Note_on_c, 1, 34, 105
3, 18408, Note_off_c, 1, 34, 64
3, 18628, Note_on_c, 1, 32, 105
3, 18672, Note_off_c, 1, 32, 64
3, 18724, Note_on_c, 1, 34, 114
3, 18800, Note_off_c, 1, 34, 64
3, 18916, Note_on_c, 1, 37, 114
3, 18964, Note_off_c, 1, 37, 64
3, 19012, Note_on_c, 1, 36, 119
3, 19100, Note_off_c, 1, 36, 64
3, 19776, Note_on_c, 1, 29, 114
3, 19836, Note_off_c, 1, 29, 64
3, 19876, Note_on_c, 1, 34, 119
3, 19956, Note_off_c, 1, 34, 64
3, 20164, Note_on_c, 1, 32, 114
3, 20220, Note_off_c, 1, 32, 64
3, 20260, Note_on_c, 1, 34, 114
3, 20340, Note_off_c, 1, 34, 64
3, 20452, Note_on_c, 1, 37, 105
3, 20504, Note_off_c, 1, 37, 64
3, 20548, Note_on_c, 1, 36, 119
3, 20612, Note_off_c, 1, 36, 64
3, 20740, Note_on_c, 1, 32, 114
3, 20820, Note_off_c, 1, 32, 64
3, 20932, Note_on_c, 1, 34, 114
3, 21012, Note_off_c, 1, 34, 64
3, 21316, Note_on_c, 1, 34, 105
3, 21368, Note_off_c, 1, 34, 64
3, 21408, Note_on_c, 1, 34, 114
3, 21464, Note_off_c, 1, 34, 64
3, 21508, Note_on_c, 1, 27, 105
3, 21588, Note_off_c, 1, 27, 64
3, 21700, Note_on_c, 1, 27, 105
3, 21760, Note_off_c, 1, 27, 64
3, 21796, Note_on_c, 1, 27, 114
3, 21888, Note_off_c, 1, 27, 64
3, 21988, Note_on_c, 1, 27, 101
3, 22044, Note_off_c, 1, 27, 64
3, 22084, Note_on_c, 1, 32, 119
3, 22152, Note_off_c, 1, 32, 64
3, 22468, Note_on_c, 1, 32, 101
3, 22512, Note_off_c, 1, 32, 64
3, 22564, Note_on_c, 1, 32, 114
3, 22636, Note_off_c, 1, 32, 64
3, 22852, Note_on_c, 1, 29, 114
3, 22904, Note_off_c, 1, 29, 64
3, 22948, Note_on_c, 1, 32, 124
3, 23000, Note_off_c, 1, 32, 64
3, 23040, Note_on_c, 1, 34, 114
3, 23100, Note_off_c, 1, 34, 64
3, 23236, Note_on_c, 1, 34, 114
3, 23280, Note_off_c, 1, 34, 64
3, 23328, Note_on_c, 1, 34, 119
3, 23392, Note_off_c, 1, 34, 64
3, 23524, Note_on_c, 1, 37, 114
3, 23576, Note_off_c, 1, 37, 64
3, 23616, Note_on_c, 1, 36, 114
3, 23680, Note_off_c, 1, 36, 64
3, 23804, Note_on_c, 1, 32, 114
3, 23876, Note_off_c, 1, 32, 64
3, 23996, Note_on_c, 1, 34, 105
3, 24080, Note_off_c, 1, 34, 64
3, 24380, Note_on_c, 1, 29, 108
3, 24436, Note_off_c, 1, 29, 64
3, 24476, Note_on_c, 1, 34, 105
3, 24552, Note_off_c, 1, 34, 64
3, 24772, Note_on_c, 1, 32, 105
3, 24816, Note_off_c, 1, 32, 64
3, 24868, Note_on_c, 1, 34, 114
3, 24944, Note_off_c, 1, 34, 64
3, 25060, Note_on_c, 1, 37, 114
3, 25108, Note_off_c, 1, 37, 64
3, 25156, Note_on_c, 1, 36, 119
3, 25244, Note_off_c, 1, 36, 64
3, 25920, Note_on_c, 1, 29, 114
3, 25980, Note_off_c, 1, 29, 64
3, 26020, Note_on_c, 1, 34, 119
3, 26100, Note_off_c, 1, 34, 64
3, 26308, Note_on_c, 1, 32, 114
3, 26364, Note_off_c, 1, 32, 64
3, 26404, Note_on_c, 1, 34, 114
3, 26484, Note_off_c, 1, 34, 64
3, 26596, Note_on_c, 1, 37, 105
3, 26648, Note_off_c, 1, 37, 64
3, 26692, Note_on_c, 1, 36, 119
3, 26756, Note_off_c, 1, 36, 64
3, 26884, Note_on_c, 1, 32, 114
3, 26964, Note_off_c, 1, 32, 64
3, 27076, Note_on_c, 1, 34, 114
3, 27156, Note_off_c, 1, 34, 64
3, 27460, Note_on_c, 1, 34, 105
3, 27512, Note_off_c, 1, 34, 64
3, 27552, Note_on_c, 1, 34, 114
3, 27608, Note_off_c, 1, 34, 64
3, 27652, Note_on_c, 1, 27, 105
3, 27732, Note_off_c, 1, 27, 64
3, 27844, Note_on_c, 1, 27, 105
3, 27904, Note_off_c, 1, 27, 64
3, 27940, Note_on_c, 1, 27, 114
3, 28032, Note_off_c, 1, 27, 64
3, 28132, Note_on_c, 1, 27, 101
3, 28188, Note_off_c, 1, 27, 64
3, 28228, Note_on_c, 1, 32, 119
3, 28296, Note_off_c, 1, 32, 64
3, 28612, Note_on_c, 1, 32, 101
3, 28656, Note_off_c, 1, 32, 64
3, 28708, Note_on_c, 1, 32, 114
3, 28780, Note_off_c, 1, 32, 64
3, 28996, Note_on_c, 1, 29, 114
3, 29048, Note_off_c, 1, 29, 64
3, 29092, Note_on_c, 1, 32, 124
3, 29144, Note_off_c, 1, 32, 64
3, 29184, Note_on_c, 1, 34, 114
3, 29244, Note_off_c, 1, 34, 64
3, 29380, Note_on_c, 1, 34, 114
3, 29424, Note_off_c, 1, 34, 64
3, 29472, Note_on_c, 1, 34, 119
3, 29536, Note_off_c, 1, 34, 64
3, 29668, Note_on_c, 1, 37, 114
3, 29720, Note_off_c, 1, 37, 64
3, 29760, Note_on_c, 1, 36, 114
3, 29824, Note_off_c, 1, 36, 64
3, 29948, Note_on_c, 1, 32, 114
3, 30020, Note_off_c, 1, 32, 64
3, 30140, Note_on_c, 1, 34, 105
3, 30224, Note_off_c, 1, 34, 64
3, 30524, Note_on_c, 1, 29, 108
3, 30580, Note_off_c, 1, 29, 64
3, 30620, Note_on_c, 1, 34, 105
3, 30696, Note_off_c, 1, 34, 64
3, 30916, Note_on_c, 1, 32, 105
3, 30960, Note_off_c, 1, 32, 64
3, 31012, Note_on_c, 1, 34, 114
3, 31088, Note_off_c, 1, 34, 64
3, 31204, Note_on_c, 1, 37, 114
3, 31252, Note_off_c, 1, 37, 64
3, 31300, Note_on_c, 1, 36, 119
3, 31388, Note_off_c, 1, 36, 64
3, 32064, Note_on_c, 1, 29, 114
3, 32124, Note_off_c, 1, 29, 64
3, 32164, Note_on_c, 1, 34, 119
3, 32244, Note_off_c, 1, 34, 64
3, 32452, Note_on_c, 1, 32, 114
3, 32508, Note_off_c, 1, 32, 64
3, 32548, Note_on_c, 1, 34, 114
3, 32628, Note_off_c, 1, 34, 64
3, 32740, Note_on_c, 1, 37, 105
3, 32792, Note_off_c, 1, 37, 64
3, 32836, Note_on_c, 1, 36, 119
3, 32900, Note_off_c, 1, 36, 64
3, 33028, Note_on_c, 1, 32, 114
3, 33108, Note_off_c, 1, 32, 64
3, 33220, Note_on_c, 1, 34, 114
3, 33300, Note_off_c, 1, 34, 64
3, 33600, Note_on_c, 1, 32, 105
3, 33652, Note_off_c, 1, 32, 64
3, 33696, Note_on_c, 1, 34, 114
3, 33752, Note_off_c, 1, 34, 64
3, 33792, Note_on_c, 1, 34, 105
3, 33872, Note_off_c, 1, 34, 64
3, 33984, Note_on_c, 1, 32, 105
3, 34044, Note_off_c, 1, 32, 64
3, 34080, Note_on_c, 1, 34, 114
3, 34172, Note_off_c, 1, 34, 64
3, 34272, Note_on_c, 1, 37, 101
3, 34328, Note_off_c, 1, 37, 64
3, 34368, Note_on_c, 1, 36, 119
3, 34436, Note_off_c, 1, 36, 64
3, 35136, Note_on_c, 1, 32, 114
3, 35188, Note_off_c, 1, 32, 64
3, 35232, Note_on_c, 1, 34, 124
3, 35284, Note_off_c, 1, 34, 64
3, 35328, Note_on_c, 1, 27, 105
3, 35412, Note_off_c, 1, 27, 64
3, 35516, Note_on_c, 1, 27, 114
3, 35584, Note_off_c, 1, 27, 64
3, 35616, Note_on_c, 1, 27, 105
3, 35692, Note_off_c, 1, 27, 64
3, 35804, Note_on_c, 1, 36, 108
3, 35872, Note_off_c, 1, 36, 64
3, 35900, Note_on_c, 1, 34, 114
3, 35972, Note_off_c, 1, 34, 64
3, 36092, Note_on_c, 1, 32, 105
3, 36180, Note_off_c, 1, 32, 64
3, 36284, Note_on_c, 1, 32, 119
3, 36388, Note_off_c, 1, 32, 64
3, 36668, Note_on_c, 1, 27, 98
3, 36752, Note_off_c, 1, 27, 64
3, 36768, Note_on_c, 1, 32, 98
3, 36824, Note_off_c, 1, 32, 64
3, 36864, Note_on_c, 1, 29, 114
3, 36952, Note_off_c, 1, 29, 64
3, 37052, Note_on_c, 1, 29, 108
3, 37112, Note_off_c, 1, 29, 64
3, 37148, Note_on_c, 1, 29, 108
3, 37236, Note_off_c, 1, 29, 64
3, 37348, Note_on_c, 1, 36, 108
3, 37428, Note_off_c, 1, 36, 64
3, 37444, Note_on_c, 1, 34, 114
3, 37540, Note_off_c, 1, 34, 64
3, 37828, Note_on_c, 1, 34, 105
3, 37880, Note_off_c, 1, 34, 64
3, 37924, Note_on_c, 1, 34, 114
3, 37976, Note_off_c, 1, 34, 64
3, 38020, Note_on_c, 1, 34, 119
3, 38080, Note_off_c, 1, 34, 64
3, 38116, Note_on_c, 1, 36, 108
3, 38188, Note_off_c, 1, 36, 64
3, 38308, Note_on_c, 1, 34, 105
3, 38364, Note_off_c, 1, 34, 64
3, 38404, Note_on_c, 1, 27, 105
3, 38484, Note_off_c, 1, 27, 64
3, 38588, Note_on_c, 1, 27, 105
3, 38648, Note_off_c, 1, 27, 64
3, 38692, Note_on_c, 1, 27, 101
3, 38780, Note_off_c, 1, 27, 64
3, 38884, Note_on_c, 1, 36, 105
3, 38948, Note_off_c, 1, 36, 64
3, 38980, Note_on_c, 1, 34, 114
3, 39068, Note_off_c, 1, 34, 64
3, 39168, Note_on_c, 1, 32, 114
3, 39268, Note_off_c, 1, 32, 64
3, 39364, Note_on_c, 1, 32, 105
3, 39448, Note_off_c, 1, 32, 64
3, 39744, Note_on_c, 1, 32, 101
3, 39788, Note_off_c, 1, 32, 64
3, 39836, Note_on_c, 1, 32, 114
3, 39892, Note_off_c, 1, 32, 64
3, 39936, Note_on_c, 1, 29, 114
3, 40012, Note_off_c, 1, 29, 64
3, 40124, Note_on_c, 1, 29, 119
3, 40180, Note_off_c, 1, 29, 64
3, 40224, Note_on_c, 1, 29, 119
3, 40312, Note_off_c, 1, 29, 64
3, 40420, Note_on_c, 1, 36, 108
3, 40476, Note_off_c, 1, 36, 64
3, 40516, Note_on_c, 1, 34, 119
3, 40616, Note_off_c, 1, 34, 64
3, 40900, Note_on_c, 1, 32, 114
3, 40984, Note_off_c, 1, 32, 64
3, 41092, Note_on_c, 1, 32, 105
3, 41140, Note_off_c, 1, 32, 64
3, 41188, Note_on_c, 1, 32, 114
3, 41268, Note_off_c, 1, 32, 64
3, 41372, Note_on_c, 1, 37, 101
3, 41456, Note_off_c, 1, 37, 64
3, 41472, Note_on_c, 1, 27, 105
3, 41556, Note_off_c, 1, 27, 64
3, 41660, Note_on_c, 1, 27, 114
3, 41728, Note_off_c, 1, 27, 64
3, 41760, Note_on_c, 1, 27, 105
3, 41836, Note_off_c, 1, 27, 64
3, 41948, Note_on_c, 1, 36, 108
3, 42016, Note_off_c, 1, 36, 64
3, 42044, Note_on_c, 1, 34, 114
3, 42116, Note_off_c, 1, 34, 64
3, 42236, Note_on_c, 1, 32, 105
3, 42324, Note_off_c, 1, 32, 64
3, 42428, Note_on_c, 1, 32, 119
3, 42532, Note_off_c, 1, 32, 64
3, 42812, Note_on_c, 1, 27, 98
3, 42896, Note_off_c, 1, 27, 64
3, 42912, Note_on_c, 1, 32, 98
3, 42968, Note_off_c, 1, 32, 64
3, 43008, Note_on_c, 1, 29, 114
3, 43096, Note_off_c, 1, 29, 64
3, 43196, Note_on_c, 1, 29, 108
3, 43256, Note_off_c, 1, 29, 64
3, 43292, Note_on_c, 1, 29, 108
3, 43380, Note_off_c, 1, 29, 64
3, 43492, Note_on_c, 1, 36, 108
3, 43572, Note_off_c, 1, 36, 64
3, 43588, Note_on_c, 1, 34, 114
3, 43684, Note_off_c, 1, 34, 64
3, 43972, Note_on_c, 1, 34, 105
3, 44024, Note_off_c, 1, 34, 64
3, 44068, Note_on_c, 1, 34, 114
3, 44120, Note_off_c, 1, 34, 64
3, 44164, Note_on_c, 1, 34, 119
3, 44224, Note_off_c, 1, 34, 64
3, 44260, Note_on_c, 1, 36, 108
3, 44332, Note_off_c, 1, 36, 64
3, 44452, Note_on_c, 1, 34, 105
3, 44508, Note_off_c, 1, 34, 64
3, 44548, Note_on_c, 1, 27, 105
3, 44628, Note_off_c, 1, 27, 64
3, 44732, Note_on_c, 1, 27, 105
3, 44792, Note_off_c, 1, 27, 64
3, 44836, Note_on_c, 1, 27, 101
3, 44924, Note_off_c, 1, 27, 64
3, 45028, Note_on_c, 1, 36, 105
3, 45092, Note_off_c, 1, 36, 64
3, 45124, Note_on_c, 1, 34, 114
3, 45212, Note_off_c, 1, 34, 64
3, 45312, Note_on_c, 1, 32, 114
3, 45412, Note_off_c, 1, 32, 64
3, 45508, Note_on_c, 1, 32, 105
3, 45592, Note_off_c, 1, 32, 64
3, 45888, Note_on_c, 1, 32, 101
3, 45932, Note_off_c, 1, 32, 64
3, 45980, Note_on_c, 1, 32, 114
3, 46036, Note_off_c, 1, 32, 64
3, 46080, Note_on_c, 1, 29, 114
3, 46156, Note_off_c, 1, 29, 64
3, 46268, Note_on_c, 1, 29, 119
3, 46324, Note_off_c, 1, 29, 64
3, 46368, Note_on_c, 1, 29, 119
3, 46456, Note_off_c, 1, 29, 64
3, 46564, Note_on_c, 1, 36, 108
3, 46620, Note_off_c, 1, 36, 64
3, 46660, Note_on_c, 1, 34, 119
3, 46760, Note_off_c, 1, 34, 64
3, 47044, Note_on_c, 1, 32, 114
3, 47128, Note_off_c, 1, 32, 64
3, 47236, Note_on_c, 1, 32, 105
3, 47284, Note_off_c, 1, 32, 64
3, 47332, Note_on_c, 1, 32, 114
3, 47412, Note_off_c, 1, 32, 64
3, 47516, Note_on_c, 1, 37, 101
3, 47600, Note_off_c, 1, 37, 64
3, 47616, Note_on_c, 1, 34, 114
3, 47676, Note_off_c, 1, 34, 64
3, 47812, Note_on_c, 1, 34, 114
3, 47856, Note_off_c, 1, 34, 64
3, 47904, Note_on_c, 1, 34, 119
3, 47968, Note_off_c, 1, 34, 64
3, 48100, Note_on_c, 1, 37, 114
3, 48152, Note_off_c, 1, 37, 64
3, 48192, Note_on_c, 1, 36, 114
3, 48256, Note_off_c, 1, 36, 64
3, 48380, Note_on_c, 1, 32, 114
3, 48452, Note_off_c, 1, 32, 64
3, 48572, Note_on_c, 1, 34, 105
3, 48656, Note_off_c, 1, 34, 64
3, 48956, Note_on_c, 1, 29, 108
3, 49012, Note_off_c, 1, 29, 64
3, 49052, Note_on_c, 1, 34, 105
3, 49128, Note_off_c, 1, 34, 64
3, 49348, Note_on_c, 1, 32, 105
3, 49392, Note_off_c, 1, 32, 64
3, 49444, Note_on_c, 1, 34, 114
3, 49520, Note_off_c, 1, 34, 64
3, 49636, Note_on_c, 1, 37, 114
3, 49684, Note_off_c, 1, 37, 64
3, 49732, Note_on_c, 1, 36, 119
3, 49820, Note_off_c, 1, 36, 64
3, 50496, Note_on_c, 1, 29, 114
3, 50556, Note_off_c, 1, 29, 64
3, 50596, Note_on_c, 1, 34, 119
3, 50676, Note_off_c, 1, 34, 64
3, 50884, Note_on_c, 1, 32, 114
3, 50940, Note_off_c, 1, 32, 64
3, 50980, Note_on_c, 1, 34, 114
3, 51060, Note_off_c, 1, 34, 64
3, 51172, Note_on_c, 1, 37, 105
3, 51224, Note_off_c, 1, 37, 64
3, 51268, Note_on_c, 1, 36, 119
3, 51332, Note_off_c, 1, 36, 64
3, 51460, Note_on_c, 1, 32, 114
3, 51540, Note_off_c, 1, 32, 64
3, 51652, Note_on_c, 1, 34, 114
3, 51732, Note_off_c, 1, 34, 64
3, 52036, Note_on_c, 1, 34, 105
3, 52088, Note_off_c, 1, 34, 64
3, 52128, Note_on_c, 1, 34, 114
3, 52184, Note_off_c, 1, 34, 64
3, 52228, Note_on_c, 1, 27, 105
3, 52308, Note_off_c, 1, 27, 64
3, 52420, Note_on_c, 1, 27, 105
3, 52480, Note_off_c, 1, 27, 64
3, 52516, Note_on_c, 1, 27, 114
3, 52608, Note_off_c, 1, 27, 64
3, 52708, Note_on_c, 1, 27, 101
3, 52764, Note_off_c, 1, 27, 64
3, 52804, Note_on_c, 1, 32, 119
3, 52872, Note_off_c, 1, 32, 64
3, 53188, Note_on_c, 1, 32, 101
3, 53232, Note_off_c, 1, 32, 64
3, 53284, Note_on_c, 1, 32, 114
3, 53356, Note_off_c, 1, 32, 64
3, 53572, Note_on_c, 1, 29, 114
3, 53624, Note_off_c, 1, 29, 64
3, 53668, Note_on_c, 1, 32, 124
3, 53720, Note_off_c, 1, 32, 64
3, 53760, Note_on_c, 1, 34, 114
3, 53820, Note_off_c, 1, 34, 64
3, 53956, Note_on_c, 1, 34, 114
3, 54000, Note_off_c, 1, 34, 64
3, 54048, Note_on_c, 1, 34, 119
3, 54112, Note_off_c, 1, 34, 64
3, 54244, Note_on_c, 1, 37, 114
3, 54296, Note_off_c, 1, 37, 64
3, 54336, Note_on_c, 1, 36, 114
3, 54400, Note_off_c, 1, 36, 64
3, 54524, Note_on_c, 1, 32, 114
3, 54596, Note_off_c, 1, 32, 64
3, 54716, Note_on_c, 1, 34, 105
3, 54800, Note_off_c, 1, 34, 64
3, 55100, Note_on_c, 1, 29, 108
3, 55156, Note_off_c, 1, 29, 64
3, 55196, Note_on_c, 1, 34, 105
3, 55272, Note_off_c, 1, 34, 64
3, 55492, Note_on_c, 1, 32, 105
3, 55536, Note_off_c, 1, 32, 64
3, 55588, Note_on_c, 1, 34, 114
3, 55664, Note_off_c, 1, 34, 64
3, 55780, Note_on_c, 1, 37, 114
3, 55828, Note_off_c, 1, 37, 64
3, 55876, Note_on_c, 1, 36, 119
3, 55964, Note_off_c, 1, 36, 64
3, 56640, Note_on_c, 1, 29, 114
3, 56700, Note_off_c, 1, 29, 64
3, 56740, Note_on_c, 1, 34, 119
3, 56820, Note_off_c, 1, 34, 64
3, 57028, Note_on_c, 1, 32, 114
3, 57084, Note_off_c, 1, 32, 64
3, 57124, Note_on_c, 1, 34, 114
3, 57204, Note_off_c, 1, 34, 64
3, 57316, Note_on_c, 1, 37, 105
3, 57368, Note_off_c, 1, 37, 64
3, 57412, Note_on_c, 1, 36, 119
3, 57476, Note_off_c, 1, 36, 64
3, 57604, Note_on_c, 1, 32, 114
3, 57684, Note_off_c, 1, 32, 64
3, 57796, Note_on_c, 1, 34, 114
3, 57876, Note_off_c, 1, 34, 64
3, 58180, Note_on_c, 1, 34, 105
3, 58232, Note_off_c, 1, 34, 64
3, 58272, Note_on_c, 1, 34, 114
3, 58328, Note_off_c, 1, 34, 64
3, 58372, Note_on_c, 1, 27, 105
3, 58452, Note_off_c, 1, 27, 64
3, 58564, Note_on_c, 1, 27, 105
3, 58624, Note_off_c, 1, 27, 64
3, 58660, Note_on_c, 1, 27, 114
3, 58752, Note_off_c, 1, 27, 64
3, 58852, Note_on_c, 1, 27, 101
3, 58908, Note_off_c, 1, 27, 64
3, 58948, Note_on_c, 1, 32, 119
3, 59016, Note_off_c, 1, 32, 64
3, 59332, Note_on_c, 1, 32, 101
3, 59376, Note_off_c, 1, 32, 64
3, 59428, Note_on_c, 1, 32, 114
3, 59500, Note_off_c, 1, 32, 64
3, 59716, Note_on_c, 1, 29, 114
3, 59768, Note_off_c, 1, 29, 64
3, 59812, Note_on_c, 1, 32, 124
3, 59864, Note_off_c, 1, 32, 64
3, 59904, Note_on_c, 1, 34, 114
3, 59964, Note_off_c, 1, 34, 64
3, 60100, Note_on_c, 1, 34, 114
3, 60144, Note_off_c, 1, 34, 64
3, 60192, Note_on_c, 1, 34, 119
3, 60256, Note_off_c, 1, 34, 64
3, 60388, Note_on_c, 1, 37, 114
3, 60440, Note_off_c, 1, 37, 64
3, 60480, Note_on_c, 1, 36, 114
3, 60544, Note_off_c, 1, 36, 64
3, 60668, Note_on_c, 1, 32, 114
3, 60740, Note_off_c, 1, 32, 64
3, 60860, Note_on_c, 1, 34, 105
3, 60944, Note_off_c, 1, 34, 64
3, 61244, Note_on_c, 1, 29, 108
3, 61300, Note_off_c, 1, 29, 64
3, 61340, Note_on_c, 1, 34, 105
3, 61416, Note_off_c, 1, 34, 64
3, 61636, Note_on_c, 1, 32, 105
3, 61680, Note_off_c, 1, 32, 64
3, 61732, Note_on_c, 1, 34, 114
3, 61808, Note_off_c, 1, 34, 64
3, 61924, Note_on_c, 1, 37, 114
3, 61972, Note_off_c, 1, 37, 64
3, 62020, Note_on_c, 1, 36, 119
3, 62108, Note_off_c, 1, 36, 64
3, 62784, Note_on_c, 1, 29, 114
3, 62844, Note_off_c, 1, 29, 64
3, 62884, Note_on_c, 1, 34, 119
3, 62964, Note_off_c, 1, 34, 64
3, 63172, Note_on_c, 1, 32, 114
3, 63228, Note_off_c, 1, 32, 64
3, 63268, Note_on_c, 1, 34, 114
3, 63348, Note_off_c, 1, 34, 64
3, 63460, Note_on_c, 1, 37, 105
3, 63512, Note_off_c, 1, 37, 64
3, 63556, Note_on_c, 1, 36, 119
3, 63620, Note_off_c, 1, 36, 64
3, 63748, Note_on_c, 1, 32, 114
3, 63828, Note_off_c, 1, 32, 64
3, 63940, Note_on_c, 1, 34, 114
3, 64020, Note_off_c, 1, 34, 64
3, 64320, Note_on_c, 1, 32, 105
3, 64372, Note_off_c, 1, 32, 64
3, 64416, Note_on_c, 1, 34, 114
3, 64472, Note_off_c, 1, 34, 64
3, 64512, Note_on_c, 1, 34, 105
3, 64592, Note_off_c, 1, 34, 64
3, 64704, Note_on_c, 1, 32, 105
3, 64764, Note_off_c, 1, 32, 64
3, 64800, Note_on_c, 1, 34, 114
3, 64892, Note_off_c, 1, 34, 64
3, 64992, Note_on_c, 1, 37, 101
3, 65048, Note_off_c, 1, 37, 64
3, 65088, Note_on_c, 1, 36, 119
3, 65156, Note_off_c, 1, 36, 64
3, 65856, Note_on_c, 1, 32, 114
3, 65908, Note_off_c, 1, 32, 64
3, 65952, Note_on_c, 1, 34, 124
3, 66004, Note_off_c, 1, 34, 64
3, 66048, Note_on_c, 1, 27, 105
3, 66132, Note_off_c, 1, 27, 64
3, 66236, Note_on_c, 1, 27, 114
3, 66304, Note_off_c, 1, 27, 64
3, 66336, Note_on_c, 1, 27, 105
3, 66412, Note_off_c, 1, 27, 64
3, 66524, Note_on_c, 1, 36, 108
3, 66592, Note_off_c, 1, 36, 64
3, 66620, Note_on_c, 1, 34, 114
3, 66692, Note_off_c, 1, 34, 64
3, 66812, Note_on_c, 1, 32, 105
3, 66900, Note_off_c, 1, 32, 64
3, 67004, Note_on_c, 1, 32, 119
3, 67108, Note_off_c, 1, 32, 64
3, 67388, Note_on_c, 1, 27, 98
3, 67472, Note_off_c, 1, 27, 64
3, 67488, Note_on_c, 1, 32, 98
3, 67544, Note_off_c, 1, 32, 64
3, 67584, Note_on_c, 1, 29, 114
3, 67672, Note_off_c, 1, 29, 64
3, 67772, Note_on_c, 1, 29, 108
3, 67832, Note_off_c, 1, 29, 64
3, 67868, Note_on_c, 1, 29, 108
3, 67956, Note_off_c, 1, 29, 64
3, 68068, Note_on_c, 1, 36, 108
3, 68148, Note_off_c, 1, 36, 64
3, 68164, Note_on_c, 1, 34, 114
3, 68260, Note_off_c, 1, 34, 64
3, 68548, Note_on_c, 1, 34, 105
3, 68600, Note_off_c, 1, 34, 64
3, 68644, Note_on_c, 1, 34, 114
3, 68696, Note_off_c, 1, 34, 64
3, 68740, Note_on_c, 1, 34, 119
3, 68800, Note_off_c, 1, 34, 64
3, 68836, Note_on_c, 1, 36, 108
3, 68908, Note_off_c, 1, 36, 64
3, 69028, Note_on_c, 1, 34, 105
3, 69084, Note_off_c, 1, 34, 64
3, 69124, Note_on_c, 1, 27, 105
3, 69204, Note_off_c, 1, 27, 64
3, 69308, Note_on_c, 1, 27, 105
3, 69368, Note_off_c, 1, 27, 64
3, 69412, Note_on_c, 1, 27, 101
3, 69500, Note_off_c, 1, 27, 64
3, 69604, Note_on_c, 1, 36, 105
3, 69668, Note_off_c, 1, 36, 64
3, 69700, Note_on_c, 1, 34, 114
3, 69788, Note_off_c, 1, 34, 64
3, 69888, Note_on_c, 1, 32, 114
3, 69988, Note_off_c, 1, 32, 64
3, 70084, Note_on_c, 1, 32, 105
3, 70168, Note_off_c, 1, 32, 64
3, 70464, Note_on_c, 1, 32, 101
3, 70508, Note_off_c, 1, 32, 64
3, 70556, Note_on_c, 1, 32, 114
3, 70612, Note_off_c, 1, 32, 64
3, 70656, Note_on_c, 1, 29, 114
3, 70732, Note_off_c, 1, 29, 64
3, 70844, Note_on_c, 1, 29, 119
3, 70900, Note_off_c, 1, 29, 64
3, 70944, Note_on_c, 1, 29, 119
3, 71032, Note_off_c, 1, 29, 64
3, 71140, Note_on_c, 1, 36, 108
3, 71196, Note_off_c, 1, 36, 64
3, 71236, Note_on_c, 1, 34, 119
3, 71336, Note_off_c, 1, 34, 64
3, 71620, Note_on_c, 1, 32, 114
3, 71704, Note_off_c, 1, 32, 64
3, 71812, Note_on_c, 1, 32, 105
3, 71860, Note_off_c, 1, 32, 64
3, 71908, Note_on_c, 1, 32, 114
3, 71988, Note_off_c, 1, 32, 64
3, 72092, Note_on_c, 1, 37, 101
3, 72176, Note_off_c, 1, 37, 64
3, 72192, Note_on_c, 1, 27, 105
3, 72276, Note_off_c, 1, 27, 64
3, 72380, Note_on_c, 1, 27, 114
3, 72448, Note_off_c, 1, 27, 64
3, 72480, Note_on_c, 1, 27, 105
3, 72556, Note_off_c, 1, 27, 64
3, 72668, Note_on_c, 1, 36, 108
3, 72736, Note_off_c, 1, 36, 64
3, 72764, Note_on_c, 1, 34, 114
3, 72836, Note_off_c, 1, 34, 64
3, 72956, Note_on_c, 1, 32, 105
3, 73044, Note_off_c, 1, 32, 64
3, 73148, Note_on_c, 1, 32, 119
3, 73252, Note_off_c, 1, 32, 64
3, 73532, Note_on_c, 1, 27, 98
3, 73616, Note_off_c, 1, 27, 64
3, 73632, Note_on_c, 1, 32, 98
3, 73688, Note_off_c, 1, 32, 64
3, 73728, Note_on_c, 1, 29, 114
3, 73816, Note_off_c, 1, 29, 64
3, 73916, Note_on_c, 1, 29, 108
3, 73976, Note_off_c, 1, 29, 64
3, 74012, Note_on_c, 1, 29, 108
3, 74100, Note_off_c, 1, 29, 64
3, 74212, Note_on_c, 1, 36, 108
3, 74292, Note_off_c, 1, 36, 64
3, 74308, Note_on_c, 1, 34, 114
3, 74404, Note_off_c, 1, 34, 64
3, 74692, Note_on_c, 1, 34, 105
3, 74744, Note_off_c, 1, 34, 64
3, 74788, Note_on_c, 1, 34, 114
3, 74840, Note_off_c, 1, 34, 64
3, 74884, Note_on_c, 1, 34, 119
3, 74944, Note_off_c, 1, 34, 64
3, 74980, Note_on_c, 1, 36, 108
3, 75052, Note_off_c, 1, 36, 64
3, 75172, Note_on_c, 1, 34, 105
3, 75228, Note_off_c, 1, 34, 64
3, 75268, Note_on_c, 1, 27, 105
3, 75348, Note_off_c, 1, 27, 64
3, 75452, Note_on_c, 1, 27, 105
3, 75512, Note_off_c, 1, 27, 64
3, 75556, Note_on_c, 1, 27, 101
3, 75644, Note_off_c, 1, 27, 64
3, 75748, Note_on_c, 1, 36, 105
3, 75812, Note_off_c, 1, 36, 64
3, 75844, Note_on_c, 1, 34, 114
3, 75932, Note_off_c, 1, 34, 64
3, 76032, Note_on_c, 1, 32, 114
3, 76132, Note_off_c, 1, 32, 64
3, 76228, Note_on_c, 1, 32, 105
3, 76312, Note_off_c, 1, 32, 64
3, 76608, Note_on_c, 1, 32, 101
3, 76652, Note_off_c, 1, 32, 64
3, 76700, Note_on_c, 1, 32, 114
3, 76756, Note_off_c, 1, 32, 64
3, 76800, Note_on_c, 1, 29, 114
3, 76876, Note_off_c, 1, 29, 64
3, 76988, Note_on_c, 1, 29, 119
3, 77044, Note_off_c, 1, 29, 64
3, 77088, Note_on_c, 1, 29, 119
3, 77176, Note_off_c, 1, 29, 64
3, 77284, Note_on_c, 1, 36, 108
3, 77340, Note_off_c, 1, 36, 64
3, 77380, Note_on_c, 1, 34, 119
3, 77480, Note_off_c, 1, 34, 64
3, 77764, Note_on_c, 1, 32, 114
3, 77848, Note_off_c, 1, 32, 64
3, 77956, Note_on_c, 1, 32, 105
3, 78004, Note_off_c, 1, 32, 64
3, 78052, Note_on_c, 1, 32, 114
3, 78132, Note_off_c, 1, 32, 64
3, 78236, Note_on_c, 1, 37, 101
3, 78320, Note_off_c, 1, 37, 64
3, 78336, Note_on_c, 1, 27, 105
3, 78420, Note_off_c, 1, 27, 64
3, 78524, Note_on_c, 1, 27, 114
3, 78592, Note_off_c, 1, 27, 64
3, 78624, Note_on_c, 1, 27, 105
3, 78700, Note_off_c, 1, 27, 64
3, 78812, Note_on_c, 1, 36, 108
3, 78880, Note_off_c, 1, 36, 64
3, 78908, Note_on_c, 1, 34, 114
3, 78980, Note_off_c, 1, 34, 64
3, 79100, Note_on_c, 1, 32, 105
3, 79188, Note_off_c, 1, 32, 64
3, 79292, Note_on_c, 1, 32, 119
3, 79396, Note_off_c, 1, 32, 64
3, 79676, Note_on_c, 1, 27, 98
3, 79760, Note_off_c, 1, 27, 64
3, 79776, Note_on_c, 1, 32, 98
3, 79832, Note_off_c, 1, 32, 64
3, 79872, Note_on_c, 1, 29, 114
3, 79960, Note_off_c, 1, 29, 64
3, 80060, Note_on_c, 1, 29, 108
3, 80120, Note_off_c, 1, 29, 64
3, 80156, Note_on_c, 1, 29, 108
3, 80244, Note_off_c, 1, 29, 64
3, 80356, Note_on_c, 1, 36, 108
3, 80436, Note_off_c, 1, 36, 64
3, 80452, Note_on_c, 1, 34, 114
3, 80548, Note_off_c, 1, 34, 64
3, 80836, Note_on_c, 1, 34, 105
3, 80888, Note_off_c, 1, 34, 64
3, 80932, Note_on_c, 1, 34, 114
3, 80984, Note_off_c, 1, 34, 64
3, 81028, Note_on_c, 1, 34, 119
3, 81088, Note_off_c, 1, 34, 64
3, 81124, Note_on_c, 1, 36, 108
3, 81196, Note_off_c, 1, 36, 64
3, 81316, Note_on_c, 1, 34, 105
3, 81372, Note_off_c, 1, 34, 64
3, 81412, Note_on_c, 1, 27, 105
3, 81492, Note_off_c, 1, 27, 64
3, 81596, Note_on_c, 1, 27, 105
3, 81656, Note_off_c, 1, 27, 64
3, 81700, Note_on_c, 1, 27, 101
3, 81788, Note_off_c, 1, 27, 64
3, 81892, Note_on_c, 1, 36, 105
3, 81956, Note_off_c, 1, 36, 64
3, 81988, Note_on_c, 1, 34, 114
3, 82076, Note_off_c, 1, 34, 64
3, 82176, Note_on_c, 1, 32, 114
3, 82276, Note_off_c, 1, 32, 64
3, 82372, Note_on_c, 1, 32, 105
3, 82456, Note_off_c, 1, 32, 64
3, 82752, Note_on_c, 1, 32, 101
3, 82796, Note_off_c, 1, 32, 64
3, 82844, Note_on_c, 1, 32, 114
3, 82900, Note_off_c, 1, 32, 64
3, 82944, Note_on_c, 1, 29, 114
3, 83020, Note_off_c, 1, 29, 64
3, 83132, Note_on_c, 1, 29, 119
3, 83188, Note_off_c, 1, 29, 64
3, 83232, Note_on_c, 1, 29, 119
3, 83320, Note_off_c, 1, 29, 64
3, 83428, Note_on_c, 1, 36, 108
3, 83484, Note_off_c, 1, 36, 64
3, 83524, Note_on_c, 1, 34, 119
3, 83624, Note_off_c, 1, 34, 64
3, 83908, Note_on_c, 1, 32, 114
3, 83992, Note_off_c, 1, 32, 64
3, 84100, Note_on_c, 1, 32, 105
3, 84148, Note_off_c, 1, 32, 64
3, 84196, Note_on_c, 1, 32, 114
3, 84276, Note_off_c, 1, 32, 64
3, 84380, Note_on_c, 1, 37, 101
3, 84464, Note_off_c, 1, 37, 64
3, 84480, Note_on_c, 1, 27, 105
3, 84564, Note_off_c, 1, 27, 64
3, 84668, Note_on_c, 1, 27, 114
3, 84736, Note_off_c, 1, 27, 64
3, 84768, Note_on_c, 1, 27, 105
3, 84844, Note_off_c, 1, 27, 64
3, 84956, Note_on_c, 1, 36, 108
3, 85024, Note_off_c, 1, 36, 64
3, 85052, Note_on_c, 1, 34, 114
3, 85124, Note_off_c, 1, 34, 64
3, 85244, Note_on_c, 1, 32, 105
3, 85332, Note_off_c, 1, 32, 64
3, 85436, Note_on_c, 1, 32, 119
3, 85540, Note_off_c, 1, 32, 64
3, 85820, Note_on_c, 1, 27, 98
3, 85904, Note_off_c, 1, 27, 64
3, 85920, Note_on_c, 1, 32, 98
3, 85976, Note_off_c, 1, 32, 64
3, 86016, Note_on_c, 1, 29, 114
3, 86104, Note_off_c, 1, 29, 64
3, 86204, Note_on_c, 1, 29, 108
3, 86264, Note_off_c, 1, 29, 64
3, 86300, Note_on_c, 1, 29, 108
3, 86388, Note_off_c, 1, 29, 64
3, 86500, Note_on_c, 1, 36, 108
3, 86580, Note_off_c, 1, 36, 64
3, 86596, Note_on_c, 1, 34, 114
3, 86692, Note_off_c, 1, 34, 64
3, 86980, Note_on_c, 1, 34, 105
3, 87032, Note_off_c, 1, 34, 64
3, 87076, Note_on_c, 1, 34, 114
3, 87128, Note_off_c, 1, 34, 64
3, 87172, Note_on_c, 1, 34, 119
3, 87232, Note_off_c, 1, 34, 64
3, 87268, Note_on_c, 1, 36, 108
3, 87340, Note_off_c, 1, 36, 64
3, 87460, Note_on_c, 1, 34, 105
3, 87516, Note_off_c, 1, 34, 64
3, 87556, Note_on_c, 1, 27, 105
3, 87636, Note_off_c, 1, 27, 64
3, 87740, Note_on_c, 1, 27, 105
3, 87800, Note_off_c, 1, 27, 64
3, 87844, Note_on_c, 1, 27, 101
3, 87932, Note_off_c, 1, 27, 64
3, 88036, Note_on_c, 1, 36, 105
3, 88100, Note_off_c, 1, 36, 64
3, 88132, Note_on_c, 1, 34, 114
3, 88220, Note_off_c, 1, 34, 64
3, 88320, Note_on_c, 1, 32, 114
3, 88420, Note_off_c, 1, 32, 64
3, 88516, Note_on_c, 1, 32, 105
3, 88600, Note_off_c, 1, 32, 64
3, 88896, Note_on_c, 1, 32, 101
3, 88940, Note_off_c, 1, 32, 64
3, 88988, Note_on_c, 1, 32, 114
3, 89044, Note_off_c, 1, 32, 64
3, 89088, Note_on_c, 1, 29, 114
3, 89164, Note_off_c, 1, 29, 64
3, 89276, Note_on_c, 1, 29, 119
3, 89332, Note_off_c, 1, 29, 64
3, 89376, Note_on_c, 1, 29, 119
3, 89464, Note_off_c, 1, 29, 64
3, 89572, Note_on_c, 1, 36, 108
3, 89628, Note_off_c, 1, 36, 64
3, 89668, Note_on_c, 1, 34, 119
3, 89768, Note_off_c, 1, 34, 64
3, 90052, Note_on_c, 1, 32, 114
3, 90136, Note_off_c, 1, 32, 64
3, 90244, Note_on_c, 1, 32, 105
3, 90292, Note_off_c, 1, 32, 64
3, 90340, Note_on_c, 1, 32, 114
3, 90420, Note_off_c, 1, 32, 64
3, 90524, Note_on_c, 1, 37, 101
3, 90608, Note_off_c, 1, 37, 64
3, 90628, Note_on_c, 1, 39, 119
3, 90720, Note_off_c, 1, 39, 64
3, 90816, Note_on_c, 1, 37, 105
3, 90864, Note_off_c, 1, 37, 64
3, 90916, Note_on_c, 1, 39, 119
3, 90988, Note_off_c, 1, 39, 64
3, 91100, Note_on_c, 1, 42, 114
3, 91160, Note_off_c, 1, 42, 64
3, 91196, Note_on_c, 1, 41, 119
3, 91272, Note_off_c, 1, 41, 64
3, 91388, Note_on_c, 1, 37, 114
3, 91484, Note_off_c, 1, 37, 64
3, 91580, Note_on_c, 1, 39, 114
3, 91680, Note_off_c, 1, 39, 64
3, 91964, Note_on_c, 1, 29, 108
3, 92036, Note_off_c, 1, 29, 64
3, 92064, Note_on_c, 1, 32, 114
3, 92124, Note_off_c, 1, 32, 64
3, 92164, Note_on_c, 1, 34, 119
3, 92236, Note_off_c, 1, 34, 64
3, 92352, Note_on_c, 1, 32, 105
3, 92416, Note_off_c, 1, 32, 64
3, 92452, Note_on_c, 1, 34, 119
3, 92532, Note_off_c, 1, 34, 64
3, 92644, Note_on_c, 1, 37, 105
3, 92700, Note_off_c, 1, 37, 64
3, 92740, Note_on_c, 1, 36, 124
3, 92844, Note_off_c, 1, 36, 64
3, 93500, Note_on_c, 1, 34, 114
3, 93564, Note_off_c, 1, 34, 64
3, 93596, Note_on_c, 1, 37, 114
3, 93676, Note_off_c, 1, 37, 64
3, 93700, Note_on_c, 1, 39, 119
3, 93792, Note_off_c, 1, 39, 64
3, 93888, Note_on_c, 1, 37, 105
3, 93936, Note_off_c, 1, 37, 64
3, 93988, Note_on_c, 1, 39, 119
3, 94060, Note_off_c, 1, 39, 64
3, 94172, Note_on_c, 1, 42, 114
3, 94232, Note_off_c, 1, 42, 64
3, 94268, Note_on_c, 1, 41, 119
3, 94344, Note_off_c, 1, 41, 64
3, 94460, Note_on_c, 1, 37, 114
3, 94556, Note_off_c, 1, 37, 64
3, 94652, Note_on_c, 1, 39, 114
3, 94752, Note_off_c, 1, 39, 64
3, 95036, Note_on_c, 1, 29, 108
3, 95108, Note_off_c, 1, 29, 64
3, 95136, Note_on_c, 1, 32, 114
3, 95196, Note_off_c, 1, 32, 64
3, 95236, Note_on_c, 1, 34, 119
3, 95308, Note_off_c, 1, 34, 64
3, 95424, Note_on_c, 1, 32, 105
3, 95488, Note_off_c, 1, 32, 64
3, 95524, Note_on_c, 1, 34, 119
3, 95604, Note_off_c, 1, 34, 64
3, 95716, Note_on_c, 1, 37, 105
3, 95772, Note_off_c, 1, 37, 64
3, 95812, Note_on_c, 1, 36, 124
3, 95916, Note_off_c, 1, 36, 64
3, 96572, Note_on_c, 1, 34, 114
3, 96636, Note_off_c, 1, 34, 64
3, 96668, Note_on_c, 1, 37, 114
3, 96748, Note_off_c, 1, 37, 64
3, 96772, Note_on_c, 1, 39, 119
3, 96864, Note_off_c, 1, 39, 64
3, 96960, Note_on_c, 1, 37, 105
3, 97008, Note_off_c, 1, 37, 64
3, 97060, Note_on_c, 1, 39, 119
3, 97132, Note_off_c, 1, 39, 64
3, 97244, Note_on_c, 1, 42, 114
3, 97304, Note_off_c, 1, 42, 64
3, 97340, Note_on_c, 1, 41, 119
3, 97416, Note_off_c, 1, 41, 64
3, 97532, Note_on_c, 1, 37, 114
3, 97628, Note_off_c, 1, 37, 64
3, 97724, Note_on_c, 1, 39, 114
3, 97824, Note_off_c, 1, 39, 64
3, 98108, Note_on_c, 1, 29, 108
3, 98180, Note_off_c, 1, 29, 64
3, 98208, Note_on_c, 1, 32, 114
3, 98268, Note_off_c, 1, 32, 64
3, 98308, Note_on_c, 1, 34, 119
3, 98380, Note_off_c, 1, 34, 64
3, 98496, Note_on_c, 1, 32, 105
3, 98560, Note_off_c, 1, 32, 64
3, 98596, Note_on_c, 1, 34, 119
3, 98676, Note_off_c, 1, 34, 64
3, 98788, Note_on_c, 1, 37, 105
3, 98844, Note_off_c, 1, 37, 64
3, 98884, Note_on_c, 1, 36, 124
3, 98988, Note_off_c, 1, 36, 64
3, 99644, Note_on_c, 1, 34, 114
3, 99708, Note_off_c, 1, 34, 64
3, 99740, Note_on_c, 1, 37, 114
3, 99820, Note_off_c, 1, 37, 64
3, 99844, Note_on_c, 1, 39, 119
3, 99936, Note_off_c, 1, 39, 64
3, 100032, Note_on_c, 1, 37, 105
3, 100080, Note_off_c, 1, 37, 64
3, 100132, Note_on_c, 1, 39, 119
3, 100204, Note_off_c, 1, 39, 64
3, 100316, Note_on_c, 1, 42, 114
3, 100376, Note_off_c, 1, 42, 64
3, 100412, Note_on_c, 1, 41, 119
3, 100488, Note_off_c, 1, 41, 64
3, 100604, Note_on_c, 1, 37, 114
3, 100700, Note_off_c, 1, 37, 64
3, 100796, Note_on_c, 1, 39, 114
3, 100896, Note_off_c, 1, 39, 64
3, 101180, Note_on_c, 1, 29, 108
3, 101252, Note_off_c, 1, 29, 64
3, 101280, Note_on_c, 1, 32, 114
3, 101340, Note_off_c, 1, 32, 64
3, 101380, Note_on_c, 1, 34, 119
3, 101452, Note_off_c, 1, 34, 64
3, 101568, Note_on_c, 1, 32, 105
3, 101632, Note_off_c, 1, 32, 64
3, 101668, Note_on_c, 1, 34, 119
3, 101748, Note_off_c, 1, 34, 64
3, 101860, Note_on_c, 1, 37, 105
3, 101916, Note_off_c, 1, 37, 64
3, 101956, Note_on_c, 1, 36, 124
3, 102060, Note_off_c, 1, 36, 64
3, 102716, Note_on_c, 1, 34, 114
3, 102780, Note_off_c, 1, 34, 64
3, 102812, Note_on_c, 1, 37, 114
3, 102892, Note_off_c, 1, 37, 64
3, 115200, Note_on_c, 1, 34, 114
3, 115260, Note_off_c, 1, 34, 64
3, 115396, Note_on_c, 1, 34, 114
3, 115440, Note_off_c, 1, 34, 64
3, 115488, Note_on_c, 1, 34, 119
3, 115552, Note_off_c, 1, 34, 64
3, 115684, Note_on_c, 1, 37, 114
3, 115736, Note_off_c, 1, 37, 64
3, 115776, Note_on_c, 1, 36, 114
3, 115840, Note_off_c, 1, 36, 64
3, 115964, Note_on_c, 1, 32, 114
3, 116036, Note_off_c, 1, 32, 64
3, 116156, Note_on_c, 1, 34, 105
3, 116240, Note_off_c, 1, 34, 64
3, 116540, Note_on_c, 1, 29, 108
3, 116596, Note_off_c, 1, 29, 64
3, 116636, Note_on_c, 1, 34, 105
3, 116712, Note_off_c, 1, 34, 64
3, 116932, Note_on_c, 1, 32, 105
3, 116976, Note_off_c, 1, 32, 64
3, 117028, Note_on_c, 1, 34, 114
3, 117104, Note_off_c, 1, 34, 64
3, 117220, Note_on_c, 1, 37, 114
3, 117268, Note_off_c, 1, 37, 64
3, 117316, Note_on_c, 1, 36, 119
3, 117404, Note_off_c, 1, 36, 64
3, 118080, Note_on_c, 1, 29, 114
3, 118140, Note_off_c, 1, 29, 64
3, 118180, Note_on_c, 1, 34, 119
3, 118260, Note_off_c, 1, 34, 64
3, 118468, Note_on_c, 1, 32, 114
3, 118524, Note_off_c, 1, 32, 64
3, 118564, Note_on_c, 1, 34, 114
3, 118644, Note_off_c, 1, 34, 64
3, 118756, Note_on_c, 1, 37, 105
3, 118808, Note_off_c, 1, 37, 64
3, 118852, Note_on_c, 1, 36, 119
3, 118916, Note_off_c, 1, 36, 64
3, 119044, Note_on_c, 1, 32, 114
3, 119124, Note_off_c, 1, 32, 64
3, 119236, Note_on_c, 1, 34, 114
3, 119316, Note_off_c, 1, 34, 64
3, 119616, Note_on_c, 1, 32, 105
3, 119668, Note_off_c, 1, 32, 64
3, 119712, Note_on_c, 1, 34, 114
3, 119768, Note_off_c, 1, 34, 64
3, 119808, Note_on_c, 1, 34, 105
3, 119888, Note_off_c, 1, 34, 64
3, 120000, Note_on_c, 1, 32, 105
3, 120060, Note_off_c, 1, 32, 64
3, 120096, Note_on_c, 1, 34, 114
3, 120188, Note_off_c, 1, 34, 64
3, 120288, Note_on_c, 1, 37, 101
3, 120344, Note_off_c, 1, 37, 64
3, 120384, Note_on_c, 1, 36, 119
3, 120452, Note_off_c, 1, 36, 64
3, 121152, Note_on_c, 1, 32, 114
3, 121204, Note_off_c, 1, 32, 64
3, 121248, Note_on_c, 1, 34, 124
3, 121300, Note_off_c, 1, 34, 64
3, 121344, Note_on_c, 1, 27, 105
3, 121428, Note_off_c, 1, 27, 64
3, 121532, Note_on_c, 1, 27, 114
3, 121600, Note_off_c, 1, 27, 64
3, 121632, Note_on_c, 1, 27, 105
3, 121708, Note_off_c, 1, 27, 64
3, 121820, Note_on_c, 1, 36, 108
3, 121888, Note_off_c, 1, 36, 64
3, 121916, Note_on_c, 1, 34, 114
3, 121988, Note_off_c, 1, 34, 64
3, 122108, Note_on_c, 1, 32, 105
3, 122196, Note_off_c, 1, 32, 64
3, 122300, Note_on_c, 1, 32, 119
3, 122404, Note_off_c, 1, 32, 64
3, 122684, Note_on_c, 1, 27, 98
3, 122768, Note_off_c, 1, 27, 64
3, 122784, Note_on_c, 1, 32, 98
3, 122840, Note_off_c, 1, 32, 64
3, 122880, Note_on_c, 1, 29, 114
3, 122968, Note_off_c, 1, 29, 64
3, 123068, Note_on_c, 1, 29, 108
3, 123128, Note_off_c, 1, 29, 64
3, 123164, Note_on_c, 1, 29, 108
3, 123252, Note_off_c, 1, 29, 64
3, 123364, Note_on_c, 1, 36, 108
3, 123444, Note_off_c, 1, 36, 64
3, 123460, Note_on_c, 1, 34, 114
3, 123556, Note_off_c, 1, 34, 64
3, 123844, Note_on_c, 1, 34, 105
3, 123896, Note_off_c, 1, 34, 64
3, 123940, Note_on_c, 1, 34, 114
3, 123992, Note_off_c, 1, 34, 64
3, 124036, Note_on_c, 1, 34, 119
3, 124096, Note_off_c, 1, 34, 64
3, 124132, Note_on_c, 1, 36, 108
3, 124204, Note_off_c, 1, 36, 64
3, 124324, Note_on_c, 1, 34, 105
3, 124380, Note_off_c, 1, 34, 64
3, 124420, Note_on_c, 1, 27, 105
3, 124500, Note_off_c, 1, 27, 64
3, 124604, Note_on_c, 1, 27, 105
3, 124664, Note_off_c, 1, 27, 64
3, 124708, Note_on_c, 1, 27, 101
3, 124796, Note_off_c, 1, 27, 64
3, 124900, Note_on_c, 1, 36, 105
3, 124964, Note_off_c, 1, 36, 64
3, 124996, Note_on_c, 1, 34, 114
3, 125084, Note_off_c, 1, 34, 64
3, 125184, Note_on_c, 1, 32, 114
3, 125284, Note_off_c, 1, 32, 64
3, 125380, Note_on_c, 1, 32, 105
3, 125464, Note_off_c, 1, 32, 64
3, 125760, Note_on_c, 1, 32, 101
3, 125804, Note_off_c, 1, 32, 64
3, 125852, Note_on_c, 1, 32, 114
3, 125908, Note_off_c, 1, 32, 64
3, 125952, Note_on_c, 1, 29, 114
3, 126028, Note_off_c, 1, 29, 64
3, 126140, Note_on_c, 1, 29, 119
3, 126196, Note_off_c, 1, 29, 64
3, 126240, Note_on_c, 1, 29, 119
3, 126328, Note_off_c, 1, 29, 64
3, 126436, Note_on_c, 1, 36, 108
3, 126492, Note_off_c, 1, 36, 64
3, 126532, Note_on_c, 1, 34, 119
3, 126632, Note_off_c, 1, 34, 64
3, 126916, Note_on_c, 1, 32, 114
3, 127000, Note_off_c, 1, 32, 64
3, 127108, Note_on_c, 1, 32, 105
3, 127156, Note_off_c, 1, 32, 64
3, 127204, Note_on_c, 1, 32, 114
3, 127284, Note_off_c, 1, 32, 64
3, 127388, Note_on_c, 1, 37, 101
3, 127472, Note_off_c, 1, 37, 64
3, 127488, Note_on_c, 1, 27, 105
3, 127572, Note_off_c, 1, 27, 64
3, 127676, Note_on_c, 1, 27, 114
3, 127744, Note_off_c, 1, 27, 64
3, 127776, Note_on_c, 1, 27, 105
3, 127852, Note_off_c, 1, 27, 64
3, 127964, Note_on_c, 1, 36, 108
3, 128032, Note_off_c, 1, 36, 64
3, 128060, Note_on_c, 1, 34, 114
3, 128132, Note_off_c, 1, 34, 64
3, 128252, Note_on_c, 1, 32, 105
3, 128340, Note_off_c, 1, 32, 64
3, 128444, Note_on_c, 1, 32, 119
3, 128548, Note_off_c, 1, 32, 64
3, 128828, Note_on_c, 1, 27, 98
3, 128912, Note_off_c, 1, 27, 64
3, 128928, Note_on_c, 1, 32, 98
3, 128984, Note_off_c, 1, 32, 64
3, 129024, Note_on_c, 1, 29, 114
3, 129112, Note_off_c, 1, 29, 64
3, 129212, Note_on_c, 1, 29, 108
3, 129272, Note_off_c, 1, 29, 64
3, 129308, Note_on_c, 1, 29, 108
3, 129396, Note_off_c, 1, 29, 64
3, 129508, Note_on_c, 1, 36, 108
3, 129588, Note_off_c, 1, 36, 64
3, 129604, Note_on_c, 1, 34, 114
3, 129700, Note_off_c, 1, 34, 64
3, 129988, Note_on_c, 1, 34, 105
3, 130040, Note_off_c, 1, 34, 64
3, 130084, Note_on_c, 1, 34, 114
3, 130136, Note_off_c, 1, 34, 64
3, 130180, Note_on_c, 1, 34, 119
3, 130240, Note_off_c, 1, 34, 64
3, 130276, Note_on_c, 1, 36, 108
3, 130348, Note_off_c, 1, 36, 64
3, 130468, Note_on_c, 1, 34, 105
3, 130524, Note_off_c, 1, 34, 64
3, 130564, Note_on_c, 1, 27, 105
3, 130644, Note_off_c, 1, 27, 64
3, 130748, Note_on_c, 1, 27, 105
3, 130808, Note_off_c, 1, 27, 64
3, 130852, Note_on_c, 1, 27, 101
3, 130940, Note_off_c, 1, 27, 64
3, 131044, Note_on_c, 1, 36, 105
3, 131108, Note_off_c, 1, 36, 64
3, 131140, Note_on_c, 1, 34, 114
3, 131228, Note_off_c, 1, 34, 64
3, 131328, Note_on_c, 1, 32, 114
3, 131428, Note_off_c, 1, 32, 64
3, 131524, Note_on_c, 1, 32, 105
3, 131608, Note_off_c, 1, 32, 64
3, 131904, Note_on_c, 1, 32, 101
3, 131948, Note_off_c, 1, 32, 64
3, 131996, Note_on_c, 1, 32, 114
3, 132052, Note_off_c, 1, 32, 64
3, 132096, Note_on_c, 1, 29, 114
3, 132172, Note_off_c, 1, 29, 64
3, 132284, Note_on_c, 1, 29, 119
3, 132340, Note_off_c, 1, 29, 64
3, 132384, Note_on_c, 1, 29, 119
3, 132472, Note_off_c, 1, 29, 64
3, 132580, Note_on_c, 1, 36, 108
3, 132636, Note_off_c, 1, 36, 64
3, 132676, Note_on_c, 1, 34, 119
3, 132776, Note_off_c, 1, 34, 64
3, 133060, Note_on_c, 1, 32, 114
3, 133144, Note_off_c, 1, 32, 64
3, 133252, Note_on_c, 1, 32, 105
3, 133300, Note_off_c, 1, 32, 64
3, 133348, Note_on_c, 1, 32, 114
3, 133428, Note_off_c, 1, 32, 64
3, 133532, Note_on_c, 1, 37, 101
3, 133616, Note_off_c, 1, 37, 64
3, 133632, Note_on_c, 1, 27, 105
3, 133716, Note_off_c, 1, 27, 64
3, 133820, Note_on_c, 1, 27, 114
3, 133888, Note_off_c, 1, 27, 64
3, 133920, Note_on_c, 1, 27, 105
3, 133996, Note_off_c, 1, 27, 64
3, 134108, Note_on_c, 1, 36, 108
3, 134176, Note_off_c, 1, 36, 64
3, 134204, Note_on_c, 1, 34, 114
3, 134276, Note_off_c, 1, 34, 64
3, 134396, Note_on_c, 1, 32, 105
3, 134484, Note_off_c, 1, 32, 64
3, 134588, Note_on_c, 1, 32, 119
3, 134692, Note_off_c, 1, 32, 64
3, 134972, Note_on_c, 1, 27, 98
3, 135056, Note_off_c, 1, 27, 64
3, 135072, Note_on_c, 1, 32, 98
3, 135128, Note_off_c, 1, 32, 64
3, 135168, Note_on_c, 1, 29, 114
3, 135256, Note_off_c, 1, 29, 64
3, 135356, Note_on_c, 1, 29, 108
3, 135416, Note_off_c, 1, 29, 64
3, 135452, Note_on_c, 1, 29, 108
3, 135540, Note_off_c, 1, 29, 64
3, 135652, Note_on_c, 1, 36, 108
3, 135732, Note_off_c, 1, 36, 64
3, 135748, Note_on_c, 1, 34, 114
3, 135844, Note_off_c, 1, 34, 64
3, 136132, Note_on_c, 1, 34, 105
3, 136184, Note_off_c, 1, 34, 64
3, 136228, Note_on_c, 1, 34, 114
3, 136280, Note_off_c, 1, 34, 64
3, 136324, Note_on_c, 1, 34, 119
3, 136384, Note_off_c, 1, 34, 64
3, 136420, Note_on_c, 1, 36, 108
3, 136492, Note_off_c, 1, 36, 64
3, 136612, Note_on_c, 1, 34, 105
3, 136668, Note_off_c, 1, 34, 64
3, 136708, Note_on_c, 1, 27, 105
3, 136788, Note_off_c, 1, 27, 64
3, 136892, Note_on_c, 1, 27, 105
3, 136952, Note_off_c, 1, 27, 64
3, 136996, Note_on_c, 1, 27, 101
3, 137084, Note_off_c, 1, 27, 64
3, 137188, Note_on_c, 1, 36, 105
3, 137252, Note_off_c, 1, 36, 64
3, 137284, Note_on_c, 1, 34, 114
3, 137372, Note_off_c, 1, 34, 64
3, 137472, Note_on_c, 1, 32, 114
3, 137572, Note_off_c, 1, 32, 64
3, 137668, Note_on_c, 1, 32, 105
3, 137752, Note_off_c, 1, 32, 64
3, 138048, Note_on_c, 1, 32, 101
3, 138092, Note_off_c, 1, 32, 64
3, 138140, Note_on_c, 1, 32, 114
3, 138196, Note_off_c, 1, 32, 64
3, 138240, Note_on_c, 1, 29, 114
3, 138316, Note_off_c, 1, 29, 64
3, 138428, Note_on_c, 1, 29, 119
3, 138484, Note_off_c, 1, 29, 64
3, 138528, Note_on_c, 1, 29, 119
3, 138616, Note_off_c, 1, 29, 64
3, 138724, Note_on_c, 1, 36, 108
3, 138780, Note_off_c, 1, 36, 64
3, 138820, Note_on_c, 1, 34, 119
3, 138920, Note_off_c, 1, 34, 64
3, 139204, Note_on_c, 1, 32, 114
3, 139288, Note_off_c, 1, 32, 64
3, 139396, Note_on_c, 1, 32, 105
3, 139444, Note_off_c, 1, 32, 64
3, 139492, Note_on_c, 1, 32, 114
3, 139572, Note_off_c, 1, 32, 64
3, 139676, Note_on_c, 1, 37, 101
3, 139760, Note_off_c, 1, 37, 64
3, 139776, Note_on_c, 1, 27, 105
3, 139860, Note_off_c, 1, 27, 64
3, 139964, Note_on_c, 1, 27, 114
3, 140032, Note_off_c, 1, 27, 64
3, 140064, Note_on_c, 1, 27, 105
3, 140140, Note_off_c, 1, 27, 64
3, 140252, Note_on_c, 1, 36, 108
3, 140320, Note_off_c, 1, 36, 64
3, 140348, Note_on_c, 1, 34, 114
3, 140420, Note_off_c, 1, 34, 64
3, 140540, Note_on_c, 1, 32, 105
3, 140628, Note_off_c, 1, 32, 64
3, 140732, Note_on_c, 1, 32, 119
3, 140836, Note_off_c, 1, 32, 64
3, 141116, Note_on_c, 1, 27, 98
3, 141200, Note_off_c, 1, 27, 64
3, 141216, Note_on_c, 1, 32, 98
3, 141272, Note_off_c, 1, 32, 64
3, 141312, Note_on_c, 1, 29, 114
3, 141400, Note_off_c, 1, 29, 64
3, 141500, Note_on_c, 1, 29, 108
3, 141560, Note_off_c, 1, 29, 64
3, 141596, Note_on_c, 1, 29, 108
3, 141684, Note_off_c, 1, 29, 64
3, 141796, Note_on_c, 1, 36, 108
3, 141876, Note_off_c, 1, 36, 64
3, 141892, Note_on_c, 1, 34, 114
3, 141988, Note_off_c, 1, 34, 64
3, 142276, Note_on_c, 1, 34, 105
3, 142328, Note_off_c, 1, 34, 64
3, 142372, Note_on_c, 1, 34, 114
3, 142424, Note_off_c, 1, 34, 64
3, 142468, Note_on_c, 1, 34, 119
3, 142528, Note_off_c, 1, 34, 64
3, 142564, Note_on_c, 1, 36, 108
3, 142636, Note_off_c, 1, 36, 64
3, 142756, Note_on_c, 1, 34, 105
3, 142812, Note_off_c, 1, 34, 64
3, 142852, Note_on_c, 1, 27, 105
3, 142932, Note_off_c, 1, 27, 64
3, 143036, Note_on_c, 1, 27, 105
3, 143096, Note_off_c, 1, 27, 64
3, 143140, Note_on_c, 1, 27, 101
3, 143228, Note_off_c, 1, 27, 64
3, 143332, Note_on_c, 1, 36, 105
3, 143396, Note_off_c, 1, 36, 64
3, 143428, Note_on_c, 1, 34, 114
3, 143516, Note_off_c, 1, 34, 64
3, 143616, Note_on_c, 1, 32, 114
3, 143716, Note_off_c, 1, 32, 64
3, 143812, Note_on_c, 1, 32, 105
3, 143896, Note_off_c, 1, 32, 64
3, 144192, Note_on_c, 1, 32, 101
3, 144236, Note_off_c, 1, 32, 64
3, 144284, Note_on_c, 1, 32, 114
3, 144340, Note_off_c, 1, 32, 64
3, 144384, Note_on_c, 1, 29, 114
3, 144460, Note_off_c, 1, 29, 64
3, 144572, Note_on_c, 1, 29, 119
3, 144628, Note_off_c, 1, 29, 64
3, 144672, Note_on_c, 1, 29, 119
3, 144760, Note_off_c, 1, 29, 64
3, 144868, Note_on_c, 1, 36, 108
3, 144924, Note_off_c, 1, 36, 64
3, 144964, Note_on_c, 1, 34, 119
3, 145064, Note_off_c, 1, 34, 64
3, 145348, Note_on_c, 1, 32, 114
3, 145432, Note_off_c, 1, 32, 64
3, 145540, Note_on_c, 1, 32, 105
3, 145588, Note_off_c, 1, 32, 64
3, 145636, Note_on_c, 1, 32, 114
3, 145716, Note_off_c, 1, 32, 64
3, 145820, Note_on_c, 1, 37, 101
3, 145904, Note_off_c, 1, 37, 64
3, 145920, Note_on_c, 1, 27, 105
3, 146004, Note_off_c, 1, 27, 64
3, 146108, Note_on_c, 1, 27, 114
3, 146176, Note_off_c, 1, 27, 64
3, 146208, Note_on_c, 1, 27, 104
3, 146284, Note_off_c, 1, 27, 64
3, 146396, Note_on_c, 1, 36, 105
3, 146464, Note_off_c, 1, 36, 64
3, 146492, Note_on_c, 1, 34, 109
3, 146564, Note_off_c, 1, 34, 64
3, 146684, Note_on_c, 1, 32, 99
3, 146772, Note_off_c, 1, 32, 64
3, 146876, Note_on_c, 1, 32, 111
3, 146980, Note_off_c, 1, 32, 64
3, 147260, Note_on_c, 1, 27, 88
3, 147344, Note_off_c, 1, 27, 64
3, 147360, Note_on_c, 1, 32, 87
3, 147416, Note_off_c, 1, 32, 64
3, 147456, Note_on_c, 1, 29, 100
3, 147544, Note_off_c, 1, 29, 64
3, 147644, Note_on_c, 1, 29, 93
3, 147704, Note_off_c, 1, 29, 64
3, 147740, Note_on_c, 1, 29, 93
3, 147828, Note_off_c, 1, 29, 64
3, 147940, Note_on_c, 1, 36, 91
3, 148020, Note_off_c, 1, 36, 64
3, 148036, Note_on_c, 1, 34, 95
3, 148132, Note_off_c, 1, 34, 64
3, 148420, Note_on_c, 1, 34, 84
3, 148472, Note_off_c, 1, 34, 64
3, 148516, Note_on_c, 1, 34, 90
3, 148568, Note_off_c, 1, 34, 64
3, 148612, Note_on_c, 1, 34, 92
3, 148672, Note_off_c, 1, 34, 64
3, 148708, Note_on_c, 1, 36, 84
3, 148780, Note_off_c, 1, 36, 64
3, 148900, Note_on_c, 1, 34, 80
3, 148956, Note_off_c, 1, 34, 64
3, 148996, Note_on_c, 1, 27, 79
3, 149076, Note_off_c, 1, 27, 64
3, 149180, Note_on_c, 1, 27, 77
3, 149240, Note_off_c, 1, 27, 64
3, 149284, Note_on_c, 1, 27, 73
3, 149372, Note_off_c, 1, 27, 64
3, 149476, Note_on_c, 1, 36, 74
3, 149540, Note_off_c, 1, 36, 64
3, 149572, Note_on_c, 1, 34, 80
3, 149660, Note_off_c, 1, 34, 64
3, 149760, Note_on_c, 1, 32, 78
3, 149860, Note_off_c, 1, 32, 64
3, 149956, Note_on_c, 1, 32, 70
3, 150040, Note_off_c, 1, 32, 64
3, 150336, Note_on_c, 1, 32, 64
3, 150380, Note_off_c, 1, 32, 64
3, 150428, Note_on_c, 1, 32, 72
3, 150484, Note_off_c, 1, 32, 64
3, 150528, Note_on_c, 1, 29, 71
3, 150604, Note_off_c, 1, 29, 64
3, 150716, Note_on_c, 1, 29, 72
3, 150772, Note_off_c, 1, 29, 64
3, 150816, Note_on_c, 1, 29, 71
3, 150904, Note_off_c, 1, 29, 64
3, 151012, Note_on_c, 1, 36, 62
3, 151068, Note_off_c, 1, 36, 64
3, 151108, Note_on_c, 1, 34, 67
3, 151208, Note_off_c, 1, 34, 64
3, 151492, Note_on_c, 1, 32, 62
3, 151576, Note_off_c, 1, 32, 64
3, 151684, Note_on_c, 1, 32, 55
3, 151732, Note_off_c, 1, 32, 64
3, 151780, Note_on_c, 1, 32, 58
3, 151860, Note_off_c, 1, 32, 64
3, 151964, Note_on_c, 1, 37, 50
3, 152048, Note_off_c, 1, 37, 64
3, 152064, Note_on_c, 1, 27, 51
3, 152148, Note_off_c, 1, 27, 64
3, 152252, Note_on_c, 1, 27, 54
3, 152320, Note_off_c, 1, 27, 64
3, 152352, Note_on_c, 1, 27, 49
3, 152428, Note_off_c, 1, 27, 64
3, 152540, Note_on_c, 1, 36, 49
3, 152608, Note_off_c, 1, 36, 64
3, 152636, Note_on_c, 1, 34, 50
3, 152708, Note_off_c, 1, 34, 64
3, 152828, Note_on_c, 1, 32, 45
3, 152916, Note_off_c, 1, 32, 64
3, 153020, Note_on_c, 1, 32, 48
3, 153124, Note_off_c, 1, 32, 64
3, 153404, Note_on_c, 1, 27, 38
3, 153488, Note_off_c, 1, 27, 64
3, 153504, Note_on_c, 1, 32, 37
3, 153560, Note_off_c, 1, 32, 64
3, 153600, Note_on_c, 1, 29, 41
3, 153688, Note_off_c, 1, 29, 64
3, 153788, Note_on_c, 1, 29, 37
3, 153848, Note_off_c, 1, 29, 64
3, 153884, Note_on_c, 1, 29, 36
3, 153972, Note_off_c, 1, 29, 64
3, 154084, Note_on_c, 1, 36, 35
3, 154164, Note_off_c, 1, 36, 64
3, 154180, Note_on_c, 1, 34, 36
3, 154276, Note_off_c, 1, 34, 64
3, 154564, Note_on_c, 1, 34, 29
3, 154616, Note_off_c, 1, 34, 64
3, 154660, Note_on_c, 1, 34, 30
3, 154712, Note_off_c, 1, 34, 64
3, 154756, Note_on_c, 1, 34, 30
3, 154816, Note_off_c, 1, 34, 64
3, 154852, Note_on_c, 1, 36, 27
3, 154924, Note_off_c, 1, 36, 64
3, 155044, Note_on_c, 1, 34, 26
3, 155100, Note_off_c, 1, 34, 64
3, 155140, Note_on_c, 1, 27, 25
3, 155220, Note_off_c, 1, 27, 64
3, 155324, Note_on_c, 1, 27, 23
3, 155384, Note_off_c, 1, 27, 64
3, 155428, Note_on_c, 1, 27, 21
3, 155516, Note_off_c, 1, 27, 64
3, 155620, Note_on_c, 1, 36, 20
3, 155684, Note_off_c, 1, 36, 64
3, 155716, Note_on_c, 1, 34, 20
3, 155804, Note_off_c, 1, 34, 64
3, 155904, Note_on_c, 1, 32, 19
3, 156004, Note_off_c, 1, 32, 64
3, 156100, Note_on_c, 1, 32, 16
3, 156184, Note_off_c, 1, 32, 64
3, 156480, Note_on_c, 1, 32, 12
3, 156524, Note_off_c, 1, 32, 64
3, 156572, Note_on_c, 1, 32, 1
3, 156620, Note_off_c, 1, 32, 1
3, 158208, End_track
4, 0, Start_track
4, 0, Title_t, "CLEAN GTR"
4, 1968, Program_c, 2, 27
4, 1972, Control_c, 2, 7, 105
4, 1972, Control_c, 2, 10, 100
4, 1972, Control_c, 2, 11, 127
4, 1976, Control_c, 2, 91, 60
4, 1976, Control_c, 2, 93, 56
4, 90628, Note_on_c, 2, 61, 68
4, 90628, Pitch_bend_c, 2, 8192
4, 90628, Note_on_c, 2, 65, 73
4, 90628, Note_on_c, 2, 70, 75
4, 90632, Control_c, 2, 1, 0
4, 90908, Note_off_c, 2, 61, 64
4, 90912, Note_off_c, 2, 70, 64
4, 90912, Note_off_c, 2, 65, 64
4, 90912, Note_on_c, 2, 58, 56
4, 90916, Note_on_c, 2, 66, 74
4, 90916, Note_on_c, 2, 70, 76
4, 90944, Note_off_c, 2, 70, 64
4, 90944, Note_off_c, 2, 58, 64
4, 90952, Note_off_c, 2, 66, 64
4, 91000, Pitch_bend_c, 2, 8064
4, 91008, Pitch_bend_c, 2, 8192
4, 91208, Note_on_c, 2, 58, 60
4, 91212, Note_on_c, 2, 66, 60
4, 91212, Pitch_bend_c, 2, 8224
4, 91212, Note_on_c, 2, 70, 60
4, 91224, Pitch_bend_c, 2, 8192
4, 91264, Note_off_c, 2, 70, 64
4, 91264, Note_off_c, 2, 66, 64
4, 91272, Note_off_c, 2, 58, 64
4, 91404, Note_on_c, 2, 61, 75
4, 91404, Note_on_c, 2, 65, 78
4, 91408, Note_on_c, 2, 70, 76
4, 91652, Note_off_c, 2, 70, 64
4, 91664, Note_off_c, 2, 65, 64
4, 91664, Note_off_c, 2, 61, 64
4, 91676, Note_on_c, 2, 70, 75
4, 91680, Note_on_c, 2, 58, 78
4, 91684, Note_on_c, 2, 66, 78
4, 91708, Note_off_c, 2, 58, 64
4, 91712, Note_off_c, 2, 66, 64
4, 91712, Note_off_c, 2, 70, 64
4, 91772, Pitch_bend_c, 2, 8000
4, 91968, Pitch_bend_c, 2, 8192
4, 91972, Note_on_c, 2, 58, 61
4, 91972, Note_on_c, 2, 66, 76
4, 91976, Note_on_c, 2, 70, 61
4, 92028, Note_off_c, 2, 70, 64
4, 92032, Note_off_c, 2, 58, 64
4, 92036, Note_off_c, 2, 66, 64
4, 93700, Note_on_c, 2, 61, 68
4, 93700, Note_on_c, 2, 65, 73
4, 93700, Note_on_c, 2, 70, 75
4, 93980, Note_off_c, 2, 61, 64
4, 93984, Note_off_c, 2, 70, 64
4, 93984, Note_off_c, 2, 65, 64
4, 93984, Note_on_c, 2, 58, 56
4, 93988, Note_on_c, 2, 66, 74
4, 93988, Note_on_c, 2, 70, 76
4, 94016, Note_off_c, 2, 70, 64
4, 94016, Note_off_c, 2, 58, 64
4, 94024, Note_off_c, 2, 66, 64
4, 94072, Pitch_bend_c, 2, 8064
4, 94080, Pitch_bend_c, 2, 8192
4, 94280, Note_on_c, 2, 58, 58
4, 94284, Note_on_c, 2, 66, 58
4, 94284, Pitch_bend_c, 2, 8224
4, 94284, Note_on_c, 2, 70, 58
4, 94296, Pitch_bend_c, 2, 8192
4, 94336, Note_off_c, 2, 70, 64
4, 94336, Note_off_c, 2, 66, 64
4, 94344, Note_off_c, 2, 58, 64
4, 94476, Note_on_c, 2, 61, 75
4, 94476, Note_on_c, 2, 65, 78
4, 94480, Note_on_c, 2, 70, 76
4, 94724, Note_off_c, 2, 70, 64
4, 94736, Note_off_c, 2, 65, 64
4, 94736, Note_off_c, 2, 61, 64
4, 94748, Note_on_c, 2, 70, 75
4, 94752, Note_on_c, 2, 58, 78
4, 94756, Note_on_c, 2, 66, 78
4, 94780, Note_off_c, 2, 58, 64
4, 94784, Note_off_c, 2, 66, 64
4, 94784, Note_off_c, 2, 70, 64
4, 94844, Pitch_bend_c, 2, 8000
4, 95040, Pitch_bend_c, 2, 8192
4, 95044, Note_on_c, 2, 58, 61
4, 95044, Note_on_c, 2, 66, 76
4, 95048, Note_on_c, 2, 70, 61
4, 95100, Note_off_c, 2, 70, 64
4, 95104, Note_off_c, 2, 58, 64
4, 95108, Note_off_c, 2, 66, 64
4, 96772, Note_on_c, 2, 61, 68
4, 96772, Note_on_c, 2, 65, 73
4, 96772, Note_on_c, 2, 70, 75
4, 97052, Note_off_c, 2, 61, 64
4, 97056, Note_off_c, 2, 70, 64
4, 97056, Note_off_c, 2, 65, 64
4, 97056, Note_on_c, 2, 58, 56
4, 97060, Note_on_c, 2, 66, 74
4, 97060, Note_on_c, 2, 70, 76
4, 97088, Note_off_c, 2, 70, 64
4, 97088, Note_off_c, 2, 58, 64
4, 97096, Note_off_c, 2, 66, 64
4, 97144, Pitch_bend_c, 2, 8064
4, 97152, Pitch_bend_c, 2, 8192
4, 97352, Note_on_c, 2, 58, 59
4, 97356, Note_on_c, 2, 66, 59
4, 97356, Pitch_bend_c, 2, 8224
4, 97356, Note_on_c, 2, 70, 59
4, 97368, Pitch_bend_c, 2, 8192
4, 97408, Note_off_c, 2, 70, 64
4, 97408, Note_off_c, 2, 66, 64
4, 97416, Note_off_c, 2, 58, 64
4, 97548, Note_on_c, 2, 61, 75
4, 97548, Note_on_c, 2, 65, 78
4, 97552, Note_on_c, 2, 70, 76
4, 97796, Note_off_c, 2, 70, 64
4, 97808, Note_off_c, 2, 65, 64
4, 97808, Note_off_c, 2, 61, 64
4, 97820, Note_on_c, 2, 70, 75
4, 97824, Note_on_c, 2, 58, 78
4, 97828, Note_on_c, 2, 66, 78
4, 97852, Note_off_c, 2, 58, 64
4, 97856, Note_off_c, 2, 66, 64
4, 97856, Note_off_c, 2, 70, 64
4, 97916, Pitch_bend_c, 2, 8000
4, 98112, Pitch_bend_c, 2, 8192
4, 98116, Note_on_c, 2, 58, 61
4, 98116, Note_on_c, 2, 66, 76
4, 98120, Note_on_c, 2, 70, 61
4, 98172, Note_off_c, 2, 70, 64
4, 98176, Note_off_c, 2, 58, 64
4, 98180, Note_off_c, 2, 66, 64
4, 99844, Note_on_c, 2, 61, 68
4, 99844, Note_on_c, 2, 65, 73
4, 99844, Note_on_c, 2, 70, 75
4, 100124, Note_off_c, 2, 61, 64
4, 100128, Note_off_c, 2, 70, 64
4, 100128, Note_off_c, 2, 65, 64
4, 100128, Note_on_c, 2, 58, 56
4, 100132, Note_on_c, 2, 66, 74
4, 100132, Note_on_c, 2, 70, 76
4, 100160, Note_off_c, 2, 70, 64
4, 100160, Note_off_c, 2, 58, 64
4, 100168, Note_off_c, 2, 66, 64
4, 100216, Pitch_bend_c, 2, 8064
4, 100224, Pitch_bend_c, 2, 8192
4, 100424, Note_on_c, 2, 58, 58
4, 100428, Note_on_c, 2, 66, 58
4, 100428, Pitch_bend_c, 2, 8224
4, 100428, Note_on_c, 2, 70, 58
4, 100440, Pitch_bend_c, 2, 8192
4, 100480, Note_off_c, 2, 70, 64
4, 100480, Note_off_c, 2, 66, 64
4, 100488, Note_off_c, 2, 58, 64
4, 100620, Note_on_c, 2, 61, 75
4, 100620, Note_on_c, 2, 65, 78
4, 100624, Note_on_c, 2, 70, 76
4, 100868, Note_off_c, 2, 70, 64
4, 100880, Note_off_c, 2, 65, 64
4, 100880, Note_off_c, 2, 61, 64
4, 100892, Note_on_c, 2, 70, 75
4, 100896, Note_on_c, 2, 58, 78
4, 100900, Note_on_c, 2, 66, 78
4, 100924, Note_off_c, 2, 58, 64
4, 100928, Note_off_c, 2, 66, 64
4, 100928, Note_off_c, 2, 70, 64
4, 100988, Pitch_bend_c, 2, 8000
4, 101184, Pitch_bend_c, 2, 8192
4, 101188, Note_on_c, 2, 58, 61
4, 101188, Note_on_c, 2, 66, 76
4, 101192, Note_on_c, 2, 70, 61
4, 101244, Note_off_c, 2, 70, 64
4, 101248, Note_off_c, 2, 58, 64
4, 101252, Note_off_c, 2, 66, 64
4, 158208, End_track
5, 0, Start_track
5, 0, Title_t, "MELODY"
5, 1988, Program_c, 3, 73
5, 1992, Control_c, 3, 7, 100
5, 1992, Control_c, 3, 10, 50
5, 1992, Control_c, 3, 11, 127
5, 1996, Control_c, 3, 91, 45
5, 1996, Control_c, 3, 93, 0
5, 17284, Note_on_c, 3, 58, 92
5, 17288, Control_c, 3, 1, 0
5, 17288, Pitch_bend_c, 3, 8192
5, 17456, Note_off_c, 3, 58, 64
5, 17460, Note_on_c, 3, 60, 78
5, 17644, Note_off_c, 3, 60, 64
5, 17648, Note_on_c, 3, 61, 87
5, 17788, Note_off_c, 3, 61, 64
5, 17848, Note_on_c, 3, 61, 87
5, 18040, Note_off_c, 3, 61, 64
5, 18044, Note_on_c, 3, 63, 78
5, 18244, Note_off_c, 3, 63, 64
5, 18248, Note_on_c, 3, 60, 87
5, 18508, Note_off_c, 3, 60, 64
5, 18512, Note_on_c, 3, 58, 78
5, 18636, Note_off_c, 3, 58, 64
5, 18640, Note_on_c, 3, 56, 65
5, 19600, Note_off_c, 3, 56, 64
5, 20144, Note_on_c, 3, 58, 74
5, 20288, Note_off_c, 3, 58, 64
5, 20340, Note_on_c, 3, 58, 87
5, 20528, Note_off_c, 3, 58, 64
5, 20532, Note_on_c, 3, 60, 78
5, 20728, Note_off_c, 3, 60, 64
5, 20732, Note_on_c, 3, 61, 92
5, 20920, Note_off_c, 3, 61, 64
5, 20924, Note_on_c, 3, 58, 87
5, 21196, Note_off_c, 3, 58, 64
5, 21308, Note_on_c, 3, 56, 87
5, 21492, Note_off_c, 3, 56, 64
5, 21496, Note_on_c, 3, 68, 97
5, 21800, Note_off_c, 3, 68, 64
5, 21888, Note_on_c, 3, 68, 97
5, 22076, Note_off_c, 3, 68, 64
5, 22080, Note_on_c, 3, 63, 78
5, 23032, Note_off_c, 3, 63, 64
5, 23228, Note_on_c, 3, 58, 87
5, 23360, Note_off_c, 3, 58, 64
5, 23428, Note_on_c, 3, 58, 78
5, 23616, Note_off_c, 3, 58, 64
5, 23620, Note_on_c, 3, 60, 87
5, 23812, Note_off_c, 3, 60, 64
5, 23816, Note_on_c, 3, 61, 87
5, 24016, Note_off_c, 3, 61, 64
5, 24020, Note_on_c, 3, 58, 87
5, 24204, Note_off_c, 3, 58, 64
5, 24208, Note_on_c, 3, 61, 87
5, 24396, Note_off_c, 3, 61, 64
5, 24400, Note_on_c, 3, 63, 87
5, 24596, Note_off_c, 3, 63, 64
5, 24784, Note_on_c, 3, 60, 87
5, 24968, Note_off_c, 3, 60, 64
5, 24972, Note_on_c, 3, 58, 78
5, 25168, Note_off_c, 3, 58, 64
5, 25172, Note_on_c, 3, 60, 78
5, 25256, Note_off_c, 3, 60, 64
5, 25260, Note_on_c, 3, 58, 74
5, 25356, Note_off_c, 3, 58, 64
5, 25360, Note_on_c, 3, 56, 78
5, 25988, Note_off_c, 3, 56, 64
5, 26300, Note_on_c, 3, 58, 87
5, 26432, Note_off_c, 3, 58, 64
5, 26496, Note_on_c, 3, 58, 78
5, 26680, Note_off_c, 3, 58, 64
5, 26684, Note_on_c, 3, 60, 81
5, 26876, Note_off_c, 3, 60, 64
5, 26880, Note_on_c, 3, 61, 78
5, 27000, Note_off_c, 3, 61, 64
5, 27072, Note_on_c, 3, 58, 87
5, 27268, Note_off_c, 3, 58, 64
5, 27272, Note_on_c, 3, 56, 92
5, 27484, Note_off_c, 3, 56, 64
5, 27636, Note_on_c, 3, 63, 92
5, 27784, Note_off_c, 3, 63, 64
5, 27840, Note_on_c, 3, 63, 87
5, 27948, Note_off_c, 3, 63, 64
5, 28024, Note_on_c, 3, 63, 87
5, 28220, Note_off_c, 3, 63, 64
5, 28224, Note_on_c, 3, 65, 92
5, 28420, Note_off_c, 3, 65, 64
5, 28424, Note_on_c, 3, 63, 87
5, 28820, Note_off_c, 3, 63, 64
5, 29196, Note_on_c, 3, 61, 87
5, 30140, Note_off_c, 3, 61, 64
5, 30144, Note_on_c, 3, 63, 78
5, 30332, Note_off_c, 3, 63, 64
5, 30336, Note_on_c, 3, 65, 92
5, 30520, Note_off_c, 3, 65, 64
5, 30524, Note_on_c, 3, 61, 78
5, 30700, Note_off_c, 3, 61, 64
5, 30704, Note_on_c, 3, 63, 87
5, 30864, Note_off_c, 3, 63, 64
5, 30912, Note_on_c, 3, 63, 92
5, 31028, Note_off_c, 3, 63, 64
5, 31084, Note_on_c, 3, 63, 92
5, 31284, Note_off_c, 3, 63, 64
5, 31288, Note_on_c, 3, 65, 92
5, 31468, Note_off_c, 3, 65, 64
5, 31472, Note_on_c, 3, 63, 87
5, 31648, Note_off_c, 3, 63, 64
5, 31652, Note_on_c, 3, 56, 78
5, 31828, Note_off_c, 3, 56, 64
5, 31876, Note_on_c, 3, 56, 97
5, 32456, Note_off_c, 3, 56, 64
5, 33020, Note_on_c, 3, 58, 92
5, 33208, Note_off_c, 3, 58, 64
5, 33212, Note_on_c, 3, 60, 87
5, 33400, Note_off_c, 3, 60, 64
5, 33404, Note_on_c, 3, 61, 87
5, 33588, Note_off_c, 3, 61, 64
5, 33592, Note_on_c, 3, 58, 97
5, 33776, Note_off_c, 3, 58, 64
5, 33980, Note_on_c, 3, 63, 92
5, 34180, Note_off_c, 3, 63, 64
5, 34184, Note_on_c, 3, 65, 97
5, 34360, Note_off_c, 3, 65, 64
5, 34364, Note_on_c, 3, 63, 92
5, 34740, Note_off_c, 3, 63, 64
5, 34944, Note_on_c, 3, 56, 87
5, 35036, Note_off_c, 3, 56, 64
5, 35040, Note_on_c, 3, 58, 87
5, 35120, Note_off_c, 3, 58, 64
5, 35124, Note_on_c, 3, 61, 78
5, 35200, Note_off_c, 3, 61, 64
5, 35204, Note_on_c, 3, 58, 78
5, 35296, Note_off_c, 3, 58, 64
5, 35312, Note_on_c, 3, 65, 103
5, 35520, Note_off_c, 3, 65, 64
5, 35636, Note_on_c, 3, 65, 103
5, 35900, Note_off_c, 3, 65, 64
5, 35904, Note_on_c, 3, 63, 92
5, 36300, Note_off_c, 3, 63, 64
5, 36480, Note_on_c, 3, 56, 87
5, 36548, Note_off_c, 3, 56, 64
5, 36552, Note_on_c, 3, 58, 78
5, 36640, Note_off_c, 3, 58, 64
5, 36644, Note_on_c, 3, 60, 81
5, 36736, Note_off_c, 3, 60, 64
5, 36740, Note_on_c, 3, 58, 78
5, 36836, Note_off_c, 3, 58, 64
5, 36856, Note_on_c, 3, 63, 92
5, 37108, Note_off_c, 3, 63, 64
5, 37184, Note_on_c, 3, 63, 87
5, 37448, Note_off_c, 3, 63, 64
5, 37452, Note_on_c, 3, 61, 87
5, 37676, Note_off_c, 3, 61, 64
5, 37680, Note_on_c, 3, 60, 71
5, 37772, Note_off_c, 3, 60, 64
5, 37776, Note_on_c, 3, 58, 78
5, 37988, Note_off_c, 3, 58, 64
5, 38032, Note_on_c, 3, 56, 87
5, 38120, Note_off_c, 3, 56, 64
5, 38124, Note_on_c, 3, 58, 74
5, 38228, Note_off_c, 3, 58, 64
5, 38236, Note_on_c, 3, 60, 74
5, 38312, Note_off_c, 3, 60, 64
5, 38316, Note_on_c, 3, 58, 78
5, 38400, Note_off_c, 3, 58, 64
5, 38412, Note_on_c, 3, 61, 87
5, 38760, Note_off_c, 3, 61, 64
5, 38764, Note_on_c, 3, 63, 78
5, 38964, Note_off_c, 3, 63, 64
5, 38968, Note_on_c, 3, 60, 87
5, 39148, Note_off_c, 3, 60, 64
5, 39152, Note_on_c, 3, 58, 74
5, 39340, Note_off_c, 3, 58, 64
5, 39344, Note_on_c, 3, 56, 78
5, 39564, Note_off_c, 3, 56, 64
5, 39728, Note_on_c, 3, 56, 78
5, 39920, Note_off_c, 3, 56, 64
5, 39924, Note_on_c, 3, 63, 87
5, 40216, Note_off_c, 3, 63, 64
5, 40312, Note_on_c, 3, 61, 87
5, 40704, Note_off_c, 3, 61, 64
5, 41100, Note_on_c, 3, 56, 87
5, 41168, Note_off_c, 3, 56, 64
5, 41172, Note_on_c, 3, 58, 78
5, 41248, Note_off_c, 3, 58, 64
5, 41252, Note_on_c, 3, 61, 78
5, 41324, Note_off_c, 3, 61, 64
5, 41328, Note_on_c, 3, 58, 78
5, 41424, Note_off_c, 3, 58, 64
5, 41444, Note_on_c, 3, 65, 103
5, 41676, Note_off_c, 3, 65, 64
5, 41764, Note_on_c, 3, 65, 103
5, 42024, Note_off_c, 3, 65, 64
5, 42028, Note_on_c, 3, 63, 92
5, 42440, Note_off_c, 3, 63, 64
5, 42604, Note_on_c, 3, 56, 87
5, 42676, Note_off_c, 3, 56, 64
5, 42680, Note_on_c, 3, 58, 78
5, 42760, Note_off_c, 3, 58, 64
5, 42764, Note_on_c, 3, 60, 74
5, 42860, Note_off_c, 3, 60, 64
5, 42864, Note_on_c, 3, 58, 87
5, 42972, Note_off_c, 3, 58, 64
5, 43000, Note_on_c, 3, 68, 92
5, 43348, Note_off_c, 3, 68, 64
5, 43372, Note_on_c, 3, 60, 81
5, 43572, Note_off_c, 3, 60, 64
5, 43576, Note_on_c, 3, 61, 87
5, 43756, Note_off_c, 3, 61, 64
5, 43760, Note_on_c, 3, 60, 49
5, 43848, Note_off_c, 3, 60, 64
5, 43852, Note_on_c, 3, 58, 87
5, 44044, Note_off_c, 3, 58, 64
5, 44128, Note_on_c, 3, 56, 87
5, 44208, Note_off_c, 3, 56, 64
5, 44212, Note_on_c, 3, 58, 78
5, 44312, Note_off_c, 3, 58, 64
5, 44324, Note_on_c, 3, 60, 74
5, 44420, Note_off_c, 3, 60, 64
5, 44424, Note_on_c, 3, 58, 87
5, 44544, Note_off_c, 3, 58, 64
5, 44556, Note_on_c, 3, 61, 92
5, 44936, Note_off_c, 3, 61, 64
5, 44940, Note_on_c, 3, 63, 78
5, 45116, Note_off_c, 3, 63, 64
5, 45120, Note_on_c, 3, 60, 81
5, 45444, Note_off_c, 3, 60, 64
5, 45448, Note_on_c, 3, 58, 71
5, 45548, Note_off_c, 3, 58, 64
5, 45552, Note_on_c, 3, 56, 78
5, 45752, Note_off_c, 3, 56, 64
5, 45884, Note_on_c, 3, 56, 92
5, 46060, Note_off_c, 3, 56, 64
5, 46068, Note_on_c, 3, 63, 92
5, 46260, Note_off_c, 3, 63, 64
5, 46264, Note_on_c, 3, 61, 77
5, 46432, Note_off_c, 3, 61, 64
5, 46464, Note_on_c, 3, 61, 87
5, 46912, Note_off_c, 3, 61, 64
5, 47804, Note_on_c, 3, 61, 87
5, 47916, Note_off_c, 3, 61, 64
5, 48008, Note_on_c, 3, 61, 97
5, 48188, Note_off_c, 3, 61, 64
5, 48192, Note_on_c, 3, 58, 87
5, 48376, Note_off_c, 3, 58, 64
5, 48380, Note_on_c, 3, 61, 92
5, 48600, Note_off_c, 3, 61, 64
5, 48604, Note_on_c, 3, 63, 92
5, 48916, Note_off_c, 3, 63, 64
5, 49336, Note_on_c, 3, 60, 87
5, 49524, Note_off_c, 3, 60, 64
5, 49528, Note_on_c, 3, 58, 87
5, 49724, Note_off_c, 3, 58, 64
5, 49728, Note_on_c, 3, 60, 81
5, 49796, Note_off_c, 3, 60, 64
5, 49800, Note_on_c, 3, 58, 65
5, 49924, Note_off_c, 3, 58, 64
5, 49928, Note_on_c, 3, 56, 78
5, 50616, Note_off_c, 3, 56, 64
5, 50880, Note_on_c, 3, 58, 87
5, 50996, Note_off_c, 3, 58, 64
5, 51068, Note_on_c, 3, 58, 74
5, 51256, Note_off_c, 3, 58, 64
5, 51260, Note_on_c, 3, 60, 81
5, 51448, Note_off_c, 3, 60, 64
5, 51452, Note_on_c, 3, 61, 87
5, 51640, Note_off_c, 3, 61, 64
5, 51648, Note_on_c, 3, 58, 78
5, 51832, Note_off_c, 3, 58, 64
5, 51836, Note_on_c, 3, 56, 92
5, 52104, Note_off_c, 3, 56, 64
5, 52428, Note_on_c, 3, 68, 97
5, 52564, Note_off_c, 3, 68, 64
5, 52616, Note_on_c, 3, 68, 97
5, 52816, Note_off_c, 3, 68, 64
5, 52820, Note_on_c, 3, 63, 92
5, 53172, Note_off_c, 3, 63, 64
5, 53188, Note_on_c, 3, 65, 92
5, 53372, Note_off_c, 3, 65, 64
5, 53376, Note_on_c, 3, 63, 87
5, 53552, Note_off_c, 3, 63, 64
5, 53556, Note_on_c, 3, 61, 87
5, 53816, Note_off_c, 3, 61, 64
5, 53936, Note_on_c, 3, 61, 87
5, 54048, Note_off_c, 3, 61, 64
5, 54124, Note_on_c, 3, 61, 87
5, 54316, Note_off_c, 3, 61, 64
5, 54320, Note_on_c, 3, 58, 87
5, 54508, Note_off_c, 3, 58, 64
5, 54516, Note_on_c, 3, 61, 87
5, 54704, Note_off_c, 3, 61, 64
5, 54716, Note_on_c, 3, 58, 74
5, 54892, Note_off_c, 3, 58, 64
5, 54896, Note_on_c, 3, 61, 92
5, 55104, Note_off_c, 3, 61, 64
5, 55108, Note_on_c, 3, 63, 87
5, 55296, Note_off_c, 3, 63, 64
5, 55492, Note_on_c, 3, 60, 87
5, 55680, Note_off_c, 3, 60, 64
5, 55684, Note_on_c, 3, 58, 78
5, 55880, Note_off_c, 3, 58, 64
5, 55884, Note_on_c, 3, 60, 78
5, 55968, Note_off_c, 3, 60, 64
5, 55972, Note_on_c, 3, 58, 74
5, 56084, Note_off_c, 3, 58, 64
5, 56088, Note_on_c, 3, 56, 78
5, 56536, Note_off_c, 3, 56, 64
5, 57032, Note_on_c, 3, 58, 92
5, 57132, Note_off_c, 3, 58, 64
5, 57224, Note_on_c, 3, 58, 92
5, 57408, Note_off_c, 3, 58, 64
5, 57412, Note_on_c, 3, 60, 87
5, 57604, Note_off_c, 3, 60, 64
5, 57608, Note_on_c, 3, 61, 78
5, 57788, Note_off_c, 3, 61, 64
5, 57792, Note_on_c, 3, 58, 87
5, 57976, Note_off_c, 3, 58, 64
5, 57980, Note_on_c, 3, 56, 92
5, 58356, Note_off_c, 3, 56, 64
5, 58576, Note_on_c, 3, 63, 92
5, 58772, Note_off_c, 3, 63, 64
5, 58776, Note_on_c, 3, 65, 92
5, 58924, Note_off_c, 3, 65, 64
5, 58980, Note_on_c, 3, 65, 103
5, 59332, Note_off_c, 3, 65, 64
5, 59336, Note_on_c, 3, 63, 87
5, 59776, Note_off_c, 3, 63, 64
5, 59924, Note_on_c, 3, 61, 78
5, 60848, Note_off_c, 3, 61, 64
5, 60852, Note_on_c, 3, 63, 74
5, 61052, Note_off_c, 3, 63, 64
5, 61056, Note_on_c, 3, 65, 97
5, 61240, Note_off_c, 3, 65, 64
5, 61244, Note_on_c, 3, 63, 92
5, 61576, Note_off_c, 3, 63, 64
5, 61616, Note_on_c, 3, 63, 87
5, 61760, Note_off_c, 3, 63, 64
5, 61816, Note_on_c, 3, 63, 92
5, 62016, Note_off_c, 3, 63, 64
5, 62020, Note_on_c, 3, 65, 87
5, 62192, Note_off_c, 3, 65, 64
5, 62196, Note_on_c, 3, 63, 87
5, 62380, Note_off_c, 3, 63, 64
5, 62384, Note_on_c, 3, 56, 74
5, 62540, Note_off_c, 3, 56, 64
5, 62596, Note_on_c, 3, 56, 97
5, 63192, Note_off_c, 3, 56, 64
5, 63548, Note_on_c, 3, 56, 87
5, 63716, Note_off_c, 3, 56, 64
5, 63744, Note_on_c, 3, 58, 92
5, 63916, Note_off_c, 3, 58, 64
5, 63920, Note_on_c, 3, 60, 81
5, 64128, Note_off_c, 3, 60, 64
5, 64132, Note_on_c, 3, 61, 87
5, 64312, Note_off_c, 3, 61, 64
5, 64316, Note_on_c, 3, 58, 97
5, 64516, Note_off_c, 3, 58, 64
5, 64712, Note_on_c, 3, 63, 87
5, 64908, Note_off_c, 3, 63, 64
5, 64912, Note_on_c, 3, 65, 92
5, 65088, Note_off_c, 3, 65, 64
5, 65092, Note_on_c, 3, 63, 87
5, 65424, Note_off_c, 3, 63, 64
5, 65664, Note_on_c, 3, 56, 87
5, 65756, Note_off_c, 3, 56, 64
5, 65760, Note_on_c, 3, 58, 87
5, 65840, Note_off_c, 3, 58, 64
5, 65844, Note_on_c, 3, 61, 78
5, 65920, Note_off_c, 3, 61, 64
5, 65924, Note_on_c, 3, 58, 78
5, 66016, Note_off_c, 3, 58, 64
5, 66032, Note_on_c, 3, 65, 103
5, 66240, Note_off_c, 3, 65, 64
5, 66356, Note_on_c, 3, 65, 103
5, 66620, Note_off_c, 3, 65, 64
5, 66624, Note_on_c, 3, 63, 92
5, 67020, Note_off_c, 3, 63, 64
5, 67200, Note_on_c, 3, 56, 87
5, 67268, Note_off_c, 3, 56, 64
5, 67272, Note_on_c, 3, 58, 78
5, 67360, Note_off_c, 3, 58, 64
5, 67364, Note_on_c, 3, 60, 81
5, 67456, Note_off_c, 3, 60, 64
5, 67460, Note_on_c, 3, 58, 78
5, 67556, Note_off_c, 3, 58, 64
5, 67576, Note_on_c, 3, 63, 92
5, 67828, Note_off_c, 3, 63, 64
5, 67904, Note_on_c, 3, 63, 87
5, 68168, Note_off_c, 3, 63, 64
5, 68172, Note_on_c, 3, 61, 87
5, 68396, Note_off_c, 3, 61, 64
5, 68400, Note_on_c, 3, 60, 71
5, 68492, Note_off_c, 3, 60, 64
5, 68496, Note_on_c, 3, 58, 78
5, 68708, Note_off_c, 3, 58, 64
5, 68752, Note_on_c, 3, 56, 87
5, 68840, Note_off_c, 3, 56, 64
5, 68844, Note_on_c, 3, 58, 74
5, 68948, Note_off_c, 3, 58, 64
5, 68956, Note_on_c, 3, 60, 74
5, 69032, Note_off_c, 3, 60, 64
5, 69036, Note_on_c, 3, 58, 78
5, 69120, Note_off_c, 3, 58, 64
5, 69132, Note_on_c, 3, 61, 87
5, 69480, Note_off_c, 3, 61, 64
5, 69484, Note_on_c, 3, 63, 78
5, 69684, Note_off_c, 3, 63, 64
5, 69688, Note_on_c, 3, 60, 87
5, 69868, Note_off_c, 3, 60, 64
5, 69872, Note_on_c, 3, 58, 74
5, 70060, Note_off_c, 3, 58, 64
5, 70064, Note_on_c, 3, 56, 78
5, 70284, Note_off_c, 3, 56, 64
5, 70448, Note_on_c, 3, 56, 78
5, 70640, Note_off_c, 3, 56, 64
5, 70644, Note_on_c, 3, 63, 87
5, 70936, Note_off_c, 3, 63, 64
5, 71032, Note_on_c, 3, 61, 87
5, 71424, Note_off_c, 3, 61, 64
5, 71820, Note_on_c, 3, 56, 87
5, 71888, Note_off_c, 3, 56, 64
5, 71892, Note_on_c, 3, 58, 78
5, 71968, Note_off_c, 3, 58, 64
5, 71972, Note_on_c, 3, 61, 78
5, 72044, Note_off_c, 3, 61, 64
5, 72048, Note_on_c, 3, 58, 78
5, 72144, Note_off_c, 3, 58, 64
5, 72164, Note_on_c, 3, 65, 103
5, 72396, Note_off_c, 3, 65, 64
5, 72484, Note_on_c, 3, 65, 103
5, 72744, Note_off_c, 3, 65, 64
5, 72748, Note_on_c, 3, 63, 92
5, 73160, Note_off_c, 3, 63, 64
5, 73324, Note_on_c, 3, 56, 87
5, 73396, Note_off_c, 3, 56, 64
5, 73400, Note_on_c, 3, 58, 78
5, 73480, Note_off_c, 3, 58, 64
5, 73484, Note_on_c, 3, 60, 74
5, 73580, Note_off_c, 3, 60, 64
5, 73584, Note_on_c, 3, 58, 87
5, 73692, Note_off_c, 3, 58, 64
5, 73720, Note_on_c, 3, 68, 92
5, 74068, Note_off_c, 3, 68, 64
5, 74092, Note_on_c, 3, 60, 81
5, 74292, Note_off_c, 3, 60, 64
5, 74296, Note_on_c, 3, 61, 87
5, 74476, Note_off_c, 3, 61, 64
5, 74480, Note_on_c, 3, 60, 49
5, 74568, Note_off_c, 3, 60, 64
5, 74572, Note_on_c, 3, 58, 87
5, 74764, Note_off_c, 3, 58, 64
5, 74848, Note_on_c, 3, 56, 87
5, 74928, Note_off_c, 3, 56, 64
5, 74932, Note_on_c, 3, 58, 78
5, 75032, Note_off_c, 3, 58, 64
5, 75044, Note_on_c, 3, 60, 74
5, 75140, Note_off_c, 3, 60, 64
5, 75144, Note_on_c, 3, 58, 87
5, 75264, Note_off_c, 3, 58, 64
5, 75276, Note_on_c, 3, 61, 92
5, 75656, Note_off_c, 3, 61, 64
5, 75660, Note_on_c, 3, 63, 78
5, 75836, Note_off_c, 3, 63, 64
5, 75840, Note_on_c, 3, 60, 81
5, 76164, Note_off_c, 3, 60, 64
5, 76168, Note_on_c, 3, 58, 71
5, 76268, Note_off_c, 3, 58, 64
5, 76272, Note_on_c, 3, 56, 78
5, 76472, Note_off_c, 3, 56, 64
5, 76604, Note_on_c, 3, 56, 92
5, 76780, Note_off_c, 3, 56, 64
5, 76788, Note_on_c, 3, 63, 92
5, 76980, Note_off_c, 3, 63, 64
5, 76984, Note_on_c, 3, 61, 77
5, 77152, Note_off_c, 3, 61, 64
5, 77184, Note_on_c, 3, 61, 87
5, 77632, Note_off_c, 3, 61, 64
5, 77952, Note_on_c, 3, 56, 87
5, 78044, Note_off_c, 3, 56, 64
5, 78048, Note_on_c, 3, 58, 87
5, 78128, Note_off_c, 3, 58, 64
5, 78132, Note_on_c, 3, 61, 78
5, 78208, Note_off_c, 3, 61, 64
5, 78212, Note_on_c, 3, 58, 78
5, 78304, Note_off_c, 3, 58, 64
5, 78320, Note_on_c, 3, 65, 103
5, 78528, Note_off_c, 3, 65, 64
5, 78644, Note_on_c, 3, 65, 103
5, 78908, Note_off_c, 3, 65, 64
5, 78912, Note_on_c, 3, 63, 92
5, 79308, Note_off_c, 3, 63, 64
5, 79488, Note_on_c, 3, 56, 87
5, 79556, Note_off_c, 3, 56, 64
5, 79560, Note_on_c, 3, 58, 78
5, 79648, Note_off_c, 3, 58, 64
5, 79652, Note_on_c, 3, 60, 81
5, 79744, Note_off_c, 3, 60, 64
5, 79748, Note_on_c, 3, 58, 78
5, 79844, Note_off_c, 3, 58, 64
5, 79864, Note_on_c, 3, 63, 92
5, 80116, Note_off_c, 3, 63, 64
5, 80192, Note_on_c, 3, 63, 87
5, 80456, Note_off_c, 3, 63, 64
5, 80460, Note_on_c, 3, 61, 87
5, 80684, Note_off_c, 3, 61, 64
5, 80688, Note_on_c, 3, 60, 71
5, 80780, Note_off_c, 3, 60, 64
5, 80784, Note_on_c, 3, 58, 78
5, 80996, Note_off_c, 3, 58, 64
5, 81040, Note_on_c, 3, 56, 87
5, 81128, Note_off_c, 3, 56, 64
5, 81132, Note_on_c, 3, 58, 74
5, 81236, Note_off_c, 3, 58, 64
5, 81244, Note_on_c, 3, 60, 74
5, 81320, Note_off_c, 3, 60, 64
5, 81324, Note_on_c, 3, 58, 78
5, 81408, Note_off_c, 3, 58, 64
5, 81420, Note_on_c, 3, 61, 87
5, 81768, Note_off_c, 3, 61, 64
5, 81772, Note_on_c, 3, 63, 78
5, 81972, Note_off_c, 3, 63, 64
5, 81976, Note_on_c, 3, 60, 87
5, 82156, Note_off_c, 3, 60, 64
5, 82160, Note_on_c, 3, 58, 74
5, 82348, Note_off_c, 3, 58, 64
5, 82352, Note_on_c, 3, 56, 78
5, 82572, Note_off_c, 3, 56, 64
5, 82736, Note_on_c, 3, 56, 78
5, 82928, Note_off_c, 3, 56, 64
5, 82932, Note_on_c, 3, 63, 87
5, 83224, Note_off_c, 3, 63, 64
5, 83320, Note_on_c, 3, 61, 87
5, 83712, Note_off_c, 3, 61, 64
5, 84108, Note_on_c, 3, 56, 87
5, 84176, Note_off_c, 3, 56, 64
5, 84180, Note_on_c, 3, 58, 78
5, 84256, Note_off_c, 3, 58, 64
5, 84260, Note_on_c, 3, 61, 78
5, 84332, Note_off_c, 3, 61, 64
5, 84336, Note_on_c, 3, 58, 78
5, 84432, Note_off_c, 3, 58, 64
5, 84452, Note_on_c, 3, 65, 103
5, 84684, Note_off_c, 3, 65, 64
5, 84772, Note_on_c, 3, 65, 103
5, 85032, Note_off_c, 3, 65, 64
5, 85036, Note_on_c, 3, 63, 92
5, 85448, Note_off_c, 3, 63, 64
5, 85612, Note_on_c, 3, 56, 87
5, 85684, Note_off_c, 3, 56, 64
5, 85688, Note_on_c, 3, 58, 78
5, 85768, Note_off_c, 3, 58, 64
5, 85772, Note_on_c, 3, 60, 74
5, 85868, Note_off_c, 3, 60, 64
5, 85872, Note_on_c, 3, 58, 87
5, 85980, Note_off_c, 3, 58, 64
5, 86008, Note_on_c, 3, 68, 92
5, 86356, Note_off_c, 3, 68, 64
5, 86380, Note_on_c, 3, 60, 81
5, 86580, Note_off_c, 3, 60, 64
5, 86584, Note_on_c, 3, 61, 87
5, 86764, Note_off_c, 3, 61, 64
5, 86768, Note_on_c, 3, 60, 49
5, 86856, Note_off_c, 3, 60, 64
5, 86860, Note_on_c, 3, 58, 87
5, 87052, Note_off_c, 3, 58, 64
5, 87136, Note_on_c, 3, 56, 87
5, 87216, Note_off_c, 3, 56, 64
5, 87220, Note_on_c, 3, 58, 78
5, 87320, Note_off_c, 3, 58, 64
5, 87332, Note_on_c, 3, 60, 74
5, 87428, Note_off_c, 3, 60, 64
5, 87432, Note_on_c, 3, 58, 87
5, 87552, Note_off_c, 3, 58, 64
5, 87564, Note_on_c, 3, 61, 92
5, 87944, Note_off_c, 3, 61, 64
5, 87948, Note_on_c, 3, 63, 78
5, 88124, Note_off_c, 3, 63, 64
5, 88128, Note_on_c, 3, 60, 81
5, 88452, Note_off_c, 3, 60, 64
5, 88456, Note_on_c, 3, 58, 71
5, 88556, Note_off_c, 3, 58, 64
5, 88560, Note_on_c, 3, 56, 78
5, 88760, Note_off_c, 3, 56, 64
5, 88892, Note_on_c, 3, 56, 92
5, 89068, Note_off_c, 3, 56, 64
5, 89076, Note_on_c, 3, 63, 92
5, 89268, Note_off_c, 3, 63, 64
5, 89272, Note_on_c, 3, 61, 77
5, 89440, Note_off_c, 3, 61, 64
5, 89472, Note_on_c, 3, 61, 87
5, 89920, Note_off_c, 3, 61, 64
5, 96960, Note_on_c, 3, 56, 87
5, 97028, Note_off_c, 3, 56, 64
5, 97032, Note_on_c, 3, 58, 78
5, 97128, Note_off_c, 3, 58, 64
5, 97132, Note_on_c, 3, 61, 74
5, 97220, Note_off_c, 3, 61, 64
5, 97224, Note_on_c, 3, 58, 87
5, 97332, Note_off_c, 3, 58, 64
5, 97340, Note_on_c, 3, 65, 97
5, 97480, Note_off_c, 3, 65, 64
5, 97524, Note_on_c, 3, 56, 78
5, 97616, Note_off_c, 3, 56, 64
5, 97620, Note_on_c, 3, 58, 78
5, 97712, Note_off_c, 3, 58, 64
5, 97716, Note_on_c, 3, 61, 87
5, 97796, Note_off_c, 3, 61, 64
5, 97800, Note_on_c, 3, 58, 92
5, 97888, Note_off_c, 3, 58, 64
5, 97892, Note_on_c, 3, 65, 103
5, 98112, Note_off_c, 3, 65, 64
5, 100020, Note_on_c, 3, 56, 87
5, 100096, Note_off_c, 3, 56, 64
5, 100100, Note_on_c, 3, 58, 87
5, 100188, Note_off_c, 3, 58, 64
5, 100192, Note_on_c, 3, 61, 87
5, 100268, Note_off_c, 3, 61, 64
5, 100272, Note_on_c, 3, 58, 78
5, 100376, Note_off_c, 3, 58, 64
5, 100384, Note_on_c, 3, 65, 92
5, 100532, Note_off_c, 3, 65, 64
5, 100596, Note_on_c, 3, 56, 92
5, 100684, Note_off_c, 3, 56, 64
5, 100688, Note_on_c, 3, 58, 78
5, 100788, Note_off_c, 3, 58, 64
5, 100792, Note_on_c, 3, 61, 78
5, 100868, Note_off_c, 3, 61, 64
5, 100872, Note_on_c, 3, 58, 78
5, 100968, Note_off_c, 3, 58, 64
5, 100976, Note_on_c, 3, 65, 103
5, 101208, Note_off_c, 3, 65, 64
5, 103092, Note_on_c, 3, 61, 78
5, 103204, Note_off_c, 3, 61, 64
5, 103284, Note_on_c, 3, 61, 87
5, 103468, Note_off_c, 3, 61, 64
5, 103472, Note_on_c, 3, 58, 87
5, 103668, Note_off_c, 3, 58, 64
5, 103672, Note_on_c, 3, 61, 87
5, 103856, Note_off_c, 3, 61, 64
5, 103860, Note_on_c, 3, 63, 87
5, 104140, Note_off_c, 3, 63, 64
5, 104628, Note_on_c, 3, 60, 81
5, 104816, Note_off_c, 3, 60, 64
5, 104820, Note_on_c, 3, 58, 78
5, 105016, Note_off_c, 3, 58, 64
5, 105024, Note_on_c, 3, 60, 74
5, 105116, Note_off_c, 3, 60, 64
5, 105120, Note_on_c, 3, 58, 71
5, 105220, Note_off_c, 3, 58, 64
5, 105224, Note_on_c, 3, 56, 74
5, 105916, Note_off_c, 3, 56, 64
5, 106148, Note_on_c, 3, 58, 87
5, 106264, Note_off_c, 3, 58, 64
5, 106352, Note_on_c, 3, 58, 92
5, 106544, Note_off_c, 3, 58, 64
5, 106548, Note_on_c, 3, 60, 81
5, 106744, Note_off_c, 3, 60, 64
5, 106748, Note_on_c, 3, 61, 78
5, 106928, Note_off_c, 3, 61, 64
5, 106932, Note_on_c, 3, 58, 87
5, 107124, Note_off_c, 3, 58, 64
5, 107132, Note_on_c, 3, 56, 87
5, 107408, Note_off_c, 3, 56, 64
5, 107704, Note_on_c, 3, 68, 92
5, 107852, Note_off_c, 3, 68, 64
5, 107912, Note_on_c, 3, 68, 92
5, 108112, Note_off_c, 3, 68, 64
5, 108116, Note_on_c, 3, 63, 87
5, 108396, Note_off_c, 3, 63, 64
5, 108488, Note_on_c, 3, 65, 97
5, 108668, Note_off_c, 3, 65, 64
5, 108672, Note_on_c, 3, 63, 78
5, 108852, Note_off_c, 3, 63, 64
5, 108856, Note_on_c, 3, 61, 78
5, 109108, Note_off_c, 3, 61, 64
5, 109236, Note_on_c, 3, 61, 78
5, 109356, Note_off_c, 3, 61, 64
5, 109428, Note_on_c, 3, 61, 78
5, 109604, Note_off_c, 3, 61, 64
5, 109612, Note_on_c, 3, 58, 78
5, 109800, Note_off_c, 3, 58, 64
5, 109804, Note_on_c, 3, 61, 87
5, 109992, Note_off_c, 3, 61, 64
5, 110000, Note_on_c, 3, 58, 87
5, 110196, Note_off_c, 3, 58, 64
5, 110200, Note_on_c, 3, 61, 87
5, 110408, Note_off_c, 3, 61, 64
5, 110412, Note_on_c, 3, 63, 87
5, 110612, Note_off_c, 3, 63, 64
5, 110792, Note_on_c, 3, 60, 87
5, 110976, Note_off_c, 3, 60, 64
5, 110980, Note_on_c, 3, 58, 78
5, 111164, Note_off_c, 3, 58, 64
5, 111168, Note_on_c, 3, 60, 74
5, 111248, Note_off_c, 3, 60, 64
5, 111252, Note_on_c, 3, 58, 74
5, 111340, Note_off_c, 3, 58, 64
5, 111344, Note_on_c, 3, 56, 78
5, 111784, Note_off_c, 3, 56, 64
5, 112308, Note_on_c, 3, 58, 87
5, 112424, Note_off_c, 3, 58, 64
5, 112492, Note_on_c, 3, 58, 78
5, 112688, Note_off_c, 3, 58, 64
5, 112692, Note_on_c, 3, 60, 78
5, 112888, Note_off_c, 3, 60, 64
5, 112892, Note_on_c, 3, 61, 78
5, 113076, Note_off_c, 3, 61, 64
5, 113080, Note_on_c, 3, 58, 87
5, 113272, Note_off_c, 3, 58, 64
5, 113276, Note_on_c, 3, 56, 92
5, 113560, Note_off_c, 3, 56, 64
5, 113864, Note_on_c, 3, 63, 78
5, 114072, Note_off_c, 3, 63, 64
5, 114076, Note_on_c, 3, 65, 92
5, 114208, Note_off_c, 3, 65, 64
5, 114268, Note_on_c, 3, 65, 97
5, 114624, Note_off_c, 3, 65, 64
5, 114628, Note_on_c, 3, 63, 92
5, 115024, Note_off_c, 3, 63, 64
5, 115204, Note_on_c, 3, 61, 87
5, 116148, Note_off_c, 3, 61, 64
5, 116152, Note_on_c, 3, 63, 87
5, 116344, Note_off_c, 3, 63, 64
5, 116348, Note_on_c, 3, 65, 92
5, 116536, Note_off_c, 3, 65, 64
5, 116540, Note_on_c, 3, 61, 78
5, 116728, Note_off_c, 3, 61, 64
5, 116732, Note_on_c, 3, 63, 78
5, 116884, Note_off_c, 3, 63, 64
5, 116936, Note_on_c, 3, 63, 92
5, 117044, Note_off_c, 3, 63, 64
5, 117108, Note_on_c, 3, 63, 92
5, 117300, Note_off_c, 3, 63, 64
5, 117304, Note_on_c, 3, 65, 87
5, 117484, Note_off_c, 3, 65, 64
5, 117488, Note_on_c, 3, 63, 87
5, 117668, Note_off_c, 3, 63, 64
5, 117672, Note_on_c, 3, 56, 78
5, 117832, Note_off_c, 3, 56, 64
5, 117888, Note_on_c, 3, 56, 97
5, 118268, Note_off_c, 3, 56, 64
5, 119040, Note_on_c, 3, 58, 92
5, 119220, Note_off_c, 3, 58, 64
5, 119224, Note_on_c, 3, 60, 81
5, 119416, Note_off_c, 3, 60, 64
5, 119420, Note_on_c, 3, 61, 87
5, 119608, Note_off_c, 3, 61, 64
5, 119612, Note_on_c, 3, 58, 97
5, 119808, Note_off_c, 3, 58, 64
5, 120012, Note_on_c, 3, 63, 87
5, 120204, Note_off_c, 3, 63, 64
5, 120208, Note_on_c, 3, 65, 92
5, 120380, Note_off_c, 3, 65, 64
5, 120384, Note_on_c, 3, 63, 87
5, 120736, Note_off_c, 3, 63, 64
5, 120960, Note_on_c, 3, 56, 87
5, 121052, Note_off_c, 3, 56, 64
5, 121056, Note_on_c, 3, 58, 87
5, 121136, Note_off_c, 3, 58, 64
5, 121140, Note_on_c, 3, 61, 78
5, 121216, Note_off_c, 3, 61, 64
5, 121220, Note_on_c, 3, 58, 78
5, 121312, Note_off_c, 3, 58, 64
5, 121328, Note_on_c, 3, 65, 103
5, 121536, Note_off_c, 3, 65, 64
5, 121652, Note_on_c, 3, 65, 103
5, 121916, Note_off_c, 3, 65, 64
5, 121920, Note_on_c, 3, 63, 92
5, 122316, Note_off_c, 3, 63, 64
5, 122496, Note_on_c, 3, 56, 87
5, 122564, Note_off_c, 3, 56, 64
5, 122568, Note_on_c, 3, 58, 78
5, 122656, Note_off_c, 3, 58, 64
5, 122660, Note_on_c, 3, 60, 81
5, 122752, Note_off_c, 3, 60, 64
5, 122756, Note_on_c, 3, 58, 78
5, 122852, Note_off_c, 3, 58, 64
5, 122872, Note_on_c, 3, 63, 92
5, 123124, Note_off_c, 3, 63, 64
5, 123200, Note_on_c, 3, 63, 87
5, 123464, Note_off_c, 3, 63, 64
5, 123468, Note_on_c, 3, 61, 87
5, 123692, Note_off_c, 3, 61, 64
5, 123696, Note_on_c, 3, 60, 71
5, 123788, Note_off_c, 3, 60, 64
5, 123792, Note_on_c, 3, 58, 78
5, 124004, Note_off_c, 3, 58, 64
5, 124048, Note_on_c, 3, 56, 87
5, 124136, Note_off_c, 3, 56, 64
5, 124140, Note_on_c, 3, 58, 74
5, 124244, Note_off_c, 3, 58, 64
5, 124252, Note_on_c, 3, 60, 74
5, 124328, Note_off_c, 3, 60, 64
5, 124332, Note_on_c, 3, 58, 78
5, 124416, Note_off_c, 3, 58, 64
5, 124428, Note_on_c, 3, 61, 87
5, 124776, Note_off_c, 3, 61, 64
5, 124780, Note_on_c, 3, 63, 78
5, 124980, Note_off_c, 3, 63, 64
5, 124984, Note_on_c, 3, 60, 87
5, 125164, Note_off_c, 3, 60, 64
5, 125168, Note_on_c, 3, 58, 74
5, 125356, Note_off_c, 3, 58, 64
5, 125360, Note_on_c, 3, 56, 78
5, 125580, Note_off_c, 3, 56, 64
5, 125744, Note_on_c, 3, 56, 78
5, 125936, Note_off_c, 3, 56, 64
5, 125940, Note_on_c, 3, 63, 87
5, 126232, Note_off_c, 3, 63, 64
5, 126328, Note_on_c, 3, 61, 87
5, 126720, Note_off_c, 3, 61, 64
5, 127116, Note_on_c, 3, 56, 87
5, 127184, Note_off_c, 3, 56, 64
5, 127188, Note_on_c, 3, 58, 78
5, 127264, Note_off_c, 3, 58, 64
5, 127268, Note_on_c, 3, 61, 78
5, 127340, Note_off_c, 3, 61, 64
5, 127344, Note_on_c, 3, 58, 78
5, 127440, Note_off_c, 3, 58, 64
5, 127460, Note_on_c, 3, 65, 103
5, 127692, Note_off_c, 3, 65, 64
5, 127780, Note_on_c, 3, 65, 103
5, 128040, Note_off_c, 3, 65, 64
5, 128044, Note_on_c, 3, 63, 92
5, 128456, Note_off_c, 3, 63, 64
5, 128620, Note_on_c, 3, 56, 87
5, 128692, Note_off_c, 3, 56, 64
5, 128696, Note_on_c, 3, 58, 78
5, 128776, Note_off_c, 3, 58, 64
5, 128780, Note_on_c, 3, 60, 74
5, 128876, Note_off_c, 3, 60, 64
5, 128880, Note_on_c, 3, 58, 87
5, 128988, Note_off_c, 3, 58, 64
5, 129016, Note_on_c, 3, 68, 92
5, 129364, Note_off_c, 3, 68, 64
5, 129388, Note_on_c, 3, 60, 81
5, 129588, Note_off_c, 3, 60, 64
5, 129592, Note_on_c, 3, 61, 87
5, 129772, Note_off_c, 3, 61, 64
5, 129776, Note_on_c, 3, 60, 49
5, 129864, Note_off_c, 3, 60, 64
5, 129868, Note_on_c, 3, 58, 87
5, 130060, Note_off_c, 3, 58, 64
5, 130144, Note_on_c, 3, 56, 87
5, 130224, Note_off_c, 3, 56, 64
5, 130228, Note_on_c, 3, 58, 78
5, 130328, Note_off_c, 3, 58, 64
5, 130340, Note_on_c, 3, 60, 74
5, 130436, Note_off_c, 3, 60, 64
5, 130440, Note_on_c, 3, 58, 87
5, 130560, Note_off_c, 3, 58, 64
5, 130572, Note_on_c, 3, 61, 92
5, 130952, Note_off_c, 3, 61, 64
5, 130956, Note_on_c, 3, 63, 78
5, 131132, Note_off_c, 3, 63, 64
5, 131136, Note_on_c, 3, 60, 81
5, 131460, Note_off_c, 3, 60, 64
5, 131464, Note_on_c, 3, 58, 71
5, 131564, Note_off_c, 3, 58, 64
5, 131568, Note_on_c, 3, 56, 78
5, 131768, Note_off_c, 3, 56, 64
5, 131900, Note_on_c, 3, 56, 92
5, 132076, Note_off_c, 3, 56, 64
5, 132084, Note_on_c, 3, 63, 92
5, 132276, Note_off_c, 3, 63, 64
5, 132280, Note_on_c, 3, 61, 77
5, 132448, Note_off_c, 3, 61, 64
5, 132480, Note_on_c, 3, 61, 87
5, 132928, Note_off_c, 3, 61, 64
5, 133248, Note_on_c, 3, 56, 87
5, 133340, Note_off_c, 3, 56, 64
5, 133344, Note_on_c, 3, 58, 87
5, 133424, Note_off_c, 3, 58, 64
5, 133428, Note_on_c, 3, 61, 78
5, 133504, Note_off_c, 3, 61, 64
5, 133508, Note_on_c, 3, 58, 78
5, 133600, Note_off_c, 3, 58, 64
5, 133616, Note_on_c, 3, 65, 103
5, 133824, Note_off_c, 3, 65, 64
5, 133940, Note_on_c, 3, 65, 103
5, 134204, Note_off_c, 3, 65, 64
5, 134208, Note_on_c, 3, 63, 92
5, 134604, Note_off_c, 3, 63, 64
5, 134784, Note_on_c, 3, 56, 87
5, 134852, Note_off_c, 3, 56, 64
5, 134856, Note_on_c, 3, 58, 78
5, 134944, Note_off_c, 3, 58, 64
5, 134948, Note_on_c, 3, 60, 81
5, 135040, Note_off_c, 3, 60, 64
5, 135044, Note_on_c, 3, 58, 78
5, 135140, Note_off_c, 3, 58, 64
5, 135160, Note_on_c, 3, 63, 92
5, 135412, Note_off_c, 3, 63, 64
5, 135488, Note_on_c, 3, 63, 87
5, 135752, Note_off_c, 3, 63, 64
5, 135756, Note_on_c, 3, 61, 87
5, 135980, Note_off_c, 3, 61, 64
5, 135984, Note_on_c, 3, 60, 71
5, 136076, Note_off_c, 3, 60, 64
5, 136080, Note_on_c, 3, 58, 78
5, 136292, Note_off_c, 3, 58, 64
5, 136336, Note_on_c, 3, 56, 87
5, 136424, Note_off_c, 3, 56, 64
5, 136428, Note_on_c, 3, 58, 74
5, 136532, Note_off_c, 3, 58, 64
5, 136540, Note_on_c, 3, 60, 74
5, 136616, Note_off_c, 3, 60, 64
5, 136620, Note_on_c, 3, 58, 78
5, 136704, Note_off_c, 3, 58, 64
5, 136716, Note_on_c, 3, 61, 87
5, 137064, Note_off_c, 3, 61, 64
5, 137068, Note_on_c, 3, 63, 78
5, 137268, Note_off_c, 3, 63, 64
5, 137272, Note_on_c, 3, 60, 87
5, 137452, Note_off_c, 3, 60, 64
5, 137456, Note_on_c, 3, 58, 74
5, 137644, Note_off_c, 3, 58, 64
5, 137648, Note_on_c, 3, 56, 78
5, 137868, Note_off_c, 3, 56, 64
5, 138032, Note_on_c, 3, 56, 78
5, 138224, Note_off_c, 3, 56, 64
5, 138228, Note_on_c, 3, 63, 87
5, 138520, Note_off_c, 3, 63, 64
5, 138616, Note_on_c, 3, 61, 87
5, 139008, Note_off_c, 3, 61, 64
5, 139404, Note_on_c, 3, 56, 87
5, 139472, Note_off_c, 3, 56, 64
5, 139476, Note_on_c, 3, 58, 78
5, 139552, Note_off_c, 3, 58, 64
5, 139556, Note_on_c, 3, 61, 78
5, 139628, Note_off_c, 3, 61, 64
5, 139632, Note_on_c, 3, 58, 78
5, 139728, Note_off_c, 3, 58, 64
5, 139748, Note_on_c, 3, 65, 103
5, 139980, Note_off_c, 3, 65, 64
5, 140068, Note_on_c, 3, 65, 103
5, 140328, Note_off_c, 3, 65, 64
5, 140332, Note_on_c, 3, 63, 92
5, 140744, Note_off_c, 3, 63, 64
5, 140908, Note_on_c, 3, 56, 87
5, 140980, Note_off_c, 3, 56, 64
5, 140984, Note_on_c, 3, 58, 78
5, 141064, Note_off_c, 3, 58, 64
5, 141068, Note_on_c, 3, 60, 74
5, 141164, Note_off_c, 3, 60, 64
5, 141168, Note_on_c, 3, 58, 87
5, 141276, Note_off_c, 3, 58, 64
5, 141304, Note_on_c, 3, 68, 92
5, 141652, Note_off_c, 3, 68, 64
5, 141676, Note_on_c, 3, 60, 81
5, 141876, Note_off_c, 3, 60, 64
5, 141880, Note_on_c, 3, 61, 87
5, 142060, Note_off_c, 3, 61, 64
5, 142064, Note_on_c, 3, 60, 49
5, 142152, Note_off_c, 3, 60, 64
5, 142156, Note_on_c, 3, 58, 87
5, 142348, Note_off_c, 3, 58, 64
5, 142432, Note_on_c, 3, 56, 87
5, 142512, Note_off_c, 3, 56, 64
5, 142516, Note_on_c, 3, 58, 78
5, 142616, Note_off_c, 3, 58, 64
5, 142628, Note_on_c, 3, 60, 74
5, 142724, Note_off_c, 3, 60, 64
5, 142728, Note_on_c, 3, 58, 87
5, 142848, Note_off_c, 3, 58, 64
5, 142860, Note_on_c, 3, 61, 92
5, 143240, Note_off_c, 3, 61, 64
5, 143244, Note_on_c, 3, 63, 78
5, 143420, Note_off_c, 3, 63, 64
5, 143424, Note_on_c, 3, 60, 81
5, 143748, Note_off_c, 3, 60, 64
5, 143752, Note_on_c, 3, 58, 71
5, 143852, Note_off_c, 3, 58, 64
5, 143856, Note_on_c, 3, 56, 78
5, 144056, Note_off_c, 3, 56, 64
5, 144188, Note_on_c, 3, 56, 92
5, 144364, Note_off_c, 3, 56, 64
5, 144372, Note_on_c, 3, 63, 92
5, 144564, Note_off_c, 3, 63, 64
5, 144568, Note_on_c, 3, 61, 77
5, 144736, Note_off_c, 3, 61, 64
5, 144768, Note_on_c, 3, 61, 87
5, 145216, Note_off_c, 3, 61, 64
5, 145536, Note_on_c, 3, 56, 87
5, 145628, Note_off_c, 3, 56, 64
5, 145632, Note_on_c, 3, 58, 87
5, 145712, Note_off_c, 3, 58, 64
5, 145716, Note_on_c, 3, 61, 78
5, 145792, Note_off_c, 3, 61, 64
5, 145796, Note_on_c, 3, 58, 78
5, 145888, Note_off_c, 3, 58, 64
5, 145904, Note_on_c, 3, 65, 103
5, 146112, Note_off_c, 3, 65, 64
5, 146228, Note_on_c, 3, 65, 101
5, 146492, Note_off_c, 3, 65, 64
5, 146496, Note_on_c, 3, 63, 87
5, 146892, Note_off_c, 3, 63, 64
5, 147072, Note_on_c, 3, 56, 77
5, 147140, Note_off_c, 3, 56, 64
5, 147144, Note_on_c, 3, 58, 68
5, 147232, Note_off_c, 3, 58, 64
5, 147236, Note_on_c, 3, 60, 69
5, 147328, Note_off_c, 3, 60, 64
5, 147332, Note_on_c, 3, 58, 66
5, 147428, Note_off_c, 3, 58, 64
5, 147448, Note_on_c, 3, 63, 77
5, 147700, Note_off_c, 3, 63, 64
5, 147776, Note_on_c, 3, 63, 69
5, 148040, Note_off_c, 3, 63, 64
5, 148044, Note_on_c, 3, 61, 67
5, 148268, Note_off_c, 3, 61, 64
5, 148272, Note_on_c, 3, 60, 52
5, 148364, Note_off_c, 3, 60, 64
5, 148368, Note_on_c, 3, 58, 57
5, 148580, Note_off_c, 3, 58, 64
5, 148624, Note_on_c, 3, 56, 61
5, 148712, Note_off_c, 3, 56, 64
5, 148716, Note_on_c, 3, 58, 50
5, 148820, Note_off_c, 3, 58, 64
5, 148828, Note_on_c, 3, 60, 49
5, 148904, Note_off_c, 3, 60, 64
5, 148908, Note_on_c, 3, 58, 52
5, 148992, Note_off_c, 3, 58, 64
5, 149004, Note_on_c, 3, 61, 58
5, 149352, Note_off_c, 3, 61, 64
5, 149356, Note_on_c, 3, 63, 48
5, 149556, Note_off_c, 3, 63, 64
5, 149560, Note_on_c, 3, 60, 52
5, 149740, Note_off_c, 3, 60, 64
5, 149744, Note_on_c, 3, 58, 42
5, 149932, Note_off_c, 3, 58, 64
5, 149936, Note_on_c, 3, 56, 42
5, 150156, Note_off_c, 3, 56, 64
5, 150320, Note_on_c, 3, 56, 39
5, 150512, Note_off_c, 3, 56, 64
5, 150516, Note_on_c, 3, 63, 43
5, 150808, Note_off_c, 3, 63, 64
5, 150904, Note_on_c, 3, 61, 38
5, 151296, Note_off_c, 3, 61, 64
5, 151692, Note_on_c, 3, 56, 31
5, 151760, Note_off_c, 3, 56, 64
5, 151764, Note_on_c, 3, 58, 26
5, 151840, Note_off_c, 3, 58, 64
5, 151844, Note_on_c, 3, 61, 25
5, 151916, Note_off_c, 3, 61, 64
5, 151920, Note_on_c, 3, 58, 25
5, 152016, Note_off_c, 3, 58, 64
5, 152036, Note_on_c, 3, 65, 35
5, 152268, Note_off_c, 3, 65, 64
5, 152356, Note_on_c, 3, 65, 31
5, 152616, Note_off_c, 3, 65, 64
5, 152620, Note_on_c, 3, 63, 23
5, 153032, Note_off_c, 3, 63, 64
5, 153196, Note_on_c, 3, 56, 16
5, 153268, Note_off_c, 3, 56, 64
5, 153272, Note_on_c, 3, 58, 12
5, 153352, Note_off_c, 3, 58, 64
5, 153356, Note_on_c, 3, 60, 10
5, 153452, Note_off_c, 3, 60, 64
5, 153456, Note_on_c, 3, 58, 13
5, 153564, Note_off_c, 3, 58, 64
5, 153592, Note_on_c, 3, 68, 13
5, 153940, Note_off_c, 3, 68, 64
5, 153964, Note_on_c, 3, 60, 7
5, 154164, Note_off_c, 3, 60, 64
5, 154168, Note_on_c, 3, 61, 6
5, 154348, Note_off_c, 3, 61, 64
5, 154352, Note_on_c, 3, 60, 1
5, 154440, Note_off_c, 3, 60, 64
5, 154444, Note_on_c, 3, 58, 3
5, 154636, Note_off_c, 3, 58, 64
5, 154720, Note_on_c, 3, 56, 1
5, 154800, Note_off_c, 3, 56, 64
5, 154804, Note_on_c, 3, 58, 1
5, 154904, Note_off_c, 3, 58, 64
5, 154916, Note_on_c, 3, 60, 1
5, 155012, Note_off_c, 3, 60, 64
5, 155016, Note_on_c, 3, 58, 1
5, 155136, Note_off_c, 3, 58, 64
5, 155148, Note_on_c, 3, 61, 1
5, 155528, Note_off_c, 3, 61, 64
5, 155532, Note_on_c, 3, 63, 1
5, 155708, Note_off_c, 3, 63, 64
5, 155712, Note_on_c, 3, 60, 1
5, 156036, Note_off_c, 3, 60, 64
5, 156040, Note_on_c, 3, 58, 1
5, 156140, Note_off_c, 3, 58, 64
5, 156144, Note_on_c, 3, 56, 1
5, 156344, Note_off_c, 3, 56, 64
5, 156476, Note_on_c, 3, 56, 1
5, 156524, Note_off_c, 3, 56, 1
5, 158208, End_track
6, 0, Start_track
6, 0, Title_t, "PICCOLO"
6, 2008, Program_c, 4, 72
6, 2012, Control_c, 4, 7, 80
6, 2012, Control_c, 4, 10, 78
6, 2012, Control_c, 4, 11, 127
6, 2016, Control_c, 4, 91, 45
6, 2016, Control_c, 4, 93, 0
6, 17284, Note_on_c, 4, 58, 72
6, 17288, Pitch_bend_c, 4, 8192
6, 17288, Control_c, 4, 1, 0
6, 17460, Note_off_c, 4, 58, 64
6, 17460, Note_on_c, 4, 60, 58
6, 17648, Note_off_c, 4, 60, 64
6, 17648, Note_on_c, 4, 61, 67
6, 17844, Note_off_c, 4, 61, 64
6, 17848, Note_on_c, 4, 61, 67
6, 18044, Note_off_c, 4, 61, 64
6, 18044, Note_on_c, 4, 63, 58
6, 18244, Note_off_c, 4, 63, 64
6, 18248, Note_on_c, 4, 60, 67
6, 18508, Note_off_c, 4, 60, 64
6, 18512, Note_on_c, 4, 58, 58
6, 18640, Note_off_c, 4, 58, 64
6, 18640, Note_on_c, 4, 56, 45
6, 20128, Note_off_c, 4, 56, 64
6, 20144, Note_on_c, 4, 58, 54
6, 20336, Note_off_c, 4, 58, 64
6, 20340, Note_on_c, 4, 58, 67
6, 20532, Note_off_c, 4, 58, 64
6, 20532, Note_on_c, 4, 60, 58
6, 20732, Note_off_c, 4, 60, 64
6, 20732, Note_on_c, 4, 61, 72
6, 20924, Note_off_c, 4, 61, 64
6, 20924, Note_on_c, 4, 58, 67
6, 21304, Note_off_c, 4, 58, 64
6, 21308, Note_on_c, 4, 56, 67
6, 21496, Note_off_c, 4, 56, 64
6, 21496, Note_on_c, 4, 68, 77
6, 21880, Note_off_c, 4, 68, 64
6, 21888, Note_on_c, 4, 68, 77
6, 22080, Note_off_c, 4, 68, 64
6, 22080, Note_on_c, 4, 63, 58
6, 23216, Note_off_c, 4, 63, 64
6, 23228, Note_on_c, 4, 58, 67
6, 23424, Note_off_c, 4, 58, 64
6, 23428, Note_on_c, 4, 58, 58
6, 23620, Note_off_c, 4, 58, 64
6, 23620, Note_on_c, 4, 60, 67
6, 23816, Note_off_c, 4, 60, 64
6, 23816, Note_on_c, 4, 61, 67
6, 24016, Note_off_c, 4, 61, 64
6, 24020, Note_on_c, 4, 58, 67
6, 24208, Note_off_c, 4, 58, 64
6, 24208, Note_on_c, 4, 61, 67
6, 24400, Note_off_c, 4, 61, 64
6, 24400, Note_on_c, 4, 63, 67
6, 24780, Note_off_c, 4, 63, 64
6, 24784, Note_on_c, 4, 60, 67
6, 24972, Note_off_c, 4, 60, 64
6, 24972, Note_on_c, 4, 58, 58
6, 25172, Note_off_c, 4, 58, 64
6, 25172, Note_on_c, 4, 60, 58
6, 25260, Note_off_c, 4, 60, 64
6, 25260, Note_on_c, 4, 58, 54
6, 25360, Note_off_c, 4, 58, 64
6, 25360, Note_on_c, 4, 56, 58
6, 26292, Note_off_c, 4, 56, 64
6, 26300, Note_on_c, 4, 58, 67
6, 26492, Note_off_c, 4, 58, 64
6, 26496, Note_on_c, 4, 58, 58
6, 26684, Note_off_c, 4, 58, 64
6, 26684, Note_on_c, 4, 60, 61
6, 26880, Note_off_c, 4, 60, 64
6, 26880, Note_on_c, 4, 61, 58
6, 27072, Note_off_c, 4, 61, 64
6, 27072, Note_on_c, 4, 58, 67
6, 27272, Note_off_c, 4, 58, 64
6, 27272, Note_on_c, 4, 56, 72
6, 27632, Note_off_c, 4, 56, 64
6, 27636, Note_on_c, 4, 63, 72
6, 27836, Note_off_c, 4, 63, 64
6, 27840, Note_on_c, 4, 63, 67
6, 28020, Note_off_c, 4, 63, 64
6, 28024, Note_on_c, 4, 63, 67
6, 28224, Note_off_c, 4, 63, 64
6, 28224, Note_on_c, 4, 65, 72
6, 28424, Note_off_c, 4, 65, 64
6, 28424, Note_on_c, 4, 63, 67
6, 29188, Note_off_c, 4, 63, 64
6, 29196, Note_on_c, 4, 61, 67
6, 30136, Note_off_c, 4, 61, 64
6, 30144, Note_on_c, 4, 63, 58
6, 30336, Note_off_c, 4, 63, 64
6, 30336, Note_on_c, 4, 65, 72
6, 30524, Note_off_c, 4, 65, 64
6, 30524, Note_on_c, 4, 61, 58
6, 30704, Note_off_c, 4, 61, 64
6, 30704, Note_on_c, 4, 63, 67
6, 30904, Note_off_c, 4, 63, 64
6, 30912, Note_on_c, 4, 63, 72
6, 31080, Note_off_c, 4, 63, 64
6, 31084, Note_on_c, 4, 63, 72
6, 31284, Note_off_c, 4, 63, 64
6, 31288, Note_on_c, 4, 65, 72
6, 31472, Note_off_c, 4, 65, 64
6, 31472, Note_on_c, 4, 63, 67
6, 31652, Note_off_c, 4, 63, 64
6, 31652, Note_on_c, 4, 56, 58
6, 31868, Note_off_c, 4, 56, 64
6, 31876, Note_on_c, 4, 56, 77
6, 33008, Note_off_c, 4, 56, 64
6, 33020, Note_on_c, 4, 58, 72
6, 33212, Note_off_c, 4, 58, 64
6, 33212, Note_on_c, 4, 60, 67
6, 33404, Note_off_c, 4, 60, 64
6, 33404, Note_on_c, 4, 61, 67
6, 33592, Note_off_c, 4, 61, 64
6, 33592, Note_on_c, 4, 58, 77
6, 33976, Note_off_c, 4, 58, 64
6, 33980, Note_on_c, 4, 63, 72
6, 34180, Note_off_c, 4, 63, 64
6, 34184, Note_on_c, 4, 65, 77
6, 34364, Note_off_c, 4, 65, 64
6, 34364, Note_on_c, 4, 63, 72
6, 34940, Note_off_c, 4, 63, 64
6, 34944, Note_on_c, 4, 56, 67
6, 35040, Note_off_c, 4, 56, 64
6, 35040, Note_on_c, 4, 58, 67
6, 35124, Note_off_c, 4, 58, 64
6, 35124, Note_on_c, 4, 61, 58
6, 35204, Note_off_c, 4, 61, 64
6, 35204, Note_on_c, 4, 58, 58
6, 35328, Note_off_c, 4, 58, 64
6, 35328, Note_on_c, 4, 73, 64
6, 35328, Note_on_c, 4, 68, 64
6, 35328, Note_on_c, 4, 65, 83
6, 35328, Note_on_c, 4, 61, 48
6, 35608, Note_off_c, 4, 61, 64
6, 35608, Note_off_c, 4, 65, 64
6, 35608, Note_off_c, 4, 68, 64
6, 35608, Note_off_c, 4, 73, 64
6, 35616, Note_on_c, 4, 61, 40
6, 35616, Note_on_c, 4, 73, 69
6, 35616, Note_on_c, 4, 65, 80
6, 35616, Note_on_c, 4, 68, 64
6, 35896, Note_off_c, 4, 68, 64
6, 35900, Note_off_c, 4, 65, 64
6, 35900, Note_off_c, 4, 73, 64
6, 35900, Note_off_c, 4, 61, 64
6, 35904, Note_on_c, 4, 72, 69
6, 35904, Note_on_c, 4, 68, 64
6, 35904, Note_on_c, 4, 63, 69
6, 35904, Note_on_c, 4, 60, 48
6, 36476, Note_off_c, 4, 60, 64
6, 36476, Note_off_c, 4, 63, 64
6, 36476, Note_off_c, 4, 68, 64
6, 36476, Note_off_c, 4, 72, 64
6, 36480, Note_on_c, 4, 56, 64
6, 36576, Note_off_c, 4, 56, 64
6, 36576, Note_on_c, 4, 58, 55
6, 36672, Note_off_c, 4, 58, 64
6, 36672, Note_on_c, 4, 60, 58
6, 36768, Note_off_c, 4, 60, 64
6, 36768, Note_on_c, 4, 58, 55
6, 36864, Note_off_c, 4, 58, 64
6, 36864, Note_on_c, 4, 72, 64
6, 36864, Note_on_c, 4, 68, 64
6, 36864, Note_on_c, 4, 60, 42
6, 36864, Note_on_c, 4, 63, 69
6, 37144, Note_off_c, 4, 63, 64
6, 37144, Note_off_c, 4, 60, 64
6, 37144, Note_off_c, 4, 68, 64
6, 37144, Note_off_c, 4, 72, 64
6, 37152, Note_on_c, 4, 63, 64
6, 37152, Note_on_c, 4, 60, 33
6, 37152, Note_on_c, 4, 72, 58
6, 37152, Note_on_c, 4, 68, 55
6, 37436, Note_off_c, 4, 68, 64
6, 37436, Note_off_c, 4, 72, 64
6, 37436, Note_off_c, 4, 60, 64
6, 37436, Note_off_c, 4, 63, 64
6, 37440, Note_on_c, 4, 61, 64
6, 37440, Note_on_c, 4, 65, 74
6, 37440, Note_on_c, 4, 70, 69
6, 37724, Note_off_c, 4, 61, 64
6, 37728, Note_on_c, 4, 60, 48
6, 37824, Note_off_c, 4, 60, 64
6, 37824, Note_on_c, 4, 58, 55
6, 38012, Note_off_c, 4, 70, 64
6, 38012, Note_off_c, 4, 65, 64
6, 38016, Note_off_c, 4, 58, 64
6, 38020, Note_on_c, 4, 56, 64
6, 38136, Note_off_c, 4, 56, 64
6, 38140, Note_on_c, 4, 58, 51
6, 38252, Note_off_c, 4, 58, 64
6, 38252, Note_on_c, 4, 60, 51
6, 38332, Note_off_c, 4, 60, 64
6, 38332, Note_on_c, 4, 58, 55
6, 38428, Note_off_c, 4, 58, 64
6, 38428, Note_on_c, 4, 61, 64
6, 38776, Note_off_c, 4, 61, 64
6, 38780, Note_on_c, 4, 63, 55
6, 38980, Note_off_c, 4, 63, 64
6, 38984, Note_on_c, 4, 60, 64
6, 39168, Note_off_c, 4, 60, 64
6, 39168, Note_on_c, 4, 58, 51
6, 39360, Note_off_c, 4, 58, 64
6, 39360, Note_on_c, 4, 56, 55
6, 39736, Note_off_c, 4, 56, 64
6, 39744, Note_on_c, 4, 63, 51
6, 39744, Note_on_c, 4, 72, 64
6, 39744, Note_on_c, 4, 56, 55
6, 39744, Note_on_c, 4, 60, 58
6, 39932, Note_off_c, 4, 60, 64
6, 39932, Note_off_c, 4, 72, 64
6, 39932, Note_off_c, 4, 63, 64
6, 39936, Note_off_c, 4, 56, 64
6, 39936, Note_on_c, 4, 63, 64
6, 39936, Note_on_c, 4, 60, 69
6, 39936, Note_on_c, 4, 72, 69
6, 40316, Note_off_c, 4, 72, 64
6, 40316, Note_off_c, 4, 60, 64
6, 40316, Note_off_c, 4, 63, 64
6, 40320, Note_on_c, 4, 68, 69
6, 40320, Note_on_c, 4, 73, 55
6, 40320, Note_on_c, 4, 65, 69
6, 40320, Note_on_c, 4, 61, 64
6, 41080, Note_off_c, 4, 61, 64
6, 41080, Note_off_c, 4, 65, 64
6, 41080, Note_off_c, 4, 73, 64
6, 41080, Note_off_c, 4, 68, 64
6, 41088, Note_on_c, 4, 56, 64
6, 41184, Note_off_c, 4, 56, 64
6, 41184, Note_on_c, 4, 58, 55
6, 41280, Note_off_c, 4, 58, 64
6, 41280, Note_on_c, 4, 61, 55
6, 41376, Note_off_c, 4, 61, 64
6, 41376, Note_on_c, 4, 58, 55
6, 41472, Note_off_c, 4, 58, 64
6, 41472, Note_on_c, 4, 73, 64
6, 41472, Note_on_c, 4, 68, 64
6, 41472, Note_on_c, 4, 61, 48
6, 41472, Note_on_c, 4, 65, 80
6, 41752, Note_off_c, 4, 65, 64
6, 41752, Note_off_c, 4, 61, 64
6, 41752, Note_off_c, 4, 68, 64
6, 41752, Note_off_c, 4, 73, 64
6, 41760, Note_on_c, 4, 61, 48
6, 41760, Note_on_c, 4, 68, 64
6, 41760, Note_on_c, 4, 73, 64
6, 41760, Note_on_c, 4, 65, 80
6, 42040, Note_off_c, 4, 68, 64
6, 42044, Note_off_c, 4, 65, 64
6, 42044, Note_off_c, 4, 73, 64
6, 42044, Note_off_c, 4, 61, 64
6, 42048, Note_on_c, 4, 68, 69
6, 42048, Note_on_c, 4, 60, 58
6, 42048, Note_on_c, 4, 63, 69
6, 42048, Note_on_c, 4, 72, 69
6, 42620, Note_off_c, 4, 72, 64
6, 42620, Note_off_c, 4, 63, 64
6, 42620, Note_off_c, 4, 60, 64
6, 42620, Note_off_c, 4, 68, 64
6, 42624, Note_on_c, 4, 56, 64
6, 42720, Note_off_c, 4, 56, 64
6, 42720, Note_on_c, 4, 58, 55
6, 42816, Note_off_c, 4, 58, 64
6, 42816, Note_on_c, 4, 60, 51
6, 42912, Note_off_c, 4, 60, 64
6, 42912, Note_on_c, 4, 58, 64
6, 43008, Note_off_c, 4, 58, 64
6, 43008, Note_on_c, 4, 60, 55
6, 43008, Note_on_c, 4, 63, 69
6, 43008, Note_on_c, 4, 68, 69
6, 43008, Note_on_c, 4, 72, 69
6, 43384, Note_off_c, 4, 72, 64
6, 43384, Note_off_c, 4, 63, 64
6, 43384, Note_off_c, 4, 60, 64
6, 43388, Note_off_c, 4, 68, 64
6, 43392, Note_on_c, 4, 60, 58
6, 43392, Note_on_c, 4, 72, 64
6, 43392, Note_on_c, 4, 63, 64
6, 43584, Note_off_c, 4, 63, 64
6, 43584, Note_off_c, 4, 72, 64
6, 43584, Note_off_c, 4, 60, 64
6, 43584, Note_on_c, 4, 65, 64
6, 43584, Note_on_c, 4, 73, 64
6, 43584, Note_on_c, 4, 61, 64
6, 43776, Note_off_c, 4, 61, 64
6, 43776, Note_off_c, 4, 73, 64
6, 43776, Note_off_c, 4, 65, 64
6, 43776, Note_on_c, 4, 60, 26
6, 43776, Note_on_c, 4, 72, 51
6, 43776, Note_on_c, 4, 63, 51
6, 43872, Note_off_c, 4, 63, 64
6, 43872, Note_off_c, 4, 72, 64
6, 43872, Note_off_c, 4, 60, 64
6, 43872, Note_on_c, 4, 58, 64
6, 43872, Note_on_c, 4, 61, 51
6, 43872, Note_on_c, 4, 70, 51
6, 44156, Note_off_c, 4, 70, 64
6, 44156, Note_off_c, 4, 61, 64
6, 44156, Note_off_c, 4, 58, 64
6, 44160, Note_on_c, 4, 56, 64
6, 44256, Note_off_c, 4, 56, 64
6, 44256, Note_on_c, 4, 58, 55
6, 44352, Note_off_c, 4, 58, 64
6, 44352, Note_on_c, 4, 60, 51
6, 44448, Note_off_c, 4, 60, 64
6, 44448, Note_on_c, 4, 58, 64
6, 44572, Note_off_c, 4, 58, 64
6, 44572, Note_on_c, 4, 61, 69
6, 44952, Note_off_c, 4, 61, 64
6, 44956, Note_on_c, 4, 63, 55
6, 45136, Note_off_c, 4, 63, 64
6, 45136, Note_on_c, 4, 60, 58
6, 45460, Note_off_c, 4, 60, 64
6, 45464, Note_on_c, 4, 58, 48
6, 45568, Note_off_c, 4, 58, 64
6, 45568, Note_on_c, 4, 56, 55
6, 45892, Note_off_c, 4, 56, 64
6, 45900, Note_on_c, 4, 56, 69
6, 46080, Note_off_c, 4, 56, 64
6, 46080, Note_on_c, 4, 72, 69
6, 46080, Note_on_c, 4, 63, 69
6, 46080, Note_on_c, 4, 60, 55
6, 46460, Note_off_c, 4, 60, 64
6, 46460, Note_off_c, 4, 63, 64
6, 46460, Note_off_c, 4, 72, 64
6, 46464, Note_on_c, 4, 65, 69
6, 46464, Note_on_c, 4, 73, 64
6, 46464, Note_on_c, 4, 68, 64
6, 46464, Note_on_c, 4, 61, 64
6, 47604, Note_off_c, 4, 61, 64
6, 47604, Note_off_c, 4, 68, 64
6, 47604, Note_off_c, 4, 73, 64
6, 47604, Note_off_c, 4, 65, 64
6, 47804, Note_on_c, 4, 61, 67
6, 48004, Note_off_c, 4, 61, 64
6, 48008, Note_on_c, 4, 61, 77
6, 48192, Note_off_c, 4, 61, 64
6, 48192, Note_on_c, 4, 58, 67
6, 48380, Note_off_c, 4, 58, 64
6, 48380, Note_on_c, 4, 61, 72
6, 48600, Note_off_c, 4, 61, 64
6, 48604, Note_on_c, 4, 63, 72
6, 49328, Note_off_c, 4, 63, 64
6, 49336, Note_on_c, 4, 60, 67
6, 49528, Note_off_c, 4, 60, 64
6, 49528, Note_on_c, 4, 58, 67
6, 49728, Note_off_c, 4, 58, 64
6, 49728, Note_on_c, 4, 60, 61
6, 49800, Note_off_c, 4, 60, 64
6, 49800, Note_on_c, 4, 58, 45
6, 49928, Note_off_c, 4, 58, 64
6, 49928, Note_on_c, 4, 56, 58
6, 50872, Note_off_c, 4, 56, 64
6, 50880, Note_on_c, 4, 58, 67
6, 51064, Note_off_c, 4, 58, 64
6, 51068, Note_on_c, 4, 58, 54
6, 51260, Note_off_c, 4, 58, 64
6, 51260, Note_on_c, 4, 60, 61
6, 51452, Note_off_c, 4, 60, 64
6, 51452, Note_on_c, 4, 61, 67
6, 51648, Note_off_c, 4, 61, 64
6, 51648, Note_on_c, 4, 58, 58
6, 51836, Note_off_c, 4, 58, 64
6, 51836, Note_on_c, 4, 56, 72
6, 52424, Note_off_c, 4, 56, 64
6, 52428, Note_on_c, 4, 68, 77
6, 52612, Note_off_c, 4, 68, 64
6, 52616, Note_on_c, 4, 68, 77
6, 52816, Note_off_c, 4, 68, 64
6, 52820, Note_on_c, 4, 63, 72
6, 53184, Note_off_c, 4, 63, 64
6, 53188, Note_on_c, 4, 65, 72
6, 53376, Note_off_c, 4, 65, 64
6, 53376, Note_on_c, 4, 63, 67
6, 53556, Note_off_c, 4, 63, 64
6, 53556, Note_on_c, 4, 61, 67
6, 53928, Note_off_c, 4, 61, 64
6, 53936, Note_on_c, 4, 61, 67
6, 54120, Note_off_c, 4, 61, 64
6, 54124, Note_on_c, 4, 61, 67
6, 54320, Note_off_c, 4, 61, 64
6, 54320, Note_on_c, 4, 58, 67
6, 54516, Note_off_c, 4, 58, 64
6, 54516, Note_on_c, 4, 61, 67
6, 54716, Note_off_c, 4, 61, 64
6, 54716, Note_on_c, 4, 58, 54
6, 54896, Note_off_c, 4, 58, 64
6, 54896, Note_on_c, 4, 61, 72
6, 55104, Note_off_c, 4, 61, 64
6, 55108, Note_on_c, 4, 63, 67
6, 55488, Note_off_c, 4, 63, 64
6, 55492, Note_on_c, 4, 60, 67
6, 55684, Note_off_c, 4, 60, 64
6, 55684, Note_on_c, 4, 58, 58
6, 55884, Note_off_c, 4, 58, 64
6, 55884, Note_on_c, 4, 60, 58
6, 55972, Note_off_c, 4, 60, 64
6, 55972, Note_on_c, 4, 58, 54
6, 56088, Note_off_c, 4, 58, 64
6, 56088, Note_on_c, 4, 56, 58
6, 57024, Note_off_c, 4, 56, 64
6, 57032, Note_on_c, 4, 58, 72
6, 57220, Note_off_c, 4, 58, 64
6, 57224, Note_on_c, 4, 58, 72
6, 57412, Note_off_c, 4, 58, 64
6, 57412, Note_on_c, 4, 60, 67
6, 57608, Note_off_c, 4, 60, 64
6, 57608, Note_on_c, 4, 61, 58
6, 57792, Note_off_c, 4, 61, 64
6, 57792, Note_on_c, 4, 58, 67
6, 57980, Note_off_c, 4, 58, 64
6, 57980, Note_on_c, 4, 56, 72
6, 58572, Note_off_c, 4, 56, 64
6, 58576, Note_on_c, 4, 63, 72
6, 58776, Note_off_c, 4, 63, 64
6, 58776, Note_on_c, 4, 65, 72
6, 58976, Note_off_c, 4, 65, 64
6, 58980, Note_on_c, 4, 65, 83
6, 59332, Note_off_c, 4, 65, 64
6, 59336, Note_on_c, 4, 63, 67
6, 59920, Note_off_c, 4, 63, 64
6, 59924, Note_on_c, 4, 61, 58
6, 60844, Note_off_c, 4, 61, 64
6, 60852, Note_on_c, 4, 63, 54
6, 61052, Note_off_c, 4, 63, 64
6, 61056, Note_on_c, 4, 65, 77
6, 61244, Note_off_c, 4, 65, 64
6, 61244, Note_on_c, 4, 63, 72
6, 61608, Note_off_c, 4, 63, 64
6, 61616, Note_on_c, 4, 63, 67
6, 61812, Note_off_c, 4, 63, 64
6, 61816, Note_on_c, 4, 63, 72
6, 62016, Note_off_c, 4, 63, 64
6, 62020, Note_on_c, 4, 65, 67
6, 62196, Note_off_c, 4, 65, 64
6, 62196, Note_on_c, 4, 63, 67
6, 62384, Note_off_c, 4, 63, 64
6, 62384, Note_on_c, 4, 56, 54
6, 62588, Note_off_c, 4, 56, 64
6, 62596, Note_on_c, 4, 56, 77
6, 63536, Note_off_c, 4, 56, 64
6, 63548, Note_on_c, 4, 56, 67
6, 63744, Note_off_c, 4, 56, 64
6, 63744, Note_on_c, 4, 58, 72
6, 63920, Note_off_c, 4, 58, 64
6, 63920, Note_on_c, 4, 60, 61
6, 64128, Note_off_c, 4, 60, 64
6, 64132, Note_on_c, 4, 61, 67
6, 64316, Note_off_c, 4, 61, 64
6, 64316, Note_on_c, 4, 58, 77
6, 64708, Note_off_c, 4, 58, 64
6, 64712, Note_on_c, 4, 63, 67
6, 64912, Note_off_c, 4, 63, 64
6, 64912, Note_on_c, 4, 65, 72
6, 65092, Note_off_c, 4, 65, 64
6, 65092, Note_on_c, 4, 63, 67
6, 65660, Note_off_c, 4, 63, 64
6, 65664, Note_on_c, 4, 56, 67
6, 65760, Note_off_c, 4, 56, 64
6, 65760, Note_on_c, 4, 58, 67
6, 65844, Note_off_c, 4, 58, 64
6, 65844, Note_on_c, 4, 61, 58
6, 65924, Note_off_c, 4, 61, 64
6, 65924, Note_on_c, 4, 58, 58
6, 66048, Note_off_c, 4, 58, 64
6, 66048, Note_on_c, 4, 73, 64
6, 66048, Note_on_c, 4, 68, 64
6, 66048, Note_on_c, 4, 65, 83
6, 66048, Note_on_c, 4, 61, 48
6, 66328, Note_off_c, 4, 61, 64
6, 66328, Note_off_c, 4, 65, 64
6, 66328, Note_off_c, 4, 68, 64
6, 66328, Note_off_c, 4, 73, 64
6, 66336, Note_on_c, 4, 61, 40
6, 66336, Note_on_c, 4, 73, 69
6, 66336, Note_on_c, 4, 65, 80
6, 66336, Note_on_c, 4, 68, 64
6, 66616, Note_off_c, 4, 68, 64
6, 66620, Note_off_c, 4, 65, 64
6, 66620, Note_off_c, 4, 73, 64
6, 66620, Note_off_c, 4, 61, 64
6, 66624, Note_on_c, 4, 72, 69
6, 66624, Note_on_c, 4, 68, 64
6, 66624, Note_on_c, 4, 63, 69
6, 66624, Note_on_c, 4, 60, 48
6, 67196, Note_off_c, 4, 60, 64
6, 67196, Note_off_c, 4, 63, 64
6, 67196, Note_off_c, 4, 68, 64
6, 67196, Note_off_c, 4, 72, 64
6, 67200, Note_on_c, 4, 56, 64
6, 67296, Note_off_c, 4, 56, 64
6, 67296, Note_on_c, 4, 58, 55
6, 67392, Note_off_c, 4, 58, 64
6, 67392, Note_on_c, 4, 60, 58
6, 67488, Note_off_c, 4, 60, 64
6, 67488, Note_on_c, 4, 58, 55
6, 67584, Note_off_c, 4, 58, 64
6, 67584, Note_on_c, 4, 72, 64
6, 67584, Note_on_c, 4, 68, 64
6, 67584, Note_on_c, 4, 60, 42
6, 67584, Note_on_c, 4, 63, 69
6, 67864, Note_off_c, 4, 63, 64
6, 67864, Note_off_c, 4, 60, 64
6, 67864, Note_off_c, 4, 68, 64
6, 67864, Note_off_c, 4, 72, 64
6, 67872, Note_on_c, 4, 63, 64
6, 67872, Note_on_c, 4, 60, 33
6, 67872, Note_on_c, 4, 72, 58
6, 67872, Note_on_c, 4, 68, 55
6, 68156, Note_off_c, 4, 68, 64
6, 68156, Note_off_c, 4, 72, 64
6, 68156, Note_off_c, 4, 60, 64
6, 68156, Note_off_c, 4, 63, 64
6, 68160, Note_on_c, 4, 65, 74
6, 68160, Note_on_c, 4, 70, 69
6, 68160, Note_on_c, 4, 61, 64
6, 68444, Note_off_c, 4, 61, 64
6, 68448, Note_on_c, 4, 60, 48
6, 68544, Note_off_c, 4, 60, 64
6, 68544, Note_on_c, 4, 58, 55
6, 68732, Note_off_c, 4, 70, 64
6, 68732, Note_off_c, 4, 65, 64
6, 68736, Note_off_c, 4, 58, 64
6, 68740, Note_on_c, 4, 56, 64
6, 68856, Note_off_c, 4, 56, 64
6, 68860, Note_on_c, 4, 58, 51
6, 68972, Note_off_c, 4, 58, 64
6, 68972, Note_on_c, 4, 60, 51
6, 69052, Note_off_c, 4, 60, 64
6, 69052, Note_on_c, 4, 58, 55
6, 69148, Note_off_c, 4, 58, 64
6, 69148, Note_on_c, 4, 61, 64
6, 69496, Note_off_c, 4, 61, 64
6, 69500, Note_on_c, 4, 63, 55
6, 69700, Note_off_c, 4, 63, 64
6, 69704, Note_on_c, 4, 60, 64
6, 69888, Note_off_c, 4, 60, 64
6, 69888, Note_on_c, 4, 58, 51
6, 70080, Note_off_c, 4, 58, 64
6, 70080, Note_on_c, 4, 56, 55
6, 70456, Note_off_c, 4, 56, 64
6, 70464, Note_on_c, 4, 63, 51
6, 70464, Note_on_c, 4, 72, 64
6, 70464, Note_on_c, 4, 56, 55
6, 70464, Note_on_c, 4, 60, 58
6, 70652, Note_off_c, 4, 60, 64
6, 70652, Note_off_c, 4, 72, 64
6, 70652, Note_off_c, 4, 63, 64
6, 70656, Note_off_c, 4, 56, 64
6, 70656, Note_on_c, 4, 63, 64
6, 70656, Note_on_c, 4, 60, 69
6, 70656, Note_on_c, 4, 72, 69
6, 71036, Note_off_c, 4, 72, 64
6, 71036, Note_off_c, 4, 60, 64
6, 71036, Note_off_c, 4, 63, 64
6, 71040, Note_on_c, 4, 68, 69
6, 71040, Note_on_c, 4, 73, 55
6, 71040, Note_on_c, 4, 65, 69
6, 71040, Note_on_c, 4, 61, 64
6, 71800, Note_off_c, 4, 61, 64
6, 71800, Note_off_c, 4, 65, 64
6, 71800, Note_off_c, 4, 73, 64
6, 71800, Note_off_c, 4, 68, 64
6, 71808, Note_on_c, 4, 56, 64
6, 71904, Note_off_c, 4, 56, 64
6, 71904, Note_on_c, 4, 58, 55
6, 72000, Note_off_c, 4, 58, 64
6, 72000, Note_on_c, 4, 61, 55
6, 72096, Note_off_c, 4, 61, 64
6, 72096, Note_on_c, 4, 58, 55
6, 72192, Note_off_c, 4, 58, 64
6, 72192, Note_on_c, 4, 73, 64
6, 72192, Note_on_c, 4, 68, 64
6, 72192, Note_on_c, 4, 61, 48
6, 72192, Note_on_c, 4, 65, 80
6, 72472, Note_off_c, 4, 65, 64
6, 72472, Note_off_c, 4, 61, 64
6, 72472, Note_off_c, 4, 68, 64
6, 72472, Note_off_c, 4, 73, 64
6, 72480, Note_on_c, 4, 61, 48
6, 72480, Note_on_c, 4, 68, 64
6, 72480, Note_on_c, 4, 73, 64
6, 72480, Note_on_c, 4, 65, 80
6, 72760, Note_off_c, 4, 68, 64
6, 72764, Note_off_c, 4, 65, 64
6, 72764, Note_off_c, 4, 73, 64
6, 72764, Note_off_c, 4, 61, 64
6, 72768, Note_on_c, 4, 68, 69
6, 72768, Note_on_c, 4, 60, 58
6, 72768, Note_on_c, 4, 63, 69
6, 72768, Note_on_c, 4, 72, 69
6, 73340, Note_off_c, 4, 72, 64
6, 73340, Note_off_c, 4, 63, 64
6, 73340, Note_off_c, 4, 60, 64
6, 73340, Note_off_c, 4, 68, 64
6, 73344, Note_on_c, 4, 56, 64
6, 73440, Note_off_c, 4, 56, 64
6, 73440, Note_on_c, 4, 58, 55
6, 73536, Note_off_c, 4, 58, 64
6, 73536, Note_on_c, 4, 60, 51
6, 73632, Note_off_c, 4, 60, 64
6, 73632, Note_on_c, 4, 58, 64
6, 73728, Note_off_c, 4, 58, 64
6, 73728, Note_on_c, 4, 60, 55
6, 73728, Note_on_c, 4, 63, 69
6, 73728, Note_on_c, 4, 68, 69
6, 73728, Note_on_c, 4, 72, 69
6, 74104, Note_off_c, 4, 72, 64
6, 74104, Note_off_c, 4, 63, 64
6, 74104, Note_off_c, 4, 60, 64
6, 74108, Note_off_c, 4, 68, 64
6, 74112, Note_on_c, 4, 60, 58
6, 74112, Note_on_c, 4, 72, 64
6, 74112, Note_on_c, 4, 63, 64
6, 74304, Note_off_c, 4, 63, 64
6, 74304, Note_off_c, 4, 72, 64
6, 74304, Note_off_c, 4, 60, 64
6, 74304, Note_on_c, 4, 65, 64
6, 74304, Note_on_c, 4, 73, 64
6, 74304, Note_on_c, 4, 61, 64
6, 74496, Note_off_c, 4, 61, 64
6, 74496, Note_off_c, 4, 73, 64
6, 74496, Note_off_c, 4, 65, 64
6, 74496, Note_on_c, 4, 60, 26
6, 74496, Note_on_c, 4, 72, 51
6, 74496, Note_on_c, 4, 63, 51
6, 74592, Note_off_c, 4, 63, 64
6, 74592, Note_off_c, 4, 72, 64
6, 74592, Note_off_c, 4, 60, 64
6, 74592, Note_on_c, 4, 58, 64
6, 74592, Note_on_c, 4, 61, 51
6, 74592, Note_on_c, 4, 70, 51
6, 74876, Note_off_c, 4, 70, 64
6, 74876, Note_off_c, 4, 61, 64
6, 74876, Note_off_c, 4, 58, 64
6, 74880, Note_on_c, 4, 56, 64
6, 74976, Note_off_c, 4, 56, 64
6, 74976, Note_on_c, 4, 58, 55
6, 75072, Note_off_c, 4, 58, 64
6, 75072, Note_on_c, 4, 60, 51
6, 75168, Note_off_c, 4, 60, 64
6, 75168, Note_on_c, 4, 58, 64
6, 75292, Note_off_c, 4, 58, 64
6, 75292, Note_on_c, 4, 61, 69
6, 75672, Note_off_c, 4, 61, 64
6, 75676, Note_on_c, 4, 63, 55
6, 75856, Note_off_c, 4, 63, 64
6, 75856, Note_on_c, 4, 60, 58
6, 76180, Note_off_c, 4, 60, 64
6, 76184, Note_on_c, 4, 58, 48
6, 76288, Note_off_c, 4, 58, 64
6, 76288, Note_on_c, 4, 56, 55
6, 76612, Note_off_c, 4, 56, 64
6, 76620, Note_on_c, 4, 56, 69
6, 76800, Note_off_c, 4, 56, 64
6, 76800, Note_on_c, 4, 72, 69
6, 76800, Note_on_c, 4, 63, 69
6, 76800, Note_on_c, 4, 60, 55
6, 77180, Note_off_c, 4, 60, 64
6, 77180, Note_off_c, 4, 63, 64
6, 77180, Note_off_c, 4, 72, 64
6, 77184, Note_on_c, 4, 65, 69
6, 77184, Note_on_c, 4, 73, 64
6, 77184, Note_on_c, 4, 68, 64
6, 77184, Note_on_c, 4, 61, 64
6, 77944, Note_off_c, 4, 61, 64
6, 77944, Note_off_c, 4, 68, 64
6, 77944, Note_off_c, 4, 73, 64
6, 77944, Note_off_c, 4, 65, 64
6, 77952, Note_on_c, 4, 56, 64
6, 78048, Note_off_c, 4, 56, 64
6, 78048, Note_on_c, 4, 58, 64
6, 78144, Note_off_c, 4, 58, 64
6, 78144, Note_on_c, 4, 61, 55
6, 78240, Note_off_c, 4, 61, 64
6, 78240, Note_on_c, 4, 58, 55
6, 78336, Note_off_c, 4, 58, 64
6, 78336, Note_on_c, 4, 73, 64
6, 78336, Note_on_c, 4, 68, 64
6, 78336, Note_on_c, 4, 65, 80
6, 78336, Note_on_c, 4, 61, 48
6, 78616, Note_off_c, 4, 61, 64
6, 78616, Note_off_c, 4, 65, 64
6, 78616, Note_off_c, 4, 68, 64
6, 78616, Note_off_c, 4, 73, 64
6, 78624, Note_on_c, 4, 61, 40
6, 78624, Note_on_c, 4, 65, 80
6, 78624, Note_on_c, 4, 68, 64
6, 78624, Note_on_c, 4, 73, 69
6, 78904, Note_off_c, 4, 68, 64
6, 78908, Note_off_c, 4, 73, 64
6, 78908, Note_off_c, 4, 65, 64
6, 78908, Note_off_c, 4, 61, 64
6, 78912, Note_on_c, 4, 72, 69
6, 78912, Note_on_c, 4, 68, 64
6, 78912, Note_on_c, 4, 63, 69
6, 78912, Note_on_c, 4, 60, 48
6, 79484, Note_off_c, 4, 60, 64
6, 79484, Note_off_c, 4, 63, 64
6, 79484, Note_off_c, 4, 68, 64
6, 79484, Note_off_c, 4, 72, 64
6, 79488, Note_on_c, 4, 56, 64
6, 79584, Note_off_c, 4, 56, 64
6, 79584, Note_on_c, 4, 58, 55
6, 79680, Note_off_c, 4, 58, 64
6, 79680, Note_on_c, 4, 60, 58
6, 79776, Note_off_c, 4, 60, 64
6, 79776, Note_on_c, 4, 58, 55
6, 79872, Note_off_c, 4, 58, 64
6, 79872, Note_on_c, 4, 60, 42
6, 79872, Note_on_c, 4, 72, 64
6, 79872, Note_on_c, 4, 68, 64
6, 79872, Note_on_c, 4, 63, 69
6, 80152, Note_off_c, 4, 63, 64
6, 80152, Note_off_c, 4, 68, 64
6, 80152, Note_off_c, 4, 72, 64
6, 80152, Note_off_c, 4, 60, 64
6, 80160, Note_on_c, 4, 63, 64
6, 80160, Note_on_c, 4, 60, 33
6, 80160, Note_on_c, 4, 72, 58
6, 80160, Note_on_c, 4, 68, 55
6, 80444, Note_off_c, 4, 68, 64
6, 80444, Note_off_c, 4, 72, 64
6, 80444, Note_off_c, 4, 60, 64
6, 80444, Note_off_c, 4, 63, 64
6, 80448, Note_on_c, 4, 65, 74
6, 80448, Note_on_c, 4, 70, 69
6, 80448, Note_on_c, 4, 61, 64
6, 80732, Note_off_c, 4, 61, 64
6, 80736, Note_on_c, 4, 60, 48
6, 80832, Note_off_c, 4, 60, 64
6, 80832, Note_on_c, 4, 58, 55
6, 81020, Note_off_c, 4, 70, 64
6, 81020, Note_off_c, 4, 65, 64
6, 81024, Note_off_c, 4, 58, 64
6, 81036, Note_on_c, 4, 56, 64
6, 81148, Note_off_c, 4, 56, 64
6, 81148, Note_on_c, 4, 58, 51
6, 81260, Note_off_c, 4, 58, 64
6, 81260, Note_on_c, 4, 60, 51
6, 81340, Note_off_c, 4, 60, 64
6, 81340, Note_on_c, 4, 58, 55
6, 81436, Note_off_c, 4, 58, 64
6, 81436, Note_on_c, 4, 61, 64
6, 81784, Note_off_c, 4, 61, 64
6, 81788, Note_on_c, 4, 63, 55
6, 81988, Note_off_c, 4, 63, 64
6, 81992, Note_on_c, 4, 60, 64
6, 82176, Note_off_c, 4, 60, 64
6, 82176, Note_on_c, 4, 58, 51
6, 82368, Note_off_c, 4, 58, 64
6, 82368, Note_on_c, 4, 56, 55
6, 82744, Note_off_c, 4, 56, 64
6, 82752, Note_on_c, 4, 63, 51
6, 82752, Note_on_c, 4, 56, 55
6, 82752, Note_on_c, 4, 72, 64
6, 82752, Note_on_c, 4, 60, 58
6, 82940, Note_off_c, 4, 60, 64
6, 82940, Note_off_c, 4, 72, 64
6, 82940, Note_off_c, 4, 63, 64
6, 82944, Note_off_c, 4, 56, 64
6, 82944, Note_on_c, 4, 72, 69
6, 82944, Note_on_c, 4, 63, 64
6, 82944, Note_on_c, 4, 60, 69
6, 83324, Note_off_c, 4, 60, 64
6, 83324, Note_off_c, 4, 63, 64
6, 83324, Note_off_c, 4, 72, 64
6, 83328, Note_on_c, 4, 73, 55
6, 83328, Note_on_c, 4, 68, 69
6, 83328, Note_on_c, 4, 65, 69
6, 83328, Note_on_c, 4, 61, 64
6, 84088, Note_off_c, 4, 61, 64
6, 84088, Note_off_c, 4, 65, 64
6, 84088, Note_off_c, 4, 68, 64
6, 84088, Note_off_c, 4, 73, 64
6, 84096, Note_on_c, 4, 56, 64
6, 84192, Note_off_c, 4, 56, 64
6, 84192, Note_on_c, 4, 58, 55
6, 84288, Note_off_c, 4, 58, 64
6, 84288, Note_on_c, 4, 61, 55
6, 84384, Note_off_c, 4, 61, 64
6, 84384, Note_on_c, 4, 58, 55
6, 84480, Note_off_c, 4, 58, 64
6, 84480, Note_on_c, 4, 73, 64
6, 84480, Note_on_c, 4, 61, 48
6, 84480, Note_on_c, 4, 68, 64
6, 84480, Note_on_c, 4, 65, 80
6, 84760, Note_off_c, 4, 65, 64
6, 84760, Note_off_c, 4, 68, 64
6, 84760, Note_off_c, 4, 61, 64
6, 84760, Note_off_c, 4, 73, 64
6, 84768, Note_on_c, 4, 68, 64
6, 84768, Note_on_c, 4, 61, 48
6, 84768, Note_on_c, 4, 73, 64
6, 84768, Note_on_c, 4, 65, 80
6, 85048, Note_off_c, 4, 68, 64
6, 85052, Note_off_c, 4, 65, 64
6, 85052, Note_off_c, 4, 73, 64
6, 85052, Note_off_c, 4, 61, 64
6, 85056, Note_on_c, 4, 68, 69
6, 85056, Note_on_c, 4, 60, 58
6, 85056, Note_on_c, 4, 63, 69
6, 85056, Note_on_c, 4, 72, 69
6, 85628, Note_off_c, 4, 72, 64
6, 85628, Note_off_c, 4, 63, 64
6, 85628, Note_off_c, 4, 60, 64
6, 85628, Note_off_c, 4, 68, 64
6, 85632, Note_on_c, 4, 56, 64
6, 85728, Note_off_c, 4, 56, 64
6, 85728, Note_on_c, 4, 58, 55
6, 85824, Note_off_c, 4, 58, 64
6, 85824, Note_on_c, 4, 60, 51
6, 85920, Note_off_c, 4, 60, 64
6, 85920, Note_on_c, 4, 58, 64
6, 86016, Note_off_c, 4, 58, 64
6, 86016, Note_on_c, 4, 60, 55
6, 86016, Note_on_c, 4, 63, 69
6, 86016, Note_on_c, 4, 68, 69
6, 86016, Note_on_c, 4, 72, 69
6, 86392, Note_off_c, 4, 72, 64
6, 86392, Note_off_c, 4, 63, 64
6, 86392, Note_off_c, 4, 60, 64
6, 86396, Note_off_c, 4, 68, 64
6, 86400, Note_on_c, 4, 60, 58
6, 86400, Note_on_c, 4, 72, 64
6, 86400, Note_on_c, 4, 63, 64
6, 86592, Note_off_c, 4, 63, 64
6, 86592, Note_off_c, 4, 72, 64
6, 86592, Note_off_c, 4, 60, 64
6, 86592, Note_on_c, 4, 65, 64
6, 86592, Note_on_c, 4, 73, 64
6, 86592, Note_on_c, 4, 61, 64
6, 86784, Note_off_c, 4, 61, 64
6, 86784, Note_off_c, 4, 73, 64
6, 86784, Note_off_c, 4, 65, 64
6, 86784, Note_on_c, 4, 60, 26
6, 86784, Note_on_c, 4, 72, 51
6, 86784, Note_on_c, 4, 63, 51
6, 86880, Note_off_c, 4, 63, 64
6, 86880, Note_off_c, 4, 72, 64
6, 86880, Note_off_c, 4, 60, 64
6, 86880, Note_on_c, 4, 58, 64
6, 86880, Note_on_c, 4, 61, 51
6, 86880, Note_on_c, 4, 70, 51
6, 87164, Note_off_c, 4, 70, 64
6, 87164, Note_off_c, 4, 61, 64
6, 87164, Note_off_c, 4, 58, 64
6, 87168, Note_on_c, 4, 56, 64
6, 87236, Note_on_c, 4, 58, 55
6, 87264, Note_off_c, 4, 56, 64
6, 87348, Note_off_c, 4, 58, 64
6, 87348, Note_on_c, 4, 60, 51
6, 87448, Note_off_c, 4, 60, 64
6, 87448, Note_on_c, 4, 58, 64
6, 87580, Note_off_c, 4, 58, 64
6, 87580, Note_on_c, 4, 61, 69
6, 87960, Note_off_c, 4, 61, 64
6, 87964, Note_on_c, 4, 63, 55
6, 88144, Note_off_c, 4, 63, 64
6, 88144, Note_on_c, 4, 60, 58
6, 88468, Note_off_c, 4, 60, 64
6, 88472, Note_on_c, 4, 58, 48
6, 88576, Note_off_c, 4, 58, 64
6, 88576, Note_on_c, 4, 56, 55
6, 88900, Note_off_c, 4, 56, 64
6, 88908, Note_on_c, 4, 56, 69
6, 89084, Note_off_c, 4, 56, 64
6, 89088, Note_on_c, 4, 60, 55
6, 89088, Note_on_c, 4, 63, 69
6, 89088, Note_on_c, 4, 72, 69
6, 89468, Note_off_c, 4, 72, 64
6, 89468, Note_off_c, 4, 63, 64
6, 89468, Note_off_c, 4, 60, 64
6, 89472, Note_on_c, 4, 65, 69
6, 89472, Note_on_c, 4, 73, 64
6, 89472, Note_on_c, 4, 68, 64
6, 89472, Note_on_c, 4, 61, 64
6, 90612, Note_off_c, 4, 61, 64
6, 90612, Note_off_c, 4, 68, 64
6, 90612, Note_off_c, 4, 73, 64
6, 90612, Note_off_c, 4, 65, 64
6, 92160, Note_on_c, 4, 73, 64
6, 92160, Note_on_c, 4, 68, 43
6, 92160, Note_on_c, 4, 70, 54
6, 92160, Note_on_c, 4, 65, 43
6, 92440, Note_off_c, 4, 65, 64
6, 92440, Note_off_c, 4, 70, 64
6, 92440, Note_off_c, 4, 68, 64
6, 92440, Note_off_c, 4, 73, 64
6, 92448, Note_on_c, 4, 70, 49
6, 92448, Note_on_c, 4, 73, 64
6, 92448, Note_on_c, 4, 65, 44
6, 92448, Note_on_c, 4, 68, 43
6, 92728, Note_off_c, 4, 68, 64
6, 92732, Note_off_c, 4, 65, 64
6, 92732, Note_off_c, 4, 73, 64
6, 92732, Note_off_c, 4, 70, 64
6, 92736, Note_on_c, 4, 68, 49
6, 92736, Note_on_c, 4, 72, 55
6, 92736, Note_on_c, 4, 63, 44
6, 93272, Note_off_c, 4, 63, 64
6, 93272, Note_off_c, 4, 72, 64
6, 93272, Note_off_c, 4, 68, 64
6, 95232, Note_on_c, 4, 73, 64
6, 95232, Note_on_c, 4, 68, 43
6, 95232, Note_on_c, 4, 70, 54
6, 95232, Note_on_c, 4, 65, 43
6, 95512, Note_off_c, 4, 65, 64
6, 95512, Note_off_c, 4, 70, 64
6, 95512, Note_off_c, 4, 68, 64
6, 95512, Note_off_c, 4, 73, 64
6, 95520, Note_on_c, 4, 70, 49
6, 95520, Note_on_c, 4, 73, 64
6, 95520, Note_on_c, 4, 65, 44
6, 95520, Note_on_c, 4, 68, 43
6, 95800, Note_off_c, 4, 68, 64
6, 95804, Note_off_c, 4, 65, 64
6, 95804, Note_off_c, 4, 73, 64
6, 95804, Note_off_c, 4, 70, 64
6, 95808, Note_on_c, 4, 68, 49
6, 95808, Note_on_c, 4, 72, 55
6, 95808, Note_on_c, 4, 63, 44
6, 96344, Note_off_c, 4, 63, 64
6, 96344, Note_off_c, 4, 72, 64
6, 96344, Note_off_c, 4, 68, 64
6, 96976, Note_on_c, 4, 56, 64
6, 97048, Note_off_c, 4, 56, 64
6, 97048, Note_on_c, 4, 58, 55
6, 97148, Note_off_c, 4, 58, 64
6, 97148, Note_on_c, 4, 61, 51
6, 97240, Note_off_c, 4, 61, 64
6, 97240, Note_on_c, 4, 58, 64
6, 97356, Note_off_c, 4, 58, 64
6, 97356, Note_on_c, 4, 65, 74
6, 97540, Note_off_c, 4, 65, 64
6, 97540, Note_on_c, 4, 56, 55
6, 97636, Note_off_c, 4, 56, 64
6, 97636, Note_on_c, 4, 58, 55
6, 97732, Note_off_c, 4, 58, 64
6, 97732, Note_on_c, 4, 61, 64
6, 97816, Note_off_c, 4, 61, 64
6, 97816, Note_on_c, 4, 58, 69
6, 97908, Note_off_c, 4, 58, 64
6, 97908, Note_on_c, 4, 65, 80
6, 98296, Note_off_c, 4, 65, 64
6, 98304, Note_on_c, 4, 73, 64
6, 98304, Note_on_c, 4, 68, 43
6, 98304, Note_on_c, 4, 70, 54
6, 98304, Note_on_c, 4, 65, 43
6, 98584, Note_off_c, 4, 65, 64
6, 98584, Note_off_c, 4, 70, 64
6, 98584, Note_off_c, 4, 68, 64
6, 98584, Note_off_c, 4, 73, 64
6, 98592, Note_on_c, 4, 68, 43
6, 98592, Note_on_c, 4, 73, 64
6, 98592, Note_on_c, 4, 65, 44
6, 98592, Note_on_c, 4, 70, 49
6, 98872, Note_off_c, 4, 68, 64
6, 98876, Note_off_c, 4, 70, 64
6, 98876, Note_off_c, 4, 65, 64
6, 98876, Note_off_c, 4, 73, 64
6, 98880, Note_on_c, 4, 68, 49
6, 98880, Note_on_c, 4, 72, 55
6, 98880, Note_on_c, 4, 63, 44
6, 99416, Note_off_c, 4, 63, 64
6, 99416, Note_off_c, 4, 72, 64
6, 99416, Note_off_c, 4, 68, 64
6, 100048, Note_on_c, 4, 56, 64
6, 100120, Note_off_c, 4, 56, 64
6, 100120, Note_on_c, 4, 58, 55
6, 100220, Note_off_c, 4, 58, 64
6, 100220, Note_on_c, 4, 61, 51
6, 100312, Note_off_c, 4, 61, 64
6, 100312, Note_on_c, 4, 58, 64
6, 100428, Note_off_c, 4, 58, 64
6, 100428, Note_on_c, 4, 65, 74
6, 100612, Note_off_c, 4, 65, 64
6, 100612, Note_on_c, 4, 56, 55
6, 100708, Note_off_c, 4, 56, 64
6, 100708, Note_on_c, 4, 58, 55
6, 100804, Note_off_c, 4, 58, 64
6, 100804, Note_on_c, 4, 61, 64
6, 100888, Note_off_c, 4, 61, 64
6, 100888, Note_on_c, 4, 58, 69
6, 100980, Note_off_c, 4, 58, 64
6, 100980, Note_on_c, 4, 65, 80
6, 101368, Note_off_c, 4, 65, 64
6, 101376, Note_on_c, 4, 65, 43
6, 101376, Note_on_c, 4, 73, 64
6, 101376, Note_on_c, 4, 68, 43
6, 101376, Note_on_c, 4, 70, 54
6, 101656, Note_off_c, 4, 70, 64
6, 101656, Note_off_c, 4, 68, 64
6, 101656, Note_off_c, 4, 73, 64
6, 101656, Note_off_c, 4, 65, 64
6, 101664, Note_on_c, 4, 70, 49
6, 101664, Note_on_c, 4, 73, 64
6, 101664, Note_on_c, 4, 65, 44
6, 101664, Note_on_c, 4, 68, 43
6, 101944, Note_off_c, 4, 68, 64
6, 101948, Note_off_c, 4, 65, 64
6, 101948, Note_off_c, 4, 73, 64
6, 101948, Note_off_c, 4, 70, 64
6, 101952, Note_on_c, 4, 68, 49
6, 101952, Note_on_c, 4, 72, 55
6, 101952, Note_on_c, 4, 63, 44
6, 102904, Note_off_c, 4, 63, 64
6, 102904, Note_off_c, 4, 72, 64
6, 102904, Note_off_c, 4, 68, 64
6, 103092, Note_on_c, 4, 61, 58
6, 103280, Note_off_c, 4, 61, 64
6, 103284, Note_on_c, 4, 61, 67
6, 103472, Note_off_c, 4, 61, 64
6, 103472, Note_on_c, 4, 58, 67
6, 103672, Note_off_c, 4, 58, 64
6, 103672, Note_on_c, 4, 61, 67
6, 103860, Note_off_c, 4, 61, 64
6, 103860, Note_on_c, 4, 63, 67
6, 104620, Note_off_c, 4, 63, 64
6, 104628, Note_on_c, 4, 60, 61
6, 104820, Note_off_c, 4, 60, 64
6, 104820, Note_on_c, 4, 58, 58
6, 105020, Note_off_c, 4, 58, 64
6, 105024, Note_on_c, 4, 60, 54
6, 105120, Note_off_c, 4, 60, 64
6, 105120, Note_on_c, 4, 58, 51
6, 105224, Note_off_c, 4, 58, 64
6, 105224, Note_on_c, 4, 56, 54
6, 106140, Note_off_c, 4, 56, 64
6, 106148, Note_on_c, 4, 58, 67
6, 106348, Note_off_c, 4, 58, 64
6, 106352, Note_on_c, 4, 58, 72
6, 106548, Note_off_c, 4, 58, 64
6, 106548, Note_on_c, 4, 60, 61
6, 106748, Note_off_c, 4, 60, 64
6, 106748, Note_on_c, 4, 61, 58
6, 106932, Note_off_c, 4, 61, 64
6, 106932, Note_on_c, 4, 58, 67
6, 107132, Note_off_c, 4, 58, 64
6, 107132, Note_on_c, 4, 56, 67
6, 107700, Note_off_c, 4, 56, 64
6, 107704, Note_on_c, 4, 68, 72
6, 107904, Note_off_c, 4, 68, 64
6, 107912, Note_on_c, 4, 68, 72
6, 108112, Note_off_c, 4, 68, 64
6, 108116, Note_on_c, 4, 63, 67
6, 108484, Note_off_c, 4, 63, 64
6, 108488, Note_on_c, 4, 65, 77
6, 108672, Note_off_c, 4, 65, 64
6, 108672, Note_on_c, 4, 63, 58
6, 108856, Note_off_c, 4, 63, 64
6, 108856, Note_on_c, 4, 61, 58
6, 109228, Note_off_c, 4, 61, 64
6, 109236, Note_on_c, 4, 61, 58
6, 109424, Note_off_c, 4, 61, 64
6, 109428, Note_on_c, 4, 61, 58
6, 109612, Note_off_c, 4, 61, 64
6, 109612, Note_on_c, 4, 58, 58
6, 109804, Note_off_c, 4, 58, 64
6, 109804, Note_on_c, 4, 61, 67
6, 110000, Note_off_c, 4, 61, 64
6, 110000, Note_on_c, 4, 58, 67
6, 110200, Note_off_c, 4, 58, 64
6, 110200, Note_on_c, 4, 61, 67
6, 110408, Note_off_c, 4, 61, 64
6, 110412, Note_on_c, 4, 63, 67
6, 110788, Note_off_c, 4, 63, 64
6, 110792, Note_on_c, 4, 60, 67
6, 110980, Note_off_c, 4, 60, 64
6, 110980, Note_on_c, 4, 58, 58
6, 111168, Note_off_c, 4, 58, 64
6, 111168, Note_on_c, 4, 60, 54
6, 111252, Note_off_c, 4, 60, 64
6, 111252, Note_on_c, 4, 58, 54
6, 111344, Note_off_c, 4, 58, 64
6, 111344, Note_on_c, 4, 56, 58
6, 112300, Note_off_c, 4, 56, 64
6, 112308, Note_on_c, 4, 58, 67
6, 112488, Note_off_c, 4, 58, 64
6, 112492, Note_on_c, 4, 58, 58
6, 112692, Note_off_c, 4, 58, 64
6, 112692, Note_on_c, 4, 60, 58
6, 112892, Note_off_c, 4, 60, 64
6, 112892, Note_on_c, 4, 61, 58
6, 113080, Note_off_c, 4, 61, 64
6, 113080, Note_on_c, 4, 58, 67
6, 113276, Note_off_c, 4, 58, 64
6, 113276, Note_on_c, 4, 56, 72
6, 113860, Note_off_c, 4, 56, 64
6, 113864, Note_on_c, 4, 63, 58
6, 114072, Note_off_c, 4, 63, 64
6, 114076, Note_on_c, 4, 65, 72
6, 114264, Note_off_c, 4, 65, 64
6, 114268, Note_on_c, 4, 65, 77
6, 114624, Note_off_c, 4, 65, 64
6, 114628, Note_on_c, 4, 63, 72
6, 115200, Note_off_c, 4, 63, 64
6, 115204, Note_on_c, 4, 61, 67
6, 116144, Note_off_c, 4, 61, 64
6, 116152, Note_on_c, 4, 63, 67
6, 116348, Note_off_c, 4, 63, 64
6, 116348, Note_on_c, 4, 65, 72
6, 116540, Note_off_c, 4, 65, 64
6, 116540, Note_on_c, 4, 61, 58
6, 116732, Note_off_c, 4, 61, 64
6, 116732, Note_on_c, 4, 63, 58
6, 116932, Note_off_c, 4, 63, 64
6, 116936, Note_on_c, 4, 63, 72
6, 117104, Note_off_c, 4, 63, 64
6, 117108, Note_on_c, 4, 63, 72
6, 117304, Note_off_c, 4, 63, 64
6, 117304, Note_on_c, 4, 65, 67
6, 117488, Note_off_c, 4, 65, 64
6, 117488, Note_on_c, 4, 63, 67
6, 117672, Note_off_c, 4, 63, 64
6, 117672, Note_on_c, 4, 56, 58
6, 117880, Note_off_c, 4, 56, 64
6, 117888, Note_on_c, 4, 56, 77
6, 119028, Note_off_c, 4, 56, 64
6, 119040, Note_on_c, 4, 58, 72
6, 119224, Note_off_c, 4, 58, 64
6, 119224, Note_on_c, 4, 60, 61
6, 119420, Note_off_c, 4, 60, 64
6, 119420, Note_on_c, 4, 61, 67
6, 119612, Note_off_c, 4, 61, 64
6, 119612, Note_on_c, 4, 58, 77
6, 120008, Note_off_c, 4, 58, 64
6, 120012, Note_on_c, 4, 63, 67
6, 120208, Note_off_c, 4, 63, 64
6, 120208, Note_on_c, 4, 65, 72
6, 120384, Note_off_c, 4, 65, 64
6, 120384, Note_on_c, 4, 63, 67
6, 120956, Note_off_c, 4, 63, 64
6, 120960, Note_on_c, 4, 56, 67
6, 121056, Note_off_c, 4, 56, 64
6, 121056, Note_on_c, 4, 58, 67
6, 121140, Note_off_c, 4, 58, 64
6, 121140, Note_on_c, 4, 61, 58
6, 121220, Note_off_c, 4, 61, 64
6, 121220, Note_on_c, 4, 58, 58
6, 121344, Note_off_c, 4, 58, 64
6, 121344, Note_on_c, 4, 73, 64
6, 121344, Note_on_c, 4, 68, 64
6, 121344, Note_on_c, 4, 65, 83
6, 121344, Note_on_c, 4, 61, 48
6, 121624, Note_off_c, 4, 61, 64
6, 121624, Note_off_c, 4, 65, 64
6, 121624, Note_off_c, 4, 68, 64
6, 121624, Note_off_c, 4, 73, 64
6, 121632, Note_on_c, 4, 61, 40
6, 121632, Note_on_c, 4, 73, 69
6, 121632, Note_on_c, 4, 65, 80
6, 121632, Note_on_c, 4, 68, 64
6, 121912, Note_off_c, 4, 68, 64
6, 121916, Note_off_c, 4, 65, 64
6, 121916, Note_off_c, 4, 73, 64
6, 121916, Note_off_c, 4, 61, 64
6, 121920, Note_on_c, 4, 72, 69
6, 121920, Note_on_c, 4, 68, 64
6, 121920, Note_on_c, 4, 63, 69
6, 121920, Note_on_c, 4, 60, 48
6, 122492, Note_off_c, 4, 60, 64
6, 122492, Note_off_c, 4, 63, 64
6, 122492, Note_off_c, 4, 68, 64
6, 122492, Note_off_c, 4, 72, 64
6, 122496, Note_on_c, 4, 56, 64
6, 122592, Note_off_c, 4, 56, 64
6, 122592, Note_on_c, 4, 58, 55
6, 122688, Note_off_c, 4, 58, 64
6, 122688, Note_on_c, 4, 60, 58
6, 122784, Note_off_c, 4, 60, 64
6, 122784, Note_on_c, 4, 58, 55
6, 122880, Note_off_c, 4, 58, 64
6, 122880, Note_on_c, 4, 72, 64
6, 122880, Note_on_c, 4, 68, 64
6, 122880, Note_on_c, 4, 60, 42
6, 122880, Note_on_c, 4, 63, 69
6, 123160, Note_off_c, 4, 63, 64
6, 123160, Note_off_c, 4, 60, 64
6, 123160, Note_off_c, 4, 68, 64
6, 123160, Note_off_c, 4, 72, 64
6, 123168, Note_on_c, 4, 63, 64
6, 123168, Note_on_c, 4, 60, 33
6, 123168, Note_on_c, 4, 72, 58
6, 123168, Note_on_c, 4, 68, 55
6, 123452, Note_off_c, 4, 68, 64
6, 123452, Note_off_c, 4, 72, 64
6, 123452, Note_off_c, 4, 60, 64
6, 123452, Note_off_c, 4, 63, 64
6, 123456, Note_on_c, 4, 65, 74
6, 123456, Note_on_c, 4, 70, 69
6, 123456, Note_on_c, 4, 61, 64
6, 123740, Note_off_c, 4, 61, 64
6, 123744, Note_on_c, 4, 60, 48
6, 123840, Note_off_c, 4, 60, 64
6, 123840, Note_on_c, 4, 58, 55
6, 124028, Note_off_c, 4, 70, 64
6, 124028, Note_off_c, 4, 65, 64
6, 124032, Note_off_c, 4, 58, 64
6, 124036, Note_on_c, 4, 56, 64
6, 124152, Note_off_c, 4, 56, 64
6, 124156, Note_on_c, 4, 58, 51
6, 124268, Note_off_c, 4, 58, 64
6, 124268, Note_on_c, 4, 60, 51
6, 124348, Note_off_c, 4, 60, 64
6, 124348, Note_on_c, 4, 58, 55
6, 124444, Note_off_c, 4, 58, 64
6, 124444, Note_on_c, 4, 61, 64
6, 124792, Note_off_c, 4, 61, 64
6, 124796, Note_on_c, 4, 63, 55
6, 124996, Note_off_c, 4, 63, 64
6, 125000, Note_on_c, 4, 60, 64
6, 125184, Note_off_c, 4, 60, 64
6, 125184, Note_on_c, 4, 58, 51
6, 125376, Note_off_c, 4, 58, 64
6, 125376, Note_on_c, 4, 56, 55
6, 125752, Note_off_c, 4, 56, 64
6, 125760, Note_on_c, 4, 63, 51
6, 125760, Note_on_c, 4, 72, 64
6, 125760, Note_on_c, 4, 56, 55
6, 125760, Note_on_c, 4, 60, 58
6, 125948, Note_off_c, 4, 60, 64
6, 125948, Note_off_c, 4, 72, 64
6, 125948, Note_off_c, 4, 63, 64
6, 125952, Note_off_c, 4, 56, 64
6, 125952, Note_on_c, 4, 63, 64
6, 125952, Note_on_c, 4, 60, 69
6, 125952, Note_on_c, 4, 72, 69
6, 126332, Note_off_c, 4, 72, 64
6, 126332, Note_off_c, 4, 60, 64
6, 126332, Note_off_c, 4, 63, 64
6, 126336, Note_on_c, 4, 68, 69
6, 126336, Note_on_c, 4, 73, 55
6, 126336, Note_on_c, 4, 65, 69
6, 126336, Note_on_c, 4, 61, 64
6, 127096, Note_off_c, 4, 61, 64
6, 127096, Note_off_c, 4, 65, 64
6, 127096, Note_off_c, 4, 73, 64
6, 127096, Note_off_c, 4, 68, 64
6, 127104, Note_on_c, 4, 56, 64
6, 127200, Note_off_c, 4, 56, 64
6, 127200, Note_on_c, 4, 58, 55
6, 127296, Note_off_c, 4, 58, 64
6, 127296, Note_on_c, 4, 61, 55
6, 127392, Note_off_c, 4, 61, 64
6, 127392, Note_on_c, 4, 58, 55
6, 127488, Note_off_c, 4, 58, 64
6, 127488, Note_on_c, 4, 73, 64
6, 127488, Note_on_c, 4, 68, 64
6, 127488, Note_on_c, 4, 61, 48
6, 127488, Note_on_c, 4, 65, 80
6, 127768, Note_off_c, 4, 65, 64
6, 127768, Note_off_c, 4, 61, 64
6, 127768, Note_off_c, 4, 68, 64
6, 127768, Note_off_c, 4, 73, 64
6, 127776, Note_on_c, 4, 61, 48
6, 127776, Note_on_c, 4, 68, 64
6, 127776, Note_on_c, 4, 73, 64
6, 127776, Note_on_c, 4, 65, 80
6, 128056, Note_off_c, 4, 68, 64
6, 128060, Note_off_c, 4, 65, 64
6, 128060, Note_off_c, 4, 73, 64
6, 128060, Note_off_c, 4, 61, 64
6, 128064, Note_on_c, 4, 68, 69
6, 128064, Note_on_c, 4, 60, 58
6, 128064, Note_on_c, 4, 63, 69
6, 128064, Note_on_c, 4, 72, 69
6, 128636, Note_off_c, 4, 72, 64
6, 128636, Note_off_c, 4, 63, 64
6, 128636, Note_off_c, 4, 60, 64
6, 128636, Note_off_c, 4, 68, 64
6, 128640, Note_on_c, 4, 56, 64
6, 128736, Note_off_c, 4, 56, 64
6, 128736, Note_on_c, 4, 58, 55
6, 128832, Note_off_c, 4, 58, 64
6, 128832, Note_on_c, 4, 60, 51
6, 128928, Note_off_c, 4, 60, 64
6, 128928, Note_on_c, 4, 58, 64
6, 129024, Note_off_c, 4, 58, 64
6, 129024, Note_on_c, 4, 60, 55
6, 129024, Note_on_c, 4, 63, 69
6, 129024, Note_on_c, 4, 68, 69
6, 129024, Note_on_c, 4, 72, 69
6, 129400, Note_off_c, 4, 72, 64
6, 129400, Note_off_c, 4, 63, 64
6, 129400, Note_off_c, 4, 60, 64
6, 129404, Note_off_c, 4, 68, 64
6, 129408, Note_on_c, 4, 60, 58
6, 129408, Note_on_c, 4, 72, 64
6, 129408, Note_on_c, 4, 63, 64
6, 129600, Note_off_c, 4, 63, 64
6, 129600, Note_off_c, 4, 72, 64
6, 129600, Note_off_c, 4, 60, 64
6, 129600, Note_on_c, 4, 65, 64
6, 129600, Note_on_c, 4, 73, 64
6, 129600, Note_on_c, 4, 61, 64
6, 129792, Note_off_c, 4, 61, 64
6, 129792, Note_off_c, 4, 73, 64
6, 129792, Note_off_c, 4, 65, 64
6, 129792, Note_on_c, 4, 60, 26
6, 129792, Note_on_c, 4, 72, 51
6, 129792, Note_on_c, 4, 63, 51
6, 129888, Note_off_c, 4, 63, 64
6, 129888, Note_off_c, 4, 72, 64
6, 129888, Note_off_c, 4, 60, 64
6, 129888, Note_on_c, 4, 58, 64
6, 129888, Note_on_c, 4, 61, 51
6, 129888, Note_on_c, 4, 70, 51
6, 130172, Note_off_c, 4, 70, 64
6, 130172, Note_off_c, 4, 61, 64
6, 130172, Note_off_c, 4, 58, 64
6, 130176, Note_on_c, 4, 56, 64
6, 130272, Note_off_c, 4, 56, 64
6, 130272, Note_on_c, 4, 58, 55
6, 130368, Note_off_c, 4, 58, 64
6, 130368, Note_on_c, 4, 60, 51
6, 130464, Note_off_c, 4, 60, 64
6, 130464, Note_on_c, 4, 58, 64
6, 130588, Note_off_c, 4, 58, 64
6, 130588, Note_on_c, 4, 61, 69
6, 130968, Note_off_c, 4, 61, 64
6, 130972, Note_on_c, 4, 63, 55
6, 131152, Note_off_c, 4, 63, 64
6, 131152, Note_on_c, 4, 60, 58
6, 131476, Note_off_c, 4, 60, 64
6, 131480, Note_on_c, 4, 58, 48
6, 131584, Note_off_c, 4, 58, 64
6, 131584, Note_on_c, 4, 56, 55
6, 131908, Note_off_c, 4, 56, 64
6, 131916, Note_on_c, 4, 56, 69
6, 132096, Note_off_c, 4, 56, 64
6, 132096, Note_on_c, 4, 72, 69
6, 132096, Note_on_c, 4, 63, 69
6, 132096, Note_on_c, 4, 60, 55
6, 132476, Note_off_c, 4, 60, 64
6, 132476, Note_off_c, 4, 63, 64
6, 132476, Note_off_c, 4, 72, 64
6, 132480, Note_on_c, 4, 65, 69
6, 132480, Note_on_c, 4, 73, 64
6, 132480, Note_on_c, 4, 68, 64
6, 132480, Note_on_c, 4, 61, 64
6, 133240, Note_off_c, 4, 61, 64
6, 133240, Note_off_c, 4, 68, 64
6, 133240, Note_off_c, 4, 73, 64
6, 133240, Note_off_c, 4, 65, 64
6, 133248, Note_on_c, 4, 56, 64
6, 133344, Note_off_c, 4, 56, 64
6, 133344, Note_on_c, 4, 58, 64
6, 133440, Note_off_c, 4, 58, 64
6, 133440, Note_on_c, 4, 61, 55
6, 133536, Note_off_c, 4, 61, 64
6, 133536, Note_on_c, 4, 58, 55
6, 133632, Note_off_c, 4, 58, 64
6, 133632, Note_on_c, 4, 73, 64
6, 133632, Note_on_c, 4, 68, 64
6, 133632, Note_on_c, 4, 65, 83
6, 133632, Note_on_c, 4, 61, 48
6, 133912, Note_off_c, 4, 61, 64
6, 133912, Note_off_c, 4, 65, 64
6, 133912, Note_off_c, 4, 68, 64
6, 133912, Note_off_c, 4, 73, 64
6, 133920, Note_on_c, 4, 61, 40
6, 133920, Note_on_c, 4, 73, 69
6, 133920, Note_on_c, 4, 65, 80
6, 133920, Note_on_c, 4, 68, 64
6, 134200, Note_off_c, 4, 68, 64
6, 134204, Note_off_c, 4, 65, 64
6, 134204, Note_off_c, 4, 73, 64
6, 134204, Note_off_c, 4, 61, 64
6, 134208, Note_on_c, 4, 72, 69
6, 134208, Note_on_c, 4, 68, 64
6, 134208, Note_on_c, 4, 63, 69
6, 134208, Note_on_c, 4, 60, 48
6, 134780, Note_off_c, 4, 60, 64
6, 134780, Note_off_c, 4, 63, 64
6, 134780, Note_off_c, 4, 68, 64
6, 134780, Note_off_c, 4, 72, 64
6, 134784, Note_on_c, 4, 56, 64
6, 134880, Note_off_c, 4, 56, 64
6, 134880, Note_on_c, 4, 58, 55
6, 134976, Note_off_c, 4, 58, 64
6, 134976, Note_on_c, 4, 60, 58
6, 135072, Note_off_c, 4, 60, 64
6, 135072, Note_on_c, 4, 58, 55
6, 135168, Note_off_c, 4, 58, 64
6, 135168, Note_on_c, 4, 72, 64
6, 135168, Note_on_c, 4, 68, 64
6, 135168, Note_on_c, 4, 60, 42
6, 135168, Note_on_c, 4, 63, 69
6, 135448, Note_off_c, 4, 63, 64
6, 135448, Note_off_c, 4, 60, 64
6, 135448, Note_off_c, 4, 68, 64
6, 135448, Note_off_c, 4, 72, 64
6, 135456, Note_on_c, 4, 63, 64
6, 135456, Note_on_c, 4, 60, 33
6, 135456, Note_on_c, 4, 72, 58
6, 135456, Note_on_c, 4, 68, 55
6, 135740, Note_off_c, 4, 68, 64
6, 135740, Note_off_c, 4, 72, 64
6, 135740, Note_off_c, 4, 60, 64
6, 135740, Note_off_c, 4, 63, 64
6, 135744, Note_on_c, 4, 65, 74
6, 135744, Note_on_c, 4, 70, 69
6, 135744, Note_on_c, 4, 61, 64
6, 136028, Note_off_c, 4, 61, 64
6, 136032, Note_on_c, 4, 60, 48
6, 136128, Note_off_c, 4, 60, 64
6, 136128, Note_on_c, 4, 58, 55
6, 136316, Note_off_c, 4, 70, 64
6, 136316, Note_off_c, 4, 65, 64
6, 136320, Note_off_c, 4, 58, 64
6, 136324, Note_on_c, 4, 56, 64
6, 136440, Note_off_c, 4, 56, 64
6, 136444, Note_on_c, 4, 58, 51
6, 136556, Note_off_c, 4, 58, 64
6, 136556, Note_on_c, 4, 60, 51
6, 136636, Note_off_c, 4, 60, 64
6, 136636, Note_on_c, 4, 58, 55
6, 136732, Note_off_c, 4, 58, 64
6, 136732, Note_on_c, 4, 61, 64
6, 137080, Note_off_c, 4, 61, 64
6, 137084, Note_on_c, 4, 63, 55
6, 137284, Note_off_c, 4, 63, 64
6, 137288, Note_on_c, 4, 60, 64
6, 137472, Note_off_c, 4, 60, 64
6, 137472, Note_on_c, 4, 58, 51
6, 137664, Note_off_c, 4, 58, 64
6, 137664, Note_on_c, 4, 56, 55
6, 138040, Note_off_c, 4, 56, 64
6, 138048, Note_on_c, 4, 63, 51
6, 138048, Note_on_c, 4, 72, 64
6, 138048, Note_on_c, 4, 56, 55
6, 138048, Note_on_c, 4, 60, 58
6, 138236, Note_off_c, 4, 60, 64
6, 138236, Note_off_c, 4, 72, 64
6, 138236, Note_off_c, 4, 63, 64
6, 138240, Note_off_c, 4, 56, 64
6, 138240, Note_on_c, 4, 63, 64
6, 138240, Note_on_c, 4, 60, 69
6, 138240, Note_on_c, 4, 72, 69
6, 138620, Note_off_c, 4, 72, 64
6, 138620, Note_off_c, 4, 60, 64
6, 138620, Note_off_c, 4, 63, 64
6, 138624, Note_on_c, 4, 68, 69
6, 138624, Note_on_c, 4, 73, 55
6, 138624, Note_on_c, 4, 65, 69
6, 138624, Note_on_c, 4, 61, 64
6, 139384, Note_off_c, 4, 61, 64
6, 139384, Note_off_c, 4, 65, 64
6, 139384, Note_off_c, 4, 73, 64
6, 139384, Note_off_c, 4, 68, 64
6, 139392, Note_on_c, 4, 56, 64
6, 139488, Note_off_c, 4, 56, 64
6, 139488, Note_on_c, 4, 58, 55
6, 139584, Note_off_c, 4, 58, 64
6, 139584, Note_on_c, 4, 61, 55
6, 139680, Note_off_c, 4, 61, 64
6, 139680, Note_on_c, 4, 58, 55
6, 139776, Note_off_c, 4, 58, 64
6, 139776, Note_on_c, 4, 73, 64
6, 139776, Note_on_c, 4, 68, 64
6, 139776, Note_on_c, 4, 61, 48
6, 139776, Note_on_c, 4, 65, 80
6, 140056, Note_off_c, 4, 65, 64
6, 140056, Note_off_c, 4, 61, 64
6, 140056, Note_off_c, 4, 68, 64
6, 140056, Note_off_c, 4, 73, 64
6, 140064, Note_on_c, 4, 61, 48
6, 140064, Note_on_c, 4, 68, 64
6, 140064, Note_on_c, 4, 73, 64
6, 140064, Note_on_c, 4, 65, 80
6, 140344, Note_off_c, 4, 68, 64
6, 140348, Note_off_c, 4, 65, 64
6, 140348, Note_off_c, 4, 73, 64
6, 140348, Note_off_c, 4, 61, 64
6, 140352, Note_on_c, 4, 68, 69
6, 140352, Note_on_c, 4, 60, 58
6, 140352, Note_on_c, 4, 63, 69
6, 140352, Note_on_c, 4, 72, 69
6, 140924, Note_off_c, 4, 72, 64
6, 140924, Note_off_c, 4, 63, 64
6, 140924, Note_off_c, 4, 60, 64
6, 140924, Note_off_c, 4, 68, 64
6, 140928, Note_on_c, 4, 56, 64
6, 141024, Note_off_c, 4, 56, 64
6, 141024, Note_on_c, 4, 58, 55
6, 141120, Note_off_c, 4, 58, 64
6, 141120, Note_on_c, 4, 60, 51
6, 141216, Note_off_c, 4, 60, 64
6, 141216, Note_on_c, 4, 58, 64
6, 141312, Note_off_c, 4, 58, 64
6, 141312, Note_on_c, 4, 60, 55
6, 141312, Note_on_c, 4, 63, 69
6, 141312, Note_on_c, 4, 68, 69
6, 141312, Note_on_c, 4, 72, 69
6, 141688, Note_off_c, 4, 72, 64
6, 141688, Note_off_c, 4, 63, 64
6, 141688, Note_off_c, 4, 60, 64
6, 141692, Note_off_c, 4, 68, 64
6, 141696, Note_on_c, 4, 60, 58
6, 141696, Note_on_c, 4, 72, 64
6, 141696, Note_on_c, 4, 63, 64
6, 141888, Note_off_c, 4, 63, 64
6, 141888, Note_off_c, 4, 72, 64
6, 141888, Note_off_c, 4, 60, 64
6, 141888, Note_on_c, 4, 65, 64
6, 141888, Note_on_c, 4, 73, 64
6, 141888, Note_on_c, 4, 61, 64
6, 142080, Note_off_c, 4, 61, 64
6, 142080, Note_off_c, 4, 73, 64
6, 142080, Note_off_c, 4, 65, 64
6, 142080, Note_on_c, 4, 60, 26
6, 142080, Note_on_c, 4, 72, 51
6, 142080, Note_on_c, 4, 63, 51
6, 142176, Note_off_c, 4, 63, 64
6, 142176, Note_off_c, 4, 72, 64
6, 142176, Note_off_c, 4, 60, 64
6, 142176, Note_on_c, 4, 58, 64
6, 142176, Note_on_c, 4, 61, 51
6, 142176, Note_on_c, 4, 70, 51
6, 142460, Note_off_c, 4, 70, 64
6, 142460, Note_off_c, 4, 61, 64
6, 142460, Note_off_c, 4, 58, 64
6, 142464, Note_on_c, 4, 56, 64
6, 142560, Note_off_c, 4, 56, 64
6, 142560, Note_on_c, 4, 58, 55
6, 142656, Note_off_c, 4, 58, 64
6, 142656, Note_on_c, 4, 60, 51
6, 142752, Note_off_c, 4, 60, 64
6, 142752, Note_on_c, 4, 58, 64
6, 142876, Note_off_c, 4, 58, 64
6, 142876, Note_on_c, 4, 61, 69
6, 143256, Note_off_c, 4, 61, 64
6, 143260, Note_on_c, 4, 63, 55
6, 143440, Note_off_c, 4, 63, 64
6, 143440, Note_on_c, 4, 60, 58
6, 143764, Note_off_c, 4, 60, 64
6, 143768, Note_on_c, 4, 58, 48
6, 143872, Note_off_c, 4, 58, 64
6, 143872, Note_on_c, 4, 56, 55
6, 144196, Note_off_c, 4, 56, 64
6, 144204, Note_on_c, 4, 56, 69
6, 144384, Note_off_c, 4, 56, 64
6, 144384, Note_on_c, 4, 72, 69
6, 144384, Note_on_c, 4, 63, 69
6, 144384, Note_on_c, 4, 60, 55
6, 144764, Note_off_c, 4, 60, 64
6, 144764, Note_off_c, 4, 63, 64
6, 144764, Note_off_c, 4, 72, 64
6, 144768, Note_on_c, 4, 65, 69
6, 144768, Note_on_c, 4, 73, 64
6, 144768, Note_on_c, 4, 68, 64
6, 144768, Note_on_c, 4, 61, 64
6, 145528, Note_off_c, 4, 61, 64
6, 145528, Note_off_c, 4, 68, 64
6, 145528, Note_off_c, 4, 73, 64
6, 145528, Note_off_c, 4, 65, 64
6, 145536, Note_on_c, 4, 56, 64
6, 145632, Note_off_c, 4, 56, 64
6, 145632, Note_on_c, 4, 58, 64
6, 145728, Note_off_c, 4, 58, 64
6, 145728, Note_on_c, 4, 61, 55
6, 145824, Note_off_c, 4, 61, 64
6, 145824, Note_on_c, 4, 58, 55
6, 145920, Note_off_c, 4, 58, 64
6, 145920, Note_on_c, 4, 73, 64
6, 145920, Note_on_c, 4, 68, 64
6, 145920, Note_on_c, 4, 65, 83
6, 145920, Note_on_c, 4, 61, 48
6, 146200, Note_off_c, 4, 61, 64
6, 146200, Note_off_c, 4, 65, 64
6, 146200, Note_off_c, 4, 68, 64
6, 146200, Note_off_c, 4, 73, 64
6, 146208, Note_on_c, 4, 61, 40
6, 146208, Note_on_c, 4, 73, 69
6, 146208, Note_on_c, 4, 65, 80
6, 146208, Note_on_c, 4, 68, 64
6, 146488, Note_off_c, 4, 68, 64
6, 146492, Note_off_c, 4, 65, 64
6, 146492, Note_off_c, 4, 73, 64
6, 146492, Note_off_c, 4, 61, 64
6, 146496, Note_on_c, 4, 72, 69
6, 146496, Note_on_c, 4, 68, 64
6, 146496, Note_on_c, 4, 63, 69
6, 146496, Note_on_c, 4, 60, 48
6, 147068, Note_off_c, 4, 60, 64
6, 147068, Note_off_c, 4, 63, 64
6, 147068, Note_off_c, 4, 68, 64
6, 147068, Note_off_c, 4, 72, 64
6, 147072, Note_on_c, 4, 56, 64
6, 147168, Note_off_c, 4, 56, 64
6, 147168, Note_on_c, 4, 58, 55
6, 147264, Note_off_c, 4, 58, 64
6, 147264, Note_on_c, 4, 60, 58
6, 147360, Note_off_c, 4, 60, 64
6, 147360, Note_on_c, 4, 58, 55
6, 147456, Note_off_c, 4, 58, 64
6, 147456, Note_on_c, 4, 72, 64
6, 147456, Note_on_c, 4, 68, 64
6, 147456, Note_on_c, 4, 60, 42
6, 147456, Note_on_c, 4, 63, 69
6, 147736, Note_off_c, 4, 63, 64
6, 147736, Note_off_c, 4, 60, 64
6, 147736, Note_off_c, 4, 68, 64
6, 147736, Note_off_c, 4, 72, 64
6, 147744, Note_on_c, 4, 63, 61
6, 147744, Note_on_c, 4, 60, 31
6, 147744, Note_on_c, 4, 72, 56
6, 147744, Note_on_c, 4, 68, 53
6, 148028, Note_off_c, 4, 68, 64
6, 148028, Note_off_c, 4, 72, 64
6, 148028, Note_off_c, 4, 60, 64
6, 148028, Note_off_c, 4, 63, 64
6, 148032, Note_on_c, 4, 65, 68
6, 148032, Note_on_c, 4, 70, 63
6, 148032, Note_on_c, 4, 61, 58
6, 148316, Note_off_c, 4, 61, 64
6, 148320, Note_on_c, 4, 60, 40
6, 148416, Note_off_c, 4, 60, 64
6, 148416, Note_on_c, 4, 58, 46
6, 148604, Note_off_c, 4, 70, 64
6, 148604, Note_off_c, 4, 65, 64
6, 148608, Note_off_c, 4, 58, 64
6, 148612, Note_on_c, 4, 56, 52
6, 148728, Note_off_c, 4, 56, 64
6, 148732, Note_on_c, 4, 58, 40
6, 148844, Note_off_c, 4, 58, 64
6, 148844, Note_on_c, 4, 60, 39
6, 148924, Note_off_c, 4, 60, 64
6, 148924, Note_on_c, 4, 58, 41
6, 149020, Note_off_c, 4, 58, 64
6, 149020, Note_on_c, 4, 61, 48
6, 149368, Note_off_c, 4, 61, 64
6, 149372, Note_on_c, 4, 63, 36
6, 149572, Note_off_c, 4, 63, 64
6, 149576, Note_on_c, 4, 60, 42
6, 149760, Note_off_c, 4, 60, 64
6, 149760, Note_on_c, 4, 58, 30
6, 149952, Note_off_c, 4, 58, 64
6, 149952, Note_on_c, 4, 56, 31
6, 150328, Note_off_c, 4, 56, 64
6, 150336, Note_on_c, 4, 63, 23
6, 150336, Note_on_c, 4, 72, 32
6, 150336, Note_on_c, 4, 56, 26
6, 150336, Note_on_c, 4, 60, 28
6, 150524, Note_off_c, 4, 60, 64
6, 150524, Note_off_c, 4, 72, 64
6, 150524, Note_off_c, 4, 63, 64
6, 150528, Note_off_c, 4, 56, 64
6, 150528, Note_on_c, 4, 63, 30
6, 150528, Note_on_c, 4, 60, 34
6, 150528, Note_on_c, 4, 72, 34
6, 150908, Note_off_c, 4, 72, 64
6, 150908, Note_off_c, 4, 60, 64
6, 150908, Note_off_c, 4, 63, 64
6, 150912, Note_on_c, 4, 68, 29
6, 150912, Note_on_c, 4, 73, 20
6, 150912, Note_on_c, 4, 65, 29
6, 150912, Note_on_c, 4, 61, 26
6, 151672, Note_off_c, 4, 61, 64
6, 151672, Note_off_c, 4, 65, 64
6, 151672, Note_off_c, 4, 73, 64
6, 151672, Note_off_c, 4, 68, 64
6, 151680, Note_on_c, 4, 56, 18
6, 151776, Note_off_c, 4, 56, 64
6, 151776, Note_on_c, 4, 58, 12
6, 151872, Note_off_c, 4, 58, 64
6, 151872, Note_on_c, 4, 61, 11
6, 151968, Note_off_c, 4, 61, 64
6, 151968, Note_on_c, 4, 58, 10
6, 152064, Note_off_c, 4, 58, 64
6, 152064, Note_on_c, 4, 73, 14
6, 152064, Note_on_c, 4, 68, 14
6, 152064, Note_on_c, 4, 61, 5
6, 152064, Note_on_c, 4, 65, 22
6, 152344, Note_off_c, 4, 65, 64
6, 152344, Note_off_c, 4, 61, 64
6, 152344, Note_off_c, 4, 68, 64
6, 152344, Note_off_c, 4, 73, 64
6, 152352, Note_on_c, 4, 61, 3
6, 152352, Note_on_c, 4, 68, 10
6, 152352, Note_on_c, 4, 73, 10
6, 152352, Note_on_c, 4, 65, 18
6, 152632, Note_off_c, 4, 68, 64
6, 152636, Note_off_c, 4, 65, 64
6, 152636, Note_off_c, 4, 73, 64
6, 152636, Note_off_c, 4, 61, 64
6, 152640, Note_on_c, 4, 68, 10
6, 152640, Note_on_c, 4, 60, 5
6, 152640, Note_on_c, 4, 63, 10
6, 152640, Note_on_c, 4, 72, 10
6, 153212, Note_off_c, 4, 72, 64
6, 153212, Note_off_c, 4, 63, 64
6, 153212, Note_off_c, 4, 60, 64
6, 153212, Note_off_c, 4, 68, 64
6, 153216, Note_on_c, 4, 56, 1
6, 153312, Note_off_c, 4, 56, 64
6, 153312, Note_on_c, 4, 58, 1
6, 153408, Note_off_c, 4, 58, 64
6, 153408, Note_on_c, 4, 60, 1
6, 153504, Note_off_c, 4, 60, 64
6, 153504, Note_on_c, 4, 58, 1
6, 153600, Note_off_c, 4, 58, 64
6, 153600, Note_on_c, 4, 60, 1
6, 153600, Note_on_c, 4, 63, 1
6, 153600, Note_on_c, 4, 68, 1
6, 153600, Note_on_c, 4, 72, 1
6, 153976, Note_off_c, 4, 72, 64
6, 153976, Note_off_c, 4, 63, 64
6, 153976, Note_off_c, 4, 60, 64
6, 153980, Note_off_c, 4, 68, 64
6, 153984, Note_on_c, 4, 60, 1
6, 153984, Note_on_c, 4, 72, 1
6, 153984, Note_on_c, 4, 63, 1
6, 154176, Note_off_c, 4, 63, 64
6, 154176, Note_off_c, 4, 72, 64
6, 154176, Note_off_c, 4, 60, 64
6, 154176, Note_on_c, 4, 65, 1
6, 154176, Note_on_c, 4, 73, 1
6, 154176, Note_on_c, 4, 61, 1
6, 154368, Note_off_c, 4, 61, 64
6, 154368, Note_off_c, 4, 73, 64
6, 154368, Note_off_c, 4, 65, 64
6, 154368, Note_on_c, 4, 60, 1
6, 154368, Note_on_c, 4, 72, 1
6, 154368, Note_on_c, 4, 63, 1
6, 154464, Note_off_c, 4, 63, 64
6, 154464, Note_off_c, 4, 72, 64
6, 154464, Note_off_c, 4, 60, 64
6, 154464, Note_on_c, 4, 58, 1
6, 154464, Note_on_c, 4, 61, 1
6, 154464, Note_on_c, 4, 70, 1
6, 154748, Note_off_c, 4, 70, 64
6, 154748, Note_off_c, 4, 61, 64
6, 154748, Note_off_c, 4, 58, 64
6, 154752, Note_on_c, 4, 56, 1
6, 154848, Note_off_c, 4, 56, 64
6, 154848, Note_on_c, 4, 58, 1
6, 154944, Note_off_c, 4, 58, 64
6, 154944, Note_on_c, 4, 60, 1
6, 155040, Note_off_c, 4, 60, 64
6, 155040, Note_on_c, 4, 58, 1
6, 155164, Note_off_c, 4, 58, 64
6, 155164, Note_on_c, 4, 61, 1
6, 155544, Note_off_c, 4, 61, 64
6, 155548, Note_on_c, 4, 63, 1
6, 155728, Note_off_c, 4, 63, 64
6, 155728, Note_on_c, 4, 60, 1
6, 156052, Note_off_c, 4, 60, 64
6, 156056, Note_on_c, 4, 58, 1
6, 156160, Note_off_c, 4, 58, 64
6, 156160, Note_on_c, 4, 56, 1
6, 156484, Note_off_c, 4, 56, 64
6, 156492, Note_on_c, 4, 56, 1
6, 156556, Note_off_c, 4, 56, 1
6, 158208, End_track
7, 0, Start_track
7, 0, Title_t, "SYNTH DRUM"
7, 2028, Program_c, 5, 118
7, 2032, Control_c, 5, 7, 95
7, 2032, Control_c, 5, 10, 10
7, 2032, Control_c, 5, 11, 127
7, 2036, Control_c, 5, 91, 55
7, 2036, Control_c, 5, 93, 40
7, 3552, Note_on_c, 5, 72, 108
7, 3556, Control_c, 5, 1, 0
7, 3556, Pitch_bend_c, 5, 8192
7, 3600, Note_off_c, 5, 72, 64
7, 3936, Note_on_c, 5, 69, 119
7, 3984, Note_off_c, 5, 69, 64
7, 4032, Note_on_c, 5, 69, 114
7, 4080, Note_off_c, 5, 69, 64
7, 4320, Note_on_c, 5, 62, 119
7, 4352, Note_off_c, 5, 62, 64
7, 4416, Note_on_c, 5, 62, 124
7, 4460, Note_off_c, 5, 62, 64
7, 4512, Note_on_c, 5, 59, 127
7, 4564, Note_off_c, 5, 59, 64
7, 4608, Note_on_c, 5, 59, 124
7, 4648, Note_off_c, 5, 59, 64
7, 16416, Note_on_c, 5, 59, 124
7, 16468, Note_off_c, 5, 59, 64
7, 28416, Note_on_c, 5, 67, 124
7, 28476, Note_off_c, 5, 67, 64
7, 28512, Note_on_c, 5, 67, 124
7, 28576, Note_off_c, 5, 67, 64
7, 28704, Note_on_c, 5, 59, 127
7, 28788, Note_off_c, 5, 59, 64
7, 34368, Note_on_c, 5, 65, 127
7, 34424, Note_off_c, 5, 65, 64
7, 34656, Note_on_c, 5, 65, 105
7, 34704, Note_off_c, 5, 65, 64
7, 34752, Note_on_c, 5, 65, 127
7, 34816, Note_off_c, 5, 65, 64
7, 35040, Note_on_c, 5, 62, 119
7, 35088, Note_off_c, 5, 62, 64
7, 35136, Note_on_c, 5, 62, 119
7, 35188, Note_off_c, 5, 62, 64
7, 35232, Note_on_c, 5, 59, 127
7, 35288, Note_off_c, 5, 59, 64
7, 46848, Note_on_c, 5, 65, 124
7, 46892, Note_off_c, 5, 65, 64
7, 46944, Note_on_c, 5, 65, 127
7, 47004, Note_off_c, 5, 65, 64
7, 59136, Note_on_c, 5, 69, 127
7, 59196, Note_off_c, 5, 69, 64
7, 59232, Note_on_c, 5, 69, 127
7, 59300, Note_off_c, 5, 69, 64
7, 59424, Note_on_c, 5, 65, 114
7, 59456, Note_off_c, 5, 65, 64
7, 59520, Note_on_c, 5, 65, 124
7, 59580, Note_off_c, 5, 65, 64
7, 59616, Note_on_c, 5, 62, 119
7, 59680, Note_off_c, 5, 62, 64
7, 65280, Note_on_c, 5, 72, 119
7, 65364, Note_off_c, 5, 72, 64
7, 65664, Note_on_c, 5, 64, 119
7, 65772, Note_off_c, 5, 64, 64
7, 71424, Note_on_c, 5, 71, 124
7, 71508, Note_off_c, 5, 71, 64
7, 71712, Note_on_c, 5, 64, 119
7, 71832, Note_off_c, 5, 64, 64
7, 77376, Note_on_c, 5, 65, 114
7, 77420, Note_off_c, 5, 65, 64
7, 77472, Note_on_c, 5, 65, 124
7, 77532, Note_off_c, 5, 65, 64
7, 77952, Note_on_c, 5, 65, 124
7, 77996, Note_off_c, 5, 65, 64
7, 78048, Note_on_c, 5, 65, 119
7, 78112, Note_off_c, 5, 65, 64
7, 78336, Note_on_c, 5, 59, 127
7, 78396, Note_off_c, 5, 59, 64
7, 84000, Note_on_c, 5, 62, 124
7, 84048, Note_off_c, 5, 62, 64
7, 89664, Note_on_c, 5, 69, 108
7, 89704, Note_off_c, 5, 69, 64
7, 89760, Note_on_c, 5, 69, 119
7, 89828, Note_off_c, 5, 69, 64
7, 90144, Note_on_c, 5, 65, 127
7, 90212, Note_off_c, 5, 65, 64
7, 90432, Note_on_c, 5, 62, 127
7, 90508, Note_off_c, 5, 62, 64
7, 101472, Note_on_c, 5, 69, 124
7, 101552, Note_off_c, 5, 69, 64
7, 101760, Note_on_c, 5, 64, 124
7, 101836, Note_off_c, 5, 64, 64
7, 102240, Note_on_c, 5, 60, 119
7, 102300, Note_off_c, 5, 60, 64
7, 102624, Note_on_c, 5, 55, 124
7, 102712, Note_off_c, 5, 55, 64
7, 114720, Note_on_c, 5, 67, 108
7, 114768, Note_off_c, 5, 67, 64
7, 120384, Note_on_c, 5, 72, 124
7, 120436, Note_off_c, 5, 72, 64
7, 120864, Note_on_c, 5, 65, 119
7, 120908, Note_off_c, 5, 65, 64
7, 120960, Note_on_c, 5, 65, 114
7, 121008, Note_off_c, 5, 65, 64
7, 126720, Note_on_c, 5, 69, 127
7, 126800, Note_off_c, 5, 69, 64
7, 127008, Note_on_c, 5, 59, 127
7, 127068, Note_off_c, 5, 59, 64
7, 132288, Note_on_c, 5, 62, 124
7, 132348, Note_off_c, 5, 62, 64
7, 132672, Note_on_c, 5, 65, 124
7, 132732, Note_off_c, 5, 65, 64
7, 133152, Note_on_c, 5, 59, 108
7, 133200, Note_off_c, 5, 59, 64
7, 133248, Note_on_c, 5, 59, 127
7, 133308, Note_off_c, 5, 59, 64
7, 139296, Note_on_c, 5, 59, 127
7, 139344, Note_off_c, 5, 59, 64
7, 144960, Note_on_c, 5, 69, 119
7, 145032, Note_off_c, 5, 69, 64
7, 145344, Note_on_c, 5, 59, 108
7, 145388, Note_off_c, 5, 59, 64
7, 145440, Note_on_c, 5, 59, 124
7, 145500, Note_off_c, 5, 59, 64
7, 151584, Note_on_c, 5, 59, 68
7, 151640, Note_off_c, 5, 59, 64
7, 158208, End_track
8, 0, Start_track
8, 0, Title_t, "SYNTH DRUM"
8, 2048, Program_c, 6, 118
8, 2052, Control_c, 6, 7, 95
8, 2052, Control_c, 6, 10, 118
8, 2052, Control_c, 6, 11, 127
8, 2056, Control_c, 6, 91, 60
8, 2056, Control_c, 6, 93, 40
8, 3648, Note_on_c, 6, 72, 124
8, 3652, Control_c, 6, 1, 0
8, 3652, Pitch_bend_c, 6, 8192
8, 3700, Note_off_c, 6, 72, 64
8, 4128, Note_on_c, 6, 65, 119
8, 4172, Note_off_c, 6, 65, 64
8, 4224, Note_on_c, 6, 65, 114
8, 4272, Note_off_c, 6, 65, 64
8, 16128, Note_on_c, 6, 67, 124
8, 16180, Note_off_c, 6, 67, 64
8, 16224, Note_on_c, 6, 67, 124
8, 16284, Note_off_c, 6, 67, 64
8, 34464, Note_on_c, 6, 72, 114
8, 34512, Note_off_c, 6, 72, 64
8, 34560, Note_on_c, 6, 72, 119
8, 34624, Note_off_c, 6, 72, 64
8, 34848, Note_on_c, 6, 64, 108
8, 34892, Note_off_c, 6, 64, 64
8, 34944, Note_on_c, 6, 64, 119
8, 35000, Note_off_c, 6, 64, 64
8, 47136, Note_on_c, 6, 59, 127
8, 47184, Note_off_c, 6, 59, 64
8, 59328, Note_on_c, 6, 67, 127
8, 59368, Note_off_c, 6, 67, 64
8, 65472, Note_on_c, 6, 67, 119
8, 65548, Note_off_c, 6, 67, 64
8, 65760, Note_on_c, 6, 59, 119
8, 65836, Note_off_c, 6, 59, 64
8, 71520, Note_on_c, 6, 67, 124
8, 71572, Note_off_c, 6, 67, 64
8, 77664, Note_on_c, 6, 69, 119
8, 77708, Note_off_c, 6, 69, 64
8, 78144, Note_on_c, 6, 62, 119
8, 78192, Note_off_c, 6, 62, 64
8, 83712, Note_on_c, 6, 67, 124
8, 83760, Note_off_c, 6, 67, 64
8, 83808, Note_on_c, 6, 67, 119
8, 83852, Note_off_c, 6, 67, 64
8, 89952, Note_on_c, 6, 65, 119
8, 89992, Note_off_c, 6, 65, 64
8, 101184, Note_on_c, 6, 71, 119
8, 101276, Note_off_c, 6, 71, 64
8, 102048, Note_on_c, 6, 62, 119
8, 102108, Note_off_c, 6, 62, 64
8, 102432, Note_on_c, 6, 59, 124
8, 102492, Note_off_c, 6, 59, 64
8, 102528, Note_on_c, 6, 59, 124
8, 102588, Note_off_c, 6, 59, 64
8, 114528, Note_on_c, 6, 71, 124
8, 114588, Note_off_c, 6, 71, 64
8, 114912, Note_on_c, 6, 62, 115
8, 114952, Note_off_c, 6, 62, 64
8, 115008, Note_on_c, 6, 62, 127
8, 115064, Note_off_c, 6, 62, 64
8, 120288, Note_on_c, 6, 72, 108
8, 120336, Note_off_c, 6, 72, 64
8, 120672, Note_on_c, 6, 69, 119
8, 120720, Note_off_c, 6, 69, 64
8, 120768, Note_on_c, 6, 69, 114
8, 120816, Note_off_c, 6, 69, 64
8, 121056, Note_on_c, 6, 62, 119
8, 121088, Note_off_c, 6, 62, 64
8, 121152, Note_on_c, 6, 62, 124
8, 121196, Note_off_c, 6, 62, 64
8, 121248, Note_on_c, 6, 59, 127
8, 121300, Note_off_c, 6, 59, 64
8, 126816, Note_on_c, 6, 69, 127
8, 126864, Note_off_c, 6, 69, 64
8, 139008, Note_on_c, 6, 65, 124
8, 139056, Note_off_c, 6, 65, 64
8, 139104, Note_on_c, 6, 65, 119
8, 139152, Note_off_c, 6, 65, 64
8, 151296, Note_on_c, 6, 69, 68
8, 151348, Note_off_c, 6, 69, 64
8, 151392, Note_on_c, 6, 69, 63
8, 151456, Note_off_c, 6, 69, 64
8, 158208, End_track
9, 0, Start_track
9, 0, Title_t, "SAW WAVE"
9, 2068, Program_c, 7, 81
9, 2072, Control_c, 7, 7, 70
9, 2072, Control_c, 7, 10, 64
9, 2072, Control_c, 7, 11, 127
9, 2076, Control_c, 7, 91, 60
9, 2076, Control_c, 7, 93, 60
9, 21504, Note_on_c, 7, 58, 96
9, 21504, Note_on_c, 7, 65, 101
9, 21504, Note_on_c, 7, 61, 87
9, 21504, Note_on_c, 7, 54, 96
9, 21508, Control_c, 7, 1, 0
9, 21508, Pitch_bend_c, 7, 8192
9, 21932, Note_off_c, 7, 61, 64
9, 21932, Note_off_c, 7, 65, 64
9, 21964, Note_off_c, 7, 54, 64
9, 21972, Note_off_c, 7, 58, 64
9, 22096, Note_on_c, 7, 53, 101
9, 22100, Note_on_c, 7, 56, 101
9, 22100, Note_on_c, 7, 63, 101
9, 22100, Note_on_c, 7, 60, 106
9, 22932, Note_off_c, 7, 60, 64
9, 22932, Note_off_c, 7, 56, 64
9, 22936, Note_off_c, 7, 63, 64
9, 22944, Note_off_c, 7, 53, 64
9, 27668, Note_on_c, 7, 65, 106
9, 27668, Note_on_c, 7, 61, 83
9, 27672, Note_on_c, 7, 54, 96
9, 27672, Note_on_c, 7, 58, 96
9, 28068, Note_off_c, 7, 61, 64
9, 28068, Note_off_c, 7, 65, 64
9, 28084, Note_off_c, 7, 58, 64
9, 28092, Note_off_c, 7, 54, 64
9, 28200, Note_on_c, 7, 63, 87
9, 28200, Note_on_c, 7, 56, 101
9, 28200, Note_on_c, 7, 60, 90
9, 28200, Note_on_c, 7, 53, 101
9, 28992, Note_off_c, 7, 53, 64
9, 28992, Note_off_c, 7, 60, 64
9, 28992, Note_off_c, 7, 56, 64
9, 28992, Note_off_c, 7, 63, 64
9, 29184, Note_on_c, 7, 70, 96
9, 29184, Note_on_c, 7, 66, 96
9, 29184, Note_on_c, 7, 61, 96
9, 30632, Note_off_c, 7, 61, 64
9, 30640, Note_off_c, 7, 66, 64
9, 30648, Note_off_c, 7, 70, 64
9, 30728, Note_on_c, 7, 68, 96
9, 30728, Note_on_c, 7, 60, 96
9, 30728, Note_on_c, 7, 63, 96
9, 32088, Note_off_c, 7, 60, 64
9, 32132, Note_off_c, 7, 63, 64
9, 32140, Note_off_c, 7, 68, 64
9, 32252, Note_on_c, 7, 61, 96
9, 32252, Note_on_c, 7, 70, 96
9, 32260, Note_on_c, 7, 66, 101
9, 32608, Control_c, 7, 1, 4
9, 32620, Control_c, 7, 1, 5
9, 32632, Control_c, 7, 1, 6
9, 32648, Control_c, 7, 1, 8
9, 32664, Control_c, 7, 1, 11
9, 32676, Control_c, 7, 1, 13
9, 32692, Control_c, 7, 1, 16
9, 32704, Control_c, 7, 1, 19
9, 32720, Control_c, 7, 1, 21
9, 32732, Control_c, 7, 1, 24
9, 32748, Control_c, 7, 1, 27
9, 32760, Control_c, 7, 1, 30
9, 32776, Control_c, 7, 1, 33
9, 32788, Control_c, 7, 1, 35
9, 32804, Control_c, 7, 1, 38
9, 32816, Control_c, 7, 1, 42
9, 32828, Control_c, 7, 1, 44
9, 32844, Control_c, 7, 1, 47
9, 32856, Control_c, 7, 1, 49
9, 32872, Control_c, 7, 1, 52
9, 32884, Control_c, 7, 1, 55
9, 32900, Control_c, 7, 1, 57
9, 32912, Control_c, 7, 1, 60
9, 32928, Control_c, 7, 1, 62
9, 32940, Control_c, 7, 1, 65
9, 32956, Control_c, 7, 1, 67
9, 32972, Control_c, 7, 1, 70
9, 32980, Control_c, 7, 1, 73
9, 32996, Control_c, 7, 1, 75
9, 33012, Control_c, 7, 1, 77
9, 33024, Control_c, 7, 1, 80
9, 33040, Control_c, 7, 1, 82
9, 33052, Control_c, 7, 1, 84
9, 33068, Control_c, 7, 1, 86
9, 33080, Control_c, 7, 1, 89
9, 33096, Control_c, 7, 1, 90
9, 33108, Control_c, 7, 1, 92
9, 33124, Control_c, 7, 1, 94
9, 33136, Control_c, 7, 1, 96
9, 33152, Control_c, 7, 1, 97
9, 33164, Control_c, 7, 1, 99
9, 33180, Control_c, 7, 1, 101
9, 33192, Control_c, 7, 1, 103
9, 33208, Control_c, 7, 1, 105
9, 33220, Control_c, 7, 1, 107
9, 33236, Control_c, 7, 1, 110
9, 33248, Control_c, 7, 1, 112
9, 33260, Control_c, 7, 1, 114
9, 33276, Control_c, 7, 1, 116
9, 33288, Control_c, 7, 1, 119
9, 33304, Control_c, 7, 1, 121
9, 33316, Control_c, 7, 1, 125
9, 33332, Control_c, 7, 1, 127
9, 33540, Control_c, 7, 1, 120
9, 33552, Control_c, 7, 1, 114
9, 33568, Control_c, 7, 1, 107
9, 33580, Control_c, 7, 1, 99
9, 33592, Control_c, 7, 1, 89
9, 33608, Control_c, 7, 1, 75
9, 33624, Note_off_c, 7, 61, 64
9, 33624, Control_c, 7, 1, 58
9, 33628, Note_off_c, 7, 70, 64
9, 33636, Note_off_c, 7, 66, 64
9, 33636, Control_c, 7, 1, 40
9, 33652, Control_c, 7, 1, 25
9, 33664, Control_c, 7, 1, 8
9, 33680, Control_c, 7, 1, 3
9, 33788, Note_on_c, 7, 70, 106
9, 33788, Note_on_c, 7, 61, 106
9, 33788, Note_on_c, 7, 66, 106
9, 33856, Note_off_c, 7, 61, 64
9, 33868, Note_off_c, 7, 66, 64
9, 33880, Note_off_c, 7, 70, 64
9, 34072, Note_on_c, 7, 61, 106
9, 34072, Note_on_c, 7, 70, 106
9, 34072, Note_on_c, 7, 66, 116
9, 34168, Note_off_c, 7, 61, 64
9, 34172, Note_off_c, 7, 66, 64
9, 34192, Note_off_c, 7, 70, 64
9, 34372, Note_on_c, 7, 72, 112
9, 34372, Note_on_c, 7, 63, 101
9, 34380, Note_on_c, 7, 68, 101
9, 34516, Note_off_c, 7, 63, 64
9, 34516, Note_off_c, 7, 72, 64
9, 34524, Note_off_c, 7, 68, 64
9, 52232, Note_on_c, 7, 65, 101
9, 52236, Note_on_c, 7, 54, 83
9, 52236, Note_on_c, 7, 58, 83
9, 52236, Note_on_c, 7, 61, 83
9, 52692, Note_off_c, 7, 61, 64
9, 52696, Note_off_c, 7, 65, 64
9, 52716, Note_off_c, 7, 54, 64
9, 52720, Note_off_c, 7, 58, 64
9, 52832, Note_on_c, 7, 60, 90
9, 52836, Note_on_c, 7, 53, 96
9, 52836, Note_on_c, 7, 63, 96
9, 52836, Note_on_c, 7, 56, 101
9, 53620, Note_off_c, 7, 56, 64
9, 53620, Note_off_c, 7, 63, 64
9, 53620, Note_off_c, 7, 53, 64
9, 53620, Note_off_c, 7, 60, 64
9, 58388, Note_on_c, 7, 65, 96
9, 58388, Note_on_c, 7, 58, 96
9, 58388, Note_on_c, 7, 61, 87
9, 58388, Note_on_c, 7, 54, 87
9, 58764, Note_off_c, 7, 61, 64
9, 58764, Note_off_c, 7, 65, 64
9, 58784, Note_off_c, 7, 58, 64
9, 58792, Note_off_c, 7, 54, 64
9, 58932, Note_on_c, 7, 56, 96
9, 58932, Note_on_c, 7, 63, 96
9, 58936, Note_on_c, 7, 53, 96
9, 58936, Note_on_c, 7, 60, 96
9, 59660, Note_off_c, 7, 53, 64
9, 59688, Note_off_c, 7, 56, 64
9, 59700, Note_off_c, 7, 60, 64
9, 59712, Note_off_c, 7, 63, 64
9, 59900, Note_on_c, 7, 70, 101
9, 59900, Note_on_c, 7, 61, 101
9, 59904, Note_on_c, 7, 66, 96
9, 61308, Note_off_c, 7, 61, 64
9, 61336, Note_off_c, 7, 66, 64
9, 61340, Note_off_c, 7, 70, 64
9, 61420, Note_on_c, 7, 68, 101
9, 61424, Note_on_c, 7, 60, 101
9, 61424, Note_on_c, 7, 63, 96
9, 62808, Note_off_c, 7, 60, 64
9, 62844, Note_off_c, 7, 63, 64
9, 62844, Note_off_c, 7, 68, 64
9, 62964, Note_on_c, 7, 70, 101
9, 62968, Note_on_c, 7, 66, 101
9, 62972, Note_on_c, 7, 61, 87
9, 63240, Control_c, 7, 1, 4
9, 63252, Control_c, 7, 1, 5
9, 63264, Control_c, 7, 1, 7
9, 63280, Control_c, 7, 1, 9
9, 63292, Control_c, 7, 1, 13
9, 63308, Control_c, 7, 1, 16
9, 63320, Control_c, 7, 1, 20
9, 63336, Control_c, 7, 1, 24
9, 63348, Control_c, 7, 1, 27
9, 63364, Control_c, 7, 1, 30
9, 63376, Control_c, 7, 1, 33
9, 63392, Control_c, 7, 1, 36
9, 63408, Control_c, 7, 1, 38
9, 63416, Control_c, 7, 1, 40
9, 63432, Control_c, 7, 1, 42
9, 63448, Control_c, 7, 1, 45
9, 63460, Control_c, 7, 1, 47
9, 63476, Control_c, 7, 1, 50
9, 63488, Control_c, 7, 1, 53
9, 63504, Control_c, 7, 1, 55
9, 63516, Control_c, 7, 1, 58
9, 63532, Control_c, 7, 1, 60
9, 63544, Control_c, 7, 1, 63
9, 63560, Control_c, 7, 1, 65
9, 63572, Control_c, 7, 1, 67
9, 63588, Control_c, 7, 1, 68
9, 63600, Control_c, 7, 1, 70
9, 63616, Control_c, 7, 1, 72
9, 63628, Control_c, 7, 1, 74
9, 63644, Control_c, 7, 1, 75
9, 63656, Control_c, 7, 1, 76
9, 63672, Control_c, 7, 1, 78
9, 63684, Control_c, 7, 1, 79
9, 63696, Control_c, 7, 1, 80
9, 63712, Control_c, 7, 1, 82
9, 63724, Control_c, 7, 1, 84
9, 63740, Control_c, 7, 1, 85
9, 63752, Control_c, 7, 1, 87
9, 63768, Control_c, 7, 1, 89
9, 63780, Control_c, 7, 1, 90
9, 63796, Control_c, 7, 1, 92
9, 63808, Control_c, 7, 1, 95
9, 63824, Control_c, 7, 1, 97
9, 63836, Control_c, 7, 1, 100
9, 63848, Control_c, 7, 1, 103
9, 63864, Control_c, 7, 1, 106
9, 63876, Control_c, 7, 1, 108
9, 63892, Control_c, 7, 1, 111
9, 63908, Control_c, 7, 1, 115
9, 63920, Control_c, 7, 1, 118
9, 63936, Control_c, 7, 1, 120
9, 63948, Control_c, 7, 1, 125
9, 63964, Control_c, 7, 1, 127
9, 64212, Control_c, 7, 1, 124
9, 64224, Control_c, 7, 1, 118
9, 64240, Control_c, 7, 1, 112
9, 64252, Control_c, 7, 1, 106
9, 64268, Control_c, 7, 1, 99
9, 64280, Control_c, 7, 1, 91
9, 64296, Note_off_c, 7, 61, 64
9, 64296, Control_c, 7, 1, 83
9, 64308, Control_c, 7, 1, 73
9, 64312, Note_off_c, 7, 66, 64
9, 64324, Control_c, 7, 1, 60
9, 64332, Note_off_c, 7, 70, 64
9, 64336, Control_c, 7, 1, 46
9, 64352, Control_c, 7, 1, 31
9, 64368, Control_c, 7, 1, 16
9, 64384, Control_c, 7, 1, 4
9, 64392, Control_c, 7, 1, 3
9, 64508, Note_on_c, 7, 70, 106
9, 64512, Note_on_c, 7, 61, 101
9, 64512, Note_on_c, 7, 66, 101
9, 64632, Note_off_c, 7, 70, 64
9, 64636, Note_off_c, 7, 66, 64
9, 64636, Note_off_c, 7, 61, 64
9, 64800, Note_on_c, 7, 70, 101
9, 64804, Note_on_c, 7, 61, 96
9, 64804, Note_on_c, 7, 66, 106
9, 64904, Note_off_c, 7, 61, 64
9, 64928, Note_off_c, 7, 70, 64
9, 64936, Note_off_c, 7, 66, 64
9, 65088, Note_on_c, 7, 72, 101
9, 65088, Note_on_c, 7, 63, 96
9, 65088, Note_on_c, 7, 68, 106
9, 65256, Note_off_c, 7, 63, 64
9, 65276, Note_off_c, 7, 68, 64
9, 65276, Note_off_c, 7, 72, 64
9, 107540, Note_on_c, 7, 65, 106
9, 107544, Note_on_c, 7, 54, 87
9, 107544, Note_on_c, 7, 58, 96
9, 107544, Note_on_c, 7, 61, 87
9, 107924, Note_off_c, 7, 65, 64
9, 107928, Note_off_c, 7, 61, 64
9, 107932, Note_off_c, 7, 58, 64
9, 107944, Note_off_c, 7, 54, 64
9, 108100, Note_on_c, 7, 63, 87
9, 108104, Note_on_c, 7, 53, 90
9, 108104, Note_on_c, 7, 56, 87
9, 108104, Note_on_c, 7, 60, 101
9, 108836, Note_off_c, 7, 56, 64
9, 108836, Note_off_c, 7, 53, 64
9, 108840, Note_off_c, 7, 60, 64
9, 108840, Note_off_c, 7, 63, 64
9, 113672, Note_on_c, 7, 61, 87
9, 113672, Note_on_c, 7, 65, 101
9, 113672, Note_on_c, 7, 54, 87
9, 113676, Note_on_c, 7, 58, 101
9, 114060, Note_off_c, 7, 65, 64
9, 114060, Note_off_c, 7, 61, 64
9, 114068, Note_off_c, 7, 58, 64
9, 114072, Note_off_c, 7, 54, 64
9, 114240, Note_on_c, 7, 63, 96
9, 114248, Note_on_c, 7, 56, 96
9, 114248, Note_on_c, 7, 53, 90
9, 114252, Note_on_c, 7, 60, 101
9, 115004, Note_off_c, 7, 53, 64
9, 115008, Note_off_c, 7, 60, 64
9, 115008, Note_off_c, 7, 56, 64
9, 115008, Note_off_c, 7, 63, 64
9, 115200, Note_on_c, 7, 70, 96
9, 115200, Note_on_c, 7, 61, 74
9, 115200, Note_on_c, 7, 66, 74
9, 115948, Control_c, 7, 1, 4
9, 115976, Control_c, 7, 1, 5
9, 115984, Control_c, 7, 1, 6
9, 116004, Control_c, 7, 1, 7
9, 116016, Control_c, 7, 1, 9
9, 116028, Control_c, 7, 1, 10
9, 116044, Control_c, 7, 1, 11
9, 116056, Control_c, 7, 1, 13
9, 116072, Control_c, 7, 1, 14
9, 116084, Control_c, 7, 1, 16
9, 116100, Control_c, 7, 1, 19
9, 116112, Control_c, 7, 1, 21
9, 116128, Control_c, 7, 1, 24
9, 116140, Control_c, 7, 1, 26
9, 116156, Control_c, 7, 1, 28
9, 116168, Control_c, 7, 1, 31
9, 116184, Control_c, 7, 1, 33
9, 116196, Control_c, 7, 1, 36
9, 116212, Control_c, 7, 1, 39
9, 116224, Control_c, 7, 1, 42
9, 116236, Control_c, 7, 1, 45
9, 116252, Control_c, 7, 1, 48
9, 116268, Control_c, 7, 1, 50
9, 116280, Control_c, 7, 1, 53
9, 116292, Control_c, 7, 1, 56
9, 116308, Control_c, 7, 1, 59
9, 116320, Control_c, 7, 1, 62
9, 116336, Control_c, 7, 1, 65
9, 116352, Control_c, 7, 1, 68
9, 116364, Control_c, 7, 1, 71
9, 116380, Control_c, 7, 1, 74
9, 116392, Control_c, 7, 1, 76
9, 116408, Control_c, 7, 1, 79
9, 116420, Control_c, 7, 1, 82
9, 116432, Control_c, 7, 1, 85
9, 116448, Control_c, 7, 1, 89
9, 116460, Control_c, 7, 1, 93
9, 116476, Control_c, 7, 1, 98
9, 116488, Control_c, 7, 1, 102
9, 116504, Control_c, 7, 1, 107
9, 116516, Control_c, 7, 1, 112
9, 116532, Control_c, 7, 1, 114
9, 116544, Control_c, 7, 1, 115
9, 116560, Control_c, 7, 1, 113
9, 116572, Control_c, 7, 1, 106
9, 116576, Note_off_c, 7, 66, 64
9, 116580, Note_off_c, 7, 61, 64
9, 116584, Note_off_c, 7, 70, 64
9, 116588, Control_c, 7, 1, 93
9, 116604, Control_c, 7, 1, 76
9, 116616, Control_c, 7, 1, 56
9, 116632, Control_c, 7, 1, 36
9, 116644, Control_c, 7, 1, 17
9, 116660, Control_c, 7, 1, 4
9, 116672, Control_c, 7, 1, 3
9, 116724, Note_on_c, 7, 68, 96
9, 116728, Note_on_c, 7, 60, 96
9, 116728, Note_on_c, 7, 63, 96
9, 117228, Control_c, 7, 1, 5
9, 117240, Control_c, 7, 1, 6
9, 117256, Control_c, 7, 1, 7
9, 117268, Control_c, 7, 1, 9
9, 117284, Control_c, 7, 1, 12
9, 117296, Control_c, 7, 1, 14
9, 117312, Control_c, 7, 1, 16
9, 117324, Control_c, 7, 1, 17
9, 117340, Control_c, 7, 1, 19
9, 117352, Control_c, 7, 1, 20
9, 117364, Control_c, 7, 1, 22
9, 117380, Control_c, 7, 1, 23
9, 117396, Control_c, 7, 1, 24
9, 117412, Control_c, 7, 1, 26
9, 117420, Control_c, 7, 1, 28
9, 117436, Control_c, 7, 1, 29
9, 117448, Control_c, 7, 1, 31
9, 117464, Control_c, 7, 1, 32
9, 117476, Control_c, 7, 1, 34
9, 117492, Control_c, 7, 1, 35
9, 117504, Control_c, 7, 1, 36
9, 117520, Control_c, 7, 1, 38
9, 117536, Control_c, 7, 1, 39
9, 117548, Control_c, 7, 1, 41
9, 117560, Control_c, 7, 1, 42
9, 117588, Control_c, 7, 1, 43
9, 117604, Control_c, 7, 1, 44
9, 117616, Control_c, 7, 1, 45
9, 117632, Control_c, 7, 1, 46
9, 117644, Control_c, 7, 1, 47
9, 117660, Control_c, 7, 1, 49
9, 117672, Control_c, 7, 1, 50
9, 117688, Control_c, 7, 1, 52
9, 117700, Control_c, 7, 1, 54
9, 117716, Control_c, 7, 1, 57
9, 117728, Control_c, 7, 1, 59
9, 117744, Control_c, 7, 1, 61
9, 117756, Control_c, 7, 1, 64
9, 117772, Control_c, 7, 1, 66
9, 117784, Control_c, 7, 1, 68
9, 117800, Control_c, 7, 1, 71
9, 117812, Control_c, 7, 1, 74
9, 117824, Control_c, 7, 1, 77
9, 117840, Control_c, 7, 1, 80
9, 117852, Control_c, 7, 1, 82
9, 117868, Control_c, 7, 1, 85
9, 117880, Control_c, 7, 1, 87
9, 117896, Control_c, 7, 1, 90
9, 117908, Control_c, 7, 1, 93
9, 117924, Control_c, 7, 1, 96
9, 117940, Control_c, 7, 1, 98
9, 117952, Control_c, 7, 1, 99
9, 117964, Control_c, 7, 1, 98
9, 117980, Control_c, 7, 1, 95
9, 117992, Control_c, 7, 1, 90
9, 118008, Control_c, 7, 1, 83
9, 118020, Control_c, 7, 1, 76
9, 118036, Control_c, 7, 1, 68
9, 118048, Control_c, 7, 1, 60
9, 118064, Control_c, 7, 1, 52
9, 118076, Control_c, 7, 1, 43
9, 118092, Control_c, 7, 1, 33
9, 118096, Note_off_c, 7, 60, 64
9, 118104, Control_c, 7, 1, 20
9, 118116, Control_c, 7, 1, 7
9, 118124, Note_off_c, 7, 68, 64
9, 118128, Note_off_c, 7, 63, 64
9, 118136, Control_c, 7, 1, 3
9, 118276, Note_on_c, 7, 70, 106
9, 118276, Note_on_c, 7, 66, 106
9, 118280, Note_on_c, 7, 61, 106
9, 118716, Control_c, 7, 1, 4
9, 118756, Control_c, 7, 1, 5
9, 118772, Control_c, 7, 1, 6
9, 118800, Control_c, 7, 1, 8
9, 118812, Control_c, 7, 1, 9
9, 118828, Control_c, 7, 1, 10
9, 118840, Control_c, 7, 1, 11
9, 118856, Control_c, 7, 1, 12
9, 118884, Control_c, 7, 1, 13
9, 118896, Control_c, 7, 1, 14
9, 118912, Control_c, 7, 1, 16
9, 118928, Control_c, 7, 1, 17
9, 118936, Control_c, 7, 1, 19
9, 118952, Control_c, 7, 1, 20
9, 118964, Control_c, 7, 1, 22
9, 118980, Control_c, 7, 1, 24
9, 118996, Control_c, 7, 1, 26
9, 119008, Control_c, 7, 1, 28
9, 119024, Control_c, 7, 1, 30
9, 119036, Control_c, 7, 1, 33
9, 119052, Control_c, 7, 1, 35
9, 119064, Control_c, 7, 1, 37
9, 119080, Control_c, 7, 1, 38
9, 119096, Control_c, 7, 1, 40
9, 119108, Control_c, 7, 1, 42
9, 119120, Control_c, 7, 1, 43
9, 119136, Control_c, 7, 1, 45
9, 119148, Control_c, 7, 1, 46
9, 119164, Control_c, 7, 1, 47
9, 119176, Control_c, 7, 1, 49
9, 119192, Control_c, 7, 1, 51
9, 119204, Control_c, 7, 1, 52
9, 119220, Control_c, 7, 1, 54
9, 119236, Control_c, 7, 1, 55
9, 119244, Control_c, 7, 1, 56
9, 119260, Control_c, 7, 1, 58
9, 119272, Control_c, 7, 1, 59
9, 119288, Control_c, 7, 1, 61
9, 119300, Control_c, 7, 1, 63
9, 119316, Control_c, 7, 1, 65
9, 119328, Control_c, 7, 1, 67
9, 119344, Control_c, 7, 1, 69
9, 119360, Control_c, 7, 1, 73
9, 119372, Control_c, 7, 1, 75
9, 119384, Control_c, 7, 1, 79
9, 119396, Control_c, 7, 1, 83
9, 119412, Control_c, 7, 1, 86
9, 119424, Control_c, 7, 1, 90
9, 119440, Control_c, 7, 1, 94
9, 119456, Control_c, 7, 1, 97
9, 119468, Control_c, 7, 1, 100
9, 119484, Control_c, 7, 1, 103
9, 119500, Control_c, 7, 1, 105
9, 119512, Control_c, 7, 1, 107
9, 119524, Control_c, 7, 1, 108
9, 119568, Control_c, 7, 1, 104
9, 119580, Control_c, 7, 1, 99
9, 119596, Control_c, 7, 1, 90
9, 119608, Control_c, 7, 1, 79
9, 119624, Control_c, 7, 1, 67
9, 119636, Control_c, 7, 1, 54
9, 119652, Control_c, 7, 1, 41
9, 119660, Note_off_c, 7, 61, 64
9, 119668, Note_off_c, 7, 66, 64
9, 119668, Note_off_c, 7, 70, 64
9, 119668, Control_c, 7, 1, 28
9, 119676, Control_c, 7, 1, 13
9, 119692, Control_c, 7, 1, 3
9, 119804, Note_on_c, 7, 70, 116
9, 119808, Note_on_c, 7, 61, 106
9, 119808, Note_on_c, 7, 66, 106
9, 119856, Note_off_c, 7, 61, 64
9, 119864, Note_off_c, 7, 66, 64
9, 119880, Note_off_c, 7, 70, 64
9, 120100, Note_on_c, 7, 70, 106
9, 120104, Note_on_c, 7, 66, 106
9, 120104, Note_on_c, 7, 61, 106
9, 120172, Note_off_c, 7, 61, 64
9, 120180, Note_off_c, 7, 66, 64
9, 120188, Note_off_c, 7, 70, 64
9, 120372, Note_on_c, 7, 63, 106
9, 120376, Note_on_c, 7, 68, 106
9, 120376, Note_on_c, 7, 72, 116
9, 120460, Note_off_c, 7, 63, 64
9, 120488, Note_off_c, 7, 68, 64
9, 120496, Note_off_c, 7, 72, 64
9, 120496, Control_c, 7, 1, 0
9, 158208, End_track
10, 0, Start_track
10, 0, Title_t, "SOPRAN SAX"
10, 2088, Program_c, 8, 64
10, 2092, Control_c, 8, 7, 80
10, 2092, Control_c, 8, 10, 64
10, 2092, Control_c, 8, 11, 127
10, 2096, Control_c, 8, 91, 60
10, 2096, Control_c, 8, 93, 0
10, 10752, Note_on_c, 8, 68, 88
10, 10756, Control_c, 8, 1, 0
10, 10756, Pitch_bend_c, 8, 8192
10, 12088, Note_off_c, 8, 68, 64
10, 12092, Note_on_c, 8, 65, 82
10, 12172, Note_off_c, 8, 65, 64
10, 12176, Note_on_c, 8, 63, 78
10, 12280, Note_off_c, 8, 63, 64
10, 12284, Note_on_c, 8, 65, 86
10, 13724, Note_off_c, 8, 65, 64
10, 35352, Note_on_c, 8, 68, 104
10, 36656, Note_off_c, 8, 68, 64
10, 36668, Note_on_c, 8, 65, 95
10, 36740, Note_off_c, 8, 65, 64
10, 36744, Note_on_c, 8, 63, 88
10, 36832, Note_off_c, 8, 63, 64
10, 36836, Note_on_c, 8, 65, 91
10, 38364, Note_off_c, 8, 65, 64
10, 38368, Note_on_c, 8, 61, 91
10, 38952, Note_off_c, 8, 61, 64
10, 38956, Note_on_c, 8, 63, 88
10, 39904, Note_off_c, 8, 63, 64
10, 41488, Note_on_c, 8, 68, 95
10, 42808, Note_off_c, 8, 68, 64
10, 42824, Note_on_c, 8, 65, 91
10, 42892, Note_off_c, 8, 65, 64
10, 42896, Note_on_c, 8, 63, 88
10, 43016, Note_off_c, 8, 63, 64
10, 43028, Note_on_c, 8, 65, 98
10, 44536, Note_off_c, 8, 65, 64
10, 44584, Note_on_c, 8, 61, 88
10, 45104, Note_off_c, 8, 61, 64
10, 45104, Note_on_c, 8, 63, 91
10, 45992, Note_off_c, 8, 63, 64
10, 66072, Note_on_c, 8, 68, 104
10, 67376, Note_off_c, 8, 68, 64
10, 67388, Note_on_c, 8, 65, 95
10, 67460, Note_off_c, 8, 65, 64
10, 67464, Note_on_c, 8, 63, 88
10, 67552, Note_off_c, 8, 63, 64
10, 67556, Note_on_c, 8, 65, 91
10, 69084, Note_off_c, 8, 65, 64
10, 69088, Note_on_c, 8, 61, 91
10, 69672, Note_off_c, 8, 61, 64
10, 69676, Note_on_c, 8, 63, 88
10, 70624, Note_off_c, 8, 63, 64
10, 72208, Note_on_c, 8, 68, 95
10, 73528, Note_off_c, 8, 68, 64
10, 73544, Note_on_c, 8, 65, 91
10, 73612, Note_off_c, 8, 65, 64
10, 73616, Note_on_c, 8, 63, 88
10, 73736, Note_off_c, 8, 63, 64
10, 73748, Note_on_c, 8, 65, 98
10, 75256, Note_off_c, 8, 65, 64
10, 75304, Note_on_c, 8, 61, 88
10, 75824, Note_off_c, 8, 61, 64
10, 75824, Note_on_c, 8, 63, 91
10, 76712, Note_off_c, 8, 63, 64
10, 78360, Note_on_c, 8, 68, 104
10, 79664, Note_off_c, 8, 68, 64
10, 79676, Note_on_c, 8, 65, 95
10, 79748, Note_off_c, 8, 65, 64
10, 79752, Note_on_c, 8, 63, 88
10, 79840, Note_off_c, 8, 63, 64
10, 79844, Note_on_c, 8, 65, 91
10, 81372, Note_off_c, 8, 65, 64
10, 81376, Note_on_c, 8, 61, 91
10, 81960, Note_off_c, 8, 61, 64
10, 81964, Note_on_c, 8, 63, 88
10, 82912, Note_off_c, 8, 63, 64
10, 84496, Note_on_c, 8, 68, 95
10, 85816, Note_off_c, 8, 68, 64
10, 85832, Note_on_c, 8, 65, 91
10, 85900, Note_off_c, 8, 65, 64
10, 85904, Note_on_c, 8, 63, 88
10, 86024, Note_off_c, 8, 63, 64
10, 86036, Note_on_c, 8, 65, 98
10, 87544, Note_off_c, 8, 65, 64
10, 87592, Note_on_c, 8, 61, 88
10, 88112, Note_off_c, 8, 61, 64
10, 88112, Note_on_c, 8, 63, 91
10, 89000, Note_off_c, 8, 63, 64
10, 90268, Note_on_c, 8, 56, 104
10, 90620, Note_on_c, 8, 68, 95
10, 90632, Note_off_c, 8, 56, 64
10, 91960, Note_off_c, 8, 68, 64
10, 91964, Note_on_c, 8, 65, 91
10, 92056, Note_off_c, 8, 65, 64
10, 92060, Note_on_c, 8, 63, 78
10, 92152, Note_off_c, 8, 63, 64
10, 92156, Note_on_c, 8, 73, 104
10, 92156, Note_on_c, 8, 65, 79
10, 92164, Note_on_c, 8, 68, 83
10, 92164, Note_on_c, 8, 70, 94
10, 92328, Note_off_c, 8, 68, 64
10, 92352, Note_off_c, 8, 65, 64
10, 92356, Note_off_c, 8, 70, 64
10, 92384, Note_off_c, 8, 73, 64
10, 92452, Note_on_c, 8, 70, 89
10, 92452, Note_on_c, 8, 65, 84
10, 92456, Note_on_c, 8, 73, 104
10, 92456, Note_on_c, 8, 68, 83
10, 92668, Note_off_c, 8, 68, 64
10, 92696, Note_off_c, 8, 70, 64
10, 92720, Note_off_c, 8, 73, 64
10, 92732, Note_on_c, 8, 68, 89
10, 92736, Note_off_c, 8, 65, 64
10, 92740, Note_on_c, 8, 72, 95
10, 92740, Note_on_c, 8, 63, 84
10, 92968, Note_off_c, 8, 72, 64
10, 93016, Note_off_c, 8, 68, 64
10, 93024, Note_off_c, 8, 63, 64
10, 93308, Note_on_c, 8, 56, 104
10, 93700, Note_on_c, 8, 68, 95
10, 93716, Note_off_c, 8, 56, 64
10, 95040, Note_off_c, 8, 68, 64
10, 95044, Note_on_c, 8, 65, 88
10, 95128, Note_off_c, 8, 65, 64
10, 95140, Note_on_c, 8, 63, 74
10, 95232, Note_on_c, 8, 68, 83
10, 95236, Note_off_c, 8, 63, 64
10, 95236, Note_on_c, 8, 73, 95
10, 95236, Note_on_c, 8, 70, 89
10, 95236, Note_on_c, 8, 65, 84
10, 95404, Note_off_c, 8, 70, 64
10, 95408, Note_off_c, 8, 68, 64
10, 95416, Note_off_c, 8, 65, 64
10, 95424, Note_off_c, 8, 73, 64
10, 95528, Note_on_c, 8, 73, 109
10, 95528, Note_on_c, 8, 70, 94
10, 95528, Note_on_c, 8, 68, 83
10, 95528, Note_on_c, 8, 65, 89
10, 95776, Note_off_c, 8, 68, 64
10, 95792, Note_off_c, 8, 70, 64
10, 95800, Note_off_c, 8, 73, 64
10, 95812, Note_off_c, 8, 65, 64
10, 95812, Note_on_c, 8, 72, 95
10, 95812, Note_on_c, 8, 68, 89
10, 95816, Note_on_c, 8, 63, 70
10, 96004, Note_off_c, 8, 68, 64
10, 96028, Note_off_c, 8, 72, 64
10, 96096, Note_off_c, 8, 63, 64
10, 96388, Note_on_c, 8, 56, 95
10, 96764, Note_off_c, 8, 56, 64
10, 96772, Note_on_c, 8, 68, 95
10, 98096, Note_off_c, 8, 68, 64
10, 98108, Note_on_c, 8, 65, 88
10, 98192, Note_off_c, 8, 65, 64
10, 98204, Note_on_c, 8, 63, 80
10, 98300, Note_off_c, 8, 63, 64
10, 98300, Note_on_c, 8, 73, 104
10, 98300, Note_on_c, 8, 65, 84
10, 98304, Note_on_c, 8, 70, 94
10, 98308, Note_on_c, 8, 68, 83
10, 98464, Note_off_c, 8, 68, 64
10, 98464, Note_off_c, 8, 65, 64
10, 98472, Note_off_c, 8, 73, 64
10, 98484, Note_off_c, 8, 70, 64
10, 98596, Note_on_c, 8, 70, 94
10, 98596, Note_on_c, 8, 65, 84
10, 98600, Note_on_c, 8, 73, 104
10, 98600, Note_on_c, 8, 68, 83
10, 98800, Note_off_c, 8, 68, 64
10, 98832, Note_off_c, 8, 70, 64
10, 98880, Note_off_c, 8, 73, 64
10, 98880, Note_off_c, 8, 65, 64
10, 98880, Note_on_c, 8, 68, 89
10, 98884, Note_on_c, 8, 72, 109
10, 98884, Note_on_c, 8, 63, 70
10, 99072, Note_off_c, 8, 72, 64
10, 99076, Note_off_c, 8, 63, 64
10, 99120, Note_off_c, 8, 68, 64
10, 99452, Note_on_c, 8, 56, 104
10, 99836, Note_on_c, 8, 68, 95
10, 99840, Note_off_c, 8, 56, 64
10, 101184, Note_on_c, 8, 65, 91
10, 101192, Note_off_c, 8, 68, 64
10, 101268, Note_off_c, 8, 65, 64
10, 101276, Note_on_c, 8, 63, 71
10, 101364, Note_off_c, 8, 63, 64
10, 101372, Note_on_c, 8, 70, 94
10, 101372, Note_on_c, 8, 65, 79
10, 101372, Note_on_c, 8, 73, 104
10, 101380, Note_on_c, 8, 68, 83
10, 101536, Note_off_c, 8, 68, 64
10, 101540, Note_off_c, 8, 65, 64
10, 101552, Note_off_c, 8, 70, 64
10, 101580, Note_off_c, 8, 73, 64
10, 101664, Note_on_c, 8, 73, 104
10, 101668, Note_on_c, 8, 70, 89
10, 101668, Note_on_c, 8, 65, 84
10, 101672, Note_on_c, 8, 68, 83
10, 101868, Note_off_c, 8, 68, 64
10, 101888, Note_off_c, 8, 70, 64
10, 101900, Note_off_c, 8, 65, 64
10, 101944, Note_off_c, 8, 73, 64
10, 101944, Note_on_c, 8, 68, 80
10, 101944, Note_on_c, 8, 63, 70
10, 101956, Note_on_c, 8, 72, 98
10, 102196, Note_off_c, 8, 72, 64
10, 102212, Note_off_c, 8, 68, 64
10, 102236, Note_off_c, 8, 63, 64
10, 133656, Note_on_c, 8, 68, 104
10, 134960, Note_off_c, 8, 68, 64
10, 134972, Note_on_c, 8, 65, 95
10, 135044, Note_off_c, 8, 65, 64
10, 135048, Note_on_c, 8, 63, 88
10, 135136, Note_off_c, 8, 63, 64
10, 135140, Note_on_c, 8, 65, 91
10, 136668, Note_off_c, 8, 65, 64
10, 136672, Note_on_c, 8, 61, 91
10, 137256, Note_off_c, 8, 61, 64
10, 137260, Note_on_c, 8, 63, 88
10, 138208, Note_off_c, 8, 63, 64
10, 139792, Note_on_c, 8, 68, 95
10, 141112, Note_off_c, 8, 68, 64
10, 141128, Note_on_c, 8, 65, 91
10, 141196, Note_off_c, 8, 65, 64
10, 141200, Note_on_c, 8, 63, 88
10, 141320, Note_off_c, 8, 63, 64
10, 141332, Note_on_c, 8, 65, 98
10, 142840, Note_off_c, 8, 65, 64
10, 142888, Note_on_c, 8, 61, 88
10, 143408, Note_off_c, 8, 61, 64
10, 143408, Note_on_c, 8, 63, 91
10, 144296, Note_off_c, 8, 63, 64
10, 145944, Note_on_c, 8, 68, 104
10, 147248, Note_off_c, 8, 68, 64
10, 147260, Note_on_c, 8, 65, 84
10, 147332, Note_off_c, 8, 65, 64
10, 147336, Note_on_c, 8, 63, 77
10, 147424, Note_off_c, 8, 63, 64
10, 147428, Note_on_c, 8, 65, 79
10, 148956, Note_off_c, 8, 65, 64
10, 148960, Note_on_c, 8, 61, 66
10, 149544, Note_off_c, 8, 61, 64
10, 149548, Note_on_c, 8, 63, 59
10, 150496, Note_off_c, 8, 63, 64
10, 152080, Note_on_c, 8, 68, 41
10, 153400, Note_off_c, 8, 68, 64
10, 153416, Note_on_c, 8, 65, 29
10, 153484, Note_off_c, 8, 65, 64
10, 153488, Note_on_c, 8, 63, 27
10, 153608, Note_off_c, 8, 63, 64
10, 153620, Note_on_c, 8, 65, 29
10, 155128, Note_off_c, 8, 65, 64
10, 155176, Note_on_c, 8, 61, 13
10, 155696, Note_off_c, 8, 61, 64
10, 155696, Note_on_c, 8, 63, 10
10, 156584, Note_off_c, 8, 63, 64
10, 158208, End_track
11, 0, Start_track
11, 0, Title_t, "DRUMS"
11, 2112, Control_c, 9, 7, 105
11, 2112, Control_c, 9, 11, 127
11, 2116, Control_c, 9, 91, 46
11, 2116, Control_c, 9, 93, 0
11, 4608, Note_on_c, 9, 35, 110
11, 4608, Note_on_c, 9, 69, 74
11, 4608, Note_on_c, 9, 60, 54
11, 4612, Note_off_c, 9, 60, 64
11, 4612, Note_off_c, 9, 69, 64
11, 4612, Note_off_c, 9, 35, 64
11, 4612, Note_on_c, 9, 44, 76
11, 4612, Control_c, 9, 1, 0
11, 4612, Pitch_bend_c, 9, 8192
11, 4616, Note_off_c, 9, 44, 64
11, 4700, Note_on_c, 9, 69, 28
11, 4704, Note_off_c, 9, 69, 64
11, 4784, Note_on_c, 9, 69, 102
11, 4788, Note_off_c, 9, 69, 64
11, 4804, Note_on_c, 9, 46, 63
11, 4808, Note_off_c, 9, 46, 64
11, 4880, Note_on_c, 9, 69, 102
11, 4884, Note_off_c, 9, 69, 64
11, 4896, Note_on_c, 9, 60, 54
11, 4900, Note_off_c, 9, 60, 64
11, 4992, Note_on_c, 9, 35, 114
11, 4996, Note_off_c, 9, 35, 64
11, 4996, Note_on_c, 9, 40, 110
11, 4996, Note_on_c, 9, 44, 60
11, 5000, Note_off_c, 9, 44, 64
11, 5000, Note_off_c, 9, 40, 64
11, 5000, Note_on_c, 9, 39, 95
11, 5004, Note_off_c, 9, 39, 64
11, 5088, Note_on_c, 9, 60, 43
11, 5092, Note_off_c, 9, 60, 64
11, 5184, Note_on_c, 9, 70, 81
11, 5184, Note_on_c, 9, 63, 49
11, 5188, Note_off_c, 9, 63, 64
11, 5188, Note_off_c, 9, 70, 64
11, 5280, Note_on_c, 9, 70, 99
11, 5284, Note_off_c, 9, 70, 64
11, 5376, Note_on_c, 9, 35, 110
11, 5376, Note_on_c, 9, 60, 54
11, 5380, Note_off_c, 9, 60, 64
11, 5380, Note_off_c, 9, 35, 64
11, 5568, Note_on_c, 9, 70, 99
11, 5572, Note_off_c, 9, 70, 64
11, 5572, Note_on_c, 9, 46, 67
11, 5576, Note_off_c, 9, 46, 64
11, 5664, Note_on_c, 9, 60, 43
11, 5668, Note_off_c, 9, 60, 64
11, 5760, Note_on_c, 9, 35, 114
11, 5764, Note_off_c, 9, 35, 64
11, 5764, Note_on_c, 9, 40, 110
11, 5764, Note_on_c, 9, 44, 67
11, 5768, Note_off_c, 9, 44, 64
11, 5768, Note_off_c, 9, 40, 64
11, 5768, Note_on_c, 9, 39, 95
11, 5772, Note_off_c, 9, 39, 64
11, 5856, Note_on_c, 9, 60, 49
11, 5860, Note_off_c, 9, 60, 64
11, 5952, Note_on_c, 9, 70, 99
11, 5952, Note_on_c, 9, 63, 54
11, 5956, Note_off_c, 9, 63, 64
11, 5956, Note_off_c, 9, 70, 64
11, 5956, Note_on_c, 9, 46, 63
11, 5960, Note_off_c, 9, 46, 64
11, 6144, Note_on_c, 9, 35, 110
11, 6144, Note_on_c, 9, 60, 54
11, 6148, Note_off_c, 9, 60, 64
11, 6148, Note_off_c, 9, 35, 64
11, 6148, Note_on_c, 9, 44, 63
11, 6152, Note_off_c, 9, 44, 64
11, 6336, Note_on_c, 9, 70, 85
11, 6340, Note_off_c, 9, 70, 64
11, 6340, Note_on_c, 9, 46, 60
11, 6344, Note_off_c, 9, 46, 64
11, 6432, Note_on_c, 9, 60, 33
11, 6436, Note_off_c, 9, 60, 64
11, 6528, Note_on_c, 9, 35, 110
11, 6532, Note_off_c, 9, 35, 64
11, 6532, Note_on_c, 9, 40, 110
11, 6532, Note_on_c, 9, 44, 63
11, 6536, Note_off_c, 9, 44, 64
11, 6536, Note_off_c, 9, 40, 64
11, 6536, Note_on_c, 9, 39, 95
11, 6540, Note_off_c, 9, 39, 64
11, 6624, Note_on_c, 9, 60, 36
11, 6628, Note_off_c, 9, 60, 64
11, 6720, Note_on_c, 9, 70, 78
11, 6720, Note_on_c, 9, 63, 49
11, 6724, Note_off_c, 9, 63, 64
11, 6724, Note_off_c, 9, 70, 64
11, 6724, Note_on_c, 9, 46, 54
11, 6728, Note_off_c, 9, 46, 64
11, 6816, Note_on_c, 9, 70, 94
11, 6820, Note_off_c, 9, 70, 64
11, 6912, Note_on_c, 9, 35, 110
11, 6912, Note_on_c, 9, 60, 54
11, 6916, Note_off_c, 9, 60, 64
11, 6916, Note_off_c, 9, 35, 64
11, 6916, Note_on_c, 9, 44, 63
11, 6920, Note_off_c, 9, 44, 64
11, 7104, Note_on_c, 9, 70, 94
11, 7108, Note_off_c, 9, 70, 64
11, 7108, Note_on_c, 9, 46, 54
11, 7112, Note_off_c, 9, 46, 64
11, 7200, Note_on_c, 9, 60, 43
11, 7204, Note_off_c, 9, 60, 64
11, 7296, Note_on_c, 9, 35, 114
11, 7300, Note_off_c, 9, 35, 64
11, 7300, Note_on_c, 9, 40, 110
11, 7300, Note_on_c, 9, 44, 63
11, 7304, Note_off_c, 9, 44, 64
11, 7304, Note_off_c, 9, 40, 64
11, 7304, Note_on_c, 9, 39, 95
11, 7308, Note_off_c, 9, 39, 64
11, 7392, Note_on_c, 9, 60, 40
11, 7396, Note_off_c, 9, 60, 64
11, 7488, Note_on_c, 9, 70, 81
11, 7488, Note_on_c, 9, 63, 49
11, 7492, Note_off_c, 9, 63, 64
11, 7492, Note_off_c, 9, 70, 64
11, 7492, Note_on_c, 9, 46, 60
11, 7496, Note_off_c, 9, 46, 64
11, 7584, Note_on_c, 9, 70, 94
11, 7588, Note_off_c, 9, 70, 64
11, 7680, Note_on_c, 9, 35, 114
11, 7680, Note_on_c, 9, 69, 74
11, 7680, Note_on_c, 9, 60, 54
11, 7684, Note_off_c, 9, 60, 64
11, 7684, Note_off_c, 9, 69, 64
11, 7684, Note_off_c, 9, 35, 64
11, 7684, Note_on_c, 9, 44, 63
11, 7688, Note_off_c, 9, 44, 64
11, 7772, Note_on_c, 9, 69, 28
11, 7776, Note_off_c, 9, 69, 64
11, 7856, Note_on_c, 9, 69, 102
11, 7860, Note_off_c, 9, 69, 64
11, 7872, Note_on_c, 9, 70, 94
11, 7876, Note_off_c, 9, 70, 64
11, 7876, Note_on_c, 9, 46, 67
11, 7880, Note_off_c, 9, 46, 64
11, 7952, Note_on_c, 9, 69, 102
11, 7956, Note_off_c, 9, 69, 64
11, 7968, Note_on_c, 9, 60, 43
11, 7972, Note_off_c, 9, 60, 64
11, 8064, Note_on_c, 9, 35, 114
11, 8068, Note_off_c, 9, 35, 64
11, 8068, Note_on_c, 9, 40, 114
11, 8068, Note_on_c, 9, 44, 76
11, 8072, Note_off_c, 9, 44, 64
11, 8072, Note_off_c, 9, 40, 64
11, 8072, Note_on_c, 9, 39, 99
11, 8076, Note_off_c, 9, 39, 64
11, 8160, Note_on_c, 9, 60, 40
11, 8164, Note_off_c, 9, 60, 64
11, 8256, Note_on_c, 9, 70, 72
11, 8256, Note_on_c, 9, 63, 40
11, 8260, Note_off_c, 9, 63, 64
11, 8260, Note_off_c, 9, 70, 64
11, 8352, Note_on_c, 9, 70, 85
11, 8356, Note_off_c, 9, 70, 64
11, 8448, Note_on_c, 9, 35, 110
11, 8448, Note_on_c, 9, 60, 54
11, 8452, Note_off_c, 9, 60, 64
11, 8452, Note_off_c, 9, 35, 64
11, 8640, Note_on_c, 9, 70, 94
11, 8644, Note_off_c, 9, 70, 64
11, 8644, Note_on_c, 9, 46, 63
11, 8648, Note_off_c, 9, 46, 64
11, 8736, Note_on_c, 9, 60, 40
11, 8740, Note_off_c, 9, 60, 64
11, 8832, Note_on_c, 9, 35, 114
11, 8836, Note_off_c, 9, 35, 64
11, 8836, Note_on_c, 9, 40, 114
11, 8836, Note_on_c, 9, 44, 63
11, 8840, Note_off_c, 9, 44, 64
11, 8840, Note_off_c, 9, 40, 64
11, 8840, Note_on_c, 9, 39, 99
11, 8844, Note_off_c, 9, 39, 64
11, 8928, Note_on_c, 9, 60, 43
11, 8932, Note_off_c, 9, 60, 64
11, 9024, Note_on_c, 9, 70, 94
11, 9024, Note_on_c, 9, 63, 54
11, 9028, Note_off_c, 9, 63, 64
11, 9028, Note_off_c, 9, 70, 64
11, 9028, Note_on_c, 9, 46, 63
11, 9032, Note_off_c, 9, 46, 64
11, 9216, Note_on_c, 9, 35, 114
11, 9216, Note_on_c, 9, 60, 49
11, 9220, Note_off_c, 9, 60, 64
11, 9220, Note_off_c, 9, 35, 64
11, 9220, Note_on_c, 9, 44, 67
11, 9224, Note_off_c, 9, 44, 64
11, 9408, Note_on_c, 9, 70, 99
11, 9412, Note_off_c, 9, 70, 64
11, 9412, Note_on_c, 9, 46, 63
11, 9416, Note_off_c, 9, 46, 64
11, 9504, Note_on_c, 9, 60, 40
11, 9508, Note_off_c, 9, 60, 64
11, 9600, Note_on_c, 9, 35, 110
11, 9604, Note_off_c, 9, 35, 64
11, 9604, Note_on_c, 9, 40, 114
11, 9604, Note_on_c, 9, 44, 63
11, 9608, Note_off_c, 9, 44, 64
11, 9608, Note_off_c, 9, 40, 64
11, 9608, Note_on_c, 9, 39, 99
11, 9612, Note_off_c, 9, 39, 64
11, 9696, Note_on_c, 9, 60, 43
11, 9700, Note_off_c, 9, 60, 64
11, 9792, Note_on_c, 9, 70, 78
11, 9792, Note_on_c, 9, 63, 40
11, 9796, Note_off_c, 9, 63, 64
11, 9796, Note_off_c, 9, 70, 64
11, 9796, Note_on_c, 9, 46, 63
11, 9800, Note_off_c, 9, 46, 64
11, 9888, Note_on_c, 9, 70, 85
11, 9892, Note_off_c, 9, 70, 64
11, 9984, Note_on_c, 9, 35, 114
11, 9984, Note_on_c, 9, 60, 49
11, 9988, Note_off_c, 9, 60, 64
11, 9988, Note_off_c, 9, 35, 64
11, 9988, Note_on_c, 9, 44, 63
11, 9992, Note_off_c, 9, 44, 64
11, 10176, Note_on_c, 9, 70, 99
11, 10180, Note_off_c, 9, 70, 64
11, 10180, Note_on_c, 9, 46, 63
11, 10184, Note_off_c, 9, 46, 64
11, 10272, Note_on_c, 9, 60, 40
11, 10276, Note_off_c, 9, 60, 64
11, 10368, Note_on_c, 9, 35, 114
11, 10372, Note_off_c, 9, 35, 64
11, 10372, Note_on_c, 9, 40, 114
11, 10372, Note_on_c, 9, 44, 67
11, 10376, Note_off_c, 9, 44, 64
11, 10376, Note_off_c, 9, 40, 64
11, 10376, Note_on_c, 9, 39, 99
11, 10380, Note_off_c, 9, 39, 64
11, 10464, Note_on_c, 9, 60, 40
11, 10468, Note_off_c, 9, 60, 64
11, 10560, Note_on_c, 9, 70, 81
11, 10560, Note_on_c, 9, 63, 49
11, 10564, Note_off_c, 9, 63, 64
11, 10564, Note_off_c, 9, 70, 64
11, 10564, Note_on_c, 9, 46, 67
11, 10568, Note_off_c, 9, 46, 64
11, 10656, Note_on_c, 9, 70, 99
11, 10660, Note_off_c, 9, 70, 64
11, 10752, Note_on_c, 9, 35, 110
11, 10752, Note_on_c, 9, 69, 74
11, 10752, Note_on_c, 9, 60, 54
11, 10756, Note_off_c, 9, 60, 64
11, 10756, Note_off_c, 9, 69, 64
11, 10756, Note_off_c, 9, 35, 64
11, 10756, Note_on_c, 9, 44, 76
11, 10760, Note_off_c, 9, 44, 64
11, 10844, Note_on_c, 9, 69, 28
11, 10848, Note_off_c, 9, 69, 64
11, 10928, Note_on_c, 9, 69, 102
11, 10932, Note_off_c, 9, 69, 64
11, 10944, Note_on_c, 9, 70, 99
11, 10948, Note_off_c, 9, 70, 64
11, 10948, Note_on_c, 9, 46, 63
11, 10952, Note_off_c, 9, 46, 64
11, 11024, Note_on_c, 9, 69, 102
11, 11028, Note_off_c, 9, 69, 64
11, 11040, Note_on_c, 9, 60, 54
11, 11044, Note_off_c, 9, 60, 64
11, 11136, Note_on_c, 9, 35, 114
11, 11140, Note_off_c, 9, 35, 64
11, 11140, Note_on_c, 9, 40, 110
11, 11140, Note_on_c, 9, 44, 60
11, 11144, Note_off_c, 9, 44, 64
11, 11144, Note_off_c, 9, 40, 64
11, 11144, Note_on_c, 9, 39, 95
11, 11148, Note_off_c, 9, 39, 64
11, 11232, Note_on_c, 9, 60, 43
11, 11236, Note_off_c, 9, 60, 64
11, 11328, Note_on_c, 9, 70, 81
11, 11328, Note_on_c, 9, 63, 49
11, 11332, Note_off_c, 9, 63, 64
11, 11332, Note_off_c, 9, 70, 64
11, 11424, Note_on_c, 9, 70, 99
11, 11428, Note_off_c, 9, 70, 64
11, 11520, Note_on_c, 9, 35, 110
11, 11520, Note_on_c, 9, 60, 54
11, 11524, Note_off_c, 9, 60, 64
11, 11524, Note_off_c, 9, 35, 64
11, 11712, Note_on_c, 9, 70, 94
11, 11716, Note_off_c, 9, 70, 64
11, 11716, Note_on_c, 9, 46, 67
11, 11720, Note_off_c, 9, 46, 64
11, 11808, Note_on_c, 9, 60, 43
11, 11812, Note_off_c, 9, 60, 64
11, 11904, Note_on_c, 9, 35, 114
11, 11908, Note_off_c, 9, 35, 64
11, 11908, Note_on_c, 9, 40, 110
11, 11908, Note_on_c, 9, 44, 67
11, 11912, Note_off_c, 9, 44, 64
11, 11912, Note_off_c, 9, 40, 64
11, 11912, Note_on_c, 9, 39, 95
11, 11916, Note_off_c, 9, 39, 64
11, 12000, Note_on_c, 9, 60, 49
11, 12004, Note_off_c, 9, 60, 64
11, 12096, Note_on_c, 9, 70, 94
11, 12096, Note_on_c, 9, 63, 54
11, 12100, Note_off_c, 9, 63, 64
11, 12100, Note_off_c, 9, 70, 64
11, 12100, Note_on_c, 9, 46, 63
11, 12104, Note_off_c, 9, 46, 64
11, 12288, Note_on_c, 9, 35, 110
11, 12288, Note_on_c, 9, 60, 54
11, 12292, Note_off_c, 9, 60, 64
11, 12292, Note_off_c, 9, 35, 64
11, 12292, Note_on_c, 9, 44, 63
11, 12296, Note_off_c, 9, 44, 64
11, 12480, Note_on_c, 9, 70, 94
11, 12484, Note_off_c, 9, 70, 64
11, 12484, Note_on_c, 9, 46, 60
11, 12488, Note_off_c, 9, 46, 64
11, 12576, Note_on_c, 9, 60, 33
11, 12580, Note_off_c, 9, 60, 64
11, 12672, Note_on_c, 9, 35, 110
11, 12676, Note_off_c, 9, 35, 64
11, 12676, Note_on_c, 9, 40, 110
11, 12676, Note_on_c, 9, 44, 63
11, 12680, Note_off_c, 9, 44, 64
11, 12680, Note_off_c, 9, 40, 64
11, 12680, Note_on_c, 9, 39, 95
11, 12684, Note_off_c, 9, 39, 64
11, 12768, Note_on_c, 9, 60, 36
11, 12772, Note_off_c, 9, 60, 64
11, 12864, Note_on_c, 9, 70, 78
11, 12864, Note_on_c, 9, 63, 49
11, 12868, Note_off_c, 9, 63, 64
11, 12868, Note_off_c, 9, 70, 64
11, 12868, Note_on_c, 9, 46, 54
11, 12872, Note_off_c, 9, 46, 64
11, 12960, Note_on_c, 9, 70, 94
11, 12964, Note_off_c, 9, 70, 64
11, 13056, Note_on_c, 9, 35, 110
11, 13056, Note_on_c, 9, 60, 54
11, 13060, Note_off_c, 9, 60, 64
11, 13060, Note_off_c, 9, 35, 64
11, 13060, Note_on_c, 9, 44, 63
11, 13064, Note_off_c, 9, 44, 64
11, 13248, Note_on_c, 9, 70, 94
11, 13252, Note_off_c, 9, 70, 64
11, 13252, Note_on_c, 9, 46, 54
11, 13256, Note_off_c, 9, 46, 64
11, 13344, Note_on_c, 9, 60, 43
11, 13348, Note_off_c, 9, 60, 64
11, 13440, Note_on_c, 9, 35, 114
11, 13444, Note_off_c, 9, 35, 64
11, 13444, Note_on_c, 9, 40, 110
11, 13444, Note_on_c, 9, 44, 63
11, 13448, Note_off_c, 9, 44, 64
11, 13448, Note_off_c, 9, 40, 64
11, 13448, Note_on_c, 9, 39, 95
11, 13452, Note_off_c, 9, 39, 64
11, 13536, Note_on_c, 9, 60, 40
11, 13540, Note_off_c, 9, 60, 64
11, 13632, Note_on_c, 9, 70, 78
11, 13632, Note_on_c, 9, 63, 49
11, 13636, Note_off_c, 9, 63, 64
11, 13636, Note_off_c, 9, 70, 64
11, 13636, Note_on_c, 9, 46, 60
11, 13640, Note_off_c, 9, 46, 64
11, 13728, Note_on_c, 9, 70, 99
11, 13732, Note_off_c, 9, 70, 64
11, 13824, Note_on_c, 9, 35, 114
11, 13824, Note_on_c, 9, 69, 74
11, 13824, Note_on_c, 9, 60, 54
11, 13828, Note_off_c, 9, 60, 64
11, 13828, Note_off_c, 9, 69, 64
11, 13828, Note_off_c, 9, 35, 64
11, 13828, Note_on_c, 9, 44, 63
11, 13832, Note_off_c, 9, 44, 64
11, 13916, Note_on_c, 9, 69, 28
11, 13920, Note_off_c, 9, 69, 64
11, 14000, Note_on_c, 9, 69, 102
11, 14004, Note_off_c, 9, 69, 64
11, 14016, Note_on_c, 9, 70, 94
11, 14020, Note_off_c, 9, 70, 64
11, 14020, Note_on_c, 9, 46, 67
11, 14024, Note_off_c, 9, 46, 64
11, 14096, Note_on_c, 9, 69, 102
11, 14100, Note_off_c, 9, 69, 64
11, 14112, Note_on_c, 9, 60, 43
11, 14116, Note_off_c, 9, 60, 64
11, 14208, Note_on_c, 9, 35, 114
11, 14212, Note_off_c, 9, 35, 64
11, 14212, Note_on_c, 9, 40, 114
11, 14212, Note_on_c, 9, 44, 76
11, 14216, Note_off_c, 9, 44, 64
11, 14216, Note_off_c, 9, 40, 64
11, 14216, Note_on_c, 9, 39, 99
11, 14220, Note_off_c, 9, 39, 64
11, 14304, Note_on_c, 9, 60, 40
11, 14308, Note_off_c, 9, 60, 64
11, 14400, Note_on_c, 9, 70, 72
11, 14400, Note_on_c, 9, 63, 40
11, 14404, Note_off_c, 9, 63, 64
11, 14404, Note_off_c, 9, 70, 64
11, 14496, Note_on_c, 9, 70, 85
11, 14500, Note_off_c, 9, 70, 64
11, 14592, Note_on_c, 9, 35, 110
11, 14592, Note_on_c, 9, 60, 54
11, 14596, Note_off_c, 9, 60, 64
11, 14596, Note_off_c, 9, 35, 64
11, 14784, Note_on_c, 9, 70, 94
11, 14788, Note_off_c, 9, 70, 64
11, 14788, Note_on_c, 9, 46, 63
11, 14792, Note_off_c, 9, 46, 64
11, 14880, Note_on_c, 9, 60, 40
11, 14884, Note_off_c, 9, 60, 64
11, 14976, Note_on_c, 9, 35, 114
11, 14980, Note_off_c, 9, 35, 64
11, 14980, Note_on_c, 9, 40, 114
11, 14980, Note_on_c, 9, 44, 63
11, 14984, Note_off_c, 9, 44, 64
11, 14984, Note_off_c, 9, 40, 64
11, 14984, Note_on_c, 9, 39, 99
11, 14988, Note_off_c, 9, 39, 64
11, 15072, Note_on_c, 9, 60, 43
11, 15076, Note_off_c, 9, 60, 64
11, 15168, Note_on_c, 9, 70, 94
11, 15168, Note_on_c, 9, 63, 54
11, 15172, Note_off_c, 9, 63, 64
11, 15172, Note_off_c, 9, 70, 64
11, 15172, Note_on_c, 9, 46, 63
11, 15176, Note_off_c, 9, 46, 64
11, 15360, Note_on_c, 9, 35, 114
11, 15360, Note_on_c, 9, 60, 49
11, 15364, Note_off_c, 9, 60, 64
11, 15364, Note_off_c, 9, 35, 64
11, 15364, Note_on_c, 9, 44, 67
11, 15368, Note_off_c, 9, 44, 64
11, 15552, Note_on_c, 9, 70, 99
11, 15556, Note_off_c, 9, 70, 64
11, 15556, Note_on_c, 9, 46, 63
11, 15560, Note_off_c, 9, 46, 64
11, 15648, Note_on_c, 9, 60, 40
11, 15652, Note_off_c, 9, 60, 64
11, 15744, Note_on_c, 9, 35, 110
11, 15748, Note_off_c, 9, 35, 64
11, 15748, Note_on_c, 9, 40, 114
11, 15748, Note_on_c, 9, 44, 63
11, 15752, Note_off_c, 9, 44, 64
11, 15752, Note_off_c, 9, 40, 64
11, 15752, Note_on_c, 9, 39, 99
11, 15756, Note_off_c, 9, 39, 64
11, 15840, Note_on_c, 9, 60, 43
11, 15844, Note_off_c, 9, 60, 64
11, 15936, Note_on_c, 9, 70, 78
11, 15936, Note_on_c, 9, 63, 40
11, 15940, Note_off_c, 9, 63, 64
11, 15940, Note_off_c, 9, 70, 64
11, 15940, Note_on_c, 9, 46, 63
11, 15944, Note_off_c, 9, 46, 64
11, 16032, Note_on_c, 9, 70, 85
11, 16036, Note_off_c, 9, 70, 64
11, 16128, Note_on_c, 9, 35, 114
11, 16128, Note_on_c, 9, 60, 49
11, 16132, Note_off_c, 9, 60, 64
11, 16132, Note_off_c, 9, 35, 64
11, 16132, Note_on_c, 9, 40, 110
11, 16132, Note_on_c, 9, 44, 63
11, 16136, Note_off_c, 9, 44, 64
11, 16136, Note_off_c, 9, 40, 64
11, 16136, Note_on_c, 9, 39, 95
11, 16140, Note_off_c, 9, 39, 64
11, 16320, Note_on_c, 9, 70, 99
11, 16324, Note_off_c, 9, 70, 64
11, 16324, Note_on_c, 9, 46, 63
11, 16328, Note_off_c, 9, 46, 64
11, 16416, Note_on_c, 9, 60, 40
11, 16420, Note_off_c, 9, 60, 64
11, 16512, Note_on_c, 9, 35, 114
11, 16516, Note_off_c, 9, 35, 64
11, 16516, Note_on_c, 9, 40, 114
11, 16516, Note_on_c, 9, 44, 67
11, 16520, Note_off_c, 9, 44, 64
11, 16520, Note_off_c, 9, 40, 64
11, 16520, Note_on_c, 9, 39, 99
11, 16524, Note_off_c, 9, 39, 64
11, 16608, Note_on_c, 9, 60, 40
11, 16612, Note_off_c, 9, 60, 64
11, 16612, Note_on_c, 9, 40, 110
11, 16616, Note_off_c, 9, 40, 64
11, 16616, Note_on_c, 9, 39, 95
11, 16620, Note_off_c, 9, 39, 64
11, 16704, Note_on_c, 9, 70, 81
11, 16704, Note_on_c, 9, 63, 49
11, 16708, Note_off_c, 9, 63, 64
11, 16708, Note_off_c, 9, 70, 64
11, 16708, Note_on_c, 9, 46, 67
11, 16712, Note_off_c, 9, 46, 64
11, 16800, Note_on_c, 9, 70, 99
11, 16804, Note_off_c, 9, 70, 64
11, 16896, Note_on_c, 9, 35, 110
11, 16896, Note_on_c, 9, 69, 74
11, 16896, Note_on_c, 9, 60, 54
11, 16900, Note_off_c, 9, 60, 64
11, 16900, Note_off_c, 9, 69, 64
11, 16900, Note_off_c, 9, 35, 64
11, 16900, Note_on_c, 9, 44, 76
11, 16904, Note_off_c, 9, 44, 64
11, 16988, Note_on_c, 9, 69, 28
11, 16992, Note_off_c, 9, 69, 64
11, 17072, Note_on_c, 9, 69, 102
11, 17076, Note_off_c, 9, 69, 64
11, 17088, Note_on_c, 9, 70, 99
11, 17092, Note_off_c, 9, 70, 64
11, 17092, Note_on_c, 9, 46, 63
11, 17096, Note_off_c, 9, 46, 64
11, 17168, Note_on_c, 9, 69, 102
11, 17172, Note_off_c, 9, 69, 64
11, 17184, Note_on_c, 9, 60, 54
11, 17188, Note_off_c, 9, 60, 64
11, 17280, Note_on_c, 9, 35, 114
11, 17284, Note_off_c, 9, 35, 64
11, 17284, Note_on_c, 9, 40, 110
11, 17284, Note_on_c, 9, 44, 60
11, 17288, Note_off_c, 9, 44, 64
11, 17288, Note_off_c, 9, 40, 64
11, 17288, Note_on_c, 9, 39, 95
11, 17292, Note_off_c, 9, 39, 64
11, 17376, Note_on_c, 9, 60, 43
11, 17380, Note_off_c, 9, 60, 64
11, 17472, Note_on_c, 9, 70, 81
11, 17472, Note_on_c, 9, 63, 49
11, 17476, Note_off_c, 9, 63, 64
11, 17476, Note_off_c, 9, 70, 64
11, 17568, Note_on_c, 9, 70, 99
11, 17572, Note_off_c, 9, 70, 64
11, 17664, Note_on_c, 9, 35, 110
11, 17664, Note_on_c, 9, 60, 54
11, 17668, Note_off_c, 9, 60, 64
11, 17668, Note_off_c, 9, 35, 64
11, 17856, Note_on_c, 9, 70, 94
11, 17860, Note_off_c, 9, 70, 64
11, 17860, Note_on_c, 9, 46, 67
11, 17864, Note_off_c, 9, 46, 64
11, 17952, Note_on_c, 9, 60, 43
11, 17956, Note_off_c, 9, 60, 64
11, 18048, Note_on_c, 9, 35, 114
11, 18052, Note_off_c, 9, 35, 64
11, 18052, Note_on_c, 9, 40, 110
11, 18052, Note_on_c, 9, 44, 67
11, 18056, Note_off_c, 9, 44, 64
11, 18056, Note_off_c, 9, 40, 64
11, 18056, Note_on_c, 9, 39, 95
11, 18060, Note_off_c, 9, 39, 64
11, 18144, Note_on_c, 9, 60, 49
11, 18148, Note_off_c, 9, 60, 64
11, 18240, Note_on_c, 9, 70, 94
11, 18240, Note_on_c, 9, 63, 54
11, 18244, Note_off_c, 9, 63, 64
11, 18244, Note_off_c, 9, 70, 64
11, 18244, Note_on_c, 9, 46, 63
11, 18248, Note_off_c, 9, 46, 64
11, 18432, Note_on_c, 9, 35, 110
11, 18432, Note_on_c, 9, 60, 54
11, 18436, Note_off_c, 9, 60, 64
11, 18436, Note_off_c, 9, 35, 64
11, 18436, Note_on_c, 9, 44, 63
11, 18440, Note_off_c, 9, 44, 64
11, 18624, Note_on_c, 9, 70, 94
11, 18628, Note_off_c, 9, 70, 64
11, 18628, Note_on_c, 9, 46, 60
11, 18632, Note_off_c, 9, 46, 64
11, 18720, Note_on_c, 9, 60, 33
11, 18724, Note_off_c, 9, 60, 64
11, 18816, Note_on_c, 9, 35, 110
11, 18820, Note_off_c, 9, 35, 64
11, 18820, Note_on_c, 9, 40, 110
11, 18820, Note_on_c, 9, 44, 63
11, 18824, Note_off_c, 9, 44, 64
11, 18824, Note_off_c, 9, 40, 64
11, 18824, Note_on_c, 9, 39, 95
11, 18828, Note_off_c, 9, 39, 64
11, 18912, Note_on_c, 9, 60, 36
11, 18916, Note_off_c, 9, 60, 64
11, 19008, Note_on_c, 9, 70, 78
11, 19008, Note_on_c, 9, 63, 49
11, 19012, Note_off_c, 9, 63, 64
11, 19012, Note_off_c, 9, 70, 64
11, 19012, Note_on_c, 9, 46, 54
11, 19016, Note_off_c, 9, 46, 64
11, 19104, Note_on_c, 9, 70, 94
11, 19108, Note_off_c, 9, 70, 64
11, 19200, Note_on_c, 9, 35, 110
11, 19200, Note_on_c, 9, 60, 54
11, 19204, Note_off_c, 9, 60, 64
11, 19204, Note_off_c, 9, 35, 64
11, 19204, Note_on_c, 9, 44, 63
11, 19208, Note_off_c, 9, 44, 64
11, 19392, Note_on_c, 9, 70, 94
11, 19396, Note_off_c, 9, 70, 64
11, 19396, Note_on_c, 9, 46, 54
11, 19400, Note_off_c, 9, 46, 64
11, 19488, Note_on_c, 9, 60, 43
11, 19492, Note_off_c, 9, 60, 64
11, 19584, Note_on_c, 9, 35, 114
11, 19588, Note_off_c, 9, 35, 64
11, 19588, Note_on_c, 9, 40, 110
11, 19588, Note_on_c, 9, 44, 63
11, 19592, Note_off_c, 9, 44, 64
11, 19592, Note_off_c, 9, 40, 64
11, 19592, Note_on_c, 9, 39, 95
11, 19596, Note_off_c, 9, 39, 64
11, 19680, Note_on_c, 9, 60, 40
11, 19684, Note_off_c, 9, 60, 64
11, 19776, Note_on_c, 9, 70, 78
11, 19776, Note_on_c, 9, 63, 49
11, 19780, Note_off_c, 9, 63, 64
11, 19780, Note_off_c, 9, 70, 64
11, 19780, Note_on_c, 9, 46, 60
11, 19784, Note_off_c, 9, 46, 64
11, 19872, Note_on_c, 9, 70, 99
11, 19876, Note_off_c, 9, 70, 64
11, 19968, Note_on_c, 9, 35, 114
11, 19968, Note_on_c, 9, 69, 74
11, 19968, Note_on_c, 9, 60, 54
11, 19972, Note_off_c, 9, 60, 64
11, 19972, Note_off_c, 9, 69, 64
11, 19972, Note_off_c, 9, 35, 64
11, 19972, Note_on_c, 9, 44, 63
11, 19976, Note_off_c, 9, 44, 64
11, 20060, Note_on_c, 9, 69, 28
11, 20064, Note_off_c, 9, 69, 64
11, 20144, Note_on_c, 9, 69, 102
11, 20148, Note_off_c, 9, 69, 64
11, 20160, Note_on_c, 9, 70, 94
11, 20164, Note_off_c, 9, 70, 64
11, 20164, Note_on_c, 9, 46, 67
11, 20168, Note_off_c, 9, 46, 64
11, 20240, Note_on_c, 9, 69, 102
11, 20244, Note_off_c, 9, 69, 64
11, 20256, Note_on_c, 9, 60, 43
11, 20260, Note_off_c, 9, 60, 64
11, 20352, Note_on_c, 9, 35, 114
11, 20356, Note_off_c, 9, 35, 64
11, 20356, Note_on_c, 9, 40, 114
11, 20356, Note_on_c, 9, 44, 76
11, 20360, Note_off_c, 9, 44, 64
11, 20360, Note_off_c, 9, 40, 64
11, 20360, Note_on_c, 9, 39, 99
11, 20364, Note_off_c, 9, 39, 64
11, 20448, Note_on_c, 9, 60, 40
11, 20452, Note_off_c, 9, 60, 64
11, 20544, Note_on_c, 9, 70, 72
11, 20544, Note_on_c, 9, 63, 40
11, 20548, Note_off_c, 9, 63, 64
11, 20548, Note_off_c, 9, 70, 64
11, 20640, Note_on_c, 9, 70, 85
11, 20644, Note_off_c, 9, 70, 64
11, 20736, Note_on_c, 9, 35, 110
11, 20736, Note_on_c, 9, 60, 54
11, 20740, Note_off_c, 9, 60, 64
11, 20740, Note_off_c, 9, 35, 64
11, 20928, Note_on_c, 9, 70, 94
11, 20932, Note_off_c, 9, 70, 64
11, 20932, Note_on_c, 9, 46, 63
11, 20936, Note_off_c, 9, 46, 64
11, 21024, Note_on_c, 9, 60, 40
11, 21028, Note_off_c, 9, 60, 64
11, 21120, Note_on_c, 9, 35, 114
11, 21124, Note_off_c, 9, 35, 64
11, 21124, Note_on_c, 9, 40, 114
11, 21124, Note_on_c, 9, 44, 63
11, 21128, Note_off_c, 9, 44, 64
11, 21128, Note_off_c, 9, 40, 64
11, 21128, Note_on_c, 9, 39, 99
11, 21132, Note_off_c, 9, 39, 64
11, 21216, Note_on_c, 9, 60, 43
11, 21220, Note_off_c, 9, 60, 64
11, 21312, Note_on_c, 9, 70, 94
11, 21312, Note_on_c, 9, 63, 54
11, 21316, Note_off_c, 9, 63, 64
11, 21316, Note_off_c, 9, 70, 64
11, 21316, Note_on_c, 9, 46, 63
11, 21320, Note_off_c, 9, 46, 64
11, 21504, Note_on_c, 9, 35, 114
11, 21504, Note_on_c, 9, 60, 49
11, 21508, Note_off_c, 9, 60, 64
11, 21508, Note_off_c, 9, 35, 64
11, 21508, Note_on_c, 9, 44, 67
11, 21512, Note_off_c, 9, 44, 64
11, 21696, Note_on_c, 9, 70, 99
11, 21700, Note_off_c, 9, 70, 64
11, 21700, Note_on_c, 9, 46, 63
11, 21704, Note_off_c, 9, 46, 64
11, 21792, Note_on_c, 9, 60, 40
11, 21796, Note_off_c, 9, 60, 64
11, 21888, Note_on_c, 9, 35, 110
11, 21892, Note_off_c, 9, 35, 64
11, 21892, Note_on_c, 9, 40, 114
11, 21892, Note_on_c, 9, 44, 63
11, 21896, Note_off_c, 9, 44, 64
11, 21896, Note_off_c, 9, 40, 64
11, 21896, Note_on_c, 9, 39, 99
11, 21900, Note_off_c, 9, 39, 64
11, 21984, Note_on_c, 9, 60, 43
11, 21988, Note_off_c, 9, 60, 64
11, 22080, Note_on_c, 9, 70, 78
11, 22080, Note_on_c, 9, 63, 40
11, 22084, Note_off_c, 9, 63, 64
11, 22084, Note_off_c, 9, 70, 64
11, 22084, Note_on_c, 9, 46, 63
11, 22088, Note_off_c, 9, 46, 64
11, 22176, Note_on_c, 9, 70, 85
11, 22180, Note_off_c, 9, 70, 64
11, 22272, Note_on_c, 9, 35, 114
11, 22272, Note_on_c, 9, 60, 49
11, 22276, Note_off_c, 9, 60, 64
11, 22276, Note_off_c, 9, 35, 64
11, 22276, Note_on_c, 9, 44, 63
11, 22280, Note_off_c, 9, 44, 64
11, 22464, Note_on_c, 9, 70, 99
11, 22468, Note_off_c, 9, 70, 64
11, 22468, Note_on_c, 9, 46, 63
11, 22472, Note_off_c, 9, 46, 64
11, 22560, Note_on_c, 9, 60, 40
11, 22564, Note_off_c, 9, 60, 64
11, 22656, Note_on_c, 9, 35, 114
11, 22660, Note_off_c, 9, 35, 64
11, 22660, Note_on_c, 9, 40, 114
11, 22660, Note_on_c, 9, 44, 67
11, 22664, Note_off_c, 9, 44, 64
11, 22664, Note_off_c, 9, 40, 64
11, 22664, Note_on_c, 9, 39, 99
11, 22668, Note_off_c, 9, 39, 64
11, 22752, Note_on_c, 9, 60, 40
11, 22756, Note_off_c, 9, 60, 64
11, 22848, Note_on_c, 9, 70, 81
11, 22848, Note_on_c, 9, 63, 49
11, 22852, Note_off_c, 9, 63, 64
11, 22852, Note_off_c, 9, 70, 64
11, 22852, Note_on_c, 9, 46, 67
11, 22856, Note_off_c, 9, 46, 64
11, 22944, Note_on_c, 9, 70, 99
11, 22948, Note_off_c, 9, 70, 64
11, 23040, Note_on_c, 9, 35, 110
11, 23040, Note_on_c, 9, 69, 74
11, 23040, Note_on_c, 9, 60, 54
11, 23044, Note_off_c, 9, 60, 64
11, 23044, Note_off_c, 9, 69, 64
11, 23044, Note_off_c, 9, 35, 64
11, 23044, Note_on_c, 9, 44, 76
11, 23048, Note_off_c, 9, 44, 64
11, 23132, Note_on_c, 9, 69, 28
11, 23136, Note_off_c, 9, 69, 64
11, 23216, Note_on_c, 9, 69, 102
11, 23220, Note_off_c, 9, 69, 64
11, 23232, Note_on_c, 9, 70, 99
11, 23236, Note_off_c, 9, 70, 64
11, 23236, Note_on_c, 9, 46, 63
11, 23240, Note_off_c, 9, 46, 64
11, 23312, Note_on_c, 9, 69, 102
11, 23316, Note_off_c, 9, 69, 64
11, 23328, Note_on_c, 9, 60, 54
11, 23332, Note_off_c, 9, 60, 64
11, 23424, Note_on_c, 9, 35, 114
11, 23428, Note_off_c, 9, 35, 64
11, 23428, Note_on_c, 9, 40, 110
11, 23428, Note_on_c, 9, 44, 60
11, 23432, Note_off_c, 9, 44, 64
11, 23432, Note_off_c, 9, 40, 64
11, 23432, Note_on_c, 9, 39, 95
11, 23436, Note_off_c, 9, 39, 64
11, 23520, Note_on_c, 9, 60, 43
11, 23524, Note_off_c, 9, 60, 64
11, 23616, Note_on_c, 9, 70, 81
11, 23616, Note_on_c, 9, 63, 49
11, 23620, Note_off_c, 9, 63, 64
11, 23620, Note_off_c, 9, 70, 64
11, 23712, Note_on_c, 9, 70, 99
11, 23716, Note_off_c, 9, 70, 64
11, 23808, Note_on_c, 9, 35, 110
11, 23808, Note_on_c, 9, 60, 54
11, 23812, Note_off_c, 9, 60, 64
11, 23812, Note_off_c, 9, 35, 64
11, 24000, Note_on_c, 9, 70, 94
11, 24004, Note_off_c, 9, 70, 64
11, 24004, Note_on_c, 9, 46, 67
11, 24008, Note_off_c, 9, 46, 64
11, 24096, Note_on_c, 9, 60, 43
11, 24100, Note_off_c, 9, 60, 64
11, 24192, Note_on_c, 9, 35, 114
11, 24196, Note_off_c, 9, 35, 64
11, 24196, Note_on_c, 9, 40, 110
11, 24196, Note_on_c, 9, 44, 67
11, 24200, Note_off_c, 9, 44, 64
11, 24200, Note_off_c, 9, 40, 64
11, 24200, Note_on_c, 9, 39, 95
11, 24204, Note_off_c, 9, 39, 64
11, 24288, Note_on_c, 9, 60, 49
11, 24292, Note_off_c, 9, 60, 64
11, 24384, Note_on_c, 9, 70, 94
11, 24384, Note_on_c, 9, 63, 54
11, 24388, Note_off_c, 9, 63, 64
11, 24388, Note_off_c, 9, 70, 64
11, 24388, Note_on_c, 9, 46, 63
11, 24392, Note_off_c, 9, 46, 64
11, 24576, Note_on_c, 9, 35, 110
11, 24576, Note_on_c, 9, 60, 54
11, 24580, Note_off_c, 9, 60, 64
11, 24580, Note_off_c, 9, 35, 64
11, 24580, Note_on_c, 9, 44, 63
11, 24584, Note_off_c, 9, 44, 64
11, 24768, Note_on_c, 9, 70, 94
11, 24772, Note_off_c, 9, 70, 64
11, 24772, Note_on_c, 9, 46, 60
11, 24776, Note_off_c, 9, 46, 64
11, 24864, Note_on_c, 9, 60, 33
11, 24868, Note_off_c, 9, 60, 64
11, 24960, Note_on_c, 9, 35, 110
11, 24964, Note_off_c, 9, 35, 64
11, 24964, Note_on_c, 9, 40, 110
11, 24964, Note_on_c, 9, 44, 63
11, 24968, Note_off_c, 9, 44, 64
11, 24968, Note_off_c, 9, 40, 64
11, 24968, Note_on_c, 9, 39, 95
11, 24972, Note_off_c, 9, 39, 64
11, 25056, Note_on_c, 9, 60, 36
11, 25060, Note_off_c, 9, 60, 64
11, 25152, Note_on_c, 9, 70, 78
11, 25152, Note_on_c, 9, 63, 49
11, 25156, Note_off_c, 9, 63, 64
11, 25156, Note_off_c, 9, 70, 64
11, 25156, Note_on_c, 9, 46, 54
11, 25160, Note_off_c, 9, 46, 64
11, 25248, Note_on_c, 9, 70, 94
11, 25252, Note_off_c, 9, 70, 64
11, 25344, Note_on_c, 9, 35, 110
11, 25344, Note_on_c, 9, 60, 54
11, 25348, Note_off_c, 9, 60, 64
11, 25348, Note_off_c, 9, 35, 64
11, 25348, Note_on_c, 9, 44, 63
11, 25352, Note_off_c, 9, 44, 64
11, 25536, Note_on_c, 9, 70, 94
11, 25540, Note_off_c, 9, 70, 64
11, 25540, Note_on_c, 9, 46, 54
11, 25544, Note_off_c, 9, 46, 64
11, 25632, Note_on_c, 9, 60, 43
11, 25636, Note_off_c, 9, 60, 64
11, 25728, Note_on_c, 9, 35, 114
11, 25732, Note_off_c, 9, 35, 64
11, 25732, Note_on_c, 9, 40, 110
11, 25732, Note_on_c, 9, 44, 63
11, 25736, Note_off_c, 9, 44, 64
11, 25736, Note_off_c, 9, 40, 64
11, 25736, Note_on_c, 9, 39, 95
11, 25740, Note_off_c, 9, 39, 64
11, 25824, Note_on_c, 9, 60, 40
11, 25828, Note_off_c, 9, 60, 64
11, 25920, Note_on_c, 9, 70, 78
11, 25920, Note_on_c, 9, 63, 49
11, 25924, Note_off_c, 9, 63, 64
11, 25924, Note_off_c, 9, 70, 64
11, 25924, Note_on_c, 9, 46, 60
11, 25928, Note_off_c, 9, 46, 64
11, 26016, Note_on_c, 9, 70, 99
11, 26020, Note_off_c, 9, 70, 64
11, 26112, Note_on_c, 9, 35, 114
11, 26112, Note_on_c, 9, 69, 74
11, 26112, Note_on_c, 9, 60, 54
11, 26116, Note_off_c, 9, 60, 64
11, 26116, Note_off_c, 9, 69, 64
11, 26116, Note_off_c, 9, 35, 64
11, 26116, Note_on_c, 9, 44, 63
11, 26120, Note_off_c, 9, 44, 64
11, 26204, Note_on_c, 9, 69, 28
11, 26208, Note_off_c, 9, 69, 64
11, 26288, Note_on_c, 9, 69, 102
11, 26292, Note_off_c, 9, 69, 64
11, 26304, Note_on_c, 9, 70, 94
11, 26308, Note_off_c, 9, 70, 64
11, 26308, Note_on_c, 9, 46, 67
11, 26312, Note_off_c, 9, 46, 64
11, 26384, Note_on_c, 9, 69, 102
11, 26388, Note_off_c, 9, 69, 64
11, 26400, Note_on_c, 9, 60, 43
11, 26404, Note_off_c, 9, 60, 64
11, 26496, Note_on_c, 9, 35, 114
11, 26500, Note_off_c, 9, 35, 64
11, 26500, Note_on_c, 9, 40, 114
11, 26500, Note_on_c, 9, 44, 76
11, 26504, Note_off_c, 9, 44, 64
11, 26504, Note_off_c, 9, 40, 64
11, 26504, Note_on_c, 9, 39, 99
11, 26508, Note_off_c, 9, 39, 64
11, 26592, Note_on_c, 9, 60, 40
11, 26596, Note_off_c, 9, 60, 64
11, 26688, Note_on_c, 9, 70, 72
11, 26688, Note_on_c, 9, 63, 40
11, 26692, Note_off_c, 9, 63, 64
11, 26692, Note_off_c, 9, 70, 64
11, 26784, Note_on_c, 9, 70, 85
11, 26788, Note_off_c, 9, 70, 64
11, 26880, Note_on_c, 9, 35, 110
11, 26880, Note_on_c, 9, 60, 54
11, 26884, Note_off_c, 9, 60, 64
11, 26884, Note_off_c, 9, 35, 64
11, 27072, Note_on_c, 9, 70, 94
11, 27076, Note_off_c, 9, 70, 64
11, 27076, Note_on_c, 9, 46, 63
11, 27080, Note_off_c, 9, 46, 64
11, 27168, Note_on_c, 9, 60, 40
11, 27172, Note_off_c, 9, 60, 64
11, 27264, Note_on_c, 9, 35, 114
11, 27268, Note_off_c, 9, 35, 64
11, 27268, Note_on_c, 9, 40, 114
11, 27268, Note_on_c, 9, 44, 63
11, 27272, Note_off_c, 9, 44, 64
11, 27272, Note_off_c, 9, 40, 64
11, 27272, Note_on_c, 9, 39, 99
11, 27276, Note_off_c, 9, 39, 64
11, 27360, Note_on_c, 9, 60, 43
11, 27364, Note_off_c, 9, 60, 64
11, 27456, Note_on_c, 9, 70, 94
11, 27456, Note_on_c, 9, 63, 54
11, 27460, Note_off_c, 9, 63, 64
11, 27460, Note_off_c, 9, 70, 64
11, 27460, Note_on_c, 9, 46, 63
11, 27464, Note_off_c, 9, 46, 64
11, 27648, Note_on_c, 9, 35, 114
11, 27648, Note_on_c, 9, 60, 49
11, 27652, Note_off_c, 9, 60, 64
11, 27652, Note_off_c, 9, 35, 64
11, 27652, Note_on_c, 9, 44, 67
11, 27656, Note_off_c, 9, 44, 64
11, 27840, Note_on_c, 9, 70, 99
11, 27844, Note_off_c, 9, 70, 64
11, 27844, Note_on_c, 9, 46, 63
11, 27848, Note_off_c, 9, 46, 64
11, 27936, Note_on_c, 9, 60, 40
11, 27940, Note_off_c, 9, 60, 64
11, 28032, Note_on_c, 9, 35, 110
11, 28036, Note_off_c, 9, 35, 64
11, 28036, Note_on_c, 9, 40, 114
11, 28036, Note_on_c, 9, 44, 63
11, 28040, Note_off_c, 9, 44, 64
11, 28040, Note_off_c, 9, 40, 64
11, 28040, Note_on_c, 9, 39, 99
11, 28044, Note_off_c, 9, 39, 64
11, 28128, Note_on_c, 9, 60, 43
11, 28132, Note_off_c, 9, 60, 64
11, 28224, Note_on_c, 9, 70, 78
11, 28224, Note_on_c, 9, 63, 40
11, 28228, Note_off_c, 9, 63, 64
11, 28228, Note_off_c, 9, 70, 64
11, 28228, Note_on_c, 9, 46, 63
11, 28232, Note_off_c, 9, 46, 64
11, 28320, Note_on_c, 9, 70, 85
11, 28324, Note_off_c, 9, 70, 64
11, 28416, Note_on_c, 9, 35, 114
11, 28416, Note_on_c, 9, 60, 49
11, 28420, Note_off_c, 9, 60, 64
11, 28420, Note_off_c, 9, 35, 64
11, 28420, Note_on_c, 9, 44, 63
11, 28424, Note_off_c, 9, 44, 64
11, 28608, Note_on_c, 9, 70, 99
11, 28612, Note_off_c, 9, 70, 64
11, 28612, Note_on_c, 9, 46, 63
11, 28616, Note_off_c, 9, 46, 64
11, 28704, Note_on_c, 9, 60, 40
11, 28708, Note_off_c, 9, 60, 64
11, 28800, Note_on_c, 9, 35, 114
11, 28804, Note_off_c, 9, 35, 64
11, 28804, Note_on_c, 9, 40, 114
11, 28804, Note_on_c, 9, 44, 67
11, 28808, Note_off_c, 9, 44, 64
11, 28808, Note_off_c, 9, 40, 64
11, 28808, Note_on_c, 9, 39, 99
11, 28812, Note_off_c, 9, 39, 64
11, 28896, Note_on_c, 9, 60, 40
11, 28900, Note_off_c, 9, 60, 64
11, 28992, Note_on_c, 9, 70, 81
11, 28992, Note_on_c, 9, 63, 49
11, 28996, Note_off_c, 9, 63, 64
11, 28996, Note_off_c, 9, 70, 64
11, 28996, Note_on_c, 9, 46, 67
11, 29000, Note_off_c, 9, 46, 64
11, 29088, Note_on_c, 9, 70, 99
11, 29092, Note_off_c, 9, 70, 64
11, 29184, Note_on_c, 9, 35, 110
11, 29184, Note_on_c, 9, 69, 74
11, 29184, Note_on_c, 9, 60, 54
11, 29188, Note_off_c, 9, 60, 64
11, 29188, Note_off_c, 9, 69, 64
11, 29188, Note_off_c, 9, 35, 64
11, 29188, Note_on_c, 9, 44, 76
11, 29192, Note_off_c, 9, 44, 64
11, 29276, Note_on_c, 9, 69, 28
11, 29280, Note_off_c, 9, 69, 64
11, 29360, Note_on_c, 9, 69, 102
11, 29364, Note_off_c, 9, 69, 64
11, 29376, Note_on_c, 9, 70, 99
11, 29380, Note_off_c, 9, 70, 64
11, 29380, Note_on_c, 9, 46, 63
11, 29384, Note_off_c, 9, 46, 64
11, 29456, Note_on_c, 9, 69, 102
11, 29460, Note_off_c, 9, 69, 64
11, 29472, Note_on_c, 9, 60, 54
11, 29476, Note_off_c, 9, 60, 64
11, 29568, Note_on_c, 9, 35, 114
11, 29572, Note_off_c, 9, 35, 64
11, 29572, Note_on_c, 9, 40, 110
11, 29572, Note_on_c, 9, 44, 60
11, 29576, Note_off_c, 9, 44, 64
11, 29576, Note_off_c, 9, 40, 64
11, 29576, Note_on_c, 9, 39, 95
11, 29580, Note_off_c, 9, 39, 64
11, 29664, Note_on_c, 9, 60, 43
11, 29668, Note_off_c, 9, 60, 64
11, 29760, Note_on_c, 9, 70, 81
11, 29760, Note_on_c, 9, 63, 49
11, 29764, Note_off_c, 9, 63, 64
11, 29764, Note_off_c, 9, 70, 64
11, 29856, Note_on_c, 9, 70, 99
11, 29860, Note_off_c, 9, 70, 64
11, 29952, Note_on_c, 9, 35, 110
11, 29952, Note_on_c, 9, 60, 54
11, 29956, Note_off_c, 9, 60, 64
11, 29956, Note_off_c, 9, 35, 64
11, 30144, Note_on_c, 9, 70, 94
11, 30148, Note_off_c, 9, 70, 64
11, 30148, Note_on_c, 9, 46, 67
11, 30152, Note_off_c, 9, 46, 64
11, 30240, Note_on_c, 9, 60, 43
11, 30244, Note_off_c, 9, 60, 64
11, 30336, Note_on_c, 9, 35, 114
11, 30340, Note_off_c, 9, 35, 64
11, 30340, Note_on_c, 9, 40, 110
11, 30340, Note_on_c, 9, 44, 67
11, 30344, Note_off_c, 9, 44, 64
11, 30344, Note_off_c, 9, 40, 64
11, 30344, Note_on_c, 9, 39, 95
11, 30348, Note_off_c, 9, 39, 64
11, 30432, Note_on_c, 9, 60, 49
11, 30436, Note_off_c, 9, 60, 64
11, 30528, Note_on_c, 9, 70, 94
11, 30528, Note_on_c, 9, 63, 54
11, 30532, Note_off_c, 9, 63, 64
11, 30532, Note_off_c, 9, 70, 64
11, 30532, Note_on_c, 9, 46, 63
11, 30536, Note_off_c, 9, 46, 64
11, 30720, Note_on_c, 9, 35, 110
11, 30720, Note_on_c, 9, 60, 54
11, 30724, Note_off_c, 9, 60, 64
11, 30724, Note_off_c, 9, 35, 64
11, 30724, Note_on_c, 9, 44, 63
11, 30728, Note_off_c, 9, 44, 64
11, 30912, Note_on_c, 9, 70, 94
11, 30916, Note_off_c, 9, 70, 64
11, 30916, Note_on_c, 9, 46, 60
11, 30920, Note_off_c, 9, 46, 64
11, 31008, Note_on_c, 9, 60, 33
11, 31012, Note_off_c, 9, 60, 64
11, 31104, Note_on_c, 9, 35, 110
11, 31108, Note_off_c, 9, 35, 64
11, 31108, Note_on_c, 9, 40, 110
11, 31108, Note_on_c, 9, 44, 63
11, 31112, Note_off_c, 9, 44, 64
11, 31112, Note_off_c, 9, 40, 64
11, 31112, Note_on_c, 9, 39, 95
11, 31116, Note_off_c, 9, 39, 64
11, 31200, Note_on_c, 9, 60, 36
11, 31204, Note_off_c, 9, 60, 64
11, 31296, Note_on_c, 9, 70, 78
11, 31296, Note_on_c, 9, 63, 49
11, 31300, Note_off_c, 9, 63, 64
11, 31300, Note_off_c, 9, 70, 64
11, 31300, Note_on_c, 9, 46, 54
11, 31304, Note_off_c, 9, 46, 64
11, 31392, Note_on_c, 9, 70, 94
11, 31396, Note_off_c, 9, 70, 64
11, 31488, Note_on_c, 9, 35, 110
11, 31488, Note_on_c, 9, 60, 54
11, 31492, Note_off_c, 9, 60, 64
11, 31492, Note_off_c, 9, 35, 64
11, 31492, Note_on_c, 9, 44, 63
11, 31496, Note_off_c, 9, 44, 64
11, 31680, Note_on_c, 9, 70, 94
11, 31684, Note_off_c, 9, 70, 64
11, 31684, Note_on_c, 9, 46, 54
11, 31688, Note_off_c, 9, 46, 64
11, 31776, Note_on_c, 9, 60, 43
11, 31780, Note_off_c, 9, 60, 64
11, 31872, Note_on_c, 9, 35, 114
11, 31876, Note_off_c, 9, 35, 64
11, 31876, Note_on_c, 9, 40, 110
11, 31876, Note_on_c, 9, 44, 63
11, 31880, Note_off_c, 9, 44, 64
11, 31880, Note_off_c, 9, 40, 64
11, 31880, Note_on_c, 9, 39, 95
11, 31884, Note_off_c, 9, 39, 64
11, 31968, Note_on_c, 9, 60, 40
11, 31972, Note_off_c, 9, 60, 64
11, 32064, Note_on_c, 9, 70, 78
11, 32064, Note_on_c, 9, 63, 49
11, 32068, Note_off_c, 9, 63, 64
11, 32068, Note_off_c, 9, 70, 64
11, 32068, Note_on_c, 9, 46, 60
11, 32072, Note_off_c, 9, 46, 64
11, 32160, Note_on_c, 9, 70, 99
11, 32164, Note_off_c, 9, 70, 64
11, 32256, Note_on_c, 9, 35, 114
11, 32256, Note_on_c, 9, 69, 74
11, 32256, Note_on_c, 9, 60, 54
11, 32260, Note_off_c, 9, 60, 64
11, 32260, Note_off_c, 9, 69, 64
11, 32260, Note_off_c, 9, 35, 64
11, 32260, Note_on_c, 9, 44, 63
11, 32264, Note_off_c, 9, 44, 64
11, 32348, Note_on_c, 9, 69, 28
11, 32352, Note_off_c, 9, 69, 64
11, 32432, Note_on_c, 9, 69, 102
11, 32436, Note_off_c, 9, 69, 64
11, 32448, Note_on_c, 9, 70, 94
11, 32452, Note_off_c, 9, 70, 64
11, 32452, Note_on_c, 9, 46, 67
11, 32456, Note_off_c, 9, 46, 64
11, 32528, Note_on_c, 9, 69, 102
11, 32532, Note_off_c, 9, 69, 64
11, 32544, Note_on_c, 9, 60, 43
11, 32548, Note_off_c, 9, 60, 64
11, 32640, Note_on_c, 9, 35, 114
11, 32644, Note_off_c, 9, 35, 64
11, 32644, Note_on_c, 9, 40, 114
11, 32644, Note_on_c, 9, 44, 76
11, 32648, Note_off_c, 9, 44, 64
11, 32648, Note_off_c, 9, 40, 64
11, 32648, Note_on_c, 9, 39, 99
11, 32652, Note_off_c, 9, 39, 64
11, 32736, Note_on_c, 9, 60, 40
11, 32740, Note_off_c, 9, 60, 64
11, 32832, Note_on_c, 9, 70, 72
11, 32832, Note_on_c, 9, 63, 40
11, 32836, Note_off_c, 9, 63, 64
11, 32836, Note_off_c, 9, 70, 64
11, 32928, Note_on_c, 9, 70, 85
11, 32932, Note_off_c, 9, 70, 64
11, 33024, Note_on_c, 9, 35, 110
11, 33024, Note_on_c, 9, 60, 54
11, 33028, Note_off_c, 9, 60, 64
11, 33028, Note_off_c, 9, 35, 64
11, 33216, Note_on_c, 9, 70, 94
11, 33220, Note_off_c, 9, 70, 64
11, 33220, Note_on_c, 9, 46, 63
11, 33224, Note_off_c, 9, 46, 64
11, 33312, Note_on_c, 9, 60, 40
11, 33316, Note_off_c, 9, 60, 64
11, 33408, Note_on_c, 9, 35, 114
11, 33412, Note_off_c, 9, 35, 64
11, 33412, Note_on_c, 9, 40, 114
11, 33412, Note_on_c, 9, 44, 63
11, 33416, Note_off_c, 9, 44, 64
11, 33416, Note_off_c, 9, 40, 64
11, 33416, Note_on_c, 9, 39, 99
11, 33420, Note_off_c, 9, 39, 64
11, 33504, Note_on_c, 9, 60, 43
11, 33508, Note_off_c, 9, 60, 64
11, 33600, Note_on_c, 9, 70, 94
11, 33600, Note_on_c, 9, 63, 54
11, 33604, Note_off_c, 9, 63, 64
11, 33604, Note_off_c, 9, 70, 64
11, 33604, Note_on_c, 9, 46, 63
11, 33608, Note_off_c, 9, 46, 64
11, 33792, Note_on_c, 9, 35, 114
11, 33792, Note_on_c, 9, 60, 49
11, 33796, Note_off_c, 9, 60, 64
11, 33796, Note_off_c, 9, 35, 64
11, 33796, Note_on_c, 9, 44, 67
11, 33800, Note_off_c, 9, 44, 64
11, 33984, Note_on_c, 9, 70, 99
11, 33988, Note_off_c, 9, 70, 64
11, 33988, Note_on_c, 9, 46, 63
11, 33992, Note_off_c, 9, 46, 64
11, 34080, Note_on_c, 9, 60, 40
11, 34084, Note_off_c, 9, 60, 64
11, 34176, Note_on_c, 9, 35, 110
11, 34180, Note_off_c, 9, 35, 64
11, 34180, Note_on_c, 9, 40, 114
11, 34180, Note_on_c, 9, 44, 63
11, 34184, Note_off_c, 9, 44, 64
11, 34184, Note_off_c, 9, 40, 64
11, 34184, Note_on_c, 9, 39, 99
11, 34188, Note_off_c, 9, 39, 64
11, 34272, Note_on_c, 9, 60, 43
11, 34276, Note_off_c, 9, 60, 64
11, 34368, Note_on_c, 9, 70, 78
11, 34368, Note_on_c, 9, 63, 40
11, 34372, Note_off_c, 9, 63, 64
11, 34372, Note_off_c, 9, 70, 64
11, 34372, Note_on_c, 9, 46, 63
11, 34376, Note_off_c, 9, 46, 64
11, 34464, Note_on_c, 9, 70, 85
11, 34468, Note_off_c, 9, 70, 64
11, 34560, Note_on_c, 9, 35, 114
11, 34560, Note_on_c, 9, 60, 49
11, 34564, Note_off_c, 9, 60, 64
11, 34564, Note_off_c, 9, 35, 64
11, 34564, Note_on_c, 9, 44, 63
11, 34568, Note_off_c, 9, 44, 64
11, 34660, Note_on_c, 9, 40, 110
11, 34664, Note_off_c, 9, 40, 64
11, 34664, Note_on_c, 9, 39, 95
11, 34668, Note_off_c, 9, 39, 64
11, 34752, Note_on_c, 9, 70, 99
11, 34756, Note_off_c, 9, 70, 64
11, 34756, Note_on_c, 9, 46, 63
11, 34760, Note_off_c, 9, 46, 64
11, 34848, Note_on_c, 9, 60, 40
11, 34852, Note_off_c, 9, 60, 64
11, 34944, Note_on_c, 9, 35, 114
11, 34948, Note_off_c, 9, 35, 64
11, 34948, Note_on_c, 9, 40, 114
11, 34948, Note_on_c, 9, 44, 67
11, 34952, Note_off_c, 9, 44, 64
11, 34952, Note_off_c, 9, 40, 64
11, 34952, Note_on_c, 9, 39, 99
11, 34956, Note_off_c, 9, 39, 64
11, 35040, Note_on_c, 9, 60, 40
11, 35044, Note_off_c, 9, 60, 64
11, 35136, Note_on_c, 9, 70, 81
11, 35136, Note_on_c, 9, 63, 49
11, 35140, Note_off_c, 9, 63, 64
11, 35140, Note_off_c, 9, 70, 64
11, 35140, Note_on_c, 9, 46, 67
11, 35144, Note_off_c, 9, 46, 64
11, 35232, Note_on_c, 9, 70, 99
11, 35236, Note_off_c, 9, 70, 64
11, 35236, Note_on_c, 9, 40, 110
11, 35240, Note_off_c, 9, 40, 64
11, 35240, Note_on_c, 9, 39, 95
11, 35244, Note_off_c, 9, 39, 64
11, 35328, Note_on_c, 9, 35, 110
11, 35328, Note_on_c, 9, 69, 74
11, 35328, Note_on_c, 9, 60, 54
11, 35332, Note_off_c, 9, 60, 64
11, 35332, Note_off_c, 9, 69, 64
11, 35332, Note_off_c, 9, 35, 64
11, 35332, Note_on_c, 9, 44, 76
11, 35336, Note_off_c, 9, 44, 64
11, 35420, Note_on_c, 9, 69, 28
11, 35424, Note_off_c, 9, 69, 64
11, 35504, Note_on_c, 9, 69, 102
11, 35508, Note_off_c, 9, 69, 64
11, 35520, Note_on_c, 9, 70, 99
11, 35524, Note_off_c, 9, 70, 64
11, 35524, Note_on_c, 9, 46, 63
11, 35528, Note_off_c, 9, 46, 64
11, 35600, Note_on_c, 9, 69, 102
11, 35604, Note_off_c, 9, 69, 64
11, 35616, Note_on_c, 9, 60, 54
11, 35620, Note_off_c, 9, 60, 64
11, 35712, Note_on_c, 9, 35, 114
11, 35716, Note_off_c, 9, 35, 64
11, 35716, Note_on_c, 9, 40, 110
11, 35716, Note_on_c, 9, 44, 60
11, 35720, Note_off_c, 9, 44, 64
11, 35720, Note_off_c, 9, 40, 64
11, 35720, Note_on_c, 9, 39, 95
11, 35724, Note_off_c, 9, 39, 64
11, 35808, Note_on_c, 9, 60, 43
11, 35812, Note_off_c, 9, 60, 64
11, 35892, Note_on_c, 9, 63, 49
11, 35896, Note_off_c, 9, 63, 64
11, 35896, Note_on_c, 9, 70, 81
11, 35900, Note_off_c, 9, 70, 64
11, 36000, Note_on_c, 9, 70, 99
11, 36004, Note_off_c, 9, 70, 64
11, 36096, Note_on_c, 9, 35, 110
11, 36096, Note_on_c, 9, 60, 54
11, 36100, Note_off_c, 9, 60, 64
11, 36100, Note_off_c, 9, 35, 64
11, 36284, Note_on_c, 9, 46, 67
11, 36288, Note_off_c, 9, 46, 64
11, 36288, Note_on_c, 9, 70, 94
11, 36292, Note_off_c, 9, 70, 64
11, 36384, Note_on_c, 9, 60, 43
11, 36388, Note_off_c, 9, 60, 64
11, 36480, Note_on_c, 9, 35, 114
11, 36484, Note_off_c, 9, 35, 64
11, 36484, Note_on_c, 9, 40, 110
11, 36484, Note_on_c, 9, 44, 67
11, 36488, Note_off_c, 9, 44, 64
11, 36488, Note_off_c, 9, 40, 64
11, 36488, Note_on_c, 9, 39, 95
11, 36492, Note_off_c, 9, 39, 64
11, 36576, Note_on_c, 9, 60, 49
11, 36580, Note_off_c, 9, 60, 64
11, 36672, Note_on_c, 9, 70, 94
11, 36672, Note_on_c, 9, 63, 54
11, 36676, Note_off_c, 9, 63, 64
11, 36676, Note_off_c, 9, 70, 64
11, 36676, Note_on_c, 9, 46, 63
11, 36680, Note_off_c, 9, 46, 64
11, 36864, Note_on_c, 9, 35, 110
11, 36864, Note_on_c, 9, 60, 54
11, 36868, Note_off_c, 9, 60, 64
11, 36868, Note_off_c, 9, 35, 64
11, 36868, Note_on_c, 9, 44, 63
11, 36872, Note_off_c, 9, 44, 64
11, 37056, Note_on_c, 9, 70, 94
11, 37060, Note_off_c, 9, 70, 64
11, 37060, Note_on_c, 9, 46, 60
11, 37064, Note_off_c, 9, 46, 64
11, 37152, Note_on_c, 9, 60, 33
11, 37156, Note_off_c, 9, 60, 64
11, 37248, Note_on_c, 9, 35, 110
11, 37252, Note_off_c, 9, 35, 64
11, 37252, Note_on_c, 9, 40, 110
11, 37252, Note_on_c, 9, 44, 63
11, 37256, Note_off_c, 9, 44, 64
11, 37256, Note_off_c, 9, 40, 64
11, 37256, Note_on_c, 9, 39, 95
11, 37260, Note_off_c, 9, 39, 64
11, 37344, Note_on_c, 9, 60, 36
11, 37348, Note_off_c, 9, 60, 64
11, 37440, Note_on_c, 9, 70, 78
11, 37440, Note_on_c, 9, 63, 49
11, 37444, Note_off_c, 9, 63, 64
11, 37444, Note_off_c, 9, 70, 64
11, 37444, Note_on_c, 9, 46, 54
11, 37448, Note_off_c, 9, 46, 64
11, 37536, Note_on_c, 9, 70, 94
11, 37540, Note_off_c, 9, 70, 64
11, 37632, Note_on_c, 9, 35, 110
11, 37632, Note_on_c, 9, 60, 54
11, 37636, Note_off_c, 9, 60, 64
11, 37636, Note_off_c, 9, 35, 64
11, 37636, Note_on_c, 9, 44, 63
11, 37640, Note_off_c, 9, 44, 64
11, 37824, Note_on_c, 9, 70, 94
11, 37828, Note_off_c, 9, 70, 64
11, 37828, Note_on_c, 9, 46, 54
11, 37832, Note_off_c, 9, 46, 64
11, 37920, Note_on_c, 9, 60, 43
11, 37924, Note_off_c, 9, 60, 64
11, 38016, Note_on_c, 9, 35, 114
11, 38020, Note_off_c, 9, 35, 64
11, 38020, Note_on_c, 9, 40, 110
11, 38020, Note_on_c, 9, 44, 63
11, 38024, Note_off_c, 9, 44, 64
11, 38024, Note_off_c, 9, 40, 64
11, 38024, Note_on_c, 9, 39, 95
11, 38028, Note_off_c, 9, 39, 64
11, 38112, Note_on_c, 9, 60, 40
11, 38116, Note_off_c, 9, 60, 64
11, 38208, Note_on_c, 9, 70, 78
11, 38208, Note_on_c, 9, 63, 49
11, 38212, Note_off_c, 9, 63, 64
11, 38212, Note_off_c, 9, 70, 64
11, 38212, Note_on_c, 9, 46, 60
11, 38216, Note_off_c, 9, 46, 64
11, 38304, Note_on_c, 9, 70, 99
11, 38308, Note_off_c, 9, 70, 64
11, 38400, Note_on_c, 9, 35, 114
11, 38400, Note_on_c, 9, 69, 74
11, 38400, Note_on_c, 9, 60, 54
11, 38404, Note_off_c, 9, 60, 64
11, 38404, Note_off_c, 9, 69, 64
11, 38404, Note_off_c, 9, 35, 64
11, 38404, Note_on_c, 9, 44, 63
11, 38408, Note_off_c, 9, 44, 64
11, 38492, Note_on_c, 9, 69, 28
11, 38496, Note_off_c, 9, 69, 64
11, 38576, Note_on_c, 9, 69, 102
11, 38580, Note_off_c, 9, 69, 64
11, 38592, Note_on_c, 9, 70, 94
11, 38596, Note_off_c, 9, 70, 64
11, 38596, Note_on_c, 9, 46, 67
11, 38600, Note_off_c, 9, 46, 64
11, 38672, Note_on_c, 9, 69, 102
11, 38676, Note_off_c, 9, 69, 64
11, 38688, Note_on_c, 9, 60, 43
11, 38692, Note_off_c, 9, 60, 64
11, 38784, Note_on_c, 9, 35, 114
11, 38788, Note_off_c, 9, 35, 64
11, 38788, Note_on_c, 9, 40, 114
11, 38788, Note_on_c, 9, 44, 76
11, 38792, Note_off_c, 9, 44, 64
11, 38792, Note_off_c, 9, 40, 64
11, 38792, Note_on_c, 9, 39, 99
11, 38796, Note_off_c, 9, 39, 64
11, 38880, Note_on_c, 9, 60, 40
11, 38884, Note_off_c, 9, 60, 64
11, 38976, Note_on_c, 9, 70, 72
11, 38976, Note_on_c, 9, 63, 40
11, 38980, Note_off_c, 9, 63, 64
11, 38980, Note_off_c, 9, 70, 64
11, 39072, Note_on_c, 9, 70, 85
11, 39076, Note_off_c, 9, 70, 64
11, 39168, Note_on_c, 9, 35, 110
11, 39168, Note_on_c, 9, 60, 54
11, 39172, Note_off_c, 9, 60, 64
11, 39172, Note_off_c, 9, 35, 64
11, 39360, Note_on_c, 9, 70, 94
11, 39364, Note_off_c, 9, 70, 64
11, 39364, Note_on_c, 9, 46, 63
11, 39368, Note_off_c, 9, 46, 64
11, 39456, Note_on_c, 9, 60, 40
11, 39460, Note_off_c, 9, 60, 64
11, 39552, Note_on_c, 9, 35, 114
11, 39556, Note_off_c, 9, 35, 64
11, 39556, Note_on_c, 9, 40, 114
11, 39556, Note_on_c, 9, 44, 63
11, 39560, Note_off_c, 9, 44, 64
11, 39560, Note_off_c, 9, 40, 64
11, 39560, Note_on_c, 9, 39, 99
11, 39564, Note_off_c, 9, 39, 64
11, 39648, Note_on_c, 9, 60, 43
11, 39652, Note_off_c, 9, 60, 64
11, 39744, Note_on_c, 9, 70, 94
11, 39744, Note_on_c, 9, 63, 54
11, 39748, Note_off_c, 9, 63, 64
11, 39748, Note_off_c, 9, 70, 64
11, 39748, Note_on_c, 9, 46, 63
11, 39752, Note_off_c, 9, 46, 64
11, 39936, Note_on_c, 9, 35, 114
11, 39936, Note_on_c, 9, 60, 49
11, 39940, Note_off_c, 9, 60, 64
11, 39940, Note_off_c, 9, 35, 64
11, 39940, Note_on_c, 9, 44, 67
11, 39944, Note_off_c, 9, 44, 64
11, 40128, Note_on_c, 9, 70, 99
11, 40132, Note_off_c, 9, 70, 64
11, 40132, Note_on_c, 9, 46, 63
11, 40136, Note_off_c, 9, 46, 64
11, 40224, Note_on_c, 9, 60, 40
11, 40228, Note_off_c, 9, 60, 64
11, 40320, Note_on_c, 9, 35, 110
11, 40324, Note_off_c, 9, 35, 64
11, 40324, Note_on_c, 9, 40, 114
11, 40324, Note_on_c, 9, 44, 63
11, 40328, Note_off_c, 9, 44, 64
11, 40328, Note_off_c, 9, 40, 64
11, 40328, Note_on_c, 9, 39, 99
11, 40332, Note_off_c, 9, 39, 64
11, 40416, Note_on_c, 9, 60, 43
11, 40420, Note_off_c, 9, 60, 64
11, 40512, Note_on_c, 9, 70, 78
11, 40512, Note_on_c, 9, 63, 40
11, 40516, Note_off_c, 9, 63, 64
11, 40516, Note_off_c, 9, 70, 64
11, 40516, Note_on_c, 9, 46, 63
11, 40520, Note_off_c, 9, 46, 64
11, 40608, Note_on_c, 9, 70, 85
11, 40612, Note_off_c, 9, 70, 64
11, 40704, Note_on_c, 9, 35, 114
11, 40704, Note_on_c, 9, 60, 49
11, 40708, Note_off_c, 9, 60, 64
11, 40708, Note_off_c, 9, 35, 64
11, 40708, Note_on_c, 9, 44, 63
11, 40712, Note_off_c, 9, 44, 64
11, 40896, Note_on_c, 9, 70, 99
11, 40900, Note_off_c, 9, 70, 64
11, 40900, Note_on_c, 9, 46, 63
11, 40904, Note_off_c, 9, 46, 64
11, 40992, Note_on_c, 9, 60, 40
11, 40996, Note_off_c, 9, 60, 64
11, 41088, Note_on_c, 9, 35, 114
11, 41092, Note_off_c, 9, 35, 64
11, 41092, Note_on_c, 9, 40, 114
11, 41092, Note_on_c, 9, 44, 67
11, 41096, Note_off_c, 9, 44, 64
11, 41096, Note_off_c, 9, 40, 64
11, 41096, Note_on_c, 9, 39, 99
11, 41100, Note_off_c, 9, 39, 64
11, 41184, Note_on_c, 9, 60, 40
11, 41188, Note_off_c, 9, 60, 64
11, 41280, Note_on_c, 9, 70, 81
11, 41280, Note_on_c, 9, 63, 49
11, 41284, Note_off_c, 9, 63, 64
11, 41284, Note_off_c, 9, 70, 64
11, 41284, Note_on_c, 9, 46, 67
11, 41288, Note_off_c, 9, 46, 64
11, 41376, Note_on_c, 9, 70, 99
11, 41380, Note_off_c, 9, 70, 64
11, 41472, Note_on_c, 9, 35, 110
11, 41472, Note_on_c, 9, 69, 74
11, 41472, Note_on_c, 9, 60, 54
11, 41476, Note_off_c, 9, 60, 64
11, 41476, Note_off_c, 9, 69, 64
11, 41476, Note_off_c, 9, 35, 64
11, 41476, Note_on_c, 9, 44, 76
11, 41480, Note_off_c, 9, 44, 64
11, 41564, Note_on_c, 9, 69, 28
11, 41568, Note_off_c, 9, 69, 64
11, 41648, Note_on_c, 9, 69, 102
11, 41652, Note_off_c, 9, 69, 64
11, 41664, Note_on_c, 9, 70, 99
11, 41668, Note_off_c, 9, 70, 64
11, 41668, Note_on_c, 9, 46, 63
11, 41672, Note_off_c, 9, 46, 64
11, 41744, Note_on_c, 9, 69, 102
11, 41748, Note_off_c, 9, 69, 64
11, 41760, Note_on_c, 9, 60, 54
11, 41764, Note_off_c, 9, 60, 64
11, 41856, Note_on_c, 9, 35, 114
11, 41860, Note_off_c, 9, 35, 64
11, 41860, Note_on_c, 9, 40, 110
11, 41860, Note_on_c, 9, 44, 60
11, 41864, Note_off_c, 9, 44, 64
11, 41864, Note_off_c, 9, 40, 64
11, 41864, Note_on_c, 9, 39, 95
11, 41868, Note_off_c, 9, 39, 64
11, 41952, Note_on_c, 9, 60, 43
11, 41956, Note_off_c, 9, 60, 64
11, 42048, Note_on_c, 9, 70, 81
11, 42048, Note_on_c, 9, 63, 49
11, 42052, Note_off_c, 9, 63, 64
11, 42052, Note_off_c, 9, 70, 64
11, 42144, Note_on_c, 9, 70, 99
11, 42148, Note_off_c, 9, 70, 64
11, 42240, Note_on_c, 9, 35, 110
11, 42240, Note_on_c, 9, 60, 54
11, 42244, Note_off_c, 9, 60, 64
11, 42244, Note_off_c, 9, 35, 64
11, 42432, Note_on_c, 9, 70, 94
11, 42436, Note_off_c, 9, 70, 64
11, 42436, Note_on_c, 9, 46, 67
11, 42440, Note_off_c, 9, 46, 64
11, 42528, Note_on_c, 9, 60, 43
11, 42532, Note_off_c, 9, 60, 64
11, 42624, Note_on_c, 9, 35, 114
11, 42628, Note_off_c, 9, 35, 64
11, 42628, Note_on_c, 9, 40, 110
11, 42628, Note_on_c, 9, 44, 67
11, 42632, Note_off_c, 9, 44, 64
11, 42632, Note_off_c, 9, 40, 64
11, 42632, Note_on_c, 9, 39, 95
11, 42636, Note_off_c, 9, 39, 64
11, 42720, Note_on_c, 9, 60, 49
11, 42724, Note_off_c, 9, 60, 64
11, 42816, Note_on_c, 9, 70, 94
11, 42816, Note_on_c, 9, 63, 54
11, 42820, Note_off_c, 9, 63, 64
11, 42820, Note_off_c, 9, 70, 64
11, 42820, Note_on_c, 9, 46, 63
11, 42824, Note_off_c, 9, 46, 64
11, 43008, Note_on_c, 9, 35, 110
11, 43008, Note_on_c, 9, 60, 54
11, 43012, Note_off_c, 9, 60, 64
11, 43012, Note_off_c, 9, 35, 64
11, 43012, Note_on_c, 9, 44, 63
11, 43016, Note_off_c, 9, 44, 64
11, 43200, Note_on_c, 9, 70, 94
11, 43204, Note_off_c, 9, 70, 64
11, 43204, Note_on_c, 9, 46, 60
11, 43208, Note_off_c, 9, 46, 64
11, 43296, Note_on_c, 9, 60, 33
11, 43300, Note_off_c, 9, 60, 64
11, 43392, Note_on_c, 9, 35, 110
11, 43396, Note_off_c, 9, 35, 64
11, 43396, Note_on_c, 9, 40, 110
11, 43396, Note_on_c, 9, 44, 63
11, 43400, Note_off_c, 9, 44, 64
11, 43400, Note_off_c, 9, 40, 64
11, 43400, Note_on_c, 9, 39, 95
11, 43404, Note_off_c, 9, 39, 64
11, 43488, Note_on_c, 9, 60, 36
11, 43492, Note_off_c, 9, 60, 64
11, 43584, Note_on_c, 9, 70, 78
11, 43584, Note_on_c, 9, 63, 49
11, 43588, Note_off_c, 9, 63, 64
11, 43588, Note_off_c, 9, 70, 64
11, 43588, Note_on_c, 9, 46, 54
11, 43592, Note_off_c, 9, 46, 64
11, 43680, Note_on_c, 9, 70, 94
11, 43684, Note_off_c, 9, 70, 64
11, 43776, Note_on_c, 9, 35, 110
11, 43776, Note_on_c, 9, 60, 54
11, 43780, Note_off_c, 9, 60, 64
11, 43780, Note_off_c, 9, 35, 64
11, 43780, Note_on_c, 9, 44, 63
11, 43784, Note_off_c, 9, 44, 64
11, 43968, Note_on_c, 9, 70, 94
11, 43972, Note_off_c, 9, 70, 64
11, 43972, Note_on_c, 9, 46, 54
11, 43976, Note_off_c, 9, 46, 64
11, 44064, Note_on_c, 9, 60, 43
11, 44068, Note_off_c, 9, 60, 64
11, 44160, Note_on_c, 9, 35, 114
11, 44164, Note_off_c, 9, 35, 64
11, 44164, Note_on_c, 9, 40, 110
11, 44164, Note_on_c, 9, 44, 63
11, 44168, Note_off_c, 9, 44, 64
11, 44168, Note_off_c, 9, 40, 64
11, 44168, Note_on_c, 9, 39, 95
11, 44172, Note_off_c, 9, 39, 64
11, 44256, Note_on_c, 9, 60, 40
11, 44260, Note_off_c, 9, 60, 64
11, 44352, Note_on_c, 9, 70, 78
11, 44352, Note_on_c, 9, 63, 49
11, 44356, Note_off_c, 9, 63, 64
11, 44356, Note_off_c, 9, 70, 64
11, 44356, Note_on_c, 9, 46, 60
11, 44360, Note_off_c, 9, 46, 64
11, 44448, Note_on_c, 9, 70, 99
11, 44452, Note_off_c, 9, 70, 64
11, 44544, Note_on_c, 9, 35, 114
11, 44544, Note_on_c, 9, 69, 74
11, 44544, Note_on_c, 9, 60, 54
11, 44548, Note_off_c, 9, 60, 64
11, 44548, Note_off_c, 9, 69, 64
11, 44548, Note_off_c, 9, 35, 64
11, 44548, Note_on_c, 9, 44, 63
11, 44552, Note_off_c, 9, 44, 64
11, 44636, Note_on_c, 9, 69, 28
11, 44640, Note_off_c, 9, 69, 64
11, 44720, Note_on_c, 9, 69, 102
11, 44724, Note_off_c, 9, 69, 64
11, 44736, Note_on_c, 9, 70, 94
11, 44740, Note_off_c, 9, 70, 64
11, 44740, Note_on_c, 9, 46, 67
11, 44744, Note_off_c, 9, 46, 64
11, 44816, Note_on_c, 9, 69, 102
11, 44820, Note_off_c, 9, 69, 64
11, 44832, Note_on_c, 9, 60, 43
11, 44836, Note_off_c, 9, 60, 64
11, 44928, Note_on_c, 9, 35, 114
11, 44932, Note_off_c, 9, 35, 64
11, 44932, Note_on_c, 9, 40, 114
11, 44932, Note_on_c, 9, 44, 76
11, 44936, Note_off_c, 9, 44, 64
11, 44936, Note_off_c, 9, 40, 64
11, 44936, Note_on_c, 9, 39, 99
11, 44940, Note_off_c, 9, 39, 64
11, 45024, Note_on_c, 9, 60, 40
11, 45028, Note_off_c, 9, 60, 64
11, 45120, Note_on_c, 9, 70, 72
11, 45120, Note_on_c, 9, 63, 40
11, 45124, Note_off_c, 9, 63, 64
11, 45124, Note_off_c, 9, 70, 64
11, 45216, Note_on_c, 9, 70, 85
11, 45220, Note_off_c, 9, 70, 64
11, 45312, Note_on_c, 9, 35, 110
11, 45312, Note_on_c, 9, 60, 54
11, 45316, Note_off_c, 9, 60, 64
11, 45316, Note_off_c, 9, 35, 64
11, 45504, Note_on_c, 9, 70, 94
11, 45508, Note_off_c, 9, 70, 64
11, 45508, Note_on_c, 9, 46, 63
11, 45512, Note_off_c, 9, 46, 64
11, 45600, Note_on_c, 9, 60, 40
11, 45604, Note_off_c, 9, 60, 64
11, 45696, Note_on_c, 9, 35, 114
11, 45700, Note_off_c, 9, 35, 64
11, 45700, Note_on_c, 9, 40, 114
11, 45700, Note_on_c, 9, 44, 63
11, 45704, Note_off_c, 9, 44, 64
11, 45704, Note_off_c, 9, 40, 64
11, 45704, Note_on_c, 9, 39, 99
11, 45708, Note_off_c, 9, 39, 64
11, 45792, Note_on_c, 9, 60, 43
11, 45796, Note_off_c, 9, 60, 64
11, 45888, Note_on_c, 9, 70, 94
11, 45888, Note_on_c, 9, 63, 54
11, 45892, Note_off_c, 9, 63, 64
11, 45892, Note_off_c, 9, 70, 64
11, 45892, Note_on_c, 9, 46, 63
11, 45896, Note_off_c, 9, 46, 64
11, 46080, Note_on_c, 9, 35, 114
11, 46080, Note_on_c, 9, 60, 49
11, 46084, Note_off_c, 9, 60, 64
11, 46084, Note_off_c, 9, 35, 64
11, 46084, Note_on_c, 9, 44, 67
11, 46088, Note_off_c, 9, 44, 64
11, 46272, Note_on_c, 9, 70, 99
11, 46276, Note_off_c, 9, 70, 64
11, 46276, Note_on_c, 9, 46, 63
11, 46280, Note_off_c, 9, 46, 64
11, 46368, Note_on_c, 9, 60, 40
11, 46372, Note_off_c, 9, 60, 64
11, 46464, Note_on_c, 9, 35, 110
11, 46468, Note_off_c, 9, 35, 64
11, 46468, Note_on_c, 9, 40, 114
11, 46468, Note_on_c, 9, 44, 63
11, 46472, Note_off_c, 9, 44, 64
11, 46472, Note_off_c, 9, 40, 64
11, 46472, Note_on_c, 9, 39, 99
11, 46476, Note_off_c, 9, 39, 64
11, 46560, Note_on_c, 9, 60, 43
11, 46564, Note_off_c, 9, 60, 64
11, 46656, Note_on_c, 9, 70, 78
11, 46656, Note_on_c, 9, 63, 40
11, 46660, Note_off_c, 9, 63, 64
11, 46660, Note_off_c, 9, 70, 64
11, 46660, Note_on_c, 9, 46, 63
11, 46664, Note_off_c, 9, 46, 64
11, 46752, Note_on_c, 9, 70, 85
11, 46756, Note_off_c, 9, 70, 64
11, 46848, Note_on_c, 9, 35, 114
11, 46848, Note_on_c, 9, 60, 49
11, 46852, Note_off_c, 9, 60, 64
11, 46852, Note_off_c, 9, 35, 64
11, 46852, Note_on_c, 9, 40, 110
11, 46852, Note_on_c, 9, 44, 63
11, 46856, Note_off_c, 9, 44, 64
11, 46856, Note_off_c, 9, 40, 64
11, 46856, Note_on_c, 9, 39, 95
11, 46860, Note_off_c, 9, 39, 64
11, 47040, Note_on_c, 9, 70, 99
11, 47044, Note_off_c, 9, 70, 64
11, 47044, Note_on_c, 9, 46, 63
11, 47048, Note_off_c, 9, 46, 64
11, 47136, Note_on_c, 9, 60, 40
11, 47140, Note_off_c, 9, 60, 64
11, 47232, Note_on_c, 9, 35, 114
11, 47236, Note_off_c, 9, 35, 64
11, 47236, Note_on_c, 9, 40, 114
11, 47236, Note_on_c, 9, 44, 67
11, 47240, Note_off_c, 9, 44, 64
11, 47240, Note_off_c, 9, 40, 64
11, 47240, Note_on_c, 9, 39, 99
11, 47244, Note_off_c, 9, 39, 64
11, 47328, Note_on_c, 9, 60, 40
11, 47332, Note_off_c, 9, 60, 64
11, 47332, Note_on_c, 9, 40, 114
11, 47336, Note_off_c, 9, 40, 64
11, 47336, Note_on_c, 9, 39, 99
11, 47340, Note_off_c, 9, 39, 64
11, 47424, Note_on_c, 9, 70, 81
11, 47424, Note_on_c, 9, 63, 49
11, 47428, Note_off_c, 9, 63, 64
11, 47428, Note_off_c, 9, 70, 64
11, 47428, Note_on_c, 9, 46, 67
11, 47432, Note_off_c, 9, 46, 64
11, 47520, Note_on_c, 9, 70, 99
11, 47524, Note_off_c, 9, 70, 64
11, 47616, Note_on_c, 9, 35, 110
11, 47616, Note_on_c, 9, 69, 74
11, 47616, Note_on_c, 9, 60, 54
11, 47620, Note_off_c, 9, 60, 64
11, 47620, Note_off_c, 9, 69, 64
11, 47620, Note_off_c, 9, 35, 64
11, 47620, Note_on_c, 9, 44, 76
11, 47624, Note_off_c, 9, 44, 64
11, 47708, Note_on_c, 9, 69, 28
11, 47712, Note_off_c, 9, 69, 64
11, 47792, Note_on_c, 9, 69, 102
11, 47796, Note_off_c, 9, 69, 64
11, 47808, Note_on_c, 9, 70, 99
11, 47812, Note_off_c, 9, 70, 64
11, 47812, Note_on_c, 9, 46, 63
11, 47816, Note_off_c, 9, 46, 64
11, 47888, Note_on_c, 9, 69, 102
11, 47892, Note_off_c, 9, 69, 64
11, 47904, Note_on_c, 9, 60, 54
11, 47908, Note_off_c, 9, 60, 64
11, 48000, Note_on_c, 9, 35, 114
11, 48004, Note_off_c, 9, 35, 64
11, 48004, Note_on_c, 9, 40, 110
11, 48004, Note_on_c, 9, 44, 60
11, 48008, Note_off_c, 9, 44, 64
11, 48008, Note_off_c, 9, 40, 64
11, 48008, Note_on_c, 9, 39, 95
11, 48012, Note_off_c, 9, 39, 64
11, 48096, Note_on_c, 9, 60, 43
11, 48100, Note_off_c, 9, 60, 64
11, 48192, Note_on_c, 9, 70, 81
11, 48192, Note_on_c, 9, 63, 49
11, 48196, Note_off_c, 9, 63, 64
11, 48196, Note_off_c, 9, 70, 64
11, 48288, Note_on_c, 9, 70, 99
11, 48292, Note_off_c, 9, 70, 64
11, 48384, Note_on_c, 9, 35, 110
11, 48384, Note_on_c, 9, 60, 54
11, 48388, Note_off_c, 9, 60, 64
11, 48388, Note_off_c, 9, 35, 64
11, 48576, Note_on_c, 9, 70, 94
11, 48580, Note_off_c, 9, 70, 64
11, 48580, Note_on_c, 9, 46, 67
11, 48584, Note_off_c, 9, 46, 64
11, 48672, Note_on_c, 9, 60, 43
11, 48676, Note_off_c, 9, 60, 64
11, 48768, Note_on_c, 9, 35, 114
11, 48772, Note_off_c, 9, 35, 64
11, 48772, Note_on_c, 9, 40, 110
11, 48772, Note_on_c, 9, 44, 67
11, 48776, Note_off_c, 9, 44, 64
11, 48776, Note_off_c, 9, 40, 64
11, 48776, Note_on_c, 9, 39, 95
11, 48780, Note_off_c, 9, 39, 64
11, 48864, Note_on_c, 9, 60, 49
11, 48868, Note_off_c, 9, 60, 64
11, 48960, Note_on_c, 9, 70, 94
11, 48960, Note_on_c, 9, 63, 54
11, 48964, Note_off_c, 9, 63, 64
11, 48964, Note_off_c, 9, 70, 64
11, 48964, Note_on_c, 9, 46, 63
11, 48968, Note_off_c, 9, 46, 64
11, 49152, Note_on_c, 9, 35, 110
11, 49152, Note_on_c, 9, 60, 54
11, 49156, Note_off_c, 9, 60, 64
11, 49156, Note_off_c, 9, 35, 64
11, 49156, Note_on_c, 9, 44, 63
11, 49160, Note_off_c, 9, 44, 64
11, 49344, Note_on_c, 9, 70, 94
11, 49348, Note_off_c, 9, 70, 64
11, 49348, Note_on_c, 9, 46, 60
11, 49352, Note_off_c, 9, 46, 64
11, 49440, Note_on_c, 9, 60, 33
11, 49444, Note_off_c, 9, 60, 64
11, 49536, Note_on_c, 9, 35, 110
11, 49540, Note_off_c, 9, 35, 64
11, 49540, Note_on_c, 9, 40, 110
11, 49540, Note_on_c, 9, 44, 63
11, 49544, Note_off_c, 9, 44, 64
11, 49544, Note_off_c, 9, 40, 64
11, 49544, Note_on_c, 9, 39, 95
11, 49548, Note_off_c, 9, 39, 64
11, 49632, Note_on_c, 9, 60, 36
11, 49636, Note_off_c, 9, 60, 64
11, 49728, Note_on_c, 9, 70, 78
11, 49728, Note_on_c, 9, 63, 49
11, 49732, Note_off_c, 9, 63, 64
11, 49732, Note_off_c, 9, 70, 64
11, 49732, Note_on_c, 9, 46, 54
11, 49736, Note_off_c, 9, 46, 64
11, 49824, Note_on_c, 9, 70, 94
11, 49828, Note_off_c, 9, 70, 64
11, 49920, Note_on_c, 9, 35, 110
11, 49920, Note_on_c, 9, 60, 54
11, 49924, Note_off_c, 9, 60, 64
11, 49924, Note_off_c, 9, 35, 64
11, 49924, Note_on_c, 9, 44, 63
11, 49928, Note_off_c, 9, 44, 64
11, 50112, Note_on_c, 9, 70, 94
11, 50116, Note_off_c, 9, 70, 64
11, 50116, Note_on_c, 9, 46, 54
11, 50120, Note_off_c, 9, 46, 64
11, 50208, Note_on_c, 9, 60, 43
11, 50212, Note_off_c, 9, 60, 64
11, 50304, Note_on_c, 9, 35, 114
11, 50308, Note_off_c, 9, 35, 64
11, 50308, Note_on_c, 9, 40, 110
11, 50308, Note_on_c, 9, 44, 63
11, 50312, Note_off_c, 9, 44, 64
11, 50312, Note_off_c, 9, 40, 64
11, 50312, Note_on_c, 9, 39, 95
11, 50316, Note_off_c, 9, 39, 64
11, 50400, Note_on_c, 9, 60, 40
11, 50404, Note_off_c, 9, 60, 64
11, 50496, Note_on_c, 9, 70, 78
11, 50496, Note_on_c, 9, 63, 49
11, 50500, Note_off_c, 9, 63, 64
11, 50500, Note_off_c, 9, 70, 64
11, 50500, Note_on_c, 9, 46, 60
11, 50504, Note_off_c, 9, 46, 64
11, 50592, Note_on_c, 9, 70, 99
11, 50596, Note_off_c, 9, 70, 64
11, 50688, Note_on_c, 9, 35, 114
11, 50688, Note_on_c, 9, 69, 74
11, 50688, Note_on_c, 9, 60, 54
11, 50692, Note_off_c, 9, 60, 64
11, 50692, Note_off_c, 9, 69, 64
11, 50692, Note_off_c, 9, 35, 64
11, 50692, Note_on_c, 9, 44, 63
11, 50696, Note_off_c, 9, 44, 64
11, 50780, Note_on_c, 9, 69, 28
11, 50784, Note_off_c, 9, 69, 64
11, 50864, Note_on_c, 9, 69, 102
11, 50868, Note_off_c, 9, 69, 64
11, 50880, Note_on_c, 9, 70, 94
11, 50884, Note_off_c, 9, 70, 64
11, 50884, Note_on_c, 9, 46, 67
11, 50888, Note_off_c, 9, 46, 64
11, 50960, Note_on_c, 9, 69, 102
11, 50964, Note_off_c, 9, 69, 64
11, 50976, Note_on_c, 9, 60, 43
11, 50980, Note_off_c, 9, 60, 64
11, 51072, Note_on_c, 9, 35, 114
11, 51076, Note_off_c, 9, 35, 64
11, 51076, Note_on_c, 9, 40, 114
11, 51076, Note_on_c, 9, 44, 76
11, 51080, Note_off_c, 9, 44, 64
11, 51080, Note_off_c, 9, 40, 64
11, 51080, Note_on_c, 9, 39, 99
11, 51084, Note_off_c, 9, 39, 64
11, 51168, Note_on_c, 9, 60, 40
11, 51172, Note_off_c, 9, 60, 64
11, 51264, Note_on_c, 9, 70, 72
11, 51264, Note_on_c, 9, 63, 40
11, 51268, Note_off_c, 9, 63, 64
11, 51268, Note_off_c, 9, 70, 64
11, 51360, Note_on_c, 9, 70, 85
11, 51364, Note_off_c, 9, 70, 64
11, 51456, Note_on_c, 9, 35, 110
11, 51456, Note_on_c, 9, 60, 54
11, 51460, Note_off_c, 9, 60, 64
11, 51460, Note_off_c, 9, 35, 64
11, 51648, Note_on_c, 9, 70, 94
11, 51652, Note_off_c, 9, 70, 64
11, 51652, Note_on_c, 9, 46, 63
11, 51656, Note_off_c, 9, 46, 64
11, 51744, Note_on_c, 9, 60, 40
11, 51748, Note_off_c, 9, 60, 64
11, 51840, Note_on_c, 9, 35, 114
11, 51844, Note_off_c, 9, 35, 64
11, 51844, Note_on_c, 9, 40, 114
11, 51844, Note_on_c, 9, 44, 63
11, 51848, Note_off_c, 9, 44, 64
11, 51848, Note_off_c, 9, 40, 64
11, 51848, Note_on_c, 9, 39, 99
11, 51852, Note_off_c, 9, 39, 64
11, 51936, Note_on_c, 9, 60, 43
11, 51940, Note_off_c, 9, 60, 64
11, 52032, Note_on_c, 9, 70, 94
11, 52032, Note_on_c, 9, 63, 54
11, 52036, Note_off_c, 9, 63, 64
11, 52036, Note_off_c, 9, 70, 64
11, 52036, Note_on_c, 9, 46, 63
11, 52040, Note_off_c, 9, 46, 64
11, 52224, Note_on_c, 9, 35, 114
11, 52224, Note_on_c, 9, 60, 49
11, 52228, Note_off_c, 9, 60, 64
11, 52228, Note_off_c, 9, 35, 64
11, 52228, Note_on_c, 9, 44, 67
11, 52232, Note_off_c, 9, 44, 64
11, 52416, Note_on_c, 9, 70, 99
11, 52420, Note_off_c, 9, 70, 64
11, 52420, Note_on_c, 9, 46, 63
11, 52424, Note_off_c, 9, 46, 64
11, 52512, Note_on_c, 9, 60, 40
11, 52516, Note_off_c, 9, 60, 64
11, 52608, Note_on_c, 9, 35, 110
11, 52612, Note_off_c, 9, 35, 64
11, 52612, Note_on_c, 9, 40, 114
11, 52612, Note_on_c, 9, 44, 63
11, 52616, Note_off_c, 9, 44, 64
11, 52616, Note_off_c, 9, 40, 64
11, 52616, Note_on_c, 9, 39, 99
11, 52620, Note_off_c, 9, 39, 64
11, 52704, Note_on_c, 9, 60, 43
11, 52708, Note_off_c, 9, 60, 64
11, 52800, Note_on_c, 9, 70, 78
11, 52800, Note_on_c, 9, 63, 40
11, 52804, Note_off_c, 9, 63, 64
11, 52804, Note_off_c, 9, 70, 64
11, 52804, Note_on_c, 9, 46, 63
11, 52808, Note_off_c, 9, 46, 64
11, 52896, Note_on_c, 9, 70, 85
11, 52900, Note_off_c, 9, 70, 64
11, 52992, Note_on_c, 9, 35, 114
11, 52992, Note_on_c, 9, 60, 49
11, 52996, Note_off_c, 9, 60, 64
11, 52996, Note_off_c, 9, 35, 64
11, 52996, Note_on_c, 9, 44, 63
11, 53000, Note_off_c, 9, 44, 64
11, 53184, Note_on_c, 9, 70, 99
11, 53188, Note_off_c, 9, 70, 64
11, 53188, Note_on_c, 9, 46, 63
11, 53192, Note_off_c, 9, 46, 64
11, 53280, Note_on_c, 9, 60, 40
11, 53284, Note_off_c, 9, 60, 64
11, 53376, Note_on_c, 9, 35, 114
11, 53380, Note_off_c, 9, 35, 64
11, 53380, Note_on_c, 9, 40, 114
11, 53380, Note_on_c, 9, 44, 67
11, 53384, Note_off_c, 9, 44, 64
11, 53384, Note_off_c, 9, 40, 64
11, 53384, Note_on_c, 9, 39, 99
11, 53388, Note_off_c, 9, 39, 64
11, 53472, Note_on_c, 9, 60, 40
11, 53476, Note_off_c, 9, 60, 64
11, 53568, Note_on_c, 9, 70, 81
11, 53568, Note_on_c, 9, 63, 49
11, 53572, Note_off_c, 9, 63, 64
11, 53572, Note_off_c, 9, 70, 64
11, 53572, Note_on_c, 9, 46, 67
11, 53576, Note_off_c, 9, 46, 64
11, 53664, Note_on_c, 9, 70, 99
11, 53668, Note_off_c, 9, 70, 64
11, 53760, Note_on_c, 9, 35, 110
11, 53760, Note_on_c, 9, 69, 74
11, 53760, Note_on_c, 9, 60, 54
11, 53764, Note_off_c, 9, 60, 64
11, 53764, Note_off_c, 9, 69, 64
11, 53764, Note_off_c, 9, 35, 64
11, 53764, Note_on_c, 9, 44, 76
11, 53768, Note_off_c, 9, 44, 64
11, 53852, Note_on_c, 9, 69, 28
11, 53856, Note_off_c, 9, 69, 64
11, 53936, Note_on_c, 9, 69, 102
11, 53940, Note_off_c, 9, 69, 64
11, 53952, Note_on_c, 9, 70, 99
11, 53956, Note_off_c, 9, 70, 64
11, 53956, Note_on_c, 9, 46, 63
11, 53960, Note_off_c, 9, 46, 64
11, 54032, Note_on_c, 9, 69, 102
11, 54036, Note_off_c, 9, 69, 64
11, 54048, Note_on_c, 9, 60, 54
11, 54052, Note_off_c, 9, 60, 64
11, 54144, Note_on_c, 9, 35, 114
11, 54148, Note_off_c, 9, 35, 64
11, 54148, Note_on_c, 9, 40, 110
11, 54148, Note_on_c, 9, 44, 60
11, 54152, Note_off_c, 9, 44, 64
11, 54152, Note_off_c, 9, 40, 64
11, 54152, Note_on_c, 9, 39, 95
11, 54156, Note_off_c, 9, 39, 64
11, 54240, Note_on_c, 9, 60, 43
11, 54244, Note_off_c, 9, 60, 64
11, 54336, Note_on_c, 9, 70, 81
11, 54336, Note_on_c, 9, 63, 49
11, 54340, Note_off_c, 9, 63, 64
11, 54340, Note_off_c, 9, 70, 64
11, 54432, Note_on_c, 9, 70, 99
11, 54436, Note_off_c, 9, 70, 64
11, 54528, Note_on_c, 9, 35, 110
11, 54528, Note_on_c, 9, 60, 54
11, 54532, Note_off_c, 9, 60, 64
11, 54532, Note_off_c, 9, 35, 64
11, 54720, Note_on_c, 9, 70, 94
11, 54724, Note_off_c, 9, 70, 64
11, 54724, Note_on_c, 9, 46, 67
11, 54728, Note_off_c, 9, 46, 64
11, 54816, Note_on_c, 9, 60, 43
11, 54820, Note_off_c, 9, 60, 64
11, 54912, Note_on_c, 9, 35, 114
11, 54916, Note_off_c, 9, 35, 64
11, 54916, Note_on_c, 9, 40, 110
11, 54916, Note_on_c, 9, 44, 67
11, 54920, Note_off_c, 9, 44, 64
11, 54920, Note_off_c, 9, 40, 64
11, 54920, Note_on_c, 9, 39, 95
11, 54924, Note_off_c, 9, 39, 64
11, 55008, Note_on_c, 9, 60, 49
11, 55012, Note_off_c, 9, 60, 64
11, 55104, Note_on_c, 9, 70, 94
11, 55104, Note_on_c, 9, 63, 54
11, 55108, Note_off_c, 9, 63, 64
11, 55108, Note_off_c, 9, 70, 64
11, 55108, Note_on_c, 9, 46, 63
11, 55112, Note_off_c, 9, 46, 64
11, 55296, Note_on_c, 9, 35, 110
11, 55296, Note_on_c, 9, 60, 54
11, 55300, Note_off_c, 9, 60, 64
11, 55300, Note_off_c, 9, 35, 64
11, 55300, Note_on_c, 9, 44, 63
11, 55304, Note_off_c, 9, 44, 64
11, 55488, Note_on_c, 9, 70, 94
11, 55492, Note_off_c, 9, 70, 64
11, 55492, Note_on_c, 9, 46, 60
11, 55496, Note_off_c, 9, 46, 64
11, 55584, Note_on_c, 9, 60, 33
11, 55588, Note_off_c, 9, 60, 64
11, 55680, Note_on_c, 9, 35, 110
11, 55684, Note_off_c, 9, 35, 64
11, 55684, Note_on_c, 9, 40, 110
11, 55684, Note_on_c, 9, 44, 63
11, 55688, Note_off_c, 9, 44, 64
11, 55688, Note_off_c, 9, 40, 64
11, 55688, Note_on_c, 9, 39, 95
11, 55692, Note_off_c, 9, 39, 64
11, 55776, Note_on_c, 9, 60, 36
11, 55780, Note_off_c, 9, 60, 64
11, 55872, Note_on_c, 9, 70, 78
11, 55872, Note_on_c, 9, 63, 49
11, 55876, Note_off_c, 9, 63, 64
11, 55876, Note_off_c, 9, 70, 64
11, 55876, Note_on_c, 9, 46, 54
11, 55880, Note_off_c, 9, 46, 64
11, 55968, Note_on_c, 9, 70, 94
11, 55972, Note_off_c, 9, 70, 64
11, 56064, Note_on_c, 9, 35, 110
11, 56064, Note_on_c, 9, 60, 54
11, 56068, Note_off_c, 9, 60, 64
11, 56068, Note_off_c, 9, 35, 64
11, 56068, Note_on_c, 9, 44, 63
11, 56072, Note_off_c, 9, 44, 64
11, 56256, Note_on_c, 9, 70, 94
11, 56260, Note_off_c, 9, 70, 64
11, 56260, Note_on_c, 9, 46, 54
11, 56264, Note_off_c, 9, 46, 64
11, 56352, Note_on_c, 9, 60, 43
11, 56356, Note_off_c, 9, 60, 64
11, 56448, Note_on_c, 9, 35, 114
11, 56452, Note_off_c, 9, 35, 64
11, 56452, Note_on_c, 9, 40, 110
11, 56452, Note_on_c, 9, 44, 63
11, 56456, Note_off_c, 9, 44, 64
11, 56456, Note_off_c, 9, 40, 64
11, 56456, Note_on_c, 9, 39, 95
11, 56460, Note_off_c, 9, 39, 64
11, 56544, Note_on_c, 9, 60, 40
11, 56548, Note_off_c, 9, 60, 64
11, 56640, Note_on_c, 9, 70, 78
11, 56640, Note_on_c, 9, 63, 49
11, 56644, Note_off_c, 9, 63, 64
11, 56644, Note_off_c, 9, 70, 64
11, 56644, Note_on_c, 9, 46, 60
11, 56648, Note_off_c, 9, 46, 64
11, 56736, Note_on_c, 9, 70, 99
11, 56740, Note_off_c, 9, 70, 64
11, 56832, Note_on_c, 9, 35, 114
11, 56832, Note_on_c, 9, 69, 74
11, 56832, Note_on_c, 9, 60, 54
11, 56836, Note_off_c, 9, 60, 64
11, 56836, Note_off_c, 9, 69, 64
11, 56836, Note_off_c, 9, 35, 64
11, 56836, Note_on_c, 9, 44, 63
11, 56840, Note_off_c, 9, 44, 64
11, 56924, Note_on_c, 9, 69, 28
11, 56928, Note_off_c, 9, 69, 64
11, 57008, Note_on_c, 9, 69, 102
11, 57012, Note_off_c, 9, 69, 64
11, 57024, Note_on_c, 9, 70, 94
11, 57028, Note_off_c, 9, 70, 64
11, 57028, Note_on_c, 9, 46, 67
11, 57032, Note_off_c, 9, 46, 64
11, 57104, Note_on_c, 9, 69, 102
11, 57108, Note_off_c, 9, 69, 64
11, 57120, Note_on_c, 9, 60, 43
11, 57124, Note_off_c, 9, 60, 64
11, 57216, Note_on_c, 9, 35, 114
11, 57220, Note_off_c, 9, 35, 64
11, 57220, Note_on_c, 9, 40, 114
11, 57220, Note_on_c, 9, 44, 76
11, 57224, Note_off_c, 9, 44, 64
11, 57224, Note_off_c, 9, 40, 64
11, 57224, Note_on_c, 9, 39, 99
11, 57228, Note_off_c, 9, 39, 64
11, 57312, Note_on_c, 9, 60, 40
11, 57316, Note_off_c, 9, 60, 64
11, 57408, Note_on_c, 9, 70, 72
11, 57408, Note_on_c, 9, 63, 40
11, 57412, Note_off_c, 9, 63, 64
11, 57412, Note_off_c, 9, 70, 64
11, 57504, Note_on_c, 9, 70, 85
11, 57508, Note_off_c, 9, 70, 64
11, 57600, Note_on_c, 9, 35, 110
11, 57600, Note_on_c, 9, 60, 54
11, 57604, Note_off_c, 9, 60, 64
11, 57604, Note_off_c, 9, 35, 64
11, 57792, Note_on_c, 9, 70, 94
11, 57796, Note_off_c, 9, 70, 64
11, 57796, Note_on_c, 9, 46, 63
11, 57800, Note_off_c, 9, 46, 64
11, 57888, Note_on_c, 9, 60, 40
11, 57892, Note_off_c, 9, 60, 64
11, 57984, Note_on_c, 9, 35, 114
11, 57988, Note_off_c, 9, 35, 64
11, 57988, Note_on_c, 9, 40, 114
11, 57988, Note_on_c, 9, 44, 63
11, 57992, Note_off_c, 9, 44, 64
11, 57992, Note_off_c, 9, 40, 64
11, 57992, Note_on_c, 9, 39, 99
11, 57996, Note_off_c, 9, 39, 64
11, 58080, Note_on_c, 9, 60, 43
11, 58084, Note_off_c, 9, 60, 64
11, 58176, Note_on_c, 9, 70, 94
11, 58176, Note_on_c, 9, 63, 54
11, 58180, Note_off_c, 9, 63, 64
11, 58180, Note_off_c, 9, 70, 64
11, 58180, Note_on_c, 9, 46, 63
11, 58184, Note_off_c, 9, 46, 64
11, 58368, Note_on_c, 9, 35, 114
11, 58368, Note_on_c, 9, 60, 49
11, 58372, Note_off_c, 9, 60, 64
11, 58372, Note_off_c, 9, 35, 64
11, 58372, Note_on_c, 9, 44, 67
11, 58376, Note_off_c, 9, 44, 64
11, 58560, Note_on_c, 9, 70, 99
11, 58564, Note_off_c, 9, 70, 64
11, 58564, Note_on_c, 9, 46, 63
11, 58568, Note_off_c, 9, 46, 64
11, 58656, Note_on_c, 9, 60, 40
11, 58660, Note_off_c, 9, 60, 64
11, 58752, Note_on_c, 9, 35, 110
11, 58756, Note_off_c, 9, 35, 64
11, 58756, Note_on_c, 9, 40, 114
11, 58756, Note_on_c, 9, 44, 63
11, 58760, Note_off_c, 9, 44, 64
11, 58760, Note_off_c, 9, 40, 64
11, 58760, Note_on_c, 9, 39, 99
11, 58764, Note_off_c, 9, 39, 64
11, 58848, Note_on_c, 9, 60, 43
11, 58852, Note_off_c, 9, 60, 64
11, 58944, Note_on_c, 9, 70, 78
11, 58944, Note_on_c, 9, 63, 40
11, 58948, Note_off_c, 9, 63, 64
11, 58948, Note_off_c, 9, 70, 64
11, 58948, Note_on_c, 9, 46, 63
11, 58952, Note_off_c, 9, 46, 64
11, 59040, Note_on_c, 9, 70, 85
11, 59044, Note_off_c, 9, 70, 64
11, 59136, Note_on_c, 9, 35, 114
11, 59136, Note_on_c, 9, 60, 49
11, 59140, Note_off_c, 9, 60, 64
11, 59140, Note_off_c, 9, 35, 64
11, 59140, Note_on_c, 9, 44, 63
11, 59144, Note_off_c, 9, 44, 64
11, 59328, Note_on_c, 9, 70, 99
11, 59332, Note_off_c, 9, 70, 64
11, 59332, Note_on_c, 9, 46, 63
11, 59336, Note_off_c, 9, 46, 64
11, 59424, Note_on_c, 9, 60, 40
11, 59428, Note_off_c, 9, 60, 64
11, 59520, Note_on_c, 9, 35, 114
11, 59524, Note_off_c, 9, 35, 64
11, 59524, Note_on_c, 9, 40, 114
11, 59524, Note_on_c, 9, 44, 67
11, 59528, Note_off_c, 9, 44, 64
11, 59528, Note_off_c, 9, 40, 64
11, 59528, Note_on_c, 9, 39, 99
11, 59532, Note_off_c, 9, 39, 64
11, 59616, Note_on_c, 9, 60, 40
11, 59620, Note_off_c, 9, 60, 64
11, 59712, Note_on_c, 9, 70, 81
11, 59712, Note_on_c, 9, 63, 49
11, 59716, Note_off_c, 9, 63, 64
11, 59716, Note_off_c, 9, 70, 64
11, 59716, Note_on_c, 9, 46, 67
11, 59720, Note_off_c, 9, 46, 64
11, 59808, Note_on_c, 9, 70, 99
11, 59812, Note_off_c, 9, 70, 64
11, 59904, Note_on_c, 9, 35, 110
11, 59904, Note_on_c, 9, 69, 74
11, 59904, Note_on_c, 9, 60, 54
11, 59908, Note_off_c, 9, 60, 64
11, 59908, Note_off_c, 9, 69, 64
11, 59908, Note_off_c, 9, 35, 64
11, 59908, Note_on_c, 9, 44, 76
11, 59912, Note_off_c, 9, 44, 64
11, 59996, Note_on_c, 9, 69, 28
11, 60000, Note_off_c, 9, 69, 64
11, 60080, Note_on_c, 9, 69, 102
11, 60084, Note_off_c, 9, 69, 64
11, 60096, Note_on_c, 9, 70, 99
11, 60100, Note_off_c, 9, 70, 64
11, 60100, Note_on_c, 9, 46, 63
11, 60104, Note_off_c, 9, 46, 64
11, 60176, Note_on_c, 9, 69, 102
11, 60180, Note_off_c, 9, 69, 64
11, 60192, Note_on_c, 9, 60, 54
11, 60196, Note_off_c, 9, 60, 64
11, 60288, Note_on_c, 9, 35, 114
11, 60292, Note_off_c, 9, 35, 64
11, 60292, Note_on_c, 9, 40, 110
11, 60292, Note_on_c, 9, 44, 60
11, 60296, Note_off_c, 9, 44, 64
11, 60296, Note_off_c, 9, 40, 64
11, 60296, Note_on_c, 9, 39, 95
11, 60300, Note_off_c, 9, 39, 64
11, 60384, Note_on_c, 9, 60, 43
11, 60388, Note_off_c, 9, 60, 64
11, 60480, Note_on_c, 9, 70, 81
11, 60480, Note_on_c, 9, 63, 49
11, 60484, Note_off_c, 9, 63, 64
11, 60484, Note_off_c, 9, 70, 64
11, 60576, Note_on_c, 9, 70, 99
11, 60580, Note_off_c, 9, 70, 64
11, 60672, Note_on_c, 9, 35, 110
11, 60672, Note_on_c, 9, 60, 54
11, 60676, Note_off_c, 9, 60, 64
11, 60676, Note_off_c, 9, 35, 64
11, 60864, Note_on_c, 9, 70, 94
11, 60868, Note_off_c, 9, 70, 64
11, 60868, Note_on_c, 9, 46, 67
11, 60872, Note_off_c, 9, 46, 64
11, 60960, Note_on_c, 9, 60, 43
11, 60964, Note_off_c, 9, 60, 64
11, 61056, Note_on_c, 9, 35, 114
11, 61060, Note_off_c, 9, 35, 64
11, 61060, Note_on_c, 9, 40, 110
11, 61060, Note_on_c, 9, 44, 67
11, 61064, Note_off_c, 9, 44, 64
11, 61064, Note_off_c, 9, 40, 64
11, 61064, Note_on_c, 9, 39, 95
11, 61068, Note_off_c, 9, 39, 64
11, 61152, Note_on_c, 9, 60, 49
11, 61156, Note_off_c, 9, 60, 64
11, 61248, Note_on_c, 9, 70, 94
11, 61248, Note_on_c, 9, 63, 54
11, 61252, Note_off_c, 9, 63, 64
11, 61252, Note_off_c, 9, 70, 64
11, 61252, Note_on_c, 9, 46, 63
11, 61256, Note_off_c, 9, 46, 64
11, 61440, Note_on_c, 9, 35, 110
11, 61440, Note_on_c, 9, 60, 54
11, 61444, Note_off_c, 9, 60, 64
11, 61444, Note_off_c, 9, 35, 64
11, 61444, Note_on_c, 9, 44, 63
11, 61448, Note_off_c, 9, 44, 64
11, 61632, Note_on_c, 9, 70, 94
11, 61636, Note_off_c, 9, 70, 64
11, 61636, Note_on_c, 9, 46, 60
11, 61640, Note_off_c, 9, 46, 64
11, 61728, Note_on_c, 9, 60, 33
11, 61732, Note_off_c, 9, 60, 64
11, 61824, Note_on_c, 9, 35, 110
11, 61828, Note_off_c, 9, 35, 64
11, 61828, Note_on_c, 9, 40, 110
11, 61828, Note_on_c, 9, 44, 63
11, 61832, Note_off_c, 9, 44, 64
11, 61832, Note_off_c, 9, 40, 64
11, 61832, Note_on_c, 9, 39, 95
11, 61836, Note_off_c, 9, 39, 64
11, 61920, Note_on_c, 9, 60, 36
11, 61924, Note_off_c, 9, 60, 64
11, 62016, Note_on_c, 9, 70, 78
11, 62016, Note_on_c, 9, 63, 49
11, 62020, Note_off_c, 9, 63, 64
11, 62020, Note_off_c, 9, 70, 64
11, 62020, Note_on_c, 9, 46, 54
11, 62024, Note_off_c, 9, 46, 64
11, 62112, Note_on_c, 9, 70, 94
11, 62116, Note_off_c, 9, 70, 64
11, 62208, Note_on_c, 9, 35, 110
11, 62208, Note_on_c, 9, 60, 54
11, 62212, Note_off_c, 9, 60, 64
11, 62212, Note_off_c, 9, 35, 64
11, 62212, Note_on_c, 9, 44, 63
11, 62216, Note_off_c, 9, 44, 64
11, 62400, Note_on_c, 9, 70, 94
11, 62404, Note_off_c, 9, 70, 64
11, 62404, Note_on_c, 9, 46, 54
11, 62408, Note_off_c, 9, 46, 64
11, 62496, Note_on_c, 9, 60, 43
11, 62500, Note_off_c, 9, 60, 64
11, 62592, Note_on_c, 9, 35, 114
11, 62596, Note_off_c, 9, 35, 64
11, 62596, Note_on_c, 9, 40, 110
11, 62596, Note_on_c, 9, 44, 63
11, 62600, Note_off_c, 9, 44, 64
11, 62600, Note_off_c, 9, 40, 64
11, 62600, Note_on_c, 9, 39, 95
11, 62604, Note_off_c, 9, 39, 64
11, 62688, Note_on_c, 9, 60, 40
11, 62692, Note_off_c, 9, 60, 64
11, 62784, Note_on_c, 9, 70, 78
11, 62784, Note_on_c, 9, 63, 49
11, 62788, Note_off_c, 9, 63, 64
11, 62788, Note_off_c, 9, 70, 64
11, 62788, Note_on_c, 9, 46, 60
11, 62792, Note_off_c, 9, 46, 64
11, 62880, Note_on_c, 9, 70, 99
11, 62884, Note_off_c, 9, 70, 64
11, 62976, Note_on_c, 9, 35, 114
11, 62976, Note_on_c, 9, 69, 74
11, 62976, Note_on_c, 9, 60, 54
11, 62980, Note_off_c, 9, 60, 64
11, 62980, Note_off_c, 9, 69, 64
11, 62980, Note_off_c, 9, 35, 64
11, 62980, Note_on_c, 9, 44, 63
11, 62984, Note_off_c, 9, 44, 64
11, 63068, Note_on_c, 9, 69, 28
11, 63072, Note_off_c, 9, 69, 64
11, 63152, Note_on_c, 9, 69, 102
11, 63156, Note_off_c, 9, 69, 64
11, 63168, Note_on_c, 9, 70, 94
11, 63172, Note_off_c, 9, 70, 64
11, 63172, Note_on_c, 9, 46, 67
11, 63176, Note_off_c, 9, 46, 64
11, 63248, Note_on_c, 9, 69, 102
11, 63252, Note_off_c, 9, 69, 64
11, 63264, Note_on_c, 9, 60, 43
11, 63268, Note_off_c, 9, 60, 64
11, 63360, Note_on_c, 9, 35, 114
11, 63364, Note_off_c, 9, 35, 64
11, 63364, Note_on_c, 9, 40, 114
11, 63364, Note_on_c, 9, 44, 76
11, 63368, Note_off_c, 9, 44, 64
11, 63368, Note_off_c, 9, 40, 64
11, 63368, Note_on_c, 9, 39, 99
11, 63372, Note_off_c, 9, 39, 64
11, 63456, Note_on_c, 9, 60, 40
11, 63460, Note_off_c, 9, 60, 64
11, 63552, Note_on_c, 9, 70, 72
11, 63552, Note_on_c, 9, 63, 40
11, 63556, Note_off_c, 9, 63, 64
11, 63556, Note_off_c, 9, 70, 64
11, 63648, Note_on_c, 9, 70, 85
11, 63652, Note_off_c, 9, 70, 64
11, 63744, Note_on_c, 9, 35, 110
11, 63744, Note_on_c, 9, 60, 54
11, 63748, Note_off_c, 9, 60, 64
11, 63748, Note_off_c, 9, 35, 64
11, 63936, Note_on_c, 9, 70, 94
11, 63940, Note_off_c, 9, 70, 64
11, 63940, Note_on_c, 9, 46, 63
11, 63944, Note_off_c, 9, 46, 64
11, 64032, Note_on_c, 9, 60, 40
11, 64036, Note_off_c, 9, 60, 64
11, 64128, Note_on_c, 9, 35, 114
11, 64132, Note_off_c, 9, 35, 64
11, 64132, Note_on_c, 9, 40, 114
11, 64132, Note_on_c, 9, 44, 63
11, 64136, Note_off_c, 9, 44, 64
11, 64136, Note_off_c, 9, 40, 64
11, 64136, Note_on_c, 9, 39, 99
11, 64140, Note_off_c, 9, 39, 64
11, 64224, Note_on_c, 9, 60, 43
11, 64228, Note_off_c, 9, 60, 64
11, 64320, Note_on_c, 9, 70, 94
11, 64320, Note_on_c, 9, 63, 54
11, 64324, Note_off_c, 9, 63, 64
11, 64324, Note_off_c, 9, 70, 64
11, 64324, Note_on_c, 9, 46, 63
11, 64328, Note_off_c, 9, 46, 64
11, 64512, Note_on_c, 9, 35, 114
11, 64512, Note_on_c, 9, 60, 49
11, 64516, Note_off_c, 9, 60, 64
11, 64516, Note_off_c, 9, 35, 64
11, 64516, Note_on_c, 9, 44, 67
11, 64520, Note_off_c, 9, 44, 64
11, 64704, Note_on_c, 9, 70, 99
11, 64708, Note_off_c, 9, 70, 64
11, 64708, Note_on_c, 9, 46, 63
11, 64712, Note_off_c, 9, 46, 64
11, 64800, Note_on_c, 9, 60, 40
11, 64804, Note_off_c, 9, 60, 64
11, 64896, Note_on_c, 9, 35, 110
11, 64900, Note_off_c, 9, 35, 64
11, 64900, Note_on_c, 9, 40, 114
11, 64900, Note_on_c, 9, 44, 63
11, 64904, Note_off_c, 9, 44, 64
11, 64904, Note_off_c, 9, 40, 64
11, 64904, Note_on_c, 9, 39, 99
11, 64908, Note_off_c, 9, 39, 64
11, 64992, Note_on_c, 9, 60, 43
11, 64996, Note_off_c, 9, 60, 64
11, 65088, Note_on_c, 9, 70, 78
11, 65088, Note_on_c, 9, 63, 40
11, 65092, Note_off_c, 9, 63, 64
11, 65092, Note_off_c, 9, 70, 64
11, 65092, Note_on_c, 9, 46, 63
11, 65096, Note_off_c, 9, 46, 64
11, 65184, Note_on_c, 9, 70, 85
11, 65188, Note_off_c, 9, 70, 64
11, 65280, Note_on_c, 9, 35, 114
11, 65280, Note_on_c, 9, 60, 49
11, 65284, Note_off_c, 9, 60, 64
11, 65284, Note_off_c, 9, 35, 64
11, 65284, Note_on_c, 9, 44, 63
11, 65288, Note_off_c, 9, 44, 64
11, 65380, Note_on_c, 9, 40, 114
11, 65384, Note_off_c, 9, 40, 64
11, 65384, Note_on_c, 9, 39, 99
11, 65388, Note_off_c, 9, 39, 64
11, 65472, Note_on_c, 9, 70, 99
11, 65476, Note_off_c, 9, 70, 64
11, 65476, Note_on_c, 9, 46, 63
11, 65480, Note_off_c, 9, 46, 64
11, 65568, Note_on_c, 9, 60, 40
11, 65572, Note_off_c, 9, 60, 64
11, 65664, Note_on_c, 9, 35, 114
11, 65668, Note_off_c, 9, 35, 64
11, 65668, Note_on_c, 9, 40, 114
11, 65668, Note_on_c, 9, 44, 67
11, 65672, Note_off_c, 9, 44, 64
11, 65672, Note_off_c, 9, 40, 64
11, 65672, Note_on_c, 9, 39, 99
11, 65676, Note_off_c, 9, 39, 64
11, 65760, Note_on_c, 9, 60, 40
11, 65764, Note_off_c, 9, 60, 64
11, 65856, Note_on_c, 9, 70, 81
11, 65856, Note_on_c, 9, 63, 49
11, 65860, Note_off_c, 9, 63, 64
11, 65860, Note_off_c, 9, 70, 64
11, 65860, Note_on_c, 9, 46, 67
11, 65864, Note_off_c, 9, 46, 64
11, 65952, Note_on_c, 9, 70, 99
11, 65956, Note_off_c, 9, 70, 64
11, 65956, Note_on_c, 9, 40, 110
11, 65960, Note_off_c, 9, 40, 64
11, 65960, Note_on_c, 9, 39, 95
11, 65964, Note_off_c, 9, 39, 64
11, 66048, Note_on_c, 9, 35, 110
11, 66048, Note_on_c, 9, 69, 74
11, 66048, Note_on_c, 9, 60, 54
11, 66052, Note_off_c, 9, 60, 64
11, 66052, Note_off_c, 9, 69, 64
11, 66052, Note_off_c, 9, 35, 64
11, 66052, Note_on_c, 9, 44, 76
11, 66056, Note_off_c, 9, 44, 64
11, 66140, Note_on_c, 9, 69, 28
11, 66144, Note_off_c, 9, 69, 64
11, 66224, Note_on_c, 9, 69, 102
11, 66228, Note_off_c, 9, 69, 64
11, 66240, Note_on_c, 9, 70, 99
11, 66244, Note_off_c, 9, 70, 64
11, 66244, Note_on_c, 9, 46, 63
11, 66248, Note_off_c, 9, 46, 64
11, 66320, Note_on_c, 9, 69, 102
11, 66324, Note_off_c, 9, 69, 64
11, 66336, Note_on_c, 9, 60, 54
11, 66340, Note_off_c, 9, 60, 64
11, 66432, Note_on_c, 9, 35, 114
11, 66436, Note_off_c, 9, 35, 64
11, 66436, Note_on_c, 9, 40, 110
11, 66436, Note_on_c, 9, 44, 60
11, 66440, Note_off_c, 9, 44, 64
11, 66440, Note_off_c, 9, 40, 64
11, 66440, Note_on_c, 9, 39, 95
11, 66444, Note_off_c, 9, 39, 64
11, 66528, Note_on_c, 9, 60, 43
11, 66532, Note_off_c, 9, 60, 64
11, 66624, Note_on_c, 9, 70, 81
11, 66624, Note_on_c, 9, 63, 49
11, 66628, Note_off_c, 9, 63, 64
11, 66628, Note_off_c, 9, 70, 64
11, 66720, Note_on_c, 9, 70, 99
11, 66724, Note_off_c, 9, 70, 64
11, 66816, Note_on_c, 9, 35, 110
11, 66816, Note_on_c, 9, 60, 54
11, 66820, Note_off_c, 9, 60, 64
11, 66820, Note_off_c, 9, 35, 64
11, 67008, Note_on_c, 9, 70, 94
11, 67012, Note_off_c, 9, 70, 64
11, 67012, Note_on_c, 9, 46, 67
11, 67016, Note_off_c, 9, 46, 64
11, 67104, Note_on_c, 9, 60, 43
11, 67108, Note_off_c, 9, 60, 64
11, 67200, Note_on_c, 9, 35, 114
11, 67204, Note_off_c, 9, 35, 64
11, 67204, Note_on_c, 9, 40, 110
11, 67204, Note_on_c, 9, 44, 67
11, 67208, Note_off_c, 9, 44, 64
11, 67208, Note_off_c, 9, 40, 64
11, 67208, Note_on_c, 9, 39, 95
11, 67212, Note_off_c, 9, 39, 64
11, 67296, Note_on_c, 9, 60, 49
11, 67300, Note_off_c, 9, 60, 64
11, 67392, Note_on_c, 9, 70, 94
11, 67392, Note_on_c, 9, 63, 54
11, 67396, Note_off_c, 9, 63, 64
11, 67396, Note_off_c, 9, 70, 64
11, 67396, Note_on_c, 9, 46, 63
11, 67400, Note_off_c, 9, 46, 64
11, 67584, Note_on_c, 9, 35, 110
11, 67584, Note_on_c, 9, 60, 54
11, 67588, Note_off_c, 9, 60, 64
11, 67588, Note_off_c, 9, 35, 64
11, 67588, Note_on_c, 9, 44, 63
11, 67592, Note_off_c, 9, 44, 64
11, 67776, Note_on_c, 9, 70, 94
11, 67780, Note_off_c, 9, 70, 64
11, 67780, Note_on_c, 9, 46, 60
11, 67784, Note_off_c, 9, 46, 64
11, 67872, Note_on_c, 9, 60, 33
11, 67876, Note_off_c, 9, 60, 64
11, 67968, Note_on_c, 9, 35, 110
11, 67972, Note_off_c, 9, 35, 64
11, 67972, Note_on_c, 9, 40, 110
11, 67972, Note_on_c, 9, 44, 63
11, 67976, Note_off_c, 9, 44, 64
11, 67976, Note_off_c, 9, 40, 64
11, 67976, Note_on_c, 9, 39, 95
11, 67980, Note_off_c, 9, 39, 64
11, 68064, Note_on_c, 9, 60, 36
11, 68068, Note_off_c, 9, 60, 64
11, 68160, Note_on_c, 9, 70, 78
11, 68160, Note_on_c, 9, 63, 49
11, 68164, Note_off_c, 9, 63, 64
11, 68164, Note_off_c, 9, 70, 64
11, 68164, Note_on_c, 9, 46, 54
11, 68168, Note_off_c, 9, 46, 64
11, 68256, Note_on_c, 9, 70, 94
11, 68260, Note_off_c, 9, 70, 64
11, 68352, Note_on_c, 9, 35, 110
11, 68352, Note_on_c, 9, 60, 54
11, 68356, Note_off_c, 9, 60, 64
11, 68356, Note_off_c, 9, 35, 64
11, 68356, Note_on_c, 9, 44, 63
11, 68360, Note_off_c, 9, 44, 64
11, 68544, Note_on_c, 9, 70, 94
11, 68548, Note_off_c, 9, 70, 64
11, 68548, Note_on_c, 9, 46, 54
11, 68552, Note_off_c, 9, 46, 64
11, 68640, Note_on_c, 9, 60, 43
11, 68644, Note_off_c, 9, 60, 64
11, 68736, Note_on_c, 9, 35, 114
11, 68740, Note_off_c, 9, 35, 64
11, 68740, Note_on_c, 9, 40, 110
11, 68740, Note_on_c, 9, 44, 63
11, 68744, Note_off_c, 9, 44, 64
11, 68744, Note_off_c, 9, 40, 64
11, 68744, Note_on_c, 9, 39, 95
11, 68748, Note_off_c, 9, 39, 64
11, 68832, Note_on_c, 9, 60, 40
11, 68836, Note_off_c, 9, 60, 64
11, 68928, Note_on_c, 9, 70, 78
11, 68928, Note_on_c, 9, 63, 49
11, 68932, Note_off_c, 9, 63, 64
11, 68932, Note_off_c, 9, 70, 64
11, 68932, Note_on_c, 9, 46, 60
11, 68936, Note_off_c, 9, 46, 64
11, 69024, Note_on_c, 9, 70, 99
11, 69028, Note_off_c, 9, 70, 64
11, 69120, Note_on_c, 9, 35, 114
11, 69120, Note_on_c, 9, 69, 74
11, 69120, Note_on_c, 9, 60, 54
11, 69124, Note_off_c, 9, 60, 64
11, 69124, Note_off_c, 9, 69, 64
11, 69124, Note_off_c, 9, 35, 64
11, 69124, Note_on_c, 9, 44, 63
11, 69128, Note_off_c, 9, 44, 64
11, 69212, Note_on_c, 9, 69, 28
11, 69216, Note_off_c, 9, 69, 64
11, 69296, Note_on_c, 9, 69, 102
11, 69300, Note_off_c, 9, 69, 64
11, 69312, Note_on_c, 9, 70, 94
11, 69316, Note_off_c, 9, 70, 64
11, 69316, Note_on_c, 9, 46, 67
11, 69320, Note_off_c, 9, 46, 64
11, 69392, Note_on_c, 9, 69, 102
11, 69396, Note_off_c, 9, 69, 64
11, 69408, Note_on_c, 9, 60, 43
11, 69412, Note_off_c, 9, 60, 64
11, 69504, Note_on_c, 9, 35, 114
11, 69508, Note_off_c, 9, 35, 64
11, 69508, Note_on_c, 9, 40, 114
11, 69508, Note_on_c, 9, 44, 76
11, 69512, Note_off_c, 9, 44, 64
11, 69512, Note_off_c, 9, 40, 64
11, 69512, Note_on_c, 9, 39, 99
11, 69516, Note_off_c, 9, 39, 64
11, 69600, Note_on_c, 9, 60, 40
11, 69604, Note_off_c, 9, 60, 64
11, 69696, Note_on_c, 9, 70, 72
11, 69696, Note_on_c, 9, 63, 40
11, 69700, Note_off_c, 9, 63, 64
11, 69700, Note_off_c, 9, 70, 64
11, 69792, Note_on_c, 9, 70, 85
11, 69796, Note_off_c, 9, 70, 64
11, 69888, Note_on_c, 9, 35, 110
11, 69888, Note_on_c, 9, 60, 54
11, 69892, Note_off_c, 9, 60, 64
11, 69892, Note_off_c, 9, 35, 64
11, 70080, Note_on_c, 9, 70, 94
11, 70084, Note_off_c, 9, 70, 64
11, 70084, Note_on_c, 9, 46, 63
11, 70088, Note_off_c, 9, 46, 64
11, 70176, Note_on_c, 9, 60, 40
11, 70180, Note_off_c, 9, 60, 64
11, 70272, Note_on_c, 9, 35, 114
11, 70276, Note_off_c, 9, 35, 64
11, 70276, Note_on_c, 9, 40, 114
11, 70276, Note_on_c, 9, 44, 63
11, 70280, Note_off_c, 9, 44, 64
11, 70280, Note_off_c, 9, 40, 64
11, 70280, Note_on_c, 9, 39, 99
11, 70284, Note_off_c, 9, 39, 64
11, 70368, Note_on_c, 9, 60, 43
11, 70372, Note_off_c, 9, 60, 64
11, 70464, Note_on_c, 9, 70, 94
11, 70464, Note_on_c, 9, 63, 54
11, 70468, Note_off_c, 9, 63, 64
11, 70468, Note_off_c, 9, 70, 64
11, 70468, Note_on_c, 9, 46, 63
11, 70472, Note_off_c, 9, 46, 64
11, 70656, Note_on_c, 9, 35, 114
11, 70656, Note_on_c, 9, 60, 49
11, 70660, Note_off_c, 9, 60, 64
11, 70660, Note_off_c, 9, 35, 64
11, 70660, Note_on_c, 9, 44, 67
11, 70664, Note_off_c, 9, 44, 64
11, 70848, Note_on_c, 9, 70, 99
11, 70852, Note_off_c, 9, 70, 64
11, 70852, Note_on_c, 9, 46, 63
11, 70856, Note_off_c, 9, 46, 64
11, 70944, Note_on_c, 9, 60, 40
11, 70948, Note_off_c, 9, 60, 64
11, 71040, Note_on_c, 9, 35, 110
11, 71044, Note_off_c, 9, 35, 64
11, 71044, Note_on_c, 9, 40, 114
11, 71044, Note_on_c, 9, 44, 63
11, 71048, Note_off_c, 9, 44, 64
11, 71048, Note_off_c, 9, 40, 64
11, 71048, Note_on_c, 9, 39, 99
11, 71052, Note_off_c, 9, 39, 64
11, 71136, Note_on_c, 9, 60, 43
11, 71140, Note_off_c, 9, 60, 64
11, 71232, Note_on_c, 9, 70, 78
11, 71232, Note_on_c, 9, 63, 40
11, 71236, Note_off_c, 9, 63, 64
11, 71236, Note_off_c, 9, 70, 64
11, 71236, Note_on_c, 9, 46, 63
11, 71240, Note_off_c, 9, 46, 64
11, 71328, Note_on_c, 9, 70, 85
11, 71332, Note_off_c, 9, 70, 64
11, 71424, Note_on_c, 9, 35, 114
11, 71424, Note_on_c, 9, 60, 49
11, 71428, Note_off_c, 9, 60, 64
11, 71428, Note_off_c, 9, 35, 64
11, 71428, Note_on_c, 9, 44, 63
11, 71432, Note_off_c, 9, 44, 64
11, 71616, Note_on_c, 9, 70, 99
11, 71620, Note_off_c, 9, 70, 64
11, 71620, Note_on_c, 9, 46, 63
11, 71624, Note_off_c, 9, 46, 64
11, 71712, Note_on_c, 9, 60, 40
11, 71716, Note_off_c, 9, 60, 64
11, 71808, Note_on_c, 9, 35, 114
11, 71812, Note_off_c, 9, 35, 64
11, 71812, Note_on_c, 9, 40, 114
11, 71812, Note_on_c, 9, 44, 67
11, 71816, Note_off_c, 9, 44, 64
11, 71816, Note_off_c, 9, 40, 64
11, 71816, Note_on_c, 9, 39, 99
11, 71820, Note_off_c, 9, 39, 64
11, 71904, Note_on_c, 9, 60, 40
11, 71908, Note_off_c, 9, 60, 64
11, 72000, Note_on_c, 9, 70, 81
11, 72000, Note_on_c, 9, 63, 49
11, 72004, Note_off_c, 9, 63, 64
11, 72004, Note_off_c, 9, 70, 64
11, 72004, Note_on_c, 9, 46, 67
11, 72008, Note_off_c, 9, 46, 64
11, 72096, Note_on_c, 9, 70, 99
11, 72100, Note_off_c, 9, 70, 64
11, 72192, Note_on_c, 9, 35, 110
11, 72192, Note_on_c, 9, 69, 74
11, 72192, Note_on_c, 9, 60, 54
11, 72196, Note_off_c, 9, 60, 64
11, 72196, Note_off_c, 9, 69, 64
11, 72196, Note_off_c, 9, 35, 64
11, 72196, Note_on_c, 9, 44, 76
11, 72200, Note_off_c, 9, 44, 64
11, 72284, Note_on_c, 9, 69, 28
11, 72288, Note_off_c, 9, 69, 64
11, 72368, Note_on_c, 9, 69, 102
11, 72372, Note_off_c, 9, 69, 64
11, 72384, Note_on_c, 9, 70, 99
11, 72388, Note_off_c, 9, 70, 64
11, 72388, Note_on_c, 9, 46, 63
11, 72392, Note_off_c, 9, 46, 64
11, 72464, Note_on_c, 9, 69, 102
11, 72468, Note_off_c, 9, 69, 64
11, 72480, Note_on_c, 9, 60, 54
11, 72484, Note_off_c, 9, 60, 64
11, 72576, Note_on_c, 9, 35, 114
11, 72580, Note_off_c, 9, 35, 64
11, 72580, Note_on_c, 9, 40, 110
11, 72580, Note_on_c, 9, 44, 60
11, 72584, Note_off_c, 9, 44, 64
11, 72584, Note_off_c, 9, 40, 64
11, 72584, Note_on_c, 9, 39, 95
11, 72588, Note_off_c, 9, 39, 64
11, 72672, Note_on_c, 9, 60, 43
11, 72676, Note_off_c, 9, 60, 64
11, 72768, Note_on_c, 9, 70, 81
11, 72768, Note_on_c, 9, 63, 49
11, 72772, Note_off_c, 9, 63, 64
11, 72772, Note_off_c, 9, 70, 64
11, 72864, Note_on_c, 9, 70, 99
11, 72868, Note_off_c, 9, 70, 64
11, 72960, Note_on_c, 9, 35, 110
11, 72960, Note_on_c, 9, 60, 54
11, 72964, Note_off_c, 9, 60, 64
11, 72964, Note_off_c, 9, 35, 64
11, 73152, Note_on_c, 9, 70, 94
11, 73156, Note_off_c, 9, 70, 64
11, 73156, Note_on_c, 9, 46, 67
11, 73160, Note_off_c, 9, 46, 64
11, 73248, Note_on_c, 9, 60, 43
11, 73252, Note_off_c, 9, 60, 64
11, 73344, Note_on_c, 9, 35, 114
11, 73348, Note_off_c, 9, 35, 64
11, 73348, Note_on_c, 9, 40, 110
11, 73348, Note_on_c, 9, 44, 67
11, 73352, Note_off_c, 9, 44, 64
11, 73352, Note_off_c, 9, 40, 64
11, 73352, Note_on_c, 9, 39, 95
11, 73356, Note_off_c, 9, 39, 64
11, 73440, Note_on_c, 9, 60, 49
11, 73444, Note_off_c, 9, 60, 64
11, 73536, Note_on_c, 9, 70, 94
11, 73536, Note_on_c, 9, 63, 54
11, 73540, Note_off_c, 9, 63, 64
11, 73540, Note_off_c, 9, 70, 64
11, 73540, Note_on_c, 9, 46, 63
11, 73544, Note_off_c, 9, 46, 64
11, 73728, Note_on_c, 9, 35, 110
11, 73728, Note_on_c, 9, 60, 54
11, 73732, Note_off_c, 9, 60, 64
11, 73732, Note_off_c, 9, 35, 64
11, 73732, Note_on_c, 9, 44, 63
11, 73736, Note_off_c, 9, 44, 64
11, 73920, Note_on_c, 9, 70, 94
11, 73924, Note_off_c, 9, 70, 64
11, 73924, Note_on_c, 9, 46, 60
11, 73928, Note_off_c, 9, 46, 64
11, 74016, Note_on_c, 9, 60, 33
11, 74020, Note_off_c, 9, 60, 64
11, 74112, Note_on_c, 9, 35, 110
11, 74116, Note_off_c, 9, 35, 64
11, 74116, Note_on_c, 9, 40, 110
11, 74116, Note_on_c, 9, 44, 63
11, 74120, Note_off_c, 9, 44, 64
11, 74120, Note_off_c, 9, 40, 64
11, 74120, Note_on_c, 9, 39, 95
11, 74124, Note_off_c, 9, 39, 64
11, 74208, Note_on_c, 9, 60, 36
11, 74212, Note_off_c, 9, 60, 64
11, 74304, Note_on_c, 9, 70, 78
11, 74304, Note_on_c, 9, 63, 49
11, 74308, Note_off_c, 9, 63, 64
11, 74308, Note_off_c, 9, 70, 64
11, 74308, Note_on_c, 9, 46, 54
11, 74312, Note_off_c, 9, 46, 64
11, 74400, Note_on_c, 9, 70, 94
11, 74404, Note_off_c, 9, 70, 64
11, 74496, Note_on_c, 9, 35, 110
11, 74496, Note_on_c, 9, 60, 54
11, 74500, Note_off_c, 9, 60, 64
11, 74500, Note_off_c, 9, 35, 64
11, 74500, Note_on_c, 9, 44, 63
11, 74504, Note_off_c, 9, 44, 64
11, 74688, Note_on_c, 9, 70, 94
11, 74692, Note_off_c, 9, 70, 64
11, 74692, Note_on_c, 9, 46, 54
11, 74696, Note_off_c, 9, 46, 64
11, 74784, Note_on_c, 9, 60, 43
11, 74788, Note_off_c, 9, 60, 64
11, 74880, Note_on_c, 9, 35, 114
11, 74884, Note_off_c, 9, 35, 64
11, 74884, Note_on_c, 9, 40, 110
11, 74884, Note_on_c, 9, 44, 63
11, 74888, Note_off_c, 9, 44, 64
11, 74888, Note_off_c, 9, 40, 64
11, 74888, Note_on_c, 9, 39, 95
11, 74892, Note_off_c, 9, 39, 64
11, 74976, Note_on_c, 9, 60, 40
11, 74980, Note_off_c, 9, 60, 64
11, 75072, Note_on_c, 9, 70, 78
11, 75072, Note_on_c, 9, 63, 49
11, 75076, Note_off_c, 9, 63, 64
11, 75076, Note_off_c, 9, 70, 64
11, 75076, Note_on_c, 9, 46, 60
11, 75080, Note_off_c, 9, 46, 64
11, 75168, Note_on_c, 9, 70, 99
11, 75172, Note_off_c, 9, 70, 64
11, 75264, Note_on_c, 9, 35, 114
11, 75264, Note_on_c, 9, 69, 74
11, 75264, Note_on_c, 9, 60, 54
11, 75268, Note_off_c, 9, 60, 64
11, 75268, Note_off_c, 9, 69, 64
11, 75268, Note_off_c, 9, 35, 64
11, 75268, Note_on_c, 9, 44, 63
11, 75272, Note_off_c, 9, 44, 64
11, 75356, Note_on_c, 9, 69, 28
11, 75360, Note_off_c, 9, 69, 64
11, 75440, Note_on_c, 9, 69, 102
11, 75444, Note_off_c, 9, 69, 64
11, 75456, Note_on_c, 9, 70, 94
11, 75460, Note_off_c, 9, 70, 64
11, 75460, Note_on_c, 9, 46, 67
11, 75464, Note_off_c, 9, 46, 64
11, 75536, Note_on_c, 9, 69, 102
11, 75540, Note_off_c, 9, 69, 64
11, 75552, Note_on_c, 9, 60, 43
11, 75556, Note_off_c, 9, 60, 64
11, 75648, Note_on_c, 9, 35, 114
11, 75652, Note_off_c, 9, 35, 64
11, 75652, Note_on_c, 9, 40, 114
11, 75652, Note_on_c, 9, 44, 76
11, 75656, Note_off_c, 9, 44, 64
11, 75656, Note_off_c, 9, 40, 64
11, 75656, Note_on_c, 9, 39, 99
11, 75660, Note_off_c, 9, 39, 64
11, 75744, Note_on_c, 9, 60, 40
11, 75748, Note_off_c, 9, 60, 64
11, 75840, Note_on_c, 9, 70, 72
11, 75840, Note_on_c, 9, 63, 40
11, 75844, Note_off_c, 9, 63, 64
11, 75844, Note_off_c, 9, 70, 64
11, 75936, Note_on_c, 9, 70, 85
11, 75940, Note_off_c, 9, 70, 64
11, 76032, Note_on_c, 9, 35, 110
11, 76032, Note_on_c, 9, 60, 54
11, 76036, Note_off_c, 9, 60, 64
11, 76036, Note_off_c, 9, 35, 64
11, 76224, Note_on_c, 9, 70, 94
11, 76228, Note_off_c, 9, 70, 64
11, 76228, Note_on_c, 9, 46, 63
11, 76232, Note_off_c, 9, 46, 64
11, 76320, Note_on_c, 9, 60, 40
11, 76324, Note_off_c, 9, 60, 64
11, 76416, Note_on_c, 9, 35, 114
11, 76420, Note_off_c, 9, 35, 64
11, 76420, Note_on_c, 9, 40, 114
11, 76420, Note_on_c, 9, 44, 63
11, 76424, Note_off_c, 9, 44, 64
11, 76424, Note_off_c, 9, 40, 64
11, 76424, Note_on_c, 9, 39, 99
11, 76428, Note_off_c, 9, 39, 64
11, 76512, Note_on_c, 9, 60, 43
11, 76516, Note_off_c, 9, 60, 64
11, 76608, Note_on_c, 9, 70, 94
11, 76608, Note_on_c, 9, 63, 54
11, 76612, Note_off_c, 9, 63, 64
11, 76612, Note_off_c, 9, 70, 64
11, 76612, Note_on_c, 9, 46, 63
11, 76616, Note_off_c, 9, 46, 64
11, 76800, Note_on_c, 9, 35, 114
11, 76800, Note_on_c, 9, 60, 49
11, 76804, Note_off_c, 9, 60, 64
11, 76804, Note_off_c, 9, 35, 64
11, 76804, Note_on_c, 9, 44, 67
11, 76808, Note_off_c, 9, 44, 64
11, 76992, Note_on_c, 9, 70, 99
11, 76996, Note_off_c, 9, 70, 64
11, 76996, Note_on_c, 9, 46, 63
11, 77000, Note_off_c, 9, 46, 64
11, 77088, Note_on_c, 9, 60, 40
11, 77092, Note_off_c, 9, 60, 64
11, 77184, Note_on_c, 9, 35, 110
11, 77188, Note_off_c, 9, 35, 64
11, 77188, Note_on_c, 9, 40, 114
11, 77188, Note_on_c, 9, 44, 63
11, 77192, Note_off_c, 9, 44, 64
11, 77192, Note_off_c, 9, 40, 64
11, 77192, Note_on_c, 9, 39, 99
11, 77196, Note_off_c, 9, 39, 64
11, 77280, Note_on_c, 9, 60, 43
11, 77284, Note_off_c, 9, 60, 64
11, 77376, Note_on_c, 9, 70, 78
11, 77376, Note_on_c, 9, 63, 40
11, 77380, Note_off_c, 9, 63, 64
11, 77380, Note_off_c, 9, 70, 64
11, 77380, Note_on_c, 9, 46, 63
11, 77384, Note_off_c, 9, 46, 64
11, 77472, Note_on_c, 9, 70, 85
11, 77476, Note_off_c, 9, 70, 64
11, 77568, Note_on_c, 9, 35, 114
11, 77568, Note_on_c, 9, 60, 49
11, 77572, Note_off_c, 9, 60, 64
11, 77572, Note_off_c, 9, 35, 64
11, 77572, Note_on_c, 9, 44, 63
11, 77576, Note_off_c, 9, 44, 64
11, 77760, Note_on_c, 9, 70, 99
11, 77764, Note_off_c, 9, 70, 64
11, 77764, Note_on_c, 9, 46, 63
11, 77768, Note_off_c, 9, 46, 64
11, 77856, Note_on_c, 9, 60, 40
11, 77860, Note_off_c, 9, 60, 64
11, 77952, Note_on_c, 9, 35, 114
11, 77956, Note_off_c, 9, 35, 64
11, 77956, Note_on_c, 9, 40, 114
11, 77956, Note_on_c, 9, 44, 67
11, 77960, Note_off_c, 9, 44, 64
11, 77960, Note_off_c, 9, 40, 64
11, 77960, Note_on_c, 9, 39, 99
11, 77964, Note_off_c, 9, 39, 64
11, 78048, Note_on_c, 9, 60, 40
11, 78052, Note_off_c, 9, 60, 64
11, 78144, Note_on_c, 9, 70, 81
11, 78144, Note_on_c, 9, 63, 49
11, 78148, Note_off_c, 9, 63, 64
11, 78148, Note_off_c, 9, 70, 64
11, 78148, Note_on_c, 9, 46, 67
11, 78152, Note_off_c, 9, 46, 64
11, 78240, Note_on_c, 9, 70, 99
11, 78244, Note_off_c, 9, 70, 64
11, 78336, Note_on_c, 9, 35, 110
11, 78336, Note_on_c, 9, 69, 74
11, 78336, Note_on_c, 9, 60, 54
11, 78340, Note_off_c, 9, 60, 64
11, 78340, Note_off_c, 9, 69, 64
11, 78340, Note_off_c, 9, 35, 64
11, 78340, Note_on_c, 9, 44, 76
11, 78344, Note_off_c, 9, 44, 64
11, 78428, Note_on_c, 9, 69, 28
11, 78432, Note_off_c, 9, 69, 64
11, 78512, Note_on_c, 9, 69, 102
11, 78516, Note_off_c, 9, 69, 64
11, 78528, Note_on_c, 9, 70, 99
11, 78532, Note_off_c, 9, 70, 64
11, 78532, Note_on_c, 9, 46, 63
11, 78536, Note_off_c, 9, 46, 64
11, 78608, Note_on_c, 9, 69, 102
11, 78612, Note_off_c, 9, 69, 64
11, 78624, Note_on_c, 9, 60, 54
11, 78628, Note_off_c, 9, 60, 64
11, 78720, Note_on_c, 9, 35, 114
11, 78724, Note_off_c, 9, 35, 64
11, 78724, Note_on_c, 9, 40, 110
11, 78724, Note_on_c, 9, 44, 60
11, 78728, Note_off_c, 9, 44, 64
11, 78728, Note_off_c, 9, 40, 64
11, 78728, Note_on_c, 9, 39, 95
11, 78732, Note_off_c, 9, 39, 64
11, 78816, Note_on_c, 9, 60, 43
11, 78820, Note_off_c, 9, 60, 64
11, 78912, Note_on_c, 9, 70, 81
11, 78912, Note_on_c, 9, 63, 49
11, 78916, Note_off_c, 9, 63, 64
11, 78916, Note_off_c, 9, 70, 64
11, 79008, Note_on_c, 9, 70, 99
11, 79012, Note_off_c, 9, 70, 64
11, 79104, Note_on_c, 9, 35, 110
11, 79104, Note_on_c, 9, 60, 54
11, 79108, Note_off_c, 9, 60, 64
11, 79108, Note_off_c, 9, 35, 64
11, 79296, Note_on_c, 9, 70, 94
11, 79300, Note_off_c, 9, 70, 64
11, 79300, Note_on_c, 9, 46, 67
11, 79304, Note_off_c, 9, 46, 64
11, 79392, Note_on_c, 9, 60, 43
11, 79396, Note_off_c, 9, 60, 64
11, 79488, Note_on_c, 9, 35, 114
11, 79492, Note_off_c, 9, 35, 64
11, 79492, Note_on_c, 9, 40, 110
11, 79492, Note_on_c, 9, 44, 67
11, 79496, Note_off_c, 9, 44, 64
11, 79496, Note_off_c, 9, 40, 64
11, 79496, Note_on_c, 9, 39, 95
11, 79500, Note_off_c, 9, 39, 64
11, 79584, Note_on_c, 9, 60, 49
11, 79588, Note_off_c, 9, 60, 64
11, 79680, Note_on_c, 9, 70, 94
11, 79680, Note_on_c, 9, 63, 54
11, 79684, Note_off_c, 9, 63, 64
11, 79684, Note_off_c, 9, 70, 64
11, 79684, Note_on_c, 9, 46, 63
11, 79688, Note_off_c, 9, 46, 64
11, 79872, Note_on_c, 9, 35, 110
11, 79872, Note_on_c, 9, 60, 54
11, 79876, Note_off_c, 9, 60, 64
11, 79876, Note_off_c, 9, 35, 64
11, 79876, Note_on_c, 9, 44, 63
11, 79880, Note_off_c, 9, 44, 64
11, 80064, Note_on_c, 9, 70, 94
11, 80068, Note_off_c, 9, 70, 64
11, 80068, Note_on_c, 9, 46, 60
11, 80072, Note_off_c, 9, 46, 64
11, 80160, Note_on_c, 9, 60, 33
11, 80164, Note_off_c, 9, 60, 64
11, 80256, Note_on_c, 9, 35, 110
11, 80260, Note_off_c, 9, 35, 64
11, 80260, Note_on_c, 9, 40, 110
11, 80260, Note_on_c, 9, 44, 63
11, 80264, Note_off_c, 9, 44, 64
11, 80264, Note_off_c, 9, 40, 64
11, 80264, Note_on_c, 9, 39, 95
11, 80268, Note_off_c, 9, 39, 64
11, 80352, Note_on_c, 9, 60, 36
11, 80356, Note_off_c, 9, 60, 64
11, 80448, Note_on_c, 9, 70, 78
11, 80448, Note_on_c, 9, 63, 49
11, 80452, Note_off_c, 9, 63, 64
11, 80452, Note_off_c, 9, 70, 64
11, 80452, Note_on_c, 9, 46, 54
11, 80456, Note_off_c, 9, 46, 64
11, 80544, Note_on_c, 9, 70, 94
11, 80548, Note_off_c, 9, 70, 64
11, 80640, Note_on_c, 9, 35, 110
11, 80640, Note_on_c, 9, 60, 54
11, 80644, Note_off_c, 9, 60, 64
11, 80644, Note_off_c, 9, 35, 64
11, 80644, Note_on_c, 9, 44, 63
11, 80648, Note_off_c, 9, 44, 64
11, 80832, Note_on_c, 9, 70, 94
11, 80836, Note_off_c, 9, 70, 64
11, 80836, Note_on_c, 9, 46, 54
11, 80840, Note_off_c, 9, 46, 64
11, 80928, Note_on_c, 9, 60, 43
11, 80932, Note_off_c, 9, 60, 64
11, 81024, Note_on_c, 9, 35, 114
11, 81028, Note_off_c, 9, 35, 64
11, 81028, Note_on_c, 9, 40, 110
11, 81028, Note_on_c, 9, 44, 63
11, 81032, Note_off_c, 9, 44, 64
11, 81032, Note_off_c, 9, 40, 64
11, 81032, Note_on_c, 9, 39, 95
11, 81036, Note_off_c, 9, 39, 64
11, 81120, Note_on_c, 9, 60, 40
11, 81124, Note_off_c, 9, 60, 64
11, 81216, Note_on_c, 9, 70, 78
11, 81216, Note_on_c, 9, 63, 49
11, 81220, Note_off_c, 9, 63, 64
11, 81220, Note_off_c, 9, 70, 64
11, 81220, Note_on_c, 9, 46, 60
11, 81224, Note_off_c, 9, 46, 64
11, 81312, Note_on_c, 9, 70, 99
11, 81316, Note_off_c, 9, 70, 64
11, 81408, Note_on_c, 9, 35, 114
11, 81408, Note_on_c, 9, 69, 74
11, 81408, Note_on_c, 9, 60, 54
11, 81412, Note_off_c, 9, 60, 64
11, 81412, Note_off_c, 9, 69, 64
11, 81412, Note_off_c, 9, 35, 64
11, 81412, Note_on_c, 9, 44, 63
11, 81416, Note_off_c, 9, 44, 64
11, 81500, Note_on_c, 9, 69, 28
11, 81504, Note_off_c, 9, 69, 64
11, 81584, Note_on_c, 9, 69, 102
11, 81588, Note_off_c, 9, 69, 64
11, 81600, Note_on_c, 9, 70, 94
11, 81604, Note_off_c, 9, 70, 64
11, 81604, Note_on_c, 9, 46, 67
11, 81608, Note_off_c, 9, 46, 64
11, 81680, Note_on_c, 9, 69, 102
11, 81684, Note_off_c, 9, 69, 64
11, 81696, Note_on_c, 9, 60, 43
11, 81700, Note_off_c, 9, 60, 64
11, 81792, Note_on_c, 9, 35, 114
11, 81796, Note_off_c, 9, 35, 64
11, 81796, Note_on_c, 9, 40, 114
11, 81796, Note_on_c, 9, 44, 76
11, 81800, Note_off_c, 9, 44, 64
11, 81800, Note_off_c, 9, 40, 64
11, 81800, Note_on_c, 9, 39, 99
11, 81804, Note_off_c, 9, 39, 64
11, 81888, Note_on_c, 9, 60, 40
11, 81892, Note_off_c, 9, 60, 64
11, 81984, Note_on_c, 9, 70, 72
11, 81984, Note_on_c, 9, 63, 40
11, 81988, Note_off_c, 9, 63, 64
11, 81988, Note_off_c, 9, 70, 64
11, 82080, Note_on_c, 9, 70, 85
11, 82084, Note_off_c, 9, 70, 64
11, 82176, Note_on_c, 9, 35, 110
11, 82176, Note_on_c, 9, 60, 54
11, 82180, Note_off_c, 9, 60, 64
11, 82180, Note_off_c, 9, 35, 64
11, 82368, Note_on_c, 9, 70, 94
11, 82372, Note_off_c, 9, 70, 64
11, 82372, Note_on_c, 9, 46, 63
11, 82376, Note_off_c, 9, 46, 64
11, 82464, Note_on_c, 9, 60, 40
11, 82468, Note_off_c, 9, 60, 64
11, 82560, Note_on_c, 9, 35, 114
11, 82564, Note_off_c, 9, 35, 64
11, 82564, Note_on_c, 9, 40, 114
11, 82564, Note_on_c, 9, 44, 63
11, 82568, Note_off_c, 9, 44, 64
11, 82568, Note_off_c, 9, 40, 64
11, 82568, Note_on_c, 9, 39, 99
11, 82572, Note_off_c, 9, 39, 64
11, 82656, Note_on_c, 9, 60, 43
11, 82660, Note_off_c, 9, 60, 64
11, 82752, Note_on_c, 9, 70, 94
11, 82752, Note_on_c, 9, 63, 54
11, 82756, Note_off_c, 9, 63, 64
11, 82756, Note_off_c, 9, 70, 64
11, 82756, Note_on_c, 9, 46, 63
11, 82760, Note_off_c, 9, 46, 64
11, 82944, Note_on_c, 9, 35, 114
11, 82944, Note_on_c, 9, 60, 49
11, 82948, Note_off_c, 9, 60, 64
11, 82948, Note_off_c, 9, 35, 64
11, 82948, Note_on_c, 9, 44, 67
11, 82952, Note_off_c, 9, 44, 64
11, 83136, Note_on_c, 9, 70, 99
11, 83140, Note_off_c, 9, 70, 64
11, 83140, Note_on_c, 9, 46, 63
11, 83144, Note_off_c, 9, 46, 64
11, 83232, Note_on_c, 9, 60, 40
11, 83236, Note_off_c, 9, 60, 64
11, 83328, Note_on_c, 9, 35, 110
11, 83332, Note_off_c, 9, 35, 64
11, 83332, Note_on_c, 9, 40, 114
11, 83332, Note_on_c, 9, 44, 63
11, 83336, Note_off_c, 9, 44, 64
11, 83336, Note_off_c, 9, 40, 64
11, 83336, Note_on_c, 9, 39, 99
11, 83340, Note_off_c, 9, 39, 64
11, 83424, Note_on_c, 9, 60, 43
11, 83428, Note_off_c, 9, 60, 64
11, 83520, Note_on_c, 9, 70, 78
11, 83520, Note_on_c, 9, 63, 40
11, 83524, Note_off_c, 9, 63, 64
11, 83524, Note_off_c, 9, 70, 64
11, 83524, Note_on_c, 9, 46, 63
11, 83528, Note_off_c, 9, 46, 64
11, 83616, Note_on_c, 9, 70, 85
11, 83620, Note_off_c, 9, 70, 64
11, 83712, Note_on_c, 9, 35, 114
11, 83712, Note_on_c, 9, 60, 49
11, 83716, Note_off_c, 9, 60, 64
11, 83716, Note_off_c, 9, 35, 64
11, 83716, Note_on_c, 9, 44, 63
11, 83720, Note_off_c, 9, 44, 64
11, 83904, Note_on_c, 9, 70, 99
11, 83908, Note_off_c, 9, 70, 64
11, 83908, Note_on_c, 9, 46, 63
11, 83912, Note_off_c, 9, 46, 64
11, 84000, Note_on_c, 9, 60, 40
11, 84004, Note_off_c, 9, 60, 64
11, 84096, Note_on_c, 9, 35, 114
11, 84100, Note_off_c, 9, 35, 64
11, 84100, Note_on_c, 9, 40, 114
11, 84100, Note_on_c, 9, 44, 67
11, 84104, Note_off_c, 9, 44, 64
11, 84104, Note_off_c, 9, 40, 64
11, 84104, Note_on_c, 9, 39, 99
11, 84108, Note_off_c, 9, 39, 64
11, 84192, Note_on_c, 9, 60, 40
11, 84196, Note_off_c, 9, 60, 64
11, 84288, Note_on_c, 9, 70, 81
11, 84288, Note_on_c, 9, 63, 49
11, 84292, Note_off_c, 9, 63, 64
11, 84292, Note_off_c, 9, 70, 64
11, 84292, Note_on_c, 9, 46, 67
11, 84296, Note_off_c, 9, 46, 64
11, 84384, Note_on_c, 9, 70, 99
11, 84388, Note_off_c, 9, 70, 64
11, 84480, Note_on_c, 9, 35, 110
11, 84480, Note_on_c, 9, 69, 74
11, 84480, Note_on_c, 9, 60, 54
11, 84484, Note_off_c, 9, 60, 64
11, 84484, Note_off_c, 9, 69, 64
11, 84484, Note_off_c, 9, 35, 64
11, 84484, Note_on_c, 9, 44, 76
11, 84488, Note_off_c, 9, 44, 64
11, 84572, Note_on_c, 9, 69, 28
11, 84576, Note_off_c, 9, 69, 64
11, 84656, Note_on_c, 9, 69, 102
11, 84660, Note_off_c, 9, 69, 64
11, 84672, Note_on_c, 9, 70, 99
11, 84676, Note_off_c, 9, 70, 64
11, 84676, Note_on_c, 9, 46, 63
11, 84680, Note_off_c, 9, 46, 64
11, 84752, Note_on_c, 9, 69, 102
11, 84756, Note_off_c, 9, 69, 64
11, 84768, Note_on_c, 9, 60, 54
11, 84772, Note_off_c, 9, 60, 64
11, 84864, Note_on_c, 9, 35, 114
11, 84868, Note_off_c, 9, 35, 64
11, 84868, Note_on_c, 9, 40, 110
11, 84868, Note_on_c, 9, 44, 60
11, 84872, Note_off_c, 9, 44, 64
11, 84872, Note_off_c, 9, 40, 64
11, 84872, Note_on_c, 9, 39, 95
11, 84876, Note_off_c, 9, 39, 64
11, 84960, Note_on_c, 9, 60, 43
11, 84964, Note_off_c, 9, 60, 64
11, 85056, Note_on_c, 9, 70, 81
11, 85056, Note_on_c, 9, 63, 49
11, 85060, Note_off_c, 9, 63, 64
11, 85060, Note_off_c, 9, 70, 64
11, 85152, Note_on_c, 9, 70, 99
11, 85156, Note_off_c, 9, 70, 64
11, 85248, Note_on_c, 9, 35, 110
11, 85248, Note_on_c, 9, 60, 54
11, 85252, Note_off_c, 9, 60, 64
11, 85252, Note_off_c, 9, 35, 64
11, 85440, Note_on_c, 9, 70, 94
11, 85444, Note_off_c, 9, 70, 64
11, 85444, Note_on_c, 9, 46, 67
11, 85448, Note_off_c, 9, 46, 64
11, 85536, Note_on_c, 9, 60, 43
11, 85540, Note_off_c, 9, 60, 64
11, 85632, Note_on_c, 9, 35, 114
11, 85636, Note_off_c, 9, 35, 64
11, 85636, Note_on_c, 9, 40, 110
11, 85636, Note_on_c, 9, 44, 67
11, 85640, Note_off_c, 9, 44, 64
11, 85640, Note_off_c, 9, 40, 64
11, 85640, Note_on_c, 9, 39, 95
11, 85644, Note_off_c, 9, 39, 64
11, 85728, Note_on_c, 9, 60, 49
11, 85732, Note_off_c, 9, 60, 64
11, 85824, Note_on_c, 9, 70, 94
11, 85824, Note_on_c, 9, 63, 54
11, 85828, Note_off_c, 9, 63, 64
11, 85828, Note_off_c, 9, 70, 64
11, 85828, Note_on_c, 9, 46, 63
11, 85832, Note_off_c, 9, 46, 64
11, 86016, Note_on_c, 9, 35, 110
11, 86016, Note_on_c, 9, 60, 54
11, 86020, Note_off_c, 9, 60, 64
11, 86020, Note_off_c, 9, 35, 64
11, 86020, Note_on_c, 9, 44, 63
11, 86024, Note_off_c, 9, 44, 64
11, 86208, Note_on_c, 9, 70, 94
11, 86212, Note_off_c, 9, 70, 64
11, 86212, Note_on_c, 9, 46, 60
11, 86216, Note_off_c, 9, 46, 64
11, 86304, Note_on_c, 9, 60, 33
11, 86308, Note_off_c, 9, 60, 64
11, 86400, Note_on_c, 9, 35, 110
11, 86404, Note_off_c, 9, 35, 64
11, 86404, Note_on_c, 9, 40, 110
11, 86404, Note_on_c, 9, 44, 63
11, 86408, Note_off_c, 9, 44, 64
11, 86408, Note_off_c, 9, 40, 64
11, 86408, Note_on_c, 9, 39, 95
11, 86412, Note_off_c, 9, 39, 64
11, 86496, Note_on_c, 9, 60, 36
11, 86500, Note_off_c, 9, 60, 64
11, 86592, Note_on_c, 9, 70, 78
11, 86592, Note_on_c, 9, 63, 49
11, 86596, Note_off_c, 9, 63, 64
11, 86596, Note_off_c, 9, 70, 64
11, 86596, Note_on_c, 9, 46, 54
11, 86600, Note_off_c, 9, 46, 64
11, 86688, Note_on_c, 9, 70, 94
11, 86692, Note_off_c, 9, 70, 64
11, 86784, Note_on_c, 9, 35, 110
11, 86784, Note_on_c, 9, 60, 54
11, 86788, Note_off_c, 9, 60, 64
11, 86788, Note_off_c, 9, 35, 64
11, 86788, Note_on_c, 9, 44, 63
11, 86792, Note_off_c, 9, 44, 64
11, 86976, Note_on_c, 9, 70, 94
11, 86980, Note_off_c, 9, 70, 64
11, 86980, Note_on_c, 9, 46, 54
11, 86984, Note_off_c, 9, 46, 64
11, 87072, Note_on_c, 9, 60, 43
11, 87076, Note_off_c, 9, 60, 64
11, 87168, Note_on_c, 9, 35, 114
11, 87172, Note_off_c, 9, 35, 64
11, 87172, Note_on_c, 9, 40, 110
11, 87172, Note_on_c, 9, 44, 63
11, 87176, Note_off_c, 9, 44, 64
11, 87176, Note_off_c, 9, 40, 64
11, 87176, Note_on_c, 9, 39, 95
11, 87180, Note_off_c, 9, 39, 64
11, 87264, Note_on_c, 9, 60, 40
11, 87268, Note_off_c, 9, 60, 64
11, 87360, Note_on_c, 9, 70, 78
11, 87360, Note_on_c, 9, 63, 49
11, 87364, Note_off_c, 9, 63, 64
11, 87364, Note_off_c, 9, 70, 64
11, 87364, Note_on_c, 9, 46, 60
11, 87368, Note_off_c, 9, 46, 64
11, 87456, Note_on_c, 9, 70, 99
11, 87460, Note_off_c, 9, 70, 64
11, 87552, Note_on_c, 9, 35, 114
11, 87552, Note_on_c, 9, 69, 74
11, 87552, Note_on_c, 9, 60, 54
11, 87556, Note_off_c, 9, 60, 64
11, 87556, Note_off_c, 9, 69, 64
11, 87556, Note_off_c, 9, 35, 64
11, 87556, Note_on_c, 9, 44, 63
11, 87560, Note_off_c, 9, 44, 64
11, 87644, Note_on_c, 9, 69, 28
11, 87648, Note_off_c, 9, 69, 64
11, 87728, Note_on_c, 9, 69, 102
11, 87732, Note_off_c, 9, 69, 64
11, 87744, Note_on_c, 9, 70, 94
11, 87748, Note_off_c, 9, 70, 64
11, 87748, Note_on_c, 9, 46, 67
11, 87752, Note_off_c, 9, 46, 64
11, 87824, Note_on_c, 9, 69, 102
11, 87828, Note_off_c, 9, 69, 64
11, 87840, Note_on_c, 9, 60, 43
11, 87844, Note_off_c, 9, 60, 64
11, 87936, Note_on_c, 9, 35, 114
11, 87940, Note_off_c, 9, 35, 64
11, 87940, Note_on_c, 9, 40, 114
11, 87940, Note_on_c, 9, 44, 76
11, 87944, Note_off_c, 9, 44, 64
11, 87944, Note_off_c, 9, 40, 64
11, 87944, Note_on_c, 9, 39, 99
11, 87948, Note_off_c, 9, 39, 64
11, 88032, Note_on_c, 9, 60, 40
11, 88036, Note_off_c, 9, 60, 64
11, 88128, Note_on_c, 9, 70, 72
11, 88128, Note_on_c, 9, 63, 40
11, 88132, Note_off_c, 9, 63, 64
11, 88132, Note_off_c, 9, 70, 64
11, 88224, Note_on_c, 9, 70, 85
11, 88228, Note_off_c, 9, 70, 64
11, 88320, Note_on_c, 9, 35, 110
11, 88320, Note_on_c, 9, 60, 54
11, 88324, Note_off_c, 9, 60, 64
11, 88324, Note_off_c, 9, 35, 64
11, 88512, Note_on_c, 9, 70, 94
11, 88516, Note_off_c, 9, 70, 64
11, 88516, Note_on_c, 9, 46, 63
11, 88520, Note_off_c, 9, 46, 64
11, 88608, Note_on_c, 9, 60, 40
11, 88612, Note_off_c, 9, 60, 64
11, 88704, Note_on_c, 9, 35, 114
11, 88708, Note_off_c, 9, 35, 64
11, 88708, Note_on_c, 9, 40, 114
11, 88708, Note_on_c, 9, 44, 63
11, 88712, Note_off_c, 9, 44, 64
11, 88712, Note_off_c, 9, 40, 64
11, 88712, Note_on_c, 9, 39, 99
11, 88716, Note_off_c, 9, 39, 64
11, 88800, Note_on_c, 9, 60, 43
11, 88804, Note_off_c, 9, 60, 64
11, 88896, Note_on_c, 9, 70, 94
11, 88896, Note_on_c, 9, 63, 54
11, 88900, Note_off_c, 9, 63, 64
11, 88900, Note_off_c, 9, 70, 64
11, 88900, Note_on_c, 9, 46, 63
11, 88904, Note_off_c, 9, 46, 64
11, 89088, Note_on_c, 9, 35, 114
11, 89088, Note_on_c, 9, 60, 49
11, 89092, Note_off_c, 9, 60, 64
11, 89092, Note_off_c, 9, 35, 64
11, 89092, Note_on_c, 9, 44, 67
11, 89096, Note_off_c, 9, 44, 64
11, 89280, Note_on_c, 9, 70, 99
11, 89284, Note_off_c, 9, 70, 64
11, 89284, Note_on_c, 9, 46, 63
11, 89288, Note_off_c, 9, 46, 64
11, 89376, Note_on_c, 9, 60, 40
11, 89380, Note_off_c, 9, 60, 64
11, 89472, Note_on_c, 9, 35, 110
11, 89476, Note_off_c, 9, 35, 64
11, 89476, Note_on_c, 9, 40, 114
11, 89476, Note_on_c, 9, 44, 63
11, 89480, Note_off_c, 9, 44, 64
11, 89480, Note_off_c, 9, 40, 64
11, 89480, Note_on_c, 9, 39, 99
11, 89484, Note_off_c, 9, 39, 64
11, 89568, Note_on_c, 9, 60, 43
11, 89572, Note_off_c, 9, 60, 64
11, 89664, Note_on_c, 9, 70, 78
11, 89664, Note_on_c, 9, 63, 40
11, 89668, Note_off_c, 9, 63, 64
11, 89668, Note_off_c, 9, 70, 64
11, 89668, Note_on_c, 9, 46, 63
11, 89672, Note_off_c, 9, 46, 64
11, 89760, Note_on_c, 9, 70, 85
11, 89764, Note_off_c, 9, 70, 64
11, 89856, Note_on_c, 9, 35, 114
11, 89856, Note_on_c, 9, 60, 49
11, 89860, Note_off_c, 9, 60, 64
11, 89860, Note_off_c, 9, 35, 64
11, 89860, Note_on_c, 9, 40, 114
11, 89860, Note_on_c, 9, 44, 63
11, 89864, Note_off_c, 9, 44, 64
11, 89864, Note_off_c, 9, 40, 64
11, 89864, Note_on_c, 9, 39, 99
11, 89868, Note_off_c, 9, 39, 64
11, 90048, Note_on_c, 9, 70, 99
11, 90052, Note_off_c, 9, 70, 64
11, 90052, Note_on_c, 9, 46, 63
11, 90056, Note_off_c, 9, 46, 64
11, 90144, Note_on_c, 9, 60, 40
11, 90148, Note_off_c, 9, 60, 64
11, 90240, Note_on_c, 9, 35, 114
11, 90244, Note_off_c, 9, 35, 64
11, 90244, Note_on_c, 9, 40, 114
11, 90244, Note_on_c, 9, 44, 67
11, 90248, Note_off_c, 9, 44, 64
11, 90248, Note_off_c, 9, 40, 64
11, 90248, Note_on_c, 9, 39, 99
11, 90252, Note_off_c, 9, 39, 64
11, 90336, Note_on_c, 9, 60, 40
11, 90340, Note_off_c, 9, 60, 64
11, 90340, Note_on_c, 9, 40, 114
11, 90344, Note_off_c, 9, 40, 64
11, 90344, Note_on_c, 9, 39, 99
11, 90348, Note_off_c, 9, 39, 64
11, 90432, Note_on_c, 9, 70, 81
11, 90432, Note_on_c, 9, 63, 49
11, 90436, Note_off_c, 9, 63, 64
11, 90436, Note_off_c, 9, 70, 64
11, 90436, Note_on_c, 9, 46, 67
11, 90440, Note_off_c, 9, 46, 64
11, 90528, Note_on_c, 9, 70, 99
11, 90532, Note_off_c, 9, 70, 64
11, 90624, Note_on_c, 9, 35, 110
11, 90624, Note_on_c, 9, 69, 74
11, 90624, Note_on_c, 9, 60, 54
11, 90628, Note_off_c, 9, 60, 64
11, 90628, Note_off_c, 9, 69, 64
11, 90628, Note_off_c, 9, 35, 64
11, 90628, Note_on_c, 9, 44, 76
11, 90632, Note_off_c, 9, 44, 64
11, 90716, Note_on_c, 9, 69, 28
11, 90720, Note_off_c, 9, 69, 64
11, 90800, Note_on_c, 9, 69, 102
11, 90804, Note_off_c, 9, 69, 64
11, 90816, Note_on_c, 9, 70, 99
11, 90820, Note_off_c, 9, 70, 64
11, 90820, Note_on_c, 9, 46, 63
11, 90824, Note_off_c, 9, 46, 64
11, 90896, Note_on_c, 9, 69, 102
11, 90900, Note_off_c, 9, 69, 64
11, 90912, Note_on_c, 9, 60, 54
11, 90916, Note_off_c, 9, 60, 64
11, 91008, Note_on_c, 9, 35, 114
11, 91012, Note_off_c, 9, 35, 64
11, 91012, Note_on_c, 9, 40, 110
11, 91012, Note_on_c, 9, 44, 60
11, 91016, Note_off_c, 9, 44, 64
11, 91016, Note_off_c, 9, 40, 64
11, 91016, Note_on_c, 9, 39, 95
11, 91020, Note_off_c, 9, 39, 64
11, 91104, Note_on_c, 9, 60, 43
11, 91108, Note_off_c, 9, 60, 64
11, 91200, Note_on_c, 9, 70, 81
11, 91200, Note_on_c, 9, 63, 49
11, 91204, Note_off_c, 9, 63, 64
11, 91204, Note_off_c, 9, 70, 64
11, 91296, Note_on_c, 9, 70, 99
11, 91300, Note_off_c, 9, 70, 64
11, 91392, Note_on_c, 9, 35, 110
11, 91392, Note_on_c, 9, 60, 54
11, 91396, Note_off_c, 9, 60, 64
11, 91396, Note_off_c, 9, 35, 64
11, 91584, Note_on_c, 9, 70, 94
11, 91588, Note_off_c, 9, 70, 64
11, 91588, Note_on_c, 9, 46, 67
11, 91592, Note_off_c, 9, 46, 64
11, 91680, Note_on_c, 9, 60, 43
11, 91684, Note_off_c, 9, 60, 64
11, 91776, Note_on_c, 9, 35, 114
11, 91780, Note_off_c, 9, 35, 64
11, 91780, Note_on_c, 9, 40, 110
11, 91780, Note_on_c, 9, 44, 67
11, 91784, Note_off_c, 9, 44, 64
11, 91784, Note_off_c, 9, 40, 64
11, 91784, Note_on_c, 9, 39, 95
11, 91788, Note_off_c, 9, 39, 64
11, 91872, Note_on_c, 9, 60, 49
11, 91876, Note_off_c, 9, 60, 64
11, 91968, Note_on_c, 9, 70, 94
11, 91968, Note_on_c, 9, 63, 54
11, 91972, Note_off_c, 9, 63, 64
11, 91972, Note_off_c, 9, 70, 64
11, 91972, Note_on_c, 9, 46, 63
11, 91976, Note_off_c, 9, 46, 64
11, 92160, Note_on_c, 9, 35, 110
11, 92160, Note_on_c, 9, 60, 54
11, 92164, Note_off_c, 9, 60, 64
11, 92164, Note_off_c, 9, 35, 64
11, 92164, Note_on_c, 9, 44, 63
11, 92168, Note_off_c, 9, 44, 64
11, 92352, Note_on_c, 9, 70, 94
11, 92356, Note_off_c, 9, 70, 64
11, 92356, Note_on_c, 9, 46, 60
11, 92360, Note_off_c, 9, 46, 64
11, 92448, Note_on_c, 9, 60, 33
11, 92452, Note_off_c, 9, 60, 64
11, 92544, Note_on_c, 9, 35, 110
11, 92548, Note_off_c, 9, 35, 64
11, 92548, Note_on_c, 9, 40, 110
11, 92548, Note_on_c, 9, 44, 63
11, 92552, Note_off_c, 9, 44, 64
11, 92552, Note_off_c, 9, 40, 64
11, 92552, Note_on_c, 9, 39, 95
11, 92556, Note_off_c, 9, 39, 64
11, 92640, Note_on_c, 9, 60, 36
11, 92644, Note_off_c, 9, 60, 64
11, 92736, Note_on_c, 9, 70, 78
11, 92736, Note_on_c, 9, 63, 49
11, 92740, Note_off_c, 9, 63, 64
11, 92740, Note_off_c, 9, 70, 64
11, 92740, Note_on_c, 9, 46, 54
11, 92744, Note_off_c, 9, 46, 64
11, 92832, Note_on_c, 9, 70, 94
11, 92836, Note_off_c, 9, 70, 64
11, 92928, Note_on_c, 9, 35, 110
11, 92928, Note_on_c, 9, 60, 54
11, 92932, Note_off_c, 9, 60, 64
11, 92932, Note_off_c, 9, 35, 64
11, 92932, Note_on_c, 9, 44, 63
11, 92936, Note_off_c, 9, 44, 64
11, 93120, Note_on_c, 9, 70, 94
11, 93124, Note_off_c, 9, 70, 64
11, 93124, Note_on_c, 9, 46, 54
11, 93128, Note_off_c, 9, 46, 64
11, 93216, Note_on_c, 9, 60, 43
11, 93220, Note_off_c, 9, 60, 64
11, 93312, Note_on_c, 9, 35, 114
11, 93316, Note_off_c, 9, 35, 64
11, 93316, Note_on_c, 9, 40, 110
11, 93316, Note_on_c, 9, 44, 63
11, 93320, Note_off_c, 9, 44, 64
11, 93320, Note_off_c, 9, 40, 64
11, 93320, Note_on_c, 9, 39, 95
11, 93324, Note_off_c, 9, 39, 64
11, 93408, Note_on_c, 9, 60, 40
11, 93412, Note_off_c, 9, 60, 64
11, 93504, Note_on_c, 9, 70, 78
11, 93504, Note_on_c, 9, 63, 49
11, 93508, Note_off_c, 9, 63, 64
11, 93508, Note_off_c, 9, 70, 64
11, 93508, Note_on_c, 9, 46, 60
11, 93512, Note_off_c, 9, 46, 64
11, 93600, Note_on_c, 9, 70, 99
11, 93604, Note_off_c, 9, 70, 64
11, 93696, Note_on_c, 9, 35, 114
11, 93696, Note_on_c, 9, 69, 74
11, 93696, Note_on_c, 9, 60, 54
11, 93700, Note_off_c, 9, 60, 64
11, 93700, Note_off_c, 9, 69, 64
11, 93700, Note_off_c, 9, 35, 64
11, 93700, Note_on_c, 9, 44, 63
11, 93704, Note_off_c, 9, 44, 64
11, 93788, Note_on_c, 9, 69, 28
11, 93792, Note_off_c, 9, 69, 64
11, 93872, Note_on_c, 9, 69, 102
11, 93876, Note_off_c, 9, 69, 64
11, 93888, Note_on_c, 9, 70, 94
11, 93892, Note_off_c, 9, 70, 64
11, 93892, Note_on_c, 9, 46, 67
11, 93896, Note_off_c, 9, 46, 64
11, 93968, Note_on_c, 9, 69, 102
11, 93972, Note_off_c, 9, 69, 64
11, 93984, Note_on_c, 9, 60, 43
11, 93988, Note_off_c, 9, 60, 64
11, 94080, Note_on_c, 9, 35, 114
11, 94084, Note_off_c, 9, 35, 64
11, 94084, Note_on_c, 9, 40, 114
11, 94084, Note_on_c, 9, 44, 76
11, 94088, Note_off_c, 9, 44, 64
11, 94088, Note_off_c, 9, 40, 64
11, 94088, Note_on_c, 9, 39, 99
11, 94092, Note_off_c, 9, 39, 64
11, 94176, Note_on_c, 9, 60, 40
11, 94180, Note_off_c, 9, 60, 64
11, 94272, Note_on_c, 9, 70, 72
11, 94272, Note_on_c, 9, 63, 40
11, 94276, Note_off_c, 9, 63, 64
11, 94276, Note_off_c, 9, 70, 64
11, 94368, Note_on_c, 9, 70, 85
11, 94372, Note_off_c, 9, 70, 64
11, 94464, Note_on_c, 9, 35, 110
11, 94464, Note_on_c, 9, 60, 54
11, 94468, Note_off_c, 9, 60, 64
11, 94468, Note_off_c, 9, 35, 64
11, 94656, Note_on_c, 9, 70, 94
11, 94660, Note_off_c, 9, 70, 64
11, 94660, Note_on_c, 9, 46, 63
11, 94664, Note_off_c, 9, 46, 64
11, 94752, Note_on_c, 9, 60, 40
11, 94756, Note_off_c, 9, 60, 64
11, 94848, Note_on_c, 9, 35, 114
11, 94852, Note_off_c, 9, 35, 64
11, 94852, Note_on_c, 9, 40, 114
11, 94852, Note_on_c, 9, 44, 63
11, 94856, Note_off_c, 9, 44, 64
11, 94856, Note_off_c, 9, 40, 64
11, 94856, Note_on_c, 9, 39, 99
11, 94860, Note_off_c, 9, 39, 64
11, 94944, Note_on_c, 9, 60, 43
11, 94948, Note_off_c, 9, 60, 64
11, 95040, Note_on_c, 9, 70, 94
11, 95040, Note_on_c, 9, 63, 54
11, 95044, Note_off_c, 9, 63, 64
11, 95044, Note_off_c, 9, 70, 64
11, 95044, Note_on_c, 9, 46, 63
11, 95048, Note_off_c, 9, 46, 64
11, 95232, Note_on_c, 9, 35, 114
11, 95232, Note_on_c, 9, 60, 49
11, 95236, Note_off_c, 9, 60, 64
11, 95236, Note_off_c, 9, 35, 64
11, 95236, Note_on_c, 9, 44, 67
11, 95240, Note_off_c, 9, 44, 64
11, 95424, Note_on_c, 9, 70, 99
11, 95428, Note_off_c, 9, 70, 64
11, 95428, Note_on_c, 9, 46, 63
11, 95432, Note_off_c, 9, 46, 64
11, 95520, Note_on_c, 9, 60, 40
11, 95524, Note_off_c, 9, 60, 64
11, 95616, Note_on_c, 9, 35, 110
11, 95620, Note_off_c, 9, 35, 64
11, 95620, Note_on_c, 9, 40, 114
11, 95620, Note_on_c, 9, 44, 63
11, 95624, Note_off_c, 9, 44, 64
11, 95624, Note_off_c, 9, 40, 64
11, 95624, Note_on_c, 9, 39, 99
11, 95628, Note_off_c, 9, 39, 64
11, 95712, Note_on_c, 9, 60, 43
11, 95716, Note_off_c, 9, 60, 64
11, 95808, Note_on_c, 9, 70, 78
11, 95808, Note_on_c, 9, 63, 40
11, 95812, Note_off_c, 9, 63, 64
11, 95812, Note_off_c, 9, 70, 64
11, 95812, Note_on_c, 9, 46, 63
11, 95816, Note_off_c, 9, 46, 64
11, 95904, Note_on_c, 9, 70, 85
11, 95908, Note_off_c, 9, 70, 64
11, 96000, Note_on_c, 9, 35, 114
11, 96000, Note_on_c, 9, 60, 49
11, 96004, Note_off_c, 9, 60, 64
11, 96004, Note_off_c, 9, 35, 64
11, 96004, Note_on_c, 9, 44, 63
11, 96008, Note_off_c, 9, 44, 64
11, 96192, Note_on_c, 9, 70, 99
11, 96196, Note_off_c, 9, 70, 64
11, 96196, Note_on_c, 9, 46, 63
11, 96200, Note_off_c, 9, 46, 64
11, 96288, Note_on_c, 9, 60, 40
11, 96292, Note_off_c, 9, 60, 64
11, 96384, Note_on_c, 9, 35, 114
11, 96388, Note_off_c, 9, 35, 64
11, 96388, Note_on_c, 9, 40, 114
11, 96388, Note_on_c, 9, 44, 67
11, 96392, Note_off_c, 9, 44, 64
11, 96392, Note_off_c, 9, 40, 64
11, 96392, Note_on_c, 9, 39, 99
11, 96396, Note_off_c, 9, 39, 64
11, 96480, Note_on_c, 9, 60, 40
11, 96484, Note_off_c, 9, 60, 64
11, 96576, Note_on_c, 9, 70, 81
11, 96576, Note_on_c, 9, 63, 49
11, 96580, Note_off_c, 9, 63, 64
11, 96580, Note_off_c, 9, 70, 64
11, 96580, Note_on_c, 9, 46, 67
11, 96584, Note_off_c, 9, 46, 64
11, 96672, Note_on_c, 9, 70, 99
11, 96676, Note_off_c, 9, 70, 64
11, 96768, Note_on_c, 9, 35, 110
11, 96768, Note_on_c, 9, 69, 74
11, 96768, Note_on_c, 9, 60, 54
11, 96772, Note_off_c, 9, 60, 64
11, 96772, Note_off_c, 9, 69, 64
11, 96772, Note_off_c, 9, 35, 64
11, 96772, Note_on_c, 9, 44, 76
11, 96776, Note_off_c, 9, 44, 64
11, 96860, Note_on_c, 9, 69, 28
11, 96864, Note_off_c, 9, 69, 64
11, 96944, Note_on_c, 9, 69, 102
11, 96948, Note_off_c, 9, 69, 64
11, 96960, Note_on_c, 9, 70, 99
11, 96964, Note_off_c, 9, 70, 64
11, 96964, Note_on_c, 9, 46, 63
11, 96968, Note_off_c, 9, 46, 64
11, 97040, Note_on_c, 9, 69, 102
11, 97044, Note_off_c, 9, 69, 64
11, 97056, Note_on_c, 9, 60, 54
11, 97060, Note_off_c, 9, 60, 64
11, 97152, Note_on_c, 9, 35, 114
11, 97156, Note_off_c, 9, 35, 64
11, 97156, Note_on_c, 9, 40, 110
11, 97156, Note_on_c, 9, 44, 60
11, 97160, Note_off_c, 9, 44, 64
11, 97160, Note_off_c, 9, 40, 64
11, 97160, Note_on_c, 9, 39, 95
11, 97164, Note_off_c, 9, 39, 64
11, 97248, Note_on_c, 9, 60, 43
11, 97252, Note_off_c, 9, 60, 64
11, 97344, Note_on_c, 9, 70, 81
11, 97344, Note_on_c, 9, 63, 49
11, 97348, Note_off_c, 9, 63, 64
11, 97348, Note_off_c, 9, 70, 64
11, 97440, Note_on_c, 9, 70, 99
11, 97444, Note_off_c, 9, 70, 64
11, 97536, Note_on_c, 9, 35, 110
11, 97536, Note_on_c, 9, 60, 54
11, 97540, Note_off_c, 9, 60, 64
11, 97540, Note_off_c, 9, 35, 64
11, 97728, Note_on_c, 9, 70, 94
11, 97732, Note_off_c, 9, 70, 64
11, 97732, Note_on_c, 9, 46, 67
11, 97736, Note_off_c, 9, 46, 64
11, 97824, Note_on_c, 9, 60, 43
11, 97828, Note_off_c, 9, 60, 64
11, 97920, Note_on_c, 9, 35, 114
11, 97924, Note_off_c, 9, 35, 64
11, 97924, Note_on_c, 9, 40, 110
11, 97924, Note_on_c, 9, 44, 67
11, 97928, Note_off_c, 9, 44, 64
11, 97928, Note_off_c, 9, 40, 64
11, 97928, Note_on_c, 9, 39, 95
11, 97932, Note_off_c, 9, 39, 64
11, 98016, Note_on_c, 9, 60, 49
11, 98020, Note_off_c, 9, 60, 64
11, 98112, Note_on_c, 9, 70, 94
11, 98112, Note_on_c, 9, 63, 54
11, 98116, Note_off_c, 9, 63, 64
11, 98116, Note_off_c, 9, 70, 64
11, 98116, Note_on_c, 9, 46, 63
11, 98120, Note_off_c, 9, 46, 64
11, 98304, Note_on_c, 9, 35, 110
11, 98304, Note_on_c, 9, 60, 54
11, 98308, Note_off_c, 9, 60, 64
11, 98308, Note_off_c, 9, 35, 64
11, 98308, Note_on_c, 9, 44, 63
11, 98312, Note_off_c, 9, 44, 64
11, 98496, Note_on_c, 9, 70, 94
11, 98500, Note_off_c, 9, 70, 64
11, 98500, Note_on_c, 9, 46, 60
11, 98504, Note_off_c, 9, 46, 64
11, 98592, Note_on_c, 9, 60, 33
11, 98596, Note_off_c, 9, 60, 64
11, 98688, Note_on_c, 9, 35, 110
11, 98692, Note_off_c, 9, 35, 64
11, 98692, Note_on_c, 9, 40, 110
11, 98692, Note_on_c, 9, 44, 63
11, 98696, Note_off_c, 9, 44, 64
11, 98696, Note_off_c, 9, 40, 64
11, 98696, Note_on_c, 9, 39, 95
11, 98700, Note_off_c, 9, 39, 64
11, 98784, Note_on_c, 9, 60, 36
11, 98788, Note_off_c, 9, 60, 64
11, 98880, Note_on_c, 9, 70, 78
11, 98880, Note_on_c, 9, 63, 49
11, 98884, Note_off_c, 9, 63, 64
11, 98884, Note_off_c, 9, 70, 64
11, 98884, Note_on_c, 9, 46, 54
11, 98888, Note_off_c, 9, 46, 64
11, 98976, Note_on_c, 9, 70, 94
11, 98980, Note_off_c, 9, 70, 64
11, 99072, Note_on_c, 9, 35, 110
11, 99072, Note_on_c, 9, 60, 54
11, 99076, Note_off_c, 9, 60, 64
11, 99076, Note_off_c, 9, 35, 64
11, 99076, Note_on_c, 9, 44, 63
11, 99080, Note_off_c, 9, 44, 64
11, 99264, Note_on_c, 9, 70, 94
11, 99268, Note_off_c, 9, 70, 64
11, 99268, Note_on_c, 9, 46, 54
11, 99272, Note_off_c, 9, 46, 64
11, 99360, Note_on_c, 9, 60, 43
11, 99364, Note_off_c, 9, 60, 64
11, 99456, Note_on_c, 9, 35, 114
11, 99460, Note_off_c, 9, 35, 64
11, 99460, Note_on_c, 9, 40, 110
11, 99460, Note_on_c, 9, 44, 63
11, 99464, Note_off_c, 9, 44, 64
11, 99464, Note_off_c, 9, 40, 64
11, 99464, Note_on_c, 9, 39, 95
11, 99468, Note_off_c, 9, 39, 64
11, 99552, Note_on_c, 9, 60, 40
11, 99556, Note_off_c, 9, 60, 64
11, 99648, Note_on_c, 9, 70, 78
11, 99648, Note_on_c, 9, 63, 49
11, 99652, Note_off_c, 9, 63, 64
11, 99652, Note_off_c, 9, 70, 64
11, 99652, Note_on_c, 9, 46, 60
11, 99656, Note_off_c, 9, 46, 64
11, 99744, Note_on_c, 9, 70, 99
11, 99748, Note_off_c, 9, 70, 64
11, 99840, Note_on_c, 9, 35, 114
11, 99840, Note_on_c, 9, 69, 74
11, 99840, Note_on_c, 9, 60, 54
11, 99844, Note_off_c, 9, 60, 64
11, 99844, Note_off_c, 9, 69, 64
11, 99844, Note_off_c, 9, 35, 64
11, 99844, Note_on_c, 9, 44, 63
11, 99848, Note_off_c, 9, 44, 64
11, 99932, Note_on_c, 9, 69, 28
11, 99936, Note_off_c, 9, 69, 64
11, 100016, Note_on_c, 9, 69, 102
11, 100020, Note_off_c, 9, 69, 64
11, 100032, Note_on_c, 9, 70, 94
11, 100036, Note_off_c, 9, 70, 64
11, 100036, Note_on_c, 9, 46, 67
11, 100040, Note_off_c, 9, 46, 64
11, 100112, Note_on_c, 9, 69, 102
11, 100116, Note_off_c, 9, 69, 64
11, 100128, Note_on_c, 9, 60, 43
11, 100132, Note_off_c, 9, 60, 64
11, 100224, Note_on_c, 9, 35, 114
11, 100228, Note_off_c, 9, 35, 64
11, 100228, Note_on_c, 9, 40, 114
11, 100228, Note_on_c, 9, 44, 76
11, 100232, Note_off_c, 9, 44, 64
11, 100232, Note_off_c, 9, 40, 64
11, 100232, Note_on_c, 9, 39, 99
11, 100236, Note_off_c, 9, 39, 64
11, 100320, Note_on_c, 9, 60, 40
11, 100324, Note_off_c, 9, 60, 64
11, 100416, Note_on_c, 9, 70, 72
11, 100416, Note_on_c, 9, 63, 40
11, 100420, Note_off_c, 9, 63, 64
11, 100420, Note_off_c, 9, 70, 64
11, 100512, Note_on_c, 9, 70, 85
11, 100516, Note_off_c, 9, 70, 64
11, 100608, Note_on_c, 9, 35, 110
11, 100608, Note_on_c, 9, 60, 54
11, 100612, Note_off_c, 9, 60, 64
11, 100612, Note_off_c, 9, 35, 64
11, 100800, Note_on_c, 9, 70, 94
11, 100804, Note_off_c, 9, 70, 64
11, 100804, Note_on_c, 9, 46, 63
11, 100808, Note_off_c, 9, 46, 64
11, 100896, Note_on_c, 9, 60, 40
11, 100900, Note_off_c, 9, 60, 64
11, 100992, Note_on_c, 9, 35, 114
11, 100996, Note_off_c, 9, 35, 64
11, 100996, Note_on_c, 9, 40, 114
11, 100996, Note_on_c, 9, 44, 63
11, 101000, Note_off_c, 9, 44, 64
11, 101000, Note_off_c, 9, 40, 64
11, 101000, Note_on_c, 9, 39, 99
11, 101004, Note_off_c, 9, 39, 64
11, 101088, Note_on_c, 9, 60, 43
11, 101092, Note_off_c, 9, 60, 64
11, 101184, Note_on_c, 9, 70, 94
11, 101184, Note_on_c, 9, 63, 54
11, 101188, Note_off_c, 9, 63, 64
11, 101188, Note_off_c, 9, 70, 64
11, 101188, Note_on_c, 9, 46, 63
11, 101192, Note_off_c, 9, 46, 64
11, 101376, Note_on_c, 9, 35, 114
11, 101376, Note_on_c, 9, 60, 49
11, 101380, Note_off_c, 9, 60, 64
11, 101380, Note_off_c, 9, 35, 64
11, 101380, Note_on_c, 9, 44, 67
11, 101384, Note_off_c, 9, 44, 64
11, 101568, Note_on_c, 9, 70, 99
11, 101572, Note_off_c, 9, 70, 64
11, 101572, Note_on_c, 9, 46, 63
11, 101576, Note_off_c, 9, 46, 64
11, 101664, Note_on_c, 9, 60, 40
11, 101668, Note_off_c, 9, 60, 64
11, 101760, Note_on_c, 9, 35, 110
11, 101764, Note_off_c, 9, 35, 64
11, 101764, Note_on_c, 9, 40, 114
11, 101764, Note_on_c, 9, 44, 63
11, 101768, Note_off_c, 9, 44, 64
11, 101768, Note_off_c, 9, 40, 64
11, 101768, Note_on_c, 9, 39, 99
11, 101772, Note_off_c, 9, 39, 64
11, 101856, Note_on_c, 9, 60, 43
11, 101860, Note_off_c, 9, 60, 64
11, 101952, Note_on_c, 9, 70, 78
11, 101952, Note_on_c, 9, 63, 40
11, 101956, Note_off_c, 9, 63, 64
11, 101956, Note_off_c, 9, 70, 64
11, 101956, Note_on_c, 9, 46, 63
11, 101960, Note_off_c, 9, 46, 64
11, 102048, Note_on_c, 9, 70, 85
11, 102052, Note_off_c, 9, 70, 64
11, 102144, Note_on_c, 9, 35, 114
11, 102144, Note_on_c, 9, 60, 49
11, 102148, Note_off_c, 9, 60, 64
11, 102148, Note_off_c, 9, 35, 64
11, 102148, Note_on_c, 9, 40, 110
11, 102148, Note_on_c, 9, 44, 63
11, 102152, Note_off_c, 9, 44, 64
11, 102152, Note_off_c, 9, 40, 64
11, 102152, Note_on_c, 9, 39, 95
11, 102156, Note_off_c, 9, 39, 64
11, 102244, Note_on_c, 9, 40, 99
11, 102248, Note_off_c, 9, 40, 64
11, 102248, Note_on_c, 9, 39, 84
11, 102252, Note_off_c, 9, 39, 64
11, 102336, Note_on_c, 9, 70, 99
11, 102340, Note_off_c, 9, 70, 64
11, 102340, Note_on_c, 9, 40, 94
11, 102340, Note_on_c, 9, 46, 63
11, 102344, Note_off_c, 9, 46, 64
11, 102344, Note_off_c, 9, 40, 64
11, 102344, Note_on_c, 9, 39, 79
11, 102348, Note_off_c, 9, 39, 64
11, 102432, Note_on_c, 9, 60, 40
11, 102436, Note_off_c, 9, 60, 64
11, 102436, Note_on_c, 9, 40, 104
11, 102440, Note_off_c, 9, 40, 64
11, 102440, Note_on_c, 9, 39, 89
11, 102444, Note_off_c, 9, 39, 64
11, 102528, Note_on_c, 9, 35, 114
11, 102532, Note_off_c, 9, 35, 64
11, 102532, Note_on_c, 9, 44, 67
11, 102536, Note_off_c, 9, 44, 64
11, 102624, Note_on_c, 9, 60, 40
11, 102628, Note_off_c, 9, 60, 64
11, 102720, Note_on_c, 9, 70, 81
11, 102720, Note_on_c, 9, 63, 49
11, 102724, Note_off_c, 9, 63, 64
11, 102724, Note_off_c, 9, 70, 64
11, 102724, Note_on_c, 9, 46, 67
11, 102728, Note_off_c, 9, 46, 64
11, 102816, Note_on_c, 9, 70, 99
11, 102820, Note_off_c, 9, 70, 64
11, 102912, Note_on_c, 9, 35, 110
11, 102912, Note_on_c, 9, 69, 74
11, 102912, Note_on_c, 9, 60, 54
11, 102916, Note_off_c, 9, 60, 64
11, 102916, Note_off_c, 9, 69, 64
11, 102916, Note_off_c, 9, 35, 64
11, 102916, Note_on_c, 9, 44, 76
11, 102920, Note_off_c, 9, 44, 64
11, 103004, Note_on_c, 9, 69, 28
11, 103008, Note_off_c, 9, 69, 64
11, 103088, Note_on_c, 9, 69, 102
11, 103092, Note_off_c, 9, 69, 64
11, 103104, Note_on_c, 9, 70, 99
11, 103108, Note_off_c, 9, 70, 64
11, 103108, Note_on_c, 9, 46, 63
11, 103112, Note_off_c, 9, 46, 64
11, 103184, Note_on_c, 9, 69, 102
11, 103188, Note_off_c, 9, 69, 64
11, 103200, Note_on_c, 9, 60, 54
11, 103204, Note_off_c, 9, 60, 64
11, 103296, Note_on_c, 9, 35, 114
11, 103300, Note_off_c, 9, 35, 64
11, 103300, Note_on_c, 9, 40, 110
11, 103300, Note_on_c, 9, 44, 60
11, 103304, Note_off_c, 9, 44, 64
11, 103304, Note_off_c, 9, 40, 64
11, 103304, Note_on_c, 9, 39, 95
11, 103308, Note_off_c, 9, 39, 64
11, 103392, Note_on_c, 9, 60, 43
11, 103396, Note_off_c, 9, 60, 64
11, 103488, Note_on_c, 9, 70, 81
11, 103488, Note_on_c, 9, 63, 49
11, 103492, Note_off_c, 9, 63, 64
11, 103492, Note_off_c, 9, 70, 64
11, 103584, Note_on_c, 9, 70, 99
11, 103588, Note_off_c, 9, 70, 64
11, 103680, Note_on_c, 9, 35, 110
11, 103680, Note_on_c, 9, 60, 54
11, 103684, Note_off_c, 9, 60, 64
11, 103684, Note_off_c, 9, 35, 64
11, 103872, Note_on_c, 9, 70, 94
11, 103876, Note_off_c, 9, 70, 64
11, 103876, Note_on_c, 9, 46, 67
11, 103880, Note_off_c, 9, 46, 64
11, 103968, Note_on_c, 9, 60, 43
11, 103972, Note_off_c, 9, 60, 64
11, 104064, Note_on_c, 9, 35, 114
11, 104068, Note_off_c, 9, 35, 64
11, 104068, Note_on_c, 9, 40, 110
11, 104068, Note_on_c, 9, 44, 67
11, 104072, Note_off_c, 9, 44, 64
11, 104072, Note_off_c, 9, 40, 64
11, 104072, Note_on_c, 9, 39, 95
11, 104076, Note_off_c, 9, 39, 64
11, 104160, Note_on_c, 9, 60, 49
11, 104164, Note_off_c, 9, 60, 64
11, 104256, Note_on_c, 9, 70, 94
11, 104256, Note_on_c, 9, 63, 54
11, 104260, Note_off_c, 9, 63, 64
11, 104260, Note_off_c, 9, 70, 64
11, 104260, Note_on_c, 9, 46, 63
11, 104264, Note_off_c, 9, 46, 64
11, 104448, Note_on_c, 9, 35, 110
11, 104448, Note_on_c, 9, 60, 54
11, 104452, Note_off_c, 9, 60, 64
11, 104452, Note_off_c, 9, 35, 64
11, 104452, Note_on_c, 9, 44, 63
11, 104456, Note_off_c, 9, 44, 64
11, 104640, Note_on_c, 9, 70, 94
11, 104644, Note_off_c, 9, 70, 64
11, 104644, Note_on_c, 9, 46, 60
11, 104648, Note_off_c, 9, 46, 64
11, 104736, Note_on_c, 9, 60, 33
11, 104740, Note_off_c, 9, 60, 64
11, 104832, Note_on_c, 9, 35, 110
11, 104836, Note_off_c, 9, 35, 64
11, 104836, Note_on_c, 9, 40, 110
11, 104836, Note_on_c, 9, 44, 63
11, 104840, Note_off_c, 9, 44, 64
11, 104840, Note_off_c, 9, 40, 64
11, 104840, Note_on_c, 9, 39, 95
11, 104844, Note_off_c, 9, 39, 64
11, 104928, Note_on_c, 9, 60, 36
11, 104932, Note_off_c, 9, 60, 64
11, 105024, Note_on_c, 9, 70, 78
11, 105024, Note_on_c, 9, 63, 49
11, 105028, Note_off_c, 9, 63, 64
11, 105028, Note_off_c, 9, 70, 64
11, 105028, Note_on_c, 9, 46, 54
11, 105032, Note_off_c, 9, 46, 64
11, 105120, Note_on_c, 9, 70, 94
11, 105124, Note_off_c, 9, 70, 64
11, 105216, Note_on_c, 9, 35, 110
11, 105216, Note_on_c, 9, 60, 54
11, 105220, Note_off_c, 9, 60, 64
11, 105220, Note_off_c, 9, 35, 64
11, 105220, Note_on_c, 9, 44, 63
11, 105224, Note_off_c, 9, 44, 64
11, 105408, Note_on_c, 9, 70, 94
11, 105412, Note_off_c, 9, 70, 64
11, 105412, Note_on_c, 9, 46, 54
11, 105416, Note_off_c, 9, 46, 64
11, 105504, Note_on_c, 9, 60, 43
11, 105508, Note_off_c, 9, 60, 64
11, 105600, Note_on_c, 9, 35, 114
11, 105604, Note_off_c, 9, 35, 64
11, 105604, Note_on_c, 9, 40, 110
11, 105604, Note_on_c, 9, 44, 63
11, 105608, Note_off_c, 9, 44, 64
11, 105608, Note_off_c, 9, 40, 64
11, 105608, Note_on_c, 9, 39, 95
11, 105612, Note_off_c, 9, 39, 64
11, 105696, Note_on_c, 9, 60, 40
11, 105700, Note_off_c, 9, 60, 64
11, 105792, Note_on_c, 9, 70, 78
11, 105792, Note_on_c, 9, 63, 49
11, 105796, Note_off_c, 9, 63, 64
11, 105796, Note_off_c, 9, 70, 64
11, 105796, Note_on_c, 9, 46, 60
11, 105800, Note_off_c, 9, 46, 64
11, 105888, Note_on_c, 9, 70, 99
11, 105892, Note_off_c, 9, 70, 64
11, 105984, Note_on_c, 9, 35, 114
11, 105984, Note_on_c, 9, 69, 74
11, 105984, Note_on_c, 9, 60, 54
11, 105988, Note_off_c, 9, 60, 64
11, 105988, Note_off_c, 9, 69, 64
11, 105988, Note_off_c, 9, 35, 64
11, 105988, Note_on_c, 9, 44, 63
11, 105992, Note_off_c, 9, 44, 64
11, 106076, Note_on_c, 9, 69, 28
11, 106080, Note_off_c, 9, 69, 64
11, 106160, Note_on_c, 9, 69, 102
11, 106164, Note_off_c, 9, 69, 64
11, 106176, Note_on_c, 9, 70, 94
11, 106180, Note_off_c, 9, 70, 64
11, 106180, Note_on_c, 9, 46, 67
11, 106184, Note_off_c, 9, 46, 64
11, 106256, Note_on_c, 9, 69, 102
11, 106260, Note_off_c, 9, 69, 64
11, 106272, Note_on_c, 9, 60, 43
11, 106276, Note_off_c, 9, 60, 64
11, 106368, Note_on_c, 9, 35, 114
11, 106372, Note_off_c, 9, 35, 64
11, 106372, Note_on_c, 9, 40, 114
11, 106372, Note_on_c, 9, 44, 76
11, 106376, Note_off_c, 9, 44, 64
11, 106376, Note_off_c, 9, 40, 64
11, 106376, Note_on_c, 9, 39, 99
11, 106380, Note_off_c, 9, 39, 64
11, 106464, Note_on_c, 9, 60, 40
11, 106468, Note_off_c, 9, 60, 64
11, 106560, Note_on_c, 9, 70, 72
11, 106560, Note_on_c, 9, 63, 40
11, 106564, Note_off_c, 9, 63, 64
11, 106564, Note_off_c, 9, 70, 64
11, 106656, Note_on_c, 9, 70, 85
11, 106660, Note_off_c, 9, 70, 64
11, 106752, Note_on_c, 9, 35, 110
11, 106752, Note_on_c, 9, 60, 54
11, 106756, Note_off_c, 9, 60, 64
11, 106756, Note_off_c, 9, 35, 64
11, 106944, Note_on_c, 9, 70, 94
11, 106948, Note_off_c, 9, 70, 64
11, 106948, Note_on_c, 9, 46, 63
11, 106952, Note_off_c, 9, 46, 64
11, 107040, Note_on_c, 9, 60, 40
11, 107044, Note_off_c, 9, 60, 64
11, 107136, Note_on_c, 9, 35, 114
11, 107140, Note_off_c, 9, 35, 64
11, 107140, Note_on_c, 9, 40, 114
11, 107140, Note_on_c, 9, 44, 63
11, 107144, Note_off_c, 9, 44, 64
11, 107144, Note_off_c, 9, 40, 64
11, 107144, Note_on_c, 9, 39, 99
11, 107148, Note_off_c, 9, 39, 64
11, 107232, Note_on_c, 9, 60, 43
11, 107236, Note_off_c, 9, 60, 64
11, 107328, Note_on_c, 9, 70, 94
11, 107328, Note_on_c, 9, 63, 54
11, 107332, Note_off_c, 9, 63, 64
11, 107332, Note_off_c, 9, 70, 64
11, 107332, Note_on_c, 9, 46, 63
11, 107336, Note_off_c, 9, 46, 64
11, 107520, Note_on_c, 9, 35, 114
11, 107520, Note_on_c, 9, 60, 49
11, 107524, Note_off_c, 9, 60, 64
11, 107524, Note_off_c, 9, 35, 64
11, 107524, Note_on_c, 9, 44, 67
11, 107528, Note_off_c, 9, 44, 64
11, 107712, Note_on_c, 9, 70, 99
11, 107716, Note_off_c, 9, 70, 64
11, 107716, Note_on_c, 9, 46, 63
11, 107720, Note_off_c, 9, 46, 64
11, 107808, Note_on_c, 9, 60, 40
11, 107812, Note_off_c, 9, 60, 64
11, 107904, Note_on_c, 9, 35, 110
11, 107908, Note_off_c, 9, 35, 64
11, 107908, Note_on_c, 9, 40, 114
11, 107908, Note_on_c, 9, 44, 63
11, 107912, Note_off_c, 9, 44, 64
11, 107912, Note_off_c, 9, 40, 64
11, 107912, Note_on_c, 9, 39, 99
11, 107916, Note_off_c, 9, 39, 64
11, 108000, Note_on_c, 9, 60, 43
11, 108004, Note_off_c, 9, 60, 64
11, 108096, Note_on_c, 9, 70, 78
11, 108096, Note_on_c, 9, 63, 40
11, 108100, Note_off_c, 9, 63, 64
11, 108100, Note_off_c, 9, 70, 64
11, 108100, Note_on_c, 9, 46, 63
11, 108104, Note_off_c, 9, 46, 64
11, 108192, Note_on_c, 9, 70, 85
11, 108196, Note_off_c, 9, 70, 64
11, 108288, Note_on_c, 9, 35, 114
11, 108288, Note_on_c, 9, 60, 49
11, 108292, Note_off_c, 9, 60, 64
11, 108292, Note_off_c, 9, 35, 64
11, 108292, Note_on_c, 9, 44, 63
11, 108296, Note_off_c, 9, 44, 64
11, 108480, Note_on_c, 9, 70, 99
11, 108484, Note_off_c, 9, 70, 64
11, 108484, Note_on_c, 9, 46, 63
11, 108488, Note_off_c, 9, 46, 64
11, 108576, Note_on_c, 9, 60, 40
11, 108580, Note_off_c, 9, 60, 64
11, 108672, Note_on_c, 9, 35, 114
11, 108676, Note_off_c, 9, 35, 64
11, 108676, Note_on_c, 9, 40, 114
11, 108676, Note_on_c, 9, 44, 67
11, 108680, Note_off_c, 9, 44, 64
11, 108680, Note_off_c, 9, 40, 64
11, 108680, Note_on_c, 9, 39, 99
11, 108684, Note_off_c, 9, 39, 64
11, 108768, Note_on_c, 9, 60, 40
11, 108772, Note_off_c, 9, 60, 64
11, 108864, Note_on_c, 9, 70, 81
11, 108864, Note_on_c, 9, 63, 49
11, 108868, Note_off_c, 9, 63, 64
11, 108868, Note_off_c, 9, 70, 64
11, 108868, Note_on_c, 9, 46, 67
11, 108872, Note_off_c, 9, 46, 64
11, 108960, Note_on_c, 9, 70, 99
11, 108964, Note_off_c, 9, 70, 64
11, 109056, Note_on_c, 9, 35, 110
11, 109056, Note_on_c, 9, 69, 74
11, 109056, Note_on_c, 9, 60, 54
11, 109060, Note_off_c, 9, 60, 64
11, 109060, Note_off_c, 9, 69, 64
11, 109060, Note_off_c, 9, 35, 64
11, 109060, Note_on_c, 9, 44, 76
11, 109064, Note_off_c, 9, 44, 64
11, 109148, Note_on_c, 9, 69, 28
11, 109152, Note_off_c, 9, 69, 64
11, 109232, Note_on_c, 9, 69, 102
11, 109236, Note_off_c, 9, 69, 64
11, 109248, Note_on_c, 9, 70, 99
11, 109252, Note_off_c, 9, 70, 64
11, 109252, Note_on_c, 9, 46, 63
11, 109256, Note_off_c, 9, 46, 64
11, 109328, Note_on_c, 9, 69, 102
11, 109332, Note_off_c, 9, 69, 64
11, 109344, Note_on_c, 9, 60, 54
11, 109348, Note_off_c, 9, 60, 64
11, 109440, Note_on_c, 9, 35, 114
11, 109444, Note_off_c, 9, 35, 64
11, 109444, Note_on_c, 9, 40, 110
11, 109444, Note_on_c, 9, 44, 60
11, 109448, Note_off_c, 9, 44, 64
11, 109448, Note_off_c, 9, 40, 64
11, 109448, Note_on_c, 9, 39, 95
11, 109452, Note_off_c, 9, 39, 64
11, 109536, Note_on_c, 9, 60, 43
11, 109540, Note_off_c, 9, 60, 64
11, 109632, Note_on_c, 9, 70, 81
11, 109632, Note_on_c, 9, 63, 49
11, 109636, Note_off_c, 9, 63, 64
11, 109636, Note_off_c, 9, 70, 64
11, 109728, Note_on_c, 9, 70, 99
11, 109732, Note_off_c, 9, 70, 64
11, 109824, Note_on_c, 9, 35, 110
11, 109824, Note_on_c, 9, 60, 54
11, 109828, Note_off_c, 9, 60, 64
11, 109828, Note_off_c, 9, 35, 64
11, 110016, Note_on_c, 9, 70, 94
11, 110020, Note_off_c, 9, 70, 64
11, 110020, Note_on_c, 9, 46, 67
11, 110024, Note_off_c, 9, 46, 64
11, 110112, Note_on_c, 9, 60, 43
11, 110116, Note_off_c, 9, 60, 64
11, 110208, Note_on_c, 9, 35, 114
11, 110212, Note_off_c, 9, 35, 64
11, 110212, Note_on_c, 9, 40, 110
11, 110212, Note_on_c, 9, 44, 67
11, 110216, Note_off_c, 9, 44, 64
11, 110216, Note_off_c, 9, 40, 64
11, 110216, Note_on_c, 9, 39, 95
11, 110220, Note_off_c, 9, 39, 64
11, 110304, Note_on_c, 9, 60, 49
11, 110308, Note_off_c, 9, 60, 64
11, 110400, Note_on_c, 9, 70, 94
11, 110400, Note_on_c, 9, 63, 54
11, 110404, Note_off_c, 9, 63, 64
11, 110404, Note_off_c, 9, 70, 64
11, 110404, Note_on_c, 9, 46, 63
11, 110408, Note_off_c, 9, 46, 64
11, 110592, Note_on_c, 9, 35, 110
11, 110592, Note_on_c, 9, 60, 54
11, 110596, Note_off_c, 9, 60, 64
11, 110596, Note_off_c, 9, 35, 64
11, 110596, Note_on_c, 9, 44, 63
11, 110600, Note_off_c, 9, 44, 64
11, 110784, Note_on_c, 9, 70, 94
11, 110788, Note_off_c, 9, 70, 64
11, 110788, Note_on_c, 9, 46, 60
11, 110792, Note_off_c, 9, 46, 64
11, 110880, Note_on_c, 9, 60, 33
11, 110884, Note_off_c, 9, 60, 64
11, 110976, Note_on_c, 9, 35, 110
11, 110980, Note_off_c, 9, 35, 64
11, 110980, Note_on_c, 9, 40, 110
11, 110980, Note_on_c, 9, 44, 63
11, 110984, Note_off_c, 9, 44, 64
11, 110984, Note_off_c, 9, 40, 64
11, 110984, Note_on_c, 9, 39, 95
11, 110988, Note_off_c, 9, 39, 64
11, 111072, Note_on_c, 9, 60, 36
11, 111076, Note_off_c, 9, 60, 64
11, 111168, Note_on_c, 9, 70, 78
11, 111168, Note_on_c, 9, 63, 49
11, 111172, Note_off_c, 9, 63, 64
11, 111172, Note_off_c, 9, 70, 64
11, 111172, Note_on_c, 9, 46, 54
11, 111176, Note_off_c, 9, 46, 64
11, 111264, Note_on_c, 9, 70, 94
11, 111268, Note_off_c, 9, 70, 64
11, 111360, Note_on_c, 9, 35, 110
11, 111360, Note_on_c, 9, 60, 54
11, 111364, Note_off_c, 9, 60, 64
11, 111364, Note_off_c, 9, 35, 64
11, 111364, Note_on_c, 9, 44, 63
11, 111368, Note_off_c, 9, 44, 64
11, 111552, Note_on_c, 9, 70, 94
11, 111556, Note_off_c, 9, 70, 64
11, 111556, Note_on_c, 9, 46, 54
11, 111560, Note_off_c, 9, 46, 64
11, 111648, Note_on_c, 9, 60, 43
11, 111652, Note_off_c, 9, 60, 64
11, 111744, Note_on_c, 9, 35, 114
11, 111748, Note_off_c, 9, 35, 64
11, 111748, Note_on_c, 9, 40, 110
11, 111748, Note_on_c, 9, 44, 63
11, 111752, Note_off_c, 9, 44, 64
11, 111752, Note_off_c, 9, 40, 64
11, 111752, Note_on_c, 9, 39, 95
11, 111756, Note_off_c, 9, 39, 64
11, 111840, Note_on_c, 9, 60, 40
11, 111844, Note_off_c, 9, 60, 64
11, 111936, Note_on_c, 9, 70, 78
11, 111936, Note_on_c, 9, 63, 49
11, 111940, Note_off_c, 9, 63, 64
11, 111940, Note_off_c, 9, 70, 64
11, 111940, Note_on_c, 9, 46, 60
11, 111944, Note_off_c, 9, 46, 64
11, 112032, Note_on_c, 9, 70, 99
11, 112036, Note_off_c, 9, 70, 64
11, 112128, Note_on_c, 9, 35, 114
11, 112128, Note_on_c, 9, 69, 74
11, 112128, Note_on_c, 9, 60, 54
11, 112132, Note_off_c, 9, 60, 64
11, 112132, Note_off_c, 9, 69, 64
11, 112132, Note_off_c, 9, 35, 64
11, 112132, Note_on_c, 9, 44, 63
11, 112136, Note_off_c, 9, 44, 64
11, 112220, Note_on_c, 9, 69, 28
11, 112224, Note_off_c, 9, 69, 64
11, 112304, Note_on_c, 9, 69, 102
11, 112308, Note_off_c, 9, 69, 64
11, 112320, Note_on_c, 9, 70, 94
11, 112324, Note_off_c, 9, 70, 64
11, 112324, Note_on_c, 9, 46, 67
11, 112328, Note_off_c, 9, 46, 64
11, 112400, Note_on_c, 9, 69, 102
11, 112404, Note_off_c, 9, 69, 64
11, 112416, Note_on_c, 9, 60, 43
11, 112420, Note_off_c, 9, 60, 64
11, 112512, Note_on_c, 9, 35, 114
11, 112516, Note_off_c, 9, 35, 64
11, 112516, Note_on_c, 9, 40, 114
11, 112516, Note_on_c, 9, 44, 76
11, 112520, Note_off_c, 9, 44, 64
11, 112520, Note_off_c, 9, 40, 64
11, 112520, Note_on_c, 9, 39, 99
11, 112524, Note_off_c, 9, 39, 64
11, 112608, Note_on_c, 9, 60, 40
11, 112612, Note_off_c, 9, 60, 64
11, 112704, Note_on_c, 9, 70, 72
11, 112704, Note_on_c, 9, 63, 40
11, 112708, Note_off_c, 9, 63, 64
11, 112708, Note_off_c, 9, 70, 64
11, 112800, Note_on_c, 9, 70, 85
11, 112804, Note_off_c, 9, 70, 64
11, 112896, Note_on_c, 9, 35, 110
11, 112896, Note_on_c, 9, 60, 54
11, 112900, Note_off_c, 9, 60, 64
11, 112900, Note_off_c, 9, 35, 64
11, 113088, Note_on_c, 9, 70, 94
11, 113092, Note_off_c, 9, 70, 64
11, 113092, Note_on_c, 9, 46, 63
11, 113096, Note_off_c, 9, 46, 64
11, 113184, Note_on_c, 9, 60, 40
11, 113188, Note_off_c, 9, 60, 64
11, 113280, Note_on_c, 9, 35, 114
11, 113284, Note_off_c, 9, 35, 64
11, 113284, Note_on_c, 9, 40, 114
11, 113284, Note_on_c, 9, 44, 63
11, 113288, Note_off_c, 9, 44, 64
11, 113288, Note_off_c, 9, 40, 64
11, 113288, Note_on_c, 9, 39, 99
11, 113292, Note_off_c, 9, 39, 64
11, 113376, Note_on_c, 9, 60, 43
11, 113380, Note_off_c, 9, 60, 64
11, 113472, Note_on_c, 9, 70, 94
11, 113472, Note_on_c, 9, 63, 54
11, 113476, Note_off_c, 9, 63, 64
11, 113476, Note_off_c, 9, 70, 64
11, 113476, Note_on_c, 9, 46, 63
11, 113480, Note_off_c, 9, 46, 64
11, 113664, Note_on_c, 9, 35, 114
11, 113664, Note_on_c, 9, 60, 49
11, 113668, Note_off_c, 9, 60, 64
11, 113668, Note_off_c, 9, 35, 64
11, 113668, Note_on_c, 9, 44, 67
11, 113672, Note_off_c, 9, 44, 64
11, 113856, Note_on_c, 9, 70, 99
11, 113860, Note_off_c, 9, 70, 64
11, 113860, Note_on_c, 9, 46, 63
11, 113864, Note_off_c, 9, 46, 64
11, 113952, Note_on_c, 9, 60, 40
11, 113956, Note_off_c, 9, 60, 64
11, 114048, Note_on_c, 9, 35, 110
11, 114052, Note_off_c, 9, 35, 64
11, 114052, Note_on_c, 9, 40, 114
11, 114052, Note_on_c, 9, 44, 63
11, 114056, Note_off_c, 9, 44, 64
11, 114056, Note_off_c, 9, 40, 64
11, 114056, Note_on_c, 9, 39, 99
11, 114060, Note_off_c, 9, 39, 64
11, 114144, Note_on_c, 9, 60, 43
11, 114148, Note_off_c, 9, 60, 64
11, 114240, Note_on_c, 9, 70, 78
11, 114240, Note_on_c, 9, 63, 40
11, 114244, Note_off_c, 9, 63, 64
11, 114244, Note_off_c, 9, 70, 64
11, 114244, Note_on_c, 9, 46, 63
11, 114248, Note_off_c, 9, 46, 64
11, 114336, Note_on_c, 9, 70, 85
11, 114340, Note_off_c, 9, 70, 64
11, 114432, Note_on_c, 9, 35, 114
11, 114432, Note_on_c, 9, 60, 49
11, 114436, Note_off_c, 9, 60, 64
11, 114436, Note_off_c, 9, 35, 64
11, 114436, Note_on_c, 9, 44, 63
11, 114440, Note_off_c, 9, 44, 64
11, 114624, Note_on_c, 9, 70, 99
11, 114628, Note_off_c, 9, 70, 64
11, 114628, Note_on_c, 9, 46, 63
11, 114632, Note_off_c, 9, 46, 64
11, 114720, Note_on_c, 9, 60, 40
11, 114724, Note_off_c, 9, 60, 64
11, 114816, Note_on_c, 9, 35, 114
11, 114820, Note_off_c, 9, 35, 64
11, 114820, Note_on_c, 9, 40, 114
11, 114820, Note_on_c, 9, 44, 67
11, 114824, Note_off_c, 9, 44, 64
11, 114824, Note_off_c, 9, 40, 64
11, 114824, Note_on_c, 9, 39, 99
11, 114828, Note_off_c, 9, 39, 64
11, 114912, Note_on_c, 9, 60, 40
11, 114916, Note_off_c, 9, 60, 64
11, 115008, Note_on_c, 9, 70, 81
11, 115008, Note_on_c, 9, 63, 49
11, 115012, Note_off_c, 9, 63, 64
11, 115012, Note_off_c, 9, 70, 64
11, 115012, Note_on_c, 9, 46, 67
11, 115016, Note_off_c, 9, 46, 64
11, 115104, Note_on_c, 9, 70, 99
11, 115108, Note_off_c, 9, 70, 64
11, 115200, Note_on_c, 9, 35, 110
11, 115200, Note_on_c, 9, 69, 74
11, 115200, Note_on_c, 9, 60, 54
11, 115204, Note_off_c, 9, 60, 64
11, 115204, Note_off_c, 9, 69, 64
11, 115204, Note_off_c, 9, 35, 64
11, 115204, Note_on_c, 9, 44, 76
11, 115208, Note_off_c, 9, 44, 64
11, 115292, Note_on_c, 9, 69, 28
11, 115296, Note_off_c, 9, 69, 64
11, 115376, Note_on_c, 9, 69, 102
11, 115380, Note_off_c, 9, 69, 64
11, 115392, Note_on_c, 9, 70, 99
11, 115396, Note_off_c, 9, 70, 64
11, 115396, Note_on_c, 9, 46, 63
11, 115400, Note_off_c, 9, 46, 64
11, 115472, Note_on_c, 9, 69, 102
11, 115476, Note_off_c, 9, 69, 64
11, 115488, Note_on_c, 9, 60, 54
11, 115492, Note_off_c, 9, 60, 64
11, 115584, Note_on_c, 9, 35, 114
11, 115588, Note_off_c, 9, 35, 64
11, 115588, Note_on_c, 9, 40, 110
11, 115588, Note_on_c, 9, 44, 60
11, 115592, Note_off_c, 9, 44, 64
11, 115592, Note_off_c, 9, 40, 64
11, 115592, Note_on_c, 9, 39, 95
11, 115596, Note_off_c, 9, 39, 64
11, 115680, Note_on_c, 9, 60, 43
11, 115684, Note_off_c, 9, 60, 64
11, 115776, Note_on_c, 9, 70, 81
11, 115776, Note_on_c, 9, 63, 49
11, 115780, Note_off_c, 9, 63, 64
11, 115780, Note_off_c, 9, 70, 64
11, 115872, Note_on_c, 9, 70, 99
11, 115876, Note_off_c, 9, 70, 64
11, 115968, Note_on_c, 9, 35, 110
11, 115968, Note_on_c, 9, 60, 54
11, 115972, Note_off_c, 9, 60, 64
11, 115972, Note_off_c, 9, 35, 64
11, 116160, Note_on_c, 9, 70, 94
11, 116164, Note_off_c, 9, 70, 64
11, 116164, Note_on_c, 9, 46, 67
11, 116168, Note_off_c, 9, 46, 64
11, 116256, Note_on_c, 9, 60, 43
11, 116260, Note_off_c, 9, 60, 64
11, 116352, Note_on_c, 9, 35, 114
11, 116356, Note_off_c, 9, 35, 64
11, 116356, Note_on_c, 9, 40, 110
11, 116356, Note_on_c, 9, 44, 67
11, 116360, Note_off_c, 9, 44, 64
11, 116360, Note_off_c, 9, 40, 64
11, 116360, Note_on_c, 9, 39, 95
11, 116364, Note_off_c, 9, 39, 64
11, 116448, Note_on_c, 9, 60, 49
11, 116452, Note_off_c, 9, 60, 64
11, 116544, Note_on_c, 9, 70, 94
11, 116544, Note_on_c, 9, 63, 54
11, 116548, Note_off_c, 9, 63, 64
11, 116548, Note_off_c, 9, 70, 64
11, 116548, Note_on_c, 9, 46, 63
11, 116552, Note_off_c, 9, 46, 64
11, 116736, Note_on_c, 9, 35, 110
11, 116736, Note_on_c, 9, 60, 54
11, 116740, Note_off_c, 9, 60, 64
11, 116740, Note_off_c, 9, 35, 64
11, 116740, Note_on_c, 9, 44, 63
11, 116744, Note_off_c, 9, 44, 64
11, 116928, Note_on_c, 9, 70, 94
11, 116932, Note_off_c, 9, 70, 64
11, 116932, Note_on_c, 9, 46, 60
11, 116936, Note_off_c, 9, 46, 64
11, 117024, Note_on_c, 9, 60, 33
11, 117028, Note_off_c, 9, 60, 64
11, 117120, Note_on_c, 9, 35, 110
11, 117124, Note_off_c, 9, 35, 64
11, 117124, Note_on_c, 9, 40, 110
11, 117124, Note_on_c, 9, 44, 63
11, 117128, Note_off_c, 9, 44, 64
11, 117128, Note_off_c, 9, 40, 64
11, 117128, Note_on_c, 9, 39, 95
11, 117132, Note_off_c, 9, 39, 64
11, 117216, Note_on_c, 9, 60, 36
11, 117220, Note_off_c, 9, 60, 64
11, 117312, Note_on_c, 9, 70, 78
11, 117312, Note_on_c, 9, 63, 49
11, 117316, Note_off_c, 9, 63, 64
11, 117316, Note_off_c, 9, 70, 64
11, 117316, Note_on_c, 9, 46, 54
11, 117320, Note_off_c, 9, 46, 64
11, 117408, Note_on_c, 9, 70, 94
11, 117412, Note_off_c, 9, 70, 64
11, 117504, Note_on_c, 9, 35, 110
11, 117504, Note_on_c, 9, 60, 54
11, 117508, Note_off_c, 9, 60, 64
11, 117508, Note_off_c, 9, 35, 64
11, 117508, Note_on_c, 9, 44, 63
11, 117512, Note_off_c, 9, 44, 64
11, 117696, Note_on_c, 9, 70, 94
11, 117700, Note_off_c, 9, 70, 64
11, 117700, Note_on_c, 9, 46, 54
11, 117704, Note_off_c, 9, 46, 64
11, 117792, Note_on_c, 9, 60, 43
11, 117796, Note_off_c, 9, 60, 64
11, 117888, Note_on_c, 9, 35, 114
11, 117892, Note_off_c, 9, 35, 64
11, 117892, Note_on_c, 9, 40, 110
11, 117892, Note_on_c, 9, 44, 63
11, 117896, Note_off_c, 9, 44, 64
11, 117896, Note_off_c, 9, 40, 64
11, 117896, Note_on_c, 9, 39, 95
11, 117900, Note_off_c, 9, 39, 64
11, 117984, Note_on_c, 9, 60, 40
11, 117988, Note_off_c, 9, 60, 64
11, 118080, Note_on_c, 9, 70, 78
11, 118080, Note_on_c, 9, 63, 49
11, 118084, Note_off_c, 9, 63, 64
11, 118084, Note_off_c, 9, 70, 64
11, 118084, Note_on_c, 9, 46, 60
11, 118088, Note_off_c, 9, 46, 64
11, 118176, Note_on_c, 9, 70, 99
11, 118180, Note_off_c, 9, 70, 64
11, 118272, Note_on_c, 9, 35, 114
11, 118272, Note_on_c, 9, 69, 74
11, 118272, Note_on_c, 9, 60, 54
11, 118276, Note_off_c, 9, 60, 64
11, 118276, Note_off_c, 9, 69, 64
11, 118276, Note_off_c, 9, 35, 64
11, 118276, Note_on_c, 9, 44, 63
11, 118280, Note_off_c, 9, 44, 64
11, 118364, Note_on_c, 9, 69, 28
11, 118368, Note_off_c, 9, 69, 64
11, 118448, Note_on_c, 9, 69, 102
11, 118452, Note_off_c, 9, 69, 64
11, 118464, Note_on_c, 9, 70, 94
11, 118468, Note_off_c, 9, 70, 64
11, 118468, Note_on_c, 9, 46, 67
11, 118472, Note_off_c, 9, 46, 64
11, 118544, Note_on_c, 9, 69, 102
11, 118548, Note_off_c, 9, 69, 64
11, 118560, Note_on_c, 9, 60, 43
11, 118564, Note_off_c, 9, 60, 64
11, 118656, Note_on_c, 9, 35, 114
11, 118660, Note_off_c, 9, 35, 64
11, 118660, Note_on_c, 9, 40, 114
11, 118660, Note_on_c, 9, 44, 76
11, 118664, Note_off_c, 9, 44, 64
11, 118664, Note_off_c, 9, 40, 64
11, 118664, Note_on_c, 9, 39, 99
11, 118668, Note_off_c, 9, 39, 64
11, 118752, Note_on_c, 9, 60, 40
11, 118756, Note_off_c, 9, 60, 64
11, 118848, Note_on_c, 9, 70, 72
11, 118848, Note_on_c, 9, 63, 40
11, 118852, Note_off_c, 9, 63, 64
11, 118852, Note_off_c, 9, 70, 64
11, 118944, Note_on_c, 9, 70, 85
11, 118948, Note_off_c, 9, 70, 64
11, 119040, Note_on_c, 9, 35, 110
11, 119040, Note_on_c, 9, 60, 54
11, 119044, Note_off_c, 9, 60, 64
11, 119044, Note_off_c, 9, 35, 64
11, 119232, Note_on_c, 9, 70, 94
11, 119236, Note_off_c, 9, 70, 64
11, 119236, Note_on_c, 9, 46, 63
11, 119240, Note_off_c, 9, 46, 64
11, 119328, Note_on_c, 9, 60, 40
11, 119332, Note_off_c, 9, 60, 64
11, 119424, Note_on_c, 9, 35, 114
11, 119428, Note_off_c, 9, 35, 64
11, 119428, Note_on_c, 9, 40, 114
11, 119428, Note_on_c, 9, 44, 63
11, 119432, Note_off_c, 9, 44, 64
11, 119432, Note_off_c, 9, 40, 64
11, 119432, Note_on_c, 9, 39, 99
11, 119436, Note_off_c, 9, 39, 64
11, 119520, Note_on_c, 9, 60, 43
11, 119524, Note_off_c, 9, 60, 64
11, 119616, Note_on_c, 9, 70, 94
11, 119616, Note_on_c, 9, 63, 54
11, 119620, Note_off_c, 9, 63, 64
11, 119620, Note_off_c, 9, 70, 64
11, 119620, Note_on_c, 9, 46, 63
11, 119624, Note_off_c, 9, 46, 64
11, 119808, Note_on_c, 9, 35, 114
11, 119808, Note_on_c, 9, 60, 49
11, 119812, Note_off_c, 9, 60, 64
11, 119812, Note_off_c, 9, 35, 64
11, 119812, Note_on_c, 9, 44, 67
11, 119816, Note_off_c, 9, 44, 64
11, 120000, Note_on_c, 9, 70, 99
11, 120004, Note_off_c, 9, 70, 64
11, 120004, Note_on_c, 9, 46, 63
11, 120008, Note_off_c, 9, 46, 64
11, 120096, Note_on_c, 9, 60, 40
11, 120100, Note_off_c, 9, 60, 64
11, 120192, Note_on_c, 9, 35, 110
11, 120196, Note_off_c, 9, 35, 64
11, 120196, Note_on_c, 9, 40, 114
11, 120196, Note_on_c, 9, 44, 63
11, 120200, Note_off_c, 9, 44, 64
11, 120200, Note_off_c, 9, 40, 64
11, 120200, Note_on_c, 9, 39, 99
11, 120204, Note_off_c, 9, 39, 64
11, 120288, Note_on_c, 9, 60, 43
11, 120292, Note_off_c, 9, 60, 64
11, 120384, Note_on_c, 9, 70, 78
11, 120384, Note_on_c, 9, 63, 40
11, 120388, Note_off_c, 9, 63, 64
11, 120388, Note_off_c, 9, 70, 64
11, 120388, Note_on_c, 9, 46, 63
11, 120392, Note_off_c, 9, 46, 64
11, 120480, Note_on_c, 9, 70, 85
11, 120484, Note_off_c, 9, 70, 64
11, 120576, Note_on_c, 9, 35, 114
11, 120576, Note_on_c, 9, 60, 49
11, 120580, Note_off_c, 9, 60, 64
11, 120580, Note_off_c, 9, 35, 64
11, 120580, Note_on_c, 9, 44, 63
11, 120584, Note_off_c, 9, 44, 64
11, 120676, Note_on_c, 9, 40, 110
11, 120680, Note_off_c, 9, 40, 64
11, 120680, Note_on_c, 9, 39, 95
11, 120684, Note_off_c, 9, 39, 64
11, 120768, Note_on_c, 9, 70, 99
11, 120772, Note_off_c, 9, 70, 64
11, 120772, Note_on_c, 9, 46, 63
11, 120776, Note_off_c, 9, 46, 64
11, 120864, Note_on_c, 9, 60, 40
11, 120868, Note_off_c, 9, 60, 64
11, 120960, Note_on_c, 9, 35, 114
11, 120964, Note_off_c, 9, 35, 64
11, 120964, Note_on_c, 9, 40, 114
11, 120964, Note_on_c, 9, 44, 67
11, 120968, Note_off_c, 9, 44, 64
11, 120968, Note_off_c, 9, 40, 64
11, 120968, Note_on_c, 9, 39, 99
11, 120972, Note_off_c, 9, 39, 64
11, 121056, Note_on_c, 9, 60, 40
11, 121060, Note_off_c, 9, 60, 64
11, 121152, Note_on_c, 9, 70, 81
11, 121152, Note_on_c, 9, 63, 49
11, 121156, Note_off_c, 9, 63, 64
11, 121156, Note_off_c, 9, 70, 64
11, 121156, Note_on_c, 9, 46, 67
11, 121160, Note_off_c, 9, 46, 64
11, 121248, Note_on_c, 9, 70, 99
11, 121252, Note_off_c, 9, 70, 64
11, 121252, Note_on_c, 9, 40, 110
11, 121256, Note_off_c, 9, 40, 64
11, 121256, Note_on_c, 9, 39, 95
11, 121260, Note_off_c, 9, 39, 64
11, 121344, Note_on_c, 9, 35, 110
11, 121344, Note_on_c, 9, 69, 74
11, 121344, Note_on_c, 9, 60, 54
11, 121348, Note_off_c, 9, 60, 64
11, 121348, Note_off_c, 9, 69, 64
11, 121348, Note_off_c, 9, 35, 64
11, 121348, Note_on_c, 9, 44, 76
11, 121352, Note_off_c, 9, 44, 64
11, 121436, Note_on_c, 9, 69, 28
11, 121440, Note_off_c, 9, 69, 64
11, 121520, Note_on_c, 9, 69, 102
11, 121524, Note_off_c, 9, 69, 64
11, 121536, Note_on_c, 9, 70, 99
11, 121540, Note_off_c, 9, 70, 64
11, 121540, Note_on_c, 9, 46, 63
11, 121544, Note_off_c, 9, 46, 64
11, 121616, Note_on_c, 9, 69, 102
11, 121620, Note_off_c, 9, 69, 64
11, 121632, Note_on_c, 9, 60, 54
11, 121636, Note_off_c, 9, 60, 64
11, 121728, Note_on_c, 9, 35, 114
11, 121732, Note_off_c, 9, 35, 64
11, 121732, Note_on_c, 9, 40, 110
11, 121732, Note_on_c, 9, 44, 60
11, 121736, Note_off_c, 9, 44, 64
11, 121736, Note_off_c, 9, 40, 64
11, 121736, Note_on_c, 9, 39, 95
11, 121740, Note_off_c, 9, 39, 64
11, 121824, Note_on_c, 9, 60, 43
11, 121828, Note_off_c, 9, 60, 64
11, 121920, Note_on_c, 9, 70, 81
11, 121920, Note_on_c, 9, 63, 49
11, 121924, Note_off_c, 9, 63, 64
11, 121924, Note_off_c, 9, 70, 64
11, 122016, Note_on_c, 9, 70, 99
11, 122020, Note_off_c, 9, 70, 64
11, 122112, Note_on_c, 9, 35, 110
11, 122112, Note_on_c, 9, 60, 54
11, 122116, Note_off_c, 9, 60, 64
11, 122116, Note_off_c, 9, 35, 64
11, 122304, Note_on_c, 9, 70, 94
11, 122308, Note_off_c, 9, 70, 64
11, 122308, Note_on_c, 9, 46, 67
11, 122312, Note_off_c, 9, 46, 64
11, 122400, Note_on_c, 9, 60, 43
11, 122404, Note_off_c, 9, 60, 64
11, 122496, Note_on_c, 9, 35, 114
11, 122500, Note_off_c, 9, 35, 64
11, 122500, Note_on_c, 9, 40, 110
11, 122500, Note_on_c, 9, 44, 67
11, 122504, Note_off_c, 9, 44, 64
11, 122504, Note_off_c, 9, 40, 64
11, 122504, Note_on_c, 9, 39, 95
11, 122508, Note_off_c, 9, 39, 64
11, 122592, Note_on_c, 9, 60, 49
11, 122596, Note_off_c, 9, 60, 64
11, 122688, Note_on_c, 9, 70, 94
11, 122688, Note_on_c, 9, 63, 54
11, 122692, Note_off_c, 9, 63, 64
11, 122692, Note_off_c, 9, 70, 64
11, 122692, Note_on_c, 9, 46, 63
11, 122696, Note_off_c, 9, 46, 64
11, 122880, Note_on_c, 9, 35, 110
11, 122880, Note_on_c, 9, 60, 54
11, 122884, Note_off_c, 9, 60, 64
11, 122884, Note_off_c, 9, 35, 64
11, 122884, Note_on_c, 9, 44, 63
11, 122888, Note_off_c, 9, 44, 64
11, 123072, Note_on_c, 9, 70, 94
11, 123076, Note_off_c, 9, 70, 64
11, 123076, Note_on_c, 9, 46, 60
11, 123080, Note_off_c, 9, 46, 64
11, 123168, Note_on_c, 9, 60, 33
11, 123172, Note_off_c, 9, 60, 64
11, 123264, Note_on_c, 9, 35, 110
11, 123268, Note_off_c, 9, 35, 64
11, 123268, Note_on_c, 9, 40, 110
11, 123268, Note_on_c, 9, 44, 63
11, 123272, Note_off_c, 9, 44, 64
11, 123272, Note_off_c, 9, 40, 64
11, 123272, Note_on_c, 9, 39, 95
11, 123276, Note_off_c, 9, 39, 64
11, 123360, Note_on_c, 9, 60, 36
11, 123364, Note_off_c, 9, 60, 64
11, 123456, Note_on_c, 9, 70, 78
11, 123456, Note_on_c, 9, 63, 49
11, 123460, Note_off_c, 9, 63, 64
11, 123460, Note_off_c, 9, 70, 64
11, 123460, Note_on_c, 9, 46, 54
11, 123464, Note_off_c, 9, 46, 64
11, 123552, Note_on_c, 9, 70, 94
11, 123556, Note_off_c, 9, 70, 64
11, 123648, Note_on_c, 9, 35, 110
11, 123648, Note_on_c, 9, 60, 54
11, 123652, Note_off_c, 9, 60, 64
11, 123652, Note_off_c, 9, 35, 64
11, 123652, Note_on_c, 9, 44, 63
11, 123656, Note_off_c, 9, 44, 64
11, 123840, Note_on_c, 9, 70, 94
11, 123844, Note_off_c, 9, 70, 64
11, 123844, Note_on_c, 9, 46, 54
11, 123848, Note_off_c, 9, 46, 64
11, 123936, Note_on_c, 9, 60, 43
11, 123940, Note_off_c, 9, 60, 64
11, 124032, Note_on_c, 9, 35, 114
11, 124036, Note_off_c, 9, 35, 64
11, 124036, Note_on_c, 9, 40, 110
11, 124036, Note_on_c, 9, 44, 63
11, 124040, Note_off_c, 9, 44, 64
11, 124040, Note_off_c, 9, 40, 64
11, 124040, Note_on_c, 9, 39, 95
11, 124044, Note_off_c, 9, 39, 64
11, 124128, Note_on_c, 9, 60, 40
11, 124132, Note_off_c, 9, 60, 64
11, 124224, Note_on_c, 9, 70, 78
11, 124224, Note_on_c, 9, 63, 49
11, 124228, Note_off_c, 9, 63, 64
11, 124228, Note_off_c, 9, 70, 64
11, 124228, Note_on_c, 9, 46, 60
11, 124232, Note_off_c, 9, 46, 64
11, 124320, Note_on_c, 9, 70, 99
11, 124324, Note_off_c, 9, 70, 64
11, 124416, Note_on_c, 9, 35, 114
11, 124416, Note_on_c, 9, 69, 74
11, 124416, Note_on_c, 9, 60, 54
11, 124420, Note_off_c, 9, 60, 64
11, 124420, Note_off_c, 9, 69, 64
11, 124420, Note_off_c, 9, 35, 64
11, 124420, Note_on_c, 9, 44, 63
11, 124424, Note_off_c, 9, 44, 64
11, 124508, Note_on_c, 9, 69, 28
11, 124512, Note_off_c, 9, 69, 64
11, 124592, Note_on_c, 9, 69, 102
11, 124596, Note_off_c, 9, 69, 64
11, 124608, Note_on_c, 9, 70, 94
11, 124612, Note_off_c, 9, 70, 64
11, 124612, Note_on_c, 9, 46, 67
11, 124616, Note_off_c, 9, 46, 64
11, 124688, Note_on_c, 9, 69, 102
11, 124692, Note_off_c, 9, 69, 64
11, 124704, Note_on_c, 9, 60, 43
11, 124708, Note_off_c, 9, 60, 64
11, 124800, Note_on_c, 9, 35, 114
11, 124804, Note_off_c, 9, 35, 64
11, 124804, Note_on_c, 9, 40, 114
11, 124804, Note_on_c, 9, 44, 76
11, 124808, Note_off_c, 9, 44, 64
11, 124808, Note_off_c, 9, 40, 64
11, 124808, Note_on_c, 9, 39, 99
11, 124812, Note_off_c, 9, 39, 64
11, 124896, Note_on_c, 9, 60, 40
11, 124900, Note_off_c, 9, 60, 64
11, 124992, Note_on_c, 9, 70, 72
11, 124992, Note_on_c, 9, 63, 40
11, 124996, Note_off_c, 9, 63, 64
11, 124996, Note_off_c, 9, 70, 64
11, 125088, Note_on_c, 9, 70, 85
11, 125092, Note_off_c, 9, 70, 64
11, 125184, Note_on_c, 9, 35, 110
11, 125184, Note_on_c, 9, 60, 54
11, 125188, Note_off_c, 9, 60, 64
11, 125188, Note_off_c, 9, 35, 64
11, 125376, Note_on_c, 9, 70, 94
11, 125380, Note_off_c, 9, 70, 64
11, 125380, Note_on_c, 9, 46, 63
11, 125384, Note_off_c, 9, 46, 64
11, 125472, Note_on_c, 9, 60, 40
11, 125476, Note_off_c, 9, 60, 64
11, 125568, Note_on_c, 9, 35, 114
11, 125572, Note_off_c, 9, 35, 64
11, 125572, Note_on_c, 9, 40, 114
11, 125572, Note_on_c, 9, 44, 63
11, 125576, Note_off_c, 9, 44, 64
11, 125576, Note_off_c, 9, 40, 64
11, 125576, Note_on_c, 9, 39, 99
11, 125580, Note_off_c, 9, 39, 64
11, 125664, Note_on_c, 9, 60, 43
11, 125668, Note_off_c, 9, 60, 64
11, 125760, Note_on_c, 9, 70, 94
11, 125760, Note_on_c, 9, 63, 54
11, 125764, Note_off_c, 9, 63, 64
11, 125764, Note_off_c, 9, 70, 64
11, 125764, Note_on_c, 9, 46, 63
11, 125768, Note_off_c, 9, 46, 64
11, 125952, Note_on_c, 9, 35, 114
11, 125952, Note_on_c, 9, 60, 49
11, 125956, Note_off_c, 9, 60, 64
11, 125956, Note_off_c, 9, 35, 64
11, 125956, Note_on_c, 9, 44, 67
11, 125960, Note_off_c, 9, 44, 64
11, 126144, Note_on_c, 9, 70, 99
11, 126148, Note_off_c, 9, 70, 64
11, 126148, Note_on_c, 9, 46, 63
11, 126152, Note_off_c, 9, 46, 64
11, 126240, Note_on_c, 9, 60, 40
11, 126244, Note_off_c, 9, 60, 64
11, 126336, Note_on_c, 9, 35, 110
11, 126340, Note_off_c, 9, 35, 64
11, 126340, Note_on_c, 9, 40, 114
11, 126340, Note_on_c, 9, 44, 63
11, 126344, Note_off_c, 9, 44, 64
11, 126344, Note_off_c, 9, 40, 64
11, 126344, Note_on_c, 9, 39, 99
11, 126348, Note_off_c, 9, 39, 64
11, 126432, Note_on_c, 9, 60, 43
11, 126436, Note_off_c, 9, 60, 64
11, 126528, Note_on_c, 9, 70, 78
11, 126528, Note_on_c, 9, 63, 40
11, 126532, Note_off_c, 9, 63, 64
11, 126532, Note_off_c, 9, 70, 64
11, 126532, Note_on_c, 9, 46, 63
11, 126536, Note_off_c, 9, 46, 64
11, 126624, Note_on_c, 9, 70, 85
11, 126628, Note_off_c, 9, 70, 64
11, 126720, Note_on_c, 9, 35, 114
11, 126720, Note_on_c, 9, 60, 49
11, 126724, Note_off_c, 9, 60, 64
11, 126724, Note_off_c, 9, 35, 64
11, 126724, Note_on_c, 9, 44, 63
11, 126728, Note_off_c, 9, 44, 64
11, 126912, Note_on_c, 9, 70, 99
11, 126916, Note_off_c, 9, 70, 64
11, 126916, Note_on_c, 9, 46, 63
11, 126920, Note_off_c, 9, 46, 64
11, 127008, Note_on_c, 9, 60, 40
11, 127012, Note_off_c, 9, 60, 64
11, 127104, Note_on_c, 9, 35, 114
11, 127108, Note_off_c, 9, 35, 64
11, 127108, Note_on_c, 9, 40, 114
11, 127108, Note_on_c, 9, 44, 67
11, 127112, Note_off_c, 9, 44, 64
11, 127112, Note_off_c, 9, 40, 64
11, 127112, Note_on_c, 9, 39, 99
11, 127116, Note_off_c, 9, 39, 64
11, 127200, Note_on_c, 9, 60, 40
11, 127204, Note_off_c, 9, 60, 64
11, 127296, Note_on_c, 9, 70, 81
11, 127296, Note_on_c, 9, 63, 49
11, 127300, Note_off_c, 9, 63, 64
11, 127300, Note_off_c, 9, 70, 64
11, 127300, Note_on_c, 9, 46, 67
11, 127304, Note_off_c, 9, 46, 64
11, 127392, Note_on_c, 9, 70, 99
11, 127396, Note_off_c, 9, 70, 64
11, 127488, Note_on_c, 9, 35, 110
11, 127488, Note_on_c, 9, 69, 74
11, 127488, Note_on_c, 9, 60, 54
11, 127492, Note_off_c, 9, 60, 64
11, 127492, Note_off_c, 9, 69, 64
11, 127492, Note_off_c, 9, 35, 64
11, 127492, Note_on_c, 9, 44, 76
11, 127496, Note_off_c, 9, 44, 64
11, 127580, Note_on_c, 9, 69, 28
11, 127584, Note_off_c, 9, 69, 64
11, 127664, Note_on_c, 9, 69, 102
11, 127668, Note_off_c, 9, 69, 64
11, 127680, Note_on_c, 9, 70, 99
11, 127684, Note_off_c, 9, 70, 64
11, 127684, Note_on_c, 9, 46, 63
11, 127688, Note_off_c, 9, 46, 64
11, 127760, Note_on_c, 9, 69, 102
11, 127764, Note_off_c, 9, 69, 64
11, 127776, Note_on_c, 9, 60, 54
11, 127780, Note_off_c, 9, 60, 64
11, 127872, Note_on_c, 9, 35, 114
11, 127876, Note_off_c, 9, 35, 64
11, 127876, Note_on_c, 9, 40, 110
11, 127876, Note_on_c, 9, 44, 60
11, 127880, Note_off_c, 9, 44, 64
11, 127880, Note_off_c, 9, 40, 64
11, 127880, Note_on_c, 9, 39, 95
11, 127884, Note_off_c, 9, 39, 64
11, 127968, Note_on_c, 9, 60, 43
11, 127972, Note_off_c, 9, 60, 64
11, 128064, Note_on_c, 9, 70, 81
11, 128064, Note_on_c, 9, 63, 49
11, 128068, Note_off_c, 9, 63, 64
11, 128068, Note_off_c, 9, 70, 64
11, 128160, Note_on_c, 9, 70, 99
11, 128164, Note_off_c, 9, 70, 64
11, 128256, Note_on_c, 9, 35, 110
11, 128256, Note_on_c, 9, 60, 54
11, 128260, Note_off_c, 9, 60, 64
11, 128260, Note_off_c, 9, 35, 64
11, 128448, Note_on_c, 9, 70, 94
11, 128452, Note_off_c, 9, 70, 64
11, 128452, Note_on_c, 9, 46, 67
11, 128456, Note_off_c, 9, 46, 64
11, 128544, Note_on_c, 9, 60, 43
11, 128548, Note_off_c, 9, 60, 64
11, 128640, Note_on_c, 9, 35, 114
11, 128644, Note_off_c, 9, 35, 64
11, 128644, Note_on_c, 9, 40, 110
11, 128644, Note_on_c, 9, 44, 67
11, 128648, Note_off_c, 9, 44, 64
11, 128648, Note_off_c, 9, 40, 64
11, 128648, Note_on_c, 9, 39, 95
11, 128652, Note_off_c, 9, 39, 64
11, 128736, Note_on_c, 9, 60, 49
11, 128740, Note_off_c, 9, 60, 64
11, 128832, Note_on_c, 9, 70, 94
11, 128832, Note_on_c, 9, 63, 54
11, 128836, Note_off_c, 9, 63, 64
11, 128836, Note_off_c, 9, 70, 64
11, 128836, Note_on_c, 9, 46, 63
11, 128840, Note_off_c, 9, 46, 64
11, 129024, Note_on_c, 9, 35, 110
11, 129024, Note_on_c, 9, 60, 54
11, 129028, Note_off_c, 9, 60, 64
11, 129028, Note_off_c, 9, 35, 64
11, 129028, Note_on_c, 9, 44, 63
11, 129032, Note_off_c, 9, 44, 64
11, 129216, Note_on_c, 9, 70, 94
11, 129220, Note_off_c, 9, 70, 64
11, 129220, Note_on_c, 9, 46, 60
11, 129224, Note_off_c, 9, 46, 64
11, 129312, Note_on_c, 9, 60, 33
11, 129316, Note_off_c, 9, 60, 64
11, 129408, Note_on_c, 9, 35, 110
11, 129412, Note_off_c, 9, 35, 64
11, 129412, Note_on_c, 9, 40, 110
11, 129412, Note_on_c, 9, 44, 63
11, 129416, Note_off_c, 9, 44, 64
11, 129416, Note_off_c, 9, 40, 64
11, 129416, Note_on_c, 9, 39, 95
11, 129420, Note_off_c, 9, 39, 64
11, 129504, Note_on_c, 9, 60, 36
11, 129508, Note_off_c, 9, 60, 64
11, 129600, Note_on_c, 9, 70, 78
11, 129600, Note_on_c, 9, 63, 49
11, 129604, Note_off_c, 9, 63, 64
11, 129604, Note_off_c, 9, 70, 64
11, 129604, Note_on_c, 9, 46, 54
11, 129608, Note_off_c, 9, 46, 64
11, 129696, Note_on_c, 9, 70, 94
11, 129700, Note_off_c, 9, 70, 64
11, 129792, Note_on_c, 9, 35, 110
11, 129792, Note_on_c, 9, 60, 54
11, 129796, Note_off_c, 9, 60, 64
11, 129796, Note_off_c, 9, 35, 64
11, 129796, Note_on_c, 9, 44, 63
11, 129800, Note_off_c, 9, 44, 64
11, 129984, Note_on_c, 9, 70, 94
11, 129988, Note_off_c, 9, 70, 64
11, 129988, Note_on_c, 9, 46, 54
11, 129992, Note_off_c, 9, 46, 64
11, 130080, Note_on_c, 9, 60, 43
11, 130084, Note_off_c, 9, 60, 64
11, 130176, Note_on_c, 9, 35, 114
11, 130180, Note_off_c, 9, 35, 64
11, 130180, Note_on_c, 9, 40, 110
11, 130180, Note_on_c, 9, 44, 63
11, 130184, Note_off_c, 9, 44, 64
11, 130184, Note_off_c, 9, 40, 64
11, 130184, Note_on_c, 9, 39, 95
11, 130188, Note_off_c, 9, 39, 64
11, 130272, Note_on_c, 9, 60, 40
11, 130276, Note_off_c, 9, 60, 64
11, 130368, Note_on_c, 9, 70, 78
11, 130368, Note_on_c, 9, 63, 49
11, 130372, Note_off_c, 9, 63, 64
11, 130372, Note_off_c, 9, 70, 64
11, 130372, Note_on_c, 9, 46, 60
11, 130376, Note_off_c, 9, 46, 64
11, 130464, Note_on_c, 9, 70, 99
11, 130468, Note_off_c, 9, 70, 64
11, 130560, Note_on_c, 9, 35, 114
11, 130560, Note_on_c, 9, 69, 74
11, 130560, Note_on_c, 9, 60, 54
11, 130564, Note_off_c, 9, 60, 64
11, 130564, Note_off_c, 9, 69, 64
11, 130564, Note_off_c, 9, 35, 64
11, 130564, Note_on_c, 9, 44, 63
11, 130568, Note_off_c, 9, 44, 64
11, 130652, Note_on_c, 9, 69, 28
11, 130656, Note_off_c, 9, 69, 64
11, 130736, Note_on_c, 9, 69, 102
11, 130740, Note_off_c, 9, 69, 64
11, 130752, Note_on_c, 9, 70, 94
11, 130756, Note_off_c, 9, 70, 64
11, 130756, Note_on_c, 9, 46, 67
11, 130760, Note_off_c, 9, 46, 64
11, 130832, Note_on_c, 9, 69, 102
11, 130836, Note_off_c, 9, 69, 64
11, 130848, Note_on_c, 9, 60, 43
11, 130852, Note_off_c, 9, 60, 64
11, 130944, Note_on_c, 9, 35, 114
11, 130948, Note_off_c, 9, 35, 64
11, 130948, Note_on_c, 9, 40, 114
11, 130948, Note_on_c, 9, 44, 76
11, 130952, Note_off_c, 9, 44, 64
11, 130952, Note_off_c, 9, 40, 64
11, 130952, Note_on_c, 9, 39, 99
11, 130956, Note_off_c, 9, 39, 64
11, 131040, Note_on_c, 9, 60, 40
11, 131044, Note_off_c, 9, 60, 64
11, 131136, Note_on_c, 9, 70, 72
11, 131136, Note_on_c, 9, 63, 40
11, 131140, Note_off_c, 9, 63, 64
11, 131140, Note_off_c, 9, 70, 64
11, 131232, Note_on_c, 9, 70, 85
11, 131236, Note_off_c, 9, 70, 64
11, 131328, Note_on_c, 9, 35, 110
11, 131328, Note_on_c, 9, 60, 54
11, 131332, Note_off_c, 9, 60, 64
11, 131332, Note_off_c, 9, 35, 64
11, 131520, Note_on_c, 9, 70, 94
11, 131524, Note_off_c, 9, 70, 64
11, 131524, Note_on_c, 9, 46, 63
11, 131528, Note_off_c, 9, 46, 64
11, 131616, Note_on_c, 9, 60, 40
11, 131620, Note_off_c, 9, 60, 64
11, 131712, Note_on_c, 9, 35, 114
11, 131716, Note_off_c, 9, 35, 64
11, 131716, Note_on_c, 9, 40, 114
11, 131716, Note_on_c, 9, 44, 63
11, 131720, Note_off_c, 9, 44, 64
11, 131720, Note_off_c, 9, 40, 64
11, 131720, Note_on_c, 9, 39, 99
11, 131724, Note_off_c, 9, 39, 64
11, 131808, Note_on_c, 9, 60, 43
11, 131812, Note_off_c, 9, 60, 64
11, 131904, Note_on_c, 9, 70, 94
11, 131904, Note_on_c, 9, 63, 54
11, 131908, Note_off_c, 9, 63, 64
11, 131908, Note_off_c, 9, 70, 64
11, 131908, Note_on_c, 9, 46, 63
11, 131912, Note_off_c, 9, 46, 64
11, 132096, Note_on_c, 9, 35, 114
11, 132096, Note_on_c, 9, 60, 49
11, 132100, Note_off_c, 9, 60, 64
11, 132100, Note_off_c, 9, 35, 64
11, 132100, Note_on_c, 9, 44, 67
11, 132104, Note_off_c, 9, 44, 64
11, 132288, Note_on_c, 9, 70, 99
11, 132292, Note_off_c, 9, 70, 64
11, 132292, Note_on_c, 9, 46, 63
11, 132296, Note_off_c, 9, 46, 64
11, 132384, Note_on_c, 9, 60, 40
11, 132388, Note_off_c, 9, 60, 64
11, 132480, Note_on_c, 9, 35, 110
11, 132484, Note_off_c, 9, 35, 64
11, 132484, Note_on_c, 9, 40, 114
11, 132484, Note_on_c, 9, 44, 63
11, 132488, Note_off_c, 9, 44, 64
11, 132488, Note_off_c, 9, 40, 64
11, 132488, Note_on_c, 9, 39, 99
11, 132492, Note_off_c, 9, 39, 64
11, 132576, Note_on_c, 9, 60, 43
11, 132580, Note_off_c, 9, 60, 64
11, 132672, Note_on_c, 9, 70, 78
11, 132672, Note_on_c, 9, 63, 40
11, 132676, Note_off_c, 9, 63, 64
11, 132676, Note_off_c, 9, 70, 64
11, 132676, Note_on_c, 9, 46, 63
11, 132680, Note_off_c, 9, 46, 64
11, 132768, Note_on_c, 9, 70, 85
11, 132772, Note_off_c, 9, 70, 64
11, 132864, Note_on_c, 9, 35, 114
11, 132864, Note_on_c, 9, 60, 49
11, 132868, Note_off_c, 9, 60, 64
11, 132868, Note_off_c, 9, 35, 64
11, 132868, Note_on_c, 9, 44, 63
11, 132872, Note_off_c, 9, 44, 64
11, 133056, Note_on_c, 9, 70, 99
11, 133060, Note_off_c, 9, 70, 64
11, 133060, Note_on_c, 9, 46, 63
11, 133064, Note_off_c, 9, 46, 64
11, 133152, Note_on_c, 9, 60, 40
11, 133156, Note_off_c, 9, 60, 64
11, 133248, Note_on_c, 9, 35, 114
11, 133252, Note_off_c, 9, 35, 64
11, 133252, Note_on_c, 9, 40, 114
11, 133252, Note_on_c, 9, 44, 67
11, 133256, Note_off_c, 9, 44, 64
11, 133256, Note_off_c, 9, 40, 64
11, 133256, Note_on_c, 9, 39, 99
11, 133260, Note_off_c, 9, 39, 64
11, 133344, Note_on_c, 9, 60, 40
11, 133348, Note_off_c, 9, 60, 64
11, 133348, Note_on_c, 9, 40, 110
11, 133352, Note_off_c, 9, 40, 64
11, 133352, Note_on_c, 9, 39, 95
11, 133356, Note_off_c, 9, 39, 64
11, 133440, Note_on_c, 9, 70, 81
11, 133440, Note_on_c, 9, 63, 49
11, 133444, Note_off_c, 9, 63, 64
11, 133444, Note_off_c, 9, 70, 64
11, 133444, Note_on_c, 9, 46, 67
11, 133448, Note_off_c, 9, 46, 64
11, 133536, Note_on_c, 9, 70, 99
11, 133540, Note_off_c, 9, 70, 64
11, 133632, Note_on_c, 9, 35, 110
11, 133632, Note_on_c, 9, 69, 74
11, 133632, Note_on_c, 9, 60, 54
11, 133636, Note_off_c, 9, 60, 64
11, 133636, Note_off_c, 9, 69, 64
11, 133636, Note_off_c, 9, 35, 64
11, 133636, Note_on_c, 9, 44, 76
11, 133640, Note_off_c, 9, 44, 64
11, 133724, Note_on_c, 9, 69, 28
11, 133728, Note_off_c, 9, 69, 64
11, 133808, Note_on_c, 9, 69, 102
11, 133812, Note_off_c, 9, 69, 64
11, 133824, Note_on_c, 9, 70, 99
11, 133828, Note_off_c, 9, 70, 64
11, 133828, Note_on_c, 9, 46, 63
11, 133832, Note_off_c, 9, 46, 64
11, 133904, Note_on_c, 9, 69, 102
11, 133908, Note_off_c, 9, 69, 64
11, 133920, Note_on_c, 9, 60, 54
11, 133924, Note_off_c, 9, 60, 64
11, 134016, Note_on_c, 9, 35, 114
11, 134020, Note_off_c, 9, 35, 64
11, 134020, Note_on_c, 9, 40, 110
11, 134020, Note_on_c, 9, 44, 60
11, 134024, Note_off_c, 9, 44, 64
11, 134024, Note_off_c, 9, 40, 64
11, 134024, Note_on_c, 9, 39, 95
11, 134028, Note_off_c, 9, 39, 64
11, 134112, Note_on_c, 9, 60, 43
11, 134116, Note_off_c, 9, 60, 64
11, 134208, Note_on_c, 9, 70, 81
11, 134208, Note_on_c, 9, 63, 49
11, 134212, Note_off_c, 9, 63, 64
11, 134212, Note_off_c, 9, 70, 64
11, 134304, Note_on_c, 9, 70, 99
11, 134308, Note_off_c, 9, 70, 64
11, 134400, Note_on_c, 9, 35, 110
11, 134400, Note_on_c, 9, 60, 54
11, 134404, Note_off_c, 9, 60, 64
11, 134404, Note_off_c, 9, 35, 64
11, 134592, Note_on_c, 9, 70, 94
11, 134596, Note_off_c, 9, 70, 64
11, 134596, Note_on_c, 9, 46, 67
11, 134600, Note_off_c, 9, 46, 64
11, 134688, Note_on_c, 9, 60, 43
11, 134692, Note_off_c, 9, 60, 64
11, 134784, Note_on_c, 9, 35, 114
11, 134788, Note_off_c, 9, 35, 64
11, 134788, Note_on_c, 9, 40, 110
11, 134788, Note_on_c, 9, 44, 67
11, 134792, Note_off_c, 9, 44, 64
11, 134792, Note_off_c, 9, 40, 64
11, 134792, Note_on_c, 9, 39, 95
11, 134796, Note_off_c, 9, 39, 64
11, 134880, Note_on_c, 9, 60, 49
11, 134884, Note_off_c, 9, 60, 64
11, 134976, Note_on_c, 9, 70, 94
11, 134976, Note_on_c, 9, 63, 54
11, 134980, Note_off_c, 9, 63, 64
11, 134980, Note_off_c, 9, 70, 64
11, 134980, Note_on_c, 9, 46, 63
11, 134984, Note_off_c, 9, 46, 64
11, 135168, Note_on_c, 9, 35, 110
11, 135168, Note_on_c, 9, 60, 54
11, 135172, Note_off_c, 9, 60, 64
11, 135172, Note_off_c, 9, 35, 64
11, 135172, Note_on_c, 9, 44, 63
11, 135176, Note_off_c, 9, 44, 64
11, 135360, Note_on_c, 9, 70, 94
11, 135364, Note_off_c, 9, 70, 64
11, 135364, Note_on_c, 9, 46, 60
11, 135368, Note_off_c, 9, 46, 64
11, 135456, Note_on_c, 9, 60, 33
11, 135460, Note_off_c, 9, 60, 64
11, 135552, Note_on_c, 9, 35, 110
11, 135556, Note_off_c, 9, 35, 64
11, 135556, Note_on_c, 9, 40, 110
11, 135556, Note_on_c, 9, 44, 63
11, 135560, Note_off_c, 9, 44, 64
11, 135560, Note_off_c, 9, 40, 64
11, 135560, Note_on_c, 9, 39, 95
11, 135564, Note_off_c, 9, 39, 64
11, 135648, Note_on_c, 9, 60, 36
11, 135652, Note_off_c, 9, 60, 64
11, 135744, Note_on_c, 9, 70, 78
11, 135744, Note_on_c, 9, 63, 49
11, 135748, Note_off_c, 9, 63, 64
11, 135748, Note_off_c, 9, 70, 64
11, 135748, Note_on_c, 9, 46, 54
11, 135752, Note_off_c, 9, 46, 64
11, 135840, Note_on_c, 9, 70, 94
11, 135844, Note_off_c, 9, 70, 64
11, 135936, Note_on_c, 9, 35, 110
11, 135936, Note_on_c, 9, 60, 54
11, 135940, Note_off_c, 9, 60, 64
11, 135940, Note_off_c, 9, 35, 64
11, 135940, Note_on_c, 9, 44, 63
11, 135944, Note_off_c, 9, 44, 64
11, 136128, Note_on_c, 9, 70, 94
11, 136132, Note_off_c, 9, 70, 64
11, 136132, Note_on_c, 9, 46, 54
11, 136136, Note_off_c, 9, 46, 64
11, 136224, Note_on_c, 9, 60, 43
11, 136228, Note_off_c, 9, 60, 64
11, 136320, Note_on_c, 9, 35, 114
11, 136324, Note_off_c, 9, 35, 64
11, 136324, Note_on_c, 9, 40, 110
11, 136324, Note_on_c, 9, 44, 63
11, 136328, Note_off_c, 9, 44, 64
11, 136328, Note_off_c, 9, 40, 64
11, 136328, Note_on_c, 9, 39, 95
11, 136332, Note_off_c, 9, 39, 64
11, 136416, Note_on_c, 9, 60, 40
11, 136420, Note_off_c, 9, 60, 64
11, 136512, Note_on_c, 9, 70, 78
11, 136512, Note_on_c, 9, 63, 49
11, 136516, Note_off_c, 9, 63, 64
11, 136516, Note_off_c, 9, 70, 64
11, 136516, Note_on_c, 9, 46, 60
11, 136520, Note_off_c, 9, 46, 64
11, 136608, Note_on_c, 9, 70, 99
11, 136612, Note_off_c, 9, 70, 64
11, 136704, Note_on_c, 9, 35, 114
11, 136704, Note_on_c, 9, 69, 74
11, 136704, Note_on_c, 9, 60, 54
11, 136708, Note_off_c, 9, 60, 64
11, 136708, Note_off_c, 9, 69, 64
11, 136708, Note_off_c, 9, 35, 64
11, 136708, Note_on_c, 9, 44, 63
11, 136712, Note_off_c, 9, 44, 64
11, 136796, Note_on_c, 9, 69, 28
11, 136800, Note_off_c, 9, 69, 64
11, 136880, Note_on_c, 9, 69, 102
11, 136884, Note_off_c, 9, 69, 64
11, 136896, Note_on_c, 9, 70, 94
11, 136900, Note_off_c, 9, 70, 64
11, 136900, Note_on_c, 9, 46, 67
11, 136904, Note_off_c, 9, 46, 64
11, 136976, Note_on_c, 9, 69, 102
11, 136980, Note_off_c, 9, 69, 64
11, 136992, Note_on_c, 9, 60, 43
11, 136996, Note_off_c, 9, 60, 64
11, 137088, Note_on_c, 9, 35, 114
11, 137092, Note_off_c, 9, 35, 64
11, 137092, Note_on_c, 9, 40, 114
11, 137092, Note_on_c, 9, 44, 76
11, 137096, Note_off_c, 9, 44, 64
11, 137096, Note_off_c, 9, 40, 64
11, 137096, Note_on_c, 9, 39, 99
11, 137100, Note_off_c, 9, 39, 64
11, 137184, Note_on_c, 9, 60, 40
11, 137188, Note_off_c, 9, 60, 64
11, 137280, Note_on_c, 9, 70, 72
11, 137280, Note_on_c, 9, 63, 40
11, 137284, Note_off_c, 9, 63, 64
11, 137284, Note_off_c, 9, 70, 64
11, 137376, Note_on_c, 9, 70, 85
11, 137380, Note_off_c, 9, 70, 64
11, 137472, Note_on_c, 9, 35, 110
11, 137472, Note_on_c, 9, 60, 54
11, 137476, Note_off_c, 9, 60, 64
11, 137476, Note_off_c, 9, 35, 64
11, 137664, Note_on_c, 9, 70, 94
11, 137668, Note_off_c, 9, 70, 64
11, 137668, Note_on_c, 9, 46, 63
11, 137672, Note_off_c, 9, 46, 64
11, 137760, Note_on_c, 9, 60, 40
11, 137764, Note_off_c, 9, 60, 64
11, 137856, Note_on_c, 9, 35, 114
11, 137860, Note_off_c, 9, 35, 64
11, 137860, Note_on_c, 9, 40, 114
11, 137860, Note_on_c, 9, 44, 63
11, 137864, Note_off_c, 9, 44, 64
11, 137864, Note_off_c, 9, 40, 64
11, 137864, Note_on_c, 9, 39, 99
11, 137868, Note_off_c, 9, 39, 64
11, 137952, Note_on_c, 9, 60, 43
11, 137956, Note_off_c, 9, 60, 64
11, 138048, Note_on_c, 9, 70, 94
11, 138048, Note_on_c, 9, 63, 54
11, 138052, Note_off_c, 9, 63, 64
11, 138052, Note_off_c, 9, 70, 64
11, 138052, Note_on_c, 9, 46, 63
11, 138056, Note_off_c, 9, 46, 64
11, 138240, Note_on_c, 9, 35, 114
11, 138240, Note_on_c, 9, 60, 49
11, 138244, Note_off_c, 9, 60, 64
11, 138244, Note_off_c, 9, 35, 64
11, 138244, Note_on_c, 9, 44, 67
11, 138248, Note_off_c, 9, 44, 64
11, 138432, Note_on_c, 9, 70, 99
11, 138436, Note_off_c, 9, 70, 64
11, 138436, Note_on_c, 9, 46, 63
11, 138440, Note_off_c, 9, 46, 64
11, 138528, Note_on_c, 9, 60, 40
11, 138532, Note_off_c, 9, 60, 64
11, 138624, Note_on_c, 9, 35, 110
11, 138628, Note_off_c, 9, 35, 64
11, 138628, Note_on_c, 9, 40, 114
11, 138628, Note_on_c, 9, 44, 63
11, 138632, Note_off_c, 9, 44, 64
11, 138632, Note_off_c, 9, 40, 64
11, 138632, Note_on_c, 9, 39, 99
11, 138636, Note_off_c, 9, 39, 64
11, 138720, Note_on_c, 9, 60, 43
11, 138724, Note_off_c, 9, 60, 64
11, 138816, Note_on_c, 9, 70, 78
11, 138816, Note_on_c, 9, 63, 40
11, 138820, Note_off_c, 9, 63, 64
11, 138820, Note_off_c, 9, 70, 64
11, 138820, Note_on_c, 9, 46, 63
11, 138824, Note_off_c, 9, 46, 64
11, 138912, Note_on_c, 9, 70, 85
11, 138916, Note_off_c, 9, 70, 64
11, 139008, Note_on_c, 9, 35, 114
11, 139008, Note_on_c, 9, 60, 49
11, 139012, Note_off_c, 9, 60, 64
11, 139012, Note_off_c, 9, 35, 64
11, 139012, Note_on_c, 9, 44, 63
11, 139016, Note_off_c, 9, 44, 64
11, 139200, Note_on_c, 9, 70, 99
11, 139204, Note_off_c, 9, 70, 64
11, 139204, Note_on_c, 9, 46, 63
11, 139208, Note_off_c, 9, 46, 64
11, 139296, Note_on_c, 9, 60, 40
11, 139300, Note_off_c, 9, 60, 64
11, 139392, Note_on_c, 9, 35, 114
11, 139396, Note_off_c, 9, 35, 64
11, 139396, Note_on_c, 9, 40, 114
11, 139396, Note_on_c, 9, 44, 67
11, 139400, Note_off_c, 9, 44, 64
11, 139400, Note_off_c, 9, 40, 64
11, 139400, Note_on_c, 9, 39, 99
11, 139404, Note_off_c, 9, 39, 64
11, 139488, Note_on_c, 9, 60, 40
11, 139492, Note_off_c, 9, 60, 64
11, 139584, Note_on_c, 9, 70, 81
11, 139584, Note_on_c, 9, 63, 49
11, 139588, Note_off_c, 9, 63, 64
11, 139588, Note_off_c, 9, 70, 64
11, 139588, Note_on_c, 9, 46, 67
11, 139592, Note_off_c, 9, 46, 64
11, 139680, Note_on_c, 9, 70, 99
11, 139684, Note_off_c, 9, 70, 64
11, 139776, Note_on_c, 9, 35, 110
11, 139776, Note_on_c, 9, 69, 74
11, 139776, Note_on_c, 9, 60, 54
11, 139780, Note_off_c, 9, 60, 64
11, 139780, Note_off_c, 9, 69, 64
11, 139780, Note_off_c, 9, 35, 64
11, 139780, Note_on_c, 9, 44, 76
11, 139784, Note_off_c, 9, 44, 64
11, 139868, Note_on_c, 9, 69, 28
11, 139872, Note_off_c, 9, 69, 64
11, 139952, Note_on_c, 9, 69, 102
11, 139956, Note_off_c, 9, 69, 64
11, 139968, Note_on_c, 9, 70, 99
11, 139972, Note_off_c, 9, 70, 64
11, 139972, Note_on_c, 9, 46, 63
11, 139976, Note_off_c, 9, 46, 64
11, 140048, Note_on_c, 9, 69, 102
11, 140052, Note_off_c, 9, 69, 64
11, 140064, Note_on_c, 9, 60, 54
11, 140068, Note_off_c, 9, 60, 64
11, 140160, Note_on_c, 9, 35, 114
11, 140164, Note_off_c, 9, 35, 64
11, 140164, Note_on_c, 9, 40, 110
11, 140164, Note_on_c, 9, 44, 60
11, 140168, Note_off_c, 9, 44, 64
11, 140168, Note_off_c, 9, 40, 64
11, 140168, Note_on_c, 9, 39, 95
11, 140172, Note_off_c, 9, 39, 64
11, 140256, Note_on_c, 9, 60, 43
11, 140260, Note_off_c, 9, 60, 64
11, 140352, Note_on_c, 9, 70, 81
11, 140352, Note_on_c, 9, 63, 49
11, 140356, Note_off_c, 9, 63, 64
11, 140356, Note_off_c, 9, 70, 64
11, 140448, Note_on_c, 9, 70, 99
11, 140452, Note_off_c, 9, 70, 64
11, 140544, Note_on_c, 9, 35, 110
11, 140544, Note_on_c, 9, 60, 54
11, 140548, Note_off_c, 9, 60, 64
11, 140548, Note_off_c, 9, 35, 64
11, 140736, Note_on_c, 9, 70, 94
11, 140740, Note_off_c, 9, 70, 64
11, 140740, Note_on_c, 9, 46, 67
11, 140744, Note_off_c, 9, 46, 64
11, 140832, Note_on_c, 9, 60, 43
11, 140836, Note_off_c, 9, 60, 64
11, 140928, Note_on_c, 9, 35, 114
11, 140932, Note_off_c, 9, 35, 64
11, 140932, Note_on_c, 9, 40, 110
11, 140932, Note_on_c, 9, 44, 67
11, 140936, Note_off_c, 9, 44, 64
11, 140936, Note_off_c, 9, 40, 64
11, 140936, Note_on_c, 9, 39, 95
11, 140940, Note_off_c, 9, 39, 64
11, 141024, Note_on_c, 9, 60, 49
11, 141028, Note_off_c, 9, 60, 64
11, 141120, Note_on_c, 9, 70, 94
11, 141120, Note_on_c, 9, 63, 54
11, 141124, Note_off_c, 9, 63, 64
11, 141124, Note_off_c, 9, 70, 64
11, 141124, Note_on_c, 9, 46, 63
11, 141128, Note_off_c, 9, 46, 64
11, 141312, Note_on_c, 9, 35, 110
11, 141312, Note_on_c, 9, 60, 54
11, 141316, Note_off_c, 9, 60, 64
11, 141316, Note_off_c, 9, 35, 64
11, 141316, Note_on_c, 9, 44, 63
11, 141320, Note_off_c, 9, 44, 64
11, 141504, Note_on_c, 9, 70, 94
11, 141508, Note_off_c, 9, 70, 64
11, 141508, Note_on_c, 9, 46, 60
11, 141512, Note_off_c, 9, 46, 64
11, 141600, Note_on_c, 9, 60, 33
11, 141604, Note_off_c, 9, 60, 64
11, 141696, Note_on_c, 9, 35, 110
11, 141700, Note_off_c, 9, 35, 64
11, 141700, Note_on_c, 9, 40, 110
11, 141700, Note_on_c, 9, 44, 63
11, 141704, Note_off_c, 9, 44, 64
11, 141704, Note_off_c, 9, 40, 64
11, 141704, Note_on_c, 9, 39, 95
11, 141708, Note_off_c, 9, 39, 64
11, 141792, Note_on_c, 9, 60, 36
11, 141796, Note_off_c, 9, 60, 64
11, 141888, Note_on_c, 9, 70, 78
11, 141888, Note_on_c, 9, 63, 49
11, 141892, Note_off_c, 9, 63, 64
11, 141892, Note_off_c, 9, 70, 64
11, 141892, Note_on_c, 9, 46, 54
11, 141896, Note_off_c, 9, 46, 64
11, 141984, Note_on_c, 9, 70, 94
11, 141988, Note_off_c, 9, 70, 64
11, 142080, Note_on_c, 9, 35, 110
11, 142080, Note_on_c, 9, 60, 54
11, 142084, Note_off_c, 9, 60, 64
11, 142084, Note_off_c, 9, 35, 64
11, 142084, Note_on_c, 9, 44, 63
11, 142088, Note_off_c, 9, 44, 64
11, 142272, Note_on_c, 9, 70, 94
11, 142276, Note_off_c, 9, 70, 64
11, 142276, Note_on_c, 9, 46, 54
11, 142280, Note_off_c, 9, 46, 64
11, 142368, Note_on_c, 9, 60, 43
11, 142372, Note_off_c, 9, 60, 64
11, 142464, Note_on_c, 9, 35, 114
11, 142468, Note_off_c, 9, 35, 64
11, 142468, Note_on_c, 9, 40, 110
11, 142468, Note_on_c, 9, 44, 63
11, 142472, Note_off_c, 9, 44, 64
11, 142472, Note_off_c, 9, 40, 64
11, 142472, Note_on_c, 9, 39, 95
11, 142476, Note_off_c, 9, 39, 64
11, 142560, Note_on_c, 9, 60, 40
11, 142564, Note_off_c, 9, 60, 64
11, 142656, Note_on_c, 9, 70, 78
11, 142656, Note_on_c, 9, 63, 49
11, 142660, Note_off_c, 9, 63, 64
11, 142660, Note_off_c, 9, 70, 64
11, 142660, Note_on_c, 9, 46, 60
11, 142664, Note_off_c, 9, 46, 64
11, 142752, Note_on_c, 9, 70, 99
11, 142756, Note_off_c, 9, 70, 64
11, 142848, Note_on_c, 9, 35, 114
11, 142848, Note_on_c, 9, 69, 74
11, 142848, Note_on_c, 9, 60, 54
11, 142852, Note_off_c, 9, 60, 64
11, 142852, Note_off_c, 9, 69, 64
11, 142852, Note_off_c, 9, 35, 64
11, 142852, Note_on_c, 9, 44, 63
11, 142856, Note_off_c, 9, 44, 64
11, 142940, Note_on_c, 9, 69, 28
11, 142944, Note_off_c, 9, 69, 64
11, 143024, Note_on_c, 9, 69, 102
11, 143028, Note_off_c, 9, 69, 64
11, 143040, Note_on_c, 9, 70, 94
11, 143044, Note_off_c, 9, 70, 64
11, 143044, Note_on_c, 9, 46, 67
11, 143048, Note_off_c, 9, 46, 64
11, 143120, Note_on_c, 9, 69, 102
11, 143124, Note_off_c, 9, 69, 64
11, 143136, Note_on_c, 9, 60, 43
11, 143140, Note_off_c, 9, 60, 64
11, 143232, Note_on_c, 9, 35, 114
11, 143236, Note_off_c, 9, 35, 64
11, 143236, Note_on_c, 9, 40, 114
11, 143236, Note_on_c, 9, 44, 76
11, 143240, Note_off_c, 9, 44, 64
11, 143240, Note_off_c, 9, 40, 64
11, 143240, Note_on_c, 9, 39, 99
11, 143244, Note_off_c, 9, 39, 64
11, 143328, Note_on_c, 9, 60, 40
11, 143332, Note_off_c, 9, 60, 64
11, 143424, Note_on_c, 9, 70, 72
11, 143424, Note_on_c, 9, 63, 40
11, 143428, Note_off_c, 9, 63, 64
11, 143428, Note_off_c, 9, 70, 64
11, 143520, Note_on_c, 9, 70, 85
11, 143524, Note_off_c, 9, 70, 64
11, 143616, Note_on_c, 9, 35, 110
11, 143616, Note_on_c, 9, 60, 54
11, 143620, Note_off_c, 9, 60, 64
11, 143620, Note_off_c, 9, 35, 64
11, 143808, Note_on_c, 9, 70, 94
11, 143812, Note_off_c, 9, 70, 64
11, 143812, Note_on_c, 9, 46, 63
11, 143816, Note_off_c, 9, 46, 64
11, 143904, Note_on_c, 9, 60, 40
11, 143908, Note_off_c, 9, 60, 64
11, 144000, Note_on_c, 9, 35, 114
11, 144004, Note_off_c, 9, 35, 64
11, 144004, Note_on_c, 9, 40, 114
11, 144004, Note_on_c, 9, 44, 63
11, 144008, Note_off_c, 9, 44, 64
11, 144008, Note_off_c, 9, 40, 64
11, 144008, Note_on_c, 9, 39, 99
11, 144012, Note_off_c, 9, 39, 64
11, 144096, Note_on_c, 9, 60, 43
11, 144100, Note_off_c, 9, 60, 64
11, 144192, Note_on_c, 9, 70, 94
11, 144192, Note_on_c, 9, 63, 54
11, 144196, Note_off_c, 9, 63, 64
11, 144196, Note_off_c, 9, 70, 64
11, 144196, Note_on_c, 9, 46, 63
11, 144200, Note_off_c, 9, 46, 64
11, 144384, Note_on_c, 9, 35, 114
11, 144384, Note_on_c, 9, 60, 49
11, 144388, Note_off_c, 9, 60, 64
11, 144388, Note_off_c, 9, 35, 64
11, 144388, Note_on_c, 9, 44, 67
11, 144392, Note_off_c, 9, 44, 64
11, 144576, Note_on_c, 9, 70, 99
11, 144580, Note_off_c, 9, 70, 64
11, 144580, Note_on_c, 9, 46, 63
11, 144584, Note_off_c, 9, 46, 64
11, 144672, Note_on_c, 9, 60, 40
11, 144676, Note_off_c, 9, 60, 64
11, 144768, Note_on_c, 9, 35, 110
11, 144772, Note_off_c, 9, 35, 64
11, 144772, Note_on_c, 9, 40, 114
11, 144772, Note_on_c, 9, 44, 63
11, 144776, Note_off_c, 9, 44, 64
11, 144776, Note_off_c, 9, 40, 64
11, 144776, Note_on_c, 9, 39, 99
11, 144780, Note_off_c, 9, 39, 64
11, 144864, Note_on_c, 9, 60, 43
11, 144868, Note_off_c, 9, 60, 64
11, 144960, Note_on_c, 9, 70, 78
11, 144960, Note_on_c, 9, 63, 40
11, 144964, Note_off_c, 9, 63, 64
11, 144964, Note_off_c, 9, 70, 64
11, 144964, Note_on_c, 9, 46, 63
11, 144968, Note_off_c, 9, 46, 64
11, 145056, Note_on_c, 9, 70, 85
11, 145060, Note_off_c, 9, 70, 64
11, 145152, Note_on_c, 9, 35, 114
11, 145152, Note_on_c, 9, 60, 49
11, 145156, Note_off_c, 9, 60, 64
11, 145156, Note_off_c, 9, 35, 64
11, 145156, Note_on_c, 9, 44, 63
11, 145160, Note_off_c, 9, 44, 64
11, 145344, Note_on_c, 9, 70, 99
11, 145348, Note_off_c, 9, 70, 64
11, 145348, Note_on_c, 9, 46, 63
11, 145352, Note_off_c, 9, 46, 64
11, 145440, Note_on_c, 9, 60, 40
11, 145444, Note_off_c, 9, 60, 64
11, 145536, Note_on_c, 9, 35, 114
11, 145540, Note_off_c, 9, 35, 64
11, 145540, Note_on_c, 9, 40, 114
11, 145540, Note_on_c, 9, 44, 67
11, 145544, Note_off_c, 9, 44, 64
11, 145544, Note_off_c, 9, 40, 64
11, 145544, Note_on_c, 9, 39, 99
11, 145548, Note_off_c, 9, 39, 64
11, 145632, Note_on_c, 9, 60, 40
11, 145636, Note_off_c, 9, 60, 64
11, 145636, Note_on_c, 9, 40, 114
11, 145640, Note_off_c, 9, 40, 64
11, 145640, Note_on_c, 9, 39, 99
11, 145644, Note_off_c, 9, 39, 64
11, 145728, Note_on_c, 9, 70, 81
11, 145728, Note_on_c, 9, 63, 49
11, 145732, Note_off_c, 9, 63, 64
11, 145732, Note_off_c, 9, 70, 64
11, 145732, Note_on_c, 9, 46, 67
11, 145736, Note_off_c, 9, 46, 64
11, 145824, Note_on_c, 9, 70, 99
11, 145828, Note_off_c, 9, 70, 64
11, 145920, Note_on_c, 9, 35, 110
11, 145920, Note_on_c, 9, 69, 74
11, 145920, Note_on_c, 9, 60, 54
11, 145924, Note_off_c, 9, 60, 64
11, 145924, Note_off_c, 9, 69, 64
11, 145924, Note_off_c, 9, 35, 64
11, 145924, Note_on_c, 9, 44, 76
11, 145928, Note_off_c, 9, 44, 64
11, 146012, Note_on_c, 9, 69, 28
11, 146016, Note_off_c, 9, 69, 64
11, 146096, Note_on_c, 9, 69, 102
11, 146100, Note_off_c, 9, 69, 64
11, 146112, Note_on_c, 9, 70, 99
11, 146116, Note_off_c, 9, 70, 64
11, 146116, Note_on_c, 9, 46, 63
11, 146120, Note_off_c, 9, 46, 64
11, 146192, Note_on_c, 9, 69, 100
11, 146196, Note_off_c, 9, 69, 64
11, 146208, Note_on_c, 9, 60, 53
11, 146212, Note_off_c, 9, 60, 64
11, 146304, Note_on_c, 9, 35, 111
11, 146308, Note_off_c, 9, 35, 64
11, 146308, Note_on_c, 9, 40, 107
11, 146308, Note_on_c, 9, 44, 58
11, 146312, Note_off_c, 9, 44, 64
11, 146312, Note_off_c, 9, 40, 64
11, 146312, Note_on_c, 9, 39, 92
11, 146316, Note_off_c, 9, 39, 64
11, 146400, Note_on_c, 9, 60, 41
11, 146404, Note_off_c, 9, 60, 64
11, 146496, Note_on_c, 9, 70, 77
11, 146496, Note_on_c, 9, 63, 46
11, 146500, Note_off_c, 9, 63, 64
11, 146500, Note_off_c, 9, 70, 64
11, 146592, Note_on_c, 9, 70, 93
11, 146596, Note_off_c, 9, 70, 64
11, 146688, Note_on_c, 9, 35, 102
11, 146688, Note_on_c, 9, 60, 50
11, 146692, Note_off_c, 9, 60, 64
11, 146692, Note_off_c, 9, 35, 64
11, 146880, Note_on_c, 9, 70, 86
11, 146884, Note_off_c, 9, 70, 64
11, 146884, Note_on_c, 9, 46, 61
11, 146888, Note_off_c, 9, 46, 64
11, 146976, Note_on_c, 9, 60, 38
11, 146980, Note_off_c, 9, 60, 64
11, 147072, Note_on_c, 9, 35, 102
11, 147076, Note_off_c, 9, 35, 64
11, 147076, Note_on_c, 9, 40, 99
11, 147076, Note_on_c, 9, 44, 60
11, 147080, Note_off_c, 9, 44, 64
11, 147080, Note_off_c, 9, 40, 64
11, 147080, Note_on_c, 9, 39, 85
11, 147084, Note_off_c, 9, 39, 64
11, 147168, Note_on_c, 9, 60, 43
11, 147172, Note_off_c, 9, 60, 64
11, 147264, Note_on_c, 9, 70, 82
11, 147264, Note_on_c, 9, 63, 46
11, 147268, Note_off_c, 9, 63, 64
11, 147268, Note_off_c, 9, 70, 64
11, 147268, Note_on_c, 9, 46, 54
11, 147272, Note_off_c, 9, 46, 64
11, 147456, Note_on_c, 9, 35, 94
11, 147456, Note_on_c, 9, 60, 45
11, 147460, Note_off_c, 9, 60, 64
11, 147460, Note_off_c, 9, 35, 64
11, 147460, Note_on_c, 9, 44, 53
11, 147464, Note_off_c, 9, 44, 64
11, 147648, Note_on_c, 9, 70, 78
11, 147652, Note_off_c, 9, 70, 64
11, 147652, Note_on_c, 9, 46, 49
11, 147656, Note_off_c, 9, 46, 64
11, 147744, Note_on_c, 9, 60, 26
11, 147748, Note_off_c, 9, 60, 64
11, 147840, Note_on_c, 9, 35, 90
11, 147844, Note_off_c, 9, 35, 64
11, 147844, Note_on_c, 9, 40, 90
11, 147844, Note_on_c, 9, 44, 51
11, 147848, Note_off_c, 9, 44, 64
11, 147848, Note_off_c, 9, 40, 64
11, 147848, Note_on_c, 9, 39, 78
11, 147852, Note_off_c, 9, 39, 64
11, 147936, Note_on_c, 9, 60, 28
11, 147940, Note_off_c, 9, 60, 64
11, 148032, Note_on_c, 9, 70, 62
11, 148032, Note_on_c, 9, 63, 38
11, 148036, Note_off_c, 9, 63, 64
11, 148036, Note_off_c, 9, 70, 64
11, 148036, Note_on_c, 9, 46, 42
11, 148040, Note_off_c, 9, 46, 64
11, 148128, Note_on_c, 9, 70, 74
11, 148132, Note_off_c, 9, 70, 64
11, 148224, Note_on_c, 9, 35, 86
11, 148224, Note_on_c, 9, 60, 41
11, 148228, Note_off_c, 9, 60, 64
11, 148228, Note_off_c, 9, 35, 64
11, 148228, Note_on_c, 9, 44, 48
11, 148232, Note_off_c, 9, 44, 64
11, 148416, Note_on_c, 9, 70, 71
11, 148420, Note_off_c, 9, 70, 64
11, 148420, Note_on_c, 9, 46, 39
11, 148424, Note_off_c, 9, 46, 64
11, 148512, Note_on_c, 9, 60, 30
11, 148516, Note_off_c, 9, 60, 64
11, 148608, Note_on_c, 9, 35, 84
11, 148612, Note_off_c, 9, 35, 64
11, 148612, Note_on_c, 9, 40, 81
11, 148612, Note_on_c, 9, 44, 45
11, 148616, Note_off_c, 9, 44, 64
11, 148616, Note_off_c, 9, 40, 64
11, 148616, Note_on_c, 9, 39, 69
11, 148620, Note_off_c, 9, 39, 64
11, 148704, Note_on_c, 9, 60, 28
11, 148708, Note_off_c, 9, 60, 64
11, 148800, Note_on_c, 9, 70, 56
11, 148800, Note_on_c, 9, 63, 34
11, 148804, Note_off_c, 9, 63, 64
11, 148804, Note_off_c, 9, 70, 64
11, 148804, Note_on_c, 9, 46, 42
11, 148808, Note_off_c, 9, 46, 64
11, 148896, Note_on_c, 9, 70, 70
11, 148900, Note_off_c, 9, 70, 64
11, 148992, Note_on_c, 9, 35, 80
11, 148992, Note_on_c, 9, 69, 51
11, 148992, Note_on_c, 9, 60, 36
11, 148996, Note_off_c, 9, 60, 64
11, 148996, Note_off_c, 9, 69, 64
11, 148996, Note_off_c, 9, 35, 64
11, 148996, Note_on_c, 9, 44, 43
11, 149000, Note_off_c, 9, 44, 64
11, 149084, Note_on_c, 9, 69, 17
11, 149088, Note_off_c, 9, 69, 64
11, 149168, Note_on_c, 9, 69, 69
11, 149172, Note_off_c, 9, 69, 64
11, 149184, Note_on_c, 9, 70, 63
11, 149188, Note_off_c, 9, 70, 64
11, 149188, Note_on_c, 9, 46, 44
11, 149192, Note_off_c, 9, 46, 64
11, 149264, Note_on_c, 9, 69, 68
11, 149268, Note_off_c, 9, 69, 64
11, 149280, Note_on_c, 9, 60, 27
11, 149284, Note_off_c, 9, 60, 64
11, 149376, Note_on_c, 9, 35, 75
11, 149380, Note_off_c, 9, 35, 64
11, 149380, Note_on_c, 9, 40, 75
11, 149380, Note_on_c, 9, 44, 49
11, 149384, Note_off_c, 9, 44, 64
11, 149384, Note_off_c, 9, 40, 64
11, 149384, Note_on_c, 9, 39, 65
11, 149388, Note_off_c, 9, 39, 64
11, 149472, Note_on_c, 9, 60, 24
11, 149476, Note_off_c, 9, 60, 64
11, 149568, Note_on_c, 9, 70, 45
11, 149568, Note_on_c, 9, 63, 24
11, 149572, Note_off_c, 9, 63, 64
11, 149572, Note_off_c, 9, 70, 64
11, 149664, Note_on_c, 9, 70, 53
11, 149668, Note_off_c, 9, 70, 64
11, 149760, Note_on_c, 9, 35, 69
11, 149760, Note_on_c, 9, 60, 32
11, 149764, Note_off_c, 9, 60, 64
11, 149764, Note_off_c, 9, 35, 64
11, 149952, Note_on_c, 9, 70, 56
11, 149956, Note_off_c, 9, 70, 64
11, 149956, Note_on_c, 9, 46, 36
11, 149960, Note_off_c, 9, 46, 64
11, 150048, Note_on_c, 9, 60, 21
11, 150052, Note_off_c, 9, 60, 64
11, 150144, Note_on_c, 9, 35, 66
11, 150148, Note_off_c, 9, 35, 64
11, 150148, Note_on_c, 9, 40, 66
11, 150148, Note_on_c, 9, 44, 35
11, 150152, Note_off_c, 9, 44, 64
11, 150152, Note_off_c, 9, 40, 64
11, 150152, Note_on_c, 9, 39, 57
11, 150156, Note_off_c, 9, 39, 64
11, 150240, Note_on_c, 9, 60, 22
11, 150244, Note_off_c, 9, 60, 64
11, 150336, Note_on_c, 9, 70, 52
11, 150336, Note_on_c, 9, 63, 28
11, 150340, Note_off_c, 9, 63, 64
11, 150340, Note_off_c, 9, 70, 64
11, 150340, Note_on_c, 9, 46, 33
11, 150344, Note_off_c, 9, 46, 64
11, 150528, Note_on_c, 9, 35, 63
11, 150528, Note_on_c, 9, 60, 24
11, 150532, Note_off_c, 9, 60, 64
11, 150532, Note_off_c, 9, 35, 64
11, 150532, Note_on_c, 9, 44, 35
11, 150536, Note_off_c, 9, 44, 64
11, 150720, Note_on_c, 9, 70, 52
11, 150724, Note_off_c, 9, 70, 64
11, 150724, Note_on_c, 9, 46, 31
11, 150728, Note_off_c, 9, 46, 64
11, 150816, Note_on_c, 9, 60, 18
11, 150820, Note_off_c, 9, 60, 64
11, 150912, Note_on_c, 9, 35, 56
11, 150916, Note_off_c, 9, 35, 64
11, 150916, Note_on_c, 9, 40, 58
11, 150916, Note_on_c, 9, 44, 30
11, 150920, Note_off_c, 9, 44, 64
11, 150920, Note_off_c, 9, 40, 64
11, 150920, Note_on_c, 9, 39, 49
11, 150924, Note_off_c, 9, 39, 64
11, 151008, Note_on_c, 9, 60, 18
11, 151012, Note_off_c, 9, 60, 64
11, 151104, Note_on_c, 9, 70, 36
11, 151104, Note_on_c, 9, 63, 16
11, 151108, Note_off_c, 9, 63, 64
11, 151108, Note_off_c, 9, 70, 64
11, 151108, Note_on_c, 9, 46, 28
11, 151112, Note_off_c, 9, 46, 64
11, 151200, Note_on_c, 9, 70, 39
11, 151204, Note_off_c, 9, 70, 64
11, 151296, Note_on_c, 9, 35, 53
11, 151296, Note_on_c, 9, 60, 20
11, 151300, Note_off_c, 9, 60, 64
11, 151300, Note_off_c, 9, 35, 64
11, 151300, Note_on_c, 9, 44, 27
11, 151304, Note_off_c, 9, 44, 64
11, 151488, Note_on_c, 9, 70, 44
11, 151492, Note_off_c, 9, 70, 64
11, 151492, Note_on_c, 9, 46, 26
11, 151496, Note_off_c, 9, 46, 64
11, 151584, Note_on_c, 9, 60, 14
11, 151588, Note_off_c, 9, 60, 64
11, 151680, Note_on_c, 9, 35, 49
11, 151684, Note_off_c, 9, 35, 64
11, 151684, Note_on_c, 9, 40, 49
11, 151684, Note_on_c, 9, 44, 26
11, 151688, Note_off_c, 9, 44, 64
11, 151688, Note_off_c, 9, 40, 64
11, 151688, Note_on_c, 9, 39, 42
11, 151692, Note_off_c, 9, 39, 64
11, 151776, Note_on_c, 9, 60, 13
11, 151780, Note_off_c, 9, 60, 64
11, 151872, Note_on_c, 9, 70, 31
11, 151872, Note_on_c, 9, 63, 17
11, 151876, Note_off_c, 9, 63, 64
11, 151876, Note_off_c, 9, 70, 64
11, 151876, Note_on_c, 9, 46, 25
11, 151880, Note_off_c, 9, 46, 64
11, 151968, Note_on_c, 9, 70, 39
11, 151972, Note_off_c, 9, 70, 64
11, 152064, Note_on_c, 9, 35, 42
11, 152064, Note_on_c, 9, 69, 26
11, 152064, Note_on_c, 9, 60, 18
11, 152068, Note_off_c, 9, 60, 64
11, 152068, Note_off_c, 9, 69, 64
11, 152068, Note_off_c, 9, 35, 64
11, 152068, Note_on_c, 9, 44, 27
11, 152072, Note_off_c, 9, 44, 64
11, 152156, Note_on_c, 9, 69, 6
11, 152160, Note_off_c, 9, 69, 64
11, 152240, Note_on_c, 9, 69, 38
11, 152244, Note_off_c, 9, 69, 64
11, 152256, Note_on_c, 9, 70, 36
11, 152260, Note_off_c, 9, 70, 64
11, 152260, Note_on_c, 9, 46, 21
11, 152264, Note_off_c, 9, 46, 64
11, 152336, Note_on_c, 9, 69, 37
11, 152340, Note_off_c, 9, 69, 64
11, 152352, Note_on_c, 9, 60, 16
11, 152356, Note_off_c, 9, 60, 64
11, 152448, Note_on_c, 9, 35, 40
11, 152452, Note_off_c, 9, 35, 64
11, 152452, Note_on_c, 9, 40, 39
11, 152452, Note_on_c, 9, 44, 18
11, 152456, Note_off_c, 9, 44, 64
11, 152456, Note_off_c, 9, 40, 64
11, 152456, Note_on_c, 9, 39, 33
11, 152460, Note_off_c, 9, 39, 64
11, 152544, Note_on_c, 9, 60, 11
11, 152548, Note_off_c, 9, 60, 64
11, 152640, Note_on_c, 9, 70, 25
11, 152640, Note_on_c, 9, 63, 13
11, 152644, Note_off_c, 9, 63, 64
11, 152644, Note_off_c, 9, 70, 64
11, 152736, Note_on_c, 9, 70, 31
11, 152740, Note_off_c, 9, 70, 64
11, 152832, Note_on_c, 9, 35, 34
11, 152832, Note_on_c, 9, 60, 13
11, 152836, Note_off_c, 9, 60, 64
11, 152836, Note_off_c, 9, 35, 64
11, 153024, Note_on_c, 9, 70, 26
11, 153028, Note_off_c, 9, 70, 64
11, 153028, Note_on_c, 9, 46, 16
11, 153032, Note_off_c, 9, 46, 64
11, 153120, Note_on_c, 9, 60, 8
11, 153124, Note_off_c, 9, 60, 64
11, 153216, Note_on_c, 9, 35, 32
11, 153220, Note_off_c, 9, 35, 64
11, 153220, Note_on_c, 9, 40, 30
11, 153220, Note_on_c, 9, 44, 16
11, 153224, Note_off_c, 9, 44, 64
11, 153224, Note_off_c, 9, 40, 64
11, 153224, Note_on_c, 9, 39, 25
11, 153228, Note_off_c, 9, 39, 64
11, 153312, Note_on_c, 9, 60, 9
11, 153316, Note_off_c, 9, 60, 64
11, 153408, Note_on_c, 9, 70, 23
11, 153408, Note_on_c, 9, 63, 10
11, 153412, Note_off_c, 9, 63, 64
11, 153412, Note_off_c, 9, 70, 64
11, 153412, Note_on_c, 9, 46, 13
11, 153416, Note_off_c, 9, 46, 64
11, 153600, Note_on_c, 9, 35, 26
11, 153600, Note_on_c, 9, 60, 9
11, 153604, Note_off_c, 9, 60, 64
11, 153604, Note_off_c, 9, 35, 64
11, 153604, Note_on_c, 9, 44, 11
11, 153608, Note_off_c, 9, 44, 64
11, 153792, Note_on_c, 9, 70, 19
11, 153796, Note_off_c, 9, 70, 64
11, 153796, Note_on_c, 9, 46, 9
11, 153800, Note_off_c, 9, 46, 64
11, 153888, Note_on_c, 9, 60, 1
11, 153892, Note_off_c, 9, 60, 64
11, 153984, Note_on_c, 9, 35, 21
11, 153988, Note_off_c, 9, 35, 64
11, 153988, Note_on_c, 9, 40, 21
11, 153988, Note_on_c, 9, 44, 8
11, 153992, Note_off_c, 9, 44, 64
11, 153992, Note_off_c, 9, 40, 64
11, 153992, Note_on_c, 9, 39, 17
11, 153996, Note_off_c, 9, 39, 64
11, 154080, Note_on_c, 9, 60, 1
11, 154084, Note_off_c, 9, 60, 64
11, 154176, Note_on_c, 9, 70, 12
11, 154176, Note_on_c, 9, 63, 4
11, 154180, Note_off_c, 9, 63, 64
11, 154180, Note_off_c, 9, 70, 64
11, 154180, Note_on_c, 9, 46, 6
11, 154184, Note_off_c, 9, 46, 64
11, 154272, Note_on_c, 9, 70, 14
11, 154276, Note_off_c, 9, 70, 64
11, 154368, Note_on_c, 9, 35, 17
11, 154368, Note_on_c, 9, 60, 4
11, 154372, Note_off_c, 9, 60, 64
11, 154372, Note_off_c, 9, 35, 64
11, 154372, Note_on_c, 9, 44, 6
11, 154376, Note_off_c, 9, 44, 64
11, 154560, Note_on_c, 9, 70, 11
11, 154564, Note_off_c, 9, 70, 64
11, 154564, Note_on_c, 9, 46, 3
11, 154568, Note_off_c, 9, 46, 64
11, 154656, Note_on_c, 9, 60, 1
11, 154660, Note_off_c, 9, 60, 64
11, 154752, Note_on_c, 9, 35, 13
11, 154756, Note_off_c, 9, 35, 64
11, 154756, Note_on_c, 9, 40, 12
11, 154756, Note_on_c, 9, 44, 3
11, 154760, Note_off_c, 9, 44, 64
11, 154760, Note_off_c, 9, 40, 64
11, 154760, Note_on_c, 9, 39, 9
11, 154764, Note_off_c, 9, 39, 64
11, 154848, Note_on_c, 9, 60, 1
11, 154852, Note_off_c, 9, 60, 64
11, 154944, Note_on_c, 9, 70, 5
11, 154944, Note_on_c, 9, 63, 1
11, 154948, Note_off_c, 9, 63, 64
11, 154948, Note_off_c, 9, 70, 64
11, 154948, Note_on_c, 9, 46, 2
11, 154952, Note_off_c, 9, 46, 64
11, 155040, Note_on_c, 9, 70, 8
11, 155044, Note_off_c, 9, 70, 64
11, 155136, Note_on_c, 9, 35, 9
11, 155136, Note_on_c, 9, 69, 3
11, 155136, Note_on_c, 9, 60, 1
11, 155140, Note_off_c, 9, 60, 64
11, 155140, Note_off_c, 9, 69, 64
11, 155140, Note_off_c, 9, 35, 64
11, 155140, Note_on_c, 9, 44, 1
11, 155144, Note_off_c, 9, 44, 64
11, 155228, Note_on_c, 9, 69, 1
11, 155232, Note_off_c, 9, 69, 64
11, 155312, Note_on_c, 9, 69, 5
11, 155316, Note_off_c, 9, 69, 64
11, 155328, Note_on_c, 9, 70, 4
11, 155332, Note_off_c, 9, 70, 64
11, 155332, Note_on_c, 9, 46, 1
11, 155336, Note_off_c, 9, 46, 64
11, 155408, Note_on_c, 9, 69, 4
11, 155412, Note_off_c, 9, 69, 64
11, 155424, Note_on_c, 9, 60, 1
11, 155428, Note_off_c, 9, 60, 64
11, 155520, Note_on_c, 9, 35, 4
11, 155524, Note_off_c, 9, 35, 64
11, 155524, Note_on_c, 9, 40, 4
11, 155524, Note_on_c, 9, 44, 1
11, 155528, Note_off_c, 9, 44, 64
11, 155528, Note_off_c, 9, 40, 64
11, 155528, Note_on_c, 9, 39, 3
11, 155532, Note_off_c, 9, 39, 64
11, 155616, Note_on_c, 9, 60, 1
11, 155620, Note_off_c, 9, 60, 64
11, 155712, Note_on_c, 9, 70, 1
11, 155712, Note_on_c, 9, 63, 1
11, 155716, Note_off_c, 9, 63, 64
11, 155716, Note_off_c, 9, 70, 64
11, 155808, Note_on_c, 9, 70, 1
11, 155812, Note_off_c, 9, 70, 64
11, 155904, Note_on_c, 9, 35, 1
11, 155904, Note_on_c, 9, 60, 1
11, 155908, Note_off_c, 9, 60, 64
11, 155908, Note_off_c, 9, 35, 64
11, 156096, Note_on_c, 9, 70, 1
11, 156100, Note_off_c, 9, 70, 64
11, 156100, Note_on_c, 9, 46, 1
11, 156104, Note_off_c, 9, 46, 64
11, 156192, Note_on_c, 9, 60, 1
11, 156196, Note_off_c, 9, 60, 64
11, 156288, Note_on_c, 9, 35, 1
11, 156292, Note_off_c, 9, 35, 64
11, 156292, Note_on_c, 9, 40, 1
11, 156292, Note_on_c, 9, 44, 1
11, 156296, Note_off_c, 9, 44, 64
11, 156296, Note_off_c, 9, 40, 64
11, 156296, Note_on_c, 9, 39, 1
11, 156300, Note_off_c, 9, 39, 64
11, 156384, Note_on_c, 9, 60, 1
11, 156388, Note_off_c, 9, 60, 64
11, 156480, Note_on_c, 9, 70, 1
11, 156480, Note_on_c, 9, 63, 1
11, 156484, Note_off_c, 9, 63, 64
11, 156484, Note_off_c, 9, 70, 64
11, 156484, Note_on_c, 9, 46, 1
11, 156488, Note_off_c, 9, 46, 64
11, 158208, End_track
12, 0, Start_track
12, 0, Title_t, "STRINGS"
12, 2128, Program_c, 10, 48
12, 2132, Control_c, 10, 7, 105
12, 2132, Control_c, 10, 10, 64
12, 2132, Control_c, 10, 11, 127
12, 2136, Control_c, 10, 91, 60
12, 2136, Control_c, 10, 93, 0
12, 4620, Note_on_c, 10, 85, 68
12, 4620, Note_on_c, 10, 73, 68
12, 4624, Control_c, 10, 1, 0
12, 4624, Pitch_bend_c, 10, 8192
12, 5168, Note_off_c, 10, 73, 64
12, 5168, Note_off_c, 10, 85, 64
12, 5172, Note_on_c, 10, 87, 68
12, 5172, Note_on_c, 10, 75, 68
12, 5736, Note_off_c, 10, 75, 64
12, 5736, Note_off_c, 10, 87, 64
12, 5740, Note_on_c, 10, 80, 55
12, 5740, Note_on_c, 10, 68, 57
12, 6104, Note_off_c, 10, 68, 64
12, 6104, Note_off_c, 10, 80, 64
12, 6108, Note_on_c, 10, 87, 68
12, 6108, Note_on_c, 10, 75, 68
12, 6720, Note_off_c, 10, 75, 64
12, 6720, Note_off_c, 10, 87, 64
12, 6724, Note_on_c, 10, 89, 84
12, 6724, Note_on_c, 10, 77, 84
12, 7204, Note_off_c, 10, 77, 64
12, 7204, Note_off_c, 10, 89, 64
12, 7276, Note_on_c, 10, 92, 71
12, 7276, Note_on_c, 10, 80, 71
12, 7360, Note_off_c, 10, 80, 64
12, 7360, Note_off_c, 10, 92, 64
12, 7364, Note_on_c, 10, 90, 71
12, 7364, Note_on_c, 10, 78, 71
12, 7444, Note_off_c, 10, 78, 64
12, 7444, Note_off_c, 10, 90, 64
12, 7452, Note_on_c, 10, 89, 78
12, 7452, Note_on_c, 10, 77, 78
12, 7520, Note_off_c, 10, 77, 64
12, 7520, Note_off_c, 10, 89, 64
12, 7560, Note_on_c, 10, 85, 75
12, 7560, Note_on_c, 10, 73, 75
12, 8244, Note_off_c, 10, 73, 64
12, 8244, Note_off_c, 10, 85, 64
12, 8248, Note_on_c, 10, 87, 71
12, 8248, Note_on_c, 10, 75, 71
12, 8824, Note_off_c, 10, 75, 64
12, 8824, Note_off_c, 10, 87, 64
12, 8828, Note_on_c, 10, 80, 45
12, 8828, Note_on_c, 10, 68, 44
12, 9948, Note_off_c, 10, 68, 64
12, 9948, Note_off_c, 10, 80, 64
12, 10368, Note_on_c, 10, 92, 75
12, 10368, Note_on_c, 10, 80, 75
12, 10452, Note_off_c, 10, 80, 64
12, 10452, Note_off_c, 10, 92, 64
12, 10456, Note_on_c, 10, 90, 71
12, 10456, Note_on_c, 10, 78, 71
12, 10544, Note_off_c, 10, 78, 64
12, 10544, Note_off_c, 10, 90, 64
12, 10548, Note_on_c, 10, 89, 84
12, 10548, Note_on_c, 10, 77, 84
12, 10628, Note_off_c, 10, 77, 64
12, 10628, Note_off_c, 10, 89, 64
12, 10656, Note_on_c, 10, 85, 75
12, 10656, Note_on_c, 10, 73, 75
12, 11316, Note_off_c, 10, 73, 64
12, 11316, Note_off_c, 10, 85, 64
12, 11320, Note_on_c, 10, 87, 71
12, 11320, Note_on_c, 10, 75, 71
12, 11880, Note_off_c, 10, 75, 64
12, 11880, Note_off_c, 10, 87, 64
12, 11884, Note_on_c, 10, 80, 55
12, 11884, Note_on_c, 10, 68, 56
12, 12276, Note_off_c, 10, 68, 64
12, 12276, Note_off_c, 10, 80, 64
12, 12280, Note_on_c, 10, 87, 68
12, 12280, Note_on_c, 10, 75, 68
12, 12860, Note_off_c, 10, 75, 64
12, 12860, Note_off_c, 10, 87, 64
12, 12864, Note_on_c, 10, 89, 75
12, 12864, Note_on_c, 10, 77, 75
12, 13408, Note_off_c, 10, 77, 64
12, 13408, Note_off_c, 10, 89, 64
12, 13456, Note_on_c, 10, 92, 68
12, 13456, Note_on_c, 10, 80, 68
12, 13532, Note_off_c, 10, 80, 64
12, 13532, Note_off_c, 10, 92, 64
12, 13536, Note_on_c, 10, 90, 62
12, 13536, Note_on_c, 10, 78, 62
12, 13616, Note_off_c, 10, 78, 64
12, 13616, Note_off_c, 10, 90, 64
12, 13624, Note_on_c, 10, 89, 68
12, 13624, Note_on_c, 10, 77, 68
12, 13696, Note_off_c, 10, 77, 64
12, 13696, Note_off_c, 10, 89, 64
12, 13732, Note_on_c, 10, 85, 62
12, 13732, Note_on_c, 10, 73, 62
12, 14372, Note_off_c, 10, 73, 64
12, 14372, Note_off_c, 10, 85, 64
12, 14376, Note_on_c, 10, 87, 71
12, 14376, Note_on_c, 10, 75, 71
12, 14952, Note_off_c, 10, 75, 64
12, 14952, Note_off_c, 10, 87, 64
12, 14956, Note_on_c, 10, 80, 43
12, 14956, Note_on_c, 10, 68, 44
12, 16388, Note_off_c, 10, 68, 64
12, 16388, Note_off_c, 10, 80, 64
12, 35340, Note_on_c, 10, 85, 68
12, 35340, Note_on_c, 10, 73, 68
12, 35888, Note_off_c, 10, 73, 64
12, 35888, Note_off_c, 10, 85, 64
12, 35892, Note_on_c, 10, 87, 68
12, 35892, Note_on_c, 10, 75, 68
12, 36456, Note_off_c, 10, 75, 64
12, 36456, Note_off_c, 10, 87, 64
12, 36460, Note_on_c, 10, 80, 55
12, 36460, Note_on_c, 10, 68, 57
12, 36824, Note_off_c, 10, 68, 64
12, 36824, Note_off_c, 10, 80, 64
12, 36828, Note_on_c, 10, 87, 68
12, 36828, Note_on_c, 10, 75, 68
12, 37440, Note_off_c, 10, 75, 64
12, 37440, Note_off_c, 10, 87, 64
12, 37444, Note_on_c, 10, 89, 84
12, 37444, Note_on_c, 10, 77, 84
12, 37924, Note_off_c, 10, 77, 64
12, 37924, Note_off_c, 10, 89, 64
12, 37996, Note_on_c, 10, 92, 71
12, 37996, Note_on_c, 10, 80, 71
12, 38080, Note_off_c, 10, 80, 64
12, 38080, Note_off_c, 10, 92, 64
12, 38084, Note_on_c, 10, 90, 71
12, 38084, Note_on_c, 10, 78, 71
12, 38164, Note_off_c, 10, 78, 64
12, 38164, Note_off_c, 10, 90, 64
12, 38172, Note_on_c, 10, 89, 78
12, 38172, Note_on_c, 10, 77, 78
12, 38240, Note_off_c, 10, 77, 64
12, 38240, Note_off_c, 10, 89, 64
12, 38280, Note_on_c, 10, 85, 75
12, 38280, Note_on_c, 10, 73, 75
12, 38964, Note_off_c, 10, 73, 64
12, 38964, Note_off_c, 10, 85, 64
12, 38968, Note_on_c, 10, 87, 71
12, 38968, Note_on_c, 10, 75, 71
12, 39544, Note_off_c, 10, 75, 64
12, 39544, Note_off_c, 10, 87, 64
12, 39548, Note_on_c, 10, 80, 45
12, 39548, Note_on_c, 10, 68, 44
12, 40668, Note_off_c, 10, 68, 64
12, 40668, Note_off_c, 10, 80, 64
12, 41088, Note_on_c, 10, 92, 75
12, 41088, Note_on_c, 10, 80, 75
12, 41172, Note_off_c, 10, 80, 64
12, 41172, Note_off_c, 10, 92, 64
12, 41176, Note_on_c, 10, 90, 71
12, 41176, Note_on_c, 10, 78, 71
12, 41264, Note_off_c, 10, 78, 64
12, 41264, Note_off_c, 10, 90, 64
12, 41268, Note_on_c, 10, 89, 84
12, 41268, Note_on_c, 10, 77, 84
12, 41348, Note_off_c, 10, 77, 64
12, 41348, Note_off_c, 10, 89, 64
12, 41376, Note_on_c, 10, 85, 75
12, 41376, Note_on_c, 10, 73, 75
12, 42036, Note_off_c, 10, 73, 64
12, 42036, Note_off_c, 10, 85, 64
12, 42040, Note_on_c, 10, 87, 71
12, 42040, Note_on_c, 10, 75, 71
12, 42600, Note_off_c, 10, 75, 64
12, 42600, Note_off_c, 10, 87, 64
12, 42604, Note_on_c, 10, 80, 55
12, 42604, Note_on_c, 10, 68, 56
12, 42996, Note_off_c, 10, 68, 64
12, 42996, Note_off_c, 10, 80, 64
12, 43000, Note_on_c, 10, 87, 68
12, 43000, Note_on_c, 10, 75, 68
12, 43580, Note_off_c, 10, 75, 64
12, 43580, Note_off_c, 10, 87, 64
12, 43584, Note_on_c, 10, 89, 75
12, 43584, Note_on_c, 10, 77, 75
12, 44128, Note_off_c, 10, 77, 64
12, 44128, Note_off_c, 10, 89, 64
12, 44176, Note_on_c, 10, 92, 68
12, 44176, Note_on_c, 10, 80, 68
12, 44252, Note_off_c, 10, 80, 64
12, 44252, Note_off_c, 10, 92, 64
12, 44256, Note_on_c, 10, 90, 62
12, 44256, Note_on_c, 10, 78, 62
12, 44336, Note_off_c, 10, 78, 64
12, 44336, Note_off_c, 10, 90, 64
12, 44344, Note_on_c, 10, 89, 68
12, 44344, Note_on_c, 10, 77, 68
12, 44416, Note_off_c, 10, 77, 64
12, 44416, Note_off_c, 10, 89, 64
12, 44452, Note_on_c, 10, 85, 62
12, 44452, Note_on_c, 10, 73, 62
12, 45092, Note_off_c, 10, 73, 64
12, 45092, Note_off_c, 10, 85, 64
12, 45096, Note_on_c, 10, 87, 71
12, 45096, Note_on_c, 10, 75, 71
12, 45672, Note_off_c, 10, 75, 64
12, 45672, Note_off_c, 10, 87, 64
12, 45676, Note_on_c, 10, 80, 43
12, 45676, Note_on_c, 10, 68, 44
12, 47108, Note_off_c, 10, 68, 64
12, 47108, Note_off_c, 10, 80, 64
12, 66060, Note_on_c, 10, 85, 68
12, 66060, Note_on_c, 10, 73, 68
12, 66608, Note_off_c, 10, 73, 64
12, 66608, Note_off_c, 10, 85, 64
12, 66612, Note_on_c, 10, 87, 68
12, 66612, Note_on_c, 10, 75, 68
12, 67176, Note_off_c, 10, 75, 64
12, 67176, Note_off_c, 10, 87, 64
12, 67180, Note_on_c, 10, 80, 55
12, 67180, Note_on_c, 10, 68, 57
12, 67544, Note_off_c, 10, 68, 64
12, 67544, Note_off_c, 10, 80, 64
12, 67548, Note_on_c, 10, 87, 68
12, 67548, Note_on_c, 10, 75, 68
12, 68160, Note_off_c, 10, 75, 64
12, 68160, Note_off_c, 10, 87, 64
12, 68164, Note_on_c, 10, 89, 84
12, 68164, Note_on_c, 10, 77, 84
12, 68644, Note_off_c, 10, 77, 64
12, 68644, Note_off_c, 10, 89, 64
12, 68716, Note_on_c, 10, 92, 71
12, 68716, Note_on_c, 10, 80, 71
12, 68800, Note_off_c, 10, 80, 64
12, 68800, Note_off_c, 10, 92, 64
12, 68804, Note_on_c, 10, 90, 71
12, 68804, Note_on_c, 10, 78, 71
12, 68884, Note_off_c, 10, 78, 64
12, 68884, Note_off_c, 10, 90, 64
12, 68892, Note_on_c, 10, 89, 78
12, 68892, Note_on_c, 10, 77, 78
12, 68960, Note_off_c, 10, 77, 64
12, 68960, Note_off_c, 10, 89, 64
12, 69000, Note_on_c, 10, 85, 75
12, 69000, Note_on_c, 10, 73, 75
12, 69684, Note_off_c, 10, 73, 64
12, 69684, Note_off_c, 10, 85, 64
12, 69688, Note_on_c, 10, 87, 71
12, 69688, Note_on_c, 10, 75, 71
12, 70264, Note_off_c, 10, 75, 64
12, 70264, Note_off_c, 10, 87, 64
12, 70268, Note_on_c, 10, 80, 45
12, 70268, Note_on_c, 10, 68, 44
12, 71388, Note_off_c, 10, 68, 64
12, 71388, Note_off_c, 10, 80, 64
12, 71808, Note_on_c, 10, 92, 75
12, 71808, Note_on_c, 10, 80, 75
12, 71892, Note_off_c, 10, 80, 64
12, 71892, Note_off_c, 10, 92, 64
12, 71896, Note_on_c, 10, 90, 71
12, 71896, Note_on_c, 10, 78, 71
12, 71984, Note_off_c, 10, 78, 64
12, 71984, Note_off_c, 10, 90, 64
12, 71988, Note_on_c, 10, 89, 84
12, 71988, Note_on_c, 10, 77, 84
12, 72068, Note_off_c, 10, 77, 64
12, 72068, Note_off_c, 10, 89, 64
12, 72096, Note_on_c, 10, 85, 75
12, 72096, Note_on_c, 10, 73, 75
12, 72756, Note_off_c, 10, 73, 64
12, 72756, Note_off_c, 10, 85, 64
12, 72760, Note_on_c, 10, 87, 71
12, 72760, Note_on_c, 10, 75, 71
12, 73320, Note_off_c, 10, 75, 64
12, 73320, Note_off_c, 10, 87, 64
12, 73324, Note_on_c, 10, 80, 55
12, 73324, Note_on_c, 10, 68, 56
12, 73716, Note_off_c, 10, 68, 64
12, 73716, Note_off_c, 10, 80, 64
12, 73720, Note_on_c, 10, 87, 68
12, 73720, Note_on_c, 10, 75, 68
12, 74300, Note_off_c, 10, 75, 64
12, 74300, Note_off_c, 10, 87, 64
12, 74304, Note_on_c, 10, 89, 75
12, 74304, Note_on_c, 10, 77, 75
12, 74848, Note_off_c, 10, 77, 64
12, 74848, Note_off_c, 10, 89, 64
12, 74896, Note_on_c, 10, 92, 68
12, 74896, Note_on_c, 10, 80, 68
12, 74972, Note_off_c, 10, 80, 64
12, 74972, Note_off_c, 10, 92, 64
12, 74976, Note_on_c, 10, 90, 62
12, 74976, Note_on_c, 10, 78, 62
12, 75056, Note_off_c, 10, 78, 64
12, 75056, Note_off_c, 10, 90, 64
12, 75064, Note_on_c, 10, 89, 68
12, 75064, Note_on_c, 10, 77, 68
12, 75136, Note_off_c, 10, 77, 64
12, 75136, Note_off_c, 10, 89, 64
12, 75172, Note_on_c, 10, 85, 62
12, 75172, Note_on_c, 10, 73, 62
12, 75812, Note_off_c, 10, 73, 64
12, 75812, Note_off_c, 10, 85, 64
12, 75816, Note_on_c, 10, 87, 71
12, 75816, Note_on_c, 10, 75, 71
12, 76392, Note_off_c, 10, 75, 64
12, 76392, Note_off_c, 10, 87, 64
12, 76396, Note_on_c, 10, 80, 43
12, 76396, Note_on_c, 10, 68, 44
12, 77828, Note_off_c, 10, 68, 64
12, 77828, Note_off_c, 10, 80, 64
12, 78348, Note_on_c, 10, 85, 68
12, 78348, Note_on_c, 10, 73, 68
12, 78896, Note_off_c, 10, 73, 64
12, 78896, Note_off_c, 10, 85, 64
12, 78900, Note_on_c, 10, 87, 68
12, 78900, Note_on_c, 10, 75, 68
12, 79464, Note_off_c, 10, 75, 64
12, 79464, Note_off_c, 10, 87, 64
12, 79468, Note_on_c, 10, 80, 55
12, 79468, Note_on_c, 10, 68, 57
12, 79832, Note_off_c, 10, 68, 64
12, 79832, Note_off_c, 10, 80, 64
12, 79836, Note_on_c, 10, 87, 68
12, 79836, Note_on_c, 10, 75, 68
12, 80448, Note_off_c, 10, 75, 64
12, 80448, Note_off_c, 10, 87, 64
12, 80452, Note_on_c, 10, 89, 84
12, 80452, Note_on_c, 10, 77, 84
12, 80932, Note_off_c, 10, 77, 64
12, 80932, Note_off_c, 10, 89, 64
12, 81004, Note_on_c, 10, 92, 71
12, 81004, Note_on_c, 10, 80, 71
12, 81088, Note_off_c, 10, 80, 64
12, 81088, Note_off_c, 10, 92, 64
12, 81092, Note_on_c, 10, 90, 71
12, 81092, Note_on_c, 10, 78, 71
12, 81172, Note_off_c, 10, 78, 64
12, 81172, Note_off_c, 10, 90, 64
12, 81180, Note_on_c, 10, 89, 78
12, 81180, Note_on_c, 10, 77, 78
12, 81248, Note_off_c, 10, 77, 64
12, 81248, Note_off_c, 10, 89, 64
12, 81288, Note_on_c, 10, 85, 75
12, 81288, Note_on_c, 10, 73, 75
12, 81972, Note_off_c, 10, 73, 64
12, 81972, Note_off_c, 10, 85, 64
12, 81976, Note_on_c, 10, 87, 71
12, 81976, Note_on_c, 10, 75, 71
12, 82552, Note_off_c, 10, 75, 64
12, 82552, Note_off_c, 10, 87, 64
12, 82556, Note_on_c, 10, 80, 45
12, 82556, Note_on_c, 10, 68, 44
12, 83676, Note_off_c, 10, 68, 64
12, 83676, Note_off_c, 10, 80, 64
12, 84096, Note_on_c, 10, 92, 75
12, 84096, Note_on_c, 10, 80, 75
12, 84180, Note_off_c, 10, 80, 64
12, 84180, Note_off_c, 10, 92, 64
12, 84184, Note_on_c, 10, 90, 71
12, 84184, Note_on_c, 10, 78, 71
12, 84272, Note_off_c, 10, 78, 64
12, 84272, Note_off_c, 10, 90, 64
12, 84276, Note_on_c, 10, 89, 84
12, 84276, Note_on_c, 10, 77, 84
12, 84356, Note_off_c, 10, 77, 64
12, 84356, Note_off_c, 10, 89, 64
12, 84384, Note_on_c, 10, 85, 75
12, 84384, Note_on_c, 10, 73, 75
12, 85044, Note_off_c, 10, 73, 64
12, 85044, Note_off_c, 10, 85, 64
12, 85048, Note_on_c, 10, 87, 71
12, 85048, Note_on_c, 10, 75, 71
12, 85608, Note_off_c, 10, 75, 64
12, 85608, Note_off_c, 10, 87, 64
12, 85612, Note_on_c, 10, 80, 55
12, 85612, Note_on_c, 10, 68, 56
12, 86004, Note_off_c, 10, 68, 64
12, 86004, Note_off_c, 10, 80, 64
12, 86008, Note_on_c, 10, 87, 68
12, 86008, Note_on_c, 10, 75, 68
12, 86588, Note_off_c, 10, 75, 64
12, 86588, Note_off_c, 10, 87, 64
12, 86592, Note_on_c, 10, 89, 75
12, 86592, Note_on_c, 10, 77, 75
12, 87136, Note_off_c, 10, 77, 64
12, 87136, Note_off_c, 10, 89, 64
12, 87184, Note_on_c, 10, 92, 68
12, 87184, Note_on_c, 10, 80, 68
12, 87260, Note_off_c, 10, 80, 64
12, 87260, Note_off_c, 10, 92, 64
12, 87264, Note_on_c, 10, 90, 62
12, 87264, Note_on_c, 10, 78, 62
12, 87344, Note_off_c, 10, 78, 64
12, 87344, Note_off_c, 10, 90, 64
12, 87352, Note_on_c, 10, 89, 68
12, 87352, Note_on_c, 10, 77, 68
12, 87424, Note_off_c, 10, 77, 64
12, 87424, Note_off_c, 10, 89, 64
12, 87460, Note_on_c, 10, 85, 62
12, 87460, Note_on_c, 10, 73, 62
12, 88100, Note_off_c, 10, 73, 64
12, 88100, Note_off_c, 10, 85, 64
12, 88104, Note_on_c, 10, 87, 71
12, 88104, Note_on_c, 10, 75, 71
12, 88680, Note_off_c, 10, 75, 64
12, 88680, Note_off_c, 10, 87, 64
12, 88684, Note_on_c, 10, 80, 43
12, 88684, Note_on_c, 10, 68, 44
12, 90116, Note_off_c, 10, 68, 64
12, 90116, Note_off_c, 10, 80, 64
12, 115208, Note_on_c, 10, 85, 50
12, 115208, Note_on_c, 10, 73, 48
12, 116524, Note_on_c, 10, 87, 52
12, 116536, Note_on_c, 10, 75, 44
12, 116544, Note_off_c, 10, 73, 64
12, 116544, Note_off_c, 10, 85, 64
12, 117484, Note_on_c, 10, 89, 65
12, 117488, Note_off_c, 10, 87, 64
12, 117492, Note_on_c, 10, 77, 61
12, 117496, Note_off_c, 10, 75, 64
12, 118268, Note_on_c, 10, 82, 50
12, 118268, Note_on_c, 10, 70, 48
12, 118272, Note_off_c, 10, 77, 64
12, 118272, Note_off_c, 10, 89, 64
12, 119636, Note_off_c, 10, 82, 64
12, 119644, Note_off_c, 10, 70, 64
12, 121356, Note_on_c, 10, 85, 68
12, 121356, Note_on_c, 10, 73, 68
12, 121904, Note_off_c, 10, 73, 64
12, 121904, Note_off_c, 10, 85, 64
12, 121908, Note_on_c, 10, 87, 68
12, 121908, Note_on_c, 10, 75, 68
12, 122472, Note_off_c, 10, 75, 64
12, 122472, Note_off_c, 10, 87, 64
12, 122476, Note_on_c, 10, 80, 55
12, 122476, Note_on_c, 10, 68, 57
12, 122840, Note_off_c, 10, 68, 64
12, 122840, Note_off_c, 10, 80, 64
12, 122844, Note_on_c, 10, 87, 68
12, 122844, Note_on_c, 10, 75, 68
12, 123456, Note_off_c, 10, 75, 64
12, 123456, Note_off_c, 10, 87, 64
12, 123460, Note_on_c, 10, 89, 84
12, 123460, Note_on_c, 10, 77, 84
12, 123940, Note_off_c, 10, 77, 64
12, 123940, Note_off_c, 10, 89, 64
12, 124012, Note_on_c, 10, 92, 71
12, 124012, Note_on_c, 10, 80, 71
12, 124096, Note_off_c, 10, 80, 64
12, 124096, Note_off_c, 10, 92, 64
12, 124100, Note_on_c, 10, 90, 71
12, 124100, Note_on_c, 10, 78, 71
12, 124180, Note_off_c, 10, 78, 64
12, 124180, Note_off_c, 10, 90, 64
12, 124188, Note_on_c, 10, 89, 78
12, 124188, Note_on_c, 10, 77, 78
12, 124256, Note_off_c, 10, 77, 64
12, 124256, Note_off_c, 10, 89, 64
12, 124296, Note_on_c, 10, 85, 75
12, 124296, Note_on_c, 10, 73, 75
12, 124980, Note_off_c, 10, 73, 64
12, 124980, Note_off_c, 10, 85, 64
12, 124984, Note_on_c, 10, 87, 71
12, 124984, Note_on_c, 10, 75, 71
12, 125560, Note_off_c, 10, 75, 64
12, 125560, Note_off_c, 10, 87, 64
12, 125564, Note_on_c, 10, 80, 45
12, 125564, Note_on_c, 10, 68, 44
12, 126684, Note_off_c, 10, 68, 64
12, 126684, Note_off_c, 10, 80, 64
12, 127104, Note_on_c, 10, 92, 75
12, 127104, Note_on_c, 10, 80, 75
12, 127188, Note_off_c, 10, 80, 64
12, 127188, Note_off_c, 10, 92, 64
12, 127192, Note_on_c, 10, 90, 71
12, 127192, Note_on_c, 10, 78, 71
12, 127280, Note_off_c, 10, 78, 64
12, 127280, Note_off_c, 10, 90, 64
12, 127284, Note_on_c, 10, 89, 84
12, 127284, Note_on_c, 10, 77, 84
12, 127364, Note_off_c, 10, 77, 64
12, 127364, Note_off_c, 10, 89, 64
12, 127392, Note_on_c, 10, 85, 75
12, 127392, Note_on_c, 10, 73, 75
12, 128052, Note_off_c, 10, 73, 64
12, 128052, Note_off_c, 10, 85, 64
12, 128056, Note_on_c, 10, 87, 71
12, 128056, Note_on_c, 10, 75, 71
12, 128616, Note_off_c, 10, 75, 64
12, 128616, Note_off_c, 10, 87, 64
12, 128620, Note_on_c, 10, 80, 55
12, 128620, Note_on_c, 10, 68, 56
12, 129012, Note_off_c, 10, 68, 64
12, 129012, Note_off_c, 10, 80, 64
12, 129016, Note_on_c, 10, 87, 68
12, 129016, Note_on_c, 10, 75, 68
12, 129596, Note_off_c, 10, 75, 64
12, 129596, Note_off_c, 10, 87, 64
12, 129600, Note_on_c, 10, 89, 75
12, 129600, Note_on_c, 10, 77, 75
12, 130144, Note_off_c, 10, 77, 64
12, 130144, Note_off_c, 10, 89, 64
12, 130192, Note_on_c, 10, 92, 68
12, 130192, Note_on_c, 10, 80, 68
12, 130268, Note_off_c, 10, 80, 64
12, 130268, Note_off_c, 10, 92, 64
12, 130272, Note_on_c, 10, 90, 62
12, 130272, Note_on_c, 10, 78, 62
12, 130352, Note_off_c, 10, 78, 64
12, 130352, Note_off_c, 10, 90, 64
12, 130360, Note_on_c, 10, 89, 68
12, 130360, Note_on_c, 10, 77, 68
12, 130432, Note_off_c, 10, 77, 64
12, 130432, Note_off_c, 10, 89, 64
12, 130468, Note_on_c, 10, 85, 62
12, 130468, Note_on_c, 10, 73, 62
12, 131108, Note_off_c, 10, 73, 64
12, 131108, Note_off_c, 10, 85, 64
12, 131112, Note_on_c, 10, 87, 71
12, 131112, Note_on_c, 10, 75, 71
12, 131688, Note_off_c, 10, 75, 64
12, 131688, Note_off_c, 10, 87, 64
12, 131692, Note_on_c, 10, 80, 43
12, 131692, Note_on_c, 10, 68, 44
12, 133124, Note_off_c, 10, 68, 64
12, 133124, Note_off_c, 10, 80, 64
12, 133644, Note_on_c, 10, 85, 68
12, 133644, Note_on_c, 10, 73, 68
12, 134192, Note_off_c, 10, 73, 64
12, 134192, Note_off_c, 10, 85, 64
12, 134196, Note_on_c, 10, 87, 68
12, 134196, Note_on_c, 10, 75, 68
12, 134760, Note_off_c, 10, 75, 64
12, 134760, Note_off_c, 10, 87, 64
12, 134764, Note_on_c, 10, 80, 55
12, 134764, Note_on_c, 10, 68, 57
12, 135128, Note_off_c, 10, 68, 64
12, 135128, Note_off_c, 10, 80, 64
12, 135132, Note_on_c, 10, 87, 68
12, 135132, Note_on_c, 10, 75, 68
12, 135744, Note_off_c, 10, 75, 64
12, 135744, Note_off_c, 10, 87, 64
12, 135748, Note_on_c, 10, 89, 84
12, 135748, Note_on_c, 10, 77, 84
12, 136228, Note_off_c, 10, 77, 64
12, 136228, Note_off_c, 10, 89, 64
12, 136300, Note_on_c, 10, 92, 71
12, 136300, Note_on_c, 10, 80, 71
12, 136384, Note_off_c, 10, 80, 64
12, 136384, Note_off_c, 10, 92, 64
12, 136388, Note_on_c, 10, 90, 71
12, 136388, Note_on_c, 10, 78, 71
12, 136468, Note_off_c, 10, 78, 64
12, 136468, Note_off_c, 10, 90, 64
12, 136476, Note_on_c, 10, 89, 78
12, 136476, Note_on_c, 10, 77, 78
12, 136544, Note_off_c, 10, 77, 64
12, 136544, Note_off_c, 10, 89, 64
12, 136584, Note_on_c, 10, 85, 75
12, 136584, Note_on_c, 10, 73, 75
12, 137268, Note_off_c, 10, 73, 64
12, 137268, Note_off_c, 10, 85, 64
12, 137272, Note_on_c, 10, 87, 71
12, 137272, Note_on_c, 10, 75, 71
12, 137848, Note_off_c, 10, 75, 64
12, 137848, Note_off_c, 10, 87, 64
12, 137852, Note_on_c, 10, 80, 45
12, 137852, Note_on_c, 10, 68, 44
12, 138972, Note_off_c, 10, 68, 64
12, 138972, Note_off_c, 10, 80, 64
12, 139392, Note_on_c, 10, 92, 75
12, 139392, Note_on_c, 10, 80, 75
12, 139476, Note_off_c, 10, 80, 64
12, 139476, Note_off_c, 10, 92, 64
12, 139480, Note_on_c, 10, 90, 71
12, 139480, Note_on_c, 10, 78, 71
12, 139568, Note_off_c, 10, 78, 64
12, 139568, Note_off_c, 10, 90, 64
12, 139572, Note_on_c, 10, 89, 84
12, 139572, Note_on_c, 10, 77, 84
12, 139652, Note_off_c, 10, 77, 64
12, 139652, Note_off_c, 10, 89, 64
12, 139680, Note_on_c, 10, 85, 75
12, 139680, Note_on_c, 10, 73, 75
12, 140340, Note_off_c, 10, 73, 64
12, 140340, Note_off_c, 10, 85, 64
12, 140344, Note_on_c, 10, 87, 71
12, 140344, Note_on_c, 10, 75, 71
12, 140904, Note_off_c, 10, 75, 64
12, 140904, Note_off_c, 10, 87, 64
12, 140908, Note_on_c, 10, 80, 55
12, 140908, Note_on_c, 10, 68, 56
12, 141300, Note_off_c, 10, 68, 64
12, 141300, Note_off_c, 10, 80, 64
12, 141304, Note_on_c, 10, 87, 68
12, 141304, Note_on_c, 10, 75, 68
12, 141884, Note_off_c, 10, 75, 64
12, 141884, Note_off_c, 10, 87, 64
12, 141888, Note_on_c, 10, 89, 75
12, 141888, Note_on_c, 10, 77, 75
12, 142432, Note_off_c, 10, 77, 64
12, 142432, Note_off_c, 10, 89, 64
12, 142480, Note_on_c, 10, 92, 68
12, 142480, Note_on_c, 10, 80, 68
12, 142556, Note_off_c, 10, 80, 64
12, 142556, Note_off_c, 10, 92, 64
12, 142560, Note_on_c, 10, 90, 62
12, 142560, Note_on_c, 10, 78, 62
12, 142640, Note_off_c, 10, 78, 64
12, 142640, Note_off_c, 10, 90, 64
12, 142648, Note_on_c, 10, 89, 68
12, 142648, Note_on_c, 10, 77, 68
12, 142720, Note_off_c, 10, 77, 64
12, 142720, Note_off_c, 10, 89, 64
12, 142756, Note_on_c, 10, 85, 62
12, 142756, Note_on_c, 10, 73, 62
12, 143396, Note_off_c, 10, 73, 64
12, 143396, Note_off_c, 10, 85, 64
12, 143400, Note_on_c, 10, 87, 71
12, 143400, Note_on_c, 10, 75, 71
12, 143976, Note_off_c, 10, 75, 64
12, 143976, Note_off_c, 10, 87, 64
12, 143980, Note_on_c, 10, 80, 43
12, 143980, Note_on_c, 10, 68, 44
12, 145412, Note_off_c, 10, 68, 64
12, 145412, Note_off_c, 10, 80, 64
12, 145932, Note_on_c, 10, 85, 68
12, 145932, Note_on_c, 10, 73, 68
12, 146480, Note_off_c, 10, 73, 64
12, 146480, Note_off_c, 10, 85, 64
12, 146484, Note_on_c, 10, 87, 64
12, 146484, Note_on_c, 10, 75, 64
12, 147048, Note_off_c, 10, 75, 64
12, 147048, Note_off_c, 10, 87, 64
12, 147052, Note_on_c, 10, 80, 48
12, 147052, Note_on_c, 10, 68, 50
12, 147416, Note_off_c, 10, 68, 64
12, 147416, Note_off_c, 10, 80, 64
12, 147420, Note_on_c, 10, 87, 57
12, 147420, Note_on_c, 10, 75, 57
12, 148032, Note_off_c, 10, 75, 64
12, 148032, Note_off_c, 10, 87, 64
12, 148036, Note_on_c, 10, 89, 65
12, 148036, Note_on_c, 10, 77, 65
12, 148516, Note_off_c, 10, 77, 64
12, 148516, Note_off_c, 10, 89, 64
12, 148588, Note_on_c, 10, 92, 50
12, 148588, Note_on_c, 10, 80, 50
12, 148672, Note_off_c, 10, 80, 64
12, 148672, Note_off_c, 10, 92, 64
12, 148676, Note_on_c, 10, 90, 49
12, 148676, Note_on_c, 10, 78, 49
12, 148756, Note_off_c, 10, 78, 64
12, 148756, Note_off_c, 10, 90, 64
12, 148764, Note_on_c, 10, 89, 53
12, 148764, Note_on_c, 10, 77, 53
12, 148832, Note_off_c, 10, 77, 64
12, 148832, Note_off_c, 10, 89, 64
12, 148872, Note_on_c, 10, 85, 50
12, 148872, Note_on_c, 10, 73, 50
12, 149556, Note_off_c, 10, 73, 64
12, 149556, Note_off_c, 10, 85, 64
12, 149560, Note_on_c, 10, 87, 41
12, 149560, Note_on_c, 10, 75, 41
12, 150136, Note_off_c, 10, 75, 64
12, 150136, Note_off_c, 10, 87, 64
12, 150140, Note_on_c, 10, 80, 20
12, 150140, Note_on_c, 10, 68, 19
12, 151260, Note_off_c, 10, 68, 64
12, 151260, Note_off_c, 10, 80, 64
12, 151680, Note_on_c, 10, 92, 25
12, 151680, Note_on_c, 10, 80, 25
12, 151764, Note_off_c, 10, 80, 64
12, 151764, Note_off_c, 10, 92, 64
12, 151768, Note_on_c, 10, 90, 22
12, 151768, Note_on_c, 10, 78, 22
12, 151856, Note_off_c, 10, 78, 64
12, 151856, Note_off_c, 10, 90, 64
12, 151860, Note_on_c, 10, 89, 27
12, 151860, Note_on_c, 10, 77, 27
12, 151940, Note_off_c, 10, 77, 64
12, 151940, Note_off_c, 10, 89, 64
12, 151968, Note_on_c, 10, 85, 22
12, 151968, Note_on_c, 10, 73, 22
12, 152628, Note_off_c, 10, 73, 64
12, 152628, Note_off_c, 10, 85, 64
12, 152632, Note_on_c, 10, 87, 15
12, 152632, Note_on_c, 10, 75, 15
12, 153192, Note_off_c, 10, 75, 64
12, 153192, Note_off_c, 10, 87, 64
12, 153196, Note_on_c, 10, 80, 5
12, 153196, Note_on_c, 10, 68, 5
12, 153588, Note_off_c, 10, 68, 64
12, 153588, Note_off_c, 10, 80, 64
12, 153592, Note_on_c, 10, 87, 6
12, 153592, Note_on_c, 10, 75, 6
12, 154172, Note_off_c, 10, 75, 64
12, 154172, Note_off_c, 10, 87, 64
12, 154176, Note_on_c, 10, 89, 3
12, 154176, Note_on_c, 10, 77, 3
12, 154720, Note_off_c, 10, 77, 64
12, 154720, Note_off_c, 10, 89, 64
12, 154768, Note_on_c, 10, 92, 1
12, 154768, Note_on_c, 10, 80, 1
12, 154844, Note_off_c, 10, 80, 64
12, 154844, Note_off_c, 10, 92, 64
12, 154848, Note_on_c, 10, 90, 1
12, 154848, Note_on_c, 10, 78, 1
12, 154928, Note_off_c, 10, 78, 64
12, 154928, Note_off_c, 10, 90, 64
12, 154936, Note_on_c, 10, 89, 1
12, 154936, Note_on_c, 10, 77, 1
12, 155008, Note_off_c, 10, 77, 64
12, 155008, Note_off_c, 10, 89, 64
12, 155044, Note_on_c, 10, 85, 1
12, 155044, Note_on_c, 10, 73, 1
12, 155684, Note_off_c, 10, 73, 64
12, 155684, Note_off_c, 10, 85, 64
12, 155688, Note_on_c, 10, 87, 1
12, 155688, Note_on_c, 10, 75, 1
12, 156280, Note_off_c, 10, 75, 64
12, 156280, Note_off_c, 10, 87, 64
12, 158208, End_track
13, 0, Start_track
13, 0, Title_t, "TRUMPET"
13, 2148, Program_c, 11, 56
13, 2152, Control_c, 11, 7, 75
13, 2152, Control_c, 11, 10, 40
13, 2152, Control_c, 11, 11, 127
13, 2156, Control_c, 11, 91, 66
13, 2156, Control_c, 11, 93, 0
13, 10180, Note_on_c, 11, 80, 104
13, 10180, Note_on_c, 11, 68, 84
13, 10184, Control_c, 11, 1, 0
13, 10184, Pitch_bend_c, 11, 8192
13, 10232, Note_off_c, 11, 80, 64
13, 10236, Note_off_c, 11, 68, 64
13, 10276, Note_on_c, 11, 80, 104
13, 10276, Note_on_c, 11, 68, 84
13, 10332, Note_off_c, 11, 80, 64
13, 10340, Note_off_c, 11, 68, 64
13, 10372, Note_on_c, 11, 82, 104
13, 10372, Note_on_c, 11, 70, 84
13, 10416, Note_off_c, 11, 82, 64
13, 10420, Note_off_c, 11, 70, 64
13, 10468, Note_on_c, 11, 85, 95
13, 10468, Note_on_c, 11, 73, 71
13, 10524, Note_off_c, 11, 85, 64
13, 10532, Note_off_c, 11, 73, 64
13, 10556, Note_on_c, 11, 82, 109
13, 10560, Note_on_c, 11, 70, 84
13, 10604, Note_off_c, 11, 82, 64
13, 10616, Note_off_c, 11, 70, 64
13, 10656, Note_on_c, 11, 85, 104
13, 10660, Note_on_c, 11, 73, 84
13, 10736, Note_off_c, 11, 85, 64
13, 10764, Note_off_c, 11, 73, 64
13, 16128, Note_on_c, 11, 85, 95
13, 16128, Note_on_c, 11, 80, 104
13, 16128, Note_on_c, 11, 73, 95
13, 16160, Note_off_c, 11, 73, 64
13, 16164, Note_off_c, 11, 80, 64
13, 16172, Note_off_c, 11, 85, 64
13, 16220, Note_on_c, 11, 85, 95
13, 16224, Note_on_c, 11, 80, 95
13, 16224, Note_on_c, 11, 73, 82
13, 16256, Note_off_c, 11, 73, 64
13, 16260, Note_off_c, 11, 80, 64
13, 16276, Note_off_c, 11, 85, 64
13, 16420, Note_on_c, 11, 73, 56
13, 16420, Note_on_c, 11, 80, 56
13, 16420, Note_on_c, 11, 85, 56
13, 16456, Note_off_c, 11, 73, 64
13, 16464, Note_off_c, 11, 80, 64
13, 16468, Note_off_c, 11, 85, 64
13, 16512, Note_on_c, 11, 85, 104
13, 16512, Note_on_c, 11, 80, 104
13, 16512, Note_on_c, 11, 73, 109
13, 16548, Note_off_c, 11, 73, 64
13, 16552, Note_off_c, 11, 80, 64
13, 16560, Note_off_c, 11, 85, 64
13, 16604, Note_on_c, 11, 85, 95
13, 16612, Note_on_c, 11, 73, 91
13, 16612, Note_on_c, 11, 80, 104
13, 16644, Note_off_c, 11, 80, 64
13, 16644, Note_off_c, 11, 73, 64
13, 16656, Note_off_c, 11, 85, 64
13, 16708, Note_on_c, 11, 73, 53
13, 16708, Note_on_c, 11, 85, 53
13, 16708, Note_on_c, 11, 80, 53
13, 16740, Note_off_c, 11, 80, 64
13, 16752, Note_off_c, 11, 73, 64
13, 16756, Note_off_c, 11, 85, 64
13, 16800, Note_on_c, 11, 85, 109
13, 16800, Note_on_c, 11, 80, 114
13, 16804, Note_on_c, 11, 73, 109
13, 16840, Note_off_c, 11, 73, 64
13, 16844, Note_off_c, 11, 80, 64
13, 16864, Note_off_c, 11, 85, 64
13, 26112, Note_on_c, 11, 80, 95
13, 26112, Note_on_c, 11, 68, 91
13, 27836, Note_on_c, 11, 77, 109
13, 27844, Note_on_c, 11, 65, 98
13, 27852, Note_off_c, 11, 68, 64
13, 27860, Note_off_c, 11, 80, 64
13, 28232, Note_on_c, 11, 75, 91
13, 28240, Note_off_c, 11, 77, 64
13, 28244, Note_on_c, 11, 63, 91
13, 28248, Note_off_c, 11, 65, 64
13, 28604, Note_on_c, 11, 73, 95
13, 28608, Note_on_c, 11, 61, 91
13, 28624, Note_off_c, 11, 75, 64
13, 28628, Note_off_c, 11, 63, 64
13, 29004, Note_on_c, 11, 70, 104
13, 29012, Note_off_c, 11, 73, 64
13, 29012, Note_on_c, 11, 58, 91
13, 29016, Note_off_c, 11, 61, 64
13, 30576, Note_off_c, 11, 70, 64
13, 30588, Note_off_c, 11, 58, 64
13, 34756, Note_on_c, 11, 80, 104
13, 34756, Note_on_c, 11, 68, 84
13, 34808, Note_off_c, 11, 80, 64
13, 34812, Note_off_c, 11, 68, 64
13, 34852, Note_on_c, 11, 80, 104
13, 34852, Note_on_c, 11, 68, 84
13, 34908, Note_off_c, 11, 80, 64
13, 34916, Note_off_c, 11, 68, 64
13, 34948, Note_on_c, 11, 82, 104
13, 34948, Note_on_c, 11, 70, 84
13, 34992, Note_off_c, 11, 82, 64
13, 34996, Note_off_c, 11, 70, 64
13, 35044, Note_on_c, 11, 85, 95
13, 35044, Note_on_c, 11, 73, 71
13, 35100, Note_off_c, 11, 85, 64
13, 35108, Note_off_c, 11, 73, 64
13, 35132, Note_on_c, 11, 82, 109
13, 35136, Note_on_c, 11, 70, 84
13, 35180, Note_off_c, 11, 82, 64
13, 35192, Note_off_c, 11, 70, 64
13, 35232, Note_on_c, 11, 85, 104
13, 35236, Note_on_c, 11, 73, 84
13, 35312, Note_off_c, 11, 85, 64
13, 35340, Note_off_c, 11, 73, 64
13, 40900, Note_on_c, 11, 80, 104
13, 40900, Note_on_c, 11, 68, 84
13, 40952, Note_off_c, 11, 80, 64
13, 40956, Note_off_c, 11, 68, 64
13, 40996, Note_on_c, 11, 80, 104
13, 40996, Note_on_c, 11, 68, 84
13, 41052, Note_off_c, 11, 80, 64
13, 41060, Note_off_c, 11, 68, 64
13, 41092, Note_on_c, 11, 82, 104
13, 41092, Note_on_c, 11, 70, 84
13, 41136, Note_off_c, 11, 82, 64
13, 41140, Note_off_c, 11, 70, 64
13, 41188, Note_on_c, 11, 85, 95
13, 41188, Note_on_c, 11, 73, 71
13, 41244, Note_off_c, 11, 85, 64
13, 41252, Note_off_c, 11, 73, 64
13, 41276, Note_on_c, 11, 82, 109
13, 41280, Note_on_c, 11, 70, 84
13, 41324, Note_off_c, 11, 82, 64
13, 41336, Note_off_c, 11, 70, 64
13, 41376, Note_on_c, 11, 85, 104
13, 41380, Note_on_c, 11, 73, 84
13, 41456, Note_off_c, 11, 85, 64
13, 41484, Note_off_c, 11, 73, 64
13, 46848, Note_on_c, 11, 85, 95
13, 46848, Note_on_c, 11, 80, 104
13, 46848, Note_on_c, 11, 73, 95
13, 46880, Note_off_c, 11, 73, 64
13, 46884, Note_off_c, 11, 80, 64
13, 46892, Note_off_c, 11, 85, 64
13, 46940, Note_on_c, 11, 85, 95
13, 46944, Note_on_c, 11, 80, 95
13, 46944, Note_on_c, 11, 73, 82
13, 46976, Note_off_c, 11, 73, 64
13, 46980, Note_off_c, 11, 80, 64
13, 46996, Note_off_c, 11, 85, 64
13, 47140, Note_on_c, 11, 73, 56
13, 47140, Note_on_c, 11, 80, 56
13, 47140, Note_on_c, 11, 85, 56
13, 47176, Note_off_c, 11, 73, 64
13, 47184, Note_off_c, 11, 80, 64
13, 47188, Note_off_c, 11, 85, 64
13, 47232, Note_on_c, 11, 85, 104
13, 47232, Note_on_c, 11, 80, 104
13, 47232, Note_on_c, 11, 73, 109
13, 47268, Note_off_c, 11, 73, 64
13, 47272, Note_off_c, 11, 80, 64
13, 47280, Note_off_c, 11, 85, 64
13, 47324, Note_on_c, 11, 85, 95
13, 47332, Note_on_c, 11, 73, 91
13, 47332, Note_on_c, 11, 80, 104
13, 47364, Note_off_c, 11, 80, 64
13, 47364, Note_off_c, 11, 73, 64
13, 47376, Note_off_c, 11, 85, 64
13, 47428, Note_on_c, 11, 73, 53
13, 47428, Note_on_c, 11, 85, 53
13, 47428, Note_on_c, 11, 80, 53
13, 47460, Note_off_c, 11, 80, 64
13, 47472, Note_off_c, 11, 73, 64
13, 47476, Note_off_c, 11, 85, 64
13, 47520, Note_on_c, 11, 85, 109
13, 47520, Note_on_c, 11, 80, 114
13, 47524, Note_on_c, 11, 73, 109
13, 47560, Note_off_c, 11, 73, 64
13, 47564, Note_off_c, 11, 80, 64
13, 47584, Note_off_c, 11, 85, 64
13, 47812, Note_on_c, 11, 85, 83
13, 47812, Note_on_c, 11, 80, 83
13, 47812, Note_on_c, 11, 73, 83
13, 47856, Note_off_c, 11, 73, 64
13, 47856, Note_off_c, 11, 80, 64
13, 47864, Note_off_c, 11, 85, 64
13, 56840, Note_on_c, 11, 80, 109
13, 56848, Note_on_c, 11, 68, 88
13, 58528, Note_off_c, 11, 80, 64
13, 58536, Note_off_c, 11, 68, 64
13, 58576, Note_on_c, 11, 77, 109
13, 58584, Note_on_c, 11, 65, 104
13, 58924, Note_off_c, 11, 65, 64
13, 58940, Note_off_c, 11, 77, 64
13, 58964, Note_on_c, 11, 75, 95
13, 58972, Note_on_c, 11, 63, 95
13, 59308, Note_off_c, 11, 63, 64
13, 59328, Note_off_c, 11, 75, 64
13, 59348, Note_on_c, 11, 73, 104
13, 59364, Note_on_c, 11, 61, 95
13, 59732, Note_on_c, 11, 70, 109
13, 59736, Note_off_c, 11, 73, 64
13, 59744, Note_off_c, 11, 61, 64
13, 59744, Note_on_c, 11, 58, 104
13, 61276, Note_off_c, 11, 70, 64
13, 61288, Note_off_c, 11, 58, 64
13, 65476, Note_on_c, 11, 80, 104
13, 65476, Note_on_c, 11, 68, 84
13, 65528, Note_off_c, 11, 80, 64
13, 65532, Note_off_c, 11, 68, 64
13, 65572, Note_on_c, 11, 80, 104
13, 65572, Note_on_c, 11, 68, 84
13, 65628, Note_off_c, 11, 80, 64
13, 65636, Note_off_c, 11, 68, 64
13, 65668, Note_on_c, 11, 82, 104
13, 65668, Note_on_c, 11, 70, 84
13, 65712, Note_off_c, 11, 82, 64
13, 65716, Note_off_c, 11, 70, 64
13, 65764, Note_on_c, 11, 85, 95
13, 65764, Note_on_c, 11, 73, 71
13, 65820, Note_off_c, 11, 85, 64
13, 65828, Note_off_c, 11, 73, 64
13, 65852, Note_on_c, 11, 82, 109
13, 65856, Note_on_c, 11, 70, 84
13, 65900, Note_off_c, 11, 82, 64
13, 65912, Note_off_c, 11, 70, 64
13, 65952, Note_on_c, 11, 85, 104
13, 65956, Note_on_c, 11, 73, 84
13, 66032, Note_off_c, 11, 85, 64
13, 66060, Note_off_c, 11, 73, 64
13, 71620, Note_on_c, 11, 80, 104
13, 71620, Note_on_c, 11, 68, 84
13, 71672, Note_off_c, 11, 80, 64
13, 71676, Note_off_c, 11, 68, 64
13, 71716, Note_on_c, 11, 80, 104
13, 71716, Note_on_c, 11, 68, 84
13, 71772, Note_off_c, 11, 80, 64
13, 71780, Note_off_c, 11, 68, 64
13, 71812, Note_on_c, 11, 82, 104
13, 71812, Note_on_c, 11, 70, 84
13, 71856, Note_off_c, 11, 82, 64
13, 71860, Note_off_c, 11, 70, 64
13, 71908, Note_on_c, 11, 85, 95
13, 71908, Note_on_c, 11, 73, 71
13, 71964, Note_off_c, 11, 85, 64
13, 71972, Note_off_c, 11, 73, 64
13, 71996, Note_on_c, 11, 82, 109
13, 72000, Note_on_c, 11, 70, 84
13, 72044, Note_off_c, 11, 82, 64
13, 72056, Note_off_c, 11, 70, 64
13, 72096, Note_on_c, 11, 85, 104
13, 72100, Note_on_c, 11, 73, 84
13, 72176, Note_off_c, 11, 85, 64
13, 72204, Note_off_c, 11, 73, 64
13, 77568, Note_on_c, 11, 85, 95
13, 77568, Note_on_c, 11, 80, 104
13, 77568, Note_on_c, 11, 73, 95
13, 77600, Note_off_c, 11, 73, 64
13, 77604, Note_off_c, 11, 80, 64
13, 77612, Note_off_c, 11, 85, 64
13, 77660, Note_on_c, 11, 85, 95
13, 77664, Note_on_c, 11, 80, 95
13, 77664, Note_on_c, 11, 73, 82
13, 77696, Note_off_c, 11, 73, 64
13, 77700, Note_off_c, 11, 80, 64
13, 77716, Note_off_c, 11, 85, 64
13, 77860, Note_on_c, 11, 73, 56
13, 77860, Note_on_c, 11, 80, 56
13, 77860, Note_on_c, 11, 85, 56
13, 77896, Note_off_c, 11, 73, 64
13, 77904, Note_off_c, 11, 80, 64
13, 77908, Note_off_c, 11, 85, 64
13, 77952, Note_on_c, 11, 85, 104
13, 77952, Note_on_c, 11, 80, 104
13, 77952, Note_on_c, 11, 73, 109
13, 77988, Note_off_c, 11, 73, 64
13, 77992, Note_off_c, 11, 80, 64
13, 78000, Note_off_c, 11, 85, 64
13, 78044, Note_on_c, 11, 85, 95
13, 78052, Note_on_c, 11, 73, 91
13, 78052, Note_on_c, 11, 80, 104
13, 78084, Note_off_c, 11, 80, 64
13, 78084, Note_off_c, 11, 73, 64
13, 78096, Note_off_c, 11, 85, 64
13, 78148, Note_on_c, 11, 73, 53
13, 78148, Note_on_c, 11, 85, 53
13, 78148, Note_on_c, 11, 80, 53
13, 78180, Note_off_c, 11, 80, 64
13, 78192, Note_off_c, 11, 73, 64
13, 78196, Note_off_c, 11, 85, 64
13, 83908, Note_on_c, 11, 80, 104
13, 83908, Note_on_c, 11, 68, 84
13, 83960, Note_off_c, 11, 80, 64
13, 83964, Note_off_c, 11, 68, 64
13, 84004, Note_on_c, 11, 80, 104
13, 84004, Note_on_c, 11, 68, 84
13, 84060, Note_off_c, 11, 80, 64
13, 84068, Note_off_c, 11, 68, 64
13, 84100, Note_on_c, 11, 82, 104
13, 84100, Note_on_c, 11, 70, 84
13, 84144, Note_off_c, 11, 82, 64
13, 84148, Note_off_c, 11, 70, 64
13, 84196, Note_on_c, 11, 85, 95
13, 84196, Note_on_c, 11, 73, 71
13, 84252, Note_off_c, 11, 85, 64
13, 84260, Note_off_c, 11, 73, 64
13, 84284, Note_on_c, 11, 82, 109
13, 84288, Note_on_c, 11, 70, 84
13, 84332, Note_off_c, 11, 82, 64
13, 84344, Note_off_c, 11, 70, 64
13, 84384, Note_on_c, 11, 85, 104
13, 84388, Note_on_c, 11, 73, 84
13, 84464, Note_off_c, 11, 85, 64
13, 84492, Note_off_c, 11, 73, 64
13, 89856, Note_on_c, 11, 85, 95
13, 89856, Note_on_c, 11, 80, 104
13, 89856, Note_on_c, 11, 73, 95
13, 89888, Note_off_c, 11, 73, 64
13, 89892, Note_off_c, 11, 80, 64
13, 89900, Note_off_c, 11, 85, 64
13, 89948, Note_on_c, 11, 85, 95
13, 89952, Note_on_c, 11, 80, 95
13, 89952, Note_on_c, 11, 73, 82
13, 89984, Note_off_c, 11, 73, 64
13, 89988, Note_off_c, 11, 80, 64
13, 90004, Note_off_c, 11, 85, 64
13, 90148, Note_on_c, 11, 73, 56
13, 90148, Note_on_c, 11, 80, 56
13, 90148, Note_on_c, 11, 85, 56
13, 90184, Note_off_c, 11, 73, 64
13, 90192, Note_off_c, 11, 80, 64
13, 90196, Note_off_c, 11, 85, 64
13, 90240, Note_on_c, 11, 85, 104
13, 90240, Note_on_c, 11, 80, 104
13, 90240, Note_on_c, 11, 73, 109
13, 90276, Note_off_c, 11, 73, 64
13, 90280, Note_off_c, 11, 80, 64
13, 90288, Note_off_c, 11, 85, 64
13, 90332, Note_on_c, 11, 85, 95
13, 90340, Note_on_c, 11, 73, 91
13, 90340, Note_on_c, 11, 80, 104
13, 90372, Note_off_c, 11, 80, 64
13, 90372, Note_off_c, 11, 73, 64
13, 90384, Note_off_c, 11, 85, 64
13, 90436, Note_on_c, 11, 73, 53
13, 90436, Note_on_c, 11, 85, 53
13, 90436, Note_on_c, 11, 80, 53
13, 90468, Note_off_c, 11, 80, 64
13, 90480, Note_off_c, 11, 73, 64
13, 90484, Note_off_c, 11, 85, 64
13, 120772, Note_on_c, 11, 80, 104
13, 120772, Note_on_c, 11, 68, 84
13, 120824, Note_off_c, 11, 80, 64
13, 120828, Note_off_c, 11, 68, 64
13, 120868, Note_on_c, 11, 80, 104
13, 120868, Note_on_c, 11, 68, 84
13, 120924, Note_off_c, 11, 80, 64
13, 120932, Note_off_c, 11, 68, 64
13, 120964, Note_on_c, 11, 82, 104
13, 120964, Note_on_c, 11, 70, 84
13, 121008, Note_off_c, 11, 82, 64
13, 121012, Note_off_c, 11, 70, 64
13, 121060, Note_on_c, 11, 85, 95
13, 121060, Note_on_c, 11, 73, 71
13, 121116, Note_off_c, 11, 85, 64
13, 121124, Note_off_c, 11, 73, 64
13, 121148, Note_on_c, 11, 82, 109
13, 121152, Note_on_c, 11, 70, 84
13, 121196, Note_off_c, 11, 82, 64
13, 121208, Note_off_c, 11, 70, 64
13, 121248, Note_on_c, 11, 85, 104
13, 121252, Note_on_c, 11, 73, 84
13, 121328, Note_off_c, 11, 85, 64
13, 121356, Note_off_c, 11, 73, 64
13, 126916, Note_on_c, 11, 80, 104
13, 126916, Note_on_c, 11, 68, 84
13, 126968, Note_off_c, 11, 80, 64
13, 126972, Note_off_c, 11, 68, 64
13, 127012, Note_on_c, 11, 80, 104
13, 127012, Note_on_c, 11, 68, 84
13, 127068, Note_off_c, 11, 80, 64
13, 127076, Note_off_c, 11, 68, 64
13, 127108, Note_on_c, 11, 82, 104
13, 127108, Note_on_c, 11, 70, 84
13, 127152, Note_off_c, 11, 82, 64
13, 127156, Note_off_c, 11, 70, 64
13, 127204, Note_on_c, 11, 85, 95
13, 127204, Note_on_c, 11, 73, 71
13, 127260, Note_off_c, 11, 85, 64
13, 127268, Note_off_c, 11, 73, 64
13, 127292, Note_on_c, 11, 82, 109
13, 127296, Note_on_c, 11, 70, 84
13, 127340, Note_off_c, 11, 82, 64
13, 127352, Note_off_c, 11, 70, 64
13, 127392, Note_on_c, 11, 85, 104
13, 127396, Note_on_c, 11, 73, 84
13, 127472, Note_off_c, 11, 85, 64
13, 127500, Note_off_c, 11, 73, 64
13, 132864, Note_on_c, 11, 85, 95
13, 132864, Note_on_c, 11, 80, 104
13, 132864, Note_on_c, 11, 73, 95
13, 132896, Note_off_c, 11, 73, 64
13, 132900, Note_off_c, 11, 80, 64
13, 132908, Note_off_c, 11, 85, 64
13, 132956, Note_on_c, 11, 85, 95
13, 132960, Note_on_c, 11, 80, 95
13, 132960, Note_on_c, 11, 73, 82
13, 132992, Note_off_c, 11, 73, 64
13, 132996, Note_off_c, 11, 80, 64
13, 133012, Note_off_c, 11, 85, 64
13, 133156, Note_on_c, 11, 73, 56
13, 133156, Note_on_c, 11, 80, 56
13, 133156, Note_on_c, 11, 85, 56
13, 133192, Note_off_c, 11, 73, 64
13, 133200, Note_off_c, 11, 80, 64
13, 133204, Note_off_c, 11, 85, 64
13, 133248, Note_on_c, 11, 85, 104
13, 133248, Note_on_c, 11, 80, 104
13, 133248, Note_on_c, 11, 73, 109
13, 133284, Note_off_c, 11, 73, 64
13, 133288, Note_off_c, 11, 80, 64
13, 133296, Note_off_c, 11, 85, 64
13, 133340, Note_on_c, 11, 85, 95
13, 133348, Note_on_c, 11, 73, 91
13, 133348, Note_on_c, 11, 80, 104
13, 133380, Note_off_c, 11, 80, 64
13, 133380, Note_off_c, 11, 73, 64
13, 133392, Note_off_c, 11, 85, 64
13, 133444, Note_on_c, 11, 73, 53
13, 133444, Note_on_c, 11, 85, 53
13, 133444, Note_on_c, 11, 80, 53
13, 133476, Note_off_c, 11, 80, 64
13, 133488, Note_off_c, 11, 73, 64
13, 133492, Note_off_c, 11, 85, 64
13, 139204, Note_on_c, 11, 80, 104
13, 139204, Note_on_c, 11, 68, 84
13, 139256, Note_off_c, 11, 80, 64
13, 139260, Note_off_c, 11, 68, 64
13, 139300, Note_on_c, 11, 80, 104
13, 139300, Note_on_c, 11, 68, 84
13, 139356, Note_off_c, 11, 80, 64
13, 139364, Note_off_c, 11, 68, 64
13, 139396, Note_on_c, 11, 82, 104
13, 139396, Note_on_c, 11, 70, 84
13, 139440, Note_off_c, 11, 82, 64
13, 139444, Note_off_c, 11, 70, 64
13, 139492, Note_on_c, 11, 85, 95
13, 139492, Note_on_c, 11, 73, 71
13, 139548, Note_off_c, 11, 85, 64
13, 139556, Note_off_c, 11, 73, 64
13, 139580, Note_on_c, 11, 82, 109
13, 139584, Note_on_c, 11, 70, 84
13, 139628, Note_off_c, 11, 82, 64
13, 139640, Note_off_c, 11, 70, 64
13, 139680, Note_on_c, 11, 85, 104
13, 139684, Note_on_c, 11, 73, 84
13, 139760, Note_off_c, 11, 85, 64
13, 139788, Note_off_c, 11, 73, 64
13, 145152, Note_on_c, 11, 85, 95
13, 145152, Note_on_c, 11, 80, 104
13, 145152, Note_on_c, 11, 73, 95
13, 145184, Note_off_c, 11, 73, 64
13, 145188, Note_off_c, 11, 80, 64
13, 145196, Note_off_c, 11, 85, 64
13, 145244, Note_on_c, 11, 85, 95
13, 145248, Note_on_c, 11, 80, 95
13, 145248, Note_on_c, 11, 73, 82
13, 145280, Note_off_c, 11, 73, 64
13, 145284, Note_off_c, 11, 80, 64
13, 145300, Note_off_c, 11, 85, 64
13, 145444, Note_on_c, 11, 73, 56
13, 145444, Note_on_c, 11, 80, 56
13, 145444, Note_on_c, 11, 85, 56
13, 145480, Note_off_c, 11, 73, 64
13, 145488, Note_off_c, 11, 80, 64
13, 145492, Note_off_c, 11, 85, 64
13, 145536, Note_on_c, 11, 85, 104
13, 145536, Note_on_c, 11, 80, 104
13, 145536, Note_on_c, 11, 73, 109
13, 145572, Note_off_c, 11, 73, 64
13, 145576, Note_off_c, 11, 80, 64
13, 145584, Note_off_c, 11, 85, 64
13, 145628, Note_on_c, 11, 85, 95
13, 145636, Note_on_c, 11, 73, 91
13, 145636, Note_on_c, 11, 80, 104
13, 145668, Note_off_c, 11, 80, 64
13, 145668, Note_off_c, 11, 73, 64
13, 145680, Note_off_c, 11, 85, 64
13, 145732, Note_on_c, 11, 73, 53
13, 145732, Note_on_c, 11, 85, 53
13, 145732, Note_on_c, 11, 80, 53
13, 145764, Note_off_c, 11, 80, 64
13, 145776, Note_off_c, 11, 73, 64
13, 145780, Note_off_c, 11, 85, 64
13, 151492, Note_on_c, 11, 80, 52
13, 151492, Note_on_c, 11, 68, 42
13, 151544, Note_off_c, 11, 80, 64
13, 151548, Note_off_c, 11, 68, 64
13, 151588, Note_on_c, 11, 80, 50
13, 151588, Note_on_c, 11, 68, 41
13, 151644, Note_off_c, 11, 80, 64
13, 151652, Note_off_c, 11, 68, 64
13, 151684, Note_on_c, 11, 82, 49
13, 151684, Note_on_c, 11, 70, 40
13, 151728, Note_off_c, 11, 82, 64
13, 151732, Note_off_c, 11, 70, 64
13, 151780, Note_on_c, 11, 85, 44
13, 151780, Note_on_c, 11, 73, 33
13, 151836, Note_off_c, 11, 85, 64
13, 151844, Note_off_c, 11, 73, 64
13, 151868, Note_on_c, 11, 82, 50
13, 151872, Note_on_c, 11, 70, 38
13, 151916, Note_off_c, 11, 82, 64
13, 151928, Note_off_c, 11, 70, 64
13, 151968, Note_on_c, 11, 85, 46
13, 151972, Note_on_c, 11, 73, 37
13, 152048, Note_off_c, 11, 85, 64
13, 152076, Note_off_c, 11, 73, 64
13, 158208, End_track
14, 0, Start_track
14, 0, Title_t, "BRASS 1"
14, 2168, Program_c, 12, 61
14, 2172, Control_c, 12, 7, 90
14, 2172, Control_c, 12, 10, 88
14, 2172, Control_c, 12, 11, 127
14, 2176, Control_c, 12, 91, 60
14, 2176, Control_c, 12, 93, 0
14, 10188, Note_on_c, 12, 80, 104
14, 10188, Note_on_c, 12, 68, 84
14, 10192, Control_c, 12, 1, 0
14, 10192, Pitch_bend_c, 12, 8192
14, 10240, Note_off_c, 12, 80, 64
14, 10244, Note_off_c, 12, 68, 64
14, 10284, Note_on_c, 12, 80, 104
14, 10284, Note_on_c, 12, 68, 84
14, 10340, Note_off_c, 12, 80, 64
14, 10348, Note_off_c, 12, 68, 64
14, 10380, Note_on_c, 12, 82, 104
14, 10380, Note_on_c, 12, 70, 84
14, 10424, Note_off_c, 12, 82, 64
14, 10428, Note_off_c, 12, 70, 64
14, 10476, Note_on_c, 12, 85, 95
14, 10476, Note_on_c, 12, 73, 71
14, 10532, Note_off_c, 12, 85, 64
14, 10540, Note_off_c, 12, 73, 64
14, 10564, Note_on_c, 12, 82, 109
14, 10568, Note_on_c, 12, 70, 84
14, 10612, Note_off_c, 12, 82, 64
14, 10624, Note_off_c, 12, 70, 64
14, 10664, Note_on_c, 12, 85, 104
14, 10668, Note_on_c, 12, 73, 84
14, 10744, Note_off_c, 12, 85, 64
14, 10772, Note_off_c, 12, 73, 64
14, 16136, Note_on_c, 12, 85, 95
14, 16136, Note_on_c, 12, 80, 104
14, 16136, Note_on_c, 12, 73, 95
14, 16168, Note_off_c, 12, 73, 64
14, 16172, Note_off_c, 12, 80, 64
14, 16180, Note_off_c, 12, 85, 64
14, 16228, Note_on_c, 12, 85, 95
14, 16232, Note_on_c, 12, 80, 95
14, 16232, Note_on_c, 12, 73, 82
14, 16264, Note_off_c, 12, 73, 64
14, 16268, Note_off_c, 12, 80, 64
14, 16284, Note_off_c, 12, 85, 64
14, 16428, Note_on_c, 12, 73, 56
14, 16428, Note_on_c, 12, 80, 56
14, 16428, Note_on_c, 12, 85, 56
14, 16464, Note_off_c, 12, 73, 64
14, 16472, Note_off_c, 12, 80, 64
14, 16476, Note_off_c, 12, 85, 64
14, 16520, Note_on_c, 12, 85, 104
14, 16520, Note_on_c, 12, 80, 104
14, 16520, Note_on_c, 12, 73, 109
14, 16556, Note_off_c, 12, 73, 64
14, 16560, Note_off_c, 12, 80, 64
14, 16568, Note_off_c, 12, 85, 64
14, 16612, Note_on_c, 12, 85, 95
14, 16620, Note_on_c, 12, 73, 91
14, 16620, Note_on_c, 12, 80, 104
14, 16652, Note_off_c, 12, 80, 64
14, 16652, Note_off_c, 12, 73, 64
14, 16664, Note_off_c, 12, 85, 64
14, 16716, Note_on_c, 12, 73, 53
14, 16716, Note_on_c, 12, 85, 53
14, 16716, Note_on_c, 12, 80, 53
14, 16748, Note_off_c, 12, 80, 64
14, 16760, Note_off_c, 12, 73, 64
14, 16764, Note_off_c, 12, 85, 64
14, 16808, Note_on_c, 12, 85, 109
14, 16808, Note_on_c, 12, 80, 114
14, 16812, Note_on_c, 12, 73, 109
14, 16848, Note_off_c, 12, 73, 64
14, 16852, Note_off_c, 12, 80, 64
14, 16872, Note_off_c, 12, 85, 64
14, 26120, Note_on_c, 12, 80, 95
14, 26120, Note_on_c, 12, 68, 91
14, 27844, Note_on_c, 12, 77, 109
14, 27852, Note_on_c, 12, 65, 98
14, 27860, Note_off_c, 12, 68, 64
14, 27868, Note_off_c, 12, 80, 64
14, 28240, Note_on_c, 12, 75, 91
14, 28248, Note_off_c, 12, 77, 64
14, 28252, Note_on_c, 12, 63, 91
14, 28256, Note_off_c, 12, 65, 64
14, 28612, Note_on_c, 12, 73, 95
14, 28616, Note_on_c, 12, 61, 91
14, 28632, Note_off_c, 12, 75, 64
14, 28636, Note_off_c, 12, 63, 64
14, 29012, Note_on_c, 12, 70, 104
14, 29020, Note_off_c, 12, 73, 64
14, 29020, Note_on_c, 12, 58, 91
14, 29024, Note_off_c, 12, 61, 64
14, 30584, Note_off_c, 12, 70, 64
14, 30596, Note_off_c, 12, 58, 64
14, 34764, Note_on_c, 12, 80, 104
14, 34764, Note_on_c, 12, 68, 84
14, 34816, Note_off_c, 12, 80, 64
14, 34820, Note_off_c, 12, 68, 64
14, 34860, Note_on_c, 12, 80, 104
14, 34860, Note_on_c, 12, 68, 84
14, 34916, Note_off_c, 12, 80, 64
14, 34924, Note_off_c, 12, 68, 64
14, 34956, Note_on_c, 12, 82, 104
14, 34956, Note_on_c, 12, 70, 84
14, 35000, Note_off_c, 12, 82, 64
14, 35004, Note_off_c, 12, 70, 64
14, 35052, Note_on_c, 12, 85, 95
14, 35052, Note_on_c, 12, 73, 71
14, 35108, Note_off_c, 12, 85, 64
14, 35116, Note_off_c, 12, 73, 64
14, 35140, Note_on_c, 12, 82, 109
14, 35144, Note_on_c, 12, 70, 84
14, 35188, Note_off_c, 12, 82, 64
14, 35200, Note_off_c, 12, 70, 64
14, 35240, Note_on_c, 12, 85, 104
14, 35244, Note_on_c, 12, 73, 84
14, 35320, Note_off_c, 12, 85, 64
14, 35348, Note_off_c, 12, 73, 64
14, 40908, Note_on_c, 12, 80, 104
14, 40960, Note_off_c, 12, 80, 64
14, 41004, Note_on_c, 12, 80, 104
14, 41060, Note_off_c, 12, 80, 64
14, 41100, Note_on_c, 12, 82, 104
14, 41144, Note_off_c, 12, 82, 64
14, 41196, Note_on_c, 12, 85, 95
14, 41252, Note_off_c, 12, 85, 64
14, 41284, Note_on_c, 12, 82, 109
14, 41332, Note_off_c, 12, 82, 64
14, 41384, Note_on_c, 12, 85, 104
14, 41464, Note_off_c, 12, 85, 64
14, 46856, Note_on_c, 12, 85, 95
14, 46856, Note_on_c, 12, 80, 104
14, 46856, Note_on_c, 12, 73, 95
14, 46888, Note_off_c, 12, 73, 64
14, 46892, Note_off_c, 12, 80, 64
14, 46900, Note_off_c, 12, 85, 64
14, 46948, Note_on_c, 12, 85, 95
14, 46952, Note_on_c, 12, 80, 95
14, 46952, Note_on_c, 12, 73, 82
14, 46984, Note_off_c, 12, 73, 64
14, 46988, Note_off_c, 12, 80, 64
14, 47004, Note_off_c, 12, 85, 64
14, 47148, Note_on_c, 12, 73, 56
14, 47148, Note_on_c, 12, 80, 56
14, 47148, Note_on_c, 12, 85, 56
14, 47184, Note_off_c, 12, 73, 64
14, 47192, Note_off_c, 12, 80, 64
14, 47196, Note_off_c, 12, 85, 64
14, 47240, Note_on_c, 12, 85, 104
14, 47240, Note_on_c, 12, 80, 104
14, 47240, Note_on_c, 12, 73, 109
14, 47276, Note_off_c, 12, 73, 64
14, 47280, Note_off_c, 12, 80, 64
14, 47288, Note_off_c, 12, 85, 64
14, 47332, Note_on_c, 12, 85, 95
14, 47340, Note_on_c, 12, 73, 91
14, 47340, Note_on_c, 12, 80, 104
14, 47372, Note_off_c, 12, 80, 64
14, 47372, Note_off_c, 12, 73, 64
14, 47384, Note_off_c, 12, 85, 64
14, 47436, Note_on_c, 12, 73, 53
14, 47436, Note_on_c, 12, 85, 53
14, 47436, Note_on_c, 12, 80, 53
14, 47468, Note_off_c, 12, 80, 64
14, 47480, Note_off_c, 12, 73, 64
14, 47484, Note_off_c, 12, 85, 64
14, 47528, Note_on_c, 12, 85, 109
14, 47528, Note_on_c, 12, 80, 114
14, 47532, Note_on_c, 12, 73, 109
14, 47568, Note_off_c, 12, 73, 64
14, 47572, Note_off_c, 12, 80, 64
14, 47592, Note_off_c, 12, 85, 64
14, 47820, Note_on_c, 12, 85, 83
14, 47820, Note_on_c, 12, 80, 83
14, 47820, Note_on_c, 12, 73, 83
14, 47864, Note_off_c, 12, 73, 64
14, 47864, Note_off_c, 12, 80, 64
14, 47872, Note_off_c, 12, 85, 64
14, 56848, Note_on_c, 12, 80, 109
14, 56856, Note_on_c, 12, 68, 88
14, 58536, Note_off_c, 12, 80, 64
14, 58544, Note_off_c, 12, 68, 64
14, 58584, Note_on_c, 12, 77, 109
14, 58592, Note_on_c, 12, 65, 104
14, 58932, Note_off_c, 12, 65, 64
14, 58948, Note_off_c, 12, 77, 64
14, 58972, Note_on_c, 12, 75, 95
14, 58980, Note_on_c, 12, 63, 95
14, 59316, Note_off_c, 12, 63, 64
14, 59336, Note_off_c, 12, 75, 64
14, 59356, Note_on_c, 12, 73, 104
14, 59372, Note_on_c, 12, 61, 95
14, 59740, Note_on_c, 12, 70, 109
14, 59744, Note_off_c, 12, 73, 64
14, 59752, Note_off_c, 12, 61, 64
14, 59752, Note_on_c, 12, 58, 104
14, 61284, Note_off_c, 12, 70, 64
14, 61296, Note_off_c, 12, 58, 64
14, 65484, Note_on_c, 12, 80, 104
14, 65484, Note_on_c, 12, 68, 84
14, 65536, Note_off_c, 12, 80, 64
14, 65540, Note_off_c, 12, 68, 64
14, 65580, Note_on_c, 12, 80, 104
14, 65580, Note_on_c, 12, 68, 84
14, 65636, Note_off_c, 12, 80, 64
14, 65644, Note_off_c, 12, 68, 64
14, 65676, Note_on_c, 12, 82, 104
14, 65676, Note_on_c, 12, 70, 84
14, 65720, Note_off_c, 12, 82, 64
14, 65724, Note_off_c, 12, 70, 64
14, 65772, Note_on_c, 12, 85, 95
14, 65772, Note_on_c, 12, 73, 71
14, 65828, Note_off_c, 12, 85, 64
14, 65836, Note_off_c, 12, 73, 64
14, 65860, Note_on_c, 12, 82, 109
14, 65864, Note_on_c, 12, 70, 84
14, 65908, Note_off_c, 12, 82, 64
14, 65920, Note_off_c, 12, 70, 64
14, 65960, Note_on_c, 12, 85, 104
14, 65964, Note_on_c, 12, 73, 84
14, 66040, Note_off_c, 12, 85, 64
14, 66068, Note_off_c, 12, 73, 64
14, 71628, Note_on_c, 12, 80, 104
14, 71628, Note_on_c, 12, 68, 84
14, 71680, Note_off_c, 12, 80, 64
14, 71684, Note_off_c, 12, 68, 64
14, 71724, Note_on_c, 12, 80, 104
14, 71724, Note_on_c, 12, 68, 84
14, 71780, Note_off_c, 12, 80, 64
14, 71788, Note_off_c, 12, 68, 64
14, 71820, Note_on_c, 12, 82, 104
14, 71820, Note_on_c, 12, 70, 84
14, 71864, Note_off_c, 12, 82, 64
14, 71868, Note_off_c, 12, 70, 64
14, 71916, Note_on_c, 12, 85, 95
14, 71916, Note_on_c, 12, 73, 71
14, 71972, Note_off_c, 12, 85, 64
14, 71980, Note_off_c, 12, 73, 64
14, 72004, Note_on_c, 12, 82, 109
14, 72008, Note_on_c, 12, 70, 84
14, 72052, Note_off_c, 12, 82, 64
14, 72064, Note_off_c, 12, 70, 64
14, 72104, Note_on_c, 12, 85, 104
14, 72108, Note_on_c, 12, 73, 84
14, 72184, Note_off_c, 12, 85, 64
14, 72212, Note_off_c, 12, 73, 64
14, 77576, Note_on_c, 12, 85, 95
14, 77576, Note_on_c, 12, 80, 104
14, 77576, Note_on_c, 12, 73, 95
14, 77608, Note_off_c, 12, 73, 64
14, 77612, Note_off_c, 12, 80, 64
14, 77620, Note_off_c, 12, 85, 64
14, 77668, Note_on_c, 12, 85, 95
14, 77672, Note_on_c, 12, 80, 95
14, 77672, Note_on_c, 12, 73, 82
14, 77704, Note_off_c, 12, 73, 64
14, 77708, Note_off_c, 12, 80, 64
14, 77724, Note_off_c, 12, 85, 64
14, 77868, Note_on_c, 12, 73, 56
14, 77868, Note_on_c, 12, 80, 56
14, 77868, Note_on_c, 12, 85, 56
14, 77904, Note_off_c, 12, 73, 64
14, 77912, Note_off_c, 12, 80, 64
14, 77916, Note_off_c, 12, 85, 64
14, 77960, Note_on_c, 12, 85, 104
14, 77960, Note_on_c, 12, 80, 104
14, 77960, Note_on_c, 12, 73, 109
14, 77996, Note_off_c, 12, 73, 64
14, 78000, Note_off_c, 12, 80, 64
14, 78008, Note_off_c, 12, 85, 64
14, 78052, Note_on_c, 12, 85, 95
14, 78060, Note_on_c, 12, 73, 91
14, 78060, Note_on_c, 12, 80, 104
14, 78092, Note_off_c, 12, 80, 64
14, 78092, Note_off_c, 12, 73, 64
14, 78104, Note_off_c, 12, 85, 64
14, 78156, Note_on_c, 12, 73, 53
14, 78156, Note_on_c, 12, 85, 53
14, 78156, Note_on_c, 12, 80, 53
14, 78188, Note_off_c, 12, 80, 64
14, 78200, Note_off_c, 12, 73, 64
14, 78204, Note_off_c, 12, 85, 64
14, 83916, Note_on_c, 12, 80, 104
14, 83916, Note_on_c, 12, 68, 84
14, 83968, Note_off_c, 12, 80, 64
14, 83972, Note_off_c, 12, 68, 64
14, 84012, Note_on_c, 12, 80, 104
14, 84012, Note_on_c, 12, 68, 84
14, 84068, Note_off_c, 12, 80, 64
14, 84076, Note_off_c, 12, 68, 64
14, 84108, Note_on_c, 12, 82, 104
14, 84108, Note_on_c, 12, 70, 84
14, 84152, Note_off_c, 12, 82, 64
14, 84156, Note_off_c, 12, 70, 64
14, 84204, Note_on_c, 12, 85, 95
14, 84204, Note_on_c, 12, 73, 71
14, 84260, Note_off_c, 12, 85, 64
14, 84268, Note_off_c, 12, 73, 64
14, 84292, Note_on_c, 12, 82, 109
14, 84296, Note_on_c, 12, 70, 84
14, 84340, Note_off_c, 12, 82, 64
14, 84352, Note_off_c, 12, 70, 64
14, 84392, Note_on_c, 12, 85, 104
14, 84396, Note_on_c, 12, 73, 84
14, 84472, Note_off_c, 12, 85, 64
14, 84500, Note_off_c, 12, 73, 64
14, 89864, Note_on_c, 12, 85, 95
14, 89864, Note_on_c, 12, 80, 104
14, 89864, Note_on_c, 12, 73, 95
14, 89896, Note_off_c, 12, 73, 64
14, 89900, Note_off_c, 12, 80, 64
14, 89908, Note_off_c, 12, 85, 64
14, 89956, Note_on_c, 12, 85, 95
14, 89960, Note_on_c, 12, 80, 95
14, 89960, Note_on_c, 12, 73, 82
14, 89992, Note_off_c, 12, 73, 64
14, 89996, Note_off_c, 12, 80, 64
14, 90012, Note_off_c, 12, 85, 64
14, 90156, Note_on_c, 12, 73, 56
14, 90156, Note_on_c, 12, 80, 56
14, 90156, Note_on_c, 12, 85, 56
14, 90192, Note_off_c, 12, 73, 64
14, 90200, Note_off_c, 12, 80, 64
14, 90204, Note_off_c, 12, 85, 64
14, 90248, Note_on_c, 12, 85, 104
14, 90248, Note_on_c, 12, 80, 104
14, 90248, Note_on_c, 12, 73, 109
14, 90284, Note_off_c, 12, 73, 64
14, 90288, Note_off_c, 12, 80, 64
14, 90296, Note_off_c, 12, 85, 64
14, 90340, Note_on_c, 12, 85, 95
14, 90348, Note_on_c, 12, 73, 91
14, 90348, Note_on_c, 12, 80, 104
14, 90380, Note_off_c, 12, 80, 64
14, 90380, Note_off_c, 12, 73, 64
14, 90392, Note_off_c, 12, 85, 64
14, 90444, Note_on_c, 12, 73, 53
14, 90444, Note_on_c, 12, 85, 53
14, 90444, Note_on_c, 12, 80, 53
14, 90476, Note_off_c, 12, 80, 64
14, 90488, Note_off_c, 12, 73, 64
14, 90492, Note_off_c, 12, 85, 64
14, 120780, Note_on_c, 12, 80, 104
14, 120780, Note_on_c, 12, 68, 84
14, 120832, Note_off_c, 12, 80, 64
14, 120836, Note_off_c, 12, 68, 64
14, 120876, Note_on_c, 12, 80, 104
14, 120876, Note_on_c, 12, 68, 84
14, 120932, Note_off_c, 12, 80, 64
14, 120940, Note_off_c, 12, 68, 64
14, 120972, Note_on_c, 12, 82, 104
14, 120972, Note_on_c, 12, 70, 84
14, 121016, Note_off_c, 12, 82, 64
14, 121020, Note_off_c, 12, 70, 64
14, 121068, Note_on_c, 12, 85, 95
14, 121068, Note_on_c, 12, 73, 71
14, 121124, Note_off_c, 12, 85, 64
14, 121132, Note_off_c, 12, 73, 64
14, 121156, Note_on_c, 12, 82, 109
14, 121160, Note_on_c, 12, 70, 84
14, 121204, Note_off_c, 12, 82, 64
14, 121216, Note_off_c, 12, 70, 64
14, 121256, Note_on_c, 12, 85, 104
14, 121260, Note_on_c, 12, 73, 84
14, 121336, Note_off_c, 12, 85, 64
14, 121364, Note_off_c, 12, 73, 64
14, 126924, Note_on_c, 12, 80, 104
14, 126924, Note_on_c, 12, 68, 84
14, 126976, Note_off_c, 12, 80, 64
14, 126980, Note_off_c, 12, 68, 64
14, 127020, Note_on_c, 12, 80, 104
14, 127020, Note_on_c, 12, 68, 84
14, 127076, Note_off_c, 12, 80, 64
14, 127084, Note_off_c, 12, 68, 64
14, 127116, Note_on_c, 12, 82, 104
14, 127116, Note_on_c, 12, 70, 84
14, 127160, Note_off_c, 12, 82, 64
14, 127164, Note_off_c, 12, 70, 64
14, 127212, Note_on_c, 12, 85, 95
14, 127212, Note_on_c, 12, 73, 71
14, 127268, Note_off_c, 12, 85, 64
14, 127276, Note_off_c, 12, 73, 64
14, 127300, Note_on_c, 12, 82, 109
14, 127304, Note_on_c, 12, 70, 84
14, 127348, Note_off_c, 12, 82, 64
14, 127360, Note_off_c, 12, 70, 64
14, 127400, Note_on_c, 12, 85, 104
14, 127404, Note_on_c, 12, 73, 84
14, 127480, Note_off_c, 12, 85, 64
14, 127508, Note_off_c, 12, 73, 64
14, 132872, Note_on_c, 12, 85, 95
14, 132872, Note_on_c, 12, 80, 104
14, 132872, Note_on_c, 12, 73, 95
14, 132904, Note_off_c, 12, 73, 64
14, 132908, Note_off_c, 12, 80, 64
14, 132916, Note_off_c, 12, 85, 64
14, 132964, Note_on_c, 12, 85, 95
14, 132968, Note_on_c, 12, 80, 95
14, 132968, Note_on_c, 12, 73, 82
14, 133000, Note_off_c, 12, 73, 64
14, 133004, Note_off_c, 12, 80, 64
14, 133020, Note_off_c, 12, 85, 64
14, 133164, Note_on_c, 12, 73, 56
14, 133164, Note_on_c, 12, 80, 56
14, 133164, Note_on_c, 12, 85, 56
14, 133200, Note_off_c, 12, 73, 64
14, 133208, Note_off_c, 12, 80, 64
14, 133212, Note_off_c, 12, 85, 64
14, 133256, Note_on_c, 12, 85, 104
14, 133256, Note_on_c, 12, 80, 104
14, 133256, Note_on_c, 12, 73, 109
14, 133292, Note_off_c, 12, 73, 64
14, 133296, Note_off_c, 12, 80, 64
14, 133304, Note_off_c, 12, 85, 64
14, 133348, Note_on_c, 12, 85, 95
14, 133356, Note_on_c, 12, 73, 91
14, 133356, Note_on_c, 12, 80, 104
14, 133388, Note_off_c, 12, 80, 64
14, 133388, Note_off_c, 12, 73, 64
14, 133400, Note_off_c, 12, 85, 64
14, 133452, Note_on_c, 12, 73, 53
14, 133452, Note_on_c, 12, 85, 53
14, 133452, Note_on_c, 12, 80, 53
14, 133484, Note_off_c, 12, 80, 64
14, 133496, Note_off_c, 12, 73, 64
14, 133500, Note_off_c, 12, 85, 64
14, 139212, Note_on_c, 12, 80, 104
14, 139212, Note_on_c, 12, 68, 84
14, 139264, Note_off_c, 12, 80, 64
14, 139268, Note_off_c, 12, 68, 64
14, 139308, Note_on_c, 12, 80, 104
14, 139308, Note_on_c, 12, 68, 84
14, 139364, Note_off_c, 12, 80, 64
14, 139372, Note_off_c, 12, 68, 64
14, 139404, Note_on_c, 12, 82, 104
14, 139404, Note_on_c, 12, 70, 84
14, 139448, Note_off_c, 12, 82, 64
14, 139452, Note_off_c, 12, 70, 64
14, 139500, Note_on_c, 12, 85, 95
14, 139500, Note_on_c, 12, 73, 71
14, 139556, Note_off_c, 12, 85, 64
14, 139564, Note_off_c, 12, 73, 64
14, 139588, Note_on_c, 12, 82, 109
14, 139592, Note_on_c, 12, 70, 84
14, 139636, Note_off_c, 12, 82, 64
14, 139648, Note_off_c, 12, 70, 64
14, 139688, Note_on_c, 12, 85, 104
14, 139692, Note_on_c, 12, 73, 84
14, 139768, Note_off_c, 12, 85, 64
14, 139796, Note_off_c, 12, 73, 64
14, 145160, Note_on_c, 12, 85, 95
14, 145160, Note_on_c, 12, 80, 104
14, 145160, Note_on_c, 12, 73, 95
14, 145192, Note_off_c, 12, 73, 64
14, 145196, Note_off_c, 12, 80, 64
14, 145204, Note_off_c, 12, 85, 64
14, 145252, Note_on_c, 12, 85, 95
14, 145256, Note_on_c, 12, 80, 95
14, 145256, Note_on_c, 12, 73, 82
14, 145288, Note_off_c, 12, 73, 64
14, 145292, Note_off_c, 12, 80, 64
14, 145308, Note_off_c, 12, 85, 64
14, 145452, Note_on_c, 12, 73, 56
14, 145452, Note_on_c, 12, 80, 56
14, 145452, Note_on_c, 12, 85, 56
14, 145488, Note_off_c, 12, 73, 64
14, 145496, Note_off_c, 12, 80, 64
14, 145500, Note_off_c, 12, 85, 64
14, 145544, Note_on_c, 12, 85, 104
14, 145544, Note_on_c, 12, 80, 104
14, 145544, Note_on_c, 12, 73, 109
14, 145580, Note_off_c, 12, 73, 64
14, 145584, Note_off_c, 12, 80, 64
14, 145592, Note_off_c, 12, 85, 64
14, 145636, Note_on_c, 12, 85, 95
14, 145644, Note_on_c, 12, 73, 91
14, 145644, Note_on_c, 12, 80, 104
14, 145676, Note_off_c, 12, 80, 64
14, 145676, Note_off_c, 12, 73, 64
14, 145688, Note_off_c, 12, 85, 64
14, 145740, Note_on_c, 12, 73, 53
14, 145740, Note_on_c, 12, 85, 53
14, 145740, Note_on_c, 12, 80, 53
14, 145772, Note_off_c, 12, 80, 64
14, 145784, Note_off_c, 12, 73, 64
14, 145788, Note_off_c, 12, 85, 64
14, 151500, Note_on_c, 12, 80, 52
14, 151500, Note_on_c, 12, 68, 42
14, 151552, Note_off_c, 12, 80, 64
14, 151556, Note_off_c, 12, 68, 64
14, 151596, Note_on_c, 12, 80, 50
14, 151596, Note_on_c, 12, 68, 41
14, 151652, Note_off_c, 12, 80, 64
14, 151660, Note_off_c, 12, 68, 64
14, 151692, Note_on_c, 12, 82, 49
14, 151692, Note_on_c, 12, 70, 40
14, 151736, Note_off_c, 12, 82, 64
14, 151740, Note_off_c, 12, 70, 64
14, 151788, Note_on_c, 12, 85, 44
14, 151788, Note_on_c, 12, 73, 33
14, 151844, Note_off_c, 12, 85, 64
14, 151852, Note_off_c, 12, 73, 64
14, 151876, Note_on_c, 12, 82, 50
14, 151880, Note_on_c, 12, 70, 38
14, 151924, Note_off_c, 12, 82, 64
14, 151936, Note_off_c, 12, 70, 64
14, 151976, Note_on_c, 12, 85, 46
14, 151980, Note_on_c, 12, 73, 37
14, 152056, Note_off_c, 12, 85, 64
14, 152084, Note_off_c, 12, 73, 64
14, 158208, End_track
15, 0, Start_track
15, 0, Title_t, "WHISTLE"
15, 2188, Program_c, 13, 78
15, 2192, Control_c, 13, 7, 40
15, 2192, Control_c, 13, 10, 64
15, 2192, Control_c, 13, 11, 127
15, 2196, Control_c, 13, 91, 60
15, 2196, Control_c, 13, 93, 0
15, 4728, Note_on_c, 13, 77, 88
15, 4732, Control_c, 13, 1, 0
15, 4732, Pitch_bend_c, 13, 8192
15, 4732, Note_on_c, 13, 73, 74
15, 4732, Note_on_c, 13, 66, 73
15, 4732, Note_on_c, 13, 70, 78
15, 5200, Note_off_c, 13, 77, 64
15, 5208, Note_off_c, 13, 66, 64
15, 5212, Note_off_c, 13, 73, 64
15, 5232, Note_off_c, 13, 70, 64
15, 5364, Note_on_c, 13, 75, 74
15, 5368, Note_on_c, 13, 70, 63
15, 5372, Note_on_c, 13, 68, 78
15, 5376, Note_on_c, 13, 72, 80
15, 6000, Note_off_c, 13, 75, 64
15, 6028, Note_off_c, 13, 68, 64
15, 6032, Note_off_c, 13, 72, 64
15, 6032, Note_off_c, 13, 70, 64
15, 6244, Note_on_c, 13, 75, 78
15, 6248, Note_on_c, 13, 68, 80
15, 6248, Note_on_c, 13, 65, 82
15, 6252, Note_on_c, 13, 72, 88
15, 6732, Note_off_c, 13, 72, 64
15, 6796, Note_off_c, 13, 65, 64
15, 6800, Note_off_c, 13, 75, 64
15, 6812, Note_off_c, 13, 68, 64
15, 6904, Note_on_c, 13, 73, 80
15, 6912, Note_on_c, 13, 68, 62
15, 6912, Note_on_c, 13, 65, 85
15, 6912, Note_on_c, 13, 70, 88
15, 7500, Note_off_c, 13, 65, 64
15, 7520, Note_off_c, 13, 68, 64
15, 7556, Note_off_c, 13, 70, 64
15, 7596, Note_off_c, 13, 73, 64
15, 7772, Note_on_c, 13, 77, 91
15, 7772, Note_on_c, 13, 66, 80
15, 7772, Note_on_c, 13, 73, 78
15, 7772, Note_on_c, 13, 70, 80
15, 8240, Note_off_c, 13, 66, 64
15, 8252, Note_off_c, 13, 77, 64
15, 8268, Note_off_c, 13, 70, 64
15, 8272, Note_off_c, 13, 73, 64
15, 8408, Note_on_c, 13, 68, 73
15, 8412, Note_on_c, 13, 75, 73
15, 8416, Note_on_c, 13, 72, 82
15, 8420, Note_on_c, 13, 70, 78
15, 9072, Note_off_c, 13, 72, 64
15, 9076, Note_off_c, 13, 68, 64
15, 9092, Note_off_c, 13, 70, 64
15, 9132, Note_off_c, 13, 75, 64
15, 9316, Note_on_c, 13, 68, 78
15, 9316, Note_on_c, 13, 75, 80
15, 9324, Note_on_c, 13, 72, 95
15, 9612, Note_off_c, 13, 68, 64
15, 9676, Note_off_c, 13, 75, 64
15, 9684, Note_off_c, 13, 72, 64
15, 9728, Note_on_c, 13, 68, 74
15, 9728, Note_on_c, 13, 73, 74
15, 9732, Note_on_c, 13, 77, 85
15, 9872, Note_off_c, 13, 68, 64
15, 9888, Note_off_c, 13, 77, 64
15, 9896, Note_off_c, 13, 73, 64
15, 9992, Note_on_c, 13, 77, 88
15, 9996, Note_on_c, 13, 73, 74
15, 10000, Note_on_c, 13, 68, 80
15, 10476, Note_off_c, 13, 68, 64
15, 10492, Note_off_c, 13, 73, 64
15, 10504, Note_off_c, 13, 77, 64
15, 10804, Note_on_c, 13, 73, 73
15, 10804, Note_on_c, 13, 77, 85
15, 10808, Note_on_c, 13, 66, 78
15, 10812, Note_on_c, 13, 70, 78
15, 11264, Note_off_c, 13, 73, 64
15, 11284, Note_off_c, 13, 77, 64
15, 11308, Note_off_c, 13, 66, 64
15, 11312, Note_off_c, 13, 70, 64
15, 11472, Note_on_c, 13, 68, 74
15, 11472, Note_on_c, 13, 75, 82
15, 11480, Note_on_c, 13, 72, 73
15, 11480, Note_on_c, 13, 70, 74
15, 12104, Note_off_c, 13, 75, 64
15, 12112, Note_off_c, 13, 70, 64
15, 12112, Note_off_c, 13, 72, 64
15, 12128, Note_off_c, 13, 68, 64
15, 12388, Note_on_c, 13, 68, 74
15, 12388, Note_on_c, 13, 75, 78
15, 12388, Note_on_c, 13, 65, 74
15, 12388, Note_on_c, 13, 72, 82
15, 12904, Note_off_c, 13, 72, 64
15, 12920, Note_off_c, 13, 75, 64
15, 12940, Note_off_c, 13, 68, 64
15, 12948, Note_off_c, 13, 65, 64
15, 13048, Note_on_c, 13, 65, 80
15, 13048, Note_on_c, 13, 68, 71
15, 13052, Note_on_c, 13, 73, 78
15, 13056, Note_on_c, 13, 70, 80
15, 13656, Note_off_c, 13, 65, 64
15, 13672, Note_off_c, 13, 68, 64
15, 13688, Note_off_c, 13, 70, 64
15, 13696, Note_off_c, 13, 73, 64
15, 13924, Note_on_c, 13, 73, 73
15, 13928, Note_on_c, 13, 70, 80
15, 13932, Note_on_c, 13, 77, 95
15, 13932, Note_on_c, 13, 66, 82
15, 14368, Note_off_c, 13, 66, 64
15, 14368, Note_off_c, 13, 73, 64
15, 14384, Note_off_c, 13, 70, 64
15, 14388, Note_off_c, 13, 77, 64
15, 14544, Note_on_c, 13, 68, 78
15, 14552, Note_on_c, 13, 70, 80
15, 14552, Note_on_c, 13, 72, 82
15, 14552, Note_on_c, 13, 75, 78
15, 15152, Note_off_c, 13, 68, 64
15, 15156, Note_off_c, 13, 72, 64
15, 15184, Note_off_c, 13, 75, 64
15, 15196, Note_off_c, 13, 70, 64
15, 15436, Note_on_c, 13, 77, 95
15, 15436, Note_on_c, 13, 73, 82
15, 15440, Note_on_c, 13, 68, 82
15, 15592, Note_off_c, 13, 68, 64
15, 15600, Note_off_c, 13, 73, 64
15, 15600, Note_off_c, 13, 77, 64
15, 15752, Note_on_c, 13, 77, 91
15, 15756, Note_on_c, 13, 68, 88
15, 15756, Note_on_c, 13, 73, 80
15, 16068, Note_off_c, 13, 77, 64
15, 16076, Note_off_c, 13, 68, 64
15, 16080, Note_off_c, 13, 73, 64
15, 17036, Note_on_c, 13, 77, 82
15, 17036, Note_on_c, 13, 66, 71
15, 17036, Note_on_c, 13, 73, 71
15, 17040, Note_on_c, 13, 70, 80
15, 18332, Note_off_c, 13, 73, 64
15, 18348, Note_off_c, 13, 66, 64
15, 18348, Note_off_c, 13, 77, 64
15, 18376, Note_off_c, 13, 70, 64
15, 18540, Note_on_c, 13, 75, 73
15, 18540, Note_on_c, 13, 68, 68
15, 18548, Note_on_c, 13, 70, 78
15, 18560, Note_on_c, 13, 72, 80
15, 19888, Note_off_c, 13, 72, 64
15, 19888, Note_off_c, 13, 70, 64
15, 19896, Note_off_c, 13, 68, 64
15, 19912, Note_off_c, 13, 75, 64
15, 20108, Note_on_c, 13, 73, 73
15, 20108, Note_on_c, 13, 77, 85
15, 20108, Note_on_c, 13, 70, 78
15, 20108, Note_on_c, 13, 66, 73
15, 21512, Note_off_c, 13, 66, 64
15, 21512, Note_off_c, 13, 70, 64
15, 21512, Note_off_c, 13, 77, 64
15, 21520, Note_off_c, 13, 73, 64
15, 23184, Note_on_c, 13, 77, 85
15, 23184, Note_on_c, 13, 66, 71
15, 23192, Note_on_c, 13, 70, 73
15, 23192, Note_on_c, 13, 73, 73
15, 24528, Note_off_c, 13, 73, 64
15, 24528, Note_off_c, 13, 66, 64
15, 24528, Note_off_c, 13, 77, 64
15, 24544, Note_off_c, 13, 70, 64
15, 24724, Note_on_c, 13, 75, 78
15, 24728, Note_on_c, 13, 68, 63
15, 24732, Note_on_c, 13, 72, 78
15, 24736, Note_on_c, 13, 70, 78
15, 26040, Note_off_c, 13, 72, 64
15, 26048, Note_off_c, 13, 68, 64
15, 26052, Note_off_c, 13, 70, 64
15, 26076, Note_off_c, 13, 75, 64
15, 26264, Note_on_c, 13, 77, 78
15, 26264, Note_on_c, 13, 66, 73
15, 26264, Note_on_c, 13, 73, 74
15, 26264, Note_on_c, 13, 70, 74
15, 27656, Note_off_c, 13, 70, 64
15, 27656, Note_off_c, 13, 77, 64
15, 27664, Note_off_c, 13, 73, 64
15, 27664, Note_off_c, 13, 66, 64
15, 35472, Note_on_c, 13, 77, 88
15, 35472, Note_on_c, 13, 73, 78
15, 35480, Note_on_c, 13, 66, 78
15, 35480, Note_on_c, 13, 70, 82
15, 35964, Note_off_c, 13, 73, 64
15, 35964, Note_off_c, 13, 77, 64
15, 35968, Note_off_c, 13, 66, 64
15, 36120, Note_on_c, 13, 75, 78
15, 36124, Note_on_c, 13, 68, 73
15, 36132, Note_on_c, 13, 72, 82
15, 36772, Note_off_c, 13, 70, 64
15, 36784, Note_off_c, 13, 68, 64
15, 36804, Note_off_c, 13, 75, 64
15, 36808, Note_off_c, 13, 72, 64
15, 36980, Note_on_c, 13, 75, 80
15, 36984, Note_on_c, 13, 65, 82
15, 36984, Note_on_c, 13, 68, 80
15, 36988, Note_on_c, 13, 72, 88
15, 37496, Note_off_c, 13, 72, 64
15, 37544, Note_off_c, 13, 75, 64
15, 37556, Note_off_c, 13, 68, 64
15, 37560, Note_off_c, 13, 65, 64
15, 37652, Note_on_c, 13, 68, 63
15, 37656, Note_on_c, 13, 73, 82
15, 37660, Note_on_c, 13, 65, 95
15, 37664, Note_on_c, 13, 70, 88
15, 38236, Note_off_c, 13, 65, 64
15, 38292, Note_off_c, 13, 68, 64
15, 38300, Note_off_c, 13, 70, 64
15, 38300, Note_off_c, 13, 73, 64
15, 38508, Note_on_c, 13, 77, 91
15, 38512, Note_on_c, 13, 66, 84
15, 38516, Note_on_c, 13, 70, 85
15, 38516, Note_on_c, 13, 73, 78
15, 38964, Note_off_c, 13, 73, 64
15, 38996, Note_off_c, 13, 66, 64
15, 39004, Note_off_c, 13, 77, 64
15, 39156, Note_on_c, 13, 75, 69
15, 39156, Note_on_c, 13, 68, 76
15, 39164, Note_on_c, 13, 72, 79
15, 39760, Note_off_c, 13, 72, 64
15, 39788, Note_off_c, 13, 70, 64
15, 39796, Note_off_c, 13, 68, 64
15, 39868, Note_off_c, 13, 75, 64
15, 40032, Note_on_c, 13, 75, 79
15, 40032, Note_on_c, 13, 68, 79
15, 40032, Note_on_c, 13, 72, 88
15, 40320, Note_off_c, 13, 68, 64
15, 40360, Note_off_c, 13, 72, 64
15, 40368, Note_off_c, 13, 75, 64
15, 40444, Note_on_c, 13, 77, 91
15, 40448, Note_on_c, 13, 68, 78
15, 40448, Note_on_c, 13, 73, 78
15, 41176, Note_off_c, 13, 73, 64
15, 41180, Note_off_c, 13, 68, 64
15, 41208, Note_off_c, 13, 77, 64
15, 41512, Note_on_c, 13, 77, 88
15, 41512, Note_on_c, 13, 73, 73
15, 41512, Note_on_c, 13, 66, 73
15, 41524, Note_on_c, 13, 70, 80
15, 41952, Note_off_c, 13, 66, 64
15, 41952, Note_off_c, 13, 73, 64
15, 41964, Note_off_c, 13, 77, 64
15, 41972, Note_off_c, 13, 70, 64
15, 42156, Note_on_c, 13, 75, 78
15, 42164, Note_on_c, 13, 68, 73
15, 42168, Note_on_c, 13, 72, 82
15, 42172, Note_on_c, 13, 70, 82
15, 42836, Note_off_c, 13, 70, 64
15, 42872, Note_off_c, 13, 72, 64
15, 42872, Note_off_c, 13, 75, 64
15, 42884, Note_off_c, 13, 68, 64
15, 43108, Note_on_c, 13, 68, 78
15, 43108, Note_on_c, 13, 65, 78
15, 43108, Note_on_c, 13, 75, 80
15, 43112, Note_on_c, 13, 72, 88
15, 43624, Note_off_c, 13, 72, 64
15, 43628, Note_off_c, 13, 68, 64
15, 43636, Note_off_c, 13, 75, 64
15, 43644, Note_off_c, 13, 65, 64
15, 43772, Note_on_c, 13, 73, 88
15, 43776, Note_on_c, 13, 68, 78
15, 43784, Note_on_c, 13, 65, 85
15, 43788, Note_on_c, 13, 70, 80
15, 44388, Note_off_c, 13, 65, 64
15, 44424, Note_off_c, 13, 68, 64
15, 44452, Note_off_c, 13, 70, 64
15, 44452, Note_off_c, 13, 73, 64
15, 44668, Note_on_c, 13, 77, 95
15, 44668, Note_on_c, 13, 73, 74
15, 44668, Note_on_c, 13, 66, 80
15, 44672, Note_on_c, 13, 70, 80
15, 45108, Note_off_c, 13, 73, 64
15, 45120, Note_off_c, 13, 66, 64
15, 45144, Note_off_c, 13, 77, 64
15, 45212, Note_off_c, 13, 70, 64
15, 45300, Note_on_c, 13, 75, 80
15, 45304, Note_on_c, 13, 68, 78
15, 45312, Note_on_c, 13, 72, 82
15, 45312, Note_on_c, 13, 70, 73
15, 45904, Note_off_c, 13, 72, 64
15, 45912, Note_off_c, 13, 70, 64
15, 45964, Note_off_c, 13, 68, 64
15, 46000, Note_off_c, 13, 75, 64
15, 46172, Note_on_c, 13, 68, 78
15, 46176, Note_on_c, 13, 72, 88
15, 46176, Note_on_c, 13, 75, 82
15, 46524, Note_off_c, 13, 68, 64
15, 46548, Note_off_c, 13, 72, 64
15, 46580, Note_off_c, 13, 75, 64
15, 46636, Note_on_c, 13, 68, 74
15, 46636, Note_on_c, 13, 77, 91
15, 46636, Note_on_c, 13, 73, 82
15, 47308, Note_off_c, 13, 73, 64
15, 47324, Note_off_c, 13, 77, 64
15, 47352, Note_off_c, 13, 68, 64
15, 47772, Note_on_c, 13, 77, 85
15, 47772, Note_on_c, 13, 66, 74
15, 47776, Note_on_c, 13, 73, 74
15, 47776, Note_on_c, 13, 70, 80
15, 49028, Note_off_c, 13, 73, 64
15, 49048, Note_off_c, 13, 66, 64
15, 49052, Note_off_c, 13, 77, 64
15, 49060, Note_off_c, 13, 70, 64
15, 49244, Note_on_c, 13, 75, 78
15, 49244, Note_on_c, 13, 68, 73
15, 49256, Note_on_c, 13, 70, 88
15, 49256, Note_on_c, 13, 72, 82
15, 50584, Note_off_c, 13, 72, 64
15, 50604, Note_off_c, 13, 70, 64
15, 50608, Note_off_c, 13, 68, 64
15, 50632, Note_off_c, 13, 75, 64
15, 50808, Note_on_c, 13, 77, 85
15, 50812, Note_on_c, 13, 66, 74
15, 50816, Note_on_c, 13, 73, 74
15, 50816, Note_on_c, 13, 70, 82
15, 52168, Note_off_c, 13, 70, 64
15, 52172, Note_off_c, 13, 66, 64
15, 52180, Note_off_c, 13, 73, 64
15, 52188, Note_off_c, 13, 77, 64
15, 53884, Note_on_c, 13, 66, 67
15, 53884, Note_on_c, 13, 70, 73
15, 53884, Note_on_c, 13, 77, 85
15, 53884, Note_on_c, 13, 73, 73
15, 55244, Note_off_c, 13, 73, 64
15, 55244, Note_off_c, 13, 66, 64
15, 55252, Note_off_c, 13, 77, 64
15, 55292, Note_off_c, 13, 70, 64
15, 55432, Note_on_c, 13, 75, 78
15, 55440, Note_on_c, 13, 68, 71
15, 55448, Note_on_c, 13, 70, 71
15, 55456, Note_on_c, 13, 72, 78
15, 56764, Note_off_c, 13, 72, 64
15, 56780, Note_off_c, 13, 70, 64
15, 56792, Note_off_c, 13, 68, 64
15, 56812, Note_off_c, 13, 75, 64
15, 57008, Note_on_c, 13, 77, 85
15, 57008, Note_on_c, 13, 73, 71
15, 57020, Note_on_c, 13, 66, 71
15, 57028, Note_on_c, 13, 70, 73
15, 58392, Note_off_c, 13, 70, 64
15, 58392, Note_off_c, 13, 66, 64
15, 58392, Note_off_c, 13, 73, 64
15, 58392, Note_off_c, 13, 77, 64
15, 66192, Note_on_c, 13, 77, 88
15, 66192, Note_on_c, 13, 73, 78
15, 66200, Note_on_c, 13, 66, 78
15, 66200, Note_on_c, 13, 70, 82
15, 66684, Note_off_c, 13, 73, 64
15, 66684, Note_off_c, 13, 77, 64
15, 66688, Note_off_c, 13, 66, 64
15, 66840, Note_on_c, 13, 75, 78
15, 66844, Note_on_c, 13, 68, 73
15, 66852, Note_on_c, 13, 72, 82
15, 67492, Note_off_c, 13, 70, 64
15, 67504, Note_off_c, 13, 68, 64
15, 67524, Note_off_c, 13, 75, 64
15, 67528, Note_off_c, 13, 72, 64
15, 67700, Note_on_c, 13, 75, 80
15, 67704, Note_on_c, 13, 65, 82
15, 67704, Note_on_c, 13, 68, 80
15, 67708, Note_on_c, 13, 72, 88
15, 68216, Note_off_c, 13, 72, 64
15, 68264, Note_off_c, 13, 75, 64
15, 68276, Note_off_c, 13, 68, 64
15, 68280, Note_off_c, 13, 65, 64
15, 68372, Note_on_c, 13, 68, 63
15, 68376, Note_on_c, 13, 73, 82
15, 68380, Note_on_c, 13, 65, 95
15, 68384, Note_on_c, 13, 70, 88
15, 68956, Note_off_c, 13, 65, 64
15, 69012, Note_off_c, 13, 68, 64
15, 69020, Note_off_c, 13, 70, 64
15, 69020, Note_off_c, 13, 73, 64
15, 69228, Note_on_c, 13, 77, 91
15, 69232, Note_on_c, 13, 66, 88
15, 69236, Note_on_c, 13, 70, 82
15, 69236, Note_on_c, 13, 73, 82
15, 69684, Note_off_c, 13, 73, 64
15, 69716, Note_off_c, 13, 66, 64
15, 69724, Note_off_c, 13, 77, 64
15, 69876, Note_on_c, 13, 75, 74
15, 69876, Note_on_c, 13, 68, 78
15, 69884, Note_on_c, 13, 72, 82
15, 70480, Note_off_c, 13, 72, 64
15, 70508, Note_off_c, 13, 70, 64
15, 70516, Note_off_c, 13, 68, 64
15, 70588, Note_off_c, 13, 75, 64
15, 70752, Note_on_c, 13, 75, 74
15, 70752, Note_on_c, 13, 68, 78
15, 70752, Note_on_c, 13, 72, 88
15, 71040, Note_off_c, 13, 68, 64
15, 71080, Note_off_c, 13, 72, 64
15, 71088, Note_off_c, 13, 75, 64
15, 71164, Note_on_c, 13, 77, 91
15, 71168, Note_on_c, 13, 68, 78
15, 71168, Note_on_c, 13, 73, 78
15, 71896, Note_off_c, 13, 73, 64
15, 71900, Note_off_c, 13, 68, 64
15, 71928, Note_off_c, 13, 77, 64
15, 72232, Note_on_c, 13, 77, 88
15, 72232, Note_on_c, 13, 73, 73
15, 72232, Note_on_c, 13, 66, 73
15, 72244, Note_on_c, 13, 70, 80
15, 72672, Note_off_c, 13, 66, 64
15, 72672, Note_off_c, 13, 73, 64
15, 72684, Note_off_c, 13, 77, 64
15, 72692, Note_off_c, 13, 70, 64
15, 72876, Note_on_c, 13, 75, 78
15, 72884, Note_on_c, 13, 68, 73
15, 72888, Note_on_c, 13, 72, 82
15, 72892, Note_on_c, 13, 70, 82
15, 73556, Note_off_c, 13, 70, 64
15, 73592, Note_off_c, 13, 72, 64
15, 73592, Note_off_c, 13, 75, 64
15, 73604, Note_off_c, 13, 68, 64
15, 73828, Note_on_c, 13, 68, 78
15, 73828, Note_on_c, 13, 65, 78
15, 73828, Note_on_c, 13, 75, 80
15, 73832, Note_on_c, 13, 72, 88
15, 74344, Note_off_c, 13, 72, 64
15, 74348, Note_off_c, 13, 68, 64
15, 74356, Note_off_c, 13, 75, 64
15, 74364, Note_off_c, 13, 65, 64
15, 74492, Note_on_c, 13, 73, 88
15, 74496, Note_on_c, 13, 68, 78
15, 74504, Note_on_c, 13, 65, 85
15, 74508, Note_on_c, 13, 70, 80
15, 75108, Note_off_c, 13, 65, 64
15, 75144, Note_off_c, 13, 68, 64
15, 75172, Note_off_c, 13, 70, 64
15, 75172, Note_off_c, 13, 73, 64
15, 75388, Note_on_c, 13, 77, 95
15, 75388, Note_on_c, 13, 73, 74
15, 75388, Note_on_c, 13, 66, 80
15, 75392, Note_on_c, 13, 70, 80
15, 75828, Note_off_c, 13, 73, 64
15, 75840, Note_off_c, 13, 66, 64
15, 75864, Note_off_c, 13, 77, 64
15, 75932, Note_off_c, 13, 70, 64
15, 76020, Note_on_c, 13, 75, 80
15, 76024, Note_on_c, 13, 68, 78
15, 76032, Note_on_c, 13, 72, 82
15, 76032, Note_on_c, 13, 70, 73
15, 76624, Note_off_c, 13, 72, 64
15, 76632, Note_off_c, 13, 70, 64
15, 76684, Note_off_c, 13, 68, 64
15, 76720, Note_off_c, 13, 75, 64
15, 76892, Note_on_c, 13, 68, 78
15, 76896, Note_on_c, 13, 72, 88
15, 76896, Note_on_c, 13, 75, 82
15, 77244, Note_off_c, 13, 68, 64
15, 77268, Note_off_c, 13, 72, 64
15, 77300, Note_off_c, 13, 75, 64
15, 77356, Note_on_c, 13, 68, 74
15, 77356, Note_on_c, 13, 77, 91
15, 77356, Note_on_c, 13, 73, 82
15, 78028, Note_off_c, 13, 73, 64
15, 78044, Note_off_c, 13, 77, 64
15, 78072, Note_off_c, 13, 68, 64
15, 78480, Note_on_c, 13, 77, 88
15, 78480, Note_on_c, 13, 73, 78
15, 78488, Note_on_c, 13, 66, 78
15, 78488, Note_on_c, 13, 70, 82
15, 78972, Note_off_c, 13, 73, 64
15, 78972, Note_off_c, 13, 77, 64
15, 78976, Note_off_c, 13, 66, 64
15, 79128, Note_on_c, 13, 75, 78
15, 79132, Note_on_c, 13, 68, 73
15, 79140, Note_on_c, 13, 72, 82
15, 79780, Note_off_c, 13, 70, 64
15, 79792, Note_off_c, 13, 68, 64
15, 79812, Note_off_c, 13, 75, 64
15, 79816, Note_off_c, 13, 72, 64
15, 79988, Note_on_c, 13, 75, 80
15, 79992, Note_on_c, 13, 65, 82
15, 79992, Note_on_c, 13, 68, 80
15, 79996, Note_on_c, 13, 72, 88
15, 80504, Note_off_c, 13, 72, 64
15, 80552, Note_off_c, 13, 75, 64
15, 80564, Note_off_c, 13, 68, 64
15, 80568, Note_off_c, 13, 65, 64
15, 80660, Note_on_c, 13, 68, 63
15, 80664, Note_on_c, 13, 73, 82
15, 80668, Note_on_c, 13, 65, 95
15, 80672, Note_on_c, 13, 70, 88
15, 81244, Note_off_c, 13, 65, 64
15, 81300, Note_off_c, 13, 68, 64
15, 81308, Note_off_c, 13, 70, 64
15, 81308, Note_off_c, 13, 73, 64
15, 81516, Note_on_c, 13, 77, 91
15, 81520, Note_on_c, 13, 66, 88
15, 81524, Note_on_c, 13, 70, 82
15, 81524, Note_on_c, 13, 73, 82
15, 81972, Note_off_c, 13, 73, 64
15, 82004, Note_off_c, 13, 66, 64
15, 82012, Note_off_c, 13, 77, 64
15, 82164, Note_on_c, 13, 75, 74
15, 82164, Note_on_c, 13, 68, 78
15, 82172, Note_on_c, 13, 72, 82
15, 82768, Note_off_c, 13, 72, 64
15, 82796, Note_off_c, 13, 70, 64
15, 82804, Note_off_c, 13, 68, 64
15, 82876, Note_off_c, 13, 75, 64
15, 83040, Note_on_c, 13, 75, 74
15, 83040, Note_on_c, 13, 68, 78
15, 83040, Note_on_c, 13, 72, 88
15, 83328, Note_off_c, 13, 68, 64
15, 83368, Note_off_c, 13, 72, 64
15, 83376, Note_off_c, 13, 75, 64
15, 83452, Note_on_c, 13, 77, 91
15, 83456, Note_on_c, 13, 68, 78
15, 83456, Note_on_c, 13, 73, 78
15, 84184, Note_off_c, 13, 73, 64
15, 84188, Note_off_c, 13, 68, 64
15, 84216, Note_off_c, 13, 77, 64
15, 84520, Note_on_c, 13, 77, 88
15, 84520, Note_on_c, 13, 73, 73
15, 84520, Note_on_c, 13, 66, 73
15, 84532, Note_on_c, 13, 70, 80
15, 84960, Note_off_c, 13, 66, 64
15, 84960, Note_off_c, 13, 73, 64
15, 84972, Note_off_c, 13, 77, 64
15, 84980, Note_off_c, 13, 70, 64
15, 85164, Note_on_c, 13, 75, 78
15, 85172, Note_on_c, 13, 68, 73
15, 85176, Note_on_c, 13, 72, 82
15, 85180, Note_on_c, 13, 70, 82
15, 85844, Note_off_c, 13, 70, 64
15, 85880, Note_off_c, 13, 72, 64
15, 85880, Note_off_c, 13, 75, 64
15, 85892, Note_off_c, 13, 68, 64
15, 86116, Note_on_c, 13, 68, 78
15, 86116, Note_on_c, 13, 65, 78
15, 86116, Note_on_c, 13, 75, 80
15, 86120, Note_on_c, 13, 72, 88
15, 86632, Note_off_c, 13, 72, 64
15, 86636, Note_off_c, 13, 68, 64
15, 86644, Note_off_c, 13, 75, 64
15, 86652, Note_off_c, 13, 65, 64
15, 86780, Note_on_c, 13, 73, 88
15, 86784, Note_on_c, 13, 68, 78
15, 86792, Note_on_c, 13, 65, 85
15, 86796, Note_on_c, 13, 70, 80
15, 87396, Note_off_c, 13, 65, 64
15, 87432, Note_off_c, 13, 68, 64
15, 87460, Note_off_c, 13, 70, 64
15, 87460, Note_off_c, 13, 73, 64
15, 87676, Note_on_c, 13, 77, 95
15, 87676, Note_on_c, 13, 73, 74
15, 87676, Note_on_c, 13, 66, 80
15, 87680, Note_on_c, 13, 70, 80
15, 88116, Note_off_c, 13, 73, 64
15, 88128, Note_off_c, 13, 66, 64
15, 88152, Note_off_c, 13, 77, 64
15, 88220, Note_off_c, 13, 70, 64
15, 88308, Note_on_c, 13, 75, 80
15, 88312, Note_on_c, 13, 68, 78
15, 88320, Note_on_c, 13, 72, 82
15, 88320, Note_on_c, 13, 70, 73
15, 88912, Note_off_c, 13, 72, 64
15, 88920, Note_off_c, 13, 70, 64
15, 88972, Note_off_c, 13, 68, 64
15, 89008, Note_off_c, 13, 75, 64
15, 89180, Note_on_c, 13, 68, 78
15, 89184, Note_on_c, 13, 72, 88
15, 89184, Note_on_c, 13, 75, 82
15, 89532, Note_off_c, 13, 68, 64
15, 89556, Note_off_c, 13, 72, 64
15, 89588, Note_off_c, 13, 75, 64
15, 89644, Note_on_c, 13, 68, 74
15, 89644, Note_on_c, 13, 77, 91
15, 89644, Note_on_c, 13, 73, 82
15, 90316, Note_off_c, 13, 73, 64
15, 90332, Note_off_c, 13, 77, 64
15, 90360, Note_off_c, 13, 68, 64
15, 121488, Note_on_c, 13, 77, 88
15, 121488, Note_on_c, 13, 73, 78
15, 121496, Note_on_c, 13, 66, 78
15, 121496, Note_on_c, 13, 70, 82
15, 121980, Note_off_c, 13, 73, 64
15, 121980, Note_off_c, 13, 77, 64
15, 121984, Note_off_c, 13, 66, 64
15, 122136, Note_on_c, 13, 75, 78
15, 122140, Note_on_c, 13, 68, 73
15, 122148, Note_on_c, 13, 72, 82
15, 122788, Note_off_c, 13, 70, 64
15, 122800, Note_off_c, 13, 68, 64
15, 122820, Note_off_c, 13, 75, 64
15, 122824, Note_off_c, 13, 72, 64
15, 122996, Note_on_c, 13, 75, 80
15, 123000, Note_on_c, 13, 65, 82
15, 123000, Note_on_c, 13, 68, 80
15, 123004, Note_on_c, 13, 72, 88
15, 123512, Note_off_c, 13, 72, 64
15, 123560, Note_off_c, 13, 75, 64
15, 123572, Note_off_c, 13, 68, 64
15, 123576, Note_off_c, 13, 65, 64
15, 123668, Note_on_c, 13, 68, 63
15, 123672, Note_on_c, 13, 73, 82
15, 123676, Note_on_c, 13, 65, 95
15, 123680, Note_on_c, 13, 70, 88
15, 124252, Note_off_c, 13, 65, 64
15, 124308, Note_off_c, 13, 68, 64
15, 124316, Note_off_c, 13, 70, 64
15, 124316, Note_off_c, 13, 73, 64
15, 124524, Note_on_c, 13, 77, 91
15, 124528, Note_on_c, 13, 66, 88
15, 124532, Note_on_c, 13, 70, 82
15, 124532, Note_on_c, 13, 73, 82
15, 124980, Note_off_c, 13, 73, 64
15, 125012, Note_off_c, 13, 66, 64
15, 125020, Note_off_c, 13, 77, 64
15, 125172, Note_on_c, 13, 75, 74
15, 125172, Note_on_c, 13, 68, 78
15, 125180, Note_on_c, 13, 72, 82
15, 125776, Note_off_c, 13, 72, 64
15, 125804, Note_off_c, 13, 70, 64
15, 125812, Note_off_c, 13, 68, 64
15, 125884, Note_off_c, 13, 75, 64
15, 126048, Note_on_c, 13, 75, 74
15, 126048, Note_on_c, 13, 68, 78
15, 126048, Note_on_c, 13, 72, 88
15, 126336, Note_off_c, 13, 68, 64
15, 126376, Note_off_c, 13, 72, 64
15, 126384, Note_off_c, 13, 75, 64
15, 126460, Note_on_c, 13, 77, 91
15, 126464, Note_on_c, 13, 68, 78
15, 126464, Note_on_c, 13, 73, 78
15, 127192, Note_off_c, 13, 73, 64
15, 127196, Note_off_c, 13, 68, 64
15, 127224, Note_off_c, 13, 77, 64
15, 127528, Note_on_c, 13, 77, 88
15, 127528, Note_on_c, 13, 73, 73
15, 127528, Note_on_c, 13, 66, 73
15, 127540, Note_on_c, 13, 70, 80
15, 127968, Note_off_c, 13, 66, 64
15, 127968, Note_off_c, 13, 73, 64
15, 127980, Note_off_c, 13, 77, 64
15, 127988, Note_off_c, 13, 70, 64
15, 128172, Note_on_c, 13, 75, 78
15, 128180, Note_on_c, 13, 68, 73
15, 128184, Note_on_c, 13, 72, 82
15, 128188, Note_on_c, 13, 70, 82
15, 128852, Note_off_c, 13, 70, 64
15, 128888, Note_off_c, 13, 72, 64
15, 128888, Note_off_c, 13, 75, 64
15, 128900, Note_off_c, 13, 68, 64
15, 129124, Note_on_c, 13, 68, 78
15, 129124, Note_on_c, 13, 65, 78
15, 129124, Note_on_c, 13, 75, 80
15, 129128, Note_on_c, 13, 72, 88
15, 129640, Note_off_c, 13, 72, 64
15, 129644, Note_off_c, 13, 68, 64
15, 129652, Note_off_c, 13, 75, 64
15, 129660, Note_off_c, 13, 65, 64
15, 129788, Note_on_c, 13, 73, 88
15, 129792, Note_on_c, 13, 68, 78
15, 129800, Note_on_c, 13, 65, 85
15, 129804, Note_on_c, 13, 70, 80
15, 130404, Note_off_c, 13, 65, 64
15, 130440, Note_off_c, 13, 68, 64
15, 130468, Note_off_c, 13, 70, 64
15, 130468, Note_off_c, 13, 73, 64
15, 130684, Note_on_c, 13, 77, 95
15, 130684, Note_on_c, 13, 73, 74
15, 130684, Note_on_c, 13, 66, 80
15, 130688, Note_on_c, 13, 70, 80
15, 131124, Note_off_c, 13, 73, 64
15, 131136, Note_off_c, 13, 66, 64
15, 131160, Note_off_c, 13, 77, 64
15, 131228, Note_off_c, 13, 70, 64
15, 131316, Note_on_c, 13, 75, 80
15, 131320, Note_on_c, 13, 68, 78
15, 131328, Note_on_c, 13, 72, 82
15, 131328, Note_on_c, 13, 70, 73
15, 131920, Note_off_c, 13, 72, 64
15, 131928, Note_off_c, 13, 70, 64
15, 131980, Note_off_c, 13, 68, 64
15, 132016, Note_off_c, 13, 75, 64
15, 132188, Note_on_c, 13, 68, 78
15, 132192, Note_on_c, 13, 72, 88
15, 132192, Note_on_c, 13, 75, 82
15, 132540, Note_off_c, 13, 68, 64
15, 132564, Note_off_c, 13, 72, 64
15, 132596, Note_off_c, 13, 75, 64
15, 132652, Note_on_c, 13, 68, 74
15, 132652, Note_on_c, 13, 77, 91
15, 132652, Note_on_c, 13, 73, 82
15, 133324, Note_off_c, 13, 73, 64
15, 133340, Note_off_c, 13, 77, 64
15, 133368, Note_off_c, 13, 68, 64
15, 133776, Note_on_c, 13, 77, 88
15, 133776, Note_on_c, 13, 73, 78
15, 133784, Note_on_c, 13, 66, 78
15, 133784, Note_on_c, 13, 70, 82
15, 134268, Note_off_c, 13, 73, 64
15, 134268, Note_off_c, 13, 77, 64
15, 134272, Note_off_c, 13, 66, 64
15, 134424, Note_on_c, 13, 75, 78
15, 134428, Note_on_c, 13, 68, 73
15, 134436, Note_on_c, 13, 72, 82
15, 135076, Note_off_c, 13, 70, 64
15, 135088, Note_off_c, 13, 68, 64
15, 135108, Note_off_c, 13, 75, 64
15, 135112, Note_off_c, 13, 72, 64
15, 135284, Note_on_c, 13, 75, 80
15, 135288, Note_on_c, 13, 65, 82
15, 135288, Note_on_c, 13, 68, 80
15, 135292, Note_on_c, 13, 72, 88
15, 135800, Note_off_c, 13, 72, 64
15, 135848, Note_off_c, 13, 75, 64
15, 135860, Note_off_c, 13, 68, 64
15, 135864, Note_off_c, 13, 65, 64
15, 135956, Note_on_c, 13, 68, 63
15, 135960, Note_on_c, 13, 73, 82
15, 135964, Note_on_c, 13, 65, 95
15, 135968, Note_on_c, 13, 70, 88
15, 136540, Note_off_c, 13, 65, 64
15, 136596, Note_off_c, 13, 68, 64
15, 136604, Note_off_c, 13, 70, 64
15, 136604, Note_off_c, 13, 73, 64
15, 136812, Note_on_c, 13, 77, 91
15, 136816, Note_on_c, 13, 66, 88
15, 136820, Note_on_c, 13, 70, 82
15, 136820, Note_on_c, 13, 73, 82
15, 137268, Note_off_c, 13, 73, 64
15, 137300, Note_off_c, 13, 66, 64
15, 137308, Note_off_c, 13, 77, 64
15, 137460, Note_on_c, 13, 75, 74
15, 137460, Note_on_c, 13, 68, 78
15, 137468, Note_on_c, 13, 72, 82
15, 138064, Note_off_c, 13, 72, 64
15, 138092, Note_off_c, 13, 70, 64
15, 138100, Note_off_c, 13, 68, 64
15, 138172, Note_off_c, 13, 75, 64
15, 138336, Note_on_c, 13, 75, 74
15, 138336, Note_on_c, 13, 68, 78
15, 138336, Note_on_c, 13, 72, 88
15, 138624, Note_off_c, 13, 68, 64
15, 138664, Note_off_c, 13, 72, 64
15, 138672, Note_off_c, 13, 75, 64
15, 138748, Note_on_c, 13, 77, 91
15, 138752, Note_on_c, 13, 68, 78
15, 138752, Note_on_c, 13, 73, 78
15, 139480, Note_off_c, 13, 73, 64
15, 139484, Note_off_c, 13, 68, 64
15, 139512, Note_off_c, 13, 77, 64
15, 139816, Note_on_c, 13, 77, 88
15, 139816, Note_on_c, 13, 73, 73
15, 139816, Note_on_c, 13, 66, 73
15, 139828, Note_on_c, 13, 70, 80
15, 140256, Note_off_c, 13, 66, 64
15, 140256, Note_off_c, 13, 73, 64
15, 140268, Note_off_c, 13, 77, 64
15, 140276, Note_off_c, 13, 70, 64
15, 140460, Note_on_c, 13, 75, 78
15, 140468, Note_on_c, 13, 68, 73
15, 140472, Note_on_c, 13, 72, 82
15, 140476, Note_on_c, 13, 70, 82
15, 141140, Note_off_c, 13, 70, 64
15, 141176, Note_off_c, 13, 72, 64
15, 141176, Note_off_c, 13, 75, 64
15, 141188, Note_off_c, 13, 68, 64
15, 141412, Note_on_c, 13, 68, 78
15, 141412, Note_on_c, 13, 65, 78
15, 141412, Note_on_c, 13, 75, 80
15, 141416, Note_on_c, 13, 72, 88
15, 141928, Note_off_c, 13, 72, 64
15, 141932, Note_off_c, 13, 68, 64
15, 141940, Note_off_c, 13, 75, 64
15, 141948, Note_off_c, 13, 65, 64
15, 142076, Note_on_c, 13, 73, 88
15, 142080, Note_on_c, 13, 68, 78
15, 142088, Note_on_c, 13, 65, 85
15, 142092, Note_on_c, 13, 70, 80
15, 142692, Note_off_c, 13, 65, 64
15, 142728, Note_off_c, 13, 68, 64
15, 142756, Note_off_c, 13, 70, 64
15, 142756, Note_off_c, 13, 73, 64
15, 142972, Note_on_c, 13, 77, 95
15, 142972, Note_on_c, 13, 73, 74
15, 142972, Note_on_c, 13, 66, 80
15, 142976, Note_on_c, 13, 70, 80
15, 143412, Note_off_c, 13, 73, 64
15, 143424, Note_off_c, 13, 66, 64
15, 143448, Note_off_c, 13, 77, 64
15, 143516, Note_off_c, 13, 70, 64
15, 143604, Note_on_c, 13, 75, 80
15, 143608, Note_on_c, 13, 68, 78
15, 143616, Note_on_c, 13, 72, 82
15, 143616, Note_on_c, 13, 70, 73
15, 144208, Note_off_c, 13, 72, 64
15, 144216, Note_off_c, 13, 70, 64
15, 144268, Note_off_c, 13, 68, 64
15, 144304, Note_off_c, 13, 75, 64
15, 144476, Note_on_c, 13, 68, 78
15, 144480, Note_on_c, 13, 72, 88
15, 144480, Note_on_c, 13, 75, 82
15, 144828, Note_off_c, 13, 68, 64
15, 144852, Note_off_c, 13, 72, 64
15, 144884, Note_off_c, 13, 75, 64
15, 144940, Note_on_c, 13, 68, 74
15, 144940, Note_on_c, 13, 77, 91
15, 144940, Note_on_c, 13, 73, 82
15, 145612, Note_off_c, 13, 73, 64
15, 145628, Note_off_c, 13, 77, 64
15, 145656, Note_off_c, 13, 68, 64
15, 146064, Note_on_c, 13, 77, 88
15, 146064, Note_on_c, 13, 73, 78
15, 146072, Note_on_c, 13, 66, 78
15, 146072, Note_on_c, 13, 70, 82
15, 146556, Note_off_c, 13, 73, 64
15, 146556, Note_off_c, 13, 77, 64
15, 146560, Note_off_c, 13, 66, 64
15, 146712, Note_on_c, 13, 75, 73
15, 146716, Note_on_c, 13, 68, 68
15, 146724, Note_on_c, 13, 72, 77
15, 147364, Note_off_c, 13, 70, 64
15, 147376, Note_off_c, 13, 68, 64
15, 147396, Note_off_c, 13, 75, 64
15, 147400, Note_off_c, 13, 72, 64
15, 147572, Note_on_c, 13, 75, 68
15, 147576, Note_on_c, 13, 65, 70
15, 147576, Note_on_c, 13, 68, 68
15, 147580, Note_on_c, 13, 72, 75
15, 148088, Note_off_c, 13, 72, 64
15, 148136, Note_off_c, 13, 75, 64
15, 148148, Note_off_c, 13, 68, 64
15, 148152, Note_off_c, 13, 65, 64
15, 148244, Note_on_c, 13, 68, 50
15, 148248, Note_on_c, 13, 73, 65
15, 148252, Note_on_c, 13, 65, 76
15, 148256, Note_on_c, 13, 70, 70
15, 148828, Note_off_c, 13, 65, 64
15, 148884, Note_off_c, 13, 68, 64
15, 148892, Note_off_c, 13, 70, 64
15, 148892, Note_off_c, 13, 73, 64
15, 149100, Note_on_c, 13, 77, 65
15, 149104, Note_on_c, 13, 66, 63
15, 149108, Note_on_c, 13, 70, 59
15, 149108, Note_on_c, 13, 73, 59
15, 149556, Note_off_c, 13, 73, 64
15, 149588, Note_off_c, 13, 66, 64
15, 149596, Note_off_c, 13, 77, 64
15, 149748, Note_on_c, 13, 75, 48
15, 149748, Note_on_c, 13, 68, 51
15, 149756, Note_on_c, 13, 72, 54
15, 150352, Note_off_c, 13, 72, 64
15, 150380, Note_off_c, 13, 70, 64
15, 150388, Note_off_c, 13, 68, 64
15, 150460, Note_off_c, 13, 75, 64
15, 150624, Note_on_c, 13, 75, 42
15, 150624, Note_on_c, 13, 68, 45
15, 150624, Note_on_c, 13, 72, 51
15, 150912, Note_off_c, 13, 68, 64
15, 150952, Note_off_c, 13, 72, 64
15, 150960, Note_off_c, 13, 75, 64
15, 151036, Note_on_c, 13, 77, 49
15, 151040, Note_on_c, 13, 68, 42
15, 151040, Note_on_c, 13, 73, 42
15, 151768, Note_off_c, 13, 73, 64
15, 151772, Note_off_c, 13, 68, 64
15, 151800, Note_off_c, 13, 77, 64
15, 152104, Note_on_c, 13, 77, 38
15, 152104, Note_on_c, 13, 73, 32
15, 152104, Note_on_c, 13, 66, 32
15, 152116, Note_on_c, 13, 70, 35
15, 152544, Note_off_c, 13, 66, 64
15, 152544, Note_off_c, 13, 73, 64
15, 152556, Note_off_c, 13, 77, 64
15, 152564, Note_off_c, 13, 70, 64
15, 152748, Note_on_c, 13, 75, 29
15, 152756, Note_on_c, 13, 68, 27
15, 152760, Note_on_c, 13, 72, 31
15, 152764, Note_on_c, 13, 70, 31
15, 153428, Note_off_c, 13, 70, 64
15, 153464, Note_off_c, 13, 72, 64
15, 153464, Note_off_c, 13, 75, 64
15, 153476, Note_off_c, 13, 68, 64
15, 153700, Note_on_c, 13, 68, 22
15, 153700, Note_on_c, 13, 65, 22
15, 153700, Note_on_c, 13, 75, 23
15, 153704, Note_on_c, 13, 72, 25
15, 154216, Note_off_c, 13, 72, 64
15, 154220, Note_off_c, 13, 68, 64
15, 154228, Note_off_c, 13, 75, 64
15, 154236, Note_off_c, 13, 65, 64
15, 154364, Note_on_c, 13, 73, 20
15, 154368, Note_on_c, 13, 68, 17
15, 154376, Note_on_c, 13, 65, 19
15, 154380, Note_on_c, 13, 70, 18
15, 154980, Note_off_c, 13, 65, 64
15, 155016, Note_off_c, 13, 68, 64
15, 155044, Note_off_c, 13, 70, 64
15, 155044, Note_off_c, 13, 73, 64
15, 155260, Note_on_c, 13, 77, 14
15, 155260, Note_on_c, 13, 73, 11
15, 155260, Note_on_c, 13, 66, 12
15, 155264, Note_on_c, 13, 70, 12
15, 155700, Note_off_c, 13, 73, 64
15, 155712, Note_off_c, 13, 66, 64
15, 155736, Note_off_c, 13, 77, 64
15, 155804, Note_off_c, 13, 70, 64
15, 155892, Note_on_c, 13, 75, 7
15, 155896, Note_on_c, 13, 68, 7
15, 155904, Note_on_c, 13, 72, 7
15, 155904, Note_on_c, 13, 70, 6
15, 156496, Note_off_c, 13, 72, 64
15, 156504, Note_off_c, 13, 70, 64
15, 156556, Note_off_c, 13, 68, 64
15, 156592, Note_off_c, 13, 75, 64
15, 158208, End_track
16, 0, Start_track
16, 0, Title_t, "MUTED GTR"
16, 2208, Program_c, 14, 28
16, 2212, Control_c, 14, 7, 87
16, 2212, Control_c, 14, 10, 23
16, 2212, Control_c, 14, 11, 127
16, 2216, Control_c, 14, 91, 80
16, 2216, Control_c, 14, 93, 0
16, 91584, Note_on_c, 14, 41, 94
16, 91588, Control_c, 14, 1, 0
16, 91588, Pitch_bend_c, 14, 8192
16, 91620, Note_off_c, 14, 41, 64
16, 91676, Note_on_c, 14, 41, 94
16, 91724, Note_off_c, 14, 41, 64
16, 91772, Note_on_c, 14, 41, 71
16, 91840, Note_off_c, 14, 41, 64
16, 91868, Note_on_c, 14, 46, 107
16, 91948, Note_off_c, 14, 46, 64
16, 92080, Note_on_c, 14, 46, 102
16, 92160, Note_off_c, 14, 46, 64
16, 93116, Note_on_c, 14, 46, 92
16, 93164, Note_off_c, 14, 46, 64
16, 93220, Note_on_c, 14, 46, 92
16, 93260, Note_off_c, 14, 46, 64
16, 93308, Note_on_c, 14, 46, 73
16, 93376, Note_off_c, 14, 46, 64
16, 93412, Note_on_c, 14, 51, 104
16, 93492, Note_off_c, 14, 51, 64
16, 93624, Note_on_c, 14, 51, 99
16, 93692, Note_off_c, 14, 51, 64
16, 94656, Note_on_c, 14, 41, 94
16, 94692, Note_off_c, 14, 41, 64
16, 94748, Note_on_c, 14, 41, 94
16, 94796, Note_off_c, 14, 41, 64
16, 94844, Note_on_c, 14, 41, 71
16, 94912, Note_off_c, 14, 41, 64
16, 94940, Note_on_c, 14, 46, 107
16, 95020, Note_off_c, 14, 46, 64
16, 95152, Note_on_c, 14, 46, 102
16, 95232, Note_off_c, 14, 46, 64
16, 96188, Note_on_c, 14, 46, 92
16, 96236, Note_off_c, 14, 46, 64
16, 96292, Note_on_c, 14, 46, 92
16, 96332, Note_off_c, 14, 46, 64
16, 96380, Note_on_c, 14, 46, 73
16, 96448, Note_off_c, 14, 46, 64
16, 96484, Note_on_c, 14, 51, 104
16, 96564, Note_off_c, 14, 51, 64
16, 96696, Note_on_c, 14, 51, 99
16, 96764, Note_off_c, 14, 51, 64
16, 97728, Note_on_c, 14, 41, 94
16, 97764, Note_off_c, 14, 41, 64
16, 97820, Note_on_c, 14, 41, 94
16, 97868, Note_off_c, 14, 41, 64
16, 97916, Note_on_c, 14, 41, 71
16, 97984, Note_off_c, 14, 41, 64
16, 98012, Note_on_c, 14, 46, 107
16, 98092, Note_off_c, 14, 46, 64
16, 98224, Note_on_c, 14, 46, 102
16, 98304, Note_off_c, 14, 46, 64
16, 99260, Note_on_c, 14, 46, 92
16, 99308, Note_off_c, 14, 46, 64
16, 99364, Note_on_c, 14, 46, 92
16, 99404, Note_off_c, 14, 46, 64
16, 99452, Note_on_c, 14, 46, 73
16, 99520, Note_off_c, 14, 46, 64
16, 99556, Note_on_c, 14, 51, 104
16, 99636, Note_off_c, 14, 51, 64
16, 99768, Note_on_c, 14, 51, 99
16, 99836, Note_off_c, 14, 51, 64
16, 100800, Note_on_c, 14, 41, 94
16, 100836, Note_off_c, 14, 41, 64
16, 100892, Note_on_c, 14, 41, 94
16, 100940, Note_off_c, 14, 41, 64
16, 100988, Note_on_c, 14, 41, 71
16, 101056, Note_off_c, 14, 41, 64
16, 101084, Note_on_c, 14, 46, 107
16, 101164, Note_off_c, 14, 46, 64
16, 101296, Note_on_c, 14, 46, 102
16, 101376, Note_off_c, 14, 46, 64
16, 102332, Note_on_c, 14, 46, 92
16, 102380, Note_off_c, 14, 46, 64
16, 102436, Note_on_c, 14, 46, 92
16, 102476, Note_off_c, 14, 46, 64
16, 102524, Note_on_c, 14, 46, 73
16, 102592, Note_off_c, 14, 46, 64
16, 102628, Note_on_c, 14, 51, 104
16, 102708, Note_off_c, 14, 51, 64
16, 115204, Note_on_c, 14, 56, 96
16, 115264, Note_off_c, 14, 56, 64
16, 115396, Note_on_c, 14, 56, 110
16, 115476, Note_off_c, 14, 56, 64
16, 115684, Note_on_c, 14, 56, 100
16, 115744, Note_off_c, 14, 56, 64
16, 115876, Note_on_c, 14, 56, 110
16, 115944, Note_off_c, 14, 56, 64
16, 116156, Note_on_c, 14, 56, 100
16, 116212, Note_off_c, 14, 56, 64
16, 116444, Note_on_c, 14, 56, 100
16, 116504, Note_off_c, 14, 56, 64
16, 116636, Note_on_c, 14, 56, 100
16, 116700, Note_off_c, 14, 56, 64
16, 116924, Note_on_c, 14, 56, 100
16, 116988, Note_off_c, 14, 56, 64
16, 117212, Note_on_c, 14, 56, 100
16, 117268, Note_off_c, 14, 56, 64
16, 117412, Note_on_c, 14, 56, 100
16, 117480, Note_off_c, 14, 56, 64
16, 117700, Note_on_c, 14, 56, 100
16, 117764, Note_off_c, 14, 56, 64
16, 117988, Note_on_c, 14, 56, 96
16, 118048, Note_off_c, 14, 56, 64
16, 118184, Note_on_c, 14, 56, 100
16, 118256, Note_off_c, 14, 56, 64
16, 118468, Note_on_c, 14, 56, 100
16, 118528, Note_off_c, 14, 56, 64
16, 118756, Note_on_c, 14, 56, 100
16, 118812, Note_off_c, 14, 56, 64
16, 118952, Note_on_c, 14, 56, 100
16, 119020, Note_off_c, 14, 56, 64
16, 119236, Note_on_c, 14, 56, 96
16, 119296, Note_off_c, 14, 56, 64
16, 119528, Note_on_c, 14, 56, 100
16, 119584, Note_off_c, 14, 56, 64
16, 119720, Note_on_c, 14, 56, 93
16, 119788, Note_off_c, 14, 56, 64
16, 120004, Note_on_c, 14, 56, 100
16, 120068, Note_off_c, 14, 56, 64
16, 120296, Note_on_c, 14, 56, 100
16, 120352, Note_off_c, 14, 56, 64
16, 120488, Note_on_c, 14, 56, 100
16, 120556, Note_off_c, 14, 56, 64
16, 120772, Note_on_c, 14, 56, 110
16, 120840, Note_off_c, 14, 56, 64
16, 121060, Note_on_c, 14, 56, 110
16, 121112, Note_off_c, 14, 56, 64
16, 158208, End_track
17, 0, Start_track
17, 0, Title_t, "GS/RESET"
17, 0, System_exclusive, 10, 65, 16, 66, 18, 64, 0, 127, 0, 65, 247
17, 6144, End_track
0, 0, End_of_file
