0, 0, Header, 1, 13, 384
1, 0, Start_track
1, 0, Time_signature, 3, 2, 23, 8
1, 0, Tempo, 526310
1, 158206, End_track
2, 0, Start_track
2, 0, Title_t, "SYN BASS 2"
2, 1946, Program_c, 1, 39
2, 1952, Control_c, 1, 5, 90
2, 1952, Control_c, 1, 8, 64
2, 1952, Control_c, 1, 9, 127
2, 1954, Control_c, 1, 91, 5
2, 1954, Control_c, 1, 92, 0
2, 4606, Note_on_c, 1, 25, 105
2, 4610, Control_c, 1, 1, 0
2, 4610, Pitch_bend_c, 1, 8192
2, 4692, Note_off_c, 1, 25, 64
2, 4794, Note_on_c, 1, 25, 114
2, 4863, Note_off_c, 1, 25, 64
2, 4894, Note_on_c, 1, 25, 105
2, 4972, Note_off_c, 1, 25, 64
2, 5083, Note_on_c, 1, 34, 108
2, 5152, Note_off_c, 1, 34, 64
2, 5180, Note_on_c, 1, 33, 114
2, 5252, Note_off_c, 1, 33, 64
2, 5372, Note_on_c, 1, 32, 105
2, 5460, Note_off_c, 1, 32, 64
2, 5563, Note_on_c, 1, 32, 119
2, 5666, Note_off_c, 1, 32, 64
2, 5946, Note_on_c, 1, 25, 98
2, 6032, Note_off_c, 1, 25, 64
2, 6046, Note_on_c, 1, 32, 98
2, 6103, Note_off_c, 1, 32, 64
2, 6143, Note_on_c, 1, 27, 114
2, 6232, Note_off_c, 1, 27, 64
2, 6332, Note_on_c, 1, 27, 108
2, 6392, Note_off_c, 1, 27, 64
2, 6426, Note_on_c, 1, 27, 108
2, 6512, Note_off_c, 1, 27, 64
2, 6626, Note_on_c, 1, 34, 108
2, 6706, Note_off_c, 1, 34, 64
2, 6723, Note_on_c, 1, 33, 114
2, 6820, Note_off_c, 1, 33, 64
2, 7106, Note_on_c, 1, 33, 105
2, 7160, Note_off_c, 1, 33, 64
2, 7203, Note_on_c, 1, 33, 114
2, 7254, Note_off_c, 1, 33, 64
2, 7300, Note_on_c, 1, 33, 119
2, 7360, Note_off_c, 1, 33, 64
2, 7394, Note_on_c, 1, 34, 108
2, 7466, Note_off_c, 1, 34, 64
2, 7586, Note_on_c, 1, 33, 105
2, 7643, Note_off_c, 1, 33, 64
2, 7683, Note_on_c, 1, 25, 105
2, 7763, Note_off_c, 1, 25, 64
2, 7866, Note_on_c, 1, 25, 105
2, 7926, Note_off_c, 1, 25, 64
2, 7972, Note_on_c, 1, 25, 101
2, 8060, Note_off_c, 1, 25, 64
2, 8163, Note_on_c, 1, 34, 105
2, 8226, Note_off_c, 1, 34, 64
2, 8260, Note_on_c, 1, 33, 114
2, 8346, Note_off_c, 1, 33, 64
2, 8446, Note_on_c, 1, 32, 114
2, 8546, Note_off_c, 1, 32, 64
2, 8643, Note_on_c, 1, 32, 105
2, 8726, Note_off_c, 1, 32, 64
2, 9023, Note_on_c, 1, 32, 101
2, 9066, Note_off_c, 1, 32, 64
2, 9112, Note_on_c, 1, 32, 114
2, 9172, Note_off_c, 1, 32, 64
2, 9212, Note_on_c, 1, 27, 114
2, 9292, Note_off_c, 1, 27, 64
2, 9403, Note_on_c, 1, 27, 119
2, 9460, Note_off_c, 1, 27, 64
2, 9503, Note_on_c, 1, 27, 119
2, 9592, Note_off_c, 1, 27, 64
2, 9700, Note_on_c, 1, 34, 108
2, 9754, Note_off_c, 1, 34, 64
2, 9794, Note_on_c, 1, 33, 119
2, 9894, Note_off_c, 1, 33, 64
2, 10180, Note_on_c, 1, 32, 114
2, 10263, Note_off_c, 1, 32, 64
2, 10372, Note_on_c, 1, 32, 105
2, 10420, Note_off_c, 1, 32, 64
2, 10466, Note_on_c, 1, 32, 114
2, 10546, Note_off_c, 1, 32, 64
2, 10652, Note_on_c, 1, 35, 101
2, 10734, Note_off_c, 1, 35, 64
2, 10752, Note_on_c, 1, 25, 105
2, 10834, Note_off_c, 1, 25, 64
2, 10940, Note_on_c, 1, 25, 114
2, 11006, Note_off_c, 1, 25, 64
2, 11040, Note_on_c, 1, 25, 105
2, 11112, Note_off_c, 1, 25, 64
2, 11226, Note_on_c, 1, 34, 108
2, 11294, Note_off_c, 1, 34, 64
2, 11323, Note_on_c, 1, 33, 114
2, 11394, Note_off_c, 1, 33, 64
2, 11512, Note_on_c, 1, 32, 105
2, 11603, Note_off_c, 1, 32, 64
2, 11706, Note_on_c, 1, 32, 119
2, 11810, Note_off_c, 1, 32, 64
2, 12092, Note_on_c, 1, 25, 98
2, 12174, Note_off_c, 1, 25, 64
2, 12192, Note_on_c, 1, 32, 98
2, 12246, Note_off_c, 1, 32, 64
2, 12286, Note_on_c, 1, 27, 114
2, 12374, Note_off_c, 1, 27, 64
2, 12474, Note_on_c, 1, 27, 108
2, 12534, Note_off_c, 1, 27, 64
2, 12572, Note_on_c, 1, 27, 108
2, 12660, Note_off_c, 1, 27, 64
2, 12772, Note_on_c, 1, 34, 108
2, 12852, Note_off_c, 1, 34, 64
2, 12866, Note_on_c, 1, 33, 114
2, 12963, Note_off_c, 1, 33, 64
2, 13252, Note_on_c, 1, 33, 105
2, 13303, Note_off_c, 1, 33, 64
2, 13346, Note_on_c, 1, 33, 114
2, 13400, Note_off_c, 1, 33, 64
2, 13443, Note_on_c, 1, 33, 119
2, 13503, Note_off_c, 1, 33, 64
2, 13540, Note_on_c, 1, 34, 108
2, 13610, Note_off_c, 1, 34, 64
2, 13732, Note_on_c, 1, 33, 105
2, 13786, Note_off_c, 1, 33, 64
2, 13826, Note_on_c, 1, 25, 105
2, 13906, Note_off_c, 1, 25, 64
2, 14010, Note_on_c, 1, 25, 105
2, 14072, Note_off_c, 1, 25, 64
2, 14112, Note_on_c, 1, 25, 101
2, 14203, Note_off_c, 1, 25, 64
2, 14306, Note_on_c, 1, 34, 105
2, 14372, Note_off_c, 1, 34, 64
2, 14403, Note_on_c, 1, 33, 114
2, 14492, Note_off_c, 1, 33, 64
2, 14592, Note_on_c, 1, 32, 114
2, 14692, Note_off_c, 1, 32, 64
2, 14786, Note_on_c, 1, 32, 105
2, 14872, Note_off_c, 1, 32, 64
2, 15166, Note_on_c, 1, 32, 101
2, 15210, Note_off_c, 1, 32, 64
2, 15260, Note_on_c, 1, 32, 114
2, 15312, Note_off_c, 1, 32, 64
2, 15360, Note_on_c, 1, 27, 114
2, 15434, Note_off_c, 1, 27, 64
2, 15546, Note_on_c, 1, 27, 119
2, 15603, Note_off_c, 1, 27, 64
2, 15646, Note_on_c, 1, 27, 119
2, 15734, Note_off_c, 1, 27, 64
2, 15843, Note_on_c, 1, 34, 108
2, 15900, Note_off_c, 1, 34, 64
2, 15940, Note_on_c, 1, 33, 119
2, 16040, Note_off_c, 1, 33, 64
2, 16323, Note_on_c, 1, 32, 114
2, 16406, Note_off_c, 1, 32, 64
2, 16512, Note_on_c, 1, 32, 105
2, 16563, Note_off_c, 1, 32, 64
2, 16610, Note_on_c, 1, 32, 114
2, 16692, Note_off_c, 1, 32, 64
2, 16794, Note_on_c, 1, 35, 101
2, 16880, Note_off_c, 1, 35, 64
2, 16894, Note_on_c, 1, 33, 114
2, 16954, Note_off_c, 1, 33, 64
2, 17092, Note_on_c, 1, 33, 114
2, 17134, Note_off_c, 1, 33, 64
2, 17183, Note_on_c, 1, 33, 119
2, 17246, Note_off_c, 1, 33, 64
2, 17380, Note_on_c, 1, 35, 114
2, 17432, Note_off_c, 1, 35, 64
2, 17472, Note_on_c, 1, 34, 114
2, 17534, Note_off_c, 1, 34, 64
2, 17660, Note_on_c, 1, 32, 114
2, 17732, Note_off_c, 1, 32, 64
2, 17852, Note_on_c, 1, 33, 105
2, 17934, Note_off_c, 1, 33, 64
2, 18234, Note_on_c, 1, 27, 108
2, 18292, Note_off_c, 1, 27, 64
2, 18332, Note_on_c, 1, 33, 105
2, 18406, Note_off_c, 1, 33, 64
2, 18626, Note_on_c, 1, 32, 105
2, 18672, Note_off_c, 1, 32, 64
2, 18723, Note_on_c, 1, 33, 114
2, 18800, Note_off_c, 1, 33, 64
2, 18912, Note_on_c, 1, 35, 114
2, 18963, Note_off_c, 1, 35, 64
2, 19010, Note_on_c, 1, 34, 119
2, 19100, Note_off_c, 1, 34, 64
2, 19774, Note_on_c, 1, 27, 114
2, 19834, Note_off_c, 1, 27, 64
2, 19874, Note_on_c, 1, 33, 119
2, 19954, Note_off_c, 1, 33, 64
2, 20163, Note_on_c, 1, 32, 114
2, 20220, Note_off_c, 1, 32, 64
2, 20260, Note_on_c, 1, 33, 114
2, 20340, Note_off_c, 1, 33, 64
2, 20452, Note_on_c, 1, 35, 105
2, 20503, Note_off_c, 1, 35, 64
2, 20546, Note_on_c, 1, 34, 119
2, 20610, Note_off_c, 1, 34, 64
2, 20740, Note_on_c, 1, 32, 114
2, 20820, Note_off_c, 1, 32, 64
2, 20932, Note_on_c, 1, 33, 114
2, 21010, Note_off_c, 1, 33, 64
2, 21312, Note_on_c, 1, 33, 105
2, 21366, Note_off_c, 1, 33, 64
2, 21406, Note_on_c, 1, 33, 114
2, 21463, Note_off_c, 1, 33, 64
2, 21506, Note_on_c, 1, 25, 105
2, 21586, Note_off_c, 1, 25, 64
2, 21700, Note_on_c, 1, 25, 105
2, 21760, Note_off_c, 1, 25, 64
2, 21794, Note_on_c, 1, 25, 114
2, 21886, Note_off_c, 1, 25, 64
2, 21986, Note_on_c, 1, 25, 101
2, 22043, Note_off_c, 1, 25, 64
2, 22083, Note_on_c, 1, 32, 119
2, 22152, Note_off_c, 1, 32, 64
2, 22466, Note_on_c, 1, 32, 101
2, 22510, Note_off_c, 1, 32, 64
2, 22563, Note_on_c, 1, 32, 114
2, 22634, Note_off_c, 1, 32, 64
2, 22852, Note_on_c, 1, 27, 114
2, 22903, Note_off_c, 1, 27, 64
2, 22946, Note_on_c, 1, 32, 124
2, 23000, Note_off_c, 1, 32, 64
2, 23040, Note_on_c, 1, 33, 114
2, 23100, Note_off_c, 1, 33, 64
2, 23234, Note_on_c, 1, 33, 114
2, 23280, Note_off_c, 1, 33, 64
2, 23326, Note_on_c, 1, 33, 119
2, 23392, Note_off_c, 1, 33, 64
2, 23523, Note_on_c, 1, 35, 114
2, 23574, Note_off_c, 1, 35, 64
2, 23612, Note_on_c, 1, 34, 114
2, 23680, Note_off_c, 1, 34, 64
2, 23803, Note_on_c, 1, 32, 114
2, 23874, Note_off_c, 1, 32, 64
2, 23994, Note_on_c, 1, 33, 105
2, 24080, Note_off_c, 1, 33, 64
2, 24380, Note_on_c, 1, 27, 108
2, 24434, Note_off_c, 1, 27, 64
2, 24474, Note_on_c, 1, 33, 105
2, 24552, Note_off_c, 1, 33, 64
2, 24772, Note_on_c, 1, 32, 105
2, 24812, Note_off_c, 1, 32, 64
2, 24866, Note_on_c, 1, 33, 114
2, 24943, Note_off_c, 1, 33, 64
2, 25060, Note_on_c, 1, 35, 114
2, 25106, Note_off_c, 1, 35, 64
2, 25154, Note_on_c, 1, 34, 119
2, 25243, Note_off_c, 1, 34, 64
2, 25920, Note_on_c, 1, 27, 114
2, 25980, Note_off_c, 1, 27, 64
2, 26020, Note_on_c, 1, 33, 119
2, 26100, Note_off_c, 1, 33, 64
2, 26306, Note_on_c, 1, 32, 114
2, 26363, Note_off_c, 1, 32, 64
2, 26403, Note_on_c, 1, 33, 114
2, 26483, Note_off_c, 1, 33, 64
2, 26594, Note_on_c, 1, 35, 105
2, 26646, Note_off_c, 1, 35, 64
2, 26692, Note_on_c, 1, 34, 119
2, 26754, Note_off_c, 1, 34, 64
2, 26883, Note_on_c, 1, 32, 114
2, 26963, Note_off_c, 1, 32, 64
2, 27074, Note_on_c, 1, 33, 114
2, 27154, Note_off_c, 1, 33, 64
2, 27460, Note_on_c, 1, 33, 105
2, 27510, Note_off_c, 1, 33, 64
2, 27552, Note_on_c, 1, 33, 114
2, 27606, Note_off_c, 1, 33, 64
2, 27652, Note_on_c, 1, 25, 105
2, 27732, Note_off_c, 1, 25, 64
2, 27843, Note_on_c, 1, 25, 105
2, 27903, Note_off_c, 1, 25, 64
2, 27940, Note_on_c, 1, 25, 114
2, 28032, Note_off_c, 1, 25, 64
2, 28132, Note_on_c, 1, 25, 101
2, 28186, Note_off_c, 1, 25, 64
2, 28226, Note_on_c, 1, 32, 119
2, 28294, Note_off_c, 1, 32, 64
2, 28610, Note_on_c, 1, 32, 101
2, 28654, Note_off_c, 1, 32, 64
2, 28706, Note_on_c, 1, 32, 114
2, 28780, Note_off_c, 1, 32, 64
2, 28994, Note_on_c, 1, 27, 114
2, 29046, Note_off_c, 1, 27, 64
2, 29092, Note_on_c, 1, 32, 124
2, 29143, Note_off_c, 1, 32, 64
2, 29183, Note_on_c, 1, 33, 114
2, 29243, Note_off_c, 1, 33, 64
2, 29380, Note_on_c, 1, 33, 114
2, 29423, Note_off_c, 1, 33, 64
2, 29472, Note_on_c, 1, 33, 119
2, 29534, Note_off_c, 1, 33, 64
2, 29666, Note_on_c, 1, 35, 114
2, 29720, Note_off_c, 1, 35, 64
2, 29760, Note_on_c, 1, 34, 114
2, 29823, Note_off_c, 1, 34, 64
2, 29946, Note_on_c, 1, 32, 114
2, 30020, Note_off_c, 1, 32, 64
2, 30140, Note_on_c, 1, 33, 105
2, 30223, Note_off_c, 1, 33, 64
2, 30523, Note_on_c, 1, 27, 108
2, 30580, Note_off_c, 1, 27, 64
2, 30620, Note_on_c, 1, 33, 105
2, 30694, Note_off_c, 1, 33, 64
2, 30912, Note_on_c, 1, 32, 105
2, 30960, Note_off_c, 1, 32, 64
2, 31010, Note_on_c, 1, 33, 114
2, 31086, Note_off_c, 1, 33, 64
2, 31203, Note_on_c, 1, 35, 114
2, 31252, Note_off_c, 1, 35, 64
2, 31300, Note_on_c, 1, 34, 119
2, 31386, Note_off_c, 1, 34, 64
2, 32063, Note_on_c, 1, 27, 114
2, 32123, Note_off_c, 1, 27, 64
2, 32163, Note_on_c, 1, 33, 119
2, 32243, Note_off_c, 1, 33, 64
2, 32452, Note_on_c, 1, 32, 114
2, 32506, Note_off_c, 1, 32, 64
2, 32546, Note_on_c, 1, 33, 114
2, 32626, Note_off_c, 1, 33, 64
2, 32740, Note_on_c, 1, 35, 105
2, 32792, Note_off_c, 1, 35, 64
2, 32834, Note_on_c, 1, 34, 119
2, 32900, Note_off_c, 1, 34, 64
2, 33026, Note_on_c, 1, 32, 114
2, 33106, Note_off_c, 1, 32, 64
2, 33220, Note_on_c, 1, 33, 114
2, 33300, Note_off_c, 1, 33, 64
2, 33600, Note_on_c, 1, 32, 105
2, 33652, Note_off_c, 1, 32, 64
2, 33694, Note_on_c, 1, 33, 114
2, 33752, Note_off_c, 1, 33, 64
2, 33792, Note_on_c, 1, 33, 105
2, 33872, Note_off_c, 1, 33, 64
2, 33983, Note_on_c, 1, 32, 105
2, 34043, Note_off_c, 1, 32, 64
2, 34080, Note_on_c, 1, 33, 114
2, 34172, Note_off_c, 1, 33, 64
2, 34272, Note_on_c, 1, 35, 101
2, 34326, Note_off_c, 1, 35, 64
2, 34366, Note_on_c, 1, 34, 119
2, 34434, Note_off_c, 1, 34, 64
2, 35134, Note_on_c, 1, 32, 114
2, 35186, Note_off_c, 1, 32, 64
2, 35232, Note_on_c, 1, 33, 124
2, 35283, Note_off_c, 1, 33, 64
2, 35326, Note_on_c, 1, 25, 105
2, 35410, Note_off_c, 1, 25, 64
2, 35512, Note_on_c, 1, 25, 114
2, 35583, Note_off_c, 1, 25, 64
2, 35612, Note_on_c, 1, 25, 105
2, 35692, Note_off_c, 1, 25, 64
2, 35803, Note_on_c, 1, 34, 108
2, 35872, Note_off_c, 1, 34, 64
2, 35900, Note_on_c, 1, 33, 114
2, 35972, Note_off_c, 1, 33, 64
2, 36092, Note_on_c, 1, 32, 105
2, 36180, Note_off_c, 1, 32, 64
2, 36283, Note_on_c, 1, 32, 119
2, 36386, Note_off_c, 1, 32, 64
2, 36666, Note_on_c, 1, 25, 98
2, 36752, Note_off_c, 1, 25, 64
2, 36766, Note_on_c, 1, 32, 98
2, 36823, Note_off_c, 1, 32, 64
2, 36863, Note_on_c, 1, 27, 114
2, 36952, Note_off_c, 1, 27, 64
2, 37052, Note_on_c, 1, 27, 108
2, 37110, Note_off_c, 1, 27, 64
2, 37146, Note_on_c, 1, 27, 108
2, 37234, Note_off_c, 1, 27, 64
2, 37346, Note_on_c, 1, 34, 108
2, 37426, Note_off_c, 1, 34, 64
2, 37443, Note_on_c, 1, 33, 114
2, 37540, Note_off_c, 1, 33, 64
2, 37826, Note_on_c, 1, 33, 105
2, 37880, Note_off_c, 1, 33, 64
2, 37923, Note_on_c, 1, 33, 114
2, 37974, Note_off_c, 1, 33, 64
2, 38020, Note_on_c, 1, 33, 119
2, 38080, Note_off_c, 1, 33, 64
2, 38112, Note_on_c, 1, 34, 108
2, 38186, Note_off_c, 1, 34, 64
2, 38306, Note_on_c, 1, 33, 105
2, 38363, Note_off_c, 1, 33, 64
2, 38403, Note_on_c, 1, 25, 105
2, 38483, Note_off_c, 1, 25, 64
2, 38586, Note_on_c, 1, 25, 105
2, 38646, Note_off_c, 1, 25, 64
2, 38692, Note_on_c, 1, 25, 101
2, 38780, Note_off_c, 1, 25, 64
2, 38883, Note_on_c, 1, 34, 105
2, 38946, Note_off_c, 1, 34, 64
2, 38980, Note_on_c, 1, 33, 114
2, 39066, Note_off_c, 1, 33, 64
2, 39166, Note_on_c, 1, 32, 114
2, 39266, Note_off_c, 1, 32, 64
2, 39363, Note_on_c, 1, 32, 105
2, 39446, Note_off_c, 1, 32, 64
2, 39743, Note_on_c, 1, 32, 101
2, 39786, Note_off_c, 1, 32, 64
2, 39834, Note_on_c, 1, 32, 114
2, 39892, Note_off_c, 1, 32, 64
2, 39934, Note_on_c, 1, 27, 114
2, 40010, Note_off_c, 1, 27, 64
2, 40123, Note_on_c, 1, 27, 119
2, 40180, Note_off_c, 1, 27, 64
2, 40223, Note_on_c, 1, 27, 119
2, 40310, Note_off_c, 1, 27, 64
2, 40420, Note_on_c, 1, 34, 108
2, 40474, Note_off_c, 1, 34, 64
2, 40512, Note_on_c, 1, 33, 119
2, 40612, Note_off_c, 1, 33, 64
2, 40900, Note_on_c, 1, 32, 114
2, 40983, Note_off_c, 1, 32, 64
2, 41092, Note_on_c, 1, 32, 105
2, 41140, Note_off_c, 1, 32, 64
2, 41186, Note_on_c, 1, 32, 114
2, 41266, Note_off_c, 1, 32, 64
2, 41372, Note_on_c, 1, 35, 101
2, 41454, Note_off_c, 1, 35, 64
2, 41472, Note_on_c, 1, 25, 105
2, 41554, Note_off_c, 1, 25, 64
2, 41660, Note_on_c, 1, 25, 114
2, 41726, Note_off_c, 1, 25, 64
2, 41760, Note_on_c, 1, 25, 105
2, 41834, Note_off_c, 1, 25, 64
2, 41946, Note_on_c, 1, 34, 108
2, 42012, Note_off_c, 1, 34, 64
2, 42043, Note_on_c, 1, 33, 114
2, 42112, Note_off_c, 1, 33, 64
2, 42234, Note_on_c, 1, 32, 105
2, 42323, Note_off_c, 1, 32, 64
2, 42426, Note_on_c, 1, 32, 119
2, 42532, Note_off_c, 1, 32, 64
2, 42810, Note_on_c, 1, 25, 98
2, 42894, Note_off_c, 1, 25, 64
2, 42910, Note_on_c, 1, 32, 98
2, 42966, Note_off_c, 1, 32, 64
2, 43006, Note_on_c, 1, 27, 114
2, 43094, Note_off_c, 1, 27, 64
2, 43194, Note_on_c, 1, 27, 108
2, 43254, Note_off_c, 1, 27, 64
2, 43292, Note_on_c, 1, 27, 108
2, 43380, Note_off_c, 1, 27, 64
2, 43492, Note_on_c, 1, 34, 108
2, 43572, Note_off_c, 1, 34, 64
2, 43586, Note_on_c, 1, 33, 114
2, 43683, Note_off_c, 1, 33, 64
2, 43972, Note_on_c, 1, 33, 105
2, 44023, Note_off_c, 1, 33, 64
2, 44066, Note_on_c, 1, 33, 114
2, 44120, Note_off_c, 1, 33, 64
2, 44163, Note_on_c, 1, 33, 119
2, 44223, Note_off_c, 1, 33, 64
2, 44260, Note_on_c, 1, 34, 108
2, 44332, Note_off_c, 1, 34, 64
2, 44452, Note_on_c, 1, 33, 105
2, 44506, Note_off_c, 1, 33, 64
2, 44546, Note_on_c, 1, 25, 105
2, 44626, Note_off_c, 1, 25, 64
2, 44732, Note_on_c, 1, 25, 105
2, 44792, Note_off_c, 1, 25, 64
2, 44834, Note_on_c, 1, 25, 101
2, 44923, Note_off_c, 1, 25, 64
2, 45026, Note_on_c, 1, 34, 105
2, 45092, Note_off_c, 1, 34, 64
2, 45123, Note_on_c, 1, 33, 114
2, 45210, Note_off_c, 1, 33, 64
2, 45310, Note_on_c, 1, 32, 114
2, 45410, Note_off_c, 1, 32, 64
2, 45506, Note_on_c, 1, 32, 105
2, 45592, Note_off_c, 1, 32, 64
2, 45886, Note_on_c, 1, 32, 101
2, 45932, Note_off_c, 1, 32, 64
2, 45980, Note_on_c, 1, 32, 114
2, 46034, Note_off_c, 1, 32, 64
2, 46080, Note_on_c, 1, 27, 114
2, 46154, Note_off_c, 1, 27, 64
2, 46266, Note_on_c, 1, 27, 119
2, 46323, Note_off_c, 1, 27, 64
2, 46366, Note_on_c, 1, 27, 119
2, 46454, Note_off_c, 1, 27, 64
2, 46563, Note_on_c, 1, 34, 108
2, 46620, Note_off_c, 1, 34, 64
2, 46660, Note_on_c, 1, 33, 119
2, 46760, Note_off_c, 1, 33, 64
2, 47043, Note_on_c, 1, 32, 114
2, 47126, Note_off_c, 1, 32, 64
2, 47234, Note_on_c, 1, 32, 105
2, 47283, Note_off_c, 1, 32, 64
2, 47332, Note_on_c, 1, 32, 114
2, 47410, Note_off_c, 1, 32, 64
2, 47512, Note_on_c, 1, 35, 101
2, 47600, Note_off_c, 1, 35, 64
2, 47612, Note_on_c, 1, 33, 114
2, 47674, Note_off_c, 1, 33, 64
2, 47810, Note_on_c, 1, 33, 114
2, 47854, Note_off_c, 1, 33, 64
2, 47903, Note_on_c, 1, 33, 119
2, 47966, Note_off_c, 1, 33, 64
2, 48100, Note_on_c, 1, 35, 114
2, 48152, Note_off_c, 1, 35, 64
2, 48192, Note_on_c, 1, 34, 114
2, 48254, Note_off_c, 1, 34, 64
2, 48380, Note_on_c, 1, 32, 114
2, 48452, Note_off_c, 1, 32, 64
2, 48572, Note_on_c, 1, 33, 105
2, 48654, Note_off_c, 1, 33, 64
2, 48954, Note_on_c, 1, 27, 108
2, 49010, Note_off_c, 1, 27, 64
2, 49052, Note_on_c, 1, 33, 105
2, 49126, Note_off_c, 1, 33, 64
2, 49346, Note_on_c, 1, 32, 105
2, 49392, Note_off_c, 1, 32, 64
2, 49443, Note_on_c, 1, 33, 114
2, 49520, Note_off_c, 1, 33, 64
2, 49634, Note_on_c, 1, 35, 114
2, 49683, Note_off_c, 1, 35, 64
2, 49732, Note_on_c, 1, 34, 119
2, 49820, Note_off_c, 1, 34, 64
2, 50494, Note_on_c, 1, 27, 114
2, 50554, Note_off_c, 1, 27, 64
2, 50594, Note_on_c, 1, 33, 119
2, 50674, Note_off_c, 1, 33, 64
2, 50883, Note_on_c, 1, 32, 114
2, 50940, Note_off_c, 1, 32, 64
2, 50980, Note_on_c, 1, 33, 114
2, 51060, Note_off_c, 1, 33, 64
2, 51172, Note_on_c, 1, 35, 105
2, 51223, Note_off_c, 1, 35, 64
2, 51266, Note_on_c, 1, 34, 119
2, 51332, Note_off_c, 1, 34, 64
2, 51460, Note_on_c, 1, 32, 114
2, 51540, Note_off_c, 1, 32, 64
2, 51652, Note_on_c, 1, 33, 114
2, 51732, Note_off_c, 1, 33, 64
2, 52034, Note_on_c, 1, 33, 105
2, 52086, Note_off_c, 1, 33, 64
2, 52126, Note_on_c, 1, 33, 114
2, 52183, Note_off_c, 1, 33, 64
2, 52226, Note_on_c, 1, 25, 105
2, 52306, Note_off_c, 1, 25, 64
2, 52420, Note_on_c, 1, 25, 105
2, 52480, Note_off_c, 1, 25, 64
2, 52512, Note_on_c, 1, 25, 114
2, 52606, Note_off_c, 1, 25, 64
2, 52706, Note_on_c, 1, 25, 101
2, 52763, Note_off_c, 1, 25, 64
2, 52803, Note_on_c, 1, 32, 119
2, 52872, Note_off_c, 1, 32, 64
2, 53186, Note_on_c, 1, 32, 101
2, 53232, Note_off_c, 1, 32, 64
2, 53283, Note_on_c, 1, 32, 114
2, 53354, Note_off_c, 1, 32, 64
2, 53572, Note_on_c, 1, 27, 114
2, 53623, Note_off_c, 1, 27, 64
2, 53666, Note_on_c, 1, 32, 124
2, 53720, Note_off_c, 1, 32, 64
2, 53760, Note_on_c, 1, 33, 114
2, 53820, Note_off_c, 1, 33, 64
2, 53954, Note_on_c, 1, 33, 114
2, 54000, Note_off_c, 1, 33, 64
2, 54046, Note_on_c, 1, 33, 119
2, 54110, Note_off_c, 1, 33, 64
2, 54243, Note_on_c, 1, 35, 114
2, 54294, Note_off_c, 1, 35, 64
2, 54334, Note_on_c, 1, 34, 114
2, 54400, Note_off_c, 1, 34, 64
2, 54523, Note_on_c, 1, 32, 114
2, 54594, Note_off_c, 1, 32, 64
2, 54712, Note_on_c, 1, 33, 105
2, 54800, Note_off_c, 1, 33, 64
2, 55100, Note_on_c, 1, 27, 108
2, 55154, Note_off_c, 1, 27, 64
2, 55194, Note_on_c, 1, 33, 105
2, 55272, Note_off_c, 1, 33, 64
2, 55492, Note_on_c, 1, 32, 105
2, 55534, Note_off_c, 1, 32, 64
2, 55586, Note_on_c, 1, 33, 114
2, 55663, Note_off_c, 1, 33, 64
2, 55780, Note_on_c, 1, 35, 114
2, 55826, Note_off_c, 1, 35, 64
2, 55874, Note_on_c, 1, 34, 119
2, 55963, Note_off_c, 1, 34, 64
2, 56640, Note_on_c, 1, 27, 114
2, 56700, Note_off_c, 1, 27, 64
2, 56740, Note_on_c, 1, 33, 119
2, 56820, Note_off_c, 1, 33, 64
2, 57026, Note_on_c, 1, 32, 114
2, 57083, Note_off_c, 1, 32, 64
2, 57123, Note_on_c, 1, 33, 114
2, 57203, Note_off_c, 1, 33, 64
2, 57312, Note_on_c, 1, 35, 105
2, 57366, Note_off_c, 1, 35, 64
2, 57410, Note_on_c, 1, 34, 119
2, 57474, Note_off_c, 1, 34, 64
2, 57603, Note_on_c, 1, 32, 114
2, 57683, Note_off_c, 1, 32, 64
2, 57794, Note_on_c, 1, 33, 114
2, 57874, Note_off_c, 1, 33, 64
2, 58180, Note_on_c, 1, 33, 105
2, 58232, Note_off_c, 1, 33, 64
2, 58272, Note_on_c, 1, 33, 114
2, 58326, Note_off_c, 1, 33, 64
2, 58372, Note_on_c, 1, 25, 105
2, 58452, Note_off_c, 1, 25, 64
2, 58563, Note_on_c, 1, 25, 105
2, 58623, Note_off_c, 1, 25, 64
2, 58660, Note_on_c, 1, 25, 114
2, 58752, Note_off_c, 1, 25, 64
2, 58852, Note_on_c, 1, 25, 101
2, 58906, Note_off_c, 1, 25, 64
2, 58946, Note_on_c, 1, 32, 119
2, 59012, Note_off_c, 1, 32, 64
2, 59332, Note_on_c, 1, 32, 101
2, 59374, Note_off_c, 1, 32, 64
2, 59426, Note_on_c, 1, 32, 114
2, 59500, Note_off_c, 1, 32, 64
2, 59712, Note_on_c, 1, 27, 114
2, 59766, Note_off_c, 1, 27, 64
2, 59810, Note_on_c, 1, 32, 124
2, 59863, Note_off_c, 1, 32, 64
2, 59903, Note_on_c, 1, 33, 114
2, 59963, Note_off_c, 1, 33, 64
2, 60100, Note_on_c, 1, 33, 114
2, 60143, Note_off_c, 1, 33, 64
2, 60192, Note_on_c, 1, 33, 119
2, 60254, Note_off_c, 1, 33, 64
2, 60386, Note_on_c, 1, 35, 114
2, 60440, Note_off_c, 1, 35, 64
2, 60480, Note_on_c, 1, 34, 114
2, 60543, Note_off_c, 1, 34, 64
2, 60666, Note_on_c, 1, 32, 114
2, 60740, Note_off_c, 1, 32, 64
2, 60860, Note_on_c, 1, 33, 105
2, 60943, Note_off_c, 1, 33, 64
2, 61243, Note_on_c, 1, 27, 108
2, 61300, Note_off_c, 1, 27, 64
2, 61340, Note_on_c, 1, 33, 105
2, 61412, Note_off_c, 1, 33, 64
2, 61634, Note_on_c, 1, 32, 105
2, 61680, Note_off_c, 1, 32, 64
2, 61732, Note_on_c, 1, 33, 114
2, 61806, Note_off_c, 1, 33, 64
2, 61923, Note_on_c, 1, 35, 114
2, 61972, Note_off_c, 1, 35, 64
2, 62020, Note_on_c, 1, 34, 119
2, 62106, Note_off_c, 1, 34, 64
2, 62783, Note_on_c, 1, 27, 114
2, 62843, Note_off_c, 1, 27, 64
2, 62883, Note_on_c, 1, 33, 119
2, 62963, Note_off_c, 1, 33, 64
2, 63172, Note_on_c, 1, 32, 114
2, 63226, Note_off_c, 1, 32, 64
2, 63266, Note_on_c, 1, 33, 114
2, 63346, Note_off_c, 1, 33, 64
2, 63460, Note_on_c, 1, 35, 105
2, 63510, Note_off_c, 1, 35, 64
2, 63554, Note_on_c, 1, 34, 119
2, 63620, Note_off_c, 1, 34, 64
2, 63746, Note_on_c, 1, 32, 114
2, 63826, Note_off_c, 1, 32, 64
2, 63940, Note_on_c, 1, 33, 114
2, 64020, Note_off_c, 1, 33, 64
2, 64320, Note_on_c, 1, 32, 105
2, 64372, Note_off_c, 1, 32, 64
2, 64412, Note_on_c, 1, 33, 114
2, 64472, Note_off_c, 1, 33, 64
2, 64510, Note_on_c, 1, 33, 105
2, 64592, Note_off_c, 1, 33, 64
2, 64703, Note_on_c, 1, 32, 105
2, 64763, Note_off_c, 1, 32, 64
2, 64800, Note_on_c, 1, 33, 114
2, 64892, Note_off_c, 1, 33, 64
2, 64992, Note_on_c, 1, 35, 101
2, 65046, Note_off_c, 1, 35, 64
2, 65086, Note_on_c, 1, 34, 119
2, 65154, Note_off_c, 1, 34, 64
2, 65854, Note_on_c, 1, 32, 114
2, 65906, Note_off_c, 1, 32, 64
2, 65952, Note_on_c, 1, 33, 124
2, 66003, Note_off_c, 1, 33, 64
2, 66046, Note_on_c, 1, 25, 105
2, 66132, Note_off_c, 1, 25, 64
2, 66234, Note_on_c, 1, 25, 114
2, 66303, Note_off_c, 1, 25, 64
2, 66334, Note_on_c, 1, 25, 105
2, 66410, Note_off_c, 1, 25, 64
2, 66523, Note_on_c, 1, 34, 108
2, 66592, Note_off_c, 1, 34, 64
2, 66620, Note_on_c, 1, 33, 114
2, 66692, Note_off_c, 1, 33, 64
2, 66810, Note_on_c, 1, 32, 105
2, 66900, Note_off_c, 1, 32, 64
2, 67003, Note_on_c, 1, 32, 119
2, 67106, Note_off_c, 1, 32, 64
2, 67386, Note_on_c, 1, 25, 98
2, 67472, Note_off_c, 1, 25, 64
2, 67486, Note_on_c, 1, 32, 98
2, 67543, Note_off_c, 1, 32, 64
2, 67583, Note_on_c, 1, 27, 114
2, 67672, Note_off_c, 1, 27, 64
2, 67772, Note_on_c, 1, 27, 108
2, 67832, Note_off_c, 1, 27, 64
2, 67866, Note_on_c, 1, 27, 108
2, 67954, Note_off_c, 1, 27, 64
2, 68066, Note_on_c, 1, 34, 108
2, 68146, Note_off_c, 1, 34, 64
2, 68163, Note_on_c, 1, 33, 114
2, 68260, Note_off_c, 1, 33, 64
2, 68546, Note_on_c, 1, 33, 105
2, 68600, Note_off_c, 1, 33, 64
2, 68643, Note_on_c, 1, 33, 114
2, 68694, Note_off_c, 1, 33, 64
2, 68740, Note_on_c, 1, 33, 119
2, 68800, Note_off_c, 1, 33, 64
2, 68834, Note_on_c, 1, 34, 108
2, 68906, Note_off_c, 1, 34, 64
2, 69026, Note_on_c, 1, 33, 105
2, 69083, Note_off_c, 1, 33, 64
2, 69123, Note_on_c, 1, 25, 105
2, 69203, Note_off_c, 1, 25, 64
2, 69306, Note_on_c, 1, 25, 105
2, 69366, Note_off_c, 1, 25, 64
2, 69410, Note_on_c, 1, 25, 101
2, 69500, Note_off_c, 1, 25, 64
2, 69603, Note_on_c, 1, 34, 105
2, 69666, Note_off_c, 1, 34, 64
2, 69700, Note_on_c, 1, 33, 114
2, 69786, Note_off_c, 1, 33, 64
2, 69886, Note_on_c, 1, 32, 114
2, 69986, Note_off_c, 1, 32, 64
2, 70083, Note_on_c, 1, 32, 105
2, 70166, Note_off_c, 1, 32, 64
2, 70463, Note_on_c, 1, 32, 101
2, 70506, Note_off_c, 1, 32, 64
2, 70554, Note_on_c, 1, 32, 114
2, 70610, Note_off_c, 1, 32, 64
2, 70654, Note_on_c, 1, 27, 114
2, 70732, Note_off_c, 1, 27, 64
2, 70843, Note_on_c, 1, 27, 119
2, 70900, Note_off_c, 1, 27, 64
2, 70943, Note_on_c, 1, 27, 119
2, 71032, Note_off_c, 1, 27, 64
2, 71140, Note_on_c, 1, 34, 108
2, 71194, Note_off_c, 1, 34, 64
2, 71234, Note_on_c, 1, 33, 119
2, 71334, Note_off_c, 1, 33, 64
2, 71620, Note_on_c, 1, 32, 114
2, 71703, Note_off_c, 1, 32, 64
2, 71810, Note_on_c, 1, 32, 105
2, 71860, Note_off_c, 1, 32, 64
2, 71906, Note_on_c, 1, 32, 114
2, 71986, Note_off_c, 1, 32, 64
2, 72092, Note_on_c, 1, 35, 101
2, 72174, Note_off_c, 1, 35, 64
2, 72192, Note_on_c, 1, 25, 105
2, 72274, Note_off_c, 1, 25, 64
2, 72380, Note_on_c, 1, 25, 114
2, 72446, Note_off_c, 1, 25, 64
2, 72480, Note_on_c, 1, 25, 105
2, 72554, Note_off_c, 1, 25, 64
2, 72666, Note_on_c, 1, 34, 108
2, 72734, Note_off_c, 1, 34, 64
2, 72763, Note_on_c, 1, 33, 114
2, 72834, Note_off_c, 1, 33, 64
2, 72954, Note_on_c, 1, 32, 105
2, 73043, Note_off_c, 1, 32, 64
2, 73146, Note_on_c, 1, 32, 119
2, 73252, Note_off_c, 1, 32, 64
2, 73532, Note_on_c, 1, 25, 98
2, 73612, Note_off_c, 1, 25, 64
2, 73632, Note_on_c, 1, 32, 98
2, 73686, Note_off_c, 1, 32, 64
2, 73726, Note_on_c, 1, 27, 114
2, 73812, Note_off_c, 1, 27, 64
2, 73912, Note_on_c, 1, 27, 108
2, 73974, Note_off_c, 1, 27, 64
2, 74010, Note_on_c, 1, 27, 108
2, 74100, Note_off_c, 1, 27, 64
2, 74210, Note_on_c, 1, 34, 108
2, 74292, Note_off_c, 1, 34, 64
2, 74306, Note_on_c, 1, 33, 114
2, 74403, Note_off_c, 1, 33, 64
2, 74692, Note_on_c, 1, 33, 105
2, 74743, Note_off_c, 1, 33, 64
2, 74786, Note_on_c, 1, 33, 114
2, 74840, Note_off_c, 1, 33, 64
2, 74883, Note_on_c, 1, 33, 119
2, 74943, Note_off_c, 1, 33, 64
2, 74980, Note_on_c, 1, 34, 108
2, 75052, Note_off_c, 1, 34, 64
2, 75172, Note_on_c, 1, 33, 105
2, 75226, Note_off_c, 1, 33, 64
2, 75266, Note_on_c, 1, 25, 105
2, 75346, Note_off_c, 1, 25, 64
2, 75452, Note_on_c, 1, 25, 105
2, 75510, Note_off_c, 1, 25, 64
2, 75554, Note_on_c, 1, 25, 101
2, 75643, Note_off_c, 1, 25, 64
2, 75746, Note_on_c, 1, 34, 105
2, 75810, Note_off_c, 1, 34, 64
2, 75843, Note_on_c, 1, 33, 114
2, 75932, Note_off_c, 1, 33, 64
2, 76032, Note_on_c, 1, 32, 114
2, 76132, Note_off_c, 1, 32, 64
2, 76226, Note_on_c, 1, 32, 105
2, 76310, Note_off_c, 1, 32, 64
2, 76606, Note_on_c, 1, 32, 101
2, 76652, Note_off_c, 1, 32, 64
2, 76700, Note_on_c, 1, 32, 114
2, 76754, Note_off_c, 1, 32, 64
2, 76800, Note_on_c, 1, 27, 114
2, 76874, Note_off_c, 1, 27, 64
2, 76986, Note_on_c, 1, 27, 119
2, 77043, Note_off_c, 1, 27, 64
2, 77086, Note_on_c, 1, 27, 119
2, 77174, Note_off_c, 1, 27, 64
2, 77283, Note_on_c, 1, 34, 108
2, 77340, Note_off_c, 1, 34, 64
2, 77380, Note_on_c, 1, 33, 119
2, 77480, Note_off_c, 1, 33, 64
2, 77763, Note_on_c, 1, 32, 114
2, 77846, Note_off_c, 1, 32, 64
2, 77954, Note_on_c, 1, 32, 105
2, 78003, Note_off_c, 1, 32, 64
2, 78052, Note_on_c, 1, 32, 114
2, 78132, Note_off_c, 1, 32, 64
2, 78234, Note_on_c, 1, 35, 101
2, 78320, Note_off_c, 1, 35, 64
2, 78334, Note_on_c, 1, 25, 105
2, 78420, Note_off_c, 1, 25, 64
2, 78523, Note_on_c, 1, 25, 114
2, 78592, Note_off_c, 1, 25, 64
2, 78623, Note_on_c, 1, 25, 105
2, 78700, Note_off_c, 1, 25, 64
2, 78810, Note_on_c, 1, 34, 108
2, 78880, Note_off_c, 1, 34, 64
2, 78906, Note_on_c, 1, 33, 114
2, 78980, Note_off_c, 1, 33, 64
2, 79100, Note_on_c, 1, 32, 105
2, 79186, Note_off_c, 1, 32, 64
2, 79292, Note_on_c, 1, 32, 119
2, 79394, Note_off_c, 1, 32, 64
2, 79674, Note_on_c, 1, 25, 98
2, 79760, Note_off_c, 1, 25, 64
2, 79774, Note_on_c, 1, 32, 98
2, 79832, Note_off_c, 1, 32, 64
2, 79872, Note_on_c, 1, 27, 114
2, 79960, Note_off_c, 1, 27, 64
2, 80060, Note_on_c, 1, 27, 108
2, 80120, Note_off_c, 1, 27, 64
2, 80154, Note_on_c, 1, 27, 108
2, 80243, Note_off_c, 1, 27, 64
2, 80354, Note_on_c, 1, 34, 108
2, 80434, Note_off_c, 1, 34, 64
2, 80452, Note_on_c, 1, 33, 114
2, 80546, Note_off_c, 1, 33, 64
2, 80834, Note_on_c, 1, 33, 105
2, 80886, Note_off_c, 1, 33, 64
2, 80932, Note_on_c, 1, 33, 114
2, 80983, Note_off_c, 1, 33, 64
2, 81026, Note_on_c, 1, 33, 119
2, 81086, Note_off_c, 1, 33, 64
2, 81123, Note_on_c, 1, 34, 108
2, 81194, Note_off_c, 1, 34, 64
2, 81312, Note_on_c, 1, 33, 105
2, 81372, Note_off_c, 1, 33, 64
2, 81410, Note_on_c, 1, 25, 105
2, 81492, Note_off_c, 1, 25, 64
2, 81594, Note_on_c, 1, 25, 105
2, 81654, Note_off_c, 1, 25, 64
2, 81700, Note_on_c, 1, 25, 101
2, 81786, Note_off_c, 1, 25, 64
2, 81892, Note_on_c, 1, 34, 105
2, 81954, Note_off_c, 1, 34, 64
2, 81986, Note_on_c, 1, 33, 114
2, 82074, Note_off_c, 1, 33, 64
2, 82174, Note_on_c, 1, 32, 114
2, 82274, Note_off_c, 1, 32, 64
2, 82372, Note_on_c, 1, 32, 105
2, 82454, Note_off_c, 1, 32, 64
2, 82752, Note_on_c, 1, 32, 101
2, 82794, Note_off_c, 1, 32, 64
2, 82843, Note_on_c, 1, 32, 114
2, 82900, Note_off_c, 1, 32, 64
2, 82943, Note_on_c, 1, 27, 114
2, 83020, Note_off_c, 1, 27, 64
2, 83132, Note_on_c, 1, 27, 119
2, 83186, Note_off_c, 1, 27, 64
2, 83232, Note_on_c, 1, 27, 119
2, 83320, Note_off_c, 1, 27, 64
2, 83426, Note_on_c, 1, 34, 108
2, 83483, Note_off_c, 1, 34, 64
2, 83523, Note_on_c, 1, 33, 119
2, 83623, Note_off_c, 1, 33, 64
2, 83906, Note_on_c, 1, 32, 114
2, 83992, Note_off_c, 1, 32, 64
2, 84100, Note_on_c, 1, 32, 105
2, 84146, Note_off_c, 1, 32, 64
2, 84194, Note_on_c, 1, 32, 114
2, 84274, Note_off_c, 1, 32, 64
2, 84380, Note_on_c, 1, 35, 101
2, 84463, Note_off_c, 1, 35, 64
2, 84480, Note_on_c, 1, 25, 105
2, 84563, Note_off_c, 1, 25, 64
2, 84666, Note_on_c, 1, 25, 114
2, 84734, Note_off_c, 1, 25, 64
2, 84766, Note_on_c, 1, 25, 105
2, 84843, Note_off_c, 1, 25, 64
2, 84954, Note_on_c, 1, 34, 108
2, 85023, Note_off_c, 1, 34, 64
2, 85052, Note_on_c, 1, 33, 114
2, 85123, Note_off_c, 1, 33, 64
2, 85243, Note_on_c, 1, 32, 105
2, 85332, Note_off_c, 1, 32, 64
2, 85434, Note_on_c, 1, 32, 119
2, 85540, Note_off_c, 1, 32, 64
2, 85820, Note_on_c, 1, 25, 98
2, 85903, Note_off_c, 1, 25, 64
2, 85920, Note_on_c, 1, 32, 98
2, 85974, Note_off_c, 1, 32, 64
2, 86012, Note_on_c, 1, 27, 114
2, 86103, Note_off_c, 1, 27, 64
2, 86203, Note_on_c, 1, 27, 108
2, 86263, Note_off_c, 1, 27, 64
2, 86300, Note_on_c, 1, 27, 108
2, 86386, Note_off_c, 1, 27, 64
2, 86500, Note_on_c, 1, 34, 108
2, 86580, Note_off_c, 1, 34, 64
2, 86594, Note_on_c, 1, 33, 114
2, 86692, Note_off_c, 1, 33, 64
2, 86980, Note_on_c, 1, 33, 105
2, 87032, Note_off_c, 1, 33, 64
2, 87074, Note_on_c, 1, 33, 114
2, 87126, Note_off_c, 1, 33, 64
2, 87172, Note_on_c, 1, 33, 119
2, 87232, Note_off_c, 1, 33, 64
2, 87266, Note_on_c, 1, 34, 108
2, 87340, Note_off_c, 1, 34, 64
2, 87460, Note_on_c, 1, 33, 105
2, 87512, Note_off_c, 1, 33, 64
2, 87554, Note_on_c, 1, 25, 105
2, 87634, Note_off_c, 1, 25, 64
2, 87740, Note_on_c, 1, 25, 105
2, 87800, Note_off_c, 1, 25, 64
2, 87843, Note_on_c, 1, 25, 101
2, 87932, Note_off_c, 1, 25, 64
2, 88034, Note_on_c, 1, 34, 105
2, 88100, Note_off_c, 1, 34, 64
2, 88132, Note_on_c, 1, 33, 114
2, 88220, Note_off_c, 1, 33, 64
2, 88320, Note_on_c, 1, 32, 114
2, 88420, Note_off_c, 1, 32, 64
2, 88512, Note_on_c, 1, 32, 105
2, 88600, Note_off_c, 1, 32, 64
2, 88894, Note_on_c, 1, 32, 101
2, 88940, Note_off_c, 1, 32, 64
2, 88986, Note_on_c, 1, 32, 114
2, 89043, Note_off_c, 1, 32, 64
2, 89086, Note_on_c, 1, 27, 114
2, 89163, Note_off_c, 1, 27, 64
2, 89274, Note_on_c, 1, 27, 119
2, 89332, Note_off_c, 1, 27, 64
2, 89374, Note_on_c, 1, 27, 119
2, 89463, Note_off_c, 1, 27, 64
2, 89572, Note_on_c, 1, 34, 108
2, 89626, Note_off_c, 1, 34, 64
2, 89666, Note_on_c, 1, 33, 119
2, 89766, Note_off_c, 1, 33, 64
2, 90052, Note_on_c, 1, 32, 114
2, 90134, Note_off_c, 1, 32, 64
2, 90243, Note_on_c, 1, 32, 105
2, 90292, Note_off_c, 1, 32, 64
2, 90340, Note_on_c, 1, 32, 114
2, 90420, Note_off_c, 1, 32, 64
2, 90523, Note_on_c, 1, 35, 101
2, 90606, Note_off_c, 1, 35, 64
2, 90626, Note_on_c, 1, 37, 119
2, 90720, Note_off_c, 1, 37, 64
2, 90812, Note_on_c, 1, 35, 105
2, 90863, Note_off_c, 1, 35, 64
2, 90912, Note_on_c, 1, 37, 119
2, 90986, Note_off_c, 1, 37, 64
2, 91100, Note_on_c, 1, 42, 114
2, 91160, Note_off_c, 1, 42, 64
2, 91194, Note_on_c, 1, 41, 119
2, 91272, Note_off_c, 1, 41, 64
2, 91386, Note_on_c, 1, 35, 114
2, 91483, Note_off_c, 1, 35, 64
2, 91580, Note_on_c, 1, 37, 114
2, 91680, Note_off_c, 1, 37, 64
2, 91963, Note_on_c, 1, 27, 108
2, 92034, Note_off_c, 1, 27, 64
2, 92063, Note_on_c, 1, 32, 114
2, 92123, Note_off_c, 1, 32, 64
2, 92163, Note_on_c, 1, 33, 119
2, 92234, Note_off_c, 1, 33, 64
2, 92352, Note_on_c, 1, 32, 105
2, 92412, Note_off_c, 1, 32, 64
2, 92452, Note_on_c, 1, 33, 119
2, 92532, Note_off_c, 1, 33, 64
2, 92643, Note_on_c, 1, 35, 105
2, 92700, Note_off_c, 1, 35, 64
2, 92740, Note_on_c, 1, 34, 124
2, 92843, Note_off_c, 1, 34, 64
2, 93500, Note_on_c, 1, 33, 114
2, 93563, Note_off_c, 1, 33, 64
2, 93594, Note_on_c, 1, 35, 114
2, 93674, Note_off_c, 1, 35, 64
2, 93700, Note_on_c, 1, 37, 119
2, 93792, Note_off_c, 1, 37, 64
2, 93886, Note_on_c, 1, 35, 105
2, 93934, Note_off_c, 1, 35, 64
2, 93986, Note_on_c, 1, 37, 119
2, 94060, Note_off_c, 1, 37, 64
2, 94172, Note_on_c, 1, 42, 114
2, 94232, Note_off_c, 1, 42, 64
2, 94266, Note_on_c, 1, 41, 119
2, 94343, Note_off_c, 1, 41, 64
2, 94460, Note_on_c, 1, 35, 114
2, 94554, Note_off_c, 1, 35, 64
2, 94652, Note_on_c, 1, 37, 114
2, 94752, Note_off_c, 1, 37, 64
2, 95034, Note_on_c, 1, 27, 108
2, 95106, Note_off_c, 1, 27, 64
2, 95134, Note_on_c, 1, 32, 114
2, 95194, Note_off_c, 1, 32, 64
2, 95234, Note_on_c, 1, 33, 119
2, 95306, Note_off_c, 1, 33, 64
2, 95423, Note_on_c, 1, 32, 105
2, 95486, Note_off_c, 1, 32, 64
2, 95523, Note_on_c, 1, 33, 119
2, 95603, Note_off_c, 1, 33, 64
2, 95712, Note_on_c, 1, 35, 105
2, 95772, Note_off_c, 1, 35, 64
2, 95810, Note_on_c, 1, 34, 124
2, 95912, Note_off_c, 1, 34, 64
2, 96572, Note_on_c, 1, 33, 114
2, 96634, Note_off_c, 1, 33, 64
2, 96666, Note_on_c, 1, 35, 114
2, 96746, Note_off_c, 1, 35, 64
2, 96772, Note_on_c, 1, 37, 119
2, 96863, Note_off_c, 1, 37, 64
2, 96960, Note_on_c, 1, 35, 105
2, 97006, Note_off_c, 1, 35, 64
2, 97060, Note_on_c, 1, 37, 119
2, 97132, Note_off_c, 1, 37, 64
2, 97243, Note_on_c, 1, 42, 114
2, 97303, Note_off_c, 1, 42, 64
2, 97340, Note_on_c, 1, 41, 119
2, 97412, Note_off_c, 1, 41, 64
2, 97532, Note_on_c, 1, 35, 114
2, 97626, Note_off_c, 1, 35, 64
2, 97723, Note_on_c, 1, 37, 114
2, 97823, Note_off_c, 1, 37, 64
2, 98106, Note_on_c, 1, 27, 108
2, 98180, Note_off_c, 1, 27, 64
2, 98206, Note_on_c, 1, 32, 114
2, 98266, Note_off_c, 1, 32, 64
2, 98306, Note_on_c, 1, 33, 119
2, 98380, Note_off_c, 1, 33, 64
2, 98494, Note_on_c, 1, 32, 105
2, 98560, Note_off_c, 1, 32, 64
2, 98594, Note_on_c, 1, 33, 119
2, 98674, Note_off_c, 1, 33, 64
2, 98786, Note_on_c, 1, 35, 105
2, 98843, Note_off_c, 1, 35, 64
2, 98883, Note_on_c, 1, 34, 124
2, 98986, Note_off_c, 1, 34, 64
2, 99643, Note_on_c, 1, 33, 114
2, 99706, Note_off_c, 1, 33, 64
2, 99740, Note_on_c, 1, 35, 114
2, 99820, Note_off_c, 1, 35, 64
2, 99843, Note_on_c, 1, 37, 119
2, 99934, Note_off_c, 1, 37, 64
2, 100032, Note_on_c, 1, 35, 105
2, 100080, Note_off_c, 1, 35, 64
2, 100132, Note_on_c, 1, 37, 119
2, 100203, Note_off_c, 1, 37, 64
2, 100312, Note_on_c, 1, 42, 114
2, 100374, Note_off_c, 1, 42, 64
2, 100410, Note_on_c, 1, 41, 119
2, 100486, Note_off_c, 1, 41, 64
2, 100603, Note_on_c, 1, 35, 114
2, 100700, Note_off_c, 1, 35, 64
2, 100794, Note_on_c, 1, 37, 114
2, 100894, Note_off_c, 1, 37, 64
2, 101180, Note_on_c, 1, 27, 108
2, 101252, Note_off_c, 1, 27, 64
2, 101280, Note_on_c, 1, 32, 114
2, 101340, Note_off_c, 1, 32, 64
2, 101380, Note_on_c, 1, 33, 119
2, 101452, Note_off_c, 1, 33, 64
2, 101566, Note_on_c, 1, 32, 105
2, 101632, Note_off_c, 1, 32, 64
2, 101666, Note_on_c, 1, 33, 119
2, 101746, Note_off_c, 1, 33, 64
2, 101860, Note_on_c, 1, 35, 105
2, 101912, Note_off_c, 1, 35, 64
2, 101954, Note_on_c, 1, 34, 124
2, 102060, Note_off_c, 1, 34, 64
2, 102712, Note_on_c, 1, 33, 114
2, 102780, Note_off_c, 1, 33, 64
2, 102810, Note_on_c, 1, 35, 114
2, 102892, Note_off_c, 1, 35, 64
2, 115200, Note_on_c, 1, 33, 114
2, 115260, Note_off_c, 1, 33, 64
2, 115394, Note_on_c, 1, 33, 114
2, 115440, Note_off_c, 1, 33, 64
2, 115486, Note_on_c, 1, 33, 119
2, 115552, Note_off_c, 1, 33, 64
2, 115683, Note_on_c, 1, 35, 114
2, 115734, Note_off_c, 1, 35, 64
2, 115774, Note_on_c, 1, 34, 114
2, 115840, Note_off_c, 1, 34, 64
2, 115963, Note_on_c, 1, 32, 114
2, 116034, Note_off_c, 1, 32, 64
2, 116154, Note_on_c, 1, 33, 105
2, 116240, Note_off_c, 1, 33, 64
2, 116540, Note_on_c, 1, 27, 108
2, 116594, Note_off_c, 1, 27, 64
2, 116634, Note_on_c, 1, 33, 105
2, 116710, Note_off_c, 1, 33, 64
2, 116932, Note_on_c, 1, 32, 105
2, 116974, Note_off_c, 1, 32, 64
2, 117026, Note_on_c, 1, 33, 114
2, 117103, Note_off_c, 1, 33, 64
2, 117220, Note_on_c, 1, 35, 114
2, 117266, Note_off_c, 1, 35, 64
2, 117312, Note_on_c, 1, 34, 119
2, 117403, Note_off_c, 1, 34, 64
2, 118080, Note_on_c, 1, 27, 114
2, 118140, Note_off_c, 1, 27, 64
2, 118180, Note_on_c, 1, 33, 119
2, 118260, Note_off_c, 1, 33, 64
2, 118466, Note_on_c, 1, 32, 114
2, 118523, Note_off_c, 1, 32, 64
2, 118563, Note_on_c, 1, 33, 114
2, 118643, Note_off_c, 1, 33, 64
2, 118754, Note_on_c, 1, 35, 105
2, 118806, Note_off_c, 1, 35, 64
2, 118852, Note_on_c, 1, 34, 119
2, 118912, Note_off_c, 1, 34, 64
2, 119043, Note_on_c, 1, 32, 114
2, 119123, Note_off_c, 1, 32, 64
2, 119234, Note_on_c, 1, 33, 114
2, 119312, Note_off_c, 1, 33, 64
2, 119612, Note_on_c, 1, 32, 105
2, 119666, Note_off_c, 1, 32, 64
2, 119710, Note_on_c, 1, 33, 114
2, 119766, Note_off_c, 1, 33, 64
2, 119806, Note_on_c, 1, 33, 105
2, 119886, Note_off_c, 1, 33, 64
2, 120000, Note_on_c, 1, 32, 105
2, 120060, Note_off_c, 1, 32, 64
2, 120094, Note_on_c, 1, 33, 114
2, 120186, Note_off_c, 1, 33, 64
2, 120286, Note_on_c, 1, 35, 101
2, 120343, Note_off_c, 1, 35, 64
2, 120383, Note_on_c, 1, 34, 119
2, 120452, Note_off_c, 1, 34, 64
2, 121152, Note_on_c, 1, 32, 114
2, 121203, Note_off_c, 1, 32, 64
2, 121246, Note_on_c, 1, 33, 124
2, 121300, Note_off_c, 1, 33, 64
2, 121343, Note_on_c, 1, 25, 105
2, 121426, Note_off_c, 1, 25, 64
2, 121532, Note_on_c, 1, 25, 114
2, 121600, Note_off_c, 1, 25, 64
2, 121632, Note_on_c, 1, 25, 105
2, 121706, Note_off_c, 1, 25, 64
2, 121820, Note_on_c, 1, 34, 108
2, 121886, Note_off_c, 1, 34, 64
2, 121912, Note_on_c, 1, 33, 114
2, 121986, Note_off_c, 1, 33, 64
2, 122106, Note_on_c, 1, 32, 105
2, 122194, Note_off_c, 1, 32, 64
2, 122300, Note_on_c, 1, 32, 119
2, 122403, Note_off_c, 1, 32, 64
2, 122683, Note_on_c, 1, 25, 98
2, 122766, Note_off_c, 1, 25, 64
2, 122783, Note_on_c, 1, 32, 98
2, 122840, Note_off_c, 1, 32, 64
2, 122880, Note_on_c, 1, 27, 114
2, 122966, Note_off_c, 1, 27, 64
2, 123066, Note_on_c, 1, 27, 108
2, 123126, Note_off_c, 1, 27, 64
2, 123163, Note_on_c, 1, 27, 108
2, 123252, Note_off_c, 1, 27, 64
2, 123363, Note_on_c, 1, 34, 108
2, 123443, Note_off_c, 1, 34, 64
2, 123460, Note_on_c, 1, 33, 114
2, 123554, Note_off_c, 1, 33, 64
2, 123843, Note_on_c, 1, 33, 105
2, 123894, Note_off_c, 1, 33, 64
2, 123940, Note_on_c, 1, 33, 114
2, 123992, Note_off_c, 1, 33, 64
2, 124034, Note_on_c, 1, 33, 119
2, 124094, Note_off_c, 1, 33, 64
2, 124132, Note_on_c, 1, 34, 108
2, 124203, Note_off_c, 1, 34, 64
2, 124323, Note_on_c, 1, 33, 105
2, 124380, Note_off_c, 1, 33, 64
2, 124420, Note_on_c, 1, 25, 105
2, 124500, Note_off_c, 1, 25, 64
2, 124603, Note_on_c, 1, 25, 105
2, 124663, Note_off_c, 1, 25, 64
2, 124706, Note_on_c, 1, 25, 101
2, 124794, Note_off_c, 1, 25, 64
2, 124900, Note_on_c, 1, 34, 105
2, 124963, Note_off_c, 1, 34, 64
2, 124994, Note_on_c, 1, 33, 114
2, 125083, Note_off_c, 1, 33, 64
2, 125183, Note_on_c, 1, 32, 114
2, 125283, Note_off_c, 1, 32, 64
2, 125380, Note_on_c, 1, 32, 105
2, 125463, Note_off_c, 1, 32, 64
2, 125760, Note_on_c, 1, 32, 101
2, 125803, Note_off_c, 1, 32, 64
2, 125852, Note_on_c, 1, 32, 114
2, 125906, Note_off_c, 1, 32, 64
2, 125952, Note_on_c, 1, 27, 114
2, 126026, Note_off_c, 1, 27, 64
2, 126140, Note_on_c, 1, 27, 119
2, 126194, Note_off_c, 1, 27, 64
2, 126240, Note_on_c, 1, 27, 119
2, 126326, Note_off_c, 1, 27, 64
2, 126434, Note_on_c, 1, 34, 108
2, 126492, Note_off_c, 1, 34, 64
2, 126532, Note_on_c, 1, 33, 119
2, 126632, Note_off_c, 1, 33, 64
2, 126912, Note_on_c, 1, 32, 114
2, 127000, Note_off_c, 1, 32, 64
2, 127106, Note_on_c, 1, 32, 105
2, 127154, Note_off_c, 1, 32, 64
2, 127203, Note_on_c, 1, 32, 114
2, 127283, Note_off_c, 1, 32, 64
2, 127386, Note_on_c, 1, 35, 101
2, 127472, Note_off_c, 1, 35, 64
2, 127486, Note_on_c, 1, 25, 105
2, 127572, Note_off_c, 1, 25, 64
2, 127674, Note_on_c, 1, 25, 114
2, 127743, Note_off_c, 1, 25, 64
2, 127774, Note_on_c, 1, 25, 105
2, 127852, Note_off_c, 1, 25, 64
2, 127963, Note_on_c, 1, 34, 108
2, 128032, Note_off_c, 1, 34, 64
2, 128060, Note_on_c, 1, 33, 114
2, 128132, Note_off_c, 1, 33, 64
2, 128252, Note_on_c, 1, 32, 105
2, 128340, Note_off_c, 1, 32, 64
2, 128443, Note_on_c, 1, 32, 119
2, 128546, Note_off_c, 1, 32, 64
2, 128826, Note_on_c, 1, 25, 98
2, 128910, Note_off_c, 1, 25, 64
2, 128926, Note_on_c, 1, 32, 98
2, 128983, Note_off_c, 1, 32, 64
2, 129023, Note_on_c, 1, 27, 114
2, 129110, Note_off_c, 1, 27, 64
2, 129210, Note_on_c, 1, 27, 108
2, 129272, Note_off_c, 1, 27, 64
2, 129306, Note_on_c, 1, 27, 108
2, 129394, Note_off_c, 1, 27, 64
2, 129506, Note_on_c, 1, 34, 108
2, 129586, Note_off_c, 1, 34, 64
2, 129603, Note_on_c, 1, 33, 114
2, 129700, Note_off_c, 1, 33, 64
2, 129986, Note_on_c, 1, 33, 105
2, 130040, Note_off_c, 1, 33, 64
2, 130083, Note_on_c, 1, 33, 114
2, 130134, Note_off_c, 1, 33, 64
2, 130180, Note_on_c, 1, 33, 119
2, 130240, Note_off_c, 1, 33, 64
2, 130274, Note_on_c, 1, 34, 108
2, 130346, Note_off_c, 1, 34, 64
2, 130466, Note_on_c, 1, 33, 105
2, 130523, Note_off_c, 1, 33, 64
2, 130563, Note_on_c, 1, 25, 105
2, 130643, Note_off_c, 1, 25, 64
2, 130746, Note_on_c, 1, 25, 105
2, 130806, Note_off_c, 1, 25, 64
2, 130852, Note_on_c, 1, 25, 101
2, 130940, Note_off_c, 1, 25, 64
2, 131043, Note_on_c, 1, 34, 105
2, 131106, Note_off_c, 1, 34, 64
2, 131140, Note_on_c, 1, 33, 114
2, 131226, Note_off_c, 1, 33, 64
2, 131326, Note_on_c, 1, 32, 114
2, 131426, Note_off_c, 1, 32, 64
2, 131523, Note_on_c, 1, 32, 105
2, 131606, Note_off_c, 1, 32, 64
2, 131903, Note_on_c, 1, 32, 101
2, 131946, Note_off_c, 1, 32, 64
2, 131994, Note_on_c, 1, 32, 114
2, 132052, Note_off_c, 1, 32, 64
2, 132094, Note_on_c, 1, 27, 114
2, 132172, Note_off_c, 1, 27, 64
2, 132283, Note_on_c, 1, 27, 119
2, 132340, Note_off_c, 1, 27, 64
2, 132383, Note_on_c, 1, 27, 119
2, 132472, Note_off_c, 1, 27, 64
2, 132580, Note_on_c, 1, 34, 108
2, 132634, Note_off_c, 1, 34, 64
2, 132674, Note_on_c, 1, 33, 119
2, 132774, Note_off_c, 1, 33, 64
2, 133060, Note_on_c, 1, 32, 114
2, 133143, Note_off_c, 1, 32, 64
2, 133252, Note_on_c, 1, 32, 105
2, 133300, Note_off_c, 1, 32, 64
2, 133346, Note_on_c, 1, 32, 114
2, 133426, Note_off_c, 1, 32, 64
2, 133532, Note_on_c, 1, 35, 101
2, 133612, Note_off_c, 1, 35, 64
2, 133632, Note_on_c, 1, 25, 105
2, 133712, Note_off_c, 1, 25, 64
2, 133820, Note_on_c, 1, 25, 114
2, 133886, Note_off_c, 1, 25, 64
2, 133920, Note_on_c, 1, 25, 105
2, 133994, Note_off_c, 1, 25, 64
2, 134106, Note_on_c, 1, 34, 108
2, 134174, Note_off_c, 1, 34, 64
2, 134203, Note_on_c, 1, 33, 114
2, 134274, Note_off_c, 1, 33, 64
2, 134394, Note_on_c, 1, 32, 105
2, 134483, Note_off_c, 1, 32, 64
2, 134586, Note_on_c, 1, 32, 119
2, 134692, Note_off_c, 1, 32, 64
2, 134972, Note_on_c, 1, 25, 98
2, 135054, Note_off_c, 1, 25, 64
2, 135072, Note_on_c, 1, 32, 98
2, 135126, Note_off_c, 1, 32, 64
2, 135166, Note_on_c, 1, 27, 114
2, 135254, Note_off_c, 1, 27, 64
2, 135354, Note_on_c, 1, 27, 108
2, 135412, Note_off_c, 1, 27, 64
2, 135452, Note_on_c, 1, 27, 108
2, 135540, Note_off_c, 1, 27, 64
2, 135652, Note_on_c, 1, 34, 108
2, 135732, Note_off_c, 1, 34, 64
2, 135746, Note_on_c, 1, 33, 114
2, 135843, Note_off_c, 1, 33, 64
2, 136132, Note_on_c, 1, 33, 105
2, 136183, Note_off_c, 1, 33, 64
2, 136226, Note_on_c, 1, 33, 114
2, 136280, Note_off_c, 1, 33, 64
2, 136323, Note_on_c, 1, 33, 119
2, 136383, Note_off_c, 1, 33, 64
2, 136420, Note_on_c, 1, 34, 108
2, 136492, Note_off_c, 1, 34, 64
2, 136610, Note_on_c, 1, 33, 105
2, 136666, Note_off_c, 1, 33, 64
2, 136706, Note_on_c, 1, 25, 105
2, 136786, Note_off_c, 1, 25, 64
2, 136892, Note_on_c, 1, 25, 105
2, 136952, Note_off_c, 1, 25, 64
2, 136994, Note_on_c, 1, 25, 101
2, 137083, Note_off_c, 1, 25, 64
2, 137186, Note_on_c, 1, 34, 105
2, 137252, Note_off_c, 1, 34, 64
2, 137283, Note_on_c, 1, 33, 114
2, 137372, Note_off_c, 1, 33, 64
2, 137472, Note_on_c, 1, 32, 114
2, 137572, Note_off_c, 1, 32, 64
2, 137666, Note_on_c, 1, 32, 105
2, 137752, Note_off_c, 1, 32, 64
2, 138046, Note_on_c, 1, 32, 101
2, 138092, Note_off_c, 1, 32, 64
2, 138140, Note_on_c, 1, 32, 114
2, 138194, Note_off_c, 1, 32, 64
2, 138240, Note_on_c, 1, 27, 114
2, 138312, Note_off_c, 1, 27, 64
2, 138426, Note_on_c, 1, 27, 119
2, 138483, Note_off_c, 1, 27, 64
2, 138526, Note_on_c, 1, 27, 119
2, 138612, Note_off_c, 1, 27, 64
2, 138723, Note_on_c, 1, 34, 108
2, 138780, Note_off_c, 1, 34, 64
2, 138820, Note_on_c, 1, 33, 119
2, 138920, Note_off_c, 1, 33, 64
2, 139203, Note_on_c, 1, 32, 114
2, 139286, Note_off_c, 1, 32, 64
2, 139394, Note_on_c, 1, 32, 105
2, 139443, Note_off_c, 1, 32, 64
2, 139492, Note_on_c, 1, 32, 114
2, 139572, Note_off_c, 1, 32, 64
2, 139674, Note_on_c, 1, 35, 101
2, 139760, Note_off_c, 1, 35, 64
2, 139774, Note_on_c, 1, 25, 105
2, 139860, Note_off_c, 1, 25, 64
2, 139963, Note_on_c, 1, 25, 114
2, 140032, Note_off_c, 1, 25, 64
2, 140063, Note_on_c, 1, 25, 105
2, 140140, Note_off_c, 1, 25, 64
2, 140252, Note_on_c, 1, 34, 108
2, 140320, Note_off_c, 1, 34, 64
2, 140346, Note_on_c, 1, 33, 114
2, 140420, Note_off_c, 1, 33, 64
2, 140540, Note_on_c, 1, 32, 105
2, 140626, Note_off_c, 1, 32, 64
2, 140732, Note_on_c, 1, 32, 119
2, 140834, Note_off_c, 1, 32, 64
2, 141112, Note_on_c, 1, 25, 98
2, 141200, Note_off_c, 1, 25, 64
2, 141212, Note_on_c, 1, 32, 98
2, 141272, Note_off_c, 1, 32, 64
2, 141310, Note_on_c, 1, 27, 114
2, 141400, Note_off_c, 1, 27, 64
2, 141500, Note_on_c, 1, 27, 108
2, 141560, Note_off_c, 1, 27, 64
2, 141594, Note_on_c, 1, 27, 108
2, 141683, Note_off_c, 1, 27, 64
2, 141794, Note_on_c, 1, 34, 108
2, 141874, Note_off_c, 1, 34, 64
2, 141892, Note_on_c, 1, 33, 114
2, 141986, Note_off_c, 1, 33, 64
2, 142274, Note_on_c, 1, 33, 105
2, 142326, Note_off_c, 1, 33, 64
2, 142372, Note_on_c, 1, 33, 114
2, 142423, Note_off_c, 1, 33, 64
2, 142466, Note_on_c, 1, 33, 119
2, 142526, Note_off_c, 1, 33, 64
2, 142563, Note_on_c, 1, 34, 108
2, 142634, Note_off_c, 1, 34, 64
2, 142754, Note_on_c, 1, 33, 105
2, 142810, Note_off_c, 1, 33, 64
2, 142852, Note_on_c, 1, 25, 105
2, 142932, Note_off_c, 1, 25, 64
2, 143034, Note_on_c, 1, 25, 105
2, 143094, Note_off_c, 1, 25, 64
2, 143140, Note_on_c, 1, 25, 101
2, 143226, Note_off_c, 1, 25, 64
2, 143332, Note_on_c, 1, 34, 105
2, 143394, Note_off_c, 1, 34, 64
2, 143426, Note_on_c, 1, 33, 114
2, 143512, Note_off_c, 1, 33, 64
2, 143612, Note_on_c, 1, 32, 114
2, 143712, Note_off_c, 1, 32, 64
2, 143810, Note_on_c, 1, 32, 105
2, 143894, Note_off_c, 1, 32, 64
2, 144192, Note_on_c, 1, 32, 101
2, 144234, Note_off_c, 1, 32, 64
2, 144283, Note_on_c, 1, 32, 114
2, 144340, Note_off_c, 1, 32, 64
2, 144383, Note_on_c, 1, 27, 114
2, 144460, Note_off_c, 1, 27, 64
2, 144572, Note_on_c, 1, 27, 119
2, 144626, Note_off_c, 1, 27, 64
2, 144672, Note_on_c, 1, 27, 119
2, 144760, Note_off_c, 1, 27, 64
2, 144866, Note_on_c, 1, 34, 108
2, 144923, Note_off_c, 1, 34, 64
2, 144963, Note_on_c, 1, 33, 119
2, 145063, Note_off_c, 1, 33, 64
2, 145346, Note_on_c, 1, 32, 114
2, 145432, Note_off_c, 1, 32, 64
2, 145540, Note_on_c, 1, 32, 105
2, 145586, Note_off_c, 1, 32, 64
2, 145634, Note_on_c, 1, 32, 114
2, 145712, Note_off_c, 1, 32, 64
2, 145820, Note_on_c, 1, 35, 101
2, 145903, Note_off_c, 1, 35, 64
2, 145920, Note_on_c, 1, 25, 105
2, 146003, Note_off_c, 1, 25, 64
2, 146106, Note_on_c, 1, 25, 114
2, 146174, Note_off_c, 1, 25, 64
2, 146206, Note_on_c, 1, 25, 104
2, 146283, Note_off_c, 1, 25, 64
2, 146394, Note_on_c, 1, 34, 105
2, 146463, Note_off_c, 1, 34, 64
2, 146492, Note_on_c, 1, 33, 109
2, 146563, Note_off_c, 1, 33, 64
2, 146683, Note_on_c, 1, 32, 99
2, 146772, Note_off_c, 1, 32, 64
2, 146874, Note_on_c, 1, 32, 111
2, 146980, Note_off_c, 1, 32, 64
2, 147260, Note_on_c, 1, 25, 88
2, 147343, Note_off_c, 1, 25, 64
2, 147360, Note_on_c, 1, 32, 87
2, 147412, Note_off_c, 1, 32, 64
2, 147454, Note_on_c, 1, 27, 100
2, 147543, Note_off_c, 1, 27, 64
2, 147643, Note_on_c, 1, 27, 93
2, 147703, Note_off_c, 1, 27, 64
2, 147740, Note_on_c, 1, 27, 93
2, 147826, Note_off_c, 1, 27, 64
2, 147940, Note_on_c, 1, 34, 91
2, 148020, Note_off_c, 1, 34, 64
2, 148034, Note_on_c, 1, 33, 95
2, 148132, Note_off_c, 1, 33, 64
2, 148420, Note_on_c, 1, 33, 84
2, 148472, Note_off_c, 1, 33, 64
2, 148512, Note_on_c, 1, 33, 90
2, 148566, Note_off_c, 1, 33, 64
2, 148610, Note_on_c, 1, 33, 92
2, 148672, Note_off_c, 1, 33, 64
2, 148706, Note_on_c, 1, 34, 84
2, 148780, Note_off_c, 1, 34, 64
2, 148900, Note_on_c, 1, 33, 80
2, 148954, Note_off_c, 1, 33, 64
2, 148994, Note_on_c, 1, 25, 79
2, 149074, Note_off_c, 1, 25, 64
2, 149180, Note_on_c, 1, 25, 77
2, 149240, Note_off_c, 1, 25, 64
2, 149283, Note_on_c, 1, 25, 73
2, 149372, Note_off_c, 1, 25, 64
2, 149474, Note_on_c, 1, 34, 74
2, 149540, Note_off_c, 1, 34, 64
2, 149572, Note_on_c, 1, 33, 80
2, 149660, Note_off_c, 1, 33, 64
2, 149760, Note_on_c, 1, 32, 78
2, 149860, Note_off_c, 1, 32, 64
2, 149954, Note_on_c, 1, 32, 70
2, 150040, Note_off_c, 1, 32, 64
2, 150334, Note_on_c, 1, 32, 64
2, 150380, Note_off_c, 1, 32, 64
2, 150426, Note_on_c, 1, 32, 72
2, 150483, Note_off_c, 1, 32, 64
2, 150526, Note_on_c, 1, 27, 71
2, 150603, Note_off_c, 1, 27, 64
2, 150712, Note_on_c, 1, 27, 72
2, 150772, Note_off_c, 1, 27, 64
2, 150812, Note_on_c, 1, 27, 71
2, 150903, Note_off_c, 1, 27, 64
2, 151010, Note_on_c, 1, 34, 62
2, 151066, Note_off_c, 1, 34, 64
2, 151106, Note_on_c, 1, 33, 67
2, 151206, Note_off_c, 1, 33, 64
2, 151492, Note_on_c, 1, 32, 62
2, 151574, Note_off_c, 1, 32, 64
2, 151683, Note_on_c, 1, 32, 55
2, 151732, Note_off_c, 1, 32, 64
2, 151780, Note_on_c, 1, 32, 58
2, 151860, Note_off_c, 1, 32, 64
2, 151963, Note_on_c, 1, 35, 50
2, 152046, Note_off_c, 1, 35, 64
2, 152063, Note_on_c, 1, 25, 51
2, 152146, Note_off_c, 1, 25, 64
2, 152252, Note_on_c, 1, 25, 54
2, 152320, Note_off_c, 1, 25, 64
2, 152352, Note_on_c, 1, 25, 49
2, 152426, Note_off_c, 1, 25, 64
2, 152540, Note_on_c, 1, 34, 49
2, 152606, Note_off_c, 1, 34, 64
2, 152634, Note_on_c, 1, 33, 50
2, 152706, Note_off_c, 1, 33, 64
2, 152826, Note_on_c, 1, 32, 45
2, 152912, Note_off_c, 1, 32, 64
2, 153020, Note_on_c, 1, 32, 48
2, 153123, Note_off_c, 1, 32, 64
2, 153403, Note_on_c, 1, 25, 38
2, 153486, Note_off_c, 1, 25, 64
2, 153503, Note_on_c, 1, 32, 37
2, 153560, Note_off_c, 1, 32, 64
2, 153600, Note_on_c, 1, 27, 41
2, 153686, Note_off_c, 1, 27, 64
2, 153786, Note_on_c, 1, 27, 37
2, 153846, Note_off_c, 1, 27, 64
2, 153883, Note_on_c, 1, 27, 36
2, 153972, Note_off_c, 1, 27, 64
2, 154083, Note_on_c, 1, 34, 35
2, 154163, Note_off_c, 1, 34, 64
2, 154180, Note_on_c, 1, 33, 36
2, 154274, Note_off_c, 1, 33, 64
2, 154563, Note_on_c, 1, 33, 29
2, 154612, Note_off_c, 1, 33, 64
2, 154660, Note_on_c, 1, 33, 30
2, 154710, Note_off_c, 1, 33, 64
2, 154754, Note_on_c, 1, 33, 30
2, 154812, Note_off_c, 1, 33, 64
2, 154852, Note_on_c, 1, 34, 27
2, 154923, Note_off_c, 1, 34, 64
2, 155043, Note_on_c, 1, 33, 26
2, 155100, Note_off_c, 1, 33, 64
2, 155140, Note_on_c, 1, 25, 25
2, 155220, Note_off_c, 1, 25, 64
2, 155323, Note_on_c, 1, 25, 23
2, 155383, Note_off_c, 1, 25, 64
2, 155426, Note_on_c, 1, 25, 21
2, 155512, Note_off_c, 1, 25, 64
2, 155620, Note_on_c, 1, 34, 20
2, 155683, Note_off_c, 1, 34, 64
2, 155712, Note_on_c, 1, 33, 20
2, 155803, Note_off_c, 1, 33, 64
2, 155903, Note_on_c, 1, 32, 19
2, 156003, Note_off_c, 1, 32, 64
2, 156100, Note_on_c, 1, 32, 16
2, 156183, Note_off_c, 1, 32, 64
2, 156480, Note_on_c, 1, 32, 12
2, 156523, Note_off_c, 1, 32, 64
2, 156572, Note_on_c, 1, 32, 1
2, 156620, Note_off_c, 1, 32, 1
2, 158206, End_track
3, 0, Start_track
3, 0, Title_t, "MELODY"
3, 1986, Program_c, 2, 73
3, 1992, Control_c, 2, 5, 100
3, 1992, Control_c, 2, 8, 50
3, 1992, Control_c, 2, 9, 127
3, 1994, Control_c, 2, 91, 45
3, 1994, Control_c, 2, 92, 0
3, 17283, Note_on_c, 2, 56, 92
3, 17286, Control_c, 2, 1, 0
3, 17286, Pitch_bend_c, 2, 8192
3, 17454, Note_off_c, 2, 56, 64
3, 17460, Note_on_c, 2, 60, 78
3, 17643, Note_off_c, 2, 60, 64
3, 17646, Note_on_c, 2, 61, 87
3, 17786, Note_off_c, 2, 61, 64
3, 17846, Note_on_c, 2, 61, 87
3, 18040, Note_off_c, 2, 61, 64
3, 18043, Note_on_c, 2, 62, 78
3, 18243, Note_off_c, 2, 62, 64
3, 18246, Note_on_c, 2, 60, 87
3, 18506, Note_off_c, 2, 60, 64
3, 18510, Note_on_c, 2, 56, 78
3, 18634, Note_off_c, 2, 56, 64
3, 18640, Note_on_c, 2, 54, 65
3, 19600, Note_off_c, 2, 54, 64
3, 20143, Note_on_c, 2, 56, 74
3, 20286, Note_off_c, 2, 56, 64
3, 20340, Note_on_c, 2, 56, 87
3, 20526, Note_off_c, 2, 56, 64
3, 20532, Note_on_c, 2, 60, 78
3, 20726, Note_off_c, 2, 60, 64
3, 20732, Note_on_c, 2, 61, 92
3, 20920, Note_off_c, 2, 61, 64
3, 20923, Note_on_c, 2, 56, 87
3, 21194, Note_off_c, 2, 56, 64
3, 21306, Note_on_c, 2, 54, 87
3, 21492, Note_off_c, 2, 54, 64
3, 21494, Note_on_c, 2, 66, 97
3, 21800, Note_off_c, 2, 66, 64
3, 21886, Note_on_c, 2, 66, 97
3, 22074, Note_off_c, 2, 66, 64
3, 22080, Note_on_c, 2, 62, 78
3, 23032, Note_off_c, 2, 62, 64
3, 23226, Note_on_c, 2, 56, 87
3, 23360, Note_off_c, 2, 56, 64
3, 23426, Note_on_c, 2, 56, 78
3, 23612, Note_off_c, 2, 56, 64
3, 23620, Note_on_c, 2, 60, 87
3, 23810, Note_off_c, 2, 60, 64
3, 23812, Note_on_c, 2, 61, 87
3, 24012, Note_off_c, 2, 61, 64
3, 24020, Note_on_c, 2, 56, 87
3, 24203, Note_off_c, 2, 56, 64
3, 24206, Note_on_c, 2, 61, 87
3, 24394, Note_off_c, 2, 61, 64
3, 24400, Note_on_c, 2, 62, 87
3, 24594, Note_off_c, 2, 62, 64
3, 24783, Note_on_c, 2, 60, 87
3, 24966, Note_off_c, 2, 60, 64
3, 24972, Note_on_c, 2, 56, 78
3, 25166, Note_off_c, 2, 56, 64
3, 25172, Note_on_c, 2, 60, 78
3, 25254, Note_off_c, 2, 60, 64
3, 25260, Note_on_c, 2, 56, 74
3, 25354, Note_off_c, 2, 56, 64
3, 25360, Note_on_c, 2, 54, 78
3, 25986, Note_off_c, 2, 54, 64
3, 26300, Note_on_c, 2, 56, 87
3, 26432, Note_off_c, 2, 56, 64
3, 26494, Note_on_c, 2, 56, 78
3, 26680, Note_off_c, 2, 56, 64
3, 26683, Note_on_c, 2, 60, 81
3, 26874, Note_off_c, 2, 60, 64
3, 26880, Note_on_c, 2, 61, 78
3, 27000, Note_off_c, 2, 61, 64
3, 27072, Note_on_c, 2, 56, 87
3, 27266, Note_off_c, 2, 56, 64
3, 27272, Note_on_c, 2, 54, 92
3, 27483, Note_off_c, 2, 54, 64
3, 27634, Note_on_c, 2, 62, 92
3, 27783, Note_off_c, 2, 62, 64
3, 27840, Note_on_c, 2, 62, 87
3, 27946, Note_off_c, 2, 62, 64
3, 28023, Note_on_c, 2, 62, 87
3, 28220, Note_off_c, 2, 62, 64
3, 28223, Note_on_c, 2, 63, 92
3, 28420, Note_off_c, 2, 63, 64
3, 28423, Note_on_c, 2, 62, 87
3, 28820, Note_off_c, 2, 62, 64
3, 29194, Note_on_c, 2, 61, 87
3, 30140, Note_off_c, 2, 61, 64
3, 30143, Note_on_c, 2, 62, 78
3, 30332, Note_off_c, 2, 62, 64
3, 30334, Note_on_c, 2, 63, 92
3, 30520, Note_off_c, 2, 63, 64
3, 30523, Note_on_c, 2, 61, 78
3, 30700, Note_off_c, 2, 61, 64
3, 30703, Note_on_c, 2, 62, 87
3, 30863, Note_off_c, 2, 62, 64
3, 30910, Note_on_c, 2, 62, 92
3, 31026, Note_off_c, 2, 62, 64
3, 31083, Note_on_c, 2, 62, 92
3, 31283, Note_off_c, 2, 62, 64
3, 31286, Note_on_c, 2, 63, 92
3, 31466, Note_off_c, 2, 63, 64
3, 31472, Note_on_c, 2, 62, 87
3, 31646, Note_off_c, 2, 62, 64
3, 31652, Note_on_c, 2, 54, 78
3, 31826, Note_off_c, 2, 54, 64
3, 31874, Note_on_c, 2, 54, 97
3, 32454, Note_off_c, 2, 54, 64
3, 33020, Note_on_c, 2, 56, 92
3, 33206, Note_off_c, 2, 56, 64
3, 33210, Note_on_c, 2, 60, 87
3, 33400, Note_off_c, 2, 60, 64
3, 33403, Note_on_c, 2, 61, 87
3, 33586, Note_off_c, 2, 61, 64
3, 33592, Note_on_c, 2, 56, 97
3, 33774, Note_off_c, 2, 56, 64
3, 33980, Note_on_c, 2, 62, 92
3, 34180, Note_off_c, 2, 62, 64
3, 34183, Note_on_c, 2, 63, 97
3, 34360, Note_off_c, 2, 63, 64
3, 34363, Note_on_c, 2, 62, 92
3, 34740, Note_off_c, 2, 62, 64
3, 34943, Note_on_c, 2, 54, 87
3, 35034, Note_off_c, 2, 54, 64
3, 35040, Note_on_c, 2, 56, 87
3, 35120, Note_off_c, 2, 56, 64
3, 35123, Note_on_c, 2, 61, 78
3, 35200, Note_off_c, 2, 61, 64
3, 35203, Note_on_c, 2, 56, 78
3, 35294, Note_off_c, 2, 56, 64
3, 35310, Note_on_c, 2, 63, 103
3, 35520, Note_off_c, 2, 63, 64
3, 35634, Note_on_c, 2, 63, 103
3, 35900, Note_off_c, 2, 63, 64
3, 35903, Note_on_c, 2, 62, 92
3, 36300, Note_off_c, 2, 62, 64
3, 36480, Note_on_c, 2, 54, 87
3, 36546, Note_off_c, 2, 54, 64
3, 36552, Note_on_c, 2, 56, 78
3, 36640, Note_off_c, 2, 56, 64
3, 36643, Note_on_c, 2, 60, 81
3, 36734, Note_off_c, 2, 60, 64
3, 36740, Note_on_c, 2, 56, 78
3, 36834, Note_off_c, 2, 56, 64
3, 36854, Note_on_c, 2, 62, 92
3, 37106, Note_off_c, 2, 62, 64
3, 37183, Note_on_c, 2, 62, 87
3, 37446, Note_off_c, 2, 62, 64
3, 37452, Note_on_c, 2, 61, 87
3, 37674, Note_off_c, 2, 61, 64
3, 37680, Note_on_c, 2, 60, 71
3, 37772, Note_off_c, 2, 60, 64
3, 37774, Note_on_c, 2, 56, 78
3, 37986, Note_off_c, 2, 56, 64
3, 38032, Note_on_c, 2, 54, 87
3, 38120, Note_off_c, 2, 54, 64
3, 38123, Note_on_c, 2, 56, 74
3, 38226, Note_off_c, 2, 56, 64
3, 38234, Note_on_c, 2, 60, 74
3, 38310, Note_off_c, 2, 60, 64
3, 38312, Note_on_c, 2, 56, 78
3, 38400, Note_off_c, 2, 56, 64
3, 38410, Note_on_c, 2, 61, 87
3, 38760, Note_off_c, 2, 61, 64
3, 38763, Note_on_c, 2, 62, 78
3, 38963, Note_off_c, 2, 62, 64
3, 38966, Note_on_c, 2, 60, 87
3, 39146, Note_off_c, 2, 60, 64
3, 39152, Note_on_c, 2, 56, 74
3, 39340, Note_off_c, 2, 56, 64
3, 39343, Note_on_c, 2, 54, 78
3, 39563, Note_off_c, 2, 54, 64
3, 39726, Note_on_c, 2, 54, 78
3, 39920, Note_off_c, 2, 54, 64
3, 39923, Note_on_c, 2, 62, 87
3, 40212, Note_off_c, 2, 62, 64
3, 40310, Note_on_c, 2, 61, 87
3, 40703, Note_off_c, 2, 61, 64
3, 41100, Note_on_c, 2, 54, 87
3, 41166, Note_off_c, 2, 54, 64
3, 41172, Note_on_c, 2, 56, 78
3, 41246, Note_off_c, 2, 56, 64
3, 41252, Note_on_c, 2, 61, 78
3, 41323, Note_off_c, 2, 61, 64
3, 41326, Note_on_c, 2, 56, 78
3, 41423, Note_off_c, 2, 56, 64
3, 41443, Note_on_c, 2, 63, 103
3, 41674, Note_off_c, 2, 63, 64
3, 41763, Note_on_c, 2, 63, 103
3, 42023, Note_off_c, 2, 63, 64
3, 42026, Note_on_c, 2, 62, 92
3, 42440, Note_off_c, 2, 62, 64
3, 42603, Note_on_c, 2, 54, 87
3, 42674, Note_off_c, 2, 54, 64
3, 42680, Note_on_c, 2, 56, 78
3, 42760, Note_off_c, 2, 56, 64
3, 42763, Note_on_c, 2, 60, 74
3, 42860, Note_off_c, 2, 60, 64
3, 42863, Note_on_c, 2, 56, 87
3, 42972, Note_off_c, 2, 56, 64
3, 43000, Note_on_c, 2, 66, 92
3, 43346, Note_off_c, 2, 66, 64
3, 43372, Note_on_c, 2, 60, 81
3, 43572, Note_off_c, 2, 60, 64
3, 43574, Note_on_c, 2, 61, 87
3, 43754, Note_off_c, 2, 61, 64
3, 43760, Note_on_c, 2, 60, 49
3, 43846, Note_off_c, 2, 60, 64
3, 43852, Note_on_c, 2, 56, 87
3, 44043, Note_off_c, 2, 56, 64
3, 44126, Note_on_c, 2, 54, 87
3, 44206, Note_off_c, 2, 54, 64
3, 44210, Note_on_c, 2, 56, 78
3, 44310, Note_off_c, 2, 56, 64
3, 44323, Note_on_c, 2, 60, 74
3, 44420, Note_off_c, 2, 60, 64
3, 44423, Note_on_c, 2, 56, 87
3, 44543, Note_off_c, 2, 56, 64
3, 44554, Note_on_c, 2, 61, 92
3, 44934, Note_off_c, 2, 61, 64
3, 44940, Note_on_c, 2, 62, 78
3, 45112, Note_off_c, 2, 62, 64
3, 45120, Note_on_c, 2, 60, 81
3, 45443, Note_off_c, 2, 60, 64
3, 45446, Note_on_c, 2, 56, 71
3, 45546, Note_off_c, 2, 56, 64
3, 45552, Note_on_c, 2, 54, 78
3, 45752, Note_off_c, 2, 54, 64
3, 45883, Note_on_c, 2, 54, 92
3, 46060, Note_off_c, 2, 54, 64
3, 46066, Note_on_c, 2, 62, 92
3, 46260, Note_off_c, 2, 62, 64
3, 46263, Note_on_c, 2, 61, 77
3, 46432, Note_off_c, 2, 61, 64
3, 46463, Note_on_c, 2, 61, 87
3, 46910, Note_off_c, 2, 61, 64
3, 47803, Note_on_c, 2, 61, 87
3, 47912, Note_off_c, 2, 61, 64
3, 48006, Note_on_c, 2, 61, 97
3, 48186, Note_off_c, 2, 61, 64
3, 48192, Note_on_c, 2, 56, 87
3, 48374, Note_off_c, 2, 56, 64
3, 48380, Note_on_c, 2, 61, 92
3, 48600, Note_off_c, 2, 61, 64
3, 48603, Note_on_c, 2, 62, 92
3, 48912, Note_off_c, 2, 62, 64
3, 49334, Note_on_c, 2, 60, 87
3, 49523, Note_off_c, 2, 60, 64
3, 49526, Note_on_c, 2, 56, 87
3, 49723, Note_off_c, 2, 56, 64
3, 49726, Note_on_c, 2, 60, 81
3, 49794, Note_off_c, 2, 60, 64
3, 49800, Note_on_c, 2, 56, 65
3, 49923, Note_off_c, 2, 56, 64
3, 49926, Note_on_c, 2, 54, 78
3, 50612, Note_off_c, 2, 54, 64
3, 50880, Note_on_c, 2, 56, 87
3, 50994, Note_off_c, 2, 56, 64
3, 51066, Note_on_c, 2, 56, 74
3, 51254, Note_off_c, 2, 56, 64
3, 51260, Note_on_c, 2, 60, 81
3, 51446, Note_off_c, 2, 60, 64
3, 51452, Note_on_c, 2, 61, 87
3, 51640, Note_off_c, 2, 61, 64
3, 51646, Note_on_c, 2, 56, 78
3, 51832, Note_off_c, 2, 56, 64
3, 51834, Note_on_c, 2, 54, 92
3, 52103, Note_off_c, 2, 54, 64
3, 52426, Note_on_c, 2, 66, 97
3, 52563, Note_off_c, 2, 66, 64
3, 52612, Note_on_c, 2, 66, 97
3, 52812, Note_off_c, 2, 66, 64
3, 52820, Note_on_c, 2, 62, 92
3, 53172, Note_off_c, 2, 62, 64
3, 53186, Note_on_c, 2, 63, 92
3, 53372, Note_off_c, 2, 63, 64
3, 53374, Note_on_c, 2, 62, 87
3, 53552, Note_off_c, 2, 62, 64
3, 53554, Note_on_c, 2, 61, 87
3, 53812, Note_off_c, 2, 61, 64
3, 53934, Note_on_c, 2, 61, 87
3, 54046, Note_off_c, 2, 61, 64
3, 54123, Note_on_c, 2, 61, 87
3, 54312, Note_off_c, 2, 61, 64
3, 54320, Note_on_c, 2, 56, 87
3, 54506, Note_off_c, 2, 56, 64
3, 54512, Note_on_c, 2, 61, 87
3, 54703, Note_off_c, 2, 61, 64
3, 54712, Note_on_c, 2, 56, 74
3, 54892, Note_off_c, 2, 56, 64
3, 54894, Note_on_c, 2, 61, 92
3, 55103, Note_off_c, 2, 61, 64
3, 55106, Note_on_c, 2, 62, 87
3, 55294, Note_off_c, 2, 62, 64
3, 55492, Note_on_c, 2, 60, 87
3, 55680, Note_off_c, 2, 60, 64
3, 55683, Note_on_c, 2, 56, 78
3, 55880, Note_off_c, 2, 56, 64
3, 55883, Note_on_c, 2, 60, 78
3, 55966, Note_off_c, 2, 60, 64
3, 55972, Note_on_c, 2, 56, 74
3, 56083, Note_off_c, 2, 56, 64
3, 56086, Note_on_c, 2, 54, 78
3, 56534, Note_off_c, 2, 54, 64
3, 57032, Note_on_c, 2, 56, 92
3, 57132, Note_off_c, 2, 56, 64
3, 57223, Note_on_c, 2, 56, 92
3, 57406, Note_off_c, 2, 56, 64
3, 57410, Note_on_c, 2, 60, 87
3, 57603, Note_off_c, 2, 60, 64
3, 57606, Note_on_c, 2, 61, 78
3, 57786, Note_off_c, 2, 61, 64
3, 57792, Note_on_c, 2, 56, 87
3, 57974, Note_off_c, 2, 56, 64
3, 57980, Note_on_c, 2, 54, 92
3, 58354, Note_off_c, 2, 54, 64
3, 58574, Note_on_c, 2, 62, 92
3, 58772, Note_off_c, 2, 62, 64
3, 58774, Note_on_c, 2, 63, 92
3, 58923, Note_off_c, 2, 63, 64
3, 58980, Note_on_c, 2, 63, 103
3, 59332, Note_off_c, 2, 63, 64
3, 59334, Note_on_c, 2, 62, 87
3, 59774, Note_off_c, 2, 62, 64
3, 59923, Note_on_c, 2, 61, 78
3, 60846, Note_off_c, 2, 61, 64
3, 60852, Note_on_c, 2, 62, 74
3, 61052, Note_off_c, 2, 62, 64
3, 61054, Note_on_c, 2, 63, 97
3, 61240, Note_off_c, 2, 63, 64
3, 61243, Note_on_c, 2, 62, 92
3, 61574, Note_off_c, 2, 62, 64
3, 61612, Note_on_c, 2, 62, 87
3, 61760, Note_off_c, 2, 62, 64
3, 61812, Note_on_c, 2, 62, 92
3, 62012, Note_off_c, 2, 62, 64
3, 62020, Note_on_c, 2, 63, 87
3, 62192, Note_off_c, 2, 63, 64
3, 62194, Note_on_c, 2, 62, 87
3, 62380, Note_off_c, 2, 62, 64
3, 62383, Note_on_c, 2, 54, 74
3, 62540, Note_off_c, 2, 54, 64
3, 62594, Note_on_c, 2, 54, 97
3, 63192, Note_off_c, 2, 54, 64
3, 63546, Note_on_c, 2, 54, 87
3, 63712, Note_off_c, 2, 54, 64
3, 63743, Note_on_c, 2, 56, 92
3, 63912, Note_off_c, 2, 56, 64
3, 63920, Note_on_c, 2, 60, 81
3, 64126, Note_off_c, 2, 60, 64
3, 64132, Note_on_c, 2, 61, 87
3, 64310, Note_off_c, 2, 61, 64
3, 64312, Note_on_c, 2, 56, 97
3, 64512, Note_off_c, 2, 56, 64
3, 64710, Note_on_c, 2, 62, 87
3, 64906, Note_off_c, 2, 62, 64
3, 64910, Note_on_c, 2, 63, 92
3, 65086, Note_off_c, 2, 63, 64
3, 65092, Note_on_c, 2, 62, 87
3, 65423, Note_off_c, 2, 62, 64
3, 65663, Note_on_c, 2, 54, 87
3, 65754, Note_off_c, 2, 54, 64
3, 65760, Note_on_c, 2, 56, 87
3, 65840, Note_off_c, 2, 56, 64
3, 65843, Note_on_c, 2, 61, 78
3, 65920, Note_off_c, 2, 61, 64
3, 65923, Note_on_c, 2, 56, 78
3, 66012, Note_off_c, 2, 56, 64
3, 66032, Note_on_c, 2, 63, 103
3, 66240, Note_off_c, 2, 63, 64
3, 66354, Note_on_c, 2, 63, 103
3, 66620, Note_off_c, 2, 63, 64
3, 66623, Note_on_c, 2, 62, 92
3, 67020, Note_off_c, 2, 62, 64
3, 67200, Note_on_c, 2, 54, 87
3, 67266, Note_off_c, 2, 54, 64
3, 67272, Note_on_c, 2, 56, 78
3, 67360, Note_off_c, 2, 56, 64
3, 67363, Note_on_c, 2, 60, 81
3, 67454, Note_off_c, 2, 60, 64
3, 67460, Note_on_c, 2, 56, 78
3, 67554, Note_off_c, 2, 56, 64
3, 67574, Note_on_c, 2, 62, 92
3, 67826, Note_off_c, 2, 62, 64
3, 67903, Note_on_c, 2, 62, 87
3, 68166, Note_off_c, 2, 62, 64
3, 68172, Note_on_c, 2, 61, 87
3, 68394, Note_off_c, 2, 61, 64
3, 68400, Note_on_c, 2, 60, 71
3, 68492, Note_off_c, 2, 60, 64
3, 68494, Note_on_c, 2, 56, 78
3, 68706, Note_off_c, 2, 56, 64
3, 68752, Note_on_c, 2, 54, 87
3, 68840, Note_off_c, 2, 54, 64
3, 68843, Note_on_c, 2, 56, 74
3, 68946, Note_off_c, 2, 56, 64
3, 68954, Note_on_c, 2, 60, 74
3, 69032, Note_off_c, 2, 60, 64
3, 69034, Note_on_c, 2, 56, 78
3, 69120, Note_off_c, 2, 56, 64
3, 69132, Note_on_c, 2, 61, 87
3, 69480, Note_off_c, 2, 61, 64
3, 69483, Note_on_c, 2, 62, 78
3, 69683, Note_off_c, 2, 62, 64
3, 69686, Note_on_c, 2, 60, 87
3, 69866, Note_off_c, 2, 60, 64
3, 69872, Note_on_c, 2, 56, 74
3, 70060, Note_off_c, 2, 56, 64
3, 70063, Note_on_c, 2, 54, 78
3, 70283, Note_off_c, 2, 54, 64
3, 70446, Note_on_c, 2, 54, 78
3, 70640, Note_off_c, 2, 54, 64
3, 70643, Note_on_c, 2, 62, 87
3, 70934, Note_off_c, 2, 62, 64
3, 71032, Note_on_c, 2, 61, 87
3, 71423, Note_off_c, 2, 61, 64
3, 71820, Note_on_c, 2, 54, 87
3, 71886, Note_off_c, 2, 54, 64
3, 71892, Note_on_c, 2, 56, 78
3, 71966, Note_off_c, 2, 56, 64
3, 71972, Note_on_c, 2, 61, 78
3, 72043, Note_off_c, 2, 61, 64
3, 72046, Note_on_c, 2, 56, 78
3, 72143, Note_off_c, 2, 56, 64
3, 72163, Note_on_c, 2, 63, 103
3, 72394, Note_off_c, 2, 63, 64
3, 72483, Note_on_c, 2, 63, 103
3, 72743, Note_off_c, 2, 63, 64
3, 72746, Note_on_c, 2, 62, 92
3, 73160, Note_off_c, 2, 62, 64
3, 73323, Note_on_c, 2, 54, 87
3, 73394, Note_off_c, 2, 54, 64
3, 73400, Note_on_c, 2, 56, 78
3, 73480, Note_off_c, 2, 56, 64
3, 73483, Note_on_c, 2, 60, 74
3, 73580, Note_off_c, 2, 60, 64
3, 73583, Note_on_c, 2, 56, 87
3, 73692, Note_off_c, 2, 56, 64
3, 73720, Note_on_c, 2, 66, 92
3, 74066, Note_off_c, 2, 66, 64
3, 74092, Note_on_c, 2, 60, 81
3, 74292, Note_off_c, 2, 60, 64
3, 74294, Note_on_c, 2, 61, 87
3, 74474, Note_off_c, 2, 61, 64
3, 74480, Note_on_c, 2, 60, 49
3, 74566, Note_off_c, 2, 60, 64
3, 74572, Note_on_c, 2, 56, 87
3, 74763, Note_off_c, 2, 56, 64
3, 74846, Note_on_c, 2, 54, 87
3, 74926, Note_off_c, 2, 54, 64
3, 74932, Note_on_c, 2, 56, 78
3, 75032, Note_off_c, 2, 56, 64
3, 75043, Note_on_c, 2, 60, 74
3, 75140, Note_off_c, 2, 60, 64
3, 75143, Note_on_c, 2, 56, 87
3, 75263, Note_off_c, 2, 56, 64
3, 75274, Note_on_c, 2, 61, 92
3, 75654, Note_off_c, 2, 61, 64
3, 75660, Note_on_c, 2, 62, 78
3, 75834, Note_off_c, 2, 62, 64
3, 75840, Note_on_c, 2, 60, 81
3, 76163, Note_off_c, 2, 60, 64
3, 76166, Note_on_c, 2, 56, 71
3, 76266, Note_off_c, 2, 56, 64
3, 76272, Note_on_c, 2, 54, 78
3, 76472, Note_off_c, 2, 54, 64
3, 76603, Note_on_c, 2, 54, 92
3, 76780, Note_off_c, 2, 54, 64
3, 76786, Note_on_c, 2, 62, 92
3, 76980, Note_off_c, 2, 62, 64
3, 76983, Note_on_c, 2, 61, 77
3, 77152, Note_off_c, 2, 61, 64
3, 77183, Note_on_c, 2, 61, 87
3, 77632, Note_off_c, 2, 61, 64
3, 77952, Note_on_c, 2, 54, 87
3, 78043, Note_off_c, 2, 54, 64
3, 78046, Note_on_c, 2, 56, 87
3, 78126, Note_off_c, 2, 56, 64
3, 78132, Note_on_c, 2, 61, 78
3, 78206, Note_off_c, 2, 61, 64
3, 78210, Note_on_c, 2, 56, 78
3, 78303, Note_off_c, 2, 56, 64
3, 78320, Note_on_c, 2, 63, 103
3, 78526, Note_off_c, 2, 63, 64
3, 78643, Note_on_c, 2, 63, 103
3, 78906, Note_off_c, 2, 63, 64
3, 78910, Note_on_c, 2, 62, 92
3, 79306, Note_off_c, 2, 62, 64
3, 79486, Note_on_c, 2, 54, 87
3, 79554, Note_off_c, 2, 54, 64
3, 79560, Note_on_c, 2, 56, 78
3, 79646, Note_off_c, 2, 56, 64
3, 79652, Note_on_c, 2, 60, 81
3, 79743, Note_off_c, 2, 60, 64
3, 79746, Note_on_c, 2, 56, 78
3, 79843, Note_off_c, 2, 56, 64
3, 79863, Note_on_c, 2, 62, 92
3, 80112, Note_off_c, 2, 62, 64
3, 80192, Note_on_c, 2, 62, 87
3, 80454, Note_off_c, 2, 62, 64
3, 80460, Note_on_c, 2, 61, 87
3, 80683, Note_off_c, 2, 61, 64
3, 80686, Note_on_c, 2, 60, 71
3, 80780, Note_off_c, 2, 60, 64
3, 80783, Note_on_c, 2, 56, 78
3, 80994, Note_off_c, 2, 56, 64
3, 81040, Note_on_c, 2, 54, 87
3, 81126, Note_off_c, 2, 54, 64
3, 81132, Note_on_c, 2, 56, 74
3, 81234, Note_off_c, 2, 56, 64
3, 81243, Note_on_c, 2, 60, 74
3, 81320, Note_off_c, 2, 60, 64
3, 81323, Note_on_c, 2, 56, 78
3, 81406, Note_off_c, 2, 56, 64
3, 81420, Note_on_c, 2, 61, 87
3, 81766, Note_off_c, 2, 61, 64
3, 81772, Note_on_c, 2, 62, 78
3, 81972, Note_off_c, 2, 62, 64
3, 81974, Note_on_c, 2, 60, 87
3, 82154, Note_off_c, 2, 60, 64
3, 82160, Note_on_c, 2, 56, 74
3, 82346, Note_off_c, 2, 56, 64
3, 82352, Note_on_c, 2, 54, 78
3, 82572, Note_off_c, 2, 54, 64
3, 82734, Note_on_c, 2, 54, 78
3, 82926, Note_off_c, 2, 54, 64
3, 82932, Note_on_c, 2, 62, 87
3, 83223, Note_off_c, 2, 62, 64
3, 83320, Note_on_c, 2, 61, 87
3, 83710, Note_off_c, 2, 61, 64
3, 84106, Note_on_c, 2, 54, 87
3, 84174, Note_off_c, 2, 54, 64
3, 84180, Note_on_c, 2, 56, 78
3, 84254, Note_off_c, 2, 56, 64
3, 84260, Note_on_c, 2, 61, 78
3, 84332, Note_off_c, 2, 61, 64
3, 84334, Note_on_c, 2, 56, 78
3, 84432, Note_off_c, 2, 56, 64
3, 84452, Note_on_c, 2, 63, 103
3, 84683, Note_off_c, 2, 63, 64
3, 84772, Note_on_c, 2, 63, 103
3, 85032, Note_off_c, 2, 63, 64
3, 85034, Note_on_c, 2, 62, 92
3, 85446, Note_off_c, 2, 62, 64
3, 85610, Note_on_c, 2, 54, 87
3, 85683, Note_off_c, 2, 54, 64
3, 85686, Note_on_c, 2, 56, 78
3, 85766, Note_off_c, 2, 56, 64
3, 85772, Note_on_c, 2, 60, 74
3, 85866, Note_off_c, 2, 60, 64
3, 85872, Note_on_c, 2, 56, 87
3, 85980, Note_off_c, 2, 56, 64
3, 86006, Note_on_c, 2, 66, 92
3, 86354, Note_off_c, 2, 66, 64
3, 86380, Note_on_c, 2, 60, 81
3, 86580, Note_off_c, 2, 60, 64
3, 86583, Note_on_c, 2, 61, 87
3, 86763, Note_off_c, 2, 61, 64
3, 86766, Note_on_c, 2, 60, 49
3, 86854, Note_off_c, 2, 60, 64
3, 86860, Note_on_c, 2, 56, 87
3, 87052, Note_off_c, 2, 56, 64
3, 87134, Note_on_c, 2, 54, 87
3, 87212, Note_off_c, 2, 54, 64
3, 87220, Note_on_c, 2, 56, 78
3, 87320, Note_off_c, 2, 56, 64
3, 87332, Note_on_c, 2, 60, 74
3, 87426, Note_off_c, 2, 60, 64
3, 87432, Note_on_c, 2, 56, 87
3, 87552, Note_off_c, 2, 56, 64
3, 87563, Note_on_c, 2, 61, 92
3, 87943, Note_off_c, 2, 61, 64
3, 87946, Note_on_c, 2, 62, 78
3, 88123, Note_off_c, 2, 62, 64
3, 88126, Note_on_c, 2, 60, 81
3, 88452, Note_off_c, 2, 60, 64
3, 88454, Note_on_c, 2, 56, 71
3, 88554, Note_off_c, 2, 56, 64
3, 88560, Note_on_c, 2, 54, 78
3, 88760, Note_off_c, 2, 54, 64
3, 88892, Note_on_c, 2, 54, 92
3, 89066, Note_off_c, 2, 54, 64
3, 89074, Note_on_c, 2, 62, 92
3, 89266, Note_off_c, 2, 62, 64
3, 89272, Note_on_c, 2, 61, 77
3, 89440, Note_off_c, 2, 61, 64
3, 89472, Note_on_c, 2, 61, 87
3, 89920, Note_off_c, 2, 61, 64
3, 96960, Note_on_c, 2, 54, 87
3, 97026, Note_off_c, 2, 54, 64
3, 97032, Note_on_c, 2, 56, 78
3, 97126, Note_off_c, 2, 56, 64
3, 97132, Note_on_c, 2, 61, 74
3, 97220, Note_off_c, 2, 61, 64
3, 97223, Note_on_c, 2, 56, 87
3, 97332, Note_off_c, 2, 56, 64
3, 97340, Note_on_c, 2, 63, 97
3, 97480, Note_off_c, 2, 63, 64
3, 97523, Note_on_c, 2, 54, 78
3, 97612, Note_off_c, 2, 54, 64
3, 97620, Note_on_c, 2, 56, 78
3, 97710, Note_off_c, 2, 56, 64
3, 97712, Note_on_c, 2, 61, 87
3, 97794, Note_off_c, 2, 61, 64
3, 97800, Note_on_c, 2, 56, 92
3, 97886, Note_off_c, 2, 56, 64
3, 97892, Note_on_c, 2, 63, 103
3, 98110, Note_off_c, 2, 63, 64
3, 100020, Note_on_c, 2, 54, 87
3, 100094, Note_off_c, 2, 54, 64
3, 100100, Note_on_c, 2, 56, 87
3, 100186, Note_off_c, 2, 56, 64
3, 100192, Note_on_c, 2, 61, 87
3, 100266, Note_off_c, 2, 61, 64
3, 100272, Note_on_c, 2, 56, 78
3, 100374, Note_off_c, 2, 56, 64
3, 100383, Note_on_c, 2, 63, 92
3, 100532, Note_off_c, 2, 63, 64
3, 100594, Note_on_c, 2, 54, 92
3, 100683, Note_off_c, 2, 54, 64
3, 100686, Note_on_c, 2, 56, 78
3, 100786, Note_off_c, 2, 56, 64
3, 100792, Note_on_c, 2, 61, 78
3, 100866, Note_off_c, 2, 61, 64
3, 100872, Note_on_c, 2, 56, 78
3, 100966, Note_off_c, 2, 56, 64
3, 100974, Note_on_c, 2, 63, 103
3, 101206, Note_off_c, 2, 63, 64
3, 103092, Note_on_c, 2, 61, 78
3, 103203, Note_off_c, 2, 61, 64
3, 103283, Note_on_c, 2, 61, 87
3, 103466, Note_off_c, 2, 61, 64
3, 103472, Note_on_c, 2, 56, 87
3, 103666, Note_off_c, 2, 56, 64
3, 103672, Note_on_c, 2, 61, 87
3, 103854, Note_off_c, 2, 61, 64
3, 103860, Note_on_c, 2, 62, 87
3, 104140, Note_off_c, 2, 62, 64
3, 104626, Note_on_c, 2, 60, 81
3, 104812, Note_off_c, 2, 60, 64
3, 104820, Note_on_c, 2, 56, 78
3, 105012, Note_off_c, 2, 56, 64
3, 105023, Note_on_c, 2, 60, 74
3, 105112, Note_off_c, 2, 60, 64
3, 105120, Note_on_c, 2, 56, 71
3, 105220, Note_off_c, 2, 56, 64
3, 105223, Note_on_c, 2, 54, 74
3, 105912, Note_off_c, 2, 54, 64
3, 106146, Note_on_c, 2, 56, 87
3, 106263, Note_off_c, 2, 56, 64
3, 106352, Note_on_c, 2, 56, 92
3, 106543, Note_off_c, 2, 56, 64
3, 106546, Note_on_c, 2, 60, 81
3, 106743, Note_off_c, 2, 60, 64
3, 106746, Note_on_c, 2, 61, 78
3, 106926, Note_off_c, 2, 61, 64
3, 106932, Note_on_c, 2, 56, 87
3, 107123, Note_off_c, 2, 56, 64
3, 107132, Note_on_c, 2, 54, 87
3, 107406, Note_off_c, 2, 54, 64
3, 107703, Note_on_c, 2, 66, 92
3, 107852, Note_off_c, 2, 66, 64
3, 107910, Note_on_c, 2, 66, 92
3, 108110, Note_off_c, 2, 66, 64
3, 108112, Note_on_c, 2, 62, 87
3, 108394, Note_off_c, 2, 62, 64
3, 108486, Note_on_c, 2, 63, 97
3, 108666, Note_off_c, 2, 63, 64
3, 108672, Note_on_c, 2, 62, 78
3, 108852, Note_off_c, 2, 62, 64
3, 108854, Note_on_c, 2, 61, 78
3, 109106, Note_off_c, 2, 61, 64
3, 109234, Note_on_c, 2, 61, 78
3, 109354, Note_off_c, 2, 61, 64
3, 109426, Note_on_c, 2, 61, 78
3, 109603, Note_off_c, 2, 61, 64
3, 109610, Note_on_c, 2, 56, 78
3, 109800, Note_off_c, 2, 56, 64
3, 109803, Note_on_c, 2, 61, 87
3, 109992, Note_off_c, 2, 61, 64
3, 110000, Note_on_c, 2, 56, 87
3, 110194, Note_off_c, 2, 56, 64
3, 110200, Note_on_c, 2, 61, 87
3, 110406, Note_off_c, 2, 61, 64
3, 110410, Note_on_c, 2, 62, 87
3, 110610, Note_off_c, 2, 62, 64
3, 110792, Note_on_c, 2, 60, 87
3, 110974, Note_off_c, 2, 60, 64
3, 110980, Note_on_c, 2, 56, 78
3, 111163, Note_off_c, 2, 56, 64
3, 111166, Note_on_c, 2, 60, 74
3, 111246, Note_off_c, 2, 60, 64
3, 111252, Note_on_c, 2, 56, 74
3, 111340, Note_off_c, 2, 56, 64
3, 111343, Note_on_c, 2, 54, 78
3, 111783, Note_off_c, 2, 54, 64
3, 112306, Note_on_c, 2, 56, 87
3, 112423, Note_off_c, 2, 56, 64
3, 112492, Note_on_c, 2, 56, 78
3, 112686, Note_off_c, 2, 56, 64
3, 112692, Note_on_c, 2, 60, 78
3, 112886, Note_off_c, 2, 60, 64
3, 112892, Note_on_c, 2, 61, 78
3, 113074, Note_off_c, 2, 61, 64
3, 113080, Note_on_c, 2, 56, 87
3, 113272, Note_off_c, 2, 56, 64
3, 113274, Note_on_c, 2, 54, 92
3, 113560, Note_off_c, 2, 54, 64
3, 113863, Note_on_c, 2, 62, 78
3, 114072, Note_off_c, 2, 62, 64
3, 114074, Note_on_c, 2, 63, 92
3, 114206, Note_off_c, 2, 63, 64
3, 114266, Note_on_c, 2, 63, 97
3, 114623, Note_off_c, 2, 63, 64
3, 114626, Note_on_c, 2, 62, 92
3, 115023, Note_off_c, 2, 62, 64
3, 115203, Note_on_c, 2, 61, 87
3, 116146, Note_off_c, 2, 61, 64
3, 116152, Note_on_c, 2, 62, 87
3, 116343, Note_off_c, 2, 62, 64
3, 116346, Note_on_c, 2, 63, 92
3, 116534, Note_off_c, 2, 63, 64
3, 116540, Note_on_c, 2, 61, 78
3, 116726, Note_off_c, 2, 61, 64
3, 116732, Note_on_c, 2, 62, 78
3, 116883, Note_off_c, 2, 62, 64
3, 116934, Note_on_c, 2, 62, 92
3, 117043, Note_off_c, 2, 62, 64
3, 117106, Note_on_c, 2, 62, 92
3, 117300, Note_off_c, 2, 62, 64
3, 117303, Note_on_c, 2, 63, 87
3, 117483, Note_off_c, 2, 63, 64
3, 117486, Note_on_c, 2, 62, 87
3, 117666, Note_off_c, 2, 62, 64
3, 117672, Note_on_c, 2, 54, 78
3, 117832, Note_off_c, 2, 54, 64
3, 117886, Note_on_c, 2, 54, 97
3, 118266, Note_off_c, 2, 54, 64
3, 119040, Note_on_c, 2, 56, 92
3, 119220, Note_off_c, 2, 56, 64
3, 119223, Note_on_c, 2, 60, 81
3, 119412, Note_off_c, 2, 60, 64
3, 119420, Note_on_c, 2, 61, 87
3, 119606, Note_off_c, 2, 61, 64
3, 119610, Note_on_c, 2, 56, 97
3, 119806, Note_off_c, 2, 56, 64
3, 120010, Note_on_c, 2, 62, 87
3, 120203, Note_off_c, 2, 62, 64
3, 120206, Note_on_c, 2, 63, 92
3, 120380, Note_off_c, 2, 63, 64
3, 120383, Note_on_c, 2, 62, 87
3, 120734, Note_off_c, 2, 62, 64
3, 120960, Note_on_c, 2, 54, 87
3, 121052, Note_off_c, 2, 54, 64
3, 121054, Note_on_c, 2, 56, 87
3, 121134, Note_off_c, 2, 56, 64
3, 121140, Note_on_c, 2, 61, 78
3, 121212, Note_off_c, 2, 61, 64
3, 121220, Note_on_c, 2, 56, 78
3, 121310, Note_off_c, 2, 56, 64
3, 121326, Note_on_c, 2, 63, 103
3, 121534, Note_off_c, 2, 63, 64
3, 121652, Note_on_c, 2, 63, 103
3, 121912, Note_off_c, 2, 63, 64
3, 121920, Note_on_c, 2, 62, 92
3, 122312, Note_off_c, 2, 62, 64
3, 122494, Note_on_c, 2, 54, 87
3, 122563, Note_off_c, 2, 54, 64
3, 122566, Note_on_c, 2, 56, 78
3, 122654, Note_off_c, 2, 56, 64
3, 122660, Note_on_c, 2, 60, 81
3, 122752, Note_off_c, 2, 60, 64
3, 122754, Note_on_c, 2, 56, 78
3, 122852, Note_off_c, 2, 56, 64
3, 122872, Note_on_c, 2, 62, 92
3, 123123, Note_off_c, 2, 62, 64
3, 123200, Note_on_c, 2, 62, 87
3, 123463, Note_off_c, 2, 62, 64
3, 123466, Note_on_c, 2, 61, 87
3, 123692, Note_off_c, 2, 61, 64
3, 123694, Note_on_c, 2, 60, 71
3, 123786, Note_off_c, 2, 60, 64
3, 123792, Note_on_c, 2, 56, 78
3, 124003, Note_off_c, 2, 56, 64
3, 124046, Note_on_c, 2, 54, 87
3, 124134, Note_off_c, 2, 54, 64
3, 124140, Note_on_c, 2, 56, 74
3, 124243, Note_off_c, 2, 56, 64
3, 124252, Note_on_c, 2, 60, 74
3, 124326, Note_off_c, 2, 60, 64
3, 124332, Note_on_c, 2, 56, 78
3, 124412, Note_off_c, 2, 56, 64
3, 124426, Note_on_c, 2, 61, 87
3, 124774, Note_off_c, 2, 61, 64
3, 124780, Note_on_c, 2, 62, 78
3, 124980, Note_off_c, 2, 62, 64
3, 124983, Note_on_c, 2, 60, 87
3, 125163, Note_off_c, 2, 60, 64
3, 125166, Note_on_c, 2, 56, 74
3, 125354, Note_off_c, 2, 56, 64
3, 125360, Note_on_c, 2, 54, 78
3, 125580, Note_off_c, 2, 54, 64
3, 125743, Note_on_c, 2, 54, 78
3, 125934, Note_off_c, 2, 54, 64
3, 125940, Note_on_c, 2, 62, 87
3, 126232, Note_off_c, 2, 62, 64
3, 126326, Note_on_c, 2, 61, 87
3, 126720, Note_off_c, 2, 61, 64
3, 127112, Note_on_c, 2, 54, 87
3, 127183, Note_off_c, 2, 54, 64
3, 127186, Note_on_c, 2, 56, 78
3, 127263, Note_off_c, 2, 56, 64
3, 127266, Note_on_c, 2, 61, 78
3, 127340, Note_off_c, 2, 61, 64
3, 127343, Note_on_c, 2, 56, 78
3, 127440, Note_off_c, 2, 56, 64
3, 127460, Note_on_c, 2, 63, 103
3, 127692, Note_off_c, 2, 63, 64
3, 127780, Note_on_c, 2, 63, 103
3, 128040, Note_off_c, 2, 63, 64
3, 128043, Note_on_c, 2, 62, 92
3, 128454, Note_off_c, 2, 62, 64
3, 128620, Note_on_c, 2, 54, 87
3, 128692, Note_off_c, 2, 54, 64
3, 128694, Note_on_c, 2, 56, 78
3, 128774, Note_off_c, 2, 56, 64
3, 128780, Note_on_c, 2, 60, 74
3, 128874, Note_off_c, 2, 60, 64
3, 128880, Note_on_c, 2, 56, 87
3, 128986, Note_off_c, 2, 56, 64
3, 129012, Note_on_c, 2, 66, 92
3, 129363, Note_off_c, 2, 66, 64
3, 129386, Note_on_c, 2, 60, 81
3, 129586, Note_off_c, 2, 60, 64
3, 129592, Note_on_c, 2, 61, 87
3, 129772, Note_off_c, 2, 61, 64
3, 129774, Note_on_c, 2, 60, 49
3, 129863, Note_off_c, 2, 60, 64
3, 129866, Note_on_c, 2, 56, 87
3, 130060, Note_off_c, 2, 56, 64
3, 130143, Note_on_c, 2, 54, 87
3, 130223, Note_off_c, 2, 54, 64
3, 130226, Note_on_c, 2, 56, 78
3, 130326, Note_off_c, 2, 56, 64
3, 130340, Note_on_c, 2, 60, 74
3, 130434, Note_off_c, 2, 60, 64
3, 130440, Note_on_c, 2, 56, 87
3, 130560, Note_off_c, 2, 56, 64
3, 130572, Note_on_c, 2, 61, 92
3, 130952, Note_off_c, 2, 61, 64
3, 130954, Note_on_c, 2, 62, 78
3, 131132, Note_off_c, 2, 62, 64
3, 131134, Note_on_c, 2, 60, 81
3, 131460, Note_off_c, 2, 60, 64
3, 131463, Note_on_c, 2, 56, 71
3, 131563, Note_off_c, 2, 56, 64
3, 131566, Note_on_c, 2, 54, 78
3, 131766, Note_off_c, 2, 54, 64
3, 131900, Note_on_c, 2, 54, 92
3, 132074, Note_off_c, 2, 54, 64
3, 132083, Note_on_c, 2, 62, 92
3, 132274, Note_off_c, 2, 62, 64
3, 132280, Note_on_c, 2, 61, 77
3, 132446, Note_off_c, 2, 61, 64
3, 132480, Note_on_c, 2, 61, 87
3, 132926, Note_off_c, 2, 61, 64
3, 133246, Note_on_c, 2, 54, 87
3, 133340, Note_off_c, 2, 54, 64
3, 133343, Note_on_c, 2, 56, 87
3, 133423, Note_off_c, 2, 56, 64
3, 133426, Note_on_c, 2, 61, 78
3, 133503, Note_off_c, 2, 61, 64
3, 133506, Note_on_c, 2, 56, 78
3, 133600, Note_off_c, 2, 56, 64
3, 133612, Note_on_c, 2, 63, 103
3, 133823, Note_off_c, 2, 63, 64
3, 133940, Note_on_c, 2, 63, 103
3, 134203, Note_off_c, 2, 63, 64
3, 134206, Note_on_c, 2, 62, 92
3, 134603, Note_off_c, 2, 62, 64
3, 134783, Note_on_c, 2, 54, 87
3, 134852, Note_off_c, 2, 54, 64
3, 134854, Note_on_c, 2, 56, 78
3, 134943, Note_off_c, 2, 56, 64
3, 134946, Note_on_c, 2, 60, 81
3, 135040, Note_off_c, 2, 60, 64
3, 135043, Note_on_c, 2, 56, 78
3, 135140, Note_off_c, 2, 56, 64
3, 135160, Note_on_c, 2, 62, 92
3, 135410, Note_off_c, 2, 62, 64
3, 135486, Note_on_c, 2, 62, 87
3, 135752, Note_off_c, 2, 62, 64
3, 135754, Note_on_c, 2, 61, 87
3, 135980, Note_off_c, 2, 61, 64
3, 135983, Note_on_c, 2, 60, 71
3, 136074, Note_off_c, 2, 60, 64
3, 136080, Note_on_c, 2, 56, 78
3, 136292, Note_off_c, 2, 56, 64
3, 136334, Note_on_c, 2, 54, 87
3, 136423, Note_off_c, 2, 54, 64
3, 136426, Note_on_c, 2, 56, 74
3, 136532, Note_off_c, 2, 56, 64
3, 136540, Note_on_c, 2, 60, 74
3, 136612, Note_off_c, 2, 60, 64
3, 136620, Note_on_c, 2, 56, 78
3, 136703, Note_off_c, 2, 56, 64
3, 136712, Note_on_c, 2, 61, 87
3, 137063, Note_off_c, 2, 61, 64
3, 137066, Note_on_c, 2, 62, 78
3, 137266, Note_off_c, 2, 62, 64
3, 137272, Note_on_c, 2, 60, 87
3, 137452, Note_off_c, 2, 60, 64
3, 137454, Note_on_c, 2, 56, 74
3, 137643, Note_off_c, 2, 56, 64
3, 137646, Note_on_c, 2, 54, 78
3, 137866, Note_off_c, 2, 54, 64
3, 138032, Note_on_c, 2, 54, 78
3, 138223, Note_off_c, 2, 54, 64
3, 138226, Note_on_c, 2, 62, 87
3, 138520, Note_off_c, 2, 62, 64
3, 138612, Note_on_c, 2, 61, 87
3, 139006, Note_off_c, 2, 61, 64
3, 139403, Note_on_c, 2, 54, 87
3, 139472, Note_off_c, 2, 54, 64
3, 139474, Note_on_c, 2, 56, 78
3, 139552, Note_off_c, 2, 56, 64
3, 139554, Note_on_c, 2, 61, 78
3, 139626, Note_off_c, 2, 61, 64
3, 139632, Note_on_c, 2, 56, 78
3, 139726, Note_off_c, 2, 56, 64
3, 139746, Note_on_c, 2, 63, 103
3, 139980, Note_off_c, 2, 63, 64
3, 140066, Note_on_c, 2, 63, 103
3, 140326, Note_off_c, 2, 63, 64
3, 140332, Note_on_c, 2, 62, 92
3, 140743, Note_off_c, 2, 62, 64
3, 140906, Note_on_c, 2, 54, 87
3, 140980, Note_off_c, 2, 54, 64
3, 140983, Note_on_c, 2, 56, 78
3, 141063, Note_off_c, 2, 56, 64
3, 141066, Note_on_c, 2, 60, 74
3, 141163, Note_off_c, 2, 60, 64
3, 141166, Note_on_c, 2, 56, 87
3, 141274, Note_off_c, 2, 56, 64
3, 141303, Note_on_c, 2, 66, 92
3, 141652, Note_off_c, 2, 66, 64
3, 141674, Note_on_c, 2, 60, 81
3, 141874, Note_off_c, 2, 60, 64
3, 141880, Note_on_c, 2, 61, 87
3, 142060, Note_off_c, 2, 61, 64
3, 142063, Note_on_c, 2, 60, 49
3, 142152, Note_off_c, 2, 60, 64
3, 142154, Note_on_c, 2, 56, 87
3, 142346, Note_off_c, 2, 56, 64
3, 142432, Note_on_c, 2, 54, 87
3, 142510, Note_off_c, 2, 54, 64
3, 142512, Note_on_c, 2, 56, 78
3, 142612, Note_off_c, 2, 56, 64
3, 142626, Note_on_c, 2, 60, 74
3, 142723, Note_off_c, 2, 60, 64
3, 142726, Note_on_c, 2, 56, 87
3, 142846, Note_off_c, 2, 56, 64
3, 142860, Note_on_c, 2, 61, 92
3, 143240, Note_off_c, 2, 61, 64
3, 143243, Note_on_c, 2, 62, 78
3, 143420, Note_off_c, 2, 62, 64
3, 143423, Note_on_c, 2, 60, 81
3, 143746, Note_off_c, 2, 60, 64
3, 143752, Note_on_c, 2, 56, 71
3, 143852, Note_off_c, 2, 56, 64
3, 143854, Note_on_c, 2, 54, 78
3, 144054, Note_off_c, 2, 54, 64
3, 144186, Note_on_c, 2, 54, 92
3, 144363, Note_off_c, 2, 54, 64
3, 144372, Note_on_c, 2, 62, 92
3, 144563, Note_off_c, 2, 62, 64
3, 144566, Note_on_c, 2, 61, 77
3, 144734, Note_off_c, 2, 61, 64
3, 144766, Note_on_c, 2, 61, 87
3, 145212, Note_off_c, 2, 61, 64
3, 145534, Note_on_c, 2, 54, 87
3, 145626, Note_off_c, 2, 54, 64
3, 145632, Note_on_c, 2, 56, 87
3, 145710, Note_off_c, 2, 56, 64
3, 145712, Note_on_c, 2, 61, 78
3, 145792, Note_off_c, 2, 61, 64
3, 145794, Note_on_c, 2, 56, 78
3, 145886, Note_off_c, 2, 56, 64
3, 145903, Note_on_c, 2, 63, 103
3, 146110, Note_off_c, 2, 63, 64
3, 146226, Note_on_c, 2, 63, 101
3, 146492, Note_off_c, 2, 63, 64
3, 146494, Note_on_c, 2, 62, 87
3, 146892, Note_off_c, 2, 62, 64
3, 147072, Note_on_c, 2, 54, 77
3, 147140, Note_off_c, 2, 54, 64
3, 147143, Note_on_c, 2, 56, 68
3, 147232, Note_off_c, 2, 56, 64
3, 147234, Note_on_c, 2, 60, 69
3, 147326, Note_off_c, 2, 60, 64
3, 147332, Note_on_c, 2, 56, 66
3, 147426, Note_off_c, 2, 56, 64
3, 147446, Note_on_c, 2, 62, 77
3, 147700, Note_off_c, 2, 62, 64
3, 147774, Note_on_c, 2, 62, 69
3, 148040, Note_off_c, 2, 62, 64
3, 148043, Note_on_c, 2, 61, 67
3, 148266, Note_off_c, 2, 61, 64
3, 148272, Note_on_c, 2, 60, 52
3, 148363, Note_off_c, 2, 60, 64
3, 148366, Note_on_c, 2, 56, 57
3, 148580, Note_off_c, 2, 56, 64
3, 148623, Note_on_c, 2, 54, 61
3, 148710, Note_off_c, 2, 54, 64
3, 148712, Note_on_c, 2, 56, 50
3, 148820, Note_off_c, 2, 56, 64
3, 148826, Note_on_c, 2, 60, 49
3, 148903, Note_off_c, 2, 60, 64
3, 148906, Note_on_c, 2, 56, 52
3, 148992, Note_off_c, 2, 56, 64
3, 149003, Note_on_c, 2, 61, 58
3, 149352, Note_off_c, 2, 61, 64
3, 149354, Note_on_c, 2, 62, 48
3, 149554, Note_off_c, 2, 62, 64
3, 149560, Note_on_c, 2, 60, 52
3, 149740, Note_off_c, 2, 60, 64
3, 149743, Note_on_c, 2, 56, 42
3, 149932, Note_off_c, 2, 56, 64
3, 149934, Note_on_c, 2, 54, 42
3, 150154, Note_off_c, 2, 54, 64
3, 150320, Note_on_c, 2, 54, 39
3, 150510, Note_off_c, 2, 54, 64
3, 150512, Note_on_c, 2, 62, 43
3, 150806, Note_off_c, 2, 62, 64
3, 150903, Note_on_c, 2, 61, 38
3, 151294, Note_off_c, 2, 61, 64
3, 151692, Note_on_c, 2, 54, 31
3, 151760, Note_off_c, 2, 54, 64
3, 151763, Note_on_c, 2, 56, 26
3, 151840, Note_off_c, 2, 56, 64
3, 151843, Note_on_c, 2, 61, 25
3, 151912, Note_off_c, 2, 61, 64
3, 151920, Note_on_c, 2, 56, 25
3, 152012, Note_off_c, 2, 56, 64
3, 152034, Note_on_c, 2, 63, 35
3, 152266, Note_off_c, 2, 63, 64
3, 152354, Note_on_c, 2, 63, 31
3, 152612, Note_off_c, 2, 63, 64
3, 152620, Note_on_c, 2, 62, 23
3, 153032, Note_off_c, 2, 62, 64
3, 153194, Note_on_c, 2, 54, 16
3, 153266, Note_off_c, 2, 54, 64
3, 153272, Note_on_c, 2, 56, 12
3, 153352, Note_off_c, 2, 56, 64
3, 153354, Note_on_c, 2, 60, 10
3, 153452, Note_off_c, 2, 60, 64
3, 153454, Note_on_c, 2, 56, 13
3, 153563, Note_off_c, 2, 56, 64
3, 153592, Note_on_c, 2, 66, 13
3, 153940, Note_off_c, 2, 66, 64
3, 153963, Note_on_c, 2, 60, 7
3, 154163, Note_off_c, 2, 60, 64
3, 154166, Note_on_c, 2, 61, 6
3, 154346, Note_off_c, 2, 61, 64
3, 154352, Note_on_c, 2, 60, 1
3, 154440, Note_off_c, 2, 60, 64
3, 154443, Note_on_c, 2, 56, 3
3, 154634, Note_off_c, 2, 56, 64
3, 154720, Note_on_c, 2, 54, 1
3, 154800, Note_off_c, 2, 54, 64
3, 154803, Note_on_c, 2, 56, 1
3, 154903, Note_off_c, 2, 56, 64
3, 154912, Note_on_c, 2, 60, 1
3, 155010, Note_off_c, 2, 60, 64
3, 155012, Note_on_c, 2, 56, 1
3, 155134, Note_off_c, 2, 56, 64
3, 155146, Note_on_c, 2, 61, 1
3, 155526, Note_off_c, 2, 61, 64
3, 155532, Note_on_c, 2, 62, 1
3, 155706, Note_off_c, 2, 62, 64
3, 155710, Note_on_c, 2, 60, 1
3, 156034, Note_off_c, 2, 60, 64
3, 156040, Note_on_c, 2, 56, 1
3, 156140, Note_off_c, 2, 56, 64
3, 156143, Note_on_c, 2, 54, 1
3, 156343, Note_off_c, 2, 54, 64
3, 156474, Note_on_c, 2, 54, 1
3, 156523, Note_off_c, 2, 54, 1
3, 158206, End_track
4, 0, Start_track
4, 0, Title_t, "PICCOLO"
4, 2006, Program_c, 3, 72
4, 2010, Control_c, 3, 5, 80
4, 2010, Control_c, 3, 8, 78
4, 2010, Control_c, 3, 9, 127
4, 2012, Control_c, 3, 91, 45
4, 2012, Control_c, 3, 92, 0
4, 17283, Note_on_c, 3, 56, 72
4, 17286, Pitch_bend_c, 3, 8192
4, 17286, Control_c, 3, 1, 0
4, 17460, Note_off_c, 3, 56, 64
4, 17460, Note_on_c, 3, 60, 58
4, 17646, Note_off_c, 3, 60, 64
4, 17646, Note_on_c, 3, 61, 67
4, 17843, Note_off_c, 3, 61, 64
4, 17846, Note_on_c, 3, 61, 67
4, 18043, Note_off_c, 3, 61, 64
4, 18043, Note_on_c, 3, 62, 58
4, 18243, Note_off_c, 3, 62, 64
4, 18246, Note_on_c, 3, 60, 67
4, 18506, Note_off_c, 3, 60, 64
4, 18510, Note_on_c, 3, 56, 58
4, 18640, Note_off_c, 3, 56, 64
4, 18640, Note_on_c, 3, 54, 45
4, 20126, Note_off_c, 3, 54, 64
4, 20143, Note_on_c, 3, 56, 54
4, 20334, Note_off_c, 3, 56, 64
4, 20340, Note_on_c, 3, 56, 67
4, 20532, Note_off_c, 3, 56, 64
4, 20532, Note_on_c, 3, 60, 58
4, 20732, Note_off_c, 3, 60, 64
4, 20732, Note_on_c, 3, 61, 72
4, 20923, Note_off_c, 3, 61, 64
4, 20923, Note_on_c, 3, 56, 67
4, 21303, Note_off_c, 3, 56, 64
4, 21306, Note_on_c, 3, 54, 67
4, 21494, Note_off_c, 3, 54, 64
4, 21494, Note_on_c, 3, 66, 77
4, 21880, Note_off_c, 3, 66, 64
4, 21886, Note_on_c, 3, 66, 77
4, 22080, Note_off_c, 3, 66, 64
4, 22080, Note_on_c, 3, 62, 58
4, 23212, Note_off_c, 3, 62, 64
4, 23226, Note_on_c, 3, 56, 67
4, 23423, Note_off_c, 3, 56, 64
4, 23426, Note_on_c, 3, 56, 58
4, 23620, Note_off_c, 3, 56, 64
4, 23620, Note_on_c, 3, 60, 67
4, 23812, Note_off_c, 3, 60, 64
4, 23812, Note_on_c, 3, 61, 67
4, 24012, Note_off_c, 3, 61, 64
4, 24020, Note_on_c, 3, 56, 67
4, 24206, Note_off_c, 3, 56, 64
4, 24206, Note_on_c, 3, 61, 67
4, 24400, Note_off_c, 3, 61, 64
4, 24400, Note_on_c, 3, 62, 67
4, 24780, Note_off_c, 3, 62, 64
4, 24783, Note_on_c, 3, 60, 67
4, 24972, Note_off_c, 3, 60, 64
4, 24972, Note_on_c, 3, 56, 58
4, 25172, Note_off_c, 3, 56, 64
4, 25172, Note_on_c, 3, 60, 58
4, 25260, Note_off_c, 3, 60, 64
4, 25260, Note_on_c, 3, 56, 54
4, 25360, Note_off_c, 3, 56, 64
4, 25360, Note_on_c, 3, 54, 58
4, 26292, Note_off_c, 3, 54, 64
4, 26300, Note_on_c, 3, 56, 67
4, 26492, Note_off_c, 3, 56, 64
4, 26494, Note_on_c, 3, 56, 58
4, 26683, Note_off_c, 3, 56, 64
4, 26683, Note_on_c, 3, 60, 61
4, 26880, Note_off_c, 3, 60, 64
4, 26880, Note_on_c, 3, 61, 58
4, 27072, Note_off_c, 3, 61, 64
4, 27072, Note_on_c, 3, 56, 67
4, 27272, Note_off_c, 3, 56, 64
4, 27272, Note_on_c, 3, 54, 72
4, 27632, Note_off_c, 3, 54, 64
4, 27634, Note_on_c, 3, 62, 72
4, 27834, Note_off_c, 3, 62, 64
4, 27840, Note_on_c, 3, 62, 67
4, 28020, Note_off_c, 3, 62, 64
4, 28023, Note_on_c, 3, 62, 67
4, 28223, Note_off_c, 3, 62, 64
4, 28223, Note_on_c, 3, 63, 72
4, 28423, Note_off_c, 3, 63, 64
4, 28423, Note_on_c, 3, 62, 67
4, 29186, Note_off_c, 3, 62, 64
4, 29194, Note_on_c, 3, 61, 67
4, 30134, Note_off_c, 3, 61, 64
4, 30143, Note_on_c, 3, 62, 58
4, 30334, Note_off_c, 3, 62, 64
4, 30334, Note_on_c, 3, 63, 72
4, 30523, Note_off_c, 3, 63, 64
4, 30523, Note_on_c, 3, 61, 58
4, 30703, Note_off_c, 3, 61, 64
4, 30703, Note_on_c, 3, 62, 67
4, 30903, Note_off_c, 3, 62, 64
4, 30910, Note_on_c, 3, 62, 72
4, 31080, Note_off_c, 3, 62, 64
4, 31083, Note_on_c, 3, 62, 72
4, 31283, Note_off_c, 3, 62, 64
4, 31286, Note_on_c, 3, 63, 72
4, 31472, Note_off_c, 3, 63, 64
4, 31472, Note_on_c, 3, 62, 67
4, 31652, Note_off_c, 3, 62, 64
4, 31652, Note_on_c, 3, 54, 58
4, 31866, Note_off_c, 3, 54, 64
4, 31874, Note_on_c, 3, 54, 77
4, 33006, Note_off_c, 3, 54, 64
4, 33020, Note_on_c, 3, 56, 72
4, 33210, Note_off_c, 3, 56, 64
4, 33210, Note_on_c, 3, 60, 67
4, 33403, Note_off_c, 3, 60, 64
4, 33403, Note_on_c, 3, 61, 67
4, 33592, Note_off_c, 3, 61, 64
4, 33592, Note_on_c, 3, 56, 77
4, 33974, Note_off_c, 3, 56, 64
4, 33980, Note_on_c, 3, 62, 72
4, 34180, Note_off_c, 3, 62, 64
4, 34183, Note_on_c, 3, 63, 77
4, 34363, Note_off_c, 3, 63, 64
4, 34363, Note_on_c, 3, 62, 72
4, 34940, Note_off_c, 3, 62, 64
4, 34943, Note_on_c, 3, 54, 67
4, 35040, Note_off_c, 3, 54, 64
4, 35040, Note_on_c, 3, 56, 67
4, 35123, Note_off_c, 3, 56, 64
4, 35123, Note_on_c, 3, 61, 58
4, 35203, Note_off_c, 3, 61, 64
4, 35203, Note_on_c, 3, 56, 58
4, 35326, Note_off_c, 3, 56, 64
4, 35326, Note_on_c, 3, 72, 64
4, 35326, Note_on_c, 3, 66, 64
4, 35326, Note_on_c, 3, 63, 83
4, 35326, Note_on_c, 3, 61, 48
4, 35606, Note_off_c, 3, 61, 64
4, 35606, Note_off_c, 3, 63, 64
4, 35606, Note_off_c, 3, 66, 64
4, 35606, Note_off_c, 3, 72, 64
4, 35612, Note_on_c, 3, 61, 40
4, 35612, Note_on_c, 3, 72, 69
4, 35612, Note_on_c, 3, 63, 80
4, 35612, Note_on_c, 3, 66, 64
4, 35894, Note_off_c, 3, 66, 64
4, 35900, Note_off_c, 3, 63, 64
4, 35900, Note_off_c, 3, 72, 64
4, 35900, Note_off_c, 3, 61, 64
4, 35903, Note_on_c, 3, 72, 69
4, 35903, Note_on_c, 3, 66, 64
4, 35903, Note_on_c, 3, 62, 69
4, 35903, Note_on_c, 3, 60, 48
4, 36474, Note_off_c, 3, 60, 64
4, 36474, Note_off_c, 3, 62, 64
4, 36474, Note_off_c, 3, 66, 64
4, 36474, Note_off_c, 3, 72, 64
4, 36480, Note_on_c, 3, 54, 64
4, 36574, Note_off_c, 3, 54, 64
4, 36574, Note_on_c, 3, 56, 55
4, 36672, Note_off_c, 3, 56, 64
4, 36672, Note_on_c, 3, 60, 58
4, 36766, Note_off_c, 3, 60, 64
4, 36766, Note_on_c, 3, 56, 55
4, 36863, Note_off_c, 3, 56, 64
4, 36863, Note_on_c, 3, 72, 64
4, 36863, Note_on_c, 3, 66, 64
4, 36863, Note_on_c, 3, 60, 42
4, 36863, Note_on_c, 3, 62, 69
4, 37143, Note_off_c, 3, 62, 64
4, 37143, Note_off_c, 3, 60, 64
4, 37143, Note_off_c, 3, 66, 64
4, 37143, Note_off_c, 3, 72, 64
4, 37152, Note_on_c, 3, 62, 64
4, 37152, Note_on_c, 3, 60, 33
4, 37152, Note_on_c, 3, 72, 58
4, 37152, Note_on_c, 3, 66, 55
4, 37434, Note_off_c, 3, 66, 64
4, 37434, Note_off_c, 3, 72, 64
4, 37434, Note_off_c, 3, 60, 64
4, 37434, Note_off_c, 3, 62, 64
4, 37440, Note_on_c, 3, 61, 64
4, 37440, Note_on_c, 3, 63, 74
4, 37440, Note_on_c, 3, 70, 69
4, 37723, Note_off_c, 3, 61, 64
4, 37726, Note_on_c, 3, 60, 48
4, 37823, Note_off_c, 3, 60, 64
4, 37823, Note_on_c, 3, 56, 55
4, 38010, Note_off_c, 3, 70, 64
4, 38010, Note_off_c, 3, 63, 64
4, 38012, Note_off_c, 3, 56, 64
4, 38020, Note_on_c, 3, 54, 64
4, 38134, Note_off_c, 3, 54, 64
4, 38140, Note_on_c, 3, 56, 51
4, 38252, Note_off_c, 3, 56, 64
4, 38252, Note_on_c, 3, 60, 51
4, 38332, Note_off_c, 3, 60, 64
4, 38332, Note_on_c, 3, 56, 55
4, 38426, Note_off_c, 3, 56, 64
4, 38426, Note_on_c, 3, 61, 64
4, 38774, Note_off_c, 3, 61, 64
4, 38780, Note_on_c, 3, 62, 55
4, 38980, Note_off_c, 3, 62, 64
4, 38983, Note_on_c, 3, 60, 64
4, 39166, Note_off_c, 3, 60, 64
4, 39166, Note_on_c, 3, 56, 51
4, 39360, Note_off_c, 3, 56, 64
4, 39360, Note_on_c, 3, 54, 55
4, 39734, Note_off_c, 3, 54, 64
4, 39743, Note_on_c, 3, 62, 51
4, 39743, Note_on_c, 3, 72, 64
4, 39743, Note_on_c, 3, 54, 55
4, 39743, Note_on_c, 3, 60, 58
4, 39932, Note_off_c, 3, 60, 64
4, 39932, Note_off_c, 3, 72, 64
4, 39932, Note_off_c, 3, 62, 64
4, 39934, Note_off_c, 3, 54, 64
4, 39934, Note_on_c, 3, 62, 64
4, 39934, Note_on_c, 3, 60, 69
4, 39934, Note_on_c, 3, 72, 69
4, 40312, Note_off_c, 3, 72, 64
4, 40312, Note_off_c, 3, 60, 64
4, 40312, Note_off_c, 3, 62, 64
4, 40320, Note_on_c, 3, 66, 69
4, 40320, Note_on_c, 3, 72, 55
4, 40320, Note_on_c, 3, 63, 69
4, 40320, Note_on_c, 3, 61, 64
4, 41080, Note_off_c, 3, 61, 64
4, 41080, Note_off_c, 3, 63, 64
4, 41080, Note_off_c, 3, 72, 64
4, 41080, Note_off_c, 3, 66, 64
4, 41086, Note_on_c, 3, 54, 64
4, 41183, Note_off_c, 3, 54, 64
4, 41183, Note_on_c, 3, 56, 55
4, 41280, Note_off_c, 3, 56, 64
4, 41280, Note_on_c, 3, 61, 55
4, 41374, Note_off_c, 3, 61, 64
4, 41374, Note_on_c, 3, 56, 55
4, 41472, Note_off_c, 3, 56, 64
4, 41472, Note_on_c, 3, 72, 64
4, 41472, Note_on_c, 3, 66, 64
4, 41472, Note_on_c, 3, 61, 48
4, 41472, Note_on_c, 3, 63, 80
4, 41752, Note_off_c, 3, 63, 64
4, 41752, Note_off_c, 3, 61, 64
4, 41752, Note_off_c, 3, 66, 64
4, 41752, Note_off_c, 3, 72, 64
4, 41760, Note_on_c, 3, 61, 48
4, 41760, Note_on_c, 3, 66, 64
4, 41760, Note_on_c, 3, 72, 64
4, 41760, Note_on_c, 3, 63, 80
4, 42040, Note_off_c, 3, 66, 64
4, 42043, Note_off_c, 3, 63, 64
4, 42043, Note_off_c, 3, 72, 64
4, 42043, Note_off_c, 3, 61, 64
4, 42046, Note_on_c, 3, 66, 69
4, 42046, Note_on_c, 3, 60, 58
4, 42046, Note_on_c, 3, 62, 69
4, 42046, Note_on_c, 3, 72, 69
4, 42620, Note_off_c, 3, 72, 64
4, 42620, Note_off_c, 3, 62, 64
4, 42620, Note_off_c, 3, 60, 64
4, 42620, Note_off_c, 3, 66, 64
4, 42623, Note_on_c, 3, 54, 64
4, 42720, Note_off_c, 3, 54, 64
4, 42720, Note_on_c, 3, 56, 55
4, 42812, Note_off_c, 3, 56, 64
4, 42812, Note_on_c, 3, 60, 51
4, 42910, Note_off_c, 3, 60, 64
4, 42910, Note_on_c, 3, 56, 64
4, 43006, Note_off_c, 3, 56, 64
4, 43006, Note_on_c, 3, 60, 55
4, 43006, Note_on_c, 3, 62, 69
4, 43006, Note_on_c, 3, 66, 69
4, 43006, Note_on_c, 3, 72, 69
4, 43383, Note_off_c, 3, 72, 64
4, 43383, Note_off_c, 3, 62, 64
4, 43383, Note_off_c, 3, 60, 64
4, 43386, Note_off_c, 3, 66, 64
4, 43392, Note_on_c, 3, 60, 58
4, 43392, Note_on_c, 3, 72, 64
4, 43392, Note_on_c, 3, 62, 64
4, 43583, Note_off_c, 3, 62, 64
4, 43583, Note_off_c, 3, 72, 64
4, 43583, Note_off_c, 3, 60, 64
4, 43583, Note_on_c, 3, 63, 64
4, 43583, Note_on_c, 3, 72, 64
4, 43583, Note_on_c, 3, 61, 64
4, 43774, Note_off_c, 3, 61, 64
4, 43774, Note_off_c, 3, 72, 64
4, 43774, Note_off_c, 3, 63, 64
4, 43774, Note_on_c, 3, 60, 26
4, 43774, Note_on_c, 3, 72, 51
4, 43774, Note_on_c, 3, 62, 51
4, 43872, Note_off_c, 3, 62, 64
4, 43872, Note_off_c, 3, 72, 64
4, 43872, Note_off_c, 3, 60, 64
4, 43872, Note_on_c, 3, 56, 64
4, 43872, Note_on_c, 3, 61, 51
4, 43872, Note_on_c, 3, 70, 51
4, 44154, Note_off_c, 3, 70, 64
4, 44154, Note_off_c, 3, 61, 64
4, 44154, Note_off_c, 3, 56, 64
4, 44160, Note_on_c, 3, 54, 64
4, 44254, Note_off_c, 3, 54, 64
4, 44254, Note_on_c, 3, 56, 55
4, 44352, Note_off_c, 3, 56, 64
4, 44352, Note_on_c, 3, 60, 51
4, 44446, Note_off_c, 3, 60, 64
4, 44446, Note_on_c, 3, 56, 64
4, 44572, Note_off_c, 3, 56, 64
4, 44572, Note_on_c, 3, 61, 69
4, 44952, Note_off_c, 3, 61, 64
4, 44954, Note_on_c, 3, 62, 55
4, 45134, Note_off_c, 3, 62, 64
4, 45134, Note_on_c, 3, 60, 58
4, 45460, Note_off_c, 3, 60, 64
4, 45463, Note_on_c, 3, 56, 48
4, 45566, Note_off_c, 3, 56, 64
4, 45566, Note_on_c, 3, 54, 55
4, 45892, Note_off_c, 3, 54, 64
4, 45900, Note_on_c, 3, 54, 69
4, 46080, Note_off_c, 3, 54, 64
4, 46080, Note_on_c, 3, 72, 69
4, 46080, Note_on_c, 3, 62, 69
4, 46080, Note_on_c, 3, 60, 55
4, 46460, Note_off_c, 3, 60, 64
4, 46460, Note_off_c, 3, 62, 64
4, 46460, Note_off_c, 3, 72, 64
4, 46463, Note_on_c, 3, 63, 69
4, 46463, Note_on_c, 3, 72, 64
4, 46463, Note_on_c, 3, 66, 64
4, 46463, Note_on_c, 3, 61, 64
4, 47603, Note_off_c, 3, 61, 64
4, 47603, Note_off_c, 3, 66, 64
4, 47603, Note_off_c, 3, 72, 64
4, 47603, Note_off_c, 3, 63, 64
4, 47803, Note_on_c, 3, 61, 67
4, 48003, Note_off_c, 3, 61, 64
4, 48006, Note_on_c, 3, 61, 77
4, 48192, Note_off_c, 3, 61, 64
4, 48192, Note_on_c, 3, 56, 67
4, 48380, Note_off_c, 3, 56, 64
4, 48380, Note_on_c, 3, 61, 72
4, 48600, Note_off_c, 3, 61, 64
4, 48603, Note_on_c, 3, 62, 72
4, 49326, Note_off_c, 3, 62, 64
4, 49334, Note_on_c, 3, 60, 67
4, 49526, Note_off_c, 3, 60, 64
4, 49526, Note_on_c, 3, 56, 67
4, 49726, Note_off_c, 3, 56, 64
4, 49726, Note_on_c, 3, 60, 61
4, 49800, Note_off_c, 3, 60, 64
4, 49800, Note_on_c, 3, 56, 45
4, 49926, Note_off_c, 3, 56, 64
4, 49926, Note_on_c, 3, 54, 58
4, 50872, Note_off_c, 3, 54, 64
4, 50880, Note_on_c, 3, 56, 67
4, 51063, Note_off_c, 3, 56, 64
4, 51066, Note_on_c, 3, 56, 54
4, 51260, Note_off_c, 3, 56, 64
4, 51260, Note_on_c, 3, 60, 61
4, 51452, Note_off_c, 3, 60, 64
4, 51452, Note_on_c, 3, 61, 67
4, 51646, Note_off_c, 3, 61, 64
4, 51646, Note_on_c, 3, 56, 58
4, 51834, Note_off_c, 3, 56, 64
4, 51834, Note_on_c, 3, 54, 72
4, 52423, Note_off_c, 3, 54, 64
4, 52426, Note_on_c, 3, 66, 77
4, 52610, Note_off_c, 3, 66, 64
4, 52612, Note_on_c, 3, 66, 77
4, 52812, Note_off_c, 3, 66, 64
4, 52820, Note_on_c, 3, 62, 72
4, 53183, Note_off_c, 3, 62, 64
4, 53186, Note_on_c, 3, 63, 72
4, 53374, Note_off_c, 3, 63, 64
4, 53374, Note_on_c, 3, 62, 67
4, 53554, Note_off_c, 3, 62, 64
4, 53554, Note_on_c, 3, 61, 67
4, 53926, Note_off_c, 3, 61, 64
4, 53934, Note_on_c, 3, 61, 67
4, 54120, Note_off_c, 3, 61, 64
4, 54123, Note_on_c, 3, 61, 67
4, 54320, Note_off_c, 3, 61, 64
4, 54320, Note_on_c, 3, 56, 67
4, 54512, Note_off_c, 3, 56, 64
4, 54512, Note_on_c, 3, 61, 67
4, 54712, Note_off_c, 3, 61, 64
4, 54712, Note_on_c, 3, 56, 54
4, 54894, Note_off_c, 3, 56, 64
4, 54894, Note_on_c, 3, 61, 72
4, 55103, Note_off_c, 3, 61, 64
4, 55106, Note_on_c, 3, 62, 67
4, 55486, Note_off_c, 3, 62, 64
4, 55492, Note_on_c, 3, 60, 67
4, 55683, Note_off_c, 3, 60, 64
4, 55683, Note_on_c, 3, 56, 58
4, 55883, Note_off_c, 3, 56, 64
4, 55883, Note_on_c, 3, 60, 58
4, 55972, Note_off_c, 3, 60, 64
4, 55972, Note_on_c, 3, 56, 54
4, 56086, Note_off_c, 3, 56, 64
4, 56086, Note_on_c, 3, 54, 58
4, 57023, Note_off_c, 3, 54, 64
4, 57032, Note_on_c, 3, 56, 72
4, 57220, Note_off_c, 3, 56, 64
4, 57223, Note_on_c, 3, 56, 72
4, 57410, Note_off_c, 3, 56, 64
4, 57410, Note_on_c, 3, 60, 67
4, 57606, Note_off_c, 3, 60, 64
4, 57606, Note_on_c, 3, 61, 58
4, 57792, Note_off_c, 3, 61, 64
4, 57792, Note_on_c, 3, 56, 67
4, 57980, Note_off_c, 3, 56, 64
4, 57980, Note_on_c, 3, 54, 72
4, 58572, Note_off_c, 3, 54, 64
4, 58574, Note_on_c, 3, 62, 72
4, 58774, Note_off_c, 3, 62, 64
4, 58774, Note_on_c, 3, 63, 72
4, 58974, Note_off_c, 3, 63, 64
4, 58980, Note_on_c, 3, 63, 83
4, 59332, Note_off_c, 3, 63, 64
4, 59334, Note_on_c, 3, 62, 67
4, 59920, Note_off_c, 3, 62, 64
4, 59923, Note_on_c, 3, 61, 58
4, 60843, Note_off_c, 3, 61, 64
4, 60852, Note_on_c, 3, 62, 54
4, 61052, Note_off_c, 3, 62, 64
4, 61054, Note_on_c, 3, 63, 77
4, 61243, Note_off_c, 3, 63, 64
4, 61243, Note_on_c, 3, 62, 72
4, 61606, Note_off_c, 3, 62, 64
4, 61612, Note_on_c, 3, 62, 67
4, 61810, Note_off_c, 3, 62, 64
4, 61812, Note_on_c, 3, 62, 72
4, 62012, Note_off_c, 3, 62, 64
4, 62020, Note_on_c, 3, 63, 67
4, 62194, Note_off_c, 3, 63, 64
4, 62194, Note_on_c, 3, 62, 67
4, 62383, Note_off_c, 3, 62, 64
4, 62383, Note_on_c, 3, 54, 54
4, 62586, Note_off_c, 3, 54, 64
4, 62594, Note_on_c, 3, 54, 77
4, 63534, Note_off_c, 3, 54, 64
4, 63546, Note_on_c, 3, 54, 67
4, 63743, Note_off_c, 3, 54, 64
4, 63743, Note_on_c, 3, 56, 72
4, 63920, Note_off_c, 3, 56, 64
4, 63920, Note_on_c, 3, 60, 61
4, 64126, Note_off_c, 3, 60, 64
4, 64132, Note_on_c, 3, 61, 67
4, 64312, Note_off_c, 3, 61, 64
4, 64312, Note_on_c, 3, 56, 77
4, 64706, Note_off_c, 3, 56, 64
4, 64710, Note_on_c, 3, 62, 67
4, 64910, Note_off_c, 3, 62, 64
4, 64910, Note_on_c, 3, 63, 72
4, 65092, Note_off_c, 3, 63, 64
4, 65092, Note_on_c, 3, 62, 67
4, 65660, Note_off_c, 3, 62, 64
4, 65663, Note_on_c, 3, 54, 67
4, 65760, Note_off_c, 3, 54, 64
4, 65760, Note_on_c, 3, 56, 67
4, 65843, Note_off_c, 3, 56, 64
4, 65843, Note_on_c, 3, 61, 58
4, 65923, Note_off_c, 3, 61, 64
4, 65923, Note_on_c, 3, 56, 58
4, 66046, Note_off_c, 3, 56, 64
4, 66046, Note_on_c, 3, 72, 64
4, 66046, Note_on_c, 3, 66, 64
4, 66046, Note_on_c, 3, 63, 83
4, 66046, Note_on_c, 3, 61, 48
4, 66326, Note_off_c, 3, 61, 64
4, 66326, Note_off_c, 3, 63, 64
4, 66326, Note_off_c, 3, 66, 64
4, 66326, Note_off_c, 3, 72, 64
4, 66334, Note_on_c, 3, 61, 40
4, 66334, Note_on_c, 3, 72, 69
4, 66334, Note_on_c, 3, 63, 80
4, 66334, Note_on_c, 3, 66, 64
4, 66612, Note_off_c, 3, 66, 64
4, 66620, Note_off_c, 3, 63, 64
4, 66620, Note_off_c, 3, 72, 64
4, 66620, Note_off_c, 3, 61, 64
4, 66623, Note_on_c, 3, 72, 69
4, 66623, Note_on_c, 3, 66, 64
4, 66623, Note_on_c, 3, 62, 69
4, 66623, Note_on_c, 3, 60, 48
4, 67194, Note_off_c, 3, 60, 64
4, 67194, Note_off_c, 3, 62, 64
4, 67194, Note_off_c, 3, 66, 64
4, 67194, Note_off_c, 3, 72, 64
4, 67200, Note_on_c, 3, 54, 64
4, 67294, Note_off_c, 3, 54, 64
4, 67294, Note_on_c, 3, 56, 55
4, 67392, Note_off_c, 3, 56, 64
4, 67392, Note_on_c, 3, 60, 58
4, 67486, Note_off_c, 3, 60, 64
4, 67486, Note_on_c, 3, 56, 55
4, 67583, Note_off_c, 3, 56, 64
4, 67583, Note_on_c, 3, 72, 64
4, 67583, Note_on_c, 3, 66, 64
4, 67583, Note_on_c, 3, 60, 42
4, 67583, Note_on_c, 3, 62, 69
4, 67863, Note_off_c, 3, 62, 64
4, 67863, Note_off_c, 3, 60, 64
4, 67863, Note_off_c, 3, 66, 64
4, 67863, Note_off_c, 3, 72, 64
4, 67872, Note_on_c, 3, 62, 64
4, 67872, Note_on_c, 3, 60, 33
4, 67872, Note_on_c, 3, 72, 58
4, 67872, Note_on_c, 3, 66, 55
4, 68154, Note_off_c, 3, 66, 64
4, 68154, Note_off_c, 3, 72, 64
4, 68154, Note_off_c, 3, 60, 64
4, 68154, Note_off_c, 3, 62, 64
4, 68160, Note_on_c, 3, 63, 74
4, 68160, Note_on_c, 3, 70, 69
4, 68160, Note_on_c, 3, 61, 64
4, 68443, Note_off_c, 3, 61, 64
4, 68446, Note_on_c, 3, 60, 48
4, 68543, Note_off_c, 3, 60, 64
4, 68543, Note_on_c, 3, 56, 55
4, 68732, Note_off_c, 3, 70, 64
4, 68732, Note_off_c, 3, 63, 64
4, 68734, Note_off_c, 3, 56, 64
4, 68740, Note_on_c, 3, 54, 64
4, 68854, Note_off_c, 3, 54, 64
4, 68860, Note_on_c, 3, 56, 51
4, 68972, Note_off_c, 3, 56, 64
4, 68972, Note_on_c, 3, 60, 51
4, 69052, Note_off_c, 3, 60, 64
4, 69052, Note_on_c, 3, 56, 55
4, 69146, Note_off_c, 3, 56, 64
4, 69146, Note_on_c, 3, 61, 64
4, 69494, Note_off_c, 3, 61, 64
4, 69500, Note_on_c, 3, 62, 55
4, 69700, Note_off_c, 3, 62, 64
4, 69703, Note_on_c, 3, 60, 64
4, 69886, Note_off_c, 3, 60, 64
4, 69886, Note_on_c, 3, 56, 51
4, 70080, Note_off_c, 3, 56, 64
4, 70080, Note_on_c, 3, 54, 55
4, 70454, Note_off_c, 3, 54, 64
4, 70463, Note_on_c, 3, 62, 51
4, 70463, Note_on_c, 3, 72, 64
4, 70463, Note_on_c, 3, 54, 55
4, 70463, Note_on_c, 3, 60, 58
4, 70652, Note_off_c, 3, 60, 64
4, 70652, Note_off_c, 3, 72, 64
4, 70652, Note_off_c, 3, 62, 64
4, 70654, Note_off_c, 3, 54, 64
4, 70654, Note_on_c, 3, 62, 64
4, 70654, Note_on_c, 3, 60, 69
4, 70654, Note_on_c, 3, 72, 69
4, 71034, Note_off_c, 3, 72, 64
4, 71034, Note_off_c, 3, 60, 64
4, 71034, Note_off_c, 3, 62, 64
4, 71040, Note_on_c, 3, 66, 69
4, 71040, Note_on_c, 3, 72, 55
4, 71040, Note_on_c, 3, 63, 69
4, 71040, Note_on_c, 3, 61, 64
4, 71800, Note_off_c, 3, 61, 64
4, 71800, Note_off_c, 3, 63, 64
4, 71800, Note_off_c, 3, 72, 64
4, 71800, Note_off_c, 3, 66, 64
4, 71806, Note_on_c, 3, 54, 64
4, 71903, Note_off_c, 3, 54, 64
4, 71903, Note_on_c, 3, 56, 55
4, 72000, Note_off_c, 3, 56, 64
4, 72000, Note_on_c, 3, 61, 55
4, 72094, Note_off_c, 3, 61, 64
4, 72094, Note_on_c, 3, 56, 55
4, 72192, Note_off_c, 3, 56, 64
4, 72192, Note_on_c, 3, 72, 64
4, 72192, Note_on_c, 3, 66, 64
4, 72192, Note_on_c, 3, 61, 48
4, 72192, Note_on_c, 3, 63, 80
4, 72472, Note_off_c, 3, 63, 64
4, 72472, Note_off_c, 3, 61, 64
4, 72472, Note_off_c, 3, 66, 64
4, 72472, Note_off_c, 3, 72, 64
4, 72480, Note_on_c, 3, 61, 48
4, 72480, Note_on_c, 3, 66, 64
4, 72480, Note_on_c, 3, 72, 64
4, 72480, Note_on_c, 3, 63, 80
4, 72760, Note_off_c, 3, 66, 64
4, 72763, Note_off_c, 3, 63, 64
4, 72763, Note_off_c, 3, 72, 64
4, 72763, Note_off_c, 3, 61, 64
4, 72766, Note_on_c, 3, 66, 69
4, 72766, Note_on_c, 3, 60, 58
4, 72766, Note_on_c, 3, 62, 69
4, 72766, Note_on_c, 3, 72, 69
4, 73340, Note_off_c, 3, 72, 64
4, 73340, Note_off_c, 3, 62, 64
4, 73340, Note_off_c, 3, 60, 64
4, 73340, Note_off_c, 3, 66, 64
4, 73343, Note_on_c, 3, 54, 64
4, 73440, Note_off_c, 3, 54, 64
4, 73440, Note_on_c, 3, 56, 55
4, 73534, Note_off_c, 3, 56, 64
4, 73534, Note_on_c, 3, 60, 51
4, 73632, Note_off_c, 3, 60, 64
4, 73632, Note_on_c, 3, 56, 64
4, 73726, Note_off_c, 3, 56, 64
4, 73726, Note_on_c, 3, 60, 55
4, 73726, Note_on_c, 3, 62, 69
4, 73726, Note_on_c, 3, 66, 69
4, 73726, Note_on_c, 3, 72, 69
4, 74103, Note_off_c, 3, 72, 64
4, 74103, Note_off_c, 3, 62, 64
4, 74103, Note_off_c, 3, 60, 64
4, 74106, Note_off_c, 3, 66, 64
4, 74110, Note_on_c, 3, 60, 58
4, 74110, Note_on_c, 3, 72, 64
4, 74110, Note_on_c, 3, 62, 64
4, 74303, Note_off_c, 3, 62, 64
4, 74303, Note_off_c, 3, 72, 64
4, 74303, Note_off_c, 3, 60, 64
4, 74303, Note_on_c, 3, 63, 64
4, 74303, Note_on_c, 3, 72, 64
4, 74303, Note_on_c, 3, 61, 64
4, 74494, Note_off_c, 3, 61, 64
4, 74494, Note_off_c, 3, 72, 64
4, 74494, Note_off_c, 3, 63, 64
4, 74494, Note_on_c, 3, 60, 26
4, 74494, Note_on_c, 3, 72, 51
4, 74494, Note_on_c, 3, 62, 51
4, 74592, Note_off_c, 3, 62, 64
4, 74592, Note_off_c, 3, 72, 64
4, 74592, Note_off_c, 3, 60, 64
4, 74592, Note_on_c, 3, 56, 64
4, 74592, Note_on_c, 3, 61, 51
4, 74592, Note_on_c, 3, 70, 51
4, 74874, Note_off_c, 3, 70, 64
4, 74874, Note_off_c, 3, 61, 64
4, 74874, Note_off_c, 3, 56, 64
4, 74880, Note_on_c, 3, 54, 64
4, 74974, Note_off_c, 3, 54, 64
4, 74974, Note_on_c, 3, 56, 55
4, 75072, Note_off_c, 3, 56, 64
4, 75072, Note_on_c, 3, 60, 51
4, 75166, Note_off_c, 3, 60, 64
4, 75166, Note_on_c, 3, 56, 64
4, 75292, Note_off_c, 3, 56, 64
4, 75292, Note_on_c, 3, 61, 69
4, 75672, Note_off_c, 3, 61, 64
4, 75674, Note_on_c, 3, 62, 55
4, 75854, Note_off_c, 3, 62, 64
4, 75854, Note_on_c, 3, 60, 58
4, 76180, Note_off_c, 3, 60, 64
4, 76183, Note_on_c, 3, 56, 48
4, 76286, Note_off_c, 3, 56, 64
4, 76286, Note_on_c, 3, 54, 55
4, 76610, Note_off_c, 3, 54, 64
4, 76620, Note_on_c, 3, 54, 69
4, 76800, Note_off_c, 3, 54, 64
4, 76800, Note_on_c, 3, 72, 69
4, 76800, Note_on_c, 3, 62, 69
4, 76800, Note_on_c, 3, 60, 55
4, 77180, Note_off_c, 3, 60, 64
4, 77180, Note_off_c, 3, 62, 64
4, 77180, Note_off_c, 3, 72, 64
4, 77183, Note_on_c, 3, 63, 69
4, 77183, Note_on_c, 3, 72, 64
4, 77183, Note_on_c, 3, 66, 64
4, 77183, Note_on_c, 3, 61, 64
4, 77943, Note_off_c, 3, 61, 64
4, 77943, Note_off_c, 3, 66, 64
4, 77943, Note_off_c, 3, 72, 64
4, 77943, Note_off_c, 3, 63, 64
4, 77952, Note_on_c, 3, 54, 64
4, 78046, Note_off_c, 3, 54, 64
4, 78046, Note_on_c, 3, 56, 64
4, 78143, Note_off_c, 3, 56, 64
4, 78143, Note_on_c, 3, 61, 55
4, 78240, Note_off_c, 3, 61, 64
4, 78240, Note_on_c, 3, 56, 55
4, 78334, Note_off_c, 3, 56, 64
4, 78334, Note_on_c, 3, 72, 64
4, 78334, Note_on_c, 3, 66, 64
4, 78334, Note_on_c, 3, 63, 80
4, 78334, Note_on_c, 3, 61, 48
4, 78612, Note_off_c, 3, 61, 64
4, 78612, Note_off_c, 3, 63, 64
4, 78612, Note_off_c, 3, 66, 64
4, 78612, Note_off_c, 3, 72, 64
4, 78623, Note_on_c, 3, 61, 40
4, 78623, Note_on_c, 3, 63, 80
4, 78623, Note_on_c, 3, 66, 64
4, 78623, Note_on_c, 3, 72, 69
4, 78903, Note_off_c, 3, 66, 64
4, 78906, Note_off_c, 3, 72, 64
4, 78906, Note_off_c, 3, 63, 64
4, 78906, Note_off_c, 3, 61, 64
4, 78910, Note_on_c, 3, 72, 69
4, 78910, Note_on_c, 3, 66, 64
4, 78910, Note_on_c, 3, 62, 69
4, 78910, Note_on_c, 3, 60, 48
4, 79483, Note_off_c, 3, 60, 64
4, 79483, Note_off_c, 3, 62, 64
4, 79483, Note_off_c, 3, 66, 64
4, 79483, Note_off_c, 3, 72, 64
4, 79486, Note_on_c, 3, 54, 64
4, 79583, Note_off_c, 3, 54, 64
4, 79583, Note_on_c, 3, 56, 55
4, 79680, Note_off_c, 3, 56, 64
4, 79680, Note_on_c, 3, 60, 58
4, 79774, Note_off_c, 3, 60, 64
4, 79774, Note_on_c, 3, 56, 55
4, 79872, Note_off_c, 3, 56, 64
4, 79872, Note_on_c, 3, 60, 42
4, 79872, Note_on_c, 3, 72, 64
4, 79872, Note_on_c, 3, 66, 64
4, 79872, Note_on_c, 3, 62, 69
4, 80152, Note_off_c, 3, 62, 64
4, 80152, Note_off_c, 3, 66, 64
4, 80152, Note_off_c, 3, 72, 64
4, 80152, Note_off_c, 3, 60, 64
4, 80160, Note_on_c, 3, 62, 64
4, 80160, Note_on_c, 3, 60, 33
4, 80160, Note_on_c, 3, 72, 58
4, 80160, Note_on_c, 3, 66, 55
4, 80443, Note_off_c, 3, 66, 64
4, 80443, Note_off_c, 3, 72, 64
4, 80443, Note_off_c, 3, 60, 64
4, 80443, Note_off_c, 3, 62, 64
4, 80446, Note_on_c, 3, 63, 74
4, 80446, Note_on_c, 3, 70, 69
4, 80446, Note_on_c, 3, 61, 64
4, 80732, Note_off_c, 3, 61, 64
4, 80734, Note_on_c, 3, 60, 48
4, 80832, Note_off_c, 3, 60, 64
4, 80832, Note_on_c, 3, 56, 55
4, 81020, Note_off_c, 3, 70, 64
4, 81020, Note_off_c, 3, 63, 64
4, 81023, Note_off_c, 3, 56, 64
4, 81034, Note_on_c, 3, 54, 64
4, 81146, Note_off_c, 3, 54, 64
4, 81146, Note_on_c, 3, 56, 51
4, 81260, Note_off_c, 3, 56, 64
4, 81260, Note_on_c, 3, 60, 51
4, 81340, Note_off_c, 3, 60, 64
4, 81340, Note_on_c, 3, 56, 55
4, 81434, Note_off_c, 3, 56, 64
4, 81434, Note_on_c, 3, 61, 64
4, 81783, Note_off_c, 3, 61, 64
4, 81786, Note_on_c, 3, 62, 55
4, 81986, Note_off_c, 3, 62, 64
4, 81992, Note_on_c, 3, 60, 64
4, 82174, Note_off_c, 3, 60, 64
4, 82174, Note_on_c, 3, 56, 51
4, 82366, Note_off_c, 3, 56, 64
4, 82366, Note_on_c, 3, 54, 55
4, 82743, Note_off_c, 3, 54, 64
4, 82752, Note_on_c, 3, 62, 51
4, 82752, Note_on_c, 3, 54, 55
4, 82752, Note_on_c, 3, 72, 64
4, 82752, Note_on_c, 3, 60, 58
4, 82940, Note_off_c, 3, 60, 64
4, 82940, Note_off_c, 3, 72, 64
4, 82940, Note_off_c, 3, 62, 64
4, 82943, Note_off_c, 3, 54, 64
4, 82943, Note_on_c, 3, 72, 69
4, 82943, Note_on_c, 3, 62, 64
4, 82943, Note_on_c, 3, 60, 69
4, 83323, Note_off_c, 3, 60, 64
4, 83323, Note_off_c, 3, 62, 64
4, 83323, Note_off_c, 3, 72, 64
4, 83326, Note_on_c, 3, 72, 55
4, 83326, Note_on_c, 3, 66, 69
4, 83326, Note_on_c, 3, 63, 69
4, 83326, Note_on_c, 3, 61, 64
4, 84086, Note_off_c, 3, 61, 64
4, 84086, Note_off_c, 3, 63, 64
4, 84086, Note_off_c, 3, 66, 64
4, 84086, Note_off_c, 3, 72, 64
4, 84094, Note_on_c, 3, 54, 64
4, 84192, Note_off_c, 3, 54, 64
4, 84192, Note_on_c, 3, 56, 55
4, 84286, Note_off_c, 3, 56, 64
4, 84286, Note_on_c, 3, 61, 55
4, 84383, Note_off_c, 3, 61, 64
4, 84383, Note_on_c, 3, 56, 55
4, 84480, Note_off_c, 3, 56, 64
4, 84480, Note_on_c, 3, 72, 64
4, 84480, Note_on_c, 3, 61, 48
4, 84480, Note_on_c, 3, 66, 64
4, 84480, Note_on_c, 3, 63, 80
4, 84760, Note_off_c, 3, 63, 64
4, 84760, Note_off_c, 3, 66, 64
4, 84760, Note_off_c, 3, 61, 64
4, 84760, Note_off_c, 3, 72, 64
4, 84766, Note_on_c, 3, 66, 64
4, 84766, Note_on_c, 3, 61, 48
4, 84766, Note_on_c, 3, 72, 64
4, 84766, Note_on_c, 3, 63, 80
4, 85046, Note_off_c, 3, 66, 64
4, 85052, Note_off_c, 3, 63, 64
4, 85052, Note_off_c, 3, 72, 64
4, 85052, Note_off_c, 3, 61, 64
4, 85054, Note_on_c, 3, 66, 69
4, 85054, Note_on_c, 3, 60, 58
4, 85054, Note_on_c, 3, 62, 69
4, 85054, Note_on_c, 3, 72, 69
4, 85626, Note_off_c, 3, 72, 64
4, 85626, Note_off_c, 3, 62, 64
4, 85626, Note_off_c, 3, 60, 64
4, 85626, Note_off_c, 3, 66, 64
4, 85632, Note_on_c, 3, 54, 64
4, 85726, Note_off_c, 3, 54, 64
4, 85726, Note_on_c, 3, 56, 55
4, 85823, Note_off_c, 3, 56, 64
4, 85823, Note_on_c, 3, 60, 51
4, 85920, Note_off_c, 3, 60, 64
4, 85920, Note_on_c, 3, 56, 64
4, 86012, Note_off_c, 3, 56, 64
4, 86012, Note_on_c, 3, 60, 55
4, 86012, Note_on_c, 3, 62, 69
4, 86012, Note_on_c, 3, 66, 69
4, 86012, Note_on_c, 3, 72, 69
4, 86392, Note_off_c, 3, 72, 64
4, 86392, Note_off_c, 3, 62, 64
4, 86392, Note_off_c, 3, 60, 64
4, 86394, Note_off_c, 3, 66, 64
4, 86400, Note_on_c, 3, 60, 58
4, 86400, Note_on_c, 3, 72, 64
4, 86400, Note_on_c, 3, 62, 64
4, 86592, Note_off_c, 3, 62, 64
4, 86592, Note_off_c, 3, 72, 64
4, 86592, Note_off_c, 3, 60, 64
4, 86592, Note_on_c, 3, 63, 64
4, 86592, Note_on_c, 3, 72, 64
4, 86592, Note_on_c, 3, 61, 64
4, 86783, Note_off_c, 3, 61, 64
4, 86783, Note_off_c, 3, 72, 64
4, 86783, Note_off_c, 3, 63, 64
4, 86783, Note_on_c, 3, 60, 26
4, 86783, Note_on_c, 3, 72, 51
4, 86783, Note_on_c, 3, 62, 51
4, 86880, Note_off_c, 3, 62, 64
4, 86880, Note_off_c, 3, 72, 64
4, 86880, Note_off_c, 3, 60, 64
4, 86880, Note_on_c, 3, 56, 64
4, 86880, Note_on_c, 3, 61, 51
4, 86880, Note_on_c, 3, 70, 51
4, 87163, Note_off_c, 3, 70, 64
4, 87163, Note_off_c, 3, 61, 64
4, 87163, Note_off_c, 3, 56, 64
4, 87166, Note_on_c, 3, 54, 64
4, 87234, Note_on_c, 3, 56, 55
4, 87263, Note_off_c, 3, 54, 64
4, 87346, Note_off_c, 3, 56, 64
4, 87346, Note_on_c, 3, 60, 51
4, 87446, Note_off_c, 3, 60, 64
4, 87446, Note_on_c, 3, 56, 64
4, 87580, Note_off_c, 3, 56, 64
4, 87580, Note_on_c, 3, 61, 69
4, 87960, Note_off_c, 3, 61, 64
4, 87963, Note_on_c, 3, 62, 55
4, 88143, Note_off_c, 3, 62, 64
4, 88143, Note_on_c, 3, 60, 58
4, 88466, Note_off_c, 3, 60, 64
4, 88472, Note_on_c, 3, 56, 48
4, 88574, Note_off_c, 3, 56, 64
4, 88574, Note_on_c, 3, 54, 55
4, 88900, Note_off_c, 3, 54, 64
4, 88906, Note_on_c, 3, 54, 69
4, 89083, Note_off_c, 3, 54, 64
4, 89086, Note_on_c, 3, 60, 55
4, 89086, Note_on_c, 3, 62, 69
4, 89086, Note_on_c, 3, 72, 69
4, 89466, Note_off_c, 3, 72, 64
4, 89466, Note_off_c, 3, 62, 64
4, 89466, Note_off_c, 3, 60, 64
4, 89472, Note_on_c, 3, 63, 69
4, 89472, Note_on_c, 3, 72, 64
4, 89472, Note_on_c, 3, 66, 64
4, 89472, Note_on_c, 3, 61, 64
4, 90610, Note_off_c, 3, 61, 64
4, 90610, Note_off_c, 3, 66, 64
4, 90610, Note_off_c, 3, 72, 64
4, 90610, Note_off_c, 3, 63, 64
4, 92160, Note_on_c, 3, 72, 64
4, 92160, Note_on_c, 3, 66, 43
4, 92160, Note_on_c, 3, 70, 54
4, 92160, Note_on_c, 3, 63, 43
4, 92440, Note_off_c, 3, 63, 64
4, 92440, Note_off_c, 3, 70, 64
4, 92440, Note_off_c, 3, 66, 64
4, 92440, Note_off_c, 3, 72, 64
4, 92446, Note_on_c, 3, 70, 49
4, 92446, Note_on_c, 3, 72, 64
4, 92446, Note_on_c, 3, 63, 44
4, 92446, Note_on_c, 3, 66, 43
4, 92726, Note_off_c, 3, 66, 64
4, 92732, Note_off_c, 3, 63, 64
4, 92732, Note_off_c, 3, 72, 64
4, 92732, Note_off_c, 3, 70, 64
4, 92734, Note_on_c, 3, 66, 49
4, 92734, Note_on_c, 3, 72, 55
4, 92734, Note_on_c, 3, 62, 44
4, 93272, Note_off_c, 3, 62, 64
4, 93272, Note_off_c, 3, 72, 64
4, 93272, Note_off_c, 3, 66, 64
4, 95232, Note_on_c, 3, 72, 64
4, 95232, Note_on_c, 3, 66, 43
4, 95232, Note_on_c, 3, 70, 54
4, 95232, Note_on_c, 3, 63, 43
4, 95510, Note_off_c, 3, 63, 64
4, 95510, Note_off_c, 3, 70, 64
4, 95510, Note_off_c, 3, 66, 64
4, 95510, Note_off_c, 3, 72, 64
4, 95520, Note_on_c, 3, 70, 49
4, 95520, Note_on_c, 3, 72, 64
4, 95520, Note_on_c, 3, 63, 44
4, 95520, Note_on_c, 3, 66, 43
4, 95800, Note_off_c, 3, 66, 64
4, 95803, Note_off_c, 3, 63, 64
4, 95803, Note_off_c, 3, 72, 64
4, 95803, Note_off_c, 3, 70, 64
4, 95806, Note_on_c, 3, 66, 49
4, 95806, Note_on_c, 3, 72, 55
4, 95806, Note_on_c, 3, 62, 44
4, 96343, Note_off_c, 3, 62, 64
4, 96343, Note_off_c, 3, 72, 64
4, 96343, Note_off_c, 3, 66, 64
4, 96974, Note_on_c, 3, 54, 64
4, 97046, Note_off_c, 3, 54, 64
4, 97046, Note_on_c, 3, 56, 55
4, 97146, Note_off_c, 3, 56, 64
4, 97146, Note_on_c, 3, 61, 51
4, 97240, Note_off_c, 3, 61, 64
4, 97240, Note_on_c, 3, 56, 64
4, 97354, Note_off_c, 3, 56, 64
4, 97354, Note_on_c, 3, 63, 74
4, 97540, Note_off_c, 3, 63, 64
4, 97540, Note_on_c, 3, 54, 55
4, 97634, Note_off_c, 3, 54, 64
4, 97634, Note_on_c, 3, 56, 55
4, 97732, Note_off_c, 3, 56, 64
4, 97732, Note_on_c, 3, 61, 64
4, 97812, Note_off_c, 3, 61, 64
4, 97812, Note_on_c, 3, 56, 69
4, 97906, Note_off_c, 3, 56, 64
4, 97906, Note_on_c, 3, 63, 80
4, 98294, Note_off_c, 3, 63, 64
4, 98303, Note_on_c, 3, 72, 64
4, 98303, Note_on_c, 3, 66, 43
4, 98303, Note_on_c, 3, 70, 54
4, 98303, Note_on_c, 3, 63, 43
4, 98583, Note_off_c, 3, 63, 64
4, 98583, Note_off_c, 3, 70, 64
4, 98583, Note_off_c, 3, 66, 64
4, 98583, Note_off_c, 3, 72, 64
4, 98592, Note_on_c, 3, 66, 43
4, 98592, Note_on_c, 3, 72, 64
4, 98592, Note_on_c, 3, 63, 44
4, 98592, Note_on_c, 3, 70, 49
4, 98872, Note_off_c, 3, 66, 64
4, 98874, Note_off_c, 3, 70, 64
4, 98874, Note_off_c, 3, 63, 64
4, 98874, Note_off_c, 3, 72, 64
4, 98880, Note_on_c, 3, 66, 49
4, 98880, Note_on_c, 3, 72, 55
4, 98880, Note_on_c, 3, 62, 44
4, 99412, Note_off_c, 3, 62, 64
4, 99412, Note_off_c, 3, 72, 64
4, 99412, Note_off_c, 3, 66, 64
4, 100046, Note_on_c, 3, 54, 64
4, 100120, Note_off_c, 3, 54, 64
4, 100120, Note_on_c, 3, 56, 55
4, 100220, Note_off_c, 3, 56, 64
4, 100220, Note_on_c, 3, 61, 51
4, 100310, Note_off_c, 3, 61, 64
4, 100310, Note_on_c, 3, 56, 64
4, 100426, Note_off_c, 3, 56, 64
4, 100426, Note_on_c, 3, 63, 74
4, 100610, Note_off_c, 3, 63, 64
4, 100610, Note_on_c, 3, 54, 55
4, 100706, Note_off_c, 3, 54, 64
4, 100706, Note_on_c, 3, 56, 55
4, 100803, Note_off_c, 3, 56, 64
4, 100803, Note_on_c, 3, 61, 64
4, 100886, Note_off_c, 3, 61, 64
4, 100886, Note_on_c, 3, 56, 69
4, 100980, Note_off_c, 3, 56, 64
4, 100980, Note_on_c, 3, 63, 80
4, 101366, Note_off_c, 3, 63, 64
4, 101374, Note_on_c, 3, 63, 43
4, 101374, Note_on_c, 3, 72, 64
4, 101374, Note_on_c, 3, 66, 43
4, 101374, Note_on_c, 3, 70, 54
4, 101654, Note_off_c, 3, 70, 64
4, 101654, Note_off_c, 3, 66, 64
4, 101654, Note_off_c, 3, 72, 64
4, 101654, Note_off_c, 3, 63, 64
4, 101663, Note_on_c, 3, 70, 49
4, 101663, Note_on_c, 3, 72, 64
4, 101663, Note_on_c, 3, 63, 44
4, 101663, Note_on_c, 3, 66, 43
4, 101943, Note_off_c, 3, 66, 64
4, 101946, Note_off_c, 3, 63, 64
4, 101946, Note_off_c, 3, 72, 64
4, 101946, Note_off_c, 3, 70, 64
4, 101952, Note_on_c, 3, 66, 49
4, 101952, Note_on_c, 3, 72, 55
4, 101952, Note_on_c, 3, 62, 44
4, 102903, Note_off_c, 3, 62, 64
4, 102903, Note_off_c, 3, 72, 64
4, 102903, Note_off_c, 3, 66, 64
4, 103092, Note_on_c, 3, 61, 58
4, 103280, Note_off_c, 3, 61, 64
4, 103283, Note_on_c, 3, 61, 67
4, 103472, Note_off_c, 3, 61, 64
4, 103472, Note_on_c, 3, 56, 67
4, 103672, Note_off_c, 3, 56, 64
4, 103672, Note_on_c, 3, 61, 67
4, 103860, Note_off_c, 3, 61, 64
4, 103860, Note_on_c, 3, 62, 67
4, 104620, Note_off_c, 3, 62, 64
4, 104626, Note_on_c, 3, 60, 61
4, 104820, Note_off_c, 3, 60, 64
4, 104820, Note_on_c, 3, 56, 58
4, 105020, Note_off_c, 3, 56, 64
4, 105023, Note_on_c, 3, 60, 54
4, 105120, Note_off_c, 3, 60, 64
4, 105120, Note_on_c, 3, 56, 51
4, 105223, Note_off_c, 3, 56, 64
4, 105223, Note_on_c, 3, 54, 54
4, 106140, Note_off_c, 3, 54, 64
4, 106146, Note_on_c, 3, 56, 67
4, 106346, Note_off_c, 3, 56, 64
4, 106352, Note_on_c, 3, 56, 72
4, 106546, Note_off_c, 3, 56, 64
4, 106546, Note_on_c, 3, 60, 61
4, 106746, Note_off_c, 3, 60, 64
4, 106746, Note_on_c, 3, 61, 58
4, 106932, Note_off_c, 3, 61, 64
4, 106932, Note_on_c, 3, 56, 67
4, 107132, Note_off_c, 3, 56, 64
4, 107132, Note_on_c, 3, 54, 67
4, 107700, Note_off_c, 3, 54, 64
4, 107703, Note_on_c, 3, 66, 72
4, 107903, Note_off_c, 3, 66, 64
4, 107910, Note_on_c, 3, 66, 72
4, 108110, Note_off_c, 3, 66, 64
4, 108112, Note_on_c, 3, 62, 67
4, 108483, Note_off_c, 3, 62, 64
4, 108486, Note_on_c, 3, 63, 77
4, 108672, Note_off_c, 3, 63, 64
4, 108672, Note_on_c, 3, 62, 58
4, 108854, Note_off_c, 3, 62, 64
4, 108854, Note_on_c, 3, 61, 58
4, 109226, Note_off_c, 3, 61, 64
4, 109234, Note_on_c, 3, 61, 58
4, 109423, Note_off_c, 3, 61, 64
4, 109426, Note_on_c, 3, 61, 58
4, 109610, Note_off_c, 3, 61, 64
4, 109610, Note_on_c, 3, 56, 58
4, 109803, Note_off_c, 3, 56, 64
4, 109803, Note_on_c, 3, 61, 67
4, 110000, Note_off_c, 3, 61, 64
4, 110000, Note_on_c, 3, 56, 67
4, 110200, Note_off_c, 3, 56, 64
4, 110200, Note_on_c, 3, 61, 67
4, 110406, Note_off_c, 3, 61, 64
4, 110410, Note_on_c, 3, 62, 67
4, 110786, Note_off_c, 3, 62, 64
4, 110792, Note_on_c, 3, 60, 67
4, 110980, Note_off_c, 3, 60, 64
4, 110980, Note_on_c, 3, 56, 58
4, 111166, Note_off_c, 3, 56, 64
4, 111166, Note_on_c, 3, 60, 54
4, 111252, Note_off_c, 3, 60, 64
4, 111252, Note_on_c, 3, 56, 54
4, 111343, Note_off_c, 3, 56, 64
4, 111343, Note_on_c, 3, 54, 58
4, 112300, Note_off_c, 3, 54, 64
4, 112306, Note_on_c, 3, 56, 67
4, 112486, Note_off_c, 3, 56, 64
4, 112492, Note_on_c, 3, 56, 58
4, 112692, Note_off_c, 3, 56, 64
4, 112692, Note_on_c, 3, 60, 58
4, 112892, Note_off_c, 3, 60, 64
4, 112892, Note_on_c, 3, 61, 58
4, 113080, Note_off_c, 3, 61, 64
4, 113080, Note_on_c, 3, 56, 67
4, 113274, Note_off_c, 3, 56, 64
4, 113274, Note_on_c, 3, 54, 72
4, 113860, Note_off_c, 3, 54, 64
4, 113863, Note_on_c, 3, 62, 58
4, 114072, Note_off_c, 3, 62, 64
4, 114074, Note_on_c, 3, 63, 72
4, 114263, Note_off_c, 3, 63, 64
4, 114266, Note_on_c, 3, 63, 77
4, 114623, Note_off_c, 3, 63, 64
4, 114626, Note_on_c, 3, 62, 72
4, 115200, Note_off_c, 3, 62, 64
4, 115203, Note_on_c, 3, 61, 67
4, 116143, Note_off_c, 3, 61, 64
4, 116152, Note_on_c, 3, 62, 67
4, 116346, Note_off_c, 3, 62, 64
4, 116346, Note_on_c, 3, 63, 72
4, 116540, Note_off_c, 3, 63, 64
4, 116540, Note_on_c, 3, 61, 58
4, 116732, Note_off_c, 3, 61, 64
4, 116732, Note_on_c, 3, 62, 58
4, 116932, Note_off_c, 3, 62, 64
4, 116934, Note_on_c, 3, 62, 72
4, 117103, Note_off_c, 3, 62, 64
4, 117106, Note_on_c, 3, 62, 72
4, 117303, Note_off_c, 3, 62, 64
4, 117303, Note_on_c, 3, 63, 67
4, 117486, Note_off_c, 3, 63, 64
4, 117486, Note_on_c, 3, 62, 67
4, 117672, Note_off_c, 3, 62, 64
4, 117672, Note_on_c, 3, 54, 58
4, 117880, Note_off_c, 3, 54, 64
4, 117886, Note_on_c, 3, 54, 77
4, 119026, Note_off_c, 3, 54, 64
4, 119040, Note_on_c, 3, 56, 72
4, 119223, Note_off_c, 3, 56, 64
4, 119223, Note_on_c, 3, 60, 61
4, 119420, Note_off_c, 3, 60, 64
4, 119420, Note_on_c, 3, 61, 67
4, 119610, Note_off_c, 3, 61, 64
4, 119610, Note_on_c, 3, 56, 77
4, 120006, Note_off_c, 3, 56, 64
4, 120010, Note_on_c, 3, 62, 67
4, 120206, Note_off_c, 3, 62, 64
4, 120206, Note_on_c, 3, 63, 72
4, 120383, Note_off_c, 3, 63, 64
4, 120383, Note_on_c, 3, 62, 67
4, 120954, Note_off_c, 3, 62, 64
4, 120960, Note_on_c, 3, 54, 67
4, 121054, Note_off_c, 3, 54, 64
4, 121054, Note_on_c, 3, 56, 67
4, 121140, Note_off_c, 3, 56, 64
4, 121140, Note_on_c, 3, 61, 58
4, 121220, Note_off_c, 3, 61, 64
4, 121220, Note_on_c, 3, 56, 58
4, 121343, Note_off_c, 3, 56, 64
4, 121343, Note_on_c, 3, 72, 64
4, 121343, Note_on_c, 3, 66, 64
4, 121343, Note_on_c, 3, 63, 83
4, 121343, Note_on_c, 3, 61, 48
4, 121623, Note_off_c, 3, 61, 64
4, 121623, Note_off_c, 3, 63, 64
4, 121623, Note_off_c, 3, 66, 64
4, 121623, Note_off_c, 3, 72, 64
4, 121632, Note_on_c, 3, 61, 40
4, 121632, Note_on_c, 3, 72, 69
4, 121632, Note_on_c, 3, 63, 80
4, 121632, Note_on_c, 3, 66, 64
4, 121910, Note_off_c, 3, 66, 64
4, 121912, Note_off_c, 3, 63, 64
4, 121912, Note_off_c, 3, 72, 64
4, 121912, Note_off_c, 3, 61, 64
4, 121920, Note_on_c, 3, 72, 69
4, 121920, Note_on_c, 3, 66, 64
4, 121920, Note_on_c, 3, 62, 69
4, 121920, Note_on_c, 3, 60, 48
4, 122492, Note_off_c, 3, 60, 64
4, 122492, Note_off_c, 3, 62, 64
4, 122492, Note_off_c, 3, 66, 64
4, 122492, Note_off_c, 3, 72, 64
4, 122494, Note_on_c, 3, 54, 64
4, 122592, Note_off_c, 3, 54, 64
4, 122592, Note_on_c, 3, 56, 55
4, 122686, Note_off_c, 3, 56, 64
4, 122686, Note_on_c, 3, 60, 58
4, 122783, Note_off_c, 3, 60, 64
4, 122783, Note_on_c, 3, 56, 55
4, 122880, Note_off_c, 3, 56, 64
4, 122880, Note_on_c, 3, 72, 64
4, 122880, Note_on_c, 3, 66, 64
4, 122880, Note_on_c, 3, 60, 42
4, 122880, Note_on_c, 3, 62, 69
4, 123160, Note_off_c, 3, 62, 64
4, 123160, Note_off_c, 3, 60, 64
4, 123160, Note_off_c, 3, 66, 64
4, 123160, Note_off_c, 3, 72, 64
4, 123166, Note_on_c, 3, 62, 64
4, 123166, Note_on_c, 3, 60, 33
4, 123166, Note_on_c, 3, 72, 58
4, 123166, Note_on_c, 3, 66, 55
4, 123452, Note_off_c, 3, 66, 64
4, 123452, Note_off_c, 3, 72, 64
4, 123452, Note_off_c, 3, 60, 64
4, 123452, Note_off_c, 3, 62, 64
4, 123454, Note_on_c, 3, 63, 74
4, 123454, Note_on_c, 3, 70, 69
4, 123454, Note_on_c, 3, 61, 64
4, 123740, Note_off_c, 3, 61, 64
4, 123743, Note_on_c, 3, 60, 48
4, 123840, Note_off_c, 3, 60, 64
4, 123840, Note_on_c, 3, 56, 55
4, 124026, Note_off_c, 3, 70, 64
4, 124026, Note_off_c, 3, 63, 64
4, 124032, Note_off_c, 3, 56, 64
4, 124034, Note_on_c, 3, 54, 64
4, 124152, Note_off_c, 3, 54, 64
4, 124154, Note_on_c, 3, 56, 51
4, 124266, Note_off_c, 3, 56, 64
4, 124266, Note_on_c, 3, 60, 51
4, 124346, Note_off_c, 3, 60, 64
4, 124346, Note_on_c, 3, 56, 55
4, 124443, Note_off_c, 3, 56, 64
4, 124443, Note_on_c, 3, 61, 64
4, 124792, Note_off_c, 3, 61, 64
4, 124794, Note_on_c, 3, 62, 55
4, 124994, Note_off_c, 3, 62, 64
4, 125000, Note_on_c, 3, 60, 64
4, 125183, Note_off_c, 3, 60, 64
4, 125183, Note_on_c, 3, 56, 51
4, 125374, Note_off_c, 3, 56, 64
4, 125374, Note_on_c, 3, 54, 55
4, 125752, Note_off_c, 3, 54, 64
4, 125760, Note_on_c, 3, 62, 51
4, 125760, Note_on_c, 3, 72, 64
4, 125760, Note_on_c, 3, 54, 55
4, 125760, Note_on_c, 3, 60, 58
4, 125946, Note_off_c, 3, 60, 64
4, 125946, Note_off_c, 3, 72, 64
4, 125946, Note_off_c, 3, 62, 64
4, 125952, Note_off_c, 3, 54, 64
4, 125952, Note_on_c, 3, 62, 64
4, 125952, Note_on_c, 3, 60, 69
4, 125952, Note_on_c, 3, 72, 69
4, 126332, Note_off_c, 3, 72, 64
4, 126332, Note_off_c, 3, 60, 64
4, 126332, Note_off_c, 3, 62, 64
4, 126334, Note_on_c, 3, 66, 69
4, 126334, Note_on_c, 3, 72, 55
4, 126334, Note_on_c, 3, 63, 69
4, 126334, Note_on_c, 3, 61, 64
4, 127094, Note_off_c, 3, 61, 64
4, 127094, Note_off_c, 3, 63, 64
4, 127094, Note_off_c, 3, 72, 64
4, 127094, Note_off_c, 3, 66, 64
4, 127103, Note_on_c, 3, 54, 64
4, 127200, Note_off_c, 3, 54, 64
4, 127200, Note_on_c, 3, 56, 55
4, 127294, Note_off_c, 3, 56, 64
4, 127294, Note_on_c, 3, 61, 55
4, 127392, Note_off_c, 3, 61, 64
4, 127392, Note_on_c, 3, 56, 55
4, 127486, Note_off_c, 3, 56, 64
4, 127486, Note_on_c, 3, 72, 64
4, 127486, Note_on_c, 3, 66, 64
4, 127486, Note_on_c, 3, 61, 48
4, 127486, Note_on_c, 3, 63, 80
4, 127766, Note_off_c, 3, 63, 64
4, 127766, Note_off_c, 3, 61, 64
4, 127766, Note_off_c, 3, 66, 64
4, 127766, Note_off_c, 3, 72, 64
4, 127774, Note_on_c, 3, 61, 48
4, 127774, Note_on_c, 3, 66, 64
4, 127774, Note_on_c, 3, 72, 64
4, 127774, Note_on_c, 3, 63, 80
4, 128054, Note_off_c, 3, 66, 64
4, 128060, Note_off_c, 3, 63, 64
4, 128060, Note_off_c, 3, 72, 64
4, 128060, Note_off_c, 3, 61, 64
4, 128063, Note_on_c, 3, 66, 69
4, 128063, Note_on_c, 3, 60, 58
4, 128063, Note_on_c, 3, 62, 69
4, 128063, Note_on_c, 3, 72, 69
4, 128634, Note_off_c, 3, 72, 64
4, 128634, Note_off_c, 3, 62, 64
4, 128634, Note_off_c, 3, 60, 64
4, 128634, Note_off_c, 3, 66, 64
4, 128640, Note_on_c, 3, 54, 64
4, 128734, Note_off_c, 3, 54, 64
4, 128734, Note_on_c, 3, 56, 55
4, 128832, Note_off_c, 3, 56, 64
4, 128832, Note_on_c, 3, 60, 51
4, 128926, Note_off_c, 3, 60, 64
4, 128926, Note_on_c, 3, 56, 64
4, 129023, Note_off_c, 3, 56, 64
4, 129023, Note_on_c, 3, 60, 55
4, 129023, Note_on_c, 3, 62, 69
4, 129023, Note_on_c, 3, 66, 69
4, 129023, Note_on_c, 3, 72, 69
4, 129400, Note_off_c, 3, 72, 64
4, 129400, Note_off_c, 3, 62, 64
4, 129400, Note_off_c, 3, 60, 64
4, 129403, Note_off_c, 3, 66, 64
4, 129406, Note_on_c, 3, 60, 58
4, 129406, Note_on_c, 3, 72, 64
4, 129406, Note_on_c, 3, 62, 64
4, 129600, Note_off_c, 3, 62, 64
4, 129600, Note_off_c, 3, 72, 64
4, 129600, Note_off_c, 3, 60, 64
4, 129600, Note_on_c, 3, 63, 64
4, 129600, Note_on_c, 3, 72, 64
4, 129600, Note_on_c, 3, 61, 64
4, 129792, Note_off_c, 3, 61, 64
4, 129792, Note_off_c, 3, 72, 64
4, 129792, Note_off_c, 3, 63, 64
4, 129792, Note_on_c, 3, 60, 26
4, 129792, Note_on_c, 3, 72, 51
4, 129792, Note_on_c, 3, 62, 51
4, 129886, Note_off_c, 3, 62, 64
4, 129886, Note_off_c, 3, 72, 64
4, 129886, Note_off_c, 3, 60, 64
4, 129886, Note_on_c, 3, 56, 64
4, 129886, Note_on_c, 3, 61, 51
4, 129886, Note_on_c, 3, 70, 51
4, 130172, Note_off_c, 3, 70, 64
4, 130172, Note_off_c, 3, 61, 64
4, 130172, Note_off_c, 3, 56, 64
4, 130174, Note_on_c, 3, 54, 64
4, 130272, Note_off_c, 3, 54, 64
4, 130272, Note_on_c, 3, 56, 55
4, 130366, Note_off_c, 3, 56, 64
4, 130366, Note_on_c, 3, 60, 51
4, 130463, Note_off_c, 3, 60, 64
4, 130463, Note_on_c, 3, 56, 64
4, 130586, Note_off_c, 3, 56, 64
4, 130586, Note_on_c, 3, 61, 69
4, 130966, Note_off_c, 3, 61, 64
4, 130972, Note_on_c, 3, 62, 55
4, 131152, Note_off_c, 3, 62, 64
4, 131152, Note_on_c, 3, 60, 58
4, 131474, Note_off_c, 3, 60, 64
4, 131480, Note_on_c, 3, 56, 48
4, 131583, Note_off_c, 3, 56, 64
4, 131583, Note_on_c, 3, 54, 55
4, 131906, Note_off_c, 3, 54, 64
4, 131912, Note_on_c, 3, 54, 69
4, 132094, Note_off_c, 3, 54, 64
4, 132094, Note_on_c, 3, 72, 69
4, 132094, Note_on_c, 3, 62, 69
4, 132094, Note_on_c, 3, 60, 55
4, 132474, Note_off_c, 3, 60, 64
4, 132474, Note_off_c, 3, 62, 64
4, 132474, Note_off_c, 3, 72, 64
4, 132480, Note_on_c, 3, 63, 69
4, 132480, Note_on_c, 3, 72, 64
4, 132480, Note_on_c, 3, 66, 64
4, 132480, Note_on_c, 3, 61, 64
4, 133240, Note_off_c, 3, 61, 64
4, 133240, Note_off_c, 3, 66, 64
4, 133240, Note_off_c, 3, 72, 64
4, 133240, Note_off_c, 3, 63, 64
4, 133246, Note_on_c, 3, 54, 64
4, 133343, Note_off_c, 3, 54, 64
4, 133343, Note_on_c, 3, 56, 64
4, 133440, Note_off_c, 3, 56, 64
4, 133440, Note_on_c, 3, 61, 55
4, 133534, Note_off_c, 3, 61, 64
4, 133534, Note_on_c, 3, 56, 55
4, 133632, Note_off_c, 3, 56, 64
4, 133632, Note_on_c, 3, 72, 64
4, 133632, Note_on_c, 3, 66, 64
4, 133632, Note_on_c, 3, 63, 83
4, 133632, Note_on_c, 3, 61, 48
4, 133910, Note_off_c, 3, 61, 64
4, 133910, Note_off_c, 3, 63, 64
4, 133910, Note_off_c, 3, 66, 64
4, 133910, Note_off_c, 3, 72, 64
4, 133920, Note_on_c, 3, 61, 40
4, 133920, Note_on_c, 3, 72, 69
4, 133920, Note_on_c, 3, 63, 80
4, 133920, Note_on_c, 3, 66, 64
4, 134200, Note_off_c, 3, 66, 64
4, 134203, Note_off_c, 3, 63, 64
4, 134203, Note_off_c, 3, 72, 64
4, 134203, Note_off_c, 3, 61, 64
4, 134206, Note_on_c, 3, 72, 69
4, 134206, Note_on_c, 3, 66, 64
4, 134206, Note_on_c, 3, 62, 69
4, 134206, Note_on_c, 3, 60, 48
4, 134780, Note_off_c, 3, 60, 64
4, 134780, Note_off_c, 3, 62, 64
4, 134780, Note_off_c, 3, 66, 64
4, 134780, Note_off_c, 3, 72, 64
4, 134783, Note_on_c, 3, 54, 64
4, 134880, Note_off_c, 3, 54, 64
4, 134880, Note_on_c, 3, 56, 55
4, 134974, Note_off_c, 3, 56, 64
4, 134974, Note_on_c, 3, 60, 58
4, 135072, Note_off_c, 3, 60, 64
4, 135072, Note_on_c, 3, 56, 55
4, 135166, Note_off_c, 3, 56, 64
4, 135166, Note_on_c, 3, 72, 64
4, 135166, Note_on_c, 3, 66, 64
4, 135166, Note_on_c, 3, 60, 42
4, 135166, Note_on_c, 3, 62, 69
4, 135446, Note_off_c, 3, 62, 64
4, 135446, Note_off_c, 3, 60, 64
4, 135446, Note_off_c, 3, 66, 64
4, 135446, Note_off_c, 3, 72, 64
4, 135454, Note_on_c, 3, 62, 64
4, 135454, Note_on_c, 3, 60, 33
4, 135454, Note_on_c, 3, 72, 58
4, 135454, Note_on_c, 3, 66, 55
4, 135740, Note_off_c, 3, 66, 64
4, 135740, Note_off_c, 3, 72, 64
4, 135740, Note_off_c, 3, 60, 64
4, 135740, Note_off_c, 3, 62, 64
4, 135743, Note_on_c, 3, 63, 74
4, 135743, Note_on_c, 3, 70, 69
4, 135743, Note_on_c, 3, 61, 64
4, 136026, Note_off_c, 3, 61, 64
4, 136032, Note_on_c, 3, 60, 48
4, 136126, Note_off_c, 3, 60, 64
4, 136126, Note_on_c, 3, 56, 55
4, 136312, Note_off_c, 3, 70, 64
4, 136312, Note_off_c, 3, 63, 64
4, 136320, Note_off_c, 3, 56, 64
4, 136323, Note_on_c, 3, 54, 64
4, 136440, Note_off_c, 3, 54, 64
4, 136443, Note_on_c, 3, 56, 51
4, 136554, Note_off_c, 3, 56, 64
4, 136554, Note_on_c, 3, 60, 51
4, 136634, Note_off_c, 3, 60, 64
4, 136634, Note_on_c, 3, 56, 55
4, 136732, Note_off_c, 3, 56, 64
4, 136732, Note_on_c, 3, 61, 64
4, 137080, Note_off_c, 3, 61, 64
4, 137083, Note_on_c, 3, 62, 55
4, 137283, Note_off_c, 3, 62, 64
4, 137286, Note_on_c, 3, 60, 64
4, 137472, Note_off_c, 3, 60, 64
4, 137472, Note_on_c, 3, 56, 51
4, 137663, Note_off_c, 3, 56, 64
4, 137663, Note_on_c, 3, 54, 55
4, 138040, Note_off_c, 3, 54, 64
4, 138046, Note_on_c, 3, 62, 51
4, 138046, Note_on_c, 3, 72, 64
4, 138046, Note_on_c, 3, 54, 55
4, 138046, Note_on_c, 3, 60, 58
4, 138234, Note_off_c, 3, 60, 64
4, 138234, Note_off_c, 3, 72, 64
4, 138234, Note_off_c, 3, 62, 64
4, 138240, Note_off_c, 3, 54, 64
4, 138240, Note_on_c, 3, 62, 64
4, 138240, Note_on_c, 3, 60, 69
4, 138240, Note_on_c, 3, 72, 69
4, 138620, Note_off_c, 3, 72, 64
4, 138620, Note_off_c, 3, 60, 64
4, 138620, Note_off_c, 3, 62, 64
4, 138623, Note_on_c, 3, 66, 69
4, 138623, Note_on_c, 3, 72, 55
4, 138623, Note_on_c, 3, 63, 69
4, 138623, Note_on_c, 3, 61, 64
4, 139383, Note_off_c, 3, 61, 64
4, 139383, Note_off_c, 3, 63, 64
4, 139383, Note_off_c, 3, 72, 64
4, 139383, Note_off_c, 3, 66, 64
4, 139392, Note_on_c, 3, 54, 64
4, 139486, Note_off_c, 3, 54, 64
4, 139486, Note_on_c, 3, 56, 55
4, 139583, Note_off_c, 3, 56, 64
4, 139583, Note_on_c, 3, 61, 55
4, 139680, Note_off_c, 3, 61, 64
4, 139680, Note_on_c, 3, 56, 55
4, 139774, Note_off_c, 3, 56, 64
4, 139774, Note_on_c, 3, 72, 64
4, 139774, Note_on_c, 3, 66, 64
4, 139774, Note_on_c, 3, 61, 48
4, 139774, Note_on_c, 3, 63, 80
4, 140054, Note_off_c, 3, 63, 64
4, 140054, Note_off_c, 3, 61, 64
4, 140054, Note_off_c, 3, 66, 64
4, 140054, Note_off_c, 3, 72, 64
4, 140063, Note_on_c, 3, 61, 48
4, 140063, Note_on_c, 3, 66, 64
4, 140063, Note_on_c, 3, 72, 64
4, 140063, Note_on_c, 3, 63, 80
4, 140343, Note_off_c, 3, 66, 64
4, 140346, Note_off_c, 3, 63, 64
4, 140346, Note_off_c, 3, 72, 64
4, 140346, Note_off_c, 3, 61, 64
4, 140352, Note_on_c, 3, 66, 69
4, 140352, Note_on_c, 3, 60, 58
4, 140352, Note_on_c, 3, 62, 69
4, 140352, Note_on_c, 3, 72, 69
4, 140923, Note_off_c, 3, 72, 64
4, 140923, Note_off_c, 3, 62, 64
4, 140923, Note_off_c, 3, 60, 64
4, 140923, Note_off_c, 3, 66, 64
4, 140926, Note_on_c, 3, 54, 64
4, 141023, Note_off_c, 3, 54, 64
4, 141023, Note_on_c, 3, 56, 55
4, 141120, Note_off_c, 3, 56, 64
4, 141120, Note_on_c, 3, 60, 51
4, 141212, Note_off_c, 3, 60, 64
4, 141212, Note_on_c, 3, 56, 64
4, 141310, Note_off_c, 3, 56, 64
4, 141310, Note_on_c, 3, 60, 55
4, 141310, Note_on_c, 3, 62, 69
4, 141310, Note_on_c, 3, 66, 69
4, 141310, Note_on_c, 3, 72, 69
4, 141686, Note_off_c, 3, 72, 64
4, 141686, Note_off_c, 3, 62, 64
4, 141686, Note_off_c, 3, 60, 64
4, 141692, Note_off_c, 3, 66, 64
4, 141694, Note_on_c, 3, 60, 58
4, 141694, Note_on_c, 3, 72, 64
4, 141694, Note_on_c, 3, 62, 64
4, 141886, Note_off_c, 3, 62, 64
4, 141886, Note_off_c, 3, 72, 64
4, 141886, Note_off_c, 3, 60, 64
4, 141886, Note_on_c, 3, 63, 64
4, 141886, Note_on_c, 3, 72, 64
4, 141886, Note_on_c, 3, 61, 64
4, 142080, Note_off_c, 3, 61, 64
4, 142080, Note_off_c, 3, 72, 64
4, 142080, Note_off_c, 3, 63, 64
4, 142080, Note_on_c, 3, 60, 26
4, 142080, Note_on_c, 3, 72, 51
4, 142080, Note_on_c, 3, 62, 51
4, 142174, Note_off_c, 3, 62, 64
4, 142174, Note_off_c, 3, 72, 64
4, 142174, Note_off_c, 3, 60, 64
4, 142174, Note_on_c, 3, 56, 64
4, 142174, Note_on_c, 3, 61, 51
4, 142174, Note_on_c, 3, 70, 51
4, 142460, Note_off_c, 3, 70, 64
4, 142460, Note_off_c, 3, 61, 64
4, 142460, Note_off_c, 3, 56, 64
4, 142463, Note_on_c, 3, 54, 64
4, 142560, Note_off_c, 3, 54, 64
4, 142560, Note_on_c, 3, 56, 55
4, 142654, Note_off_c, 3, 56, 64
4, 142654, Note_on_c, 3, 60, 51
4, 142752, Note_off_c, 3, 60, 64
4, 142752, Note_on_c, 3, 56, 64
4, 142874, Note_off_c, 3, 56, 64
4, 142874, Note_on_c, 3, 61, 69
4, 143254, Note_off_c, 3, 61, 64
4, 143260, Note_on_c, 3, 62, 55
4, 143440, Note_off_c, 3, 62, 64
4, 143440, Note_on_c, 3, 60, 58
4, 143763, Note_off_c, 3, 60, 64
4, 143766, Note_on_c, 3, 56, 48
4, 143872, Note_off_c, 3, 56, 64
4, 143872, Note_on_c, 3, 54, 55
4, 144194, Note_off_c, 3, 54, 64
4, 144203, Note_on_c, 3, 54, 69
4, 144383, Note_off_c, 3, 54, 64
4, 144383, Note_on_c, 3, 72, 69
4, 144383, Note_on_c, 3, 62, 69
4, 144383, Note_on_c, 3, 60, 55
4, 144763, Note_off_c, 3, 60, 64
4, 144763, Note_off_c, 3, 62, 64
4, 144763, Note_off_c, 3, 72, 64
4, 144766, Note_on_c, 3, 63, 69
4, 144766, Note_on_c, 3, 72, 64
4, 144766, Note_on_c, 3, 66, 64
4, 144766, Note_on_c, 3, 61, 64
4, 145526, Note_off_c, 3, 61, 64
4, 145526, Note_off_c, 3, 66, 64
4, 145526, Note_off_c, 3, 72, 64
4, 145526, Note_off_c, 3, 63, 64
4, 145534, Note_on_c, 3, 54, 64
4, 145632, Note_off_c, 3, 54, 64
4, 145632, Note_on_c, 3, 56, 64
4, 145726, Note_off_c, 3, 56, 64
4, 145726, Note_on_c, 3, 61, 55
4, 145823, Note_off_c, 3, 61, 64
4, 145823, Note_on_c, 3, 56, 55
4, 145920, Note_off_c, 3, 56, 64
4, 145920, Note_on_c, 3, 72, 64
4, 145920, Note_on_c, 3, 66, 64
4, 145920, Note_on_c, 3, 63, 83
4, 145920, Note_on_c, 3, 61, 48
4, 146200, Note_off_c, 3, 61, 64
4, 146200, Note_off_c, 3, 63, 64
4, 146200, Note_off_c, 3, 66, 64
4, 146200, Note_off_c, 3, 72, 64
4, 146206, Note_on_c, 3, 61, 40
4, 146206, Note_on_c, 3, 72, 69
4, 146206, Note_on_c, 3, 63, 80
4, 146206, Note_on_c, 3, 66, 64
4, 146486, Note_off_c, 3, 66, 64
4, 146492, Note_off_c, 3, 63, 64
4, 146492, Note_off_c, 3, 72, 64
4, 146492, Note_off_c, 3, 61, 64
4, 146494, Note_on_c, 3, 72, 69
4, 146494, Note_on_c, 3, 66, 64
4, 146494, Note_on_c, 3, 62, 69
4, 146494, Note_on_c, 3, 60, 48
4, 147066, Note_off_c, 3, 60, 64
4, 147066, Note_off_c, 3, 62, 64
4, 147066, Note_off_c, 3, 66, 64
4, 147066, Note_off_c, 3, 72, 64
4, 147072, Note_on_c, 3, 54, 64
4, 147166, Note_off_c, 3, 54, 64
4, 147166, Note_on_c, 3, 56, 55
4, 147263, Note_off_c, 3, 56, 64
4, 147263, Note_on_c, 3, 60, 58
4, 147360, Note_off_c, 3, 60, 64
4, 147360, Note_on_c, 3, 56, 55
4, 147454, Note_off_c, 3, 56, 64
4, 147454, Note_on_c, 3, 72, 64
4, 147454, Note_on_c, 3, 66, 64
4, 147454, Note_on_c, 3, 60, 42
4, 147454, Note_on_c, 3, 62, 69
4, 147734, Note_off_c, 3, 62, 64
4, 147734, Note_off_c, 3, 60, 64
4, 147734, Note_off_c, 3, 66, 64
4, 147734, Note_off_c, 3, 72, 64
4, 147743, Note_on_c, 3, 62, 61
4, 147743, Note_on_c, 3, 60, 31
4, 147743, Note_on_c, 3, 72, 56
4, 147743, Note_on_c, 3, 66, 53
4, 148026, Note_off_c, 3, 66, 64
4, 148026, Note_off_c, 3, 72, 64
4, 148026, Note_off_c, 3, 60, 64
4, 148026, Note_off_c, 3, 62, 64
4, 148032, Note_on_c, 3, 63, 68
4, 148032, Note_on_c, 3, 70, 63
4, 148032, Note_on_c, 3, 61, 58
4, 148312, Note_off_c, 3, 61, 64
4, 148320, Note_on_c, 3, 60, 40
4, 148412, Note_off_c, 3, 60, 64
4, 148412, Note_on_c, 3, 56, 46
4, 148603, Note_off_c, 3, 70, 64
4, 148603, Note_off_c, 3, 63, 64
4, 148606, Note_off_c, 3, 56, 64
4, 148610, Note_on_c, 3, 54, 52
4, 148726, Note_off_c, 3, 54, 64
4, 148732, Note_on_c, 3, 56, 40
4, 148843, Note_off_c, 3, 56, 64
4, 148843, Note_on_c, 3, 60, 39
4, 148923, Note_off_c, 3, 60, 64
4, 148923, Note_on_c, 3, 56, 41
4, 149020, Note_off_c, 3, 56, 64
4, 149020, Note_on_c, 3, 61, 48
4, 149366, Note_off_c, 3, 61, 64
4, 149372, Note_on_c, 3, 62, 36
4, 149572, Note_off_c, 3, 62, 64
4, 149574, Note_on_c, 3, 60, 42
4, 149760, Note_off_c, 3, 60, 64
4, 149760, Note_on_c, 3, 56, 30
4, 149952, Note_off_c, 3, 56, 64
4, 149952, Note_on_c, 3, 54, 31
4, 150326, Note_off_c, 3, 54, 64
4, 150334, Note_on_c, 3, 62, 23
4, 150334, Note_on_c, 3, 72, 32
4, 150334, Note_on_c, 3, 54, 26
4, 150334, Note_on_c, 3, 60, 28
4, 150523, Note_off_c, 3, 60, 64
4, 150523, Note_off_c, 3, 72, 64
4, 150523, Note_off_c, 3, 62, 64
4, 150526, Note_off_c, 3, 54, 64
4, 150526, Note_on_c, 3, 62, 30
4, 150526, Note_on_c, 3, 60, 34
4, 150526, Note_on_c, 3, 72, 34
4, 150906, Note_off_c, 3, 72, 64
4, 150906, Note_off_c, 3, 60, 64
4, 150906, Note_off_c, 3, 62, 64
4, 150910, Note_on_c, 3, 66, 29
4, 150910, Note_on_c, 3, 72, 20
4, 150910, Note_on_c, 3, 63, 29
4, 150910, Note_on_c, 3, 61, 26
4, 151672, Note_off_c, 3, 61, 64
4, 151672, Note_off_c, 3, 63, 64
4, 151672, Note_off_c, 3, 72, 64
4, 151672, Note_off_c, 3, 66, 64
4, 151680, Note_on_c, 3, 54, 18
4, 151774, Note_off_c, 3, 54, 64
4, 151774, Note_on_c, 3, 56, 12
4, 151872, Note_off_c, 3, 56, 64
4, 151872, Note_on_c, 3, 61, 11
4, 151966, Note_off_c, 3, 61, 64
4, 151966, Note_on_c, 3, 56, 10
4, 152063, Note_off_c, 3, 56, 64
4, 152063, Note_on_c, 3, 72, 14
4, 152063, Note_on_c, 3, 66, 14
4, 152063, Note_on_c, 3, 61, 5
4, 152063, Note_on_c, 3, 63, 22
4, 152343, Note_off_c, 3, 63, 64
4, 152343, Note_off_c, 3, 61, 64
4, 152343, Note_off_c, 3, 66, 64
4, 152343, Note_off_c, 3, 72, 64
4, 152352, Note_on_c, 3, 61, 3
4, 152352, Note_on_c, 3, 66, 10
4, 152352, Note_on_c, 3, 72, 10
4, 152352, Note_on_c, 3, 63, 18
4, 152632, Note_off_c, 3, 66, 64
4, 152634, Note_off_c, 3, 63, 64
4, 152634, Note_off_c, 3, 72, 64
4, 152634, Note_off_c, 3, 61, 64
4, 152640, Note_on_c, 3, 66, 10
4, 152640, Note_on_c, 3, 60, 5
4, 152640, Note_on_c, 3, 62, 10
4, 152640, Note_on_c, 3, 72, 10
4, 153210, Note_off_c, 3, 72, 64
4, 153210, Note_off_c, 3, 62, 64
4, 153210, Note_off_c, 3, 60, 64
4, 153210, Note_off_c, 3, 66, 64
4, 153212, Note_on_c, 3, 54, 1
4, 153310, Note_off_c, 3, 54, 64
4, 153310, Note_on_c, 3, 56, 1
4, 153406, Note_off_c, 3, 56, 64
4, 153406, Note_on_c, 3, 60, 1
4, 153503, Note_off_c, 3, 60, 64
4, 153503, Note_on_c, 3, 56, 1
4, 153600, Note_off_c, 3, 56, 64
4, 153600, Note_on_c, 3, 60, 1
4, 153600, Note_on_c, 3, 62, 1
4, 153600, Note_on_c, 3, 66, 1
4, 153600, Note_on_c, 3, 72, 1
4, 153974, Note_off_c, 3, 72, 64
4, 153974, Note_off_c, 3, 62, 64
4, 153974, Note_off_c, 3, 60, 64
4, 153980, Note_off_c, 3, 66, 64
4, 153983, Note_on_c, 3, 60, 1
4, 153983, Note_on_c, 3, 72, 1
4, 153983, Note_on_c, 3, 62, 1
4, 154174, Note_off_c, 3, 62, 64
4, 154174, Note_off_c, 3, 72, 64
4, 154174, Note_off_c, 3, 60, 64
4, 154174, Note_on_c, 3, 63, 1
4, 154174, Note_on_c, 3, 72, 1
4, 154174, Note_on_c, 3, 61, 1
4, 154366, Note_off_c, 3, 61, 64
4, 154366, Note_off_c, 3, 72, 64
4, 154366, Note_off_c, 3, 63, 64
4, 154366, Note_on_c, 3, 60, 1
4, 154366, Note_on_c, 3, 72, 1
4, 154366, Note_on_c, 3, 62, 1
4, 154463, Note_off_c, 3, 62, 64
4, 154463, Note_off_c, 3, 72, 64
4, 154463, Note_off_c, 3, 60, 64
4, 154463, Note_on_c, 3, 56, 1
4, 154463, Note_on_c, 3, 61, 1
4, 154463, Note_on_c, 3, 70, 1
4, 154746, Note_off_c, 3, 70, 64
4, 154746, Note_off_c, 3, 61, 64
4, 154746, Note_off_c, 3, 56, 64
4, 154752, Note_on_c, 3, 54, 1
4, 154846, Note_off_c, 3, 54, 64
4, 154846, Note_on_c, 3, 56, 1
4, 154943, Note_off_c, 3, 56, 64
4, 154943, Note_on_c, 3, 60, 1
4, 155040, Note_off_c, 3, 60, 64
4, 155040, Note_on_c, 3, 56, 1
4, 155163, Note_off_c, 3, 56, 64
4, 155163, Note_on_c, 3, 61, 1
4, 155543, Note_off_c, 3, 61, 64
4, 155546, Note_on_c, 3, 62, 1
4, 155726, Note_off_c, 3, 62, 64
4, 155726, Note_on_c, 3, 60, 1
4, 156052, Note_off_c, 3, 60, 64
4, 156054, Note_on_c, 3, 56, 1
4, 156160, Note_off_c, 3, 56, 64
4, 156160, Note_on_c, 3, 54, 1
4, 156483, Note_off_c, 3, 54, 64
4, 156492, Note_on_c, 3, 54, 1
4, 156554, Note_off_c, 3, 54, 1
4, 158206, End_track
5, 0, Start_track
5, 0, Title_t, "SYNTH DRUM"
5, 2026, Program_c, 3, 118
5, 2032, Control_c, 3, 5, 95
5, 2032, Control_c, 3, 8, 10
5, 2032, Control_c, 3, 9, 127
5, 2034, Control_c, 3, 91, 55
5, 2034, Control_c, 3, 92, 40
5, 3552, Note_on_c, 3, 72, 108
5, 3554, Control_c, 3, 1, 0
5, 3554, Pitch_bend_c, 3, 8192
5, 3600, Note_off_c, 3, 72, 64
5, 3934, Note_on_c, 3, 67, 119
5, 3983, Note_off_c, 3, 67, 64
5, 4032, Note_on_c, 3, 67, 114
5, 4080, Note_off_c, 3, 67, 64
5, 4320, Note_on_c, 3, 62, 119
5, 4352, Note_off_c, 3, 62, 64
5, 4412, Note_on_c, 3, 62, 124
5, 4460, Note_off_c, 3, 62, 64
5, 4510, Note_on_c, 3, 57, 127
5, 4563, Note_off_c, 3, 57, 64
5, 4606, Note_on_c, 3, 57, 124
5, 4646, Note_off_c, 3, 57, 64
5, 16412, Note_on_c, 3, 57, 124
5, 16466, Note_off_c, 3, 57, 64
5, 28412, Note_on_c, 3, 65, 124
5, 28474, Note_off_c, 3, 65, 64
5, 28510, Note_on_c, 3, 65, 124
5, 28574, Note_off_c, 3, 65, 64
5, 28703, Note_on_c, 3, 57, 127
5, 28786, Note_off_c, 3, 57, 64
5, 34366, Note_on_c, 3, 63, 127
5, 34423, Note_off_c, 3, 63, 64
5, 34654, Note_on_c, 3, 63, 105
5, 34703, Note_off_c, 3, 63, 64
5, 34752, Note_on_c, 3, 63, 127
5, 34812, Note_off_c, 3, 63, 64
5, 35040, Note_on_c, 3, 62, 119
5, 35086, Note_off_c, 3, 62, 64
5, 35134, Note_on_c, 3, 62, 119
5, 35186, Note_off_c, 3, 62, 64
5, 35232, Note_on_c, 3, 57, 127
5, 35286, Note_off_c, 3, 57, 64
5, 46846, Note_on_c, 3, 63, 124
5, 46892, Note_off_c, 3, 63, 64
5, 46943, Note_on_c, 3, 63, 127
5, 47003, Note_off_c, 3, 63, 64
5, 59134, Note_on_c, 3, 67, 127
5, 59194, Note_off_c, 3, 67, 64
5, 59232, Note_on_c, 3, 67, 127
5, 59300, Note_off_c, 3, 67, 64
5, 59423, Note_on_c, 3, 63, 114
5, 59454, Note_off_c, 3, 63, 64
5, 59520, Note_on_c, 3, 63, 124
5, 59580, Note_off_c, 3, 63, 64
5, 59612, Note_on_c, 3, 62, 119
5, 59680, Note_off_c, 3, 62, 64
5, 65280, Note_on_c, 3, 72, 119
5, 65363, Note_off_c, 3, 72, 64
5, 65663, Note_on_c, 3, 63, 119
5, 65772, Note_off_c, 3, 63, 64
5, 71423, Note_on_c, 3, 71, 124
5, 71506, Note_off_c, 3, 71, 64
5, 71710, Note_on_c, 3, 63, 119
5, 71832, Note_off_c, 3, 63, 64
5, 77374, Note_on_c, 3, 63, 114
5, 77420, Note_off_c, 3, 63, 64
5, 77472, Note_on_c, 3, 63, 124
5, 77532, Note_off_c, 3, 63, 64
5, 77952, Note_on_c, 3, 63, 124
5, 77994, Note_off_c, 3, 63, 64
5, 78046, Note_on_c, 3, 63, 119
5, 78110, Note_off_c, 3, 63, 64
5, 78334, Note_on_c, 3, 57, 127
5, 78394, Note_off_c, 3, 57, 64
5, 84000, Note_on_c, 3, 62, 124
5, 84046, Note_off_c, 3, 62, 64
5, 89663, Note_on_c, 3, 67, 108
5, 89703, Note_off_c, 3, 67, 64
5, 89760, Note_on_c, 3, 67, 119
5, 89826, Note_off_c, 3, 67, 64
5, 90143, Note_on_c, 3, 63, 127
5, 90210, Note_off_c, 3, 63, 64
5, 90432, Note_on_c, 3, 62, 127
5, 90506, Note_off_c, 3, 62, 64
5, 101472, Note_on_c, 3, 67, 124
5, 101552, Note_off_c, 3, 67, 64
5, 101760, Note_on_c, 3, 63, 124
5, 101834, Note_off_c, 3, 63, 64
5, 102240, Note_on_c, 3, 60, 119
5, 102300, Note_off_c, 3, 60, 64
5, 102623, Note_on_c, 3, 53, 124
5, 102710, Note_off_c, 3, 53, 64
5, 114720, Note_on_c, 3, 65, 108
5, 114766, Note_off_c, 3, 65, 64
5, 120383, Note_on_c, 3, 72, 124
5, 120434, Note_off_c, 3, 72, 64
5, 120863, Note_on_c, 3, 63, 119
5, 120906, Note_off_c, 3, 63, 64
5, 120960, Note_on_c, 3, 63, 114
5, 121006, Note_off_c, 3, 63, 64
5, 126720, Note_on_c, 3, 67, 127
5, 126800, Note_off_c, 3, 67, 64
5, 127006, Note_on_c, 3, 57, 127
5, 127066, Note_off_c, 3, 57, 64
5, 132286, Note_on_c, 3, 62, 124
5, 132346, Note_off_c, 3, 62, 64
5, 132672, Note_on_c, 3, 63, 124
5, 132732, Note_off_c, 3, 63, 64
5, 133152, Note_on_c, 3, 57, 108
5, 133200, Note_off_c, 3, 57, 64
5, 133246, Note_on_c, 3, 57, 127
5, 133306, Note_off_c, 3, 57, 64
5, 139294, Note_on_c, 3, 57, 127
5, 139343, Note_off_c, 3, 57, 64
5, 144960, Note_on_c, 3, 67, 119
5, 145032, Note_off_c, 3, 67, 64
5, 145343, Note_on_c, 3, 57, 108
5, 145386, Note_off_c, 3, 57, 64
5, 145440, Note_on_c, 3, 57, 124
5, 145500, Note_off_c, 3, 57, 64
5, 151583, Note_on_c, 3, 57, 68
5, 151640, Note_off_c, 3, 57, 64
5, 158206, End_track
6, 0, Start_track
6, 0, Title_t, "SYNTH DRUM"
6, 2046, Program_c, 4, 118
6, 2052, Control_c, 4, 5, 95
6, 2052, Control_c, 4, 8, 118
6, 2052, Control_c, 4, 9, 127
6, 2054, Control_c, 4, 91, 60
6, 2054, Control_c, 4, 92, 40
6, 3646, Note_on_c, 4, 72, 124
6, 3652, Control_c, 4, 1, 0
6, 3652, Pitch_bend_c, 4, 8192
6, 3700, Note_off_c, 4, 72, 64
6, 4126, Note_on_c, 4, 63, 119
6, 4172, Note_off_c, 4, 63, 64
6, 4223, Note_on_c, 4, 63, 114
6, 4272, Note_off_c, 4, 63, 64
6, 16126, Note_on_c, 4, 65, 124
6, 16180, Note_off_c, 4, 65, 64
6, 16223, Note_on_c, 4, 65, 124
6, 16283, Note_off_c, 4, 65, 64
6, 34463, Note_on_c, 4, 72, 114
6, 34510, Note_off_c, 4, 72, 64
6, 34560, Note_on_c, 4, 72, 119
6, 34623, Note_off_c, 4, 72, 64
6, 34846, Note_on_c, 4, 63, 108
6, 34892, Note_off_c, 4, 63, 64
6, 34943, Note_on_c, 4, 63, 119
6, 35000, Note_off_c, 4, 63, 64
6, 47134, Note_on_c, 4, 57, 127
6, 47183, Note_off_c, 4, 57, 64
6, 59326, Note_on_c, 4, 65, 127
6, 59366, Note_off_c, 4, 65, 64
6, 65472, Note_on_c, 4, 65, 119
6, 65546, Note_off_c, 4, 65, 64
6, 65760, Note_on_c, 4, 57, 119
6, 65834, Note_off_c, 4, 57, 64
6, 71520, Note_on_c, 4, 65, 124
6, 71572, Note_off_c, 4, 65, 64
6, 77663, Note_on_c, 4, 67, 119
6, 77706, Note_off_c, 4, 67, 64
6, 78143, Note_on_c, 4, 62, 119
6, 78192, Note_off_c, 4, 62, 64
6, 83710, Note_on_c, 4, 65, 124
6, 83760, Note_off_c, 4, 65, 64
6, 83806, Note_on_c, 4, 65, 119
6, 83852, Note_off_c, 4, 65, 64
6, 89952, Note_on_c, 4, 63, 119
6, 89992, Note_off_c, 4, 63, 64
6, 101183, Note_on_c, 4, 71, 119
6, 101274, Note_off_c, 4, 71, 64
6, 102046, Note_on_c, 4, 62, 119
6, 102106, Note_off_c, 4, 62, 64
6, 102432, Note_on_c, 4, 57, 124
6, 102492, Note_off_c, 4, 57, 64
6, 102526, Note_on_c, 4, 57, 124
6, 102586, Note_off_c, 4, 57, 64
6, 114526, Note_on_c, 4, 71, 124
6, 114586, Note_off_c, 4, 71, 64
6, 114910, Note_on_c, 4, 62, 115
6, 114952, Note_off_c, 4, 62, 64
6, 115006, Note_on_c, 4, 62, 127
6, 115063, Note_off_c, 4, 62, 64
6, 120286, Note_on_c, 4, 72, 108
6, 120334, Note_off_c, 4, 72, 64
6, 120672, Note_on_c, 4, 67, 119
6, 120720, Note_off_c, 4, 67, 64
6, 120766, Note_on_c, 4, 67, 114
6, 120812, Note_off_c, 4, 67, 64
6, 121054, Note_on_c, 4, 62, 119
6, 121086, Note_off_c, 4, 62, 64
6, 121152, Note_on_c, 4, 62, 124
6, 121194, Note_off_c, 4, 62, 64
6, 121246, Note_on_c, 4, 57, 127
6, 121300, Note_off_c, 4, 57, 64
6, 126812, Note_on_c, 4, 67, 127
6, 126863, Note_off_c, 4, 67, 64
6, 139006, Note_on_c, 4, 63, 124
6, 139054, Note_off_c, 4, 63, 64
6, 139103, Note_on_c, 4, 63, 119
6, 139152, Note_off_c, 4, 63, 64
6, 151294, Note_on_c, 4, 67, 68
6, 151346, Note_off_c, 4, 67, 64
6, 151392, Note_on_c, 4, 67, 63
6, 151454, Note_off_c, 4, 67, 64
6, 158206, End_track
7, 0, Start_track
7, 0, Title_t, "SAW WAVE"
7, 2066, Program_c, 5, 81
7, 2072, Control_c, 5, 5, 70
7, 2072, Control_c, 5, 8, 64
7, 2072, Control_c, 5, 9, 127
7, 2074, Control_c, 5, 91, 60
7, 2074, Control_c, 5, 92, 60
7, 21503, Note_on_c, 5, 56, 96
7, 21503, Note_on_c, 5, 63, 101
7, 21503, Note_on_c, 5, 61, 87
7, 21503, Note_on_c, 5, 53, 96
7, 21506, Control_c, 5, 1, 0
7, 21506, Pitch_bend_c, 5, 8192
7, 21932, Note_off_c, 5, 61, 64
7, 21932, Note_off_c, 5, 63, 64
7, 21963, Note_off_c, 5, 53, 64
7, 21972, Note_off_c, 5, 56, 64
7, 22094, Note_on_c, 5, 52, 101
7, 22100, Note_on_c, 5, 54, 101
7, 22100, Note_on_c, 5, 62, 101
7, 22100, Note_on_c, 5, 60, 106
7, 22932, Note_off_c, 5, 60, 64
7, 22932, Note_off_c, 5, 54, 64
7, 22934, Note_off_c, 5, 62, 64
7, 22943, Note_off_c, 5, 52, 64
7, 27666, Note_on_c, 5, 63, 106
7, 27666, Note_on_c, 5, 61, 83
7, 27672, Note_on_c, 5, 53, 96
7, 27672, Note_on_c, 5, 56, 96
7, 28066, Note_off_c, 5, 61, 64
7, 28066, Note_off_c, 5, 63, 64
7, 28083, Note_off_c, 5, 56, 64
7, 28092, Note_off_c, 5, 53, 64
7, 28200, Note_on_c, 5, 62, 87
7, 28200, Note_on_c, 5, 54, 101
7, 28200, Note_on_c, 5, 60, 90
7, 28200, Note_on_c, 5, 52, 101
7, 28992, Note_off_c, 5, 52, 64
7, 28992, Note_off_c, 5, 60, 64
7, 28992, Note_off_c, 5, 54, 64
7, 28992, Note_off_c, 5, 62, 64
7, 29183, Note_on_c, 5, 70, 96
7, 29183, Note_on_c, 5, 64, 96
7, 29183, Note_on_c, 5, 61, 96
7, 30632, Note_off_c, 5, 61, 64
7, 30640, Note_off_c, 5, 64, 64
7, 30646, Note_off_c, 5, 70, 64
7, 30726, Note_on_c, 5, 66, 96
7, 30726, Note_on_c, 5, 60, 96
7, 30726, Note_on_c, 5, 62, 96
7, 32086, Note_off_c, 5, 60, 64
7, 32132, Note_off_c, 5, 62, 64
7, 32140, Note_off_c, 5, 66, 64
7, 32252, Note_on_c, 5, 61, 96
7, 32252, Note_on_c, 5, 70, 96
7, 32260, Note_on_c, 5, 64, 101
7, 32606, Control_c, 5, 1, 4
7, 32620, Control_c, 5, 1, 5
7, 32632, Control_c, 5, 1, 6
7, 32646, Control_c, 5, 1, 8
7, 32663, Control_c, 5, 1, 11
7, 32674, Control_c, 5, 1, 13
7, 32692, Control_c, 5, 1, 16
7, 32703, Control_c, 5, 1, 19
7, 32720, Control_c, 5, 1, 21
7, 32732, Control_c, 5, 1, 24
7, 32746, Control_c, 5, 1, 27
7, 32760, Control_c, 5, 1, 30
7, 32774, Control_c, 5, 1, 33
7, 32786, Control_c, 5, 1, 35
7, 32803, Control_c, 5, 1, 38
7, 32812, Control_c, 5, 1, 42
7, 32826, Control_c, 5, 1, 44
7, 32843, Control_c, 5, 1, 47
7, 32854, Control_c, 5, 1, 49
7, 32872, Control_c, 5, 1, 52
7, 32883, Control_c, 5, 1, 55
7, 32900, Control_c, 5, 1, 57
7, 32910, Control_c, 5, 1, 60
7, 32926, Control_c, 5, 1, 62
7, 32940, Control_c, 5, 1, 65
7, 32954, Control_c, 5, 1, 67
7, 32972, Control_c, 5, 1, 70
7, 32980, Control_c, 5, 1, 73
7, 32994, Control_c, 5, 1, 75
7, 33010, Control_c, 5, 1, 77
7, 33023, Control_c, 5, 1, 80
7, 33040, Control_c, 5, 1, 82
7, 33052, Control_c, 5, 1, 84
7, 33066, Control_c, 5, 1, 86
7, 33080, Control_c, 5, 1, 89
7, 33094, Control_c, 5, 1, 90
7, 33106, Control_c, 5, 1, 92
7, 33123, Control_c, 5, 1, 94
7, 33134, Control_c, 5, 1, 96
7, 33152, Control_c, 5, 1, 97
7, 33163, Control_c, 5, 1, 99
7, 33180, Control_c, 5, 1, 101
7, 33192, Control_c, 5, 1, 103
7, 33206, Control_c, 5, 1, 105
7, 33220, Control_c, 5, 1, 107
7, 33234, Control_c, 5, 1, 110
7, 33246, Control_c, 5, 1, 112
7, 33260, Control_c, 5, 1, 114
7, 33274, Control_c, 5, 1, 116
7, 33286, Control_c, 5, 1, 119
7, 33303, Control_c, 5, 1, 121
7, 33312, Control_c, 5, 1, 125
7, 33332, Control_c, 5, 1, 127
7, 33540, Control_c, 5, 1, 120
7, 33552, Control_c, 5, 1, 114
7, 33566, Control_c, 5, 1, 107
7, 33580, Control_c, 5, 1, 99
7, 33592, Control_c, 5, 1, 89
7, 33606, Control_c, 5, 1, 75
7, 33623, Note_off_c, 5, 61, 64
7, 33623, Control_c, 5, 1, 58
7, 33626, Note_off_c, 5, 70, 64
7, 33634, Note_off_c, 5, 64, 64
7, 33634, Control_c, 5, 1, 40
7, 33652, Control_c, 5, 1, 25
7, 33663, Control_c, 5, 1, 8
7, 33680, Control_c, 5, 1, 3
7, 33786, Note_on_c, 5, 70, 106
7, 33786, Note_on_c, 5, 61, 106
7, 33786, Note_on_c, 5, 64, 106
7, 33854, Note_off_c, 5, 61, 64
7, 33866, Note_off_c, 5, 64, 64
7, 33880, Note_off_c, 5, 70, 64
7, 34072, Note_on_c, 5, 61, 106
7, 34072, Note_on_c, 5, 70, 106
7, 34072, Note_on_c, 5, 64, 116
7, 34166, Note_off_c, 5, 61, 64
7, 34172, Note_off_c, 5, 64, 64
7, 34192, Note_off_c, 5, 70, 64
7, 34372, Note_on_c, 5, 72, 112
7, 34372, Note_on_c, 5, 62, 101
7, 34380, Note_on_c, 5, 66, 101
7, 34512, Note_off_c, 5, 62, 64
7, 34512, Note_off_c, 5, 72, 64
7, 34523, Note_off_c, 5, 66, 64
7, 52232, Note_on_c, 5, 63, 101
7, 52234, Note_on_c, 5, 53, 83
7, 52234, Note_on_c, 5, 56, 83
7, 52234, Note_on_c, 5, 61, 83
7, 52692, Note_off_c, 5, 61, 64
7, 52694, Note_off_c, 5, 63, 64
7, 52712, Note_off_c, 5, 53, 64
7, 52720, Note_off_c, 5, 56, 64
7, 52832, Note_on_c, 5, 60, 90
7, 52834, Note_on_c, 5, 52, 96
7, 52834, Note_on_c, 5, 62, 96
7, 52834, Note_on_c, 5, 54, 101
7, 53620, Note_off_c, 5, 54, 64
7, 53620, Note_off_c, 5, 62, 64
7, 53620, Note_off_c, 5, 52, 64
7, 53620, Note_off_c, 5, 60, 64
7, 58386, Note_on_c, 5, 63, 96
7, 58386, Note_on_c, 5, 56, 96
7, 58386, Note_on_c, 5, 61, 87
7, 58386, Note_on_c, 5, 53, 87
7, 58763, Note_off_c, 5, 61, 64
7, 58763, Note_off_c, 5, 63, 64
7, 58783, Note_off_c, 5, 56, 64
7, 58792, Note_off_c, 5, 53, 64
7, 58932, Note_on_c, 5, 54, 96
7, 58932, Note_on_c, 5, 62, 96
7, 58934, Note_on_c, 5, 52, 96
7, 58934, Note_on_c, 5, 60, 96
7, 59660, Note_off_c, 5, 52, 64
7, 59686, Note_off_c, 5, 54, 64
7, 59700, Note_off_c, 5, 60, 64
7, 59710, Note_off_c, 5, 62, 64
7, 59900, Note_on_c, 5, 70, 101
7, 59900, Note_on_c, 5, 61, 101
7, 59903, Note_on_c, 5, 64, 96
7, 61306, Note_off_c, 5, 61, 64
7, 61334, Note_off_c, 5, 64, 64
7, 61340, Note_off_c, 5, 70, 64
7, 61420, Note_on_c, 5, 66, 101
7, 61423, Note_on_c, 5, 60, 101
7, 61423, Note_on_c, 5, 62, 96
7, 62806, Note_off_c, 5, 60, 64
7, 62843, Note_off_c, 5, 62, 64
7, 62843, Note_off_c, 5, 66, 64
7, 62963, Note_on_c, 5, 70, 101
7, 62966, Note_on_c, 5, 64, 101
7, 62972, Note_on_c, 5, 61, 87
7, 63240, Control_c, 5, 1, 4
7, 63252, Control_c, 5, 1, 5
7, 63263, Control_c, 5, 1, 7
7, 63280, Control_c, 5, 1, 9
7, 63292, Control_c, 5, 1, 13
7, 63306, Control_c, 5, 1, 16
7, 63320, Control_c, 5, 1, 20
7, 63334, Control_c, 5, 1, 24
7, 63346, Control_c, 5, 1, 27
7, 63363, Control_c, 5, 1, 30
7, 63374, Control_c, 5, 1, 33
7, 63392, Control_c, 5, 1, 36
7, 63406, Control_c, 5, 1, 38
7, 63412, Control_c, 5, 1, 40
7, 63432, Control_c, 5, 1, 42
7, 63446, Control_c, 5, 1, 45
7, 63460, Control_c, 5, 1, 47
7, 63474, Control_c, 5, 1, 50
7, 63486, Control_c, 5, 1, 53
7, 63503, Control_c, 5, 1, 55
7, 63512, Control_c, 5, 1, 58
7, 63532, Control_c, 5, 1, 60
7, 63543, Control_c, 5, 1, 63
7, 63560, Control_c, 5, 1, 65
7, 63572, Control_c, 5, 1, 67
7, 63586, Control_c, 5, 1, 68
7, 63600, Control_c, 5, 1, 70
7, 63612, Control_c, 5, 1, 72
7, 63626, Control_c, 5, 1, 74
7, 63643, Control_c, 5, 1, 75
7, 63654, Control_c, 5, 1, 76
7, 63672, Control_c, 5, 1, 78
7, 63683, Control_c, 5, 1, 79
7, 63694, Control_c, 5, 1, 80
7, 63710, Control_c, 5, 1, 82
7, 63723, Control_c, 5, 1, 84
7, 63740, Control_c, 5, 1, 85
7, 63752, Control_c, 5, 1, 87
7, 63766, Control_c, 5, 1, 89
7, 63780, Control_c, 5, 1, 90
7, 63794, Control_c, 5, 1, 92
7, 63806, Control_c, 5, 1, 95
7, 63823, Control_c, 5, 1, 97
7, 63834, Control_c, 5, 1, 100
7, 63846, Control_c, 5, 1, 103
7, 63863, Control_c, 5, 1, 106
7, 63874, Control_c, 5, 1, 108
7, 63892, Control_c, 5, 1, 111
7, 63906, Control_c, 5, 1, 115
7, 63920, Control_c, 5, 1, 118
7, 63934, Control_c, 5, 1, 120
7, 63946, Control_c, 5, 1, 125
7, 63963, Control_c, 5, 1, 127
7, 64210, Control_c, 5, 1, 124
7, 64223, Control_c, 5, 1, 118
7, 64240, Control_c, 5, 1, 112
7, 64252, Control_c, 5, 1, 106
7, 64266, Control_c, 5, 1, 99
7, 64280, Control_c, 5, 1, 91
7, 64294, Note_off_c, 5, 61, 64
7, 64294, Control_c, 5, 1, 83
7, 64306, Control_c, 5, 1, 73
7, 64310, Note_off_c, 5, 64, 64
7, 64323, Control_c, 5, 1, 60
7, 64332, Note_off_c, 5, 70, 64
7, 64334, Control_c, 5, 1, 46
7, 64352, Control_c, 5, 1, 31
7, 64366, Control_c, 5, 1, 16
7, 64383, Control_c, 5, 1, 4
7, 64392, Control_c, 5, 1, 3
7, 64506, Note_on_c, 5, 70, 106
7, 64510, Note_on_c, 5, 61, 101
7, 64510, Note_on_c, 5, 64, 101
7, 64632, Note_off_c, 5, 70, 64
7, 64634, Note_off_c, 5, 64, 64
7, 64634, Note_off_c, 5, 61, 64
7, 64800, Note_on_c, 5, 70, 101
7, 64803, Note_on_c, 5, 61, 96
7, 64803, Note_on_c, 5, 64, 106
7, 64903, Note_off_c, 5, 61, 64
7, 64926, Note_off_c, 5, 70, 64
7, 64934, Note_off_c, 5, 64, 64
7, 65086, Note_on_c, 5, 72, 101
7, 65086, Note_on_c, 5, 62, 96
7, 65086, Note_on_c, 5, 66, 106
7, 65254, Note_off_c, 5, 62, 64
7, 65274, Note_off_c, 5, 66, 64
7, 65274, Note_off_c, 5, 72, 64
7, 107540, Note_on_c, 5, 63, 106
7, 107543, Note_on_c, 5, 53, 87
7, 107543, Note_on_c, 5, 56, 96
7, 107543, Note_on_c, 5, 61, 87
7, 107923, Note_off_c, 5, 63, 64
7, 107926, Note_off_c, 5, 61, 64
7, 107932, Note_off_c, 5, 56, 64
7, 107943, Note_off_c, 5, 53, 64
7, 108100, Note_on_c, 5, 62, 87
7, 108103, Note_on_c, 5, 52, 90
7, 108103, Note_on_c, 5, 54, 87
7, 108103, Note_on_c, 5, 60, 101
7, 108834, Note_off_c, 5, 54, 64
7, 108834, Note_off_c, 5, 52, 64
7, 108840, Note_off_c, 5, 60, 64
7, 108840, Note_off_c, 5, 62, 64
7, 113672, Note_on_c, 5, 61, 87
7, 113672, Note_on_c, 5, 63, 101
7, 113672, Note_on_c, 5, 53, 87
7, 113674, Note_on_c, 5, 56, 101
7, 114060, Note_off_c, 5, 63, 64
7, 114060, Note_off_c, 5, 61, 64
7, 114066, Note_off_c, 5, 56, 64
7, 114072, Note_off_c, 5, 53, 64
7, 114240, Note_on_c, 5, 62, 96
7, 114246, Note_on_c, 5, 54, 96
7, 114246, Note_on_c, 5, 52, 90
7, 114252, Note_on_c, 5, 60, 101
7, 115003, Note_off_c, 5, 52, 64
7, 115006, Note_off_c, 5, 60, 64
7, 115006, Note_off_c, 5, 54, 64
7, 115006, Note_off_c, 5, 62, 64
7, 115200, Note_on_c, 5, 70, 96
7, 115200, Note_on_c, 5, 61, 74
7, 115200, Note_on_c, 5, 64, 74
7, 115946, Control_c, 5, 1, 4
7, 115974, Control_c, 5, 1, 5
7, 115983, Control_c, 5, 1, 6
7, 116003, Control_c, 5, 1, 7
7, 116012, Control_c, 5, 1, 9
7, 116026, Control_c, 5, 1, 10
7, 116043, Control_c, 5, 1, 11
7, 116054, Control_c, 5, 1, 13
7, 116072, Control_c, 5, 1, 14
7, 116083, Control_c, 5, 1, 16
7, 116100, Control_c, 5, 1, 19
7, 116110, Control_c, 5, 1, 21
7, 116126, Control_c, 5, 1, 24
7, 116140, Control_c, 5, 1, 26
7, 116154, Control_c, 5, 1, 28
7, 116166, Control_c, 5, 1, 31
7, 116183, Control_c, 5, 1, 33
7, 116194, Control_c, 5, 1, 36
7, 116210, Control_c, 5, 1, 39
7, 116223, Control_c, 5, 1, 42
7, 116234, Control_c, 5, 1, 45
7, 116252, Control_c, 5, 1, 48
7, 116266, Control_c, 5, 1, 50
7, 116280, Control_c, 5, 1, 53
7, 116292, Control_c, 5, 1, 56
7, 116306, Control_c, 5, 1, 59
7, 116320, Control_c, 5, 1, 62
7, 116334, Control_c, 5, 1, 65
7, 116352, Control_c, 5, 1, 68
7, 116363, Control_c, 5, 1, 71
7, 116380, Control_c, 5, 1, 74
7, 116392, Control_c, 5, 1, 76
7, 116406, Control_c, 5, 1, 79
7, 116420, Control_c, 5, 1, 82
7, 116432, Control_c, 5, 1, 85
7, 116446, Control_c, 5, 1, 89
7, 116460, Control_c, 5, 1, 93
7, 116474, Control_c, 5, 1, 98
7, 116486, Control_c, 5, 1, 102
7, 116503, Control_c, 5, 1, 107
7, 116512, Control_c, 5, 1, 112
7, 116532, Control_c, 5, 1, 114
7, 116543, Control_c, 5, 1, 115
7, 116560, Control_c, 5, 1, 113
7, 116572, Control_c, 5, 1, 106
7, 116574, Note_off_c, 5, 64, 64
7, 116580, Note_off_c, 5, 61, 64
7, 116583, Note_off_c, 5, 70, 64
7, 116586, Control_c, 5, 1, 93
7, 116603, Control_c, 5, 1, 76
7, 116612, Control_c, 5, 1, 56
7, 116632, Control_c, 5, 1, 36
7, 116643, Control_c, 5, 1, 17
7, 116660, Control_c, 5, 1, 4
7, 116672, Control_c, 5, 1, 3
7, 116723, Note_on_c, 5, 66, 96
7, 116726, Note_on_c, 5, 60, 96
7, 116726, Note_on_c, 5, 62, 96
7, 117226, Control_c, 5, 1, 5
7, 117240, Control_c, 5, 1, 6
7, 117254, Control_c, 5, 1, 7
7, 117266, Control_c, 5, 1, 9
7, 117283, Control_c, 5, 1, 12
7, 117294, Control_c, 5, 1, 14
7, 117310, Control_c, 5, 1, 16
7, 117323, Control_c, 5, 1, 17
7, 117340, Control_c, 5, 1, 19
7, 117352, Control_c, 5, 1, 20
7, 117363, Control_c, 5, 1, 22
7, 117380, Control_c, 5, 1, 23
7, 117394, Control_c, 5, 1, 24
7, 117410, Control_c, 5, 1, 26
7, 117420, Control_c, 5, 1, 28
7, 117434, Control_c, 5, 1, 29
7, 117446, Control_c, 5, 1, 31
7, 117463, Control_c, 5, 1, 32
7, 117474, Control_c, 5, 1, 34
7, 117492, Control_c, 5, 1, 35
7, 117503, Control_c, 5, 1, 36
7, 117520, Control_c, 5, 1, 38
7, 117534, Control_c, 5, 1, 39
7, 117546, Control_c, 5, 1, 41
7, 117560, Control_c, 5, 1, 42
7, 117586, Control_c, 5, 1, 43
7, 117603, Control_c, 5, 1, 44
7, 117612, Control_c, 5, 1, 45
7, 117632, Control_c, 5, 1, 46
7, 117643, Control_c, 5, 1, 47
7, 117660, Control_c, 5, 1, 49
7, 117672, Control_c, 5, 1, 50
7, 117686, Control_c, 5, 1, 52
7, 117700, Control_c, 5, 1, 54
7, 117712, Control_c, 5, 1, 57
7, 117726, Control_c, 5, 1, 59
7, 117743, Control_c, 5, 1, 61
7, 117754, Control_c, 5, 1, 64
7, 117772, Control_c, 5, 1, 66
7, 117783, Control_c, 5, 1, 68
7, 117800, Control_c, 5, 1, 71
7, 117810, Control_c, 5, 1, 74
7, 117823, Control_c, 5, 1, 77
7, 117840, Control_c, 5, 1, 80
7, 117852, Control_c, 5, 1, 82
7, 117866, Control_c, 5, 1, 85
7, 117880, Control_c, 5, 1, 87
7, 117894, Control_c, 5, 1, 90
7, 117906, Control_c, 5, 1, 93
7, 117923, Control_c, 5, 1, 96
7, 117940, Control_c, 5, 1, 98
7, 117952, Control_c, 5, 1, 99
7, 117963, Control_c, 5, 1, 98
7, 117980, Control_c, 5, 1, 95
7, 117992, Control_c, 5, 1, 90
7, 118006, Control_c, 5, 1, 83
7, 118020, Control_c, 5, 1, 76
7, 118034, Control_c, 5, 1, 68
7, 118046, Control_c, 5, 1, 60
7, 118063, Control_c, 5, 1, 52
7, 118074, Control_c, 5, 1, 43
7, 118092, Control_c, 5, 1, 33
7, 118094, Note_off_c, 5, 60, 64
7, 118103, Control_c, 5, 1, 20
7, 118112, Control_c, 5, 1, 7
7, 118123, Note_off_c, 5, 66, 64
7, 118126, Note_off_c, 5, 62, 64
7, 118134, Control_c, 5, 1, 3
7, 118274, Note_on_c, 5, 70, 106
7, 118274, Note_on_c, 5, 64, 106
7, 118280, Note_on_c, 5, 61, 106
7, 118712, Control_c, 5, 1, 4
7, 118754, Control_c, 5, 1, 5
7, 118772, Control_c, 5, 1, 6
7, 118800, Control_c, 5, 1, 8
7, 118810, Control_c, 5, 1, 9
7, 118826, Control_c, 5, 1, 10
7, 118840, Control_c, 5, 1, 11
7, 118854, Control_c, 5, 1, 12
7, 118883, Control_c, 5, 1, 13
7, 118894, Control_c, 5, 1, 14
7, 118910, Control_c, 5, 1, 16
7, 118926, Control_c, 5, 1, 17
7, 118934, Control_c, 5, 1, 19
7, 118952, Control_c, 5, 1, 20
7, 118963, Control_c, 5, 1, 22
7, 118980, Control_c, 5, 1, 24
7, 118994, Control_c, 5, 1, 26
7, 119006, Control_c, 5, 1, 28
7, 119023, Control_c, 5, 1, 30
7, 119034, Control_c, 5, 1, 33
7, 119052, Control_c, 5, 1, 35
7, 119063, Control_c, 5, 1, 37
7, 119080, Control_c, 5, 1, 38
7, 119094, Control_c, 5, 1, 40
7, 119106, Control_c, 5, 1, 42
7, 119120, Control_c, 5, 1, 43
7, 119134, Control_c, 5, 1, 45
7, 119146, Control_c, 5, 1, 46
7, 119163, Control_c, 5, 1, 47
7, 119174, Control_c, 5, 1, 49
7, 119192, Control_c, 5, 1, 51
7, 119203, Control_c, 5, 1, 52
7, 119220, Control_c, 5, 1, 54
7, 119234, Control_c, 5, 1, 55
7, 119243, Control_c, 5, 1, 56
7, 119260, Control_c, 5, 1, 58
7, 119272, Control_c, 5, 1, 59
7, 119286, Control_c, 5, 1, 61
7, 119300, Control_c, 5, 1, 63
7, 119312, Control_c, 5, 1, 65
7, 119326, Control_c, 5, 1, 67
7, 119343, Control_c, 5, 1, 69
7, 119360, Control_c, 5, 1, 73
7, 119372, Control_c, 5, 1, 75
7, 119383, Control_c, 5, 1, 79
7, 119394, Control_c, 5, 1, 83
7, 119410, Control_c, 5, 1, 86
7, 119423, Control_c, 5, 1, 90
7, 119440, Control_c, 5, 1, 94
7, 119454, Control_c, 5, 1, 97
7, 119466, Control_c, 5, 1, 100
7, 119483, Control_c, 5, 1, 103
7, 119500, Control_c, 5, 1, 105
7, 119510, Control_c, 5, 1, 107
7, 119523, Control_c, 5, 1, 108
7, 119566, Control_c, 5, 1, 104
7, 119580, Control_c, 5, 1, 99
7, 119594, Control_c, 5, 1, 90
7, 119606, Control_c, 5, 1, 79
7, 119623, Control_c, 5, 1, 67
7, 119634, Control_c, 5, 1, 54
7, 119652, Control_c, 5, 1, 41
7, 119660, Note_off_c, 5, 61, 64
7, 119666, Note_off_c, 5, 64, 64
7, 119666, Note_off_c, 5, 70, 64
7, 119666, Control_c, 5, 1, 28
7, 119674, Control_c, 5, 1, 13
7, 119692, Control_c, 5, 1, 3
7, 119803, Note_on_c, 5, 70, 116
7, 119806, Note_on_c, 5, 61, 106
7, 119806, Note_on_c, 5, 64, 106
7, 119854, Note_off_c, 5, 61, 64
7, 119863, Note_off_c, 5, 64, 64
7, 119880, Note_off_c, 5, 70, 64
7, 120100, Note_on_c, 5, 70, 106
7, 120103, Note_on_c, 5, 64, 106
7, 120103, Note_on_c, 5, 61, 106
7, 120172, Note_off_c, 5, 61, 64
7, 120180, Note_off_c, 5, 64, 64
7, 120186, Note_off_c, 5, 70, 64
7, 120372, Note_on_c, 5, 62, 106
7, 120374, Note_on_c, 5, 66, 106
7, 120374, Note_on_c, 5, 72, 116
7, 120460, Note_off_c, 5, 62, 64
7, 120486, Note_off_c, 5, 66, 64
7, 120494, Note_off_c, 5, 72, 64
7, 120494, Control_c, 5, 1, 0
7, 158206, End_track
8, 0, Start_track
8, 0, Title_t, "SOPRAN SAX"
8, 2086, Program_c, 6, 64
8, 2092, Control_c, 6, 5, 80
8, 2092, Control_c, 6, 8, 64
8, 2092, Control_c, 6, 9, 127
8, 2094, Control_c, 6, 91, 60
8, 2094, Control_c, 6, 92, 0
8, 10752, Note_on_c, 6, 66, 88
8, 10754, Control_c, 6, 1, 0
8, 10754, Pitch_bend_c, 6, 8192
8, 12086, Note_off_c, 6, 66, 64
8, 12092, Note_on_c, 6, 63, 82
8, 12172, Note_off_c, 6, 63, 64
8, 12174, Note_on_c, 6, 62, 78
8, 12280, Note_off_c, 6, 62, 64
8, 12283, Note_on_c, 6, 63, 86
8, 13723, Note_off_c, 6, 63, 64
8, 35352, Note_on_c, 6, 66, 104
8, 36654, Note_off_c, 6, 66, 64
8, 36666, Note_on_c, 6, 63, 95
8, 36740, Note_off_c, 6, 63, 64
8, 36743, Note_on_c, 6, 62, 88
8, 36832, Note_off_c, 6, 62, 64
8, 36834, Note_on_c, 6, 63, 91
8, 38363, Note_off_c, 6, 63, 64
8, 38366, Note_on_c, 6, 61, 91
8, 38952, Note_off_c, 6, 61, 64
8, 38954, Note_on_c, 6, 62, 88
8, 39903, Note_off_c, 6, 62, 64
8, 41486, Note_on_c, 6, 66, 95
8, 42806, Note_off_c, 6, 66, 64
8, 42823, Note_on_c, 6, 63, 91
8, 42892, Note_off_c, 6, 63, 64
8, 42894, Note_on_c, 6, 62, 88
8, 43012, Note_off_c, 6, 62, 64
8, 43026, Note_on_c, 6, 63, 98
8, 44534, Note_off_c, 6, 63, 64
8, 44583, Note_on_c, 6, 61, 88
8, 45103, Note_off_c, 6, 61, 64
8, 45103, Note_on_c, 6, 62, 91
8, 45992, Note_off_c, 6, 62, 64
8, 66072, Note_on_c, 6, 66, 104
8, 67374, Note_off_c, 6, 66, 64
8, 67386, Note_on_c, 6, 63, 95
8, 67460, Note_off_c, 6, 63, 64
8, 67463, Note_on_c, 6, 62, 88
8, 67552, Note_off_c, 6, 62, 64
8, 67554, Note_on_c, 6, 63, 91
8, 69083, Note_off_c, 6, 63, 64
8, 69086, Note_on_c, 6, 61, 91
8, 69672, Note_off_c, 6, 61, 64
8, 69674, Note_on_c, 6, 62, 88
8, 70623, Note_off_c, 6, 62, 64
8, 72206, Note_on_c, 6, 66, 95
8, 73526, Note_off_c, 6, 66, 64
8, 73543, Note_on_c, 6, 63, 91
8, 73610, Note_off_c, 6, 63, 64
8, 73612, Note_on_c, 6, 62, 88
8, 73734, Note_off_c, 6, 62, 64
8, 73746, Note_on_c, 6, 63, 98
8, 75254, Note_off_c, 6, 63, 64
8, 75303, Note_on_c, 6, 61, 88
8, 75823, Note_off_c, 6, 61, 64
8, 75823, Note_on_c, 6, 62, 91
8, 76710, Note_off_c, 6, 62, 64
8, 78360, Note_on_c, 6, 66, 104
8, 79663, Note_off_c, 6, 66, 64
8, 79674, Note_on_c, 6, 63, 95
8, 79746, Note_off_c, 6, 63, 64
8, 79752, Note_on_c, 6, 62, 88
8, 79840, Note_off_c, 6, 62, 64
8, 79843, Note_on_c, 6, 63, 91
8, 81372, Note_off_c, 6, 63, 64
8, 81374, Note_on_c, 6, 61, 91
8, 81960, Note_off_c, 6, 61, 64
8, 81963, Note_on_c, 6, 62, 88
8, 82910, Note_off_c, 6, 62, 64
8, 84494, Note_on_c, 6, 66, 95
8, 85812, Note_off_c, 6, 66, 64
8, 85832, Note_on_c, 6, 63, 91
8, 85900, Note_off_c, 6, 63, 64
8, 85903, Note_on_c, 6, 62, 88
8, 86023, Note_off_c, 6, 62, 64
8, 86034, Note_on_c, 6, 63, 98
8, 87543, Note_off_c, 6, 63, 64
8, 87592, Note_on_c, 6, 61, 88
8, 88110, Note_off_c, 6, 61, 64
8, 88110, Note_on_c, 6, 62, 91
8, 89000, Note_off_c, 6, 62, 64
8, 90266, Note_on_c, 6, 54, 104
8, 90620, Note_on_c, 6, 66, 95
8, 90632, Note_off_c, 6, 54, 64
8, 91960, Note_off_c, 6, 66, 64
8, 91963, Note_on_c, 6, 63, 91
8, 92054, Note_off_c, 6, 63, 64
8, 92060, Note_on_c, 6, 62, 78
8, 92152, Note_off_c, 6, 62, 64
8, 92154, Note_on_c, 6, 72, 104
8, 92154, Note_on_c, 6, 63, 79
8, 92163, Note_on_c, 6, 66, 83
8, 92163, Note_on_c, 6, 70, 94
8, 92326, Note_off_c, 6, 66, 64
8, 92352, Note_off_c, 6, 63, 64
8, 92354, Note_off_c, 6, 70, 64
8, 92383, Note_off_c, 6, 72, 64
8, 92452, Note_on_c, 6, 70, 89
8, 92452, Note_on_c, 6, 63, 84
8, 92454, Note_on_c, 6, 72, 104
8, 92454, Note_on_c, 6, 66, 83
8, 92666, Note_off_c, 6, 66, 64
8, 92694, Note_off_c, 6, 70, 64
8, 92720, Note_off_c, 6, 72, 64
8, 92732, Note_on_c, 6, 66, 89
8, 92734, Note_off_c, 6, 63, 64
8, 92740, Note_on_c, 6, 72, 95
8, 92740, Note_on_c, 6, 62, 84
8, 92966, Note_off_c, 6, 72, 64
8, 93012, Note_off_c, 6, 66, 64
8, 93023, Note_off_c, 6, 62, 64
8, 93306, Note_on_c, 6, 54, 104
8, 93700, Note_on_c, 6, 66, 95
8, 93712, Note_off_c, 6, 54, 64
8, 95040, Note_off_c, 6, 66, 64
8, 95043, Note_on_c, 6, 63, 88
8, 95126, Note_off_c, 6, 63, 64
8, 95140, Note_on_c, 6, 62, 74
8, 95232, Note_on_c, 6, 66, 83
8, 95234, Note_off_c, 6, 62, 64
8, 95234, Note_on_c, 6, 72, 95
8, 95234, Note_on_c, 6, 70, 89
8, 95234, Note_on_c, 6, 63, 84
8, 95403, Note_off_c, 6, 70, 64
8, 95406, Note_off_c, 6, 66, 64
8, 95412, Note_off_c, 6, 63, 64
8, 95423, Note_off_c, 6, 72, 64
8, 95526, Note_on_c, 6, 72, 109
8, 95526, Note_on_c, 6, 70, 94
8, 95526, Note_on_c, 6, 66, 83
8, 95526, Note_on_c, 6, 63, 89
8, 95774, Note_off_c, 6, 66, 64
8, 95792, Note_off_c, 6, 70, 64
8, 95800, Note_off_c, 6, 72, 64
8, 95810, Note_off_c, 6, 63, 64
8, 95810, Note_on_c, 6, 72, 95
8, 95810, Note_on_c, 6, 66, 89
8, 95812, Note_on_c, 6, 62, 70
8, 96003, Note_off_c, 6, 66, 64
8, 96026, Note_off_c, 6, 72, 64
8, 96094, Note_off_c, 6, 62, 64
8, 96386, Note_on_c, 6, 54, 95
8, 96763, Note_off_c, 6, 54, 64
8, 96772, Note_on_c, 6, 66, 95
8, 98094, Note_off_c, 6, 66, 64
8, 98106, Note_on_c, 6, 63, 88
8, 98192, Note_off_c, 6, 63, 64
8, 98203, Note_on_c, 6, 62, 80
8, 98300, Note_off_c, 6, 62, 64
8, 98300, Note_on_c, 6, 72, 104
8, 98300, Note_on_c, 6, 63, 84
8, 98303, Note_on_c, 6, 70, 94
8, 98306, Note_on_c, 6, 66, 83
8, 98463, Note_off_c, 6, 66, 64
8, 98463, Note_off_c, 6, 63, 64
8, 98472, Note_off_c, 6, 72, 64
8, 98483, Note_off_c, 6, 70, 64
8, 98594, Note_on_c, 6, 70, 94
8, 98594, Note_on_c, 6, 63, 84
8, 98600, Note_on_c, 6, 72, 104
8, 98600, Note_on_c, 6, 66, 83
8, 98800, Note_off_c, 6, 66, 64
8, 98832, Note_off_c, 6, 70, 64
8, 98880, Note_off_c, 6, 72, 64
8, 98880, Note_off_c, 6, 63, 64
8, 98880, Note_on_c, 6, 66, 89
8, 98883, Note_on_c, 6, 72, 109
8, 98883, Note_on_c, 6, 62, 70
8, 99072, Note_off_c, 6, 72, 64
8, 99074, Note_off_c, 6, 62, 64
8, 99120, Note_off_c, 6, 66, 64
8, 99452, Note_on_c, 6, 54, 104
8, 99834, Note_on_c, 6, 66, 95
8, 99840, Note_off_c, 6, 54, 64
8, 101183, Note_on_c, 6, 63, 91
8, 101192, Note_off_c, 6, 66, 64
8, 101266, Note_off_c, 6, 63, 64
8, 101274, Note_on_c, 6, 62, 71
8, 101363, Note_off_c, 6, 62, 64
8, 101372, Note_on_c, 6, 70, 94
8, 101372, Note_on_c, 6, 63, 79
8, 101372, Note_on_c, 6, 72, 104
8, 101380, Note_on_c, 6, 66, 83
8, 101534, Note_off_c, 6, 66, 64
8, 101540, Note_off_c, 6, 63, 64
8, 101552, Note_off_c, 6, 70, 64
8, 101580, Note_off_c, 6, 72, 64
8, 101663, Note_on_c, 6, 72, 104
8, 101666, Note_on_c, 6, 70, 89
8, 101666, Note_on_c, 6, 63, 84
8, 101672, Note_on_c, 6, 66, 83
8, 101866, Note_off_c, 6, 66, 64
8, 101886, Note_off_c, 6, 70, 64
8, 101900, Note_off_c, 6, 63, 64
8, 101943, Note_off_c, 6, 72, 64
8, 101943, Note_on_c, 6, 66, 80
8, 101943, Note_on_c, 6, 62, 70
8, 101954, Note_on_c, 6, 72, 98
8, 102194, Note_off_c, 6, 72, 64
8, 102210, Note_off_c, 6, 66, 64
8, 102234, Note_off_c, 6, 62, 64
8, 133654, Note_on_c, 6, 66, 104
8, 134960, Note_off_c, 6, 66, 64
8, 134972, Note_on_c, 6, 63, 95
8, 135043, Note_off_c, 6, 63, 64
8, 135046, Note_on_c, 6, 62, 88
8, 135134, Note_off_c, 6, 62, 64
8, 135140, Note_on_c, 6, 63, 91
8, 136666, Note_off_c, 6, 63, 64
8, 136672, Note_on_c, 6, 61, 91
8, 137254, Note_off_c, 6, 61, 64
8, 137260, Note_on_c, 6, 62, 88
8, 138206, Note_off_c, 6, 62, 64
8, 139792, Note_on_c, 6, 66, 95
8, 141110, Note_off_c, 6, 66, 64
8, 141126, Note_on_c, 6, 63, 91
8, 141194, Note_off_c, 6, 63, 64
8, 141200, Note_on_c, 6, 62, 88
8, 141320, Note_off_c, 6, 62, 64
8, 141332, Note_on_c, 6, 63, 98
8, 142840, Note_off_c, 6, 63, 64
8, 142886, Note_on_c, 6, 61, 88
8, 143406, Note_off_c, 6, 61, 64
8, 143406, Note_on_c, 6, 62, 91
8, 144294, Note_off_c, 6, 62, 64
8, 145943, Note_on_c, 6, 66, 104
8, 147246, Note_off_c, 6, 66, 64
8, 147260, Note_on_c, 6, 63, 84
8, 147332, Note_off_c, 6, 63, 64
8, 147334, Note_on_c, 6, 62, 77
8, 147423, Note_off_c, 6, 62, 64
8, 147426, Note_on_c, 6, 63, 79
8, 148954, Note_off_c, 6, 63, 64
8, 148960, Note_on_c, 6, 61, 66
8, 149543, Note_off_c, 6, 61, 64
8, 149546, Note_on_c, 6, 62, 59
8, 150494, Note_off_c, 6, 62, 64
8, 152080, Note_on_c, 6, 66, 41
8, 153400, Note_off_c, 6, 66, 64
8, 153412, Note_on_c, 6, 63, 29
8, 153483, Note_off_c, 6, 63, 64
8, 153486, Note_on_c, 6, 62, 27
8, 153606, Note_off_c, 6, 62, 64
8, 153620, Note_on_c, 6, 63, 29
8, 155126, Note_off_c, 6, 63, 64
8, 155174, Note_on_c, 6, 61, 13
8, 155694, Note_off_c, 6, 61, 64
8, 155694, Note_on_c, 6, 62, 10
8, 156583, Note_off_c, 6, 62, 64
8, 158206, End_track
9, 0, Start_track
9, 0, Title_t, "DRUMS"
9, 2110, Control_c, 7, 5, 105
9, 2110, Control_c, 7, 9, 127
9, 2112, Control_c, 7, 91, 46
9, 2112, Control_c, 7, 92, 0
9, 4606, Note_on_c, 7, 33, 110
9, 4606, Note_on_c, 7, 67, 74
9, 4606, Note_on_c, 7, 60, 54
9, 4610, Note_off_c, 7, 60, 64
9, 4610, Note_off_c, 7, 67, 64
9, 4610, Note_off_c, 7, 33, 64
9, 4610, Note_on_c, 7, 43, 76
9, 4610, Control_c, 7, 1, 0
9, 4610, Pitch_bend_c, 7, 8192
9, 4612, Note_off_c, 7, 43, 64
9, 4700, Note_on_c, 7, 67, 28
9, 4703, Note_off_c, 7, 67, 64
9, 4783, Note_on_c, 7, 67, 102
9, 4786, Note_off_c, 7, 67, 64
9, 4803, Note_on_c, 7, 44, 63
9, 4806, Note_off_c, 7, 44, 64
9, 4880, Note_on_c, 7, 67, 102
9, 4883, Note_off_c, 7, 67, 64
9, 4894, Note_on_c, 7, 60, 54
9, 4900, Note_off_c, 7, 60, 64
9, 4992, Note_on_c, 7, 33, 114
9, 4994, Note_off_c, 7, 33, 64
9, 4994, Note_on_c, 7, 40, 110
9, 4994, Note_on_c, 7, 43, 60
9, 5000, Note_off_c, 7, 43, 64
9, 5000, Note_off_c, 7, 40, 64
9, 5000, Note_on_c, 7, 37, 95
9, 5003, Note_off_c, 7, 37, 64
9, 5086, Note_on_c, 7, 60, 43
9, 5092, Note_off_c, 7, 60, 64
9, 5183, Note_on_c, 7, 70, 81
9, 5183, Note_on_c, 7, 62, 49
9, 5186, Note_off_c, 7, 62, 64
9, 5186, Note_off_c, 7, 70, 64
9, 5280, Note_on_c, 7, 70, 99
9, 5283, Note_off_c, 7, 70, 64
9, 5374, Note_on_c, 7, 33, 110
9, 5374, Note_on_c, 7, 60, 54
9, 5380, Note_off_c, 7, 60, 64
9, 5380, Note_off_c, 7, 33, 64
9, 5566, Note_on_c, 7, 70, 99
9, 5572, Note_off_c, 7, 70, 64
9, 5572, Note_on_c, 7, 44, 67
9, 5574, Note_off_c, 7, 44, 64
9, 5663, Note_on_c, 7, 60, 43
9, 5666, Note_off_c, 7, 60, 64
9, 5760, Note_on_c, 7, 33, 114
9, 5763, Note_off_c, 7, 33, 64
9, 5763, Note_on_c, 7, 40, 110
9, 5763, Note_on_c, 7, 43, 67
9, 5766, Note_off_c, 7, 43, 64
9, 5766, Note_off_c, 7, 40, 64
9, 5766, Note_on_c, 7, 37, 95
9, 5772, Note_off_c, 7, 37, 64
9, 5854, Note_on_c, 7, 60, 49
9, 5860, Note_off_c, 7, 60, 64
9, 5952, Note_on_c, 7, 70, 99
9, 5952, Note_on_c, 7, 62, 54
9, 5954, Note_off_c, 7, 62, 64
9, 5954, Note_off_c, 7, 70, 64
9, 5954, Note_on_c, 7, 44, 63
9, 5960, Note_off_c, 7, 44, 64
9, 6143, Note_on_c, 7, 33, 110
9, 6143, Note_on_c, 7, 60, 54
9, 6146, Note_off_c, 7, 60, 64
9, 6146, Note_off_c, 7, 33, 64
9, 6146, Note_on_c, 7, 43, 63
9, 6152, Note_off_c, 7, 43, 64
9, 6334, Note_on_c, 7, 70, 85
9, 6340, Note_off_c, 7, 70, 64
9, 6340, Note_on_c, 7, 44, 60
9, 6343, Note_off_c, 7, 44, 64
9, 6432, Note_on_c, 7, 60, 33
9, 6434, Note_off_c, 7, 60, 64
9, 6526, Note_on_c, 7, 33, 110
9, 6532, Note_off_c, 7, 33, 64
9, 6532, Note_on_c, 7, 40, 110
9, 6532, Note_on_c, 7, 43, 63
9, 6534, Note_off_c, 7, 43, 64
9, 6534, Note_off_c, 7, 40, 64
9, 6534, Note_on_c, 7, 37, 95
9, 6540, Note_off_c, 7, 37, 64
9, 6623, Note_on_c, 7, 60, 36
9, 6626, Note_off_c, 7, 60, 64
9, 6720, Note_on_c, 7, 70, 78
9, 6720, Note_on_c, 7, 62, 49
9, 6723, Note_off_c, 7, 62, 64
9, 6723, Note_off_c, 7, 70, 64
9, 6723, Note_on_c, 7, 44, 54
9, 6726, Note_off_c, 7, 44, 64
9, 6812, Note_on_c, 7, 70, 94
9, 6820, Note_off_c, 7, 70, 64
9, 6910, Note_on_c, 7, 33, 110
9, 6910, Note_on_c, 7, 60, 54
9, 6912, Note_off_c, 7, 60, 64
9, 6912, Note_off_c, 7, 33, 64
9, 6912, Note_on_c, 7, 43, 63
9, 6920, Note_off_c, 7, 43, 64
9, 7103, Note_on_c, 7, 70, 94
9, 7106, Note_off_c, 7, 70, 64
9, 7106, Note_on_c, 7, 44, 54
9, 7110, Note_off_c, 7, 44, 64
9, 7200, Note_on_c, 7, 60, 43
9, 7203, Note_off_c, 7, 60, 64
9, 7294, Note_on_c, 7, 33, 114
9, 7300, Note_off_c, 7, 33, 64
9, 7300, Note_on_c, 7, 40, 110
9, 7300, Note_on_c, 7, 43, 63
9, 7303, Note_off_c, 7, 43, 64
9, 7303, Note_off_c, 7, 40, 64
9, 7303, Note_on_c, 7, 37, 95
9, 7306, Note_off_c, 7, 37, 64
9, 7392, Note_on_c, 7, 60, 40
9, 7394, Note_off_c, 7, 60, 64
9, 7486, Note_on_c, 7, 70, 81
9, 7486, Note_on_c, 7, 62, 49
9, 7492, Note_off_c, 7, 62, 64
9, 7492, Note_off_c, 7, 70, 64
9, 7492, Note_on_c, 7, 44, 60
9, 7494, Note_off_c, 7, 44, 64
9, 7583, Note_on_c, 7, 70, 94
9, 7586, Note_off_c, 7, 70, 64
9, 7680, Note_on_c, 7, 33, 114
9, 7680, Note_on_c, 7, 67, 74
9, 7680, Note_on_c, 7, 60, 54
9, 7683, Note_off_c, 7, 60, 64
9, 7683, Note_off_c, 7, 67, 64
9, 7683, Note_off_c, 7, 33, 64
9, 7683, Note_on_c, 7, 43, 63
9, 7686, Note_off_c, 7, 43, 64
9, 7772, Note_on_c, 7, 67, 28
9, 7774, Note_off_c, 7, 67, 64
9, 7854, Note_on_c, 7, 67, 102
9, 7860, Note_off_c, 7, 67, 64
9, 7872, Note_on_c, 7, 70, 94
9, 7874, Note_off_c, 7, 70, 64
9, 7874, Note_on_c, 7, 44, 67
9, 7880, Note_off_c, 7, 44, 64
9, 7952, Note_on_c, 7, 67, 102
9, 7954, Note_off_c, 7, 67, 64
9, 7966, Note_on_c, 7, 60, 43
9, 7972, Note_off_c, 7, 60, 64
9, 8063, Note_on_c, 7, 33, 114
9, 8066, Note_off_c, 7, 33, 64
9, 8066, Note_on_c, 7, 40, 114
9, 8066, Note_on_c, 7, 43, 76
9, 8072, Note_off_c, 7, 43, 64
9, 8072, Note_off_c, 7, 40, 64
9, 8072, Note_on_c, 7, 37, 99
9, 8074, Note_off_c, 7, 37, 64
9, 8160, Note_on_c, 7, 60, 40
9, 8163, Note_off_c, 7, 60, 64
9, 8254, Note_on_c, 7, 70, 72
9, 8254, Note_on_c, 7, 62, 40
9, 8260, Note_off_c, 7, 62, 64
9, 8260, Note_off_c, 7, 70, 64
9, 8352, Note_on_c, 7, 70, 85
9, 8354, Note_off_c, 7, 70, 64
9, 8446, Note_on_c, 7, 33, 110
9, 8446, Note_on_c, 7, 60, 54
9, 8452, Note_off_c, 7, 60, 64
9, 8452, Note_off_c, 7, 33, 64
9, 8640, Note_on_c, 7, 70, 94
9, 8643, Note_off_c, 7, 70, 64
9, 8643, Note_on_c, 7, 44, 63
9, 8646, Note_off_c, 7, 44, 64
9, 8734, Note_on_c, 7, 60, 40
9, 8740, Note_off_c, 7, 60, 64
9, 8832, Note_on_c, 7, 33, 114
9, 8834, Note_off_c, 7, 33, 64
9, 8834, Note_on_c, 7, 40, 114
9, 8834, Note_on_c, 7, 43, 63
9, 8840, Note_off_c, 7, 43, 64
9, 8840, Note_off_c, 7, 40, 64
9, 8840, Note_on_c, 7, 37, 99
9, 8843, Note_off_c, 7, 37, 64
9, 8926, Note_on_c, 7, 60, 43
9, 8932, Note_off_c, 7, 60, 64
9, 9023, Note_on_c, 7, 70, 94
9, 9023, Note_on_c, 7, 62, 54
9, 9026, Note_off_c, 7, 62, 64
9, 9026, Note_off_c, 7, 70, 64
9, 9026, Note_on_c, 7, 44, 63
9, 9032, Note_off_c, 7, 44, 64
9, 9212, Note_on_c, 7, 33, 114
9, 9212, Note_on_c, 7, 60, 49
9, 9220, Note_off_c, 7, 60, 64
9, 9220, Note_off_c, 7, 33, 64
9, 9220, Note_on_c, 7, 43, 67
9, 9223, Note_off_c, 7, 43, 64
9, 9406, Note_on_c, 7, 70, 99
9, 9410, Note_off_c, 7, 70, 64
9, 9410, Note_on_c, 7, 44, 63
9, 9412, Note_off_c, 7, 44, 64
9, 9503, Note_on_c, 7, 60, 40
9, 9506, Note_off_c, 7, 60, 64
9, 9600, Note_on_c, 7, 33, 110
9, 9603, Note_off_c, 7, 33, 64
9, 9603, Note_on_c, 7, 40, 114
9, 9603, Note_on_c, 7, 43, 63
9, 9606, Note_off_c, 7, 43, 64
9, 9606, Note_off_c, 7, 40, 64
9, 9606, Note_on_c, 7, 37, 99
9, 9610, Note_off_c, 7, 37, 64
9, 9694, Note_on_c, 7, 60, 43
9, 9700, Note_off_c, 7, 60, 64
9, 9792, Note_on_c, 7, 70, 78
9, 9792, Note_on_c, 7, 62, 40
9, 9794, Note_off_c, 7, 62, 64
9, 9794, Note_off_c, 7, 70, 64
9, 9794, Note_on_c, 7, 44, 63
9, 9800, Note_off_c, 7, 44, 64
9, 9886, Note_on_c, 7, 70, 85
9, 9892, Note_off_c, 7, 70, 64
9, 9983, Note_on_c, 7, 33, 114
9, 9983, Note_on_c, 7, 60, 49
9, 9986, Note_off_c, 7, 60, 64
9, 9986, Note_off_c, 7, 33, 64
9, 9986, Note_on_c, 7, 43, 63
9, 9992, Note_off_c, 7, 43, 64
9, 10174, Note_on_c, 7, 70, 99
9, 10180, Note_off_c, 7, 70, 64
9, 10180, Note_on_c, 7, 44, 63
9, 10183, Note_off_c, 7, 44, 64
9, 10272, Note_on_c, 7, 60, 40
9, 10274, Note_off_c, 7, 60, 64
9, 10366, Note_on_c, 7, 33, 114
9, 10372, Note_off_c, 7, 33, 64
9, 10372, Note_on_c, 7, 40, 114
9, 10372, Note_on_c, 7, 43, 67
9, 10374, Note_off_c, 7, 43, 64
9, 10374, Note_off_c, 7, 40, 64
9, 10374, Note_on_c, 7, 37, 99
9, 10380, Note_off_c, 7, 37, 64
9, 10463, Note_on_c, 7, 60, 40
9, 10466, Note_off_c, 7, 60, 64
9, 10560, Note_on_c, 7, 70, 81
9, 10560, Note_on_c, 7, 62, 49
9, 10563, Note_off_c, 7, 62, 64
9, 10563, Note_off_c, 7, 70, 64
9, 10563, Note_on_c, 7, 44, 67
9, 10566, Note_off_c, 7, 44, 64
9, 10654, Note_on_c, 7, 70, 99
9, 10660, Note_off_c, 7, 70, 64
9, 10752, Note_on_c, 7, 33, 110
9, 10752, Note_on_c, 7, 67, 74
9, 10752, Note_on_c, 7, 60, 54
9, 10754, Note_off_c, 7, 60, 64
9, 10754, Note_off_c, 7, 67, 64
9, 10754, Note_off_c, 7, 33, 64
9, 10754, Note_on_c, 7, 43, 76
9, 10760, Note_off_c, 7, 43, 64
9, 10843, Note_on_c, 7, 67, 28
9, 10846, Note_off_c, 7, 67, 64
9, 10926, Note_on_c, 7, 67, 102
9, 10932, Note_off_c, 7, 67, 64
9, 10943, Note_on_c, 7, 70, 99
9, 10946, Note_off_c, 7, 70, 64
9, 10946, Note_on_c, 7, 44, 63
9, 10952, Note_off_c, 7, 44, 64
9, 11023, Note_on_c, 7, 67, 102
9, 11026, Note_off_c, 7, 67, 64
9, 11040, Note_on_c, 7, 60, 54
9, 11043, Note_off_c, 7, 60, 64
9, 11134, Note_on_c, 7, 33, 114
9, 11140, Note_off_c, 7, 33, 64
9, 11140, Note_on_c, 7, 40, 110
9, 11140, Note_on_c, 7, 43, 60
9, 11143, Note_off_c, 7, 43, 64
9, 11143, Note_off_c, 7, 40, 64
9, 11143, Note_on_c, 7, 37, 95
9, 11146, Note_off_c, 7, 37, 64
9, 11232, Note_on_c, 7, 60, 43
9, 11234, Note_off_c, 7, 60, 64
9, 11326, Note_on_c, 7, 70, 81
9, 11326, Note_on_c, 7, 62, 49
9, 11332, Note_off_c, 7, 62, 64
9, 11332, Note_off_c, 7, 70, 64
9, 11423, Note_on_c, 7, 70, 99
9, 11426, Note_off_c, 7, 70, 64
9, 11520, Note_on_c, 7, 33, 110
9, 11520, Note_on_c, 7, 60, 54
9, 11523, Note_off_c, 7, 60, 64
9, 11523, Note_off_c, 7, 33, 64
9, 11710, Note_on_c, 7, 70, 94
9, 11712, Note_off_c, 7, 70, 64
9, 11712, Note_on_c, 7, 44, 67
9, 11720, Note_off_c, 7, 44, 64
9, 11806, Note_on_c, 7, 60, 43
9, 11810, Note_off_c, 7, 60, 64
9, 11903, Note_on_c, 7, 33, 114
9, 11906, Note_off_c, 7, 33, 64
9, 11906, Note_on_c, 7, 40, 110
9, 11906, Note_on_c, 7, 43, 67
9, 11910, Note_off_c, 7, 43, 64
9, 11910, Note_off_c, 7, 40, 64
9, 11910, Note_on_c, 7, 37, 95
9, 11912, Note_off_c, 7, 37, 64
9, 12000, Note_on_c, 7, 60, 49
9, 12003, Note_off_c, 7, 60, 64
9, 12094, Note_on_c, 7, 70, 94
9, 12094, Note_on_c, 7, 62, 54
9, 12100, Note_off_c, 7, 62, 64
9, 12100, Note_off_c, 7, 70, 64
9, 12100, Note_on_c, 7, 44, 63
9, 12103, Note_off_c, 7, 44, 64
9, 12286, Note_on_c, 7, 33, 110
9, 12286, Note_on_c, 7, 60, 54
9, 12292, Note_off_c, 7, 60, 64
9, 12292, Note_off_c, 7, 33, 64
9, 12292, Note_on_c, 7, 43, 63
9, 12294, Note_off_c, 7, 43, 64
9, 12480, Note_on_c, 7, 70, 94
9, 12483, Note_off_c, 7, 70, 64
9, 12483, Note_on_c, 7, 44, 60
9, 12486, Note_off_c, 7, 44, 64
9, 12574, Note_on_c, 7, 60, 33
9, 12580, Note_off_c, 7, 60, 64
9, 12672, Note_on_c, 7, 33, 110
9, 12674, Note_off_c, 7, 33, 64
9, 12674, Note_on_c, 7, 40, 110
9, 12674, Note_on_c, 7, 43, 63
9, 12680, Note_off_c, 7, 43, 64
9, 12680, Note_off_c, 7, 40, 64
9, 12680, Note_on_c, 7, 37, 95
9, 12683, Note_off_c, 7, 37, 64
9, 12766, Note_on_c, 7, 60, 36
9, 12772, Note_off_c, 7, 60, 64
9, 12863, Note_on_c, 7, 70, 78
9, 12863, Note_on_c, 7, 62, 49
9, 12866, Note_off_c, 7, 62, 64
9, 12866, Note_off_c, 7, 70, 64
9, 12866, Note_on_c, 7, 44, 54
9, 12872, Note_off_c, 7, 44, 64
9, 12960, Note_on_c, 7, 70, 94
9, 12963, Note_off_c, 7, 70, 64
9, 13054, Note_on_c, 7, 33, 110
9, 13054, Note_on_c, 7, 60, 54
9, 13060, Note_off_c, 7, 60, 64
9, 13060, Note_off_c, 7, 33, 64
9, 13060, Note_on_c, 7, 43, 63
9, 13063, Note_off_c, 7, 43, 64
9, 13246, Note_on_c, 7, 70, 94
9, 13252, Note_off_c, 7, 70, 64
9, 13252, Note_on_c, 7, 44, 54
9, 13254, Note_off_c, 7, 44, 64
9, 13343, Note_on_c, 7, 60, 43
9, 13346, Note_off_c, 7, 60, 64
9, 13440, Note_on_c, 7, 33, 114
9, 13443, Note_off_c, 7, 33, 64
9, 13443, Note_on_c, 7, 40, 110
9, 13443, Note_on_c, 7, 43, 63
9, 13446, Note_off_c, 7, 43, 64
9, 13446, Note_off_c, 7, 40, 64
9, 13446, Note_on_c, 7, 37, 95
9, 13452, Note_off_c, 7, 37, 64
9, 13534, Note_on_c, 7, 60, 40
9, 13540, Note_off_c, 7, 60, 64
9, 13632, Note_on_c, 7, 70, 78
9, 13632, Note_on_c, 7, 62, 49
9, 13634, Note_off_c, 7, 62, 64
9, 13634, Note_off_c, 7, 70, 64
9, 13634, Note_on_c, 7, 44, 60
9, 13640, Note_off_c, 7, 44, 64
9, 13726, Note_on_c, 7, 70, 99
9, 13732, Note_off_c, 7, 70, 64
9, 13823, Note_on_c, 7, 33, 114
9, 13823, Note_on_c, 7, 67, 74
9, 13823, Note_on_c, 7, 60, 54
9, 13826, Note_off_c, 7, 60, 64
9, 13826, Note_off_c, 7, 67, 64
9, 13826, Note_off_c, 7, 33, 64
9, 13826, Note_on_c, 7, 43, 63
9, 13832, Note_off_c, 7, 43, 64
9, 13912, Note_on_c, 7, 67, 28
9, 13920, Note_off_c, 7, 67, 64
9, 14000, Note_on_c, 7, 67, 102
9, 14003, Note_off_c, 7, 67, 64
9, 14012, Note_on_c, 7, 70, 94
9, 14020, Note_off_c, 7, 70, 64
9, 14020, Note_on_c, 7, 44, 67
9, 14023, Note_off_c, 7, 44, 64
9, 14094, Note_on_c, 7, 67, 102
9, 14100, Note_off_c, 7, 67, 64
9, 14110, Note_on_c, 7, 60, 43
9, 14112, Note_off_c, 7, 60, 64
9, 14206, Note_on_c, 7, 33, 114
9, 14210, Note_off_c, 7, 33, 64
9, 14210, Note_on_c, 7, 40, 114
9, 14210, Note_on_c, 7, 43, 76
9, 14212, Note_off_c, 7, 43, 64
9, 14212, Note_off_c, 7, 40, 64
9, 14212, Note_on_c, 7, 37, 99
9, 14220, Note_off_c, 7, 37, 64
9, 14303, Note_on_c, 7, 60, 40
9, 14306, Note_off_c, 7, 60, 64
9, 14400, Note_on_c, 7, 70, 72
9, 14400, Note_on_c, 7, 62, 40
9, 14403, Note_off_c, 7, 62, 64
9, 14403, Note_off_c, 7, 70, 64
9, 14494, Note_on_c, 7, 70, 85
9, 14500, Note_off_c, 7, 70, 64
9, 14592, Note_on_c, 7, 33, 110
9, 14592, Note_on_c, 7, 60, 54
9, 14594, Note_off_c, 7, 60, 64
9, 14594, Note_off_c, 7, 33, 64
9, 14783, Note_on_c, 7, 70, 94
9, 14786, Note_off_c, 7, 70, 64
9, 14786, Note_on_c, 7, 44, 63
9, 14792, Note_off_c, 7, 44, 64
9, 14880, Note_on_c, 7, 60, 40
9, 14883, Note_off_c, 7, 60, 64
9, 14974, Note_on_c, 7, 33, 114
9, 14980, Note_off_c, 7, 33, 64
9, 14980, Note_on_c, 7, 40, 114
9, 14980, Note_on_c, 7, 43, 63
9, 14983, Note_off_c, 7, 43, 64
9, 14983, Note_off_c, 7, 40, 64
9, 14983, Note_on_c, 7, 37, 99
9, 14986, Note_off_c, 7, 37, 64
9, 15072, Note_on_c, 7, 60, 43
9, 15074, Note_off_c, 7, 60, 64
9, 15166, Note_on_c, 7, 70, 94
9, 15166, Note_on_c, 7, 62, 54
9, 15172, Note_off_c, 7, 62, 64
9, 15172, Note_off_c, 7, 70, 64
9, 15172, Note_on_c, 7, 44, 63
9, 15174, Note_off_c, 7, 44, 64
9, 15360, Note_on_c, 7, 33, 114
9, 15360, Note_on_c, 7, 60, 49
9, 15363, Note_off_c, 7, 60, 64
9, 15363, Note_off_c, 7, 33, 64
9, 15363, Note_on_c, 7, 43, 67
9, 15366, Note_off_c, 7, 43, 64
9, 15552, Note_on_c, 7, 70, 99
9, 15554, Note_off_c, 7, 70, 64
9, 15554, Note_on_c, 7, 44, 63
9, 15560, Note_off_c, 7, 44, 64
9, 15646, Note_on_c, 7, 60, 40
9, 15652, Note_off_c, 7, 60, 64
9, 15743, Note_on_c, 7, 33, 110
9, 15746, Note_off_c, 7, 33, 64
9, 15746, Note_on_c, 7, 40, 114
9, 15746, Note_on_c, 7, 43, 63
9, 15752, Note_off_c, 7, 43, 64
9, 15752, Note_off_c, 7, 40, 64
9, 15752, Note_on_c, 7, 37, 99
9, 15754, Note_off_c, 7, 37, 64
9, 15840, Note_on_c, 7, 60, 43
9, 15843, Note_off_c, 7, 60, 64
9, 15934, Note_on_c, 7, 70, 78
9, 15934, Note_on_c, 7, 62, 40
9, 15940, Note_off_c, 7, 62, 64
9, 15940, Note_off_c, 7, 70, 64
9, 15940, Note_on_c, 7, 44, 63
9, 15943, Note_off_c, 7, 44, 64
9, 16032, Note_on_c, 7, 70, 85
9, 16034, Note_off_c, 7, 70, 64
9, 16126, Note_on_c, 7, 33, 114
9, 16126, Note_on_c, 7, 60, 49
9, 16132, Note_off_c, 7, 60, 64
9, 16132, Note_off_c, 7, 33, 64
9, 16132, Note_on_c, 7, 40, 110
9, 16132, Note_on_c, 7, 43, 63
9, 16134, Note_off_c, 7, 43, 64
9, 16134, Note_off_c, 7, 40, 64
9, 16134, Note_on_c, 7, 37, 95
9, 16140, Note_off_c, 7, 37, 64
9, 16320, Note_on_c, 7, 70, 99
9, 16323, Note_off_c, 7, 70, 64
9, 16323, Note_on_c, 7, 44, 63
9, 16326, Note_off_c, 7, 44, 64
9, 16412, Note_on_c, 7, 60, 40
9, 16420, Note_off_c, 7, 60, 64
9, 16510, Note_on_c, 7, 33, 114
9, 16512, Note_off_c, 7, 33, 64
9, 16512, Note_on_c, 7, 40, 114
9, 16512, Note_on_c, 7, 43, 67
9, 16520, Note_off_c, 7, 43, 64
9, 16520, Note_off_c, 7, 40, 64
9, 16520, Note_on_c, 7, 37, 99
9, 16523, Note_off_c, 7, 37, 64
9, 16606, Note_on_c, 7, 60, 40
9, 16610, Note_off_c, 7, 60, 64
9, 16610, Note_on_c, 7, 40, 110
9, 16612, Note_off_c, 7, 40, 64
9, 16612, Note_on_c, 7, 37, 95
9, 16620, Note_off_c, 7, 37, 64
9, 16703, Note_on_c, 7, 70, 81
9, 16703, Note_on_c, 7, 62, 49
9, 16706, Note_off_c, 7, 62, 64
9, 16706, Note_off_c, 7, 70, 64
9, 16706, Note_on_c, 7, 44, 67
9, 16710, Note_off_c, 7, 44, 64
9, 16800, Note_on_c, 7, 70, 99
9, 16803, Note_off_c, 7, 70, 64
9, 16894, Note_on_c, 7, 33, 110
9, 16894, Note_on_c, 7, 67, 74
9, 16894, Note_on_c, 7, 60, 54
9, 16900, Note_off_c, 7, 60, 64
9, 16900, Note_off_c, 7, 67, 64
9, 16900, Note_off_c, 7, 33, 64
9, 16900, Note_on_c, 7, 43, 76
9, 16903, Note_off_c, 7, 43, 64
9, 16986, Note_on_c, 7, 67, 28
9, 16992, Note_off_c, 7, 67, 64
9, 17072, Note_on_c, 7, 67, 102
9, 17074, Note_off_c, 7, 67, 64
9, 17086, Note_on_c, 7, 70, 99
9, 17092, Note_off_c, 7, 70, 64
9, 17092, Note_on_c, 7, 44, 63
9, 17094, Note_off_c, 7, 44, 64
9, 17166, Note_on_c, 7, 67, 102
9, 17172, Note_off_c, 7, 67, 64
9, 17183, Note_on_c, 7, 60, 54
9, 17186, Note_off_c, 7, 60, 64
9, 17280, Note_on_c, 7, 33, 114
9, 17283, Note_off_c, 7, 33, 64
9, 17283, Note_on_c, 7, 40, 110
9, 17283, Note_on_c, 7, 43, 60
9, 17286, Note_off_c, 7, 43, 64
9, 17286, Note_off_c, 7, 40, 64
9, 17286, Note_on_c, 7, 37, 95
9, 17292, Note_off_c, 7, 37, 64
9, 17374, Note_on_c, 7, 60, 43
9, 17380, Note_off_c, 7, 60, 64
9, 17472, Note_on_c, 7, 70, 81
9, 17472, Note_on_c, 7, 62, 49
9, 17474, Note_off_c, 7, 62, 64
9, 17474, Note_off_c, 7, 70, 64
9, 17566, Note_on_c, 7, 70, 99
9, 17572, Note_off_c, 7, 70, 64
9, 17663, Note_on_c, 7, 33, 110
9, 17663, Note_on_c, 7, 60, 54
9, 17666, Note_off_c, 7, 60, 64
9, 17666, Note_off_c, 7, 33, 64
9, 17854, Note_on_c, 7, 70, 94
9, 17860, Note_off_c, 7, 70, 64
9, 17860, Note_on_c, 7, 44, 67
9, 17863, Note_off_c, 7, 44, 64
9, 17952, Note_on_c, 7, 60, 43
9, 17954, Note_off_c, 7, 60, 64
9, 18046, Note_on_c, 7, 33, 114
9, 18052, Note_off_c, 7, 33, 64
9, 18052, Note_on_c, 7, 40, 110
9, 18052, Note_on_c, 7, 43, 67
9, 18054, Note_off_c, 7, 43, 64
9, 18054, Note_off_c, 7, 40, 64
9, 18054, Note_on_c, 7, 37, 95
9, 18060, Note_off_c, 7, 37, 64
9, 18143, Note_on_c, 7, 60, 49
9, 18146, Note_off_c, 7, 60, 64
9, 18240, Note_on_c, 7, 70, 94
9, 18240, Note_on_c, 7, 62, 54
9, 18243, Note_off_c, 7, 62, 64
9, 18243, Note_off_c, 7, 70, 64
9, 18243, Note_on_c, 7, 44, 63
9, 18246, Note_off_c, 7, 44, 64
9, 18432, Note_on_c, 7, 33, 110
9, 18432, Note_on_c, 7, 60, 54
9, 18434, Note_off_c, 7, 60, 64
9, 18434, Note_off_c, 7, 33, 64
9, 18434, Note_on_c, 7, 43, 63
9, 18440, Note_off_c, 7, 43, 64
9, 18623, Note_on_c, 7, 70, 94
9, 18626, Note_off_c, 7, 70, 64
9, 18626, Note_on_c, 7, 44, 60
9, 18632, Note_off_c, 7, 44, 64
9, 18720, Note_on_c, 7, 60, 33
9, 18723, Note_off_c, 7, 60, 64
9, 18812, Note_on_c, 7, 33, 110
9, 18820, Note_off_c, 7, 33, 64
9, 18820, Note_on_c, 7, 40, 110
9, 18820, Note_on_c, 7, 43, 63
9, 18823, Note_off_c, 7, 43, 64
9, 18823, Note_off_c, 7, 40, 64
9, 18823, Note_on_c, 7, 37, 95
9, 18826, Note_off_c, 7, 37, 64
9, 18910, Note_on_c, 7, 60, 36
9, 18912, Note_off_c, 7, 60, 64
9, 19006, Note_on_c, 7, 70, 78
9, 19006, Note_on_c, 7, 62, 49
9, 19010, Note_off_c, 7, 62, 64
9, 19010, Note_off_c, 7, 70, 64
9, 19010, Note_on_c, 7, 44, 54
9, 19012, Note_off_c, 7, 44, 64
9, 19103, Note_on_c, 7, 70, 94
9, 19106, Note_off_c, 7, 70, 64
9, 19200, Note_on_c, 7, 33, 110
9, 19200, Note_on_c, 7, 60, 54
9, 19203, Note_off_c, 7, 60, 64
9, 19203, Note_off_c, 7, 33, 64
9, 19203, Note_on_c, 7, 43, 63
9, 19206, Note_off_c, 7, 43, 64
9, 19392, Note_on_c, 7, 70, 94
9, 19394, Note_off_c, 7, 70, 64
9, 19394, Note_on_c, 7, 44, 54
9, 19400, Note_off_c, 7, 44, 64
9, 19486, Note_on_c, 7, 60, 43
9, 19492, Note_off_c, 7, 60, 64
9, 19583, Note_on_c, 7, 33, 114
9, 19586, Note_off_c, 7, 33, 64
9, 19586, Note_on_c, 7, 40, 110
9, 19586, Note_on_c, 7, 43, 63
9, 19592, Note_off_c, 7, 43, 64
9, 19592, Note_off_c, 7, 40, 64
9, 19592, Note_on_c, 7, 37, 95
9, 19594, Note_off_c, 7, 37, 64
9, 19680, Note_on_c, 7, 60, 40
9, 19683, Note_off_c, 7, 60, 64
9, 19774, Note_on_c, 7, 70, 78
9, 19774, Note_on_c, 7, 62, 49
9, 19780, Note_off_c, 7, 62, 64
9, 19780, Note_off_c, 7, 70, 64
9, 19780, Note_on_c, 7, 44, 60
9, 19783, Note_off_c, 7, 44, 64
9, 19872, Note_on_c, 7, 70, 99
9, 19874, Note_off_c, 7, 70, 64
9, 19966, Note_on_c, 7, 33, 114
9, 19966, Note_on_c, 7, 67, 74
9, 19966, Note_on_c, 7, 60, 54
9, 19972, Note_off_c, 7, 60, 64
9, 19972, Note_off_c, 7, 67, 64
9, 19972, Note_off_c, 7, 33, 64
9, 19972, Note_on_c, 7, 43, 63
9, 19974, Note_off_c, 7, 43, 64
9, 20060, Note_on_c, 7, 67, 28
9, 20063, Note_off_c, 7, 67, 64
9, 20143, Note_on_c, 7, 67, 102
9, 20146, Note_off_c, 7, 67, 64
9, 20160, Note_on_c, 7, 70, 94
9, 20163, Note_off_c, 7, 70, 64
9, 20163, Note_on_c, 7, 44, 67
9, 20166, Note_off_c, 7, 44, 64
9, 20240, Note_on_c, 7, 67, 102
9, 20243, Note_off_c, 7, 67, 64
9, 20254, Note_on_c, 7, 60, 43
9, 20260, Note_off_c, 7, 60, 64
9, 20352, Note_on_c, 7, 33, 114
9, 20354, Note_off_c, 7, 33, 64
9, 20354, Note_on_c, 7, 40, 114
9, 20354, Note_on_c, 7, 43, 76
9, 20360, Note_off_c, 7, 43, 64
9, 20360, Note_off_c, 7, 40, 64
9, 20360, Note_on_c, 7, 37, 99
9, 20363, Note_off_c, 7, 37, 64
9, 20446, Note_on_c, 7, 60, 40
9, 20452, Note_off_c, 7, 60, 64
9, 20543, Note_on_c, 7, 70, 72
9, 20543, Note_on_c, 7, 62, 40
9, 20546, Note_off_c, 7, 62, 64
9, 20546, Note_off_c, 7, 70, 64
9, 20640, Note_on_c, 7, 70, 85
9, 20643, Note_off_c, 7, 70, 64
9, 20734, Note_on_c, 7, 33, 110
9, 20734, Note_on_c, 7, 60, 54
9, 20740, Note_off_c, 7, 60, 64
9, 20740, Note_off_c, 7, 33, 64
9, 20926, Note_on_c, 7, 70, 94
9, 20932, Note_off_c, 7, 70, 64
9, 20932, Note_on_c, 7, 44, 63
9, 20934, Note_off_c, 7, 44, 64
9, 21023, Note_on_c, 7, 60, 40
9, 21026, Note_off_c, 7, 60, 64
9, 21120, Note_on_c, 7, 33, 114
9, 21123, Note_off_c, 7, 33, 64
9, 21123, Note_on_c, 7, 40, 114
9, 21123, Note_on_c, 7, 43, 63
9, 21126, Note_off_c, 7, 43, 64
9, 21126, Note_off_c, 7, 40, 64
9, 21126, Note_on_c, 7, 37, 99
9, 21132, Note_off_c, 7, 37, 64
9, 21212, Note_on_c, 7, 60, 43
9, 21220, Note_off_c, 7, 60, 64
9, 21310, Note_on_c, 7, 70, 94
9, 21310, Note_on_c, 7, 62, 54
9, 21312, Note_off_c, 7, 62, 64
9, 21312, Note_off_c, 7, 70, 64
9, 21312, Note_on_c, 7, 44, 63
9, 21320, Note_off_c, 7, 44, 64
9, 21503, Note_on_c, 7, 33, 114
9, 21503, Note_on_c, 7, 60, 49
9, 21506, Note_off_c, 7, 60, 64
9, 21506, Note_off_c, 7, 33, 64
9, 21506, Note_on_c, 7, 43, 67
9, 21510, Note_off_c, 7, 43, 64
9, 21694, Note_on_c, 7, 70, 99
9, 21700, Note_off_c, 7, 70, 64
9, 21700, Note_on_c, 7, 44, 63
9, 21703, Note_off_c, 7, 44, 64
9, 21792, Note_on_c, 7, 60, 40
9, 21794, Note_off_c, 7, 60, 64
9, 21886, Note_on_c, 7, 33, 110
9, 21892, Note_off_c, 7, 33, 64
9, 21892, Note_on_c, 7, 40, 114
9, 21892, Note_on_c, 7, 43, 63
9, 21894, Note_off_c, 7, 43, 64
9, 21894, Note_off_c, 7, 40, 64
9, 21894, Note_on_c, 7, 37, 99
9, 21900, Note_off_c, 7, 37, 64
9, 21983, Note_on_c, 7, 60, 43
9, 21986, Note_off_c, 7, 60, 64
9, 22080, Note_on_c, 7, 70, 78
9, 22080, Note_on_c, 7, 62, 40
9, 22083, Note_off_c, 7, 62, 64
9, 22083, Note_off_c, 7, 70, 64
9, 22083, Note_on_c, 7, 44, 63
9, 22086, Note_off_c, 7, 44, 64
9, 22174, Note_on_c, 7, 70, 85
9, 22180, Note_off_c, 7, 70, 64
9, 22272, Note_on_c, 7, 33, 114
9, 22272, Note_on_c, 7, 60, 49
9, 22274, Note_off_c, 7, 60, 64
9, 22274, Note_off_c, 7, 33, 64
9, 22274, Note_on_c, 7, 43, 63
9, 22280, Note_off_c, 7, 43, 64
9, 22463, Note_on_c, 7, 70, 99
9, 22466, Note_off_c, 7, 70, 64
9, 22466, Note_on_c, 7, 44, 63
9, 22472, Note_off_c, 7, 44, 64
9, 22560, Note_on_c, 7, 60, 40
9, 22563, Note_off_c, 7, 60, 64
9, 22654, Note_on_c, 7, 33, 114
9, 22660, Note_off_c, 7, 33, 64
9, 22660, Note_on_c, 7, 40, 114
9, 22660, Note_on_c, 7, 43, 67
9, 22663, Note_off_c, 7, 43, 64
9, 22663, Note_off_c, 7, 40, 64
9, 22663, Note_on_c, 7, 37, 99
9, 22666, Note_off_c, 7, 37, 64
9, 22752, Note_on_c, 7, 60, 40
9, 22754, Note_off_c, 7, 60, 64
9, 22846, Note_on_c, 7, 70, 81
9, 22846, Note_on_c, 7, 62, 49
9, 22852, Note_off_c, 7, 62, 64
9, 22852, Note_off_c, 7, 70, 64
9, 22852, Note_on_c, 7, 44, 67
9, 22854, Note_off_c, 7, 44, 64
9, 22943, Note_on_c, 7, 70, 99
9, 22946, Note_off_c, 7, 70, 64
9, 23040, Note_on_c, 7, 33, 110
9, 23040, Note_on_c, 7, 67, 74
9, 23040, Note_on_c, 7, 60, 54
9, 23043, Note_off_c, 7, 60, 64
9, 23043, Note_off_c, 7, 67, 64
9, 23043, Note_off_c, 7, 33, 64
9, 23043, Note_on_c, 7, 43, 76
9, 23046, Note_off_c, 7, 43, 64
9, 23132, Note_on_c, 7, 67, 28
9, 23134, Note_off_c, 7, 67, 64
9, 23212, Note_on_c, 7, 67, 102
9, 23220, Note_off_c, 7, 67, 64
9, 23232, Note_on_c, 7, 70, 99
9, 23234, Note_off_c, 7, 70, 64
9, 23234, Note_on_c, 7, 44, 63
9, 23240, Note_off_c, 7, 44, 64
9, 23310, Note_on_c, 7, 67, 102
9, 23312, Note_off_c, 7, 67, 64
9, 23326, Note_on_c, 7, 60, 54
9, 23332, Note_off_c, 7, 60, 64
9, 23423, Note_on_c, 7, 33, 114
9, 23426, Note_off_c, 7, 33, 64
9, 23426, Note_on_c, 7, 40, 110
9, 23426, Note_on_c, 7, 43, 60
9, 23432, Note_off_c, 7, 43, 64
9, 23432, Note_off_c, 7, 40, 64
9, 23432, Note_on_c, 7, 37, 95
9, 23434, Note_off_c, 7, 37, 64
9, 23520, Note_on_c, 7, 60, 43
9, 23523, Note_off_c, 7, 60, 64
9, 23612, Note_on_c, 7, 70, 81
9, 23612, Note_on_c, 7, 62, 49
9, 23620, Note_off_c, 7, 62, 64
9, 23620, Note_off_c, 7, 70, 64
9, 23710, Note_on_c, 7, 70, 99
9, 23712, Note_off_c, 7, 70, 64
9, 23806, Note_on_c, 7, 33, 110
9, 23806, Note_on_c, 7, 60, 54
9, 23810, Note_off_c, 7, 60, 64
9, 23810, Note_off_c, 7, 33, 64
9, 24000, Note_on_c, 7, 70, 94
9, 24003, Note_off_c, 7, 70, 64
9, 24003, Note_on_c, 7, 44, 67
9, 24006, Note_off_c, 7, 44, 64
9, 24094, Note_on_c, 7, 60, 43
9, 24100, Note_off_c, 7, 60, 64
9, 24192, Note_on_c, 7, 33, 114
9, 24194, Note_off_c, 7, 33, 64
9, 24194, Note_on_c, 7, 40, 110
9, 24194, Note_on_c, 7, 43, 67
9, 24200, Note_off_c, 7, 43, 64
9, 24200, Note_off_c, 7, 40, 64
9, 24200, Note_on_c, 7, 37, 95
9, 24203, Note_off_c, 7, 37, 64
9, 24286, Note_on_c, 7, 60, 49
9, 24292, Note_off_c, 7, 60, 64
9, 24383, Note_on_c, 7, 70, 94
9, 24383, Note_on_c, 7, 62, 54
9, 24386, Note_off_c, 7, 62, 64
9, 24386, Note_off_c, 7, 70, 64
9, 24386, Note_on_c, 7, 44, 63
9, 24392, Note_off_c, 7, 44, 64
9, 24574, Note_on_c, 7, 33, 110
9, 24574, Note_on_c, 7, 60, 54
9, 24580, Note_off_c, 7, 60, 64
9, 24580, Note_off_c, 7, 33, 64
9, 24580, Note_on_c, 7, 43, 63
9, 24583, Note_off_c, 7, 43, 64
9, 24766, Note_on_c, 7, 70, 94
9, 24772, Note_off_c, 7, 70, 64
9, 24772, Note_on_c, 7, 44, 60
9, 24774, Note_off_c, 7, 44, 64
9, 24863, Note_on_c, 7, 60, 33
9, 24866, Note_off_c, 7, 60, 64
9, 24960, Note_on_c, 7, 33, 110
9, 24963, Note_off_c, 7, 33, 64
9, 24963, Note_on_c, 7, 40, 110
9, 24963, Note_on_c, 7, 43, 63
9, 24966, Note_off_c, 7, 43, 64
9, 24966, Note_off_c, 7, 40, 64
9, 24966, Note_on_c, 7, 37, 95
9, 24972, Note_off_c, 7, 37, 64
9, 25054, Note_on_c, 7, 60, 36
9, 25060, Note_off_c, 7, 60, 64
9, 25152, Note_on_c, 7, 70, 78
9, 25152, Note_on_c, 7, 62, 49
9, 25154, Note_off_c, 7, 62, 64
9, 25154, Note_off_c, 7, 70, 64
9, 25154, Note_on_c, 7, 44, 54
9, 25160, Note_off_c, 7, 44, 64
9, 25246, Note_on_c, 7, 70, 94
9, 25252, Note_off_c, 7, 70, 64
9, 25343, Note_on_c, 7, 33, 110
9, 25343, Note_on_c, 7, 60, 54
9, 25346, Note_off_c, 7, 60, 64
9, 25346, Note_off_c, 7, 33, 64
9, 25346, Note_on_c, 7, 43, 63
9, 25352, Note_off_c, 7, 43, 64
9, 25534, Note_on_c, 7, 70, 94
9, 25540, Note_off_c, 7, 70, 64
9, 25540, Note_on_c, 7, 44, 54
9, 25543, Note_off_c, 7, 44, 64
9, 25632, Note_on_c, 7, 60, 43
9, 25634, Note_off_c, 7, 60, 64
9, 25726, Note_on_c, 7, 33, 114
9, 25732, Note_off_c, 7, 33, 64
9, 25732, Note_on_c, 7, 40, 110
9, 25732, Note_on_c, 7, 43, 63
9, 25734, Note_off_c, 7, 43, 64
9, 25734, Note_off_c, 7, 40, 64
9, 25734, Note_on_c, 7, 37, 95
9, 25740, Note_off_c, 7, 37, 64
9, 25823, Note_on_c, 7, 60, 40
9, 25826, Note_off_c, 7, 60, 64
9, 25920, Note_on_c, 7, 70, 78
9, 25920, Note_on_c, 7, 62, 49
9, 25923, Note_off_c, 7, 62, 64
9, 25923, Note_off_c, 7, 70, 64
9, 25923, Note_on_c, 7, 44, 60
9, 25926, Note_off_c, 7, 44, 64
9, 26012, Note_on_c, 7, 70, 99
9, 26020, Note_off_c, 7, 70, 64
9, 26110, Note_on_c, 7, 33, 114
9, 26110, Note_on_c, 7, 67, 74
9, 26110, Note_on_c, 7, 60, 54
9, 26112, Note_off_c, 7, 60, 64
9, 26112, Note_off_c, 7, 67, 64
9, 26112, Note_off_c, 7, 33, 64
9, 26112, Note_on_c, 7, 43, 63
9, 26120, Note_off_c, 7, 43, 64
9, 26203, Note_on_c, 7, 67, 28
9, 26206, Note_off_c, 7, 67, 64
9, 26286, Note_on_c, 7, 67, 102
9, 26292, Note_off_c, 7, 67, 64
9, 26303, Note_on_c, 7, 70, 94
9, 26306, Note_off_c, 7, 70, 64
9, 26306, Note_on_c, 7, 44, 67
9, 26310, Note_off_c, 7, 44, 64
9, 26383, Note_on_c, 7, 67, 102
9, 26386, Note_off_c, 7, 67, 64
9, 26400, Note_on_c, 7, 60, 43
9, 26403, Note_off_c, 7, 60, 64
9, 26494, Note_on_c, 7, 33, 114
9, 26500, Note_off_c, 7, 33, 64
9, 26500, Note_on_c, 7, 40, 114
9, 26500, Note_on_c, 7, 43, 76
9, 26503, Note_off_c, 7, 43, 64
9, 26503, Note_off_c, 7, 40, 64
9, 26503, Note_on_c, 7, 37, 99
9, 26506, Note_off_c, 7, 37, 64
9, 26592, Note_on_c, 7, 60, 40
9, 26594, Note_off_c, 7, 60, 64
9, 26686, Note_on_c, 7, 70, 72
9, 26686, Note_on_c, 7, 62, 40
9, 26692, Note_off_c, 7, 62, 64
9, 26692, Note_off_c, 7, 70, 64
9, 26783, Note_on_c, 7, 70, 85
9, 26786, Note_off_c, 7, 70, 64
9, 26880, Note_on_c, 7, 33, 110
9, 26880, Note_on_c, 7, 60, 54
9, 26883, Note_off_c, 7, 60, 64
9, 26883, Note_off_c, 7, 33, 64
9, 27072, Note_on_c, 7, 70, 94
9, 27074, Note_off_c, 7, 70, 64
9, 27074, Note_on_c, 7, 44, 63
9, 27080, Note_off_c, 7, 44, 64
9, 27166, Note_on_c, 7, 60, 40
9, 27172, Note_off_c, 7, 60, 64
9, 27263, Note_on_c, 7, 33, 114
9, 27266, Note_off_c, 7, 33, 64
9, 27266, Note_on_c, 7, 40, 114
9, 27266, Note_on_c, 7, 43, 63
9, 27272, Note_off_c, 7, 43, 64
9, 27272, Note_off_c, 7, 40, 64
9, 27272, Note_on_c, 7, 37, 99
9, 27274, Note_off_c, 7, 37, 64
9, 27360, Note_on_c, 7, 60, 43
9, 27363, Note_off_c, 7, 60, 64
9, 27454, Note_on_c, 7, 70, 94
9, 27454, Note_on_c, 7, 62, 54
9, 27460, Note_off_c, 7, 62, 64
9, 27460, Note_off_c, 7, 70, 64
9, 27460, Note_on_c, 7, 44, 63
9, 27463, Note_off_c, 7, 44, 64
9, 27646, Note_on_c, 7, 33, 114
9, 27646, Note_on_c, 7, 60, 49
9, 27652, Note_off_c, 7, 60, 64
9, 27652, Note_off_c, 7, 33, 64
9, 27652, Note_on_c, 7, 43, 67
9, 27654, Note_off_c, 7, 43, 64
9, 27840, Note_on_c, 7, 70, 99
9, 27843, Note_off_c, 7, 70, 64
9, 27843, Note_on_c, 7, 44, 63
9, 27846, Note_off_c, 7, 44, 64
9, 27934, Note_on_c, 7, 60, 40
9, 27940, Note_off_c, 7, 60, 64
9, 28032, Note_on_c, 7, 33, 110
9, 28034, Note_off_c, 7, 33, 64
9, 28034, Note_on_c, 7, 40, 114
9, 28034, Note_on_c, 7, 43, 63
9, 28040, Note_off_c, 7, 43, 64
9, 28040, Note_off_c, 7, 40, 64
9, 28040, Note_on_c, 7, 37, 99
9, 28043, Note_off_c, 7, 37, 64
9, 28126, Note_on_c, 7, 60, 43
9, 28132, Note_off_c, 7, 60, 64
9, 28223, Note_on_c, 7, 70, 78
9, 28223, Note_on_c, 7, 62, 40
9, 28226, Note_off_c, 7, 62, 64
9, 28226, Note_off_c, 7, 70, 64
9, 28226, Note_on_c, 7, 44, 63
9, 28232, Note_off_c, 7, 44, 64
9, 28320, Note_on_c, 7, 70, 85
9, 28323, Note_off_c, 7, 70, 64
9, 28412, Note_on_c, 7, 33, 114
9, 28412, Note_on_c, 7, 60, 49
9, 28420, Note_off_c, 7, 60, 64
9, 28420, Note_off_c, 7, 33, 64
9, 28420, Note_on_c, 7, 43, 63
9, 28423, Note_off_c, 7, 43, 64
9, 28606, Note_on_c, 7, 70, 99
9, 28610, Note_off_c, 7, 70, 64
9, 28610, Note_on_c, 7, 44, 63
9, 28612, Note_off_c, 7, 44, 64
9, 28703, Note_on_c, 7, 60, 40
9, 28706, Note_off_c, 7, 60, 64
9, 28800, Note_on_c, 7, 33, 114
9, 28803, Note_off_c, 7, 33, 64
9, 28803, Note_on_c, 7, 40, 114
9, 28803, Note_on_c, 7, 43, 67
9, 28806, Note_off_c, 7, 43, 64
9, 28806, Note_off_c, 7, 40, 64
9, 28806, Note_on_c, 7, 37, 99
9, 28810, Note_off_c, 7, 37, 64
9, 28894, Note_on_c, 7, 60, 40
9, 28900, Note_off_c, 7, 60, 64
9, 28992, Note_on_c, 7, 70, 81
9, 28992, Note_on_c, 7, 62, 49
9, 28994, Note_off_c, 7, 62, 64
9, 28994, Note_off_c, 7, 70, 64
9, 28994, Note_on_c, 7, 44, 67
9, 29000, Note_off_c, 7, 44, 64
9, 29086, Note_on_c, 7, 70, 99
9, 29092, Note_off_c, 7, 70, 64
9, 29183, Note_on_c, 7, 33, 110
9, 29183, Note_on_c, 7, 67, 74
9, 29183, Note_on_c, 7, 60, 54
9, 29186, Note_off_c, 7, 60, 64
9, 29186, Note_off_c, 7, 67, 64
9, 29186, Note_off_c, 7, 33, 64
9, 29186, Note_on_c, 7, 43, 76
9, 29192, Note_off_c, 7, 43, 64
9, 29274, Note_on_c, 7, 67, 28
9, 29280, Note_off_c, 7, 67, 64
9, 29360, Note_on_c, 7, 67, 102
9, 29363, Note_off_c, 7, 67, 64
9, 29374, Note_on_c, 7, 70, 99
9, 29380, Note_off_c, 7, 70, 64
9, 29380, Note_on_c, 7, 44, 63
9, 29383, Note_off_c, 7, 44, 64
9, 29454, Note_on_c, 7, 67, 102
9, 29460, Note_off_c, 7, 67, 64
9, 29472, Note_on_c, 7, 60, 54
9, 29474, Note_off_c, 7, 60, 64
9, 29566, Note_on_c, 7, 33, 114
9, 29572, Note_off_c, 7, 33, 64
9, 29572, Note_on_c, 7, 40, 110
9, 29572, Note_on_c, 7, 43, 60
9, 29574, Note_off_c, 7, 43, 64
9, 29574, Note_off_c, 7, 40, 64
9, 29574, Note_on_c, 7, 37, 95
9, 29580, Note_off_c, 7, 37, 64
9, 29663, Note_on_c, 7, 60, 43
9, 29666, Note_off_c, 7, 60, 64
9, 29760, Note_on_c, 7, 70, 81
9, 29760, Note_on_c, 7, 62, 49
9, 29763, Note_off_c, 7, 62, 64
9, 29763, Note_off_c, 7, 70, 64
9, 29854, Note_on_c, 7, 70, 99
9, 29860, Note_off_c, 7, 70, 64
9, 29952, Note_on_c, 7, 33, 110
9, 29952, Note_on_c, 7, 60, 54
9, 29954, Note_off_c, 7, 60, 64
9, 29954, Note_off_c, 7, 33, 64
9, 30143, Note_on_c, 7, 70, 94
9, 30146, Note_off_c, 7, 70, 64
9, 30146, Note_on_c, 7, 44, 67
9, 30152, Note_off_c, 7, 44, 64
9, 30240, Note_on_c, 7, 60, 43
9, 30243, Note_off_c, 7, 60, 64
9, 30334, Note_on_c, 7, 33, 114
9, 30340, Note_off_c, 7, 33, 64
9, 30340, Note_on_c, 7, 40, 110
9, 30340, Note_on_c, 7, 43, 67
9, 30343, Note_off_c, 7, 43, 64
9, 30343, Note_off_c, 7, 40, 64
9, 30343, Note_on_c, 7, 37, 95
9, 30346, Note_off_c, 7, 37, 64
9, 30432, Note_on_c, 7, 60, 49
9, 30434, Note_off_c, 7, 60, 64
9, 30526, Note_on_c, 7, 70, 94
9, 30526, Note_on_c, 7, 62, 54
9, 30532, Note_off_c, 7, 62, 64
9, 30532, Note_off_c, 7, 70, 64
9, 30532, Note_on_c, 7, 44, 63
9, 30534, Note_off_c, 7, 44, 64
9, 30720, Note_on_c, 7, 33, 110
9, 30720, Note_on_c, 7, 60, 54
9, 30723, Note_off_c, 7, 60, 64
9, 30723, Note_off_c, 7, 33, 64
9, 30723, Note_on_c, 7, 43, 63
9, 30726, Note_off_c, 7, 43, 64
9, 30910, Note_on_c, 7, 70, 94
9, 30912, Note_off_c, 7, 70, 64
9, 30912, Note_on_c, 7, 44, 60
9, 30920, Note_off_c, 7, 44, 64
9, 31006, Note_on_c, 7, 60, 33
9, 31010, Note_off_c, 7, 60, 64
9, 31103, Note_on_c, 7, 33, 110
9, 31106, Note_off_c, 7, 33, 64
9, 31106, Note_on_c, 7, 40, 110
9, 31106, Note_on_c, 7, 43, 63
9, 31110, Note_off_c, 7, 43, 64
9, 31110, Note_off_c, 7, 40, 64
9, 31110, Note_on_c, 7, 37, 95
9, 31112, Note_off_c, 7, 37, 64
9, 31200, Note_on_c, 7, 60, 36
9, 31203, Note_off_c, 7, 60, 64
9, 31294, Note_on_c, 7, 70, 78
9, 31294, Note_on_c, 7, 62, 49
9, 31300, Note_off_c, 7, 62, 64
9, 31300, Note_off_c, 7, 70, 64
9, 31300, Note_on_c, 7, 44, 54
9, 31303, Note_off_c, 7, 44, 64
9, 31392, Note_on_c, 7, 70, 94
9, 31394, Note_off_c, 7, 70, 64
9, 31486, Note_on_c, 7, 33, 110
9, 31486, Note_on_c, 7, 60, 54
9, 31492, Note_off_c, 7, 60, 64
9, 31492, Note_off_c, 7, 33, 64
9, 31492, Note_on_c, 7, 43, 63
9, 31494, Note_off_c, 7, 43, 64
9, 31680, Note_on_c, 7, 70, 94
9, 31683, Note_off_c, 7, 70, 64
9, 31683, Note_on_c, 7, 44, 54
9, 31686, Note_off_c, 7, 44, 64
9, 31774, Note_on_c, 7, 60, 43
9, 31780, Note_off_c, 7, 60, 64
9, 31872, Note_on_c, 7, 33, 114
9, 31874, Note_off_c, 7, 33, 64
9, 31874, Note_on_c, 7, 40, 110
9, 31874, Note_on_c, 7, 43, 63
9, 31880, Note_off_c, 7, 43, 64
9, 31880, Note_off_c, 7, 40, 64
9, 31880, Note_on_c, 7, 37, 95
9, 31883, Note_off_c, 7, 37, 64
9, 31966, Note_on_c, 7, 60, 40
9, 31972, Note_off_c, 7, 60, 64
9, 32063, Note_on_c, 7, 70, 78
9, 32063, Note_on_c, 7, 62, 49
9, 32066, Note_off_c, 7, 62, 64
9, 32066, Note_off_c, 7, 70, 64
9, 32066, Note_on_c, 7, 44, 60
9, 32072, Note_off_c, 7, 44, 64
9, 32160, Note_on_c, 7, 70, 99
9, 32163, Note_off_c, 7, 70, 64
9, 32254, Note_on_c, 7, 33, 114
9, 32254, Note_on_c, 7, 67, 74
9, 32254, Note_on_c, 7, 60, 54
9, 32260, Note_off_c, 7, 60, 64
9, 32260, Note_off_c, 7, 67, 64
9, 32260, Note_off_c, 7, 33, 64
9, 32260, Note_on_c, 7, 43, 63
9, 32263, Note_off_c, 7, 43, 64
9, 32346, Note_on_c, 7, 67, 28
9, 32352, Note_off_c, 7, 67, 64
9, 32432, Note_on_c, 7, 67, 102
9, 32434, Note_off_c, 7, 67, 64
9, 32446, Note_on_c, 7, 70, 94
9, 32452, Note_off_c, 7, 70, 64
9, 32452, Note_on_c, 7, 44, 67
9, 32454, Note_off_c, 7, 44, 64
9, 32526, Note_on_c, 7, 67, 102
9, 32532, Note_off_c, 7, 67, 64
9, 32543, Note_on_c, 7, 60, 43
9, 32546, Note_off_c, 7, 60, 64
9, 32640, Note_on_c, 7, 33, 114
9, 32643, Note_off_c, 7, 33, 64
9, 32643, Note_on_c, 7, 40, 114
9, 32643, Note_on_c, 7, 43, 76
9, 32646, Note_off_c, 7, 43, 64
9, 32646, Note_off_c, 7, 40, 64
9, 32646, Note_on_c, 7, 37, 99
9, 32652, Note_off_c, 7, 37, 64
9, 32734, Note_on_c, 7, 60, 40
9, 32740, Note_off_c, 7, 60, 64
9, 32832, Note_on_c, 7, 70, 72
9, 32832, Note_on_c, 7, 62, 40
9, 32834, Note_off_c, 7, 62, 64
9, 32834, Note_off_c, 7, 70, 64
9, 32926, Note_on_c, 7, 70, 85
9, 32932, Note_off_c, 7, 70, 64
9, 33023, Note_on_c, 7, 33, 110
9, 33023, Note_on_c, 7, 60, 54
9, 33026, Note_off_c, 7, 60, 64
9, 33026, Note_off_c, 7, 33, 64
9, 33212, Note_on_c, 7, 70, 94
9, 33220, Note_off_c, 7, 70, 64
9, 33220, Note_on_c, 7, 44, 63
9, 33223, Note_off_c, 7, 44, 64
9, 33310, Note_on_c, 7, 60, 40
9, 33312, Note_off_c, 7, 60, 64
9, 33406, Note_on_c, 7, 33, 114
9, 33410, Note_off_c, 7, 33, 64
9, 33410, Note_on_c, 7, 40, 114
9, 33410, Note_on_c, 7, 43, 63
9, 33412, Note_off_c, 7, 43, 64
9, 33412, Note_off_c, 7, 40, 64
9, 33412, Note_on_c, 7, 37, 99
9, 33420, Note_off_c, 7, 37, 64
9, 33503, Note_on_c, 7, 60, 43
9, 33506, Note_off_c, 7, 60, 64
9, 33600, Note_on_c, 7, 70, 94
9, 33600, Note_on_c, 7, 62, 54
9, 33603, Note_off_c, 7, 62, 64
9, 33603, Note_off_c, 7, 70, 64
9, 33603, Note_on_c, 7, 44, 63
9, 33606, Note_off_c, 7, 44, 64
9, 33792, Note_on_c, 7, 33, 114
9, 33792, Note_on_c, 7, 60, 49
9, 33794, Note_off_c, 7, 60, 64
9, 33794, Note_off_c, 7, 33, 64
9, 33794, Note_on_c, 7, 43, 67
9, 33800, Note_off_c, 7, 43, 64
9, 33983, Note_on_c, 7, 70, 99
9, 33986, Note_off_c, 7, 70, 64
9, 33986, Note_on_c, 7, 44, 63
9, 33992, Note_off_c, 7, 44, 64
9, 34080, Note_on_c, 7, 60, 40
9, 34083, Note_off_c, 7, 60, 64
9, 34174, Note_on_c, 7, 33, 110
9, 34180, Note_off_c, 7, 33, 64
9, 34180, Note_on_c, 7, 40, 114
9, 34180, Note_on_c, 7, 43, 63
9, 34183, Note_off_c, 7, 43, 64
9, 34183, Note_off_c, 7, 40, 64
9, 34183, Note_on_c, 7, 37, 99
9, 34186, Note_off_c, 7, 37, 64
9, 34272, Note_on_c, 7, 60, 43
9, 34274, Note_off_c, 7, 60, 64
9, 34366, Note_on_c, 7, 70, 78
9, 34366, Note_on_c, 7, 62, 40
9, 34372, Note_off_c, 7, 62, 64
9, 34372, Note_off_c, 7, 70, 64
9, 34372, Note_on_c, 7, 44, 63
9, 34374, Note_off_c, 7, 44, 64
9, 34463, Note_on_c, 7, 70, 85
9, 34466, Note_off_c, 7, 70, 64
9, 34560, Note_on_c, 7, 33, 114
9, 34560, Note_on_c, 7, 60, 49
9, 34563, Note_off_c, 7, 60, 64
9, 34563, Note_off_c, 7, 33, 64
9, 34563, Note_on_c, 7, 43, 63
9, 34566, Note_off_c, 7, 43, 64
9, 34660, Note_on_c, 7, 40, 110
9, 34663, Note_off_c, 7, 40, 64
9, 34663, Note_on_c, 7, 37, 95
9, 34666, Note_off_c, 7, 37, 64
9, 34752, Note_on_c, 7, 70, 99
9, 34754, Note_off_c, 7, 70, 64
9, 34754, Note_on_c, 7, 44, 63
9, 34760, Note_off_c, 7, 44, 64
9, 34846, Note_on_c, 7, 60, 40
9, 34852, Note_off_c, 7, 60, 64
9, 34943, Note_on_c, 7, 33, 114
9, 34946, Note_off_c, 7, 33, 64
9, 34946, Note_on_c, 7, 40, 114
9, 34946, Note_on_c, 7, 43, 67
9, 34952, Note_off_c, 7, 43, 64
9, 34952, Note_off_c, 7, 40, 64
9, 34952, Note_on_c, 7, 37, 99
9, 34954, Note_off_c, 7, 37, 64
9, 35040, Note_on_c, 7, 60, 40
9, 35043, Note_off_c, 7, 60, 64
9, 35134, Note_on_c, 7, 70, 81
9, 35134, Note_on_c, 7, 62, 49
9, 35140, Note_off_c, 7, 62, 64
9, 35140, Note_off_c, 7, 70, 64
9, 35140, Note_on_c, 7, 44, 67
9, 35143, Note_off_c, 7, 44, 64
9, 35232, Note_on_c, 7, 70, 99
9, 35234, Note_off_c, 7, 70, 64
9, 35234, Note_on_c, 7, 40, 110
9, 35240, Note_off_c, 7, 40, 64
9, 35240, Note_on_c, 7, 37, 95
9, 35243, Note_off_c, 7, 37, 64
9, 35326, Note_on_c, 7, 33, 110
9, 35326, Note_on_c, 7, 67, 74
9, 35326, Note_on_c, 7, 60, 54
9, 35332, Note_off_c, 7, 60, 64
9, 35332, Note_off_c, 7, 67, 64
9, 35332, Note_off_c, 7, 33, 64
9, 35332, Note_on_c, 7, 43, 76
9, 35334, Note_off_c, 7, 43, 64
9, 35420, Note_on_c, 7, 67, 28
9, 35423, Note_off_c, 7, 67, 64
9, 35503, Note_on_c, 7, 67, 102
9, 35506, Note_off_c, 7, 67, 64
9, 35520, Note_on_c, 7, 70, 99
9, 35523, Note_off_c, 7, 70, 64
9, 35523, Note_on_c, 7, 44, 63
9, 35526, Note_off_c, 7, 44, 64
9, 35600, Note_on_c, 7, 67, 102
9, 35603, Note_off_c, 7, 67, 64
9, 35612, Note_on_c, 7, 60, 54
9, 35620, Note_off_c, 7, 60, 64
9, 35710, Note_on_c, 7, 33, 114
9, 35712, Note_off_c, 7, 33, 64
9, 35712, Note_on_c, 7, 40, 110
9, 35712, Note_on_c, 7, 43, 60
9, 35720, Note_off_c, 7, 43, 64
9, 35720, Note_off_c, 7, 40, 64
9, 35720, Note_on_c, 7, 37, 95
9, 35723, Note_off_c, 7, 37, 64
9, 35806, Note_on_c, 7, 60, 43
9, 35810, Note_off_c, 7, 60, 64
9, 35892, Note_on_c, 7, 62, 49
9, 35894, Note_off_c, 7, 62, 64
9, 35894, Note_on_c, 7, 70, 81
9, 35900, Note_off_c, 7, 70, 64
9, 36000, Note_on_c, 7, 70, 99
9, 36003, Note_off_c, 7, 70, 64
9, 36094, Note_on_c, 7, 33, 110
9, 36094, Note_on_c, 7, 60, 54
9, 36100, Note_off_c, 7, 60, 64
9, 36100, Note_off_c, 7, 33, 64
9, 36283, Note_on_c, 7, 44, 67
9, 36286, Note_off_c, 7, 44, 64
9, 36286, Note_on_c, 7, 70, 94
9, 36292, Note_off_c, 7, 70, 64
9, 36383, Note_on_c, 7, 60, 43
9, 36386, Note_off_c, 7, 60, 64
9, 36480, Note_on_c, 7, 33, 114
9, 36483, Note_off_c, 7, 33, 64
9, 36483, Note_on_c, 7, 40, 110
9, 36483, Note_on_c, 7, 43, 67
9, 36486, Note_off_c, 7, 43, 64
9, 36486, Note_off_c, 7, 40, 64
9, 36486, Note_on_c, 7, 37, 95
9, 36492, Note_off_c, 7, 37, 64
9, 36574, Note_on_c, 7, 60, 49
9, 36580, Note_off_c, 7, 60, 64
9, 36672, Note_on_c, 7, 70, 94
9, 36672, Note_on_c, 7, 62, 54
9, 36674, Note_off_c, 7, 62, 64
9, 36674, Note_off_c, 7, 70, 64
9, 36674, Note_on_c, 7, 44, 63
9, 36680, Note_off_c, 7, 44, 64
9, 36863, Note_on_c, 7, 33, 110
9, 36863, Note_on_c, 7, 60, 54
9, 36866, Note_off_c, 7, 60, 64
9, 36866, Note_off_c, 7, 33, 64
9, 36866, Note_on_c, 7, 43, 63
9, 36872, Note_off_c, 7, 43, 64
9, 37054, Note_on_c, 7, 70, 94
9, 37060, Note_off_c, 7, 70, 64
9, 37060, Note_on_c, 7, 44, 60
9, 37063, Note_off_c, 7, 44, 64
9, 37152, Note_on_c, 7, 60, 33
9, 37154, Note_off_c, 7, 60, 64
9, 37246, Note_on_c, 7, 33, 110
9, 37252, Note_off_c, 7, 33, 64
9, 37252, Note_on_c, 7, 40, 110
9, 37252, Note_on_c, 7, 43, 63
9, 37254, Note_off_c, 7, 43, 64
9, 37254, Note_off_c, 7, 40, 64
9, 37254, Note_on_c, 7, 37, 95
9, 37260, Note_off_c, 7, 37, 64
9, 37343, Note_on_c, 7, 60, 36
9, 37346, Note_off_c, 7, 60, 64
9, 37440, Note_on_c, 7, 70, 78
9, 37440, Note_on_c, 7, 62, 49
9, 37443, Note_off_c, 7, 62, 64
9, 37443, Note_off_c, 7, 70, 64
9, 37443, Note_on_c, 7, 44, 54
9, 37446, Note_off_c, 7, 44, 64
9, 37534, Note_on_c, 7, 70, 94
9, 37540, Note_off_c, 7, 70, 64
9, 37632, Note_on_c, 7, 33, 110
9, 37632, Note_on_c, 7, 60, 54
9, 37634, Note_off_c, 7, 60, 64
9, 37634, Note_off_c, 7, 33, 64
9, 37634, Note_on_c, 7, 43, 63
9, 37640, Note_off_c, 7, 43, 64
9, 37823, Note_on_c, 7, 70, 94
9, 37826, Note_off_c, 7, 70, 64
9, 37826, Note_on_c, 7, 44, 54
9, 37832, Note_off_c, 7, 44, 64
9, 37920, Note_on_c, 7, 60, 43
9, 37923, Note_off_c, 7, 60, 64
9, 38012, Note_on_c, 7, 33, 114
9, 38020, Note_off_c, 7, 33, 64
9, 38020, Note_on_c, 7, 40, 110
9, 38020, Note_on_c, 7, 43, 63
9, 38023, Note_off_c, 7, 43, 64
9, 38023, Note_off_c, 7, 40, 64
9, 38023, Note_on_c, 7, 37, 95
9, 38026, Note_off_c, 7, 37, 64
9, 38110, Note_on_c, 7, 60, 40
9, 38112, Note_off_c, 7, 60, 64
9, 38206, Note_on_c, 7, 70, 78
9, 38206, Note_on_c, 7, 62, 49
9, 38210, Note_off_c, 7, 62, 64
9, 38210, Note_off_c, 7, 70, 64
9, 38210, Note_on_c, 7, 44, 60
9, 38212, Note_off_c, 7, 44, 64
9, 38303, Note_on_c, 7, 70, 99
9, 38306, Note_off_c, 7, 70, 64
9, 38400, Note_on_c, 7, 33, 114
9, 38400, Note_on_c, 7, 67, 74
9, 38400, Note_on_c, 7, 60, 54
9, 38403, Note_off_c, 7, 60, 64
9, 38403, Note_off_c, 7, 67, 64
9, 38403, Note_off_c, 7, 33, 64
9, 38403, Note_on_c, 7, 43, 63
9, 38406, Note_off_c, 7, 43, 64
9, 38492, Note_on_c, 7, 67, 28
9, 38494, Note_off_c, 7, 67, 64
9, 38574, Note_on_c, 7, 67, 102
9, 38580, Note_off_c, 7, 67, 64
9, 38592, Note_on_c, 7, 70, 94
9, 38594, Note_off_c, 7, 70, 64
9, 38594, Note_on_c, 7, 44, 67
9, 38600, Note_off_c, 7, 44, 64
9, 38672, Note_on_c, 7, 67, 102
9, 38674, Note_off_c, 7, 67, 64
9, 38686, Note_on_c, 7, 60, 43
9, 38692, Note_off_c, 7, 60, 64
9, 38783, Note_on_c, 7, 33, 114
9, 38786, Note_off_c, 7, 33, 64
9, 38786, Note_on_c, 7, 40, 114
9, 38786, Note_on_c, 7, 43, 76
9, 38792, Note_off_c, 7, 43, 64
9, 38792, Note_off_c, 7, 40, 64
9, 38792, Note_on_c, 7, 37, 99
9, 38794, Note_off_c, 7, 37, 64
9, 38880, Note_on_c, 7, 60, 40
9, 38883, Note_off_c, 7, 60, 64
9, 38974, Note_on_c, 7, 70, 72
9, 38974, Note_on_c, 7, 62, 40
9, 38980, Note_off_c, 7, 62, 64
9, 38980, Note_off_c, 7, 70, 64
9, 39072, Note_on_c, 7, 70, 85
9, 39074, Note_off_c, 7, 70, 64
9, 39166, Note_on_c, 7, 33, 110
9, 39166, Note_on_c, 7, 60, 54
9, 39172, Note_off_c, 7, 60, 64
9, 39172, Note_off_c, 7, 33, 64
9, 39360, Note_on_c, 7, 70, 94
9, 39363, Note_off_c, 7, 70, 64
9, 39363, Note_on_c, 7, 44, 63
9, 39366, Note_off_c, 7, 44, 64
9, 39454, Note_on_c, 7, 60, 40
9, 39460, Note_off_c, 7, 60, 64
9, 39552, Note_on_c, 7, 33, 114
9, 39554, Note_off_c, 7, 33, 64
9, 39554, Note_on_c, 7, 40, 114
9, 39554, Note_on_c, 7, 43, 63
9, 39560, Note_off_c, 7, 43, 64
9, 39560, Note_off_c, 7, 40, 64
9, 39560, Note_on_c, 7, 37, 99
9, 39563, Note_off_c, 7, 37, 64
9, 39646, Note_on_c, 7, 60, 43
9, 39652, Note_off_c, 7, 60, 64
9, 39743, Note_on_c, 7, 70, 94
9, 39743, Note_on_c, 7, 62, 54
9, 39746, Note_off_c, 7, 62, 64
9, 39746, Note_off_c, 7, 70, 64
9, 39746, Note_on_c, 7, 44, 63
9, 39752, Note_off_c, 7, 44, 64
9, 39934, Note_on_c, 7, 33, 114
9, 39934, Note_on_c, 7, 60, 49
9, 39940, Note_off_c, 7, 60, 64
9, 39940, Note_off_c, 7, 33, 64
9, 39940, Note_on_c, 7, 43, 67
9, 39943, Note_off_c, 7, 43, 64
9, 40126, Note_on_c, 7, 70, 99
9, 40132, Note_off_c, 7, 70, 64
9, 40132, Note_on_c, 7, 44, 63
9, 40134, Note_off_c, 7, 44, 64
9, 40223, Note_on_c, 7, 60, 40
9, 40226, Note_off_c, 7, 60, 64
9, 40320, Note_on_c, 7, 33, 110
9, 40323, Note_off_c, 7, 33, 64
9, 40323, Note_on_c, 7, 40, 114
9, 40323, Note_on_c, 7, 43, 63
9, 40326, Note_off_c, 7, 43, 64
9, 40326, Note_off_c, 7, 40, 64
9, 40326, Note_on_c, 7, 37, 99
9, 40332, Note_off_c, 7, 37, 64
9, 40412, Note_on_c, 7, 60, 43
9, 40420, Note_off_c, 7, 60, 64
9, 40510, Note_on_c, 7, 70, 78
9, 40510, Note_on_c, 7, 62, 40
9, 40512, Note_off_c, 7, 62, 64
9, 40512, Note_off_c, 7, 70, 64
9, 40512, Note_on_c, 7, 44, 63
9, 40520, Note_off_c, 7, 44, 64
9, 40606, Note_on_c, 7, 70, 85
9, 40610, Note_off_c, 7, 70, 64
9, 40703, Note_on_c, 7, 33, 114
9, 40703, Note_on_c, 7, 60, 49
9, 40706, Note_off_c, 7, 60, 64
9, 40706, Note_off_c, 7, 33, 64
9, 40706, Note_on_c, 7, 43, 63
9, 40710, Note_off_c, 7, 43, 64
9, 40894, Note_on_c, 7, 70, 99
9, 40900, Note_off_c, 7, 70, 64
9, 40900, Note_on_c, 7, 44, 63
9, 40903, Note_off_c, 7, 44, 64
9, 40992, Note_on_c, 7, 60, 40
9, 40994, Note_off_c, 7, 60, 64
9, 41086, Note_on_c, 7, 33, 114
9, 41092, Note_off_c, 7, 33, 64
9, 41092, Note_on_c, 7, 40, 114
9, 41092, Note_on_c, 7, 43, 67
9, 41094, Note_off_c, 7, 43, 64
9, 41094, Note_off_c, 7, 40, 64
9, 41094, Note_on_c, 7, 37, 99
9, 41100, Note_off_c, 7, 37, 64
9, 41183, Note_on_c, 7, 60, 40
9, 41186, Note_off_c, 7, 60, 64
9, 41280, Note_on_c, 7, 70, 81
9, 41280, Note_on_c, 7, 62, 49
9, 41283, Note_off_c, 7, 62, 64
9, 41283, Note_off_c, 7, 70, 64
9, 41283, Note_on_c, 7, 44, 67
9, 41286, Note_off_c, 7, 44, 64
9, 41374, Note_on_c, 7, 70, 99
9, 41380, Note_off_c, 7, 70, 64
9, 41472, Note_on_c, 7, 33, 110
9, 41472, Note_on_c, 7, 67, 74
9, 41472, Note_on_c, 7, 60, 54
9, 41474, Note_off_c, 7, 60, 64
9, 41474, Note_off_c, 7, 67, 64
9, 41474, Note_off_c, 7, 33, 64
9, 41474, Note_on_c, 7, 43, 76
9, 41480, Note_off_c, 7, 43, 64
9, 41563, Note_on_c, 7, 67, 28
9, 41566, Note_off_c, 7, 67, 64
9, 41646, Note_on_c, 7, 67, 102
9, 41652, Note_off_c, 7, 67, 64
9, 41663, Note_on_c, 7, 70, 99
9, 41666, Note_off_c, 7, 70, 64
9, 41666, Note_on_c, 7, 44, 63
9, 41672, Note_off_c, 7, 44, 64
9, 41743, Note_on_c, 7, 67, 102
9, 41746, Note_off_c, 7, 67, 64
9, 41760, Note_on_c, 7, 60, 54
9, 41763, Note_off_c, 7, 60, 64
9, 41854, Note_on_c, 7, 33, 114
9, 41860, Note_off_c, 7, 33, 64
9, 41860, Note_on_c, 7, 40, 110
9, 41860, Note_on_c, 7, 43, 60
9, 41863, Note_off_c, 7, 43, 64
9, 41863, Note_off_c, 7, 40, 64
9, 41863, Note_on_c, 7, 37, 95
9, 41866, Note_off_c, 7, 37, 64
9, 41952, Note_on_c, 7, 60, 43
9, 41954, Note_off_c, 7, 60, 64
9, 42046, Note_on_c, 7, 70, 81
9, 42046, Note_on_c, 7, 62, 49
9, 42052, Note_off_c, 7, 62, 64
9, 42052, Note_off_c, 7, 70, 64
9, 42143, Note_on_c, 7, 70, 99
9, 42146, Note_off_c, 7, 70, 64
9, 42240, Note_on_c, 7, 33, 110
9, 42240, Note_on_c, 7, 60, 54
9, 42243, Note_off_c, 7, 60, 64
9, 42243, Note_off_c, 7, 33, 64
9, 42432, Note_on_c, 7, 70, 94
9, 42434, Note_off_c, 7, 70, 64
9, 42434, Note_on_c, 7, 44, 67
9, 42440, Note_off_c, 7, 44, 64
9, 42526, Note_on_c, 7, 60, 43
9, 42532, Note_off_c, 7, 60, 64
9, 42623, Note_on_c, 7, 33, 114
9, 42626, Note_off_c, 7, 33, 64
9, 42626, Note_on_c, 7, 40, 110
9, 42626, Note_on_c, 7, 43, 67
9, 42632, Note_off_c, 7, 43, 64
9, 42632, Note_off_c, 7, 40, 64
9, 42632, Note_on_c, 7, 37, 95
9, 42634, Note_off_c, 7, 37, 64
9, 42720, Note_on_c, 7, 60, 49
9, 42723, Note_off_c, 7, 60, 64
9, 42812, Note_on_c, 7, 70, 94
9, 42812, Note_on_c, 7, 62, 54
9, 42820, Note_off_c, 7, 62, 64
9, 42820, Note_off_c, 7, 70, 64
9, 42820, Note_on_c, 7, 44, 63
9, 42823, Note_off_c, 7, 44, 64
9, 43006, Note_on_c, 7, 33, 110
9, 43006, Note_on_c, 7, 60, 54
9, 43010, Note_off_c, 7, 60, 64
9, 43010, Note_off_c, 7, 33, 64
9, 43010, Note_on_c, 7, 43, 63
9, 43012, Note_off_c, 7, 43, 64
9, 43200, Note_on_c, 7, 70, 94
9, 43203, Note_off_c, 7, 70, 64
9, 43203, Note_on_c, 7, 44, 60
9, 43206, Note_off_c, 7, 44, 64
9, 43294, Note_on_c, 7, 60, 33
9, 43300, Note_off_c, 7, 60, 64
9, 43392, Note_on_c, 7, 33, 110
9, 43394, Note_off_c, 7, 33, 64
9, 43394, Note_on_c, 7, 40, 110
9, 43394, Note_on_c, 7, 43, 63
9, 43400, Note_off_c, 7, 43, 64
9, 43400, Note_off_c, 7, 40, 64
9, 43400, Note_on_c, 7, 37, 95
9, 43403, Note_off_c, 7, 37, 64
9, 43486, Note_on_c, 7, 60, 36
9, 43492, Note_off_c, 7, 60, 64
9, 43583, Note_on_c, 7, 70, 78
9, 43583, Note_on_c, 7, 62, 49
9, 43586, Note_off_c, 7, 62, 64
9, 43586, Note_off_c, 7, 70, 64
9, 43586, Note_on_c, 7, 44, 54
9, 43592, Note_off_c, 7, 44, 64
9, 43680, Note_on_c, 7, 70, 94
9, 43683, Note_off_c, 7, 70, 64
9, 43774, Note_on_c, 7, 33, 110
9, 43774, Note_on_c, 7, 60, 54
9, 43780, Note_off_c, 7, 60, 64
9, 43780, Note_off_c, 7, 33, 64
9, 43780, Note_on_c, 7, 43, 63
9, 43783, Note_off_c, 7, 43, 64
9, 43966, Note_on_c, 7, 70, 94
9, 43972, Note_off_c, 7, 70, 64
9, 43972, Note_on_c, 7, 44, 54
9, 43974, Note_off_c, 7, 44, 64
9, 44063, Note_on_c, 7, 60, 43
9, 44066, Note_off_c, 7, 60, 64
9, 44160, Note_on_c, 7, 33, 114
9, 44163, Note_off_c, 7, 33, 64
9, 44163, Note_on_c, 7, 40, 110
9, 44163, Note_on_c, 7, 43, 63
9, 44166, Note_off_c, 7, 43, 64
9, 44166, Note_off_c, 7, 40, 64
9, 44166, Note_on_c, 7, 37, 95
9, 44172, Note_off_c, 7, 37, 64
9, 44254, Note_on_c, 7, 60, 40
9, 44260, Note_off_c, 7, 60, 64
9, 44352, Note_on_c, 7, 70, 78
9, 44352, Note_on_c, 7, 62, 49
9, 44354, Note_off_c, 7, 62, 64
9, 44354, Note_off_c, 7, 70, 64
9, 44354, Note_on_c, 7, 44, 60
9, 44360, Note_off_c, 7, 44, 64
9, 44446, Note_on_c, 7, 70, 99
9, 44452, Note_off_c, 7, 70, 64
9, 44543, Note_on_c, 7, 33, 114
9, 44543, Note_on_c, 7, 67, 74
9, 44543, Note_on_c, 7, 60, 54
9, 44546, Note_off_c, 7, 60, 64
9, 44546, Note_off_c, 7, 67, 64
9, 44546, Note_off_c, 7, 33, 64
9, 44546, Note_on_c, 7, 43, 63
9, 44552, Note_off_c, 7, 43, 64
9, 44634, Note_on_c, 7, 67, 28
9, 44640, Note_off_c, 7, 67, 64
9, 44720, Note_on_c, 7, 67, 102
9, 44723, Note_off_c, 7, 67, 64
9, 44734, Note_on_c, 7, 70, 94
9, 44740, Note_off_c, 7, 70, 64
9, 44740, Note_on_c, 7, 44, 67
9, 44743, Note_off_c, 7, 44, 64
9, 44812, Note_on_c, 7, 67, 102
9, 44820, Note_off_c, 7, 67, 64
9, 44832, Note_on_c, 7, 60, 43
9, 44834, Note_off_c, 7, 60, 64
9, 44926, Note_on_c, 7, 33, 114
9, 44932, Note_off_c, 7, 33, 64
9, 44932, Note_on_c, 7, 40, 114
9, 44932, Note_on_c, 7, 43, 76
9, 44934, Note_off_c, 7, 43, 64
9, 44934, Note_off_c, 7, 40, 64
9, 44934, Note_on_c, 7, 37, 99
9, 44940, Note_off_c, 7, 37, 64
9, 45023, Note_on_c, 7, 60, 40
9, 45026, Note_off_c, 7, 60, 64
9, 45120, Note_on_c, 7, 70, 72
9, 45120, Note_on_c, 7, 62, 40
9, 45123, Note_off_c, 7, 62, 64
9, 45123, Note_off_c, 7, 70, 64
9, 45212, Note_on_c, 7, 70, 85
9, 45220, Note_off_c, 7, 70, 64
9, 45310, Note_on_c, 7, 33, 110
9, 45310, Note_on_c, 7, 60, 54
9, 45312, Note_off_c, 7, 60, 64
9, 45312, Note_off_c, 7, 33, 64
9, 45503, Note_on_c, 7, 70, 94
9, 45506, Note_off_c, 7, 70, 64
9, 45506, Note_on_c, 7, 44, 63
9, 45510, Note_off_c, 7, 44, 64
9, 45600, Note_on_c, 7, 60, 40
9, 45603, Note_off_c, 7, 60, 64
9, 45694, Note_on_c, 7, 33, 114
9, 45700, Note_off_c, 7, 33, 64
9, 45700, Note_on_c, 7, 40, 114
9, 45700, Note_on_c, 7, 43, 63
9, 45703, Note_off_c, 7, 43, 64
9, 45703, Note_off_c, 7, 40, 64
9, 45703, Note_on_c, 7, 37, 99
9, 45706, Note_off_c, 7, 37, 64
9, 45792, Note_on_c, 7, 60, 43
9, 45794, Note_off_c, 7, 60, 64
9, 45886, Note_on_c, 7, 70, 94
9, 45886, Note_on_c, 7, 62, 54
9, 45892, Note_off_c, 7, 62, 64
9, 45892, Note_off_c, 7, 70, 64
9, 45892, Note_on_c, 7, 44, 63
9, 45894, Note_off_c, 7, 44, 64
9, 46080, Note_on_c, 7, 33, 114
9, 46080, Note_on_c, 7, 60, 49
9, 46083, Note_off_c, 7, 60, 64
9, 46083, Note_off_c, 7, 33, 64
9, 46083, Note_on_c, 7, 43, 67
9, 46086, Note_off_c, 7, 43, 64
9, 46272, Note_on_c, 7, 70, 99
9, 46274, Note_off_c, 7, 70, 64
9, 46274, Note_on_c, 7, 44, 63
9, 46280, Note_off_c, 7, 44, 64
9, 46366, Note_on_c, 7, 60, 40
9, 46372, Note_off_c, 7, 60, 64
9, 46463, Note_on_c, 7, 33, 110
9, 46466, Note_off_c, 7, 33, 64
9, 46466, Note_on_c, 7, 40, 114
9, 46466, Note_on_c, 7, 43, 63
9, 46472, Note_off_c, 7, 43, 64
9, 46472, Note_off_c, 7, 40, 64
9, 46472, Note_on_c, 7, 37, 99
9, 46474, Note_off_c, 7, 37, 64
9, 46560, Note_on_c, 7, 60, 43
9, 46563, Note_off_c, 7, 60, 64
9, 46654, Note_on_c, 7, 70, 78
9, 46654, Note_on_c, 7, 62, 40
9, 46660, Note_off_c, 7, 62, 64
9, 46660, Note_off_c, 7, 70, 64
9, 46660, Note_on_c, 7, 44, 63
9, 46663, Note_off_c, 7, 44, 64
9, 46752, Note_on_c, 7, 70, 85
9, 46754, Note_off_c, 7, 70, 64
9, 46846, Note_on_c, 7, 33, 114
9, 46846, Note_on_c, 7, 60, 49
9, 46852, Note_off_c, 7, 60, 64
9, 46852, Note_off_c, 7, 33, 64
9, 46852, Note_on_c, 7, 40, 110
9, 46852, Note_on_c, 7, 43, 63
9, 46854, Note_off_c, 7, 43, 64
9, 46854, Note_off_c, 7, 40, 64
9, 46854, Note_on_c, 7, 37, 95
9, 46860, Note_off_c, 7, 37, 64
9, 47040, Note_on_c, 7, 70, 99
9, 47043, Note_off_c, 7, 70, 64
9, 47043, Note_on_c, 7, 44, 63
9, 47046, Note_off_c, 7, 44, 64
9, 47134, Note_on_c, 7, 60, 40
9, 47140, Note_off_c, 7, 60, 64
9, 47232, Note_on_c, 7, 33, 114
9, 47234, Note_off_c, 7, 33, 64
9, 47234, Note_on_c, 7, 40, 114
9, 47234, Note_on_c, 7, 43, 67
9, 47240, Note_off_c, 7, 43, 64
9, 47240, Note_off_c, 7, 40, 64
9, 47240, Note_on_c, 7, 37, 99
9, 47243, Note_off_c, 7, 37, 64
9, 47326, Note_on_c, 7, 60, 40
9, 47332, Note_off_c, 7, 60, 64
9, 47332, Note_on_c, 7, 40, 114
9, 47334, Note_off_c, 7, 40, 64
9, 47334, Note_on_c, 7, 37, 99
9, 47340, Note_off_c, 7, 37, 64
9, 47423, Note_on_c, 7, 70, 81
9, 47423, Note_on_c, 7, 62, 49
9, 47426, Note_off_c, 7, 62, 64
9, 47426, Note_off_c, 7, 70, 64
9, 47426, Note_on_c, 7, 44, 67
9, 47432, Note_off_c, 7, 44, 64
9, 47520, Note_on_c, 7, 70, 99
9, 47523, Note_off_c, 7, 70, 64
9, 47612, Note_on_c, 7, 33, 110
9, 47612, Note_on_c, 7, 67, 74
9, 47612, Note_on_c, 7, 60, 54
9, 47620, Note_off_c, 7, 60, 64
9, 47620, Note_off_c, 7, 67, 64
9, 47620, Note_off_c, 7, 33, 64
9, 47620, Note_on_c, 7, 43, 76
9, 47623, Note_off_c, 7, 43, 64
9, 47706, Note_on_c, 7, 67, 28
9, 47710, Note_off_c, 7, 67, 64
9, 47792, Note_on_c, 7, 67, 102
9, 47794, Note_off_c, 7, 67, 64
9, 47806, Note_on_c, 7, 70, 99
9, 47810, Note_off_c, 7, 70, 64
9, 47810, Note_on_c, 7, 44, 63
9, 47812, Note_off_c, 7, 44, 64
9, 47886, Note_on_c, 7, 67, 102
9, 47892, Note_off_c, 7, 67, 64
9, 47903, Note_on_c, 7, 60, 54
9, 47906, Note_off_c, 7, 60, 64
9, 48000, Note_on_c, 7, 33, 114
9, 48003, Note_off_c, 7, 33, 64
9, 48003, Note_on_c, 7, 40, 110
9, 48003, Note_on_c, 7, 43, 60
9, 48006, Note_off_c, 7, 43, 64
9, 48006, Note_off_c, 7, 40, 64
9, 48006, Note_on_c, 7, 37, 95
9, 48010, Note_off_c, 7, 37, 64
9, 48094, Note_on_c, 7, 60, 43
9, 48100, Note_off_c, 7, 60, 64
9, 48192, Note_on_c, 7, 70, 81
9, 48192, Note_on_c, 7, 62, 49
9, 48194, Note_off_c, 7, 62, 64
9, 48194, Note_off_c, 7, 70, 64
9, 48286, Note_on_c, 7, 70, 99
9, 48292, Note_off_c, 7, 70, 64
9, 48383, Note_on_c, 7, 33, 110
9, 48383, Note_on_c, 7, 60, 54
9, 48386, Note_off_c, 7, 60, 64
9, 48386, Note_off_c, 7, 33, 64
9, 48574, Note_on_c, 7, 70, 94
9, 48580, Note_off_c, 7, 70, 64
9, 48580, Note_on_c, 7, 44, 67
9, 48583, Note_off_c, 7, 44, 64
9, 48672, Note_on_c, 7, 60, 43
9, 48674, Note_off_c, 7, 60, 64
9, 48766, Note_on_c, 7, 33, 114
9, 48772, Note_off_c, 7, 33, 64
9, 48772, Note_on_c, 7, 40, 110
9, 48772, Note_on_c, 7, 43, 67
9, 48774, Note_off_c, 7, 43, 64
9, 48774, Note_off_c, 7, 40, 64
9, 48774, Note_on_c, 7, 37, 95
9, 48780, Note_off_c, 7, 37, 64
9, 48863, Note_on_c, 7, 60, 49
9, 48866, Note_off_c, 7, 60, 64
9, 48960, Note_on_c, 7, 70, 94
9, 48960, Note_on_c, 7, 62, 54
9, 48963, Note_off_c, 7, 62, 64
9, 48963, Note_off_c, 7, 70, 64
9, 48963, Note_on_c, 7, 44, 63
9, 48966, Note_off_c, 7, 44, 64
9, 49152, Note_on_c, 7, 33, 110
9, 49152, Note_on_c, 7, 60, 54
9, 49154, Note_off_c, 7, 60, 64
9, 49154, Note_off_c, 7, 33, 64
9, 49154, Note_on_c, 7, 43, 63
9, 49160, Note_off_c, 7, 43, 64
9, 49343, Note_on_c, 7, 70, 94
9, 49346, Note_off_c, 7, 70, 64
9, 49346, Note_on_c, 7, 44, 60
9, 49352, Note_off_c, 7, 44, 64
9, 49440, Note_on_c, 7, 60, 33
9, 49443, Note_off_c, 7, 60, 64
9, 49534, Note_on_c, 7, 33, 110
9, 49540, Note_off_c, 7, 33, 64
9, 49540, Note_on_c, 7, 40, 110
9, 49540, Note_on_c, 7, 43, 63
9, 49543, Note_off_c, 7, 43, 64
9, 49543, Note_off_c, 7, 40, 64
9, 49543, Note_on_c, 7, 37, 95
9, 49546, Note_off_c, 7, 37, 64
9, 49632, Note_on_c, 7, 60, 36
9, 49634, Note_off_c, 7, 60, 64
9, 49726, Note_on_c, 7, 70, 78
9, 49726, Note_on_c, 7, 62, 49
9, 49732, Note_off_c, 7, 62, 64
9, 49732, Note_off_c, 7, 70, 64
9, 49732, Note_on_c, 7, 44, 54
9, 49734, Note_off_c, 7, 44, 64
9, 49823, Note_on_c, 7, 70, 94
9, 49826, Note_off_c, 7, 70, 64
9, 49920, Note_on_c, 7, 33, 110
9, 49920, Note_on_c, 7, 60, 54
9, 49923, Note_off_c, 7, 60, 64
9, 49923, Note_off_c, 7, 33, 64
9, 49923, Note_on_c, 7, 43, 63
9, 49926, Note_off_c, 7, 43, 64
9, 50110, Note_on_c, 7, 70, 94
9, 50112, Note_off_c, 7, 70, 64
9, 50112, Note_on_c, 7, 44, 54
9, 50120, Note_off_c, 7, 44, 64
9, 50206, Note_on_c, 7, 60, 43
9, 50210, Note_off_c, 7, 60, 64
9, 50303, Note_on_c, 7, 33, 114
9, 50306, Note_off_c, 7, 33, 64
9, 50306, Note_on_c, 7, 40, 110
9, 50306, Note_on_c, 7, 43, 63
9, 50310, Note_off_c, 7, 43, 64
9, 50310, Note_off_c, 7, 40, 64
9, 50310, Note_on_c, 7, 37, 95
9, 50312, Note_off_c, 7, 37, 64
9, 50400, Note_on_c, 7, 60, 40
9, 50403, Note_off_c, 7, 60, 64
9, 50494, Note_on_c, 7, 70, 78
9, 50494, Note_on_c, 7, 62, 49
9, 50500, Note_off_c, 7, 62, 64
9, 50500, Note_off_c, 7, 70, 64
9, 50500, Note_on_c, 7, 44, 60
9, 50503, Note_off_c, 7, 44, 64
9, 50592, Note_on_c, 7, 70, 99
9, 50594, Note_off_c, 7, 70, 64
9, 50686, Note_on_c, 7, 33, 114
9, 50686, Note_on_c, 7, 67, 74
9, 50686, Note_on_c, 7, 60, 54
9, 50692, Note_off_c, 7, 60, 64
9, 50692, Note_off_c, 7, 67, 64
9, 50692, Note_off_c, 7, 33, 64
9, 50692, Note_on_c, 7, 43, 63
9, 50694, Note_off_c, 7, 43, 64
9, 50780, Note_on_c, 7, 67, 28
9, 50783, Note_off_c, 7, 67, 64
9, 50863, Note_on_c, 7, 67, 102
9, 50866, Note_off_c, 7, 67, 64
9, 50880, Note_on_c, 7, 70, 94
9, 50883, Note_off_c, 7, 70, 64
9, 50883, Note_on_c, 7, 44, 67
9, 50886, Note_off_c, 7, 44, 64
9, 50960, Note_on_c, 7, 67, 102
9, 50963, Note_off_c, 7, 67, 64
9, 50974, Note_on_c, 7, 60, 43
9, 50980, Note_off_c, 7, 60, 64
9, 51072, Note_on_c, 7, 33, 114
9, 51074, Note_off_c, 7, 33, 64
9, 51074, Note_on_c, 7, 40, 114
9, 51074, Note_on_c, 7, 43, 76
9, 51080, Note_off_c, 7, 43, 64
9, 51080, Note_off_c, 7, 40, 64
9, 51080, Note_on_c, 7, 37, 99
9, 51083, Note_off_c, 7, 37, 64
9, 51166, Note_on_c, 7, 60, 40
9, 51172, Note_off_c, 7, 60, 64
9, 51263, Note_on_c, 7, 70, 72
9, 51263, Note_on_c, 7, 62, 40
9, 51266, Note_off_c, 7, 62, 64
9, 51266, Note_off_c, 7, 70, 64
9, 51360, Note_on_c, 7, 70, 85
9, 51363, Note_off_c, 7, 70, 64
9, 51454, Note_on_c, 7, 33, 110
9, 51454, Note_on_c, 7, 60, 54
9, 51460, Note_off_c, 7, 60, 64
9, 51460, Note_off_c, 7, 33, 64
9, 51646, Note_on_c, 7, 70, 94
9, 51652, Note_off_c, 7, 70, 64
9, 51652, Note_on_c, 7, 44, 63
9, 51654, Note_off_c, 7, 44, 64
9, 51743, Note_on_c, 7, 60, 40
9, 51746, Note_off_c, 7, 60, 64
9, 51840, Note_on_c, 7, 33, 114
9, 51843, Note_off_c, 7, 33, 64
9, 51843, Note_on_c, 7, 40, 114
9, 51843, Note_on_c, 7, 43, 63
9, 51846, Note_off_c, 7, 43, 64
9, 51846, Note_off_c, 7, 40, 64
9, 51846, Note_on_c, 7, 37, 99
9, 51852, Note_off_c, 7, 37, 64
9, 51934, Note_on_c, 7, 60, 43
9, 51940, Note_off_c, 7, 60, 64
9, 52032, Note_on_c, 7, 70, 94
9, 52032, Note_on_c, 7, 62, 54
9, 52034, Note_off_c, 7, 62, 64
9, 52034, Note_off_c, 7, 70, 64
9, 52034, Note_on_c, 7, 44, 63
9, 52040, Note_off_c, 7, 44, 64
9, 52223, Note_on_c, 7, 33, 114
9, 52223, Note_on_c, 7, 60, 49
9, 52226, Note_off_c, 7, 60, 64
9, 52226, Note_off_c, 7, 33, 64
9, 52226, Note_on_c, 7, 43, 67
9, 52232, Note_off_c, 7, 43, 64
9, 52412, Note_on_c, 7, 70, 99
9, 52420, Note_off_c, 7, 70, 64
9, 52420, Note_on_c, 7, 44, 63
9, 52423, Note_off_c, 7, 44, 64
9, 52510, Note_on_c, 7, 60, 40
9, 52512, Note_off_c, 7, 60, 64
9, 52606, Note_on_c, 7, 33, 110
9, 52610, Note_off_c, 7, 33, 64
9, 52610, Note_on_c, 7, 40, 114
9, 52610, Note_on_c, 7, 43, 63
9, 52612, Note_off_c, 7, 43, 64
9, 52612, Note_off_c, 7, 40, 64
9, 52612, Note_on_c, 7, 37, 99
9, 52620, Note_off_c, 7, 37, 64
9, 52703, Note_on_c, 7, 60, 43
9, 52706, Note_off_c, 7, 60, 64
9, 52800, Note_on_c, 7, 70, 78
9, 52800, Note_on_c, 7, 62, 40
9, 52803, Note_off_c, 7, 62, 64
9, 52803, Note_off_c, 7, 70, 64
9, 52803, Note_on_c, 7, 44, 63
9, 52806, Note_off_c, 7, 44, 64
9, 52894, Note_on_c, 7, 70, 85
9, 52900, Note_off_c, 7, 70, 64
9, 52992, Note_on_c, 7, 33, 114
9, 52992, Note_on_c, 7, 60, 49
9, 52994, Note_off_c, 7, 60, 64
9, 52994, Note_off_c, 7, 33, 64
9, 52994, Note_on_c, 7, 43, 63
9, 53000, Note_off_c, 7, 43, 64
9, 53183, Note_on_c, 7, 70, 99
9, 53186, Note_off_c, 7, 70, 64
9, 53186, Note_on_c, 7, 44, 63
9, 53192, Note_off_c, 7, 44, 64
9, 53280, Note_on_c, 7, 60, 40
9, 53283, Note_off_c, 7, 60, 64
9, 53374, Note_on_c, 7, 33, 114
9, 53380, Note_off_c, 7, 33, 64
9, 53380, Note_on_c, 7, 40, 114
9, 53380, Note_on_c, 7, 43, 67
9, 53383, Note_off_c, 7, 43, 64
9, 53383, Note_off_c, 7, 40, 64
9, 53383, Note_on_c, 7, 37, 99
9, 53386, Note_off_c, 7, 37, 64
9, 53472, Note_on_c, 7, 60, 40
9, 53474, Note_off_c, 7, 60, 64
9, 53566, Note_on_c, 7, 70, 81
9, 53566, Note_on_c, 7, 62, 49
9, 53572, Note_off_c, 7, 62, 64
9, 53572, Note_off_c, 7, 70, 64
9, 53572, Note_on_c, 7, 44, 67
9, 53574, Note_off_c, 7, 44, 64
9, 53663, Note_on_c, 7, 70, 99
9, 53666, Note_off_c, 7, 70, 64
9, 53760, Note_on_c, 7, 33, 110
9, 53760, Note_on_c, 7, 67, 74
9, 53760, Note_on_c, 7, 60, 54
9, 53763, Note_off_c, 7, 60, 64
9, 53763, Note_off_c, 7, 67, 64
9, 53763, Note_off_c, 7, 33, 64
9, 53763, Note_on_c, 7, 43, 76
9, 53766, Note_off_c, 7, 43, 64
9, 53852, Note_on_c, 7, 67, 28
9, 53854, Note_off_c, 7, 67, 64
9, 53934, Note_on_c, 7, 67, 102
9, 53940, Note_off_c, 7, 67, 64
9, 53952, Note_on_c, 7, 70, 99
9, 53954, Note_off_c, 7, 70, 64
9, 53954, Note_on_c, 7, 44, 63
9, 53960, Note_off_c, 7, 44, 64
9, 54032, Note_on_c, 7, 67, 102
9, 54034, Note_off_c, 7, 67, 64
9, 54046, Note_on_c, 7, 60, 54
9, 54052, Note_off_c, 7, 60, 64
9, 54143, Note_on_c, 7, 33, 114
9, 54146, Note_off_c, 7, 33, 64
9, 54146, Note_on_c, 7, 40, 110
9, 54146, Note_on_c, 7, 43, 60
9, 54152, Note_off_c, 7, 43, 64
9, 54152, Note_off_c, 7, 40, 64
9, 54152, Note_on_c, 7, 37, 95
9, 54154, Note_off_c, 7, 37, 64
9, 54240, Note_on_c, 7, 60, 43
9, 54243, Note_off_c, 7, 60, 64
9, 54334, Note_on_c, 7, 70, 81
9, 54334, Note_on_c, 7, 62, 49
9, 54340, Note_off_c, 7, 62, 64
9, 54340, Note_off_c, 7, 70, 64
9, 54432, Note_on_c, 7, 70, 99
9, 54434, Note_off_c, 7, 70, 64
9, 54526, Note_on_c, 7, 33, 110
9, 54526, Note_on_c, 7, 60, 54
9, 54532, Note_off_c, 7, 60, 64
9, 54532, Note_off_c, 7, 33, 64
9, 54720, Note_on_c, 7, 70, 94
9, 54723, Note_off_c, 7, 70, 64
9, 54723, Note_on_c, 7, 44, 67
9, 54726, Note_off_c, 7, 44, 64
9, 54812, Note_on_c, 7, 60, 43
9, 54820, Note_off_c, 7, 60, 64
9, 54910, Note_on_c, 7, 33, 114
9, 54912, Note_off_c, 7, 33, 64
9, 54912, Note_on_c, 7, 40, 110
9, 54912, Note_on_c, 7, 43, 67
9, 54920, Note_off_c, 7, 43, 64
9, 54920, Note_off_c, 7, 40, 64
9, 54920, Note_on_c, 7, 37, 95
9, 54923, Note_off_c, 7, 37, 64
9, 55006, Note_on_c, 7, 60, 49
9, 55010, Note_off_c, 7, 60, 64
9, 55103, Note_on_c, 7, 70, 94
9, 55103, Note_on_c, 7, 62, 54
9, 55106, Note_off_c, 7, 62, 64
9, 55106, Note_off_c, 7, 70, 64
9, 55106, Note_on_c, 7, 44, 63
9, 55110, Note_off_c, 7, 44, 64
9, 55294, Note_on_c, 7, 33, 110
9, 55294, Note_on_c, 7, 60, 54
9, 55300, Note_off_c, 7, 60, 64
9, 55300, Note_off_c, 7, 33, 64
9, 55300, Note_on_c, 7, 43, 63
9, 55303, Note_off_c, 7, 43, 64
9, 55486, Note_on_c, 7, 70, 94
9, 55492, Note_off_c, 7, 70, 64
9, 55492, Note_on_c, 7, 44, 60
9, 55494, Note_off_c, 7, 44, 64
9, 55583, Note_on_c, 7, 60, 33
9, 55586, Note_off_c, 7, 60, 64
9, 55680, Note_on_c, 7, 33, 110
9, 55683, Note_off_c, 7, 33, 64
9, 55683, Note_on_c, 7, 40, 110
9, 55683, Note_on_c, 7, 43, 63
9, 55686, Note_off_c, 7, 43, 64
9, 55686, Note_off_c, 7, 40, 64
9, 55686, Note_on_c, 7, 37, 95
9, 55692, Note_off_c, 7, 37, 64
9, 55774, Note_on_c, 7, 60, 36
9, 55780, Note_off_c, 7, 60, 64
9, 55872, Note_on_c, 7, 70, 78
9, 55872, Note_on_c, 7, 62, 49
9, 55874, Note_off_c, 7, 62, 64
9, 55874, Note_off_c, 7, 70, 64
9, 55874, Note_on_c, 7, 44, 54
9, 55880, Note_off_c, 7, 44, 64
9, 55966, Note_on_c, 7, 70, 94
9, 55972, Note_off_c, 7, 70, 64
9, 56063, Note_on_c, 7, 33, 110
9, 56063, Note_on_c, 7, 60, 54
9, 56066, Note_off_c, 7, 60, 64
9, 56066, Note_off_c, 7, 33, 64
9, 56066, Note_on_c, 7, 43, 63
9, 56072, Note_off_c, 7, 43, 64
9, 56254, Note_on_c, 7, 70, 94
9, 56260, Note_off_c, 7, 70, 64
9, 56260, Note_on_c, 7, 44, 54
9, 56263, Note_off_c, 7, 44, 64
9, 56352, Note_on_c, 7, 60, 43
9, 56354, Note_off_c, 7, 60, 64
9, 56446, Note_on_c, 7, 33, 114
9, 56452, Note_off_c, 7, 33, 64
9, 56452, Note_on_c, 7, 40, 110
9, 56452, Note_on_c, 7, 43, 63
9, 56454, Note_off_c, 7, 43, 64
9, 56454, Note_off_c, 7, 40, 64
9, 56454, Note_on_c, 7, 37, 95
9, 56460, Note_off_c, 7, 37, 64
9, 56543, Note_on_c, 7, 60, 40
9, 56546, Note_off_c, 7, 60, 64
9, 56640, Note_on_c, 7, 70, 78
9, 56640, Note_on_c, 7, 62, 49
9, 56643, Note_off_c, 7, 62, 64
9, 56643, Note_off_c, 7, 70, 64
9, 56643, Note_on_c, 7, 44, 60
9, 56646, Note_off_c, 7, 44, 64
9, 56734, Note_on_c, 7, 70, 99
9, 56740, Note_off_c, 7, 70, 64
9, 56832, Note_on_c, 7, 33, 114
9, 56832, Note_on_c, 7, 67, 74
9, 56832, Note_on_c, 7, 60, 54
9, 56834, Note_off_c, 7, 60, 64
9, 56834, Note_off_c, 7, 67, 64
9, 56834, Note_off_c, 7, 33, 64
9, 56834, Note_on_c, 7, 43, 63
9, 56840, Note_off_c, 7, 43, 64
9, 56923, Note_on_c, 7, 67, 28
9, 56926, Note_off_c, 7, 67, 64
9, 57006, Note_on_c, 7, 67, 102
9, 57010, Note_off_c, 7, 67, 64
9, 57023, Note_on_c, 7, 70, 94
9, 57026, Note_off_c, 7, 70, 64
9, 57026, Note_on_c, 7, 44, 67
9, 57032, Note_off_c, 7, 44, 64
9, 57103, Note_on_c, 7, 67, 102
9, 57106, Note_off_c, 7, 67, 64
9, 57120, Note_on_c, 7, 60, 43
9, 57123, Note_off_c, 7, 60, 64
9, 57212, Note_on_c, 7, 33, 114
9, 57220, Note_off_c, 7, 33, 64
9, 57220, Note_on_c, 7, 40, 114
9, 57220, Note_on_c, 7, 43, 76
9, 57223, Note_off_c, 7, 43, 64
9, 57223, Note_off_c, 7, 40, 64
9, 57223, Note_on_c, 7, 37, 99
9, 57226, Note_off_c, 7, 37, 64
9, 57310, Note_on_c, 7, 60, 40
9, 57312, Note_off_c, 7, 60, 64
9, 57406, Note_on_c, 7, 70, 72
9, 57406, Note_on_c, 7, 62, 40
9, 57410, Note_off_c, 7, 62, 64
9, 57410, Note_off_c, 7, 70, 64
9, 57503, Note_on_c, 7, 70, 85
9, 57506, Note_off_c, 7, 70, 64
9, 57600, Note_on_c, 7, 33, 110
9, 57600, Note_on_c, 7, 60, 54
9, 57603, Note_off_c, 7, 60, 64
9, 57603, Note_off_c, 7, 33, 64
9, 57792, Note_on_c, 7, 70, 94
9, 57794, Note_off_c, 7, 70, 64
9, 57794, Note_on_c, 7, 44, 63
9, 57800, Note_off_c, 7, 44, 64
9, 57886, Note_on_c, 7, 60, 40
9, 57892, Note_off_c, 7, 60, 64
9, 57983, Note_on_c, 7, 33, 114
9, 57986, Note_off_c, 7, 33, 64
9, 57986, Note_on_c, 7, 40, 114
9, 57986, Note_on_c, 7, 43, 63
9, 57992, Note_off_c, 7, 43, 64
9, 57992, Note_off_c, 7, 40, 64
9, 57992, Note_on_c, 7, 37, 99
9, 57994, Note_off_c, 7, 37, 64
9, 58080, Note_on_c, 7, 60, 43
9, 58083, Note_off_c, 7, 60, 64
9, 58174, Note_on_c, 7, 70, 94
9, 58174, Note_on_c, 7, 62, 54
9, 58180, Note_off_c, 7, 62, 64
9, 58180, Note_off_c, 7, 70, 64
9, 58180, Note_on_c, 7, 44, 63
9, 58183, Note_off_c, 7, 44, 64
9, 58366, Note_on_c, 7, 33, 114
9, 58366, Note_on_c, 7, 60, 49
9, 58372, Note_off_c, 7, 60, 64
9, 58372, Note_off_c, 7, 33, 64
9, 58372, Note_on_c, 7, 43, 67
9, 58374, Note_off_c, 7, 43, 64
9, 58560, Note_on_c, 7, 70, 99
9, 58563, Note_off_c, 7, 70, 64
9, 58563, Note_on_c, 7, 44, 63
9, 58566, Note_off_c, 7, 44, 64
9, 58654, Note_on_c, 7, 60, 40
9, 58660, Note_off_c, 7, 60, 64
9, 58752, Note_on_c, 7, 33, 110
9, 58754, Note_off_c, 7, 33, 64
9, 58754, Note_on_c, 7, 40, 114
9, 58754, Note_on_c, 7, 43, 63
9, 58760, Note_off_c, 7, 43, 64
9, 58760, Note_off_c, 7, 40, 64
9, 58760, Note_on_c, 7, 37, 99
9, 58763, Note_off_c, 7, 37, 64
9, 58846, Note_on_c, 7, 60, 43
9, 58852, Note_off_c, 7, 60, 64
9, 58943, Note_on_c, 7, 70, 78
9, 58943, Note_on_c, 7, 62, 40
9, 58946, Note_off_c, 7, 62, 64
9, 58946, Note_off_c, 7, 70, 64
9, 58946, Note_on_c, 7, 44, 63
9, 58952, Note_off_c, 7, 44, 64
9, 59040, Note_on_c, 7, 70, 85
9, 59043, Note_off_c, 7, 70, 64
9, 59134, Note_on_c, 7, 33, 114
9, 59134, Note_on_c, 7, 60, 49
9, 59140, Note_off_c, 7, 60, 64
9, 59140, Note_off_c, 7, 33, 64
9, 59140, Note_on_c, 7, 43, 63
9, 59143, Note_off_c, 7, 43, 64
9, 59326, Note_on_c, 7, 70, 99
9, 59332, Note_off_c, 7, 70, 64
9, 59332, Note_on_c, 7, 44, 63
9, 59334, Note_off_c, 7, 44, 64
9, 59423, Note_on_c, 7, 60, 40
9, 59426, Note_off_c, 7, 60, 64
9, 59520, Note_on_c, 7, 33, 114
9, 59523, Note_off_c, 7, 33, 64
9, 59523, Note_on_c, 7, 40, 114
9, 59523, Note_on_c, 7, 43, 67
9, 59526, Note_off_c, 7, 43, 64
9, 59526, Note_off_c, 7, 40, 64
9, 59526, Note_on_c, 7, 37, 99
9, 59532, Note_off_c, 7, 37, 64
9, 59612, Note_on_c, 7, 60, 40
9, 59620, Note_off_c, 7, 60, 64
9, 59710, Note_on_c, 7, 70, 81
9, 59710, Note_on_c, 7, 62, 49
9, 59712, Note_off_c, 7, 62, 64
9, 59712, Note_off_c, 7, 70, 64
9, 59712, Note_on_c, 7, 44, 67
9, 59720, Note_off_c, 7, 44, 64
9, 59806, Note_on_c, 7, 70, 99
9, 59810, Note_off_c, 7, 70, 64
9, 59903, Note_on_c, 7, 33, 110
9, 59903, Note_on_c, 7, 67, 74
9, 59903, Note_on_c, 7, 60, 54
9, 59906, Note_off_c, 7, 60, 64
9, 59906, Note_off_c, 7, 67, 64
9, 59906, Note_off_c, 7, 33, 64
9, 59906, Note_on_c, 7, 43, 76
9, 59910, Note_off_c, 7, 43, 64
9, 59994, Note_on_c, 7, 67, 28
9, 60000, Note_off_c, 7, 67, 64
9, 60080, Note_on_c, 7, 67, 102
9, 60083, Note_off_c, 7, 67, 64
9, 60094, Note_on_c, 7, 70, 99
9, 60100, Note_off_c, 7, 70, 64
9, 60100, Note_on_c, 7, 44, 63
9, 60103, Note_off_c, 7, 44, 64
9, 60174, Note_on_c, 7, 67, 102
9, 60180, Note_off_c, 7, 67, 64
9, 60192, Note_on_c, 7, 60, 54
9, 60194, Note_off_c, 7, 60, 64
9, 60286, Note_on_c, 7, 33, 114
9, 60292, Note_off_c, 7, 33, 64
9, 60292, Note_on_c, 7, 40, 110
9, 60292, Note_on_c, 7, 43, 60
9, 60294, Note_off_c, 7, 43, 64
9, 60294, Note_off_c, 7, 40, 64
9, 60294, Note_on_c, 7, 37, 95
9, 60300, Note_off_c, 7, 37, 64
9, 60383, Note_on_c, 7, 60, 43
9, 60386, Note_off_c, 7, 60, 64
9, 60480, Note_on_c, 7, 70, 81
9, 60480, Note_on_c, 7, 62, 49
9, 60483, Note_off_c, 7, 62, 64
9, 60483, Note_off_c, 7, 70, 64
9, 60574, Note_on_c, 7, 70, 99
9, 60580, Note_off_c, 7, 70, 64
9, 60672, Note_on_c, 7, 33, 110
9, 60672, Note_on_c, 7, 60, 54
9, 60674, Note_off_c, 7, 60, 64
9, 60674, Note_off_c, 7, 33, 64
9, 60863, Note_on_c, 7, 70, 94
9, 60866, Note_off_c, 7, 70, 64
9, 60866, Note_on_c, 7, 44, 67
9, 60872, Note_off_c, 7, 44, 64
9, 60960, Note_on_c, 7, 60, 43
9, 60963, Note_off_c, 7, 60, 64
9, 61054, Note_on_c, 7, 33, 114
9, 61060, Note_off_c, 7, 33, 64
9, 61060, Note_on_c, 7, 40, 110
9, 61060, Note_on_c, 7, 43, 67
9, 61063, Note_off_c, 7, 43, 64
9, 61063, Note_off_c, 7, 40, 64
9, 61063, Note_on_c, 7, 37, 95
9, 61066, Note_off_c, 7, 37, 64
9, 61152, Note_on_c, 7, 60, 49
9, 61154, Note_off_c, 7, 60, 64
9, 61246, Note_on_c, 7, 70, 94
9, 61246, Note_on_c, 7, 62, 54
9, 61252, Note_off_c, 7, 62, 64
9, 61252, Note_off_c, 7, 70, 64
9, 61252, Note_on_c, 7, 44, 63
9, 61254, Note_off_c, 7, 44, 64
9, 61440, Note_on_c, 7, 33, 110
9, 61440, Note_on_c, 7, 60, 54
9, 61443, Note_off_c, 7, 60, 64
9, 61443, Note_off_c, 7, 33, 64
9, 61443, Note_on_c, 7, 43, 63
9, 61446, Note_off_c, 7, 43, 64
9, 61632, Note_on_c, 7, 70, 94
9, 61634, Note_off_c, 7, 70, 64
9, 61634, Note_on_c, 7, 44, 60
9, 61640, Note_off_c, 7, 44, 64
9, 61726, Note_on_c, 7, 60, 33
9, 61732, Note_off_c, 7, 60, 64
9, 61823, Note_on_c, 7, 33, 110
9, 61826, Note_off_c, 7, 33, 64
9, 61826, Note_on_c, 7, 40, 110
9, 61826, Note_on_c, 7, 43, 63
9, 61832, Note_off_c, 7, 43, 64
9, 61832, Note_off_c, 7, 40, 64
9, 61832, Note_on_c, 7, 37, 95
9, 61834, Note_off_c, 7, 37, 64
9, 61920, Note_on_c, 7, 60, 36
9, 61923, Note_off_c, 7, 60, 64
9, 62012, Note_on_c, 7, 70, 78
9, 62012, Note_on_c, 7, 62, 49
9, 62020, Note_off_c, 7, 62, 64
9, 62020, Note_off_c, 7, 70, 64
9, 62020, Note_on_c, 7, 44, 54
9, 62023, Note_off_c, 7, 44, 64
9, 62110, Note_on_c, 7, 70, 94
9, 62112, Note_off_c, 7, 70, 64
9, 62206, Note_on_c, 7, 33, 110
9, 62206, Note_on_c, 7, 60, 54
9, 62210, Note_off_c, 7, 60, 64
9, 62210, Note_off_c, 7, 33, 64
9, 62210, Note_on_c, 7, 43, 63
9, 62212, Note_off_c, 7, 43, 64
9, 62400, Note_on_c, 7, 70, 94
9, 62403, Note_off_c, 7, 70, 64
9, 62403, Note_on_c, 7, 44, 54
9, 62406, Note_off_c, 7, 44, 64
9, 62494, Note_on_c, 7, 60, 43
9, 62500, Note_off_c, 7, 60, 64
9, 62592, Note_on_c, 7, 33, 114
9, 62594, Note_off_c, 7, 33, 64
9, 62594, Note_on_c, 7, 40, 110
9, 62594, Note_on_c, 7, 43, 63
9, 62600, Note_off_c, 7, 43, 64
9, 62600, Note_off_c, 7, 40, 64
9, 62600, Note_on_c, 7, 37, 95
9, 62603, Note_off_c, 7, 37, 64
9, 62686, Note_on_c, 7, 60, 40
9, 62692, Note_off_c, 7, 60, 64
9, 62783, Note_on_c, 7, 70, 78
9, 62783, Note_on_c, 7, 62, 49
9, 62786, Note_off_c, 7, 62, 64
9, 62786, Note_off_c, 7, 70, 64
9, 62786, Note_on_c, 7, 44, 60
9, 62792, Note_off_c, 7, 44, 64
9, 62880, Note_on_c, 7, 70, 99
9, 62883, Note_off_c, 7, 70, 64
9, 62974, Note_on_c, 7, 33, 114
9, 62974, Note_on_c, 7, 67, 74
9, 62974, Note_on_c, 7, 60, 54
9, 62980, Note_off_c, 7, 60, 64
9, 62980, Note_off_c, 7, 67, 64
9, 62980, Note_off_c, 7, 33, 64
9, 62980, Note_on_c, 7, 43, 63
9, 62983, Note_off_c, 7, 43, 64
9, 63066, Note_on_c, 7, 67, 28
9, 63072, Note_off_c, 7, 67, 64
9, 63152, Note_on_c, 7, 67, 102
9, 63154, Note_off_c, 7, 67, 64
9, 63166, Note_on_c, 7, 70, 94
9, 63172, Note_off_c, 7, 70, 64
9, 63172, Note_on_c, 7, 44, 67
9, 63174, Note_off_c, 7, 44, 64
9, 63246, Note_on_c, 7, 67, 102
9, 63252, Note_off_c, 7, 67, 64
9, 63263, Note_on_c, 7, 60, 43
9, 63266, Note_off_c, 7, 60, 64
9, 63360, Note_on_c, 7, 33, 114
9, 63363, Note_off_c, 7, 33, 64
9, 63363, Note_on_c, 7, 40, 114
9, 63363, Note_on_c, 7, 43, 76
9, 63366, Note_off_c, 7, 43, 64
9, 63366, Note_off_c, 7, 40, 64
9, 63366, Note_on_c, 7, 37, 99
9, 63372, Note_off_c, 7, 37, 64
9, 63454, Note_on_c, 7, 60, 40
9, 63460, Note_off_c, 7, 60, 64
9, 63552, Note_on_c, 7, 70, 72
9, 63552, Note_on_c, 7, 62, 40
9, 63554, Note_off_c, 7, 62, 64
9, 63554, Note_off_c, 7, 70, 64
9, 63646, Note_on_c, 7, 70, 85
9, 63652, Note_off_c, 7, 70, 64
9, 63743, Note_on_c, 7, 33, 110
9, 63743, Note_on_c, 7, 60, 54
9, 63746, Note_off_c, 7, 60, 64
9, 63746, Note_off_c, 7, 33, 64
9, 63934, Note_on_c, 7, 70, 94
9, 63940, Note_off_c, 7, 70, 64
9, 63940, Note_on_c, 7, 44, 63
9, 63943, Note_off_c, 7, 44, 64
9, 64032, Note_on_c, 7, 60, 40
9, 64034, Note_off_c, 7, 60, 64
9, 64126, Note_on_c, 7, 33, 114
9, 64132, Note_off_c, 7, 33, 64
9, 64132, Note_on_c, 7, 40, 114
9, 64132, Note_on_c, 7, 43, 63
9, 64134, Note_off_c, 7, 43, 64
9, 64134, Note_off_c, 7, 40, 64
9, 64134, Note_on_c, 7, 37, 99
9, 64140, Note_off_c, 7, 37, 64
9, 64223, Note_on_c, 7, 60, 43
9, 64226, Note_off_c, 7, 60, 64
9, 64320, Note_on_c, 7, 70, 94
9, 64320, Note_on_c, 7, 62, 54
9, 64323, Note_off_c, 7, 62, 64
9, 64323, Note_off_c, 7, 70, 64
9, 64323, Note_on_c, 7, 44, 63
9, 64326, Note_off_c, 7, 44, 64
9, 64510, Note_on_c, 7, 33, 114
9, 64510, Note_on_c, 7, 60, 49
9, 64512, Note_off_c, 7, 60, 64
9, 64512, Note_off_c, 7, 33, 64
9, 64512, Note_on_c, 7, 43, 67
9, 64520, Note_off_c, 7, 43, 64
9, 64703, Note_on_c, 7, 70, 99
9, 64706, Note_off_c, 7, 70, 64
9, 64706, Note_on_c, 7, 44, 63
9, 64710, Note_off_c, 7, 44, 64
9, 64800, Note_on_c, 7, 60, 40
9, 64803, Note_off_c, 7, 60, 64
9, 64894, Note_on_c, 7, 33, 110
9, 64900, Note_off_c, 7, 33, 64
9, 64900, Note_on_c, 7, 40, 114
9, 64900, Note_on_c, 7, 43, 63
9, 64903, Note_off_c, 7, 43, 64
9, 64903, Note_off_c, 7, 40, 64
9, 64903, Note_on_c, 7, 37, 99
9, 64906, Note_off_c, 7, 37, 64
9, 64992, Note_on_c, 7, 60, 43
9, 64994, Note_off_c, 7, 60, 64
9, 65086, Note_on_c, 7, 70, 78
9, 65086, Note_on_c, 7, 62, 40
9, 65092, Note_off_c, 7, 62, 64
9, 65092, Note_off_c, 7, 70, 64
9, 65092, Note_on_c, 7, 44, 63
9, 65094, Note_off_c, 7, 44, 64
9, 65183, Note_on_c, 7, 70, 85
9, 65186, Note_off_c, 7, 70, 64
9, 65280, Note_on_c, 7, 33, 114
9, 65280, Note_on_c, 7, 60, 49
9, 65283, Note_off_c, 7, 60, 64
9, 65283, Note_off_c, 7, 33, 64
9, 65283, Note_on_c, 7, 43, 63
9, 65286, Note_off_c, 7, 43, 64
9, 65380, Note_on_c, 7, 40, 114
9, 65383, Note_off_c, 7, 40, 64
9, 65383, Note_on_c, 7, 37, 99
9, 65386, Note_off_c, 7, 37, 64
9, 65472, Note_on_c, 7, 70, 99
9, 65474, Note_off_c, 7, 70, 64
9, 65474, Note_on_c, 7, 44, 63
9, 65480, Note_off_c, 7, 44, 64
9, 65566, Note_on_c, 7, 60, 40
9, 65572, Note_off_c, 7, 60, 64
9, 65663, Note_on_c, 7, 33, 114
9, 65666, Note_off_c, 7, 33, 64
9, 65666, Note_on_c, 7, 40, 114
9, 65666, Note_on_c, 7, 43, 67
9, 65672, Note_off_c, 7, 43, 64
9, 65672, Note_off_c, 7, 40, 64
9, 65672, Note_on_c, 7, 37, 99
9, 65674, Note_off_c, 7, 37, 64
9, 65760, Note_on_c, 7, 60, 40
9, 65763, Note_off_c, 7, 60, 64
9, 65854, Note_on_c, 7, 70, 81
9, 65854, Note_on_c, 7, 62, 49
9, 65860, Note_off_c, 7, 62, 64
9, 65860, Note_off_c, 7, 70, 64
9, 65860, Note_on_c, 7, 44, 67
9, 65863, Note_off_c, 7, 44, 64
9, 65952, Note_on_c, 7, 70, 99
9, 65954, Note_off_c, 7, 70, 64
9, 65954, Note_on_c, 7, 40, 110
9, 65960, Note_off_c, 7, 40, 64
9, 65960, Note_on_c, 7, 37, 95
9, 65963, Note_off_c, 7, 37, 64
9, 66046, Note_on_c, 7, 33, 110
9, 66046, Note_on_c, 7, 67, 74
9, 66046, Note_on_c, 7, 60, 54
9, 66052, Note_off_c, 7, 60, 64
9, 66052, Note_off_c, 7, 67, 64
9, 66052, Note_off_c, 7, 33, 64
9, 66052, Note_on_c, 7, 43, 76
9, 66054, Note_off_c, 7, 43, 64
9, 66140, Note_on_c, 7, 67, 28
9, 66143, Note_off_c, 7, 67, 64
9, 66223, Note_on_c, 7, 67, 102
9, 66226, Note_off_c, 7, 67, 64
9, 66240, Note_on_c, 7, 70, 99
9, 66243, Note_off_c, 7, 70, 64
9, 66243, Note_on_c, 7, 44, 63
9, 66246, Note_off_c, 7, 44, 64
9, 66320, Note_on_c, 7, 67, 102
9, 66323, Note_off_c, 7, 67, 64
9, 66334, Note_on_c, 7, 60, 54
9, 66340, Note_off_c, 7, 60, 64
9, 66432, Note_on_c, 7, 33, 114
9, 66434, Note_off_c, 7, 33, 64
9, 66434, Note_on_c, 7, 40, 110
9, 66434, Note_on_c, 7, 43, 60
9, 66440, Note_off_c, 7, 43, 64
9, 66440, Note_off_c, 7, 40, 64
9, 66440, Note_on_c, 7, 37, 95
9, 66443, Note_off_c, 7, 37, 64
9, 66526, Note_on_c, 7, 60, 43
9, 66532, Note_off_c, 7, 60, 64
9, 66623, Note_on_c, 7, 70, 81
9, 66623, Note_on_c, 7, 62, 49
9, 66626, Note_off_c, 7, 62, 64
9, 66626, Note_off_c, 7, 70, 64
9, 66720, Note_on_c, 7, 70, 99
9, 66723, Note_off_c, 7, 70, 64
9, 66812, Note_on_c, 7, 33, 110
9, 66812, Note_on_c, 7, 60, 54
9, 66820, Note_off_c, 7, 60, 64
9, 66820, Note_off_c, 7, 33, 64
9, 67006, Note_on_c, 7, 70, 94
9, 67010, Note_off_c, 7, 70, 64
9, 67010, Note_on_c, 7, 44, 67
9, 67012, Note_off_c, 7, 44, 64
9, 67103, Note_on_c, 7, 60, 43
9, 67106, Note_off_c, 7, 60, 64
9, 67200, Note_on_c, 7, 33, 114
9, 67203, Note_off_c, 7, 33, 64
9, 67203, Note_on_c, 7, 40, 110
9, 67203, Note_on_c, 7, 43, 67
9, 67206, Note_off_c, 7, 43, 64
9, 67206, Note_off_c, 7, 40, 64
9, 67206, Note_on_c, 7, 37, 95
9, 67210, Note_off_c, 7, 37, 64
9, 67294, Note_on_c, 7, 60, 49
9, 67300, Note_off_c, 7, 60, 64
9, 67392, Note_on_c, 7, 70, 94
9, 67392, Note_on_c, 7, 62, 54
9, 67394, Note_off_c, 7, 62, 64
9, 67394, Note_off_c, 7, 70, 64
9, 67394, Note_on_c, 7, 44, 63
9, 67400, Note_off_c, 7, 44, 64
9, 67583, Note_on_c, 7, 33, 110
9, 67583, Note_on_c, 7, 60, 54
9, 67586, Note_off_c, 7, 60, 64
9, 67586, Note_off_c, 7, 33, 64
9, 67586, Note_on_c, 7, 43, 63
9, 67592, Note_off_c, 7, 43, 64
9, 67774, Note_on_c, 7, 70, 94
9, 67780, Note_off_c, 7, 70, 64
9, 67780, Note_on_c, 7, 44, 60
9, 67783, Note_off_c, 7, 44, 64
9, 67872, Note_on_c, 7, 60, 33
9, 67874, Note_off_c, 7, 60, 64
9, 67966, Note_on_c, 7, 33, 110
9, 67972, Note_off_c, 7, 33, 64
9, 67972, Note_on_c, 7, 40, 110
9, 67972, Note_on_c, 7, 43, 63
9, 67974, Note_off_c, 7, 43, 64
9, 67974, Note_off_c, 7, 40, 64
9, 67974, Note_on_c, 7, 37, 95
9, 67980, Note_off_c, 7, 37, 64
9, 68063, Note_on_c, 7, 60, 36
9, 68066, Note_off_c, 7, 60, 64
9, 68160, Note_on_c, 7, 70, 78
9, 68160, Note_on_c, 7, 62, 49
9, 68163, Note_off_c, 7, 62, 64
9, 68163, Note_off_c, 7, 70, 64
9, 68163, Note_on_c, 7, 44, 54
9, 68166, Note_off_c, 7, 44, 64
9, 68254, Note_on_c, 7, 70, 94
9, 68260, Note_off_c, 7, 70, 64
9, 68352, Note_on_c, 7, 33, 110
9, 68352, Note_on_c, 7, 60, 54
9, 68354, Note_off_c, 7, 60, 64
9, 68354, Note_off_c, 7, 33, 64
9, 68354, Note_on_c, 7, 43, 63
9, 68360, Note_off_c, 7, 43, 64
9, 68543, Note_on_c, 7, 70, 94
9, 68546, Note_off_c, 7, 70, 64
9, 68546, Note_on_c, 7, 44, 54
9, 68552, Note_off_c, 7, 44, 64
9, 68640, Note_on_c, 7, 60, 43
9, 68643, Note_off_c, 7, 60, 64
9, 68734, Note_on_c, 7, 33, 114
9, 68740, Note_off_c, 7, 33, 64
9, 68740, Note_on_c, 7, 40, 110
9, 68740, Note_on_c, 7, 43, 63
9, 68743, Note_off_c, 7, 43, 64
9, 68743, Note_off_c, 7, 40, 64
9, 68743, Note_on_c, 7, 37, 95
9, 68746, Note_off_c, 7, 37, 64
9, 68832, Note_on_c, 7, 60, 40
9, 68834, Note_off_c, 7, 60, 64
9, 68926, Note_on_c, 7, 70, 78
9, 68926, Note_on_c, 7, 62, 49
9, 68932, Note_off_c, 7, 62, 64
9, 68932, Note_off_c, 7, 70, 64
9, 68932, Note_on_c, 7, 44, 60
9, 68934, Note_off_c, 7, 44, 64
9, 69023, Note_on_c, 7, 70, 99
9, 69026, Note_off_c, 7, 70, 64
9, 69120, Note_on_c, 7, 33, 114
9, 69120, Note_on_c, 7, 67, 74
9, 69120, Note_on_c, 7, 60, 54
9, 69123, Note_off_c, 7, 60, 64
9, 69123, Note_off_c, 7, 67, 64
9, 69123, Note_off_c, 7, 33, 64
9, 69123, Note_on_c, 7, 43, 63
9, 69126, Note_off_c, 7, 43, 64
9, 69210, Note_on_c, 7, 67, 28
9, 69212, Note_off_c, 7, 67, 64
9, 69294, Note_on_c, 7, 67, 102
9, 69300, Note_off_c, 7, 67, 64
9, 69310, Note_on_c, 7, 70, 94
9, 69312, Note_off_c, 7, 70, 64
9, 69312, Note_on_c, 7, 44, 67
9, 69320, Note_off_c, 7, 44, 64
9, 69392, Note_on_c, 7, 67, 102
9, 69394, Note_off_c, 7, 67, 64
9, 69406, Note_on_c, 7, 60, 43
9, 69410, Note_off_c, 7, 60, 64
9, 69503, Note_on_c, 7, 33, 114
9, 69506, Note_off_c, 7, 33, 64
9, 69506, Note_on_c, 7, 40, 114
9, 69506, Note_on_c, 7, 43, 76
9, 69510, Note_off_c, 7, 43, 64
9, 69510, Note_off_c, 7, 40, 64
9, 69510, Note_on_c, 7, 37, 99
9, 69512, Note_off_c, 7, 37, 64
9, 69600, Note_on_c, 7, 60, 40
9, 69603, Note_off_c, 7, 60, 64
9, 69694, Note_on_c, 7, 70, 72
9, 69694, Note_on_c, 7, 62, 40
9, 69700, Note_off_c, 7, 62, 64
9, 69700, Note_off_c, 7, 70, 64
9, 69792, Note_on_c, 7, 70, 85
9, 69794, Note_off_c, 7, 70, 64
9, 69886, Note_on_c, 7, 33, 110
9, 69886, Note_on_c, 7, 60, 54
9, 69892, Note_off_c, 7, 60, 64
9, 69892, Note_off_c, 7, 33, 64
9, 70080, Note_on_c, 7, 70, 94
9, 70083, Note_off_c, 7, 70, 64
9, 70083, Note_on_c, 7, 44, 63
9, 70086, Note_off_c, 7, 44, 64
9, 70174, Note_on_c, 7, 60, 40
9, 70180, Note_off_c, 7, 60, 64
9, 70272, Note_on_c, 7, 33, 114
9, 70274, Note_off_c, 7, 33, 64
9, 70274, Note_on_c, 7, 40, 114
9, 70274, Note_on_c, 7, 43, 63
9, 70280, Note_off_c, 7, 43, 64
9, 70280, Note_off_c, 7, 40, 64
9, 70280, Note_on_c, 7, 37, 99
9, 70283, Note_off_c, 7, 37, 64
9, 70366, Note_on_c, 7, 60, 43
9, 70372, Note_off_c, 7, 60, 64
9, 70463, Note_on_c, 7, 70, 94
9, 70463, Note_on_c, 7, 62, 54
9, 70466, Note_off_c, 7, 62, 64
9, 70466, Note_off_c, 7, 70, 64
9, 70466, Note_on_c, 7, 44, 63
9, 70472, Note_off_c, 7, 44, 64
9, 70654, Note_on_c, 7, 33, 114
9, 70654, Note_on_c, 7, 60, 49
9, 70660, Note_off_c, 7, 60, 64
9, 70660, Note_off_c, 7, 33, 64
9, 70660, Note_on_c, 7, 43, 67
9, 70663, Note_off_c, 7, 43, 64
9, 70846, Note_on_c, 7, 70, 99
9, 70852, Note_off_c, 7, 70, 64
9, 70852, Note_on_c, 7, 44, 63
9, 70854, Note_off_c, 7, 44, 64
9, 70943, Note_on_c, 7, 60, 40
9, 70946, Note_off_c, 7, 60, 64
9, 71040, Note_on_c, 7, 33, 110
9, 71043, Note_off_c, 7, 33, 64
9, 71043, Note_on_c, 7, 40, 114
9, 71043, Note_on_c, 7, 43, 63
9, 71046, Note_off_c, 7, 43, 64
9, 71046, Note_off_c, 7, 40, 64
9, 71046, Note_on_c, 7, 37, 99
9, 71052, Note_off_c, 7, 37, 64
9, 71134, Note_on_c, 7, 60, 43
9, 71140, Note_off_c, 7, 60, 64
9, 71232, Note_on_c, 7, 70, 78
9, 71232, Note_on_c, 7, 62, 40
9, 71234, Note_off_c, 7, 62, 64
9, 71234, Note_off_c, 7, 70, 64
9, 71234, Note_on_c, 7, 44, 63
9, 71240, Note_off_c, 7, 44, 64
9, 71326, Note_on_c, 7, 70, 85
9, 71332, Note_off_c, 7, 70, 64
9, 71423, Note_on_c, 7, 33, 114
9, 71423, Note_on_c, 7, 60, 49
9, 71426, Note_off_c, 7, 60, 64
9, 71426, Note_off_c, 7, 33, 64
9, 71426, Note_on_c, 7, 43, 63
9, 71432, Note_off_c, 7, 43, 64
9, 71612, Note_on_c, 7, 70, 99
9, 71620, Note_off_c, 7, 70, 64
9, 71620, Note_on_c, 7, 44, 63
9, 71623, Note_off_c, 7, 44, 64
9, 71710, Note_on_c, 7, 60, 40
9, 71712, Note_off_c, 7, 60, 64
9, 71806, Note_on_c, 7, 33, 114
9, 71810, Note_off_c, 7, 33, 64
9, 71810, Note_on_c, 7, 40, 114
9, 71810, Note_on_c, 7, 43, 67
9, 71812, Note_off_c, 7, 43, 64
9, 71812, Note_off_c, 7, 40, 64
9, 71812, Note_on_c, 7, 37, 99
9, 71820, Note_off_c, 7, 37, 64
9, 71903, Note_on_c, 7, 60, 40
9, 71906, Note_off_c, 7, 60, 64
9, 72000, Note_on_c, 7, 70, 81
9, 72000, Note_on_c, 7, 62, 49
9, 72003, Note_off_c, 7, 62, 64
9, 72003, Note_off_c, 7, 70, 64
9, 72003, Note_on_c, 7, 44, 67
9, 72006, Note_off_c, 7, 44, 64
9, 72094, Note_on_c, 7, 70, 99
9, 72100, Note_off_c, 7, 70, 64
9, 72192, Note_on_c, 7, 33, 110
9, 72192, Note_on_c, 7, 67, 74
9, 72192, Note_on_c, 7, 60, 54
9, 72194, Note_off_c, 7, 60, 64
9, 72194, Note_off_c, 7, 67, 64
9, 72194, Note_off_c, 7, 33, 64
9, 72194, Note_on_c, 7, 43, 76
9, 72200, Note_off_c, 7, 43, 64
9, 72283, Note_on_c, 7, 67, 28
9, 72286, Note_off_c, 7, 67, 64
9, 72366, Note_on_c, 7, 67, 102
9, 72372, Note_off_c, 7, 67, 64
9, 72383, Note_on_c, 7, 70, 99
9, 72386, Note_off_c, 7, 70, 64
9, 72386, Note_on_c, 7, 44, 63
9, 72392, Note_off_c, 7, 44, 64
9, 72463, Note_on_c, 7, 67, 102
9, 72466, Note_off_c, 7, 67, 64
9, 72480, Note_on_c, 7, 60, 54
9, 72483, Note_off_c, 7, 60, 64
9, 72574, Note_on_c, 7, 33, 114
9, 72580, Note_off_c, 7, 33, 64
9, 72580, Note_on_c, 7, 40, 110
9, 72580, Note_on_c, 7, 43, 60
9, 72583, Note_off_c, 7, 43, 64
9, 72583, Note_off_c, 7, 40, 64
9, 72583, Note_on_c, 7, 37, 95
9, 72586, Note_off_c, 7, 37, 64
9, 72672, Note_on_c, 7, 60, 43
9, 72674, Note_off_c, 7, 60, 64
9, 72766, Note_on_c, 7, 70, 81
9, 72766, Note_on_c, 7, 62, 49
9, 72772, Note_off_c, 7, 62, 64
9, 72772, Note_off_c, 7, 70, 64
9, 72863, Note_on_c, 7, 70, 99
9, 72866, Note_off_c, 7, 70, 64
9, 72960, Note_on_c, 7, 33, 110
9, 72960, Note_on_c, 7, 60, 54
9, 72963, Note_off_c, 7, 60, 64
9, 72963, Note_off_c, 7, 33, 64
9, 73152, Note_on_c, 7, 70, 94
9, 73154, Note_off_c, 7, 70, 64
9, 73154, Note_on_c, 7, 44, 67
9, 73160, Note_off_c, 7, 44, 64
9, 73246, Note_on_c, 7, 60, 43
9, 73252, Note_off_c, 7, 60, 64
9, 73343, Note_on_c, 7, 33, 114
9, 73346, Note_off_c, 7, 33, 64
9, 73346, Note_on_c, 7, 40, 110
9, 73346, Note_on_c, 7, 43, 67
9, 73352, Note_off_c, 7, 43, 64
9, 73352, Note_off_c, 7, 40, 64
9, 73352, Note_on_c, 7, 37, 95
9, 73354, Note_off_c, 7, 37, 64
9, 73440, Note_on_c, 7, 60, 49
9, 73443, Note_off_c, 7, 60, 64
9, 73534, Note_on_c, 7, 70, 94
9, 73534, Note_on_c, 7, 62, 54
9, 73540, Note_off_c, 7, 62, 64
9, 73540, Note_off_c, 7, 70, 64
9, 73540, Note_on_c, 7, 44, 63
9, 73543, Note_off_c, 7, 44, 64
9, 73726, Note_on_c, 7, 33, 110
9, 73726, Note_on_c, 7, 60, 54
9, 73732, Note_off_c, 7, 60, 64
9, 73732, Note_off_c, 7, 33, 64
9, 73732, Note_on_c, 7, 43, 63
9, 73734, Note_off_c, 7, 43, 64
9, 73920, Note_on_c, 7, 70, 94
9, 73923, Note_off_c, 7, 70, 64
9, 73923, Note_on_c, 7, 44, 60
9, 73926, Note_off_c, 7, 44, 64
9, 74012, Note_on_c, 7, 60, 33
9, 74020, Note_off_c, 7, 60, 64
9, 74110, Note_on_c, 7, 33, 110
9, 74112, Note_off_c, 7, 33, 64
9, 74112, Note_on_c, 7, 40, 110
9, 74112, Note_on_c, 7, 43, 63
9, 74120, Note_off_c, 7, 43, 64
9, 74120, Note_off_c, 7, 40, 64
9, 74120, Note_on_c, 7, 37, 95
9, 74123, Note_off_c, 7, 37, 64
9, 74206, Note_on_c, 7, 60, 36
9, 74210, Note_off_c, 7, 60, 64
9, 74303, Note_on_c, 7, 70, 78
9, 74303, Note_on_c, 7, 62, 49
9, 74306, Note_off_c, 7, 62, 64
9, 74306, Note_off_c, 7, 70, 64
9, 74306, Note_on_c, 7, 44, 54
9, 74310, Note_off_c, 7, 44, 64
9, 74400, Note_on_c, 7, 70, 94
9, 74403, Note_off_c, 7, 70, 64
9, 74494, Note_on_c, 7, 33, 110
9, 74494, Note_on_c, 7, 60, 54
9, 74500, Note_off_c, 7, 60, 64
9, 74500, Note_off_c, 7, 33, 64
9, 74500, Note_on_c, 7, 43, 63
9, 74503, Note_off_c, 7, 43, 64
9, 74686, Note_on_c, 7, 70, 94
9, 74692, Note_off_c, 7, 70, 64
9, 74692, Note_on_c, 7, 44, 54
9, 74694, Note_off_c, 7, 44, 64
9, 74783, Note_on_c, 7, 60, 43
9, 74786, Note_off_c, 7, 60, 64
9, 74880, Note_on_c, 7, 33, 114
9, 74883, Note_off_c, 7, 33, 64
9, 74883, Note_on_c, 7, 40, 110
9, 74883, Note_on_c, 7, 43, 63
9, 74886, Note_off_c, 7, 43, 64
9, 74886, Note_off_c, 7, 40, 64
9, 74886, Note_on_c, 7, 37, 95
9, 74892, Note_off_c, 7, 37, 64
9, 74974, Note_on_c, 7, 60, 40
9, 74980, Note_off_c, 7, 60, 64
9, 75072, Note_on_c, 7, 70, 78
9, 75072, Note_on_c, 7, 62, 49
9, 75074, Note_off_c, 7, 62, 64
9, 75074, Note_off_c, 7, 70, 64
9, 75074, Note_on_c, 7, 44, 60
9, 75080, Note_off_c, 7, 44, 64
9, 75166, Note_on_c, 7, 70, 99
9, 75172, Note_off_c, 7, 70, 64
9, 75263, Note_on_c, 7, 33, 114
9, 75263, Note_on_c, 7, 67, 74
9, 75263, Note_on_c, 7, 60, 54
9, 75266, Note_off_c, 7, 60, 64
9, 75266, Note_off_c, 7, 67, 64
9, 75266, Note_off_c, 7, 33, 64
9, 75266, Note_on_c, 7, 43, 63
9, 75272, Note_off_c, 7, 43, 64
9, 75354, Note_on_c, 7, 67, 28
9, 75360, Note_off_c, 7, 67, 64
9, 75440, Note_on_c, 7, 67, 102
9, 75443, Note_off_c, 7, 67, 64
9, 75454, Note_on_c, 7, 70, 94
9, 75460, Note_off_c, 7, 70, 64
9, 75460, Note_on_c, 7, 44, 67
9, 75463, Note_off_c, 7, 44, 64
9, 75534, Note_on_c, 7, 67, 102
9, 75540, Note_off_c, 7, 67, 64
9, 75552, Note_on_c, 7, 60, 43
9, 75554, Note_off_c, 7, 60, 64
9, 75646, Note_on_c, 7, 33, 114
9, 75652, Note_off_c, 7, 33, 64
9, 75652, Note_on_c, 7, 40, 114
9, 75652, Note_on_c, 7, 43, 76
9, 75654, Note_off_c, 7, 43, 64
9, 75654, Note_off_c, 7, 40, 64
9, 75654, Note_on_c, 7, 37, 99
9, 75660, Note_off_c, 7, 37, 64
9, 75743, Note_on_c, 7, 60, 40
9, 75746, Note_off_c, 7, 60, 64
9, 75840, Note_on_c, 7, 70, 72
9, 75840, Note_on_c, 7, 62, 40
9, 75843, Note_off_c, 7, 62, 64
9, 75843, Note_off_c, 7, 70, 64
9, 75934, Note_on_c, 7, 70, 85
9, 75940, Note_off_c, 7, 70, 64
9, 76032, Note_on_c, 7, 33, 110
9, 76032, Note_on_c, 7, 60, 54
9, 76034, Note_off_c, 7, 60, 64
9, 76034, Note_off_c, 7, 33, 64
9, 76223, Note_on_c, 7, 70, 94
9, 76226, Note_off_c, 7, 70, 64
9, 76226, Note_on_c, 7, 44, 63
9, 76232, Note_off_c, 7, 44, 64
9, 76320, Note_on_c, 7, 60, 40
9, 76323, Note_off_c, 7, 60, 64
9, 76412, Note_on_c, 7, 33, 114
9, 76420, Note_off_c, 7, 33, 64
9, 76420, Note_on_c, 7, 40, 114
9, 76420, Note_on_c, 7, 43, 63
9, 76423, Note_off_c, 7, 43, 64
9, 76423, Note_off_c, 7, 40, 64
9, 76423, Note_on_c, 7, 37, 99
9, 76426, Note_off_c, 7, 37, 64
9, 76510, Note_on_c, 7, 60, 43
9, 76512, Note_off_c, 7, 60, 64
9, 76606, Note_on_c, 7, 70, 94
9, 76606, Note_on_c, 7, 62, 54
9, 76610, Note_off_c, 7, 62, 64
9, 76610, Note_off_c, 7, 70, 64
9, 76610, Note_on_c, 7, 44, 63
9, 76612, Note_off_c, 7, 44, 64
9, 76800, Note_on_c, 7, 33, 114
9, 76800, Note_on_c, 7, 60, 49
9, 76803, Note_off_c, 7, 60, 64
9, 76803, Note_off_c, 7, 33, 64
9, 76803, Note_on_c, 7, 43, 67
9, 76806, Note_off_c, 7, 43, 64
9, 76992, Note_on_c, 7, 70, 99
9, 76994, Note_off_c, 7, 70, 64
9, 76994, Note_on_c, 7, 44, 63
9, 77000, Note_off_c, 7, 44, 64
9, 77086, Note_on_c, 7, 60, 40
9, 77092, Note_off_c, 7, 60, 64
9, 77183, Note_on_c, 7, 33, 110
9, 77186, Note_off_c, 7, 33, 64
9, 77186, Note_on_c, 7, 40, 114
9, 77186, Note_on_c, 7, 43, 63
9, 77192, Note_off_c, 7, 43, 64
9, 77192, Note_off_c, 7, 40, 64
9, 77192, Note_on_c, 7, 37, 99
9, 77194, Note_off_c, 7, 37, 64
9, 77280, Note_on_c, 7, 60, 43
9, 77283, Note_off_c, 7, 60, 64
9, 77374, Note_on_c, 7, 70, 78
9, 77374, Note_on_c, 7, 62, 40
9, 77380, Note_off_c, 7, 62, 64
9, 77380, Note_off_c, 7, 70, 64
9, 77380, Note_on_c, 7, 44, 63
9, 77383, Note_off_c, 7, 44, 64
9, 77472, Note_on_c, 7, 70, 85
9, 77474, Note_off_c, 7, 70, 64
9, 77566, Note_on_c, 7, 33, 114
9, 77566, Note_on_c, 7, 60, 49
9, 77572, Note_off_c, 7, 60, 64
9, 77572, Note_off_c, 7, 33, 64
9, 77572, Note_on_c, 7, 43, 63
9, 77574, Note_off_c, 7, 43, 64
9, 77760, Note_on_c, 7, 70, 99
9, 77763, Note_off_c, 7, 70, 64
9, 77763, Note_on_c, 7, 44, 63
9, 77766, Note_off_c, 7, 44, 64
9, 77854, Note_on_c, 7, 60, 40
9, 77860, Note_off_c, 7, 60, 64
9, 77952, Note_on_c, 7, 33, 114
9, 77954, Note_off_c, 7, 33, 64
9, 77954, Note_on_c, 7, 40, 114
9, 77954, Note_on_c, 7, 43, 67
9, 77960, Note_off_c, 7, 43, 64
9, 77960, Note_off_c, 7, 40, 64
9, 77960, Note_on_c, 7, 37, 99
9, 77963, Note_off_c, 7, 37, 64
9, 78046, Note_on_c, 7, 60, 40
9, 78052, Note_off_c, 7, 60, 64
9, 78143, Note_on_c, 7, 70, 81
9, 78143, Note_on_c, 7, 62, 49
9, 78146, Note_off_c, 7, 62, 64
9, 78146, Note_off_c, 7, 70, 64
9, 78146, Note_on_c, 7, 44, 67
9, 78152, Note_off_c, 7, 44, 64
9, 78240, Note_on_c, 7, 70, 99
9, 78243, Note_off_c, 7, 70, 64
9, 78334, Note_on_c, 7, 33, 110
9, 78334, Note_on_c, 7, 67, 74
9, 78334, Note_on_c, 7, 60, 54
9, 78340, Note_off_c, 7, 60, 64
9, 78340, Note_off_c, 7, 67, 64
9, 78340, Note_off_c, 7, 33, 64
9, 78340, Note_on_c, 7, 43, 76
9, 78343, Note_off_c, 7, 43, 64
9, 78426, Note_on_c, 7, 67, 28
9, 78432, Note_off_c, 7, 67, 64
9, 78510, Note_on_c, 7, 67, 102
9, 78512, Note_off_c, 7, 67, 64
9, 78526, Note_on_c, 7, 70, 99
9, 78532, Note_off_c, 7, 70, 64
9, 78532, Note_on_c, 7, 44, 63
9, 78534, Note_off_c, 7, 44, 64
9, 78606, Note_on_c, 7, 67, 102
9, 78610, Note_off_c, 7, 67, 64
9, 78623, Note_on_c, 7, 60, 54
9, 78626, Note_off_c, 7, 60, 64
9, 78720, Note_on_c, 7, 33, 114
9, 78723, Note_off_c, 7, 33, 64
9, 78723, Note_on_c, 7, 40, 110
9, 78723, Note_on_c, 7, 43, 60
9, 78726, Note_off_c, 7, 43, 64
9, 78726, Note_off_c, 7, 40, 64
9, 78726, Note_on_c, 7, 37, 95
9, 78732, Note_off_c, 7, 37, 64
9, 78812, Note_on_c, 7, 60, 43
9, 78820, Note_off_c, 7, 60, 64
9, 78910, Note_on_c, 7, 70, 81
9, 78910, Note_on_c, 7, 62, 49
9, 78912, Note_off_c, 7, 62, 64
9, 78912, Note_off_c, 7, 70, 64
9, 79006, Note_on_c, 7, 70, 99
9, 79010, Note_off_c, 7, 70, 64
9, 79103, Note_on_c, 7, 33, 110
9, 79103, Note_on_c, 7, 60, 54
9, 79106, Note_off_c, 7, 60, 64
9, 79106, Note_off_c, 7, 33, 64
9, 79294, Note_on_c, 7, 70, 94
9, 79300, Note_off_c, 7, 70, 64
9, 79300, Note_on_c, 7, 44, 67
9, 79303, Note_off_c, 7, 44, 64
9, 79392, Note_on_c, 7, 60, 43
9, 79394, Note_off_c, 7, 60, 64
9, 79486, Note_on_c, 7, 33, 114
9, 79492, Note_off_c, 7, 33, 64
9, 79492, Note_on_c, 7, 40, 110
9, 79492, Note_on_c, 7, 43, 67
9, 79494, Note_off_c, 7, 43, 64
9, 79494, Note_off_c, 7, 40, 64
9, 79494, Note_on_c, 7, 37, 95
9, 79500, Note_off_c, 7, 37, 64
9, 79583, Note_on_c, 7, 60, 49
9, 79586, Note_off_c, 7, 60, 64
9, 79680, Note_on_c, 7, 70, 94
9, 79680, Note_on_c, 7, 62, 54
9, 79683, Note_off_c, 7, 62, 64
9, 79683, Note_off_c, 7, 70, 64
9, 79683, Note_on_c, 7, 44, 63
9, 79686, Note_off_c, 7, 44, 64
9, 79872, Note_on_c, 7, 33, 110
9, 79872, Note_on_c, 7, 60, 54
9, 79874, Note_off_c, 7, 60, 64
9, 79874, Note_off_c, 7, 33, 64
9, 79874, Note_on_c, 7, 43, 63
9, 79880, Note_off_c, 7, 43, 64
9, 80063, Note_on_c, 7, 70, 94
9, 80066, Note_off_c, 7, 70, 64
9, 80066, Note_on_c, 7, 44, 60
9, 80072, Note_off_c, 7, 44, 64
9, 80160, Note_on_c, 7, 60, 33
9, 80163, Note_off_c, 7, 60, 64
9, 80254, Note_on_c, 7, 33, 110
9, 80260, Note_off_c, 7, 33, 64
9, 80260, Note_on_c, 7, 40, 110
9, 80260, Note_on_c, 7, 43, 63
9, 80263, Note_off_c, 7, 43, 64
9, 80263, Note_off_c, 7, 40, 64
9, 80263, Note_on_c, 7, 37, 95
9, 80266, Note_off_c, 7, 37, 64
9, 80352, Note_on_c, 7, 60, 36
9, 80354, Note_off_c, 7, 60, 64
9, 80446, Note_on_c, 7, 70, 78
9, 80446, Note_on_c, 7, 62, 49
9, 80452, Note_off_c, 7, 62, 64
9, 80452, Note_off_c, 7, 70, 64
9, 80452, Note_on_c, 7, 44, 54
9, 80454, Note_off_c, 7, 44, 64
9, 80543, Note_on_c, 7, 70, 94
9, 80546, Note_off_c, 7, 70, 64
9, 80640, Note_on_c, 7, 33, 110
9, 80640, Note_on_c, 7, 60, 54
9, 80643, Note_off_c, 7, 60, 64
9, 80643, Note_off_c, 7, 33, 64
9, 80643, Note_on_c, 7, 43, 63
9, 80646, Note_off_c, 7, 43, 64
9, 80832, Note_on_c, 7, 70, 94
9, 80834, Note_off_c, 7, 70, 64
9, 80834, Note_on_c, 7, 44, 54
9, 80840, Note_off_c, 7, 44, 64
9, 80926, Note_on_c, 7, 60, 43
9, 80932, Note_off_c, 7, 60, 64
9, 81023, Note_on_c, 7, 33, 114
9, 81026, Note_off_c, 7, 33, 64
9, 81026, Note_on_c, 7, 40, 110
9, 81026, Note_on_c, 7, 43, 63
9, 81032, Note_off_c, 7, 43, 64
9, 81032, Note_off_c, 7, 40, 64
9, 81032, Note_on_c, 7, 37, 95
9, 81034, Note_off_c, 7, 37, 64
9, 81120, Note_on_c, 7, 60, 40
9, 81123, Note_off_c, 7, 60, 64
9, 81212, Note_on_c, 7, 70, 78
9, 81212, Note_on_c, 7, 62, 49
9, 81220, Note_off_c, 7, 62, 64
9, 81220, Note_off_c, 7, 70, 64
9, 81220, Note_on_c, 7, 44, 60
9, 81223, Note_off_c, 7, 44, 64
9, 81310, Note_on_c, 7, 70, 99
9, 81312, Note_off_c, 7, 70, 64
9, 81406, Note_on_c, 7, 33, 114
9, 81406, Note_on_c, 7, 67, 74
9, 81406, Note_on_c, 7, 60, 54
9, 81410, Note_off_c, 7, 60, 64
9, 81410, Note_off_c, 7, 67, 64
9, 81410, Note_off_c, 7, 33, 64
9, 81410, Note_on_c, 7, 43, 63
9, 81412, Note_off_c, 7, 43, 64
9, 81500, Note_on_c, 7, 67, 28
9, 81503, Note_off_c, 7, 67, 64
9, 81583, Note_on_c, 7, 67, 102
9, 81586, Note_off_c, 7, 67, 64
9, 81600, Note_on_c, 7, 70, 94
9, 81603, Note_off_c, 7, 70, 64
9, 81603, Note_on_c, 7, 44, 67
9, 81606, Note_off_c, 7, 44, 64
9, 81680, Note_on_c, 7, 67, 102
9, 81683, Note_off_c, 7, 67, 64
9, 81694, Note_on_c, 7, 60, 43
9, 81700, Note_off_c, 7, 60, 64
9, 81792, Note_on_c, 7, 33, 114
9, 81794, Note_off_c, 7, 33, 64
9, 81794, Note_on_c, 7, 40, 114
9, 81794, Note_on_c, 7, 43, 76
9, 81800, Note_off_c, 7, 43, 64
9, 81800, Note_off_c, 7, 40, 64
9, 81800, Note_on_c, 7, 37, 99
9, 81803, Note_off_c, 7, 37, 64
9, 81886, Note_on_c, 7, 60, 40
9, 81892, Note_off_c, 7, 60, 64
9, 81983, Note_on_c, 7, 70, 72
9, 81983, Note_on_c, 7, 62, 40
9, 81986, Note_off_c, 7, 62, 64
9, 81986, Note_off_c, 7, 70, 64
9, 82080, Note_on_c, 7, 70, 85
9, 82083, Note_off_c, 7, 70, 64
9, 82174, Note_on_c, 7, 33, 110
9, 82174, Note_on_c, 7, 60, 54
9, 82180, Note_off_c, 7, 60, 64
9, 82180, Note_off_c, 7, 33, 64
9, 82366, Note_on_c, 7, 70, 94
9, 82372, Note_off_c, 7, 70, 64
9, 82372, Note_on_c, 7, 44, 63
9, 82374, Note_off_c, 7, 44, 64
9, 82463, Note_on_c, 7, 60, 40
9, 82466, Note_off_c, 7, 60, 64
9, 82560, Note_on_c, 7, 33, 114
9, 82563, Note_off_c, 7, 33, 64
9, 82563, Note_on_c, 7, 40, 114
9, 82563, Note_on_c, 7, 43, 63
9, 82566, Note_off_c, 7, 43, 64
9, 82566, Note_off_c, 7, 40, 64
9, 82566, Note_on_c, 7, 37, 99
9, 82572, Note_off_c, 7, 37, 64
9, 82654, Note_on_c, 7, 60, 43
9, 82660, Note_off_c, 7, 60, 64
9, 82752, Note_on_c, 7, 70, 94
9, 82752, Note_on_c, 7, 62, 54
9, 82754, Note_off_c, 7, 62, 64
9, 82754, Note_off_c, 7, 70, 64
9, 82754, Note_on_c, 7, 44, 63
9, 82760, Note_off_c, 7, 44, 64
9, 82943, Note_on_c, 7, 33, 114
9, 82943, Note_on_c, 7, 60, 49
9, 82946, Note_off_c, 7, 60, 64
9, 82946, Note_off_c, 7, 33, 64
9, 82946, Note_on_c, 7, 43, 67
9, 82952, Note_off_c, 7, 43, 64
9, 83134, Note_on_c, 7, 70, 99
9, 83140, Note_off_c, 7, 70, 64
9, 83140, Note_on_c, 7, 44, 63
9, 83143, Note_off_c, 7, 44, 64
9, 83232, Note_on_c, 7, 60, 40
9, 83234, Note_off_c, 7, 60, 64
9, 83326, Note_on_c, 7, 33, 110
9, 83332, Note_off_c, 7, 33, 64
9, 83332, Note_on_c, 7, 40, 114
9, 83332, Note_on_c, 7, 43, 63
9, 83334, Note_off_c, 7, 43, 64
9, 83334, Note_off_c, 7, 40, 64
9, 83334, Note_on_c, 7, 37, 99
9, 83340, Note_off_c, 7, 37, 64
9, 83423, Note_on_c, 7, 60, 43
9, 83426, Note_off_c, 7, 60, 64
9, 83520, Note_on_c, 7, 70, 78
9, 83520, Note_on_c, 7, 62, 40
9, 83523, Note_off_c, 7, 62, 64
9, 83523, Note_off_c, 7, 70, 64
9, 83523, Note_on_c, 7, 44, 63
9, 83526, Note_off_c, 7, 44, 64
9, 83612, Note_on_c, 7, 70, 85
9, 83620, Note_off_c, 7, 70, 64
9, 83710, Note_on_c, 7, 33, 114
9, 83710, Note_on_c, 7, 60, 49
9, 83712, Note_off_c, 7, 60, 64
9, 83712, Note_off_c, 7, 33, 64
9, 83712, Note_on_c, 7, 43, 63
9, 83720, Note_off_c, 7, 43, 64
9, 83903, Note_on_c, 7, 70, 99
9, 83906, Note_off_c, 7, 70, 64
9, 83906, Note_on_c, 7, 44, 63
9, 83910, Note_off_c, 7, 44, 64
9, 84000, Note_on_c, 7, 60, 40
9, 84003, Note_off_c, 7, 60, 64
9, 84094, Note_on_c, 7, 33, 114
9, 84100, Note_off_c, 7, 33, 64
9, 84100, Note_on_c, 7, 40, 114
9, 84100, Note_on_c, 7, 43, 67
9, 84103, Note_off_c, 7, 43, 64
9, 84103, Note_off_c, 7, 40, 64
9, 84103, Note_on_c, 7, 37, 99
9, 84106, Note_off_c, 7, 37, 64
9, 84192, Note_on_c, 7, 60, 40
9, 84194, Note_off_c, 7, 60, 64
9, 84286, Note_on_c, 7, 70, 81
9, 84286, Note_on_c, 7, 62, 49
9, 84292, Note_off_c, 7, 62, 64
9, 84292, Note_off_c, 7, 70, 64
9, 84292, Note_on_c, 7, 44, 67
9, 84294, Note_off_c, 7, 44, 64
9, 84383, Note_on_c, 7, 70, 99
9, 84386, Note_off_c, 7, 70, 64
9, 84480, Note_on_c, 7, 33, 110
9, 84480, Note_on_c, 7, 67, 74
9, 84480, Note_on_c, 7, 60, 54
9, 84483, Note_off_c, 7, 60, 64
9, 84483, Note_off_c, 7, 67, 64
9, 84483, Note_off_c, 7, 33, 64
9, 84483, Note_on_c, 7, 43, 76
9, 84486, Note_off_c, 7, 43, 64
9, 84572, Note_on_c, 7, 67, 28
9, 84574, Note_off_c, 7, 67, 64
9, 84654, Note_on_c, 7, 67, 102
9, 84660, Note_off_c, 7, 67, 64
9, 84672, Note_on_c, 7, 70, 99
9, 84674, Note_off_c, 7, 70, 64
9, 84674, Note_on_c, 7, 44, 63
9, 84680, Note_off_c, 7, 44, 64
9, 84752, Note_on_c, 7, 67, 102
9, 84754, Note_off_c, 7, 67, 64
9, 84766, Note_on_c, 7, 60, 54
9, 84772, Note_off_c, 7, 60, 64
9, 84863, Note_on_c, 7, 33, 114
9, 84866, Note_off_c, 7, 33, 64
9, 84866, Note_on_c, 7, 40, 110
9, 84866, Note_on_c, 7, 43, 60
9, 84872, Note_off_c, 7, 43, 64
9, 84872, Note_off_c, 7, 40, 64
9, 84872, Note_on_c, 7, 37, 95
9, 84874, Note_off_c, 7, 37, 64
9, 84960, Note_on_c, 7, 60, 43
9, 84963, Note_off_c, 7, 60, 64
9, 85054, Note_on_c, 7, 70, 81
9, 85054, Note_on_c, 7, 62, 49
9, 85060, Note_off_c, 7, 62, 64
9, 85060, Note_off_c, 7, 70, 64
9, 85152, Note_on_c, 7, 70, 99
9, 85154, Note_off_c, 7, 70, 64
9, 85246, Note_on_c, 7, 33, 110
9, 85246, Note_on_c, 7, 60, 54
9, 85252, Note_off_c, 7, 60, 64
9, 85252, Note_off_c, 7, 33, 64
9, 85440, Note_on_c, 7, 70, 94
9, 85443, Note_off_c, 7, 70, 64
9, 85443, Note_on_c, 7, 44, 67
9, 85446, Note_off_c, 7, 44, 64
9, 85534, Note_on_c, 7, 60, 43
9, 85540, Note_off_c, 7, 60, 64
9, 85632, Note_on_c, 7, 33, 114
9, 85634, Note_off_c, 7, 33, 64
9, 85634, Note_on_c, 7, 40, 110
9, 85634, Note_on_c, 7, 43, 67
9, 85640, Note_off_c, 7, 43, 64
9, 85640, Note_off_c, 7, 40, 64
9, 85640, Note_on_c, 7, 37, 95
9, 85643, Note_off_c, 7, 37, 64
9, 85726, Note_on_c, 7, 60, 49
9, 85732, Note_off_c, 7, 60, 64
9, 85823, Note_on_c, 7, 70, 94
9, 85823, Note_on_c, 7, 62, 54
9, 85826, Note_off_c, 7, 62, 64
9, 85826, Note_off_c, 7, 70, 64
9, 85826, Note_on_c, 7, 44, 63
9, 85832, Note_off_c, 7, 44, 64
9, 86012, Note_on_c, 7, 33, 110
9, 86012, Note_on_c, 7, 60, 54
9, 86020, Note_off_c, 7, 60, 64
9, 86020, Note_off_c, 7, 33, 64
9, 86020, Note_on_c, 7, 43, 63
9, 86023, Note_off_c, 7, 43, 64
9, 86206, Note_on_c, 7, 70, 94
9, 86210, Note_off_c, 7, 70, 64
9, 86210, Note_on_c, 7, 44, 60
9, 86212, Note_off_c, 7, 44, 64
9, 86303, Note_on_c, 7, 60, 33
9, 86306, Note_off_c, 7, 60, 64
9, 86400, Note_on_c, 7, 33, 110
9, 86403, Note_off_c, 7, 33, 64
9, 86403, Note_on_c, 7, 40, 110
9, 86403, Note_on_c, 7, 43, 63
9, 86406, Note_off_c, 7, 43, 64
9, 86406, Note_off_c, 7, 40, 64
9, 86406, Note_on_c, 7, 37, 95
9, 86410, Note_off_c, 7, 37, 64
9, 86494, Note_on_c, 7, 60, 36
9, 86500, Note_off_c, 7, 60, 64
9, 86592, Note_on_c, 7, 70, 78
9, 86592, Note_on_c, 7, 62, 49
9, 86594, Note_off_c, 7, 62, 64
9, 86594, Note_off_c, 7, 70, 64
9, 86594, Note_on_c, 7, 44, 54
9, 86600, Note_off_c, 7, 44, 64
9, 86686, Note_on_c, 7, 70, 94
9, 86692, Note_off_c, 7, 70, 64
9, 86783, Note_on_c, 7, 33, 110
9, 86783, Note_on_c, 7, 60, 54
9, 86786, Note_off_c, 7, 60, 64
9, 86786, Note_off_c, 7, 33, 64
9, 86786, Note_on_c, 7, 43, 63
9, 86792, Note_off_c, 7, 43, 64
9, 86974, Note_on_c, 7, 70, 94
9, 86980, Note_off_c, 7, 70, 64
9, 86980, Note_on_c, 7, 44, 54
9, 86983, Note_off_c, 7, 44, 64
9, 87072, Note_on_c, 7, 60, 43
9, 87074, Note_off_c, 7, 60, 64
9, 87166, Note_on_c, 7, 33, 114
9, 87172, Note_off_c, 7, 33, 64
9, 87172, Note_on_c, 7, 40, 110
9, 87172, Note_on_c, 7, 43, 63
9, 87174, Note_off_c, 7, 43, 64
9, 87174, Note_off_c, 7, 40, 64
9, 87174, Note_on_c, 7, 37, 95
9, 87180, Note_off_c, 7, 37, 64
9, 87263, Note_on_c, 7, 60, 40
9, 87266, Note_off_c, 7, 60, 64
9, 87360, Note_on_c, 7, 70, 78
9, 87360, Note_on_c, 7, 62, 49
9, 87363, Note_off_c, 7, 62, 64
9, 87363, Note_off_c, 7, 70, 64
9, 87363, Note_on_c, 7, 44, 60
9, 87366, Note_off_c, 7, 44, 64
9, 87454, Note_on_c, 7, 70, 99
9, 87460, Note_off_c, 7, 70, 64
9, 87552, Note_on_c, 7, 33, 114
9, 87552, Note_on_c, 7, 67, 74
9, 87552, Note_on_c, 7, 60, 54
9, 87554, Note_off_c, 7, 60, 64
9, 87554, Note_off_c, 7, 67, 64
9, 87554, Note_off_c, 7, 33, 64
9, 87554, Note_on_c, 7, 43, 63
9, 87560, Note_off_c, 7, 43, 64
9, 87643, Note_on_c, 7, 67, 28
9, 87646, Note_off_c, 7, 67, 64
9, 87726, Note_on_c, 7, 67, 102
9, 87732, Note_off_c, 7, 67, 64
9, 87743, Note_on_c, 7, 70, 94
9, 87746, Note_off_c, 7, 70, 64
9, 87746, Note_on_c, 7, 44, 67
9, 87752, Note_off_c, 7, 44, 64
9, 87823, Note_on_c, 7, 67, 102
9, 87826, Note_off_c, 7, 67, 64
9, 87840, Note_on_c, 7, 60, 43
9, 87843, Note_off_c, 7, 60, 64
9, 87934, Note_on_c, 7, 33, 114
9, 87940, Note_off_c, 7, 33, 64
9, 87940, Note_on_c, 7, 40, 114
9, 87940, Note_on_c, 7, 43, 76
9, 87943, Note_off_c, 7, 43, 64
9, 87943, Note_off_c, 7, 40, 64
9, 87943, Note_on_c, 7, 37, 99
9, 87946, Note_off_c, 7, 37, 64
9, 88032, Note_on_c, 7, 60, 40
9, 88034, Note_off_c, 7, 60, 64
9, 88126, Note_on_c, 7, 70, 72
9, 88126, Note_on_c, 7, 62, 40
9, 88132, Note_off_c, 7, 62, 64
9, 88132, Note_off_c, 7, 70, 64
9, 88223, Note_on_c, 7, 70, 85
9, 88226, Note_off_c, 7, 70, 64
9, 88320, Note_on_c, 7, 33, 110
9, 88320, Note_on_c, 7, 60, 54
9, 88323, Note_off_c, 7, 60, 64
9, 88323, Note_off_c, 7, 33, 64
9, 88510, Note_on_c, 7, 70, 94
9, 88512, Note_off_c, 7, 70, 64
9, 88512, Note_on_c, 7, 44, 63
9, 88520, Note_off_c, 7, 44, 64
9, 88606, Note_on_c, 7, 60, 40
9, 88610, Note_off_c, 7, 60, 64
9, 88703, Note_on_c, 7, 33, 114
9, 88706, Note_off_c, 7, 33, 64
9, 88706, Note_on_c, 7, 40, 114
9, 88706, Note_on_c, 7, 43, 63
9, 88710, Note_off_c, 7, 43, 64
9, 88710, Note_off_c, 7, 40, 64
9, 88710, Note_on_c, 7, 37, 99
9, 88712, Note_off_c, 7, 37, 64
9, 88800, Note_on_c, 7, 60, 43
9, 88803, Note_off_c, 7, 60, 64
9, 88894, Note_on_c, 7, 70, 94
9, 88894, Note_on_c, 7, 62, 54
9, 88900, Note_off_c, 7, 62, 64
9, 88900, Note_off_c, 7, 70, 64
9, 88900, Note_on_c, 7, 44, 63
9, 88903, Note_off_c, 7, 44, 64
9, 89086, Note_on_c, 7, 33, 114
9, 89086, Note_on_c, 7, 60, 49
9, 89092, Note_off_c, 7, 60, 64
9, 89092, Note_off_c, 7, 33, 64
9, 89092, Note_on_c, 7, 43, 67
9, 89094, Note_off_c, 7, 43, 64
9, 89280, Note_on_c, 7, 70, 99
9, 89283, Note_off_c, 7, 70, 64
9, 89283, Note_on_c, 7, 44, 63
9, 89286, Note_off_c, 7, 44, 64
9, 89374, Note_on_c, 7, 60, 40
9, 89380, Note_off_c, 7, 60, 64
9, 89472, Note_on_c, 7, 33, 110
9, 89474, Note_off_c, 7, 33, 64
9, 89474, Note_on_c, 7, 40, 114
9, 89474, Note_on_c, 7, 43, 63
9, 89480, Note_off_c, 7, 43, 64
9, 89480, Note_off_c, 7, 40, 64
9, 89480, Note_on_c, 7, 37, 99
9, 89483, Note_off_c, 7, 37, 64
9, 89566, Note_on_c, 7, 60, 43
9, 89572, Note_off_c, 7, 60, 64
9, 89663, Note_on_c, 7, 70, 78
9, 89663, Note_on_c, 7, 62, 40
9, 89666, Note_off_c, 7, 62, 64
9, 89666, Note_off_c, 7, 70, 64
9, 89666, Note_on_c, 7, 44, 63
9, 89672, Note_off_c, 7, 44, 64
9, 89760, Note_on_c, 7, 70, 85
9, 89763, Note_off_c, 7, 70, 64
9, 89854, Note_on_c, 7, 33, 114
9, 89854, Note_on_c, 7, 60, 49
9, 89860, Note_off_c, 7, 60, 64
9, 89860, Note_off_c, 7, 33, 64
9, 89860, Note_on_c, 7, 40, 114
9, 89860, Note_on_c, 7, 43, 63
9, 89863, Note_off_c, 7, 43, 64
9, 89863, Note_off_c, 7, 40, 64
9, 89863, Note_on_c, 7, 37, 99
9, 89866, Note_off_c, 7, 37, 64
9, 90046, Note_on_c, 7, 70, 99
9, 90052, Note_off_c, 7, 70, 64
9, 90052, Note_on_c, 7, 44, 63
9, 90054, Note_off_c, 7, 44, 64
9, 90143, Note_on_c, 7, 60, 40
9, 90146, Note_off_c, 7, 60, 64
9, 90240, Note_on_c, 7, 33, 114
9, 90243, Note_off_c, 7, 33, 64
9, 90243, Note_on_c, 7, 40, 114
9, 90243, Note_on_c, 7, 43, 67
9, 90246, Note_off_c, 7, 43, 64
9, 90246, Note_off_c, 7, 40, 64
9, 90246, Note_on_c, 7, 37, 99
9, 90252, Note_off_c, 7, 37, 64
9, 90334, Note_on_c, 7, 60, 40
9, 90340, Note_off_c, 7, 60, 64
9, 90340, Note_on_c, 7, 40, 114
9, 90343, Note_off_c, 7, 40, 64
9, 90343, Note_on_c, 7, 37, 99
9, 90346, Note_off_c, 7, 37, 64
9, 90432, Note_on_c, 7, 70, 81
9, 90432, Note_on_c, 7, 62, 49
9, 90434, Note_off_c, 7, 62, 64
9, 90434, Note_off_c, 7, 70, 64
9, 90434, Note_on_c, 7, 44, 67
9, 90440, Note_off_c, 7, 44, 64
9, 90526, Note_on_c, 7, 70, 99
9, 90532, Note_off_c, 7, 70, 64
9, 90623, Note_on_c, 7, 33, 110
9, 90623, Note_on_c, 7, 67, 74
9, 90623, Note_on_c, 7, 60, 54
9, 90626, Note_off_c, 7, 60, 64
9, 90626, Note_off_c, 7, 67, 64
9, 90626, Note_off_c, 7, 33, 64
9, 90626, Note_on_c, 7, 43, 76
9, 90632, Note_off_c, 7, 43, 64
9, 90712, Note_on_c, 7, 67, 28
9, 90720, Note_off_c, 7, 67, 64
9, 90800, Note_on_c, 7, 67, 102
9, 90803, Note_off_c, 7, 67, 64
9, 90812, Note_on_c, 7, 70, 99
9, 90820, Note_off_c, 7, 70, 64
9, 90820, Note_on_c, 7, 44, 63
9, 90823, Note_off_c, 7, 44, 64
9, 90894, Note_on_c, 7, 67, 102
9, 90900, Note_off_c, 7, 67, 64
9, 90910, Note_on_c, 7, 60, 54
9, 90912, Note_off_c, 7, 60, 64
9, 91006, Note_on_c, 7, 33, 114
9, 91010, Note_off_c, 7, 33, 64
9, 91010, Note_on_c, 7, 40, 110
9, 91010, Note_on_c, 7, 43, 60
9, 91012, Note_off_c, 7, 43, 64
9, 91012, Note_off_c, 7, 40, 64
9, 91012, Note_on_c, 7, 37, 95
9, 91020, Note_off_c, 7, 37, 64
9, 91103, Note_on_c, 7, 60, 43
9, 91106, Note_off_c, 7, 60, 64
9, 91200, Note_on_c, 7, 70, 81
9, 91200, Note_on_c, 7, 62, 49
9, 91203, Note_off_c, 7, 62, 64
9, 91203, Note_off_c, 7, 70, 64
9, 91294, Note_on_c, 7, 70, 99
9, 91300, Note_off_c, 7, 70, 64
9, 91392, Note_on_c, 7, 33, 110
9, 91392, Note_on_c, 7, 60, 54
9, 91394, Note_off_c, 7, 60, 64
9, 91394, Note_off_c, 7, 33, 64
9, 91583, Note_on_c, 7, 70, 94
9, 91586, Note_off_c, 7, 70, 64
9, 91586, Note_on_c, 7, 44, 67
9, 91592, Note_off_c, 7, 44, 64
9, 91680, Note_on_c, 7, 60, 43
9, 91683, Note_off_c, 7, 60, 64
9, 91774, Note_on_c, 7, 33, 114
9, 91780, Note_off_c, 7, 33, 64
9, 91780, Note_on_c, 7, 40, 110
9, 91780, Note_on_c, 7, 43, 67
9, 91783, Note_off_c, 7, 43, 64
9, 91783, Note_off_c, 7, 40, 64
9, 91783, Note_on_c, 7, 37, 95
9, 91786, Note_off_c, 7, 37, 64
9, 91872, Note_on_c, 7, 60, 49
9, 91874, Note_off_c, 7, 60, 64
9, 91966, Note_on_c, 7, 70, 94
9, 91966, Note_on_c, 7, 62, 54
9, 91972, Note_off_c, 7, 62, 64
9, 91972, Note_off_c, 7, 70, 64
9, 91972, Note_on_c, 7, 44, 63
9, 91974, Note_off_c, 7, 44, 64
9, 92160, Note_on_c, 7, 33, 110
9, 92160, Note_on_c, 7, 60, 54
9, 92163, Note_off_c, 7, 60, 64
9, 92163, Note_off_c, 7, 33, 64
9, 92163, Note_on_c, 7, 43, 63
9, 92166, Note_off_c, 7, 43, 64
9, 92352, Note_on_c, 7, 70, 94
9, 92354, Note_off_c, 7, 70, 64
9, 92354, Note_on_c, 7, 44, 60
9, 92360, Note_off_c, 7, 44, 64
9, 92446, Note_on_c, 7, 60, 33
9, 92452, Note_off_c, 7, 60, 64
9, 92543, Note_on_c, 7, 33, 110
9, 92546, Note_off_c, 7, 33, 64
9, 92546, Note_on_c, 7, 40, 110
9, 92546, Note_on_c, 7, 43, 63
9, 92552, Note_off_c, 7, 43, 64
9, 92552, Note_off_c, 7, 40, 64
9, 92552, Note_on_c, 7, 37, 95
9, 92554, Note_off_c, 7, 37, 64
9, 92640, Note_on_c, 7, 60, 36
9, 92643, Note_off_c, 7, 60, 64
9, 92734, Note_on_c, 7, 70, 78
9, 92734, Note_on_c, 7, 62, 49
9, 92740, Note_off_c, 7, 62, 64
9, 92740, Note_off_c, 7, 70, 64
9, 92740, Note_on_c, 7, 44, 54
9, 92743, Note_off_c, 7, 44, 64
9, 92832, Note_on_c, 7, 70, 94
9, 92834, Note_off_c, 7, 70, 64
9, 92926, Note_on_c, 7, 33, 110
9, 92926, Note_on_c, 7, 60, 54
9, 92932, Note_off_c, 7, 60, 64
9, 92932, Note_off_c, 7, 33, 64
9, 92932, Note_on_c, 7, 43, 63
9, 92934, Note_off_c, 7, 43, 64
9, 93120, Note_on_c, 7, 70, 94
9, 93123, Note_off_c, 7, 70, 64
9, 93123, Note_on_c, 7, 44, 54
9, 93126, Note_off_c, 7, 44, 64
9, 93212, Note_on_c, 7, 60, 43
9, 93220, Note_off_c, 7, 60, 64
9, 93310, Note_on_c, 7, 33, 114
9, 93312, Note_off_c, 7, 33, 64
9, 93312, Note_on_c, 7, 40, 110
9, 93312, Note_on_c, 7, 43, 63
9, 93320, Note_off_c, 7, 43, 64
9, 93320, Note_off_c, 7, 40, 64
9, 93320, Note_on_c, 7, 37, 95
9, 93323, Note_off_c, 7, 37, 64
9, 93406, Note_on_c, 7, 60, 40
9, 93410, Note_off_c, 7, 60, 64
9, 93503, Note_on_c, 7, 70, 78
9, 93503, Note_on_c, 7, 62, 49
9, 93506, Note_off_c, 7, 62, 64
9, 93506, Note_off_c, 7, 70, 64
9, 93506, Note_on_c, 7, 44, 60
9, 93510, Note_off_c, 7, 44, 64
9, 93600, Note_on_c, 7, 70, 99
9, 93603, Note_off_c, 7, 70, 64
9, 93694, Note_on_c, 7, 33, 114
9, 93694, Note_on_c, 7, 67, 74
9, 93694, Note_on_c, 7, 60, 54
9, 93700, Note_off_c, 7, 60, 64
9, 93700, Note_off_c, 7, 67, 64
9, 93700, Note_off_c, 7, 33, 64
9, 93700, Note_on_c, 7, 43, 63
9, 93703, Note_off_c, 7, 43, 64
9, 93786, Note_on_c, 7, 67, 28
9, 93792, Note_off_c, 7, 67, 64
9, 93872, Note_on_c, 7, 67, 102
9, 93874, Note_off_c, 7, 67, 64
9, 93886, Note_on_c, 7, 70, 94
9, 93892, Note_off_c, 7, 70, 64
9, 93892, Note_on_c, 7, 44, 67
9, 93894, Note_off_c, 7, 44, 64
9, 93966, Note_on_c, 7, 67, 102
9, 93972, Note_off_c, 7, 67, 64
9, 93983, Note_on_c, 7, 60, 43
9, 93986, Note_off_c, 7, 60, 64
9, 94080, Note_on_c, 7, 33, 114
9, 94083, Note_off_c, 7, 33, 64
9, 94083, Note_on_c, 7, 40, 114
9, 94083, Note_on_c, 7, 43, 76
9, 94086, Note_off_c, 7, 43, 64
9, 94086, Note_off_c, 7, 40, 64
9, 94086, Note_on_c, 7, 37, 99
9, 94092, Note_off_c, 7, 37, 64
9, 94174, Note_on_c, 7, 60, 40
9, 94180, Note_off_c, 7, 60, 64
9, 94272, Note_on_c, 7, 70, 72
9, 94272, Note_on_c, 7, 62, 40
9, 94274, Note_off_c, 7, 62, 64
9, 94274, Note_off_c, 7, 70, 64
9, 94366, Note_on_c, 7, 70, 85
9, 94372, Note_off_c, 7, 70, 64
9, 94463, Note_on_c, 7, 33, 110
9, 94463, Note_on_c, 7, 60, 54
9, 94466, Note_off_c, 7, 60, 64
9, 94466, Note_off_c, 7, 33, 64
9, 94654, Note_on_c, 7, 70, 94
9, 94660, Note_off_c, 7, 70, 64
9, 94660, Note_on_c, 7, 44, 63
9, 94663, Note_off_c, 7, 44, 64
9, 94752, Note_on_c, 7, 60, 40
9, 94754, Note_off_c, 7, 60, 64
9, 94846, Note_on_c, 7, 33, 114
9, 94852, Note_off_c, 7, 33, 64
9, 94852, Note_on_c, 7, 40, 114
9, 94852, Note_on_c, 7, 43, 63
9, 94854, Note_off_c, 7, 43, 64
9, 94854, Note_off_c, 7, 40, 64
9, 94854, Note_on_c, 7, 37, 99
9, 94860, Note_off_c, 7, 37, 64
9, 94943, Note_on_c, 7, 60, 43
9, 94946, Note_off_c, 7, 60, 64
9, 95040, Note_on_c, 7, 70, 94
9, 95040, Note_on_c, 7, 62, 54
9, 95043, Note_off_c, 7, 62, 64
9, 95043, Note_off_c, 7, 70, 64
9, 95043, Note_on_c, 7, 44, 63
9, 95046, Note_off_c, 7, 44, 64
9, 95232, Note_on_c, 7, 33, 114
9, 95232, Note_on_c, 7, 60, 49
9, 95234, Note_off_c, 7, 60, 64
9, 95234, Note_off_c, 7, 33, 64
9, 95234, Note_on_c, 7, 43, 67
9, 95240, Note_off_c, 7, 43, 64
9, 95423, Note_on_c, 7, 70, 99
9, 95426, Note_off_c, 7, 70, 64
9, 95426, Note_on_c, 7, 44, 63
9, 95432, Note_off_c, 7, 44, 64
9, 95520, Note_on_c, 7, 60, 40
9, 95523, Note_off_c, 7, 60, 64
9, 95612, Note_on_c, 7, 33, 110
9, 95620, Note_off_c, 7, 33, 64
9, 95620, Note_on_c, 7, 40, 114
9, 95620, Note_on_c, 7, 43, 63
9, 95623, Note_off_c, 7, 43, 64
9, 95623, Note_off_c, 7, 40, 64
9, 95623, Note_on_c, 7, 37, 99
9, 95626, Note_off_c, 7, 37, 64
9, 95710, Note_on_c, 7, 60, 43
9, 95712, Note_off_c, 7, 60, 64
9, 95806, Note_on_c, 7, 70, 78
9, 95806, Note_on_c, 7, 62, 40
9, 95810, Note_off_c, 7, 62, 64
9, 95810, Note_off_c, 7, 70, 64
9, 95810, Note_on_c, 7, 44, 63
9, 95812, Note_off_c, 7, 44, 64
9, 95903, Note_on_c, 7, 70, 85
9, 95906, Note_off_c, 7, 70, 64
9, 96000, Note_on_c, 7, 33, 114
9, 96000, Note_on_c, 7, 60, 49
9, 96003, Note_off_c, 7, 60, 64
9, 96003, Note_off_c, 7, 33, 64
9, 96003, Note_on_c, 7, 43, 63
9, 96006, Note_off_c, 7, 43, 64
9, 96192, Note_on_c, 7, 70, 99
9, 96194, Note_off_c, 7, 70, 64
9, 96194, Note_on_c, 7, 44, 63
9, 96200, Note_off_c, 7, 44, 64
9, 96286, Note_on_c, 7, 60, 40
9, 96292, Note_off_c, 7, 60, 64
9, 96383, Note_on_c, 7, 33, 114
9, 96386, Note_off_c, 7, 33, 64
9, 96386, Note_on_c, 7, 40, 114
9, 96386, Note_on_c, 7, 43, 67
9, 96392, Note_off_c, 7, 43, 64
9, 96392, Note_off_c, 7, 40, 64
9, 96392, Note_on_c, 7, 37, 99
9, 96394, Note_off_c, 7, 37, 64
9, 96480, Note_on_c, 7, 60, 40
9, 96483, Note_off_c, 7, 60, 64
9, 96574, Note_on_c, 7, 70, 81
9, 96574, Note_on_c, 7, 62, 49
9, 96580, Note_off_c, 7, 62, 64
9, 96580, Note_off_c, 7, 70, 64
9, 96580, Note_on_c, 7, 44, 67
9, 96583, Note_off_c, 7, 44, 64
9, 96672, Note_on_c, 7, 70, 99
9, 96674, Note_off_c, 7, 70, 64
9, 96766, Note_on_c, 7, 33, 110
9, 96766, Note_on_c, 7, 67, 74
9, 96766, Note_on_c, 7, 60, 54
9, 96772, Note_off_c, 7, 60, 64
9, 96772, Note_off_c, 7, 67, 64
9, 96772, Note_off_c, 7, 33, 64
9, 96772, Note_on_c, 7, 43, 76
9, 96774, Note_off_c, 7, 43, 64
9, 96860, Note_on_c, 7, 67, 28
9, 96863, Note_off_c, 7, 67, 64
9, 96943, Note_on_c, 7, 67, 102
9, 96946, Note_off_c, 7, 67, 64
9, 96960, Note_on_c, 7, 70, 99
9, 96963, Note_off_c, 7, 70, 64
9, 96963, Note_on_c, 7, 44, 63
9, 96966, Note_off_c, 7, 44, 64
9, 97040, Note_on_c, 7, 67, 102
9, 97043, Note_off_c, 7, 67, 64
9, 97054, Note_on_c, 7, 60, 54
9, 97060, Note_off_c, 7, 60, 64
9, 97152, Note_on_c, 7, 33, 114
9, 97154, Note_off_c, 7, 33, 64
9, 97154, Note_on_c, 7, 40, 110
9, 97154, Note_on_c, 7, 43, 60
9, 97160, Note_off_c, 7, 43, 64
9, 97160, Note_off_c, 7, 40, 64
9, 97160, Note_on_c, 7, 37, 95
9, 97163, Note_off_c, 7, 37, 64
9, 97246, Note_on_c, 7, 60, 43
9, 97252, Note_off_c, 7, 60, 64
9, 97343, Note_on_c, 7, 70, 81
9, 97343, Note_on_c, 7, 62, 49
9, 97346, Note_off_c, 7, 62, 64
9, 97346, Note_off_c, 7, 70, 64
9, 97440, Note_on_c, 7, 70, 99
9, 97443, Note_off_c, 7, 70, 64
9, 97534, Note_on_c, 7, 33, 110
9, 97534, Note_on_c, 7, 60, 54
9, 97540, Note_off_c, 7, 60, 64
9, 97540, Note_off_c, 7, 33, 64
9, 97726, Note_on_c, 7, 70, 94
9, 97732, Note_off_c, 7, 70, 64
9, 97732, Note_on_c, 7, 44, 67
9, 97734, Note_off_c, 7, 44, 64
9, 97823, Note_on_c, 7, 60, 43
9, 97826, Note_off_c, 7, 60, 64
9, 97920, Note_on_c, 7, 33, 114
9, 97923, Note_off_c, 7, 33, 64
9, 97923, Note_on_c, 7, 40, 110
9, 97923, Note_on_c, 7, 43, 67
9, 97926, Note_off_c, 7, 43, 64
9, 97926, Note_off_c, 7, 40, 64
9, 97926, Note_on_c, 7, 37, 95
9, 97932, Note_off_c, 7, 37, 64
9, 98012, Note_on_c, 7, 60, 49
9, 98020, Note_off_c, 7, 60, 64
9, 98110, Note_on_c, 7, 70, 94
9, 98110, Note_on_c, 7, 62, 54
9, 98112, Note_off_c, 7, 62, 64
9, 98112, Note_off_c, 7, 70, 64
9, 98112, Note_on_c, 7, 44, 63
9, 98120, Note_off_c, 7, 44, 64
9, 98303, Note_on_c, 7, 33, 110
9, 98303, Note_on_c, 7, 60, 54
9, 98306, Note_off_c, 7, 60, 64
9, 98306, Note_off_c, 7, 33, 64
9, 98306, Note_on_c, 7, 43, 63
9, 98310, Note_off_c, 7, 43, 64
9, 98494, Note_on_c, 7, 70, 94
9, 98500, Note_off_c, 7, 70, 64
9, 98500, Note_on_c, 7, 44, 60
9, 98503, Note_off_c, 7, 44, 64
9, 98592, Note_on_c, 7, 60, 33
9, 98594, Note_off_c, 7, 60, 64
9, 98686, Note_on_c, 7, 33, 110
9, 98692, Note_off_c, 7, 33, 64
9, 98692, Note_on_c, 7, 40, 110
9, 98692, Note_on_c, 7, 43, 63
9, 98694, Note_off_c, 7, 43, 64
9, 98694, Note_off_c, 7, 40, 64
9, 98694, Note_on_c, 7, 37, 95
9, 98700, Note_off_c, 7, 37, 64
9, 98783, Note_on_c, 7, 60, 36
9, 98786, Note_off_c, 7, 60, 64
9, 98880, Note_on_c, 7, 70, 78
9, 98880, Note_on_c, 7, 62, 49
9, 98883, Note_off_c, 7, 62, 64
9, 98883, Note_off_c, 7, 70, 64
9, 98883, Note_on_c, 7, 44, 54
9, 98886, Note_off_c, 7, 44, 64
9, 98974, Note_on_c, 7, 70, 94
9, 98980, Note_off_c, 7, 70, 64
9, 99072, Note_on_c, 7, 33, 110
9, 99072, Note_on_c, 7, 60, 54
9, 99074, Note_off_c, 7, 60, 64
9, 99074, Note_off_c, 7, 33, 64
9, 99074, Note_on_c, 7, 43, 63
9, 99080, Note_off_c, 7, 43, 64
9, 99263, Note_on_c, 7, 70, 94
9, 99266, Note_off_c, 7, 70, 64
9, 99266, Note_on_c, 7, 44, 54
9, 99272, Note_off_c, 7, 44, 64
9, 99360, Note_on_c, 7, 60, 43
9, 99363, Note_off_c, 7, 60, 64
9, 99454, Note_on_c, 7, 33, 114
9, 99460, Note_off_c, 7, 33, 64
9, 99460, Note_on_c, 7, 40, 110
9, 99460, Note_on_c, 7, 43, 63
9, 99463, Note_off_c, 7, 43, 64
9, 99463, Note_off_c, 7, 40, 64
9, 99463, Note_on_c, 7, 37, 95
9, 99466, Note_off_c, 7, 37, 64
9, 99552, Note_on_c, 7, 60, 40
9, 99554, Note_off_c, 7, 60, 64
9, 99646, Note_on_c, 7, 70, 78
9, 99646, Note_on_c, 7, 62, 49
9, 99652, Note_off_c, 7, 62, 64
9, 99652, Note_off_c, 7, 70, 64
9, 99652, Note_on_c, 7, 44, 60
9, 99654, Note_off_c, 7, 44, 64
9, 99743, Note_on_c, 7, 70, 99
9, 99746, Note_off_c, 7, 70, 64
9, 99840, Note_on_c, 7, 33, 114
9, 99840, Note_on_c, 7, 67, 74
9, 99840, Note_on_c, 7, 60, 54
9, 99843, Note_off_c, 7, 60, 64
9, 99843, Note_off_c, 7, 67, 64
9, 99843, Note_off_c, 7, 33, 64
9, 99843, Note_on_c, 7, 43, 63
9, 99846, Note_off_c, 7, 43, 64
9, 99932, Note_on_c, 7, 67, 28
9, 99934, Note_off_c, 7, 67, 64
9, 100012, Note_on_c, 7, 67, 102
9, 100020, Note_off_c, 7, 67, 64
9, 100032, Note_on_c, 7, 70, 94
9, 100034, Note_off_c, 7, 70, 64
9, 100034, Note_on_c, 7, 44, 67
9, 100040, Note_off_c, 7, 44, 64
9, 100110, Note_on_c, 7, 67, 102
9, 100112, Note_off_c, 7, 67, 64
9, 100126, Note_on_c, 7, 60, 43
9, 100132, Note_off_c, 7, 60, 64
9, 100223, Note_on_c, 7, 33, 114
9, 100226, Note_off_c, 7, 33, 64
9, 100226, Note_on_c, 7, 40, 114
9, 100226, Note_on_c, 7, 43, 76
9, 100232, Note_off_c, 7, 43, 64
9, 100232, Note_off_c, 7, 40, 64
9, 100232, Note_on_c, 7, 37, 99
9, 100234, Note_off_c, 7, 37, 64
9, 100320, Note_on_c, 7, 60, 40
9, 100323, Note_off_c, 7, 60, 64
9, 100412, Note_on_c, 7, 70, 72
9, 100412, Note_on_c, 7, 62, 40
9, 100420, Note_off_c, 7, 62, 64
9, 100420, Note_off_c, 7, 70, 64
9, 100510, Note_on_c, 7, 70, 85
9, 100512, Note_off_c, 7, 70, 64
9, 100606, Note_on_c, 7, 33, 110
9, 100606, Note_on_c, 7, 60, 54
9, 100610, Note_off_c, 7, 60, 64
9, 100610, Note_off_c, 7, 33, 64
9, 100800, Note_on_c, 7, 70, 94
9, 100803, Note_off_c, 7, 70, 64
9, 100803, Note_on_c, 7, 44, 63
9, 100806, Note_off_c, 7, 44, 64
9, 100894, Note_on_c, 7, 60, 40
9, 100900, Note_off_c, 7, 60, 64
9, 100992, Note_on_c, 7, 33, 114
9, 100994, Note_off_c, 7, 33, 64
9, 100994, Note_on_c, 7, 40, 114
9, 100994, Note_on_c, 7, 43, 63
9, 101000, Note_off_c, 7, 43, 64
9, 101000, Note_off_c, 7, 40, 64
9, 101000, Note_on_c, 7, 37, 99
9, 101003, Note_off_c, 7, 37, 64
9, 101086, Note_on_c, 7, 60, 43
9, 101092, Note_off_c, 7, 60, 64
9, 101183, Note_on_c, 7, 70, 94
9, 101183, Note_on_c, 7, 62, 54
9, 101186, Note_off_c, 7, 62, 64
9, 101186, Note_off_c, 7, 70, 64
9, 101186, Note_on_c, 7, 44, 63
9, 101192, Note_off_c, 7, 44, 64
9, 101374, Note_on_c, 7, 33, 114
9, 101374, Note_on_c, 7, 60, 49
9, 101380, Note_off_c, 7, 60, 64
9, 101380, Note_off_c, 7, 33, 64
9, 101380, Note_on_c, 7, 43, 67
9, 101383, Note_off_c, 7, 43, 64
9, 101566, Note_on_c, 7, 70, 99
9, 101572, Note_off_c, 7, 70, 64
9, 101572, Note_on_c, 7, 44, 63
9, 101574, Note_off_c, 7, 44, 64
9, 101663, Note_on_c, 7, 60, 40
9, 101666, Note_off_c, 7, 60, 64
9, 101760, Note_on_c, 7, 33, 110
9, 101763, Note_off_c, 7, 33, 64
9, 101763, Note_on_c, 7, 40, 114
9, 101763, Note_on_c, 7, 43, 63
9, 101766, Note_off_c, 7, 43, 64
9, 101766, Note_off_c, 7, 40, 64
9, 101766, Note_on_c, 7, 37, 99
9, 101772, Note_off_c, 7, 37, 64
9, 101854, Note_on_c, 7, 60, 43
9, 101860, Note_off_c, 7, 60, 64
9, 101952, Note_on_c, 7, 70, 78
9, 101952, Note_on_c, 7, 62, 40
9, 101954, Note_off_c, 7, 62, 64
9, 101954, Note_off_c, 7, 70, 64
9, 101954, Note_on_c, 7, 44, 63
9, 101960, Note_off_c, 7, 44, 64
9, 102046, Note_on_c, 7, 70, 85
9, 102052, Note_off_c, 7, 70, 64
9, 102143, Note_on_c, 7, 33, 114
9, 102143, Note_on_c, 7, 60, 49
9, 102146, Note_off_c, 7, 60, 64
9, 102146, Note_off_c, 7, 33, 64
9, 102146, Note_on_c, 7, 40, 110
9, 102146, Note_on_c, 7, 43, 63
9, 102152, Note_off_c, 7, 43, 64
9, 102152, Note_off_c, 7, 40, 64
9, 102152, Note_on_c, 7, 37, 95
9, 102154, Note_off_c, 7, 37, 64
9, 102243, Note_on_c, 7, 40, 99
9, 102246, Note_off_c, 7, 40, 64
9, 102246, Note_on_c, 7, 37, 84
9, 102252, Note_off_c, 7, 37, 64
9, 102334, Note_on_c, 7, 70, 99
9, 102340, Note_off_c, 7, 70, 64
9, 102340, Note_on_c, 7, 40, 94
9, 102340, Note_on_c, 7, 44, 63
9, 102343, Note_off_c, 7, 44, 64
9, 102343, Note_off_c, 7, 40, 64
9, 102343, Note_on_c, 7, 37, 79
9, 102346, Note_off_c, 7, 37, 64
9, 102432, Note_on_c, 7, 60, 40
9, 102434, Note_off_c, 7, 60, 64
9, 102434, Note_on_c, 7, 40, 104
9, 102440, Note_off_c, 7, 40, 64
9, 102440, Note_on_c, 7, 37, 89
9, 102443, Note_off_c, 7, 37, 64
9, 102526, Note_on_c, 7, 33, 114
9, 102532, Note_off_c, 7, 33, 64
9, 102532, Note_on_c, 7, 43, 67
9, 102534, Note_off_c, 7, 43, 64
9, 102623, Note_on_c, 7, 60, 40
9, 102626, Note_off_c, 7, 60, 64
9, 102720, Note_on_c, 7, 70, 81
9, 102720, Note_on_c, 7, 62, 49
9, 102723, Note_off_c, 7, 62, 64
9, 102723, Note_off_c, 7, 70, 64
9, 102723, Note_on_c, 7, 44, 67
9, 102726, Note_off_c, 7, 44, 64
9, 102812, Note_on_c, 7, 70, 99
9, 102820, Note_off_c, 7, 70, 64
9, 102910, Note_on_c, 7, 33, 110
9, 102910, Note_on_c, 7, 67, 74
9, 102910, Note_on_c, 7, 60, 54
9, 102912, Note_off_c, 7, 60, 64
9, 102912, Note_off_c, 7, 67, 64
9, 102912, Note_off_c, 7, 33, 64
9, 102912, Note_on_c, 7, 43, 76
9, 102920, Note_off_c, 7, 43, 64
9, 103003, Note_on_c, 7, 67, 28
9, 103006, Note_off_c, 7, 67, 64
9, 103086, Note_on_c, 7, 67, 102
9, 103092, Note_off_c, 7, 67, 64
9, 103103, Note_on_c, 7, 70, 99
9, 103106, Note_off_c, 7, 70, 64
9, 103106, Note_on_c, 7, 44, 63
9, 103110, Note_off_c, 7, 44, 64
9, 103183, Note_on_c, 7, 67, 102
9, 103186, Note_off_c, 7, 67, 64
9, 103200, Note_on_c, 7, 60, 54
9, 103203, Note_off_c, 7, 60, 64
9, 103294, Note_on_c, 7, 33, 114
9, 103300, Note_off_c, 7, 33, 64
9, 103300, Note_on_c, 7, 40, 110
9, 103300, Note_on_c, 7, 43, 60
9, 103303, Note_off_c, 7, 43, 64
9, 103303, Note_off_c, 7, 40, 64
9, 103303, Note_on_c, 7, 37, 95
9, 103306, Note_off_c, 7, 37, 64
9, 103392, Note_on_c, 7, 60, 43
9, 103394, Note_off_c, 7, 60, 64
9, 103486, Note_on_c, 7, 70, 81
9, 103486, Note_on_c, 7, 62, 49
9, 103492, Note_off_c, 7, 62, 64
9, 103492, Note_off_c, 7, 70, 64
9, 103583, Note_on_c, 7, 70, 99
9, 103586, Note_off_c, 7, 70, 64
9, 103680, Note_on_c, 7, 33, 110
9, 103680, Note_on_c, 7, 60, 54
9, 103683, Note_off_c, 7, 60, 64
9, 103683, Note_off_c, 7, 33, 64
9, 103872, Note_on_c, 7, 70, 94
9, 103874, Note_off_c, 7, 70, 64
9, 103874, Note_on_c, 7, 44, 67
9, 103880, Note_off_c, 7, 44, 64
9, 103966, Note_on_c, 7, 60, 43
9, 103972, Note_off_c, 7, 60, 64
9, 104063, Note_on_c, 7, 33, 114
9, 104066, Note_off_c, 7, 33, 64
9, 104066, Note_on_c, 7, 40, 110
9, 104066, Note_on_c, 7, 43, 67
9, 104072, Note_off_c, 7, 43, 64
9, 104072, Note_off_c, 7, 40, 64
9, 104072, Note_on_c, 7, 37, 95
9, 104074, Note_off_c, 7, 37, 64
9, 104160, Note_on_c, 7, 60, 49
9, 104163, Note_off_c, 7, 60, 64
9, 104254, Note_on_c, 7, 70, 94
9, 104254, Note_on_c, 7, 62, 54
9, 104260, Note_off_c, 7, 62, 64
9, 104260, Note_off_c, 7, 70, 64
9, 104260, Note_on_c, 7, 44, 63
9, 104263, Note_off_c, 7, 44, 64
9, 104446, Note_on_c, 7, 33, 110
9, 104446, Note_on_c, 7, 60, 54
9, 104452, Note_off_c, 7, 60, 64
9, 104452, Note_off_c, 7, 33, 64
9, 104452, Note_on_c, 7, 43, 63
9, 104454, Note_off_c, 7, 43, 64
9, 104640, Note_on_c, 7, 70, 94
9, 104643, Note_off_c, 7, 70, 64
9, 104643, Note_on_c, 7, 44, 60
9, 104646, Note_off_c, 7, 44, 64
9, 104734, Note_on_c, 7, 60, 33
9, 104740, Note_off_c, 7, 60, 64
9, 104832, Note_on_c, 7, 33, 110
9, 104834, Note_off_c, 7, 33, 64
9, 104834, Note_on_c, 7, 40, 110
9, 104834, Note_on_c, 7, 43, 63
9, 104840, Note_off_c, 7, 43, 64
9, 104840, Note_off_c, 7, 40, 64
9, 104840, Note_on_c, 7, 37, 95
9, 104843, Note_off_c, 7, 37, 64
9, 104926, Note_on_c, 7, 60, 36
9, 104932, Note_off_c, 7, 60, 64
9, 105023, Note_on_c, 7, 70, 78
9, 105023, Note_on_c, 7, 62, 49
9, 105026, Note_off_c, 7, 62, 64
9, 105026, Note_off_c, 7, 70, 64
9, 105026, Note_on_c, 7, 44, 54
9, 105032, Note_off_c, 7, 44, 64
9, 105120, Note_on_c, 7, 70, 94
9, 105123, Note_off_c, 7, 70, 64
9, 105212, Note_on_c, 7, 33, 110
9, 105212, Note_on_c, 7, 60, 54
9, 105220, Note_off_c, 7, 60, 64
9, 105220, Note_off_c, 7, 33, 64
9, 105220, Note_on_c, 7, 43, 63
9, 105223, Note_off_c, 7, 43, 64
9, 105406, Note_on_c, 7, 70, 94
9, 105410, Note_off_c, 7, 70, 64
9, 105410, Note_on_c, 7, 44, 54
9, 105412, Note_off_c, 7, 44, 64
9, 105503, Note_on_c, 7, 60, 43
9, 105506, Note_off_c, 7, 60, 64
9, 105600, Note_on_c, 7, 33, 114
9, 105603, Note_off_c, 7, 33, 64
9, 105603, Note_on_c, 7, 40, 110
9, 105603, Note_on_c, 7, 43, 63
9, 105606, Note_off_c, 7, 43, 64
9, 105606, Note_off_c, 7, 40, 64
9, 105606, Note_on_c, 7, 37, 95
9, 105610, Note_off_c, 7, 37, 64
9, 105694, Note_on_c, 7, 60, 40
9, 105700, Note_off_c, 7, 60, 64
9, 105792, Note_on_c, 7, 70, 78
9, 105792, Note_on_c, 7, 62, 49
9, 105794, Note_off_c, 7, 62, 64
9, 105794, Note_off_c, 7, 70, 64
9, 105794, Note_on_c, 7, 44, 60
9, 105800, Note_off_c, 7, 44, 64
9, 105886, Note_on_c, 7, 70, 99
9, 105892, Note_off_c, 7, 70, 64
9, 105983, Note_on_c, 7, 33, 114
9, 105983, Note_on_c, 7, 67, 74
9, 105983, Note_on_c, 7, 60, 54
9, 105986, Note_off_c, 7, 60, 64
9, 105986, Note_off_c, 7, 67, 64
9, 105986, Note_off_c, 7, 33, 64
9, 105986, Note_on_c, 7, 43, 63
9, 105992, Note_off_c, 7, 43, 64
9, 106074, Note_on_c, 7, 67, 28
9, 106080, Note_off_c, 7, 67, 64
9, 106160, Note_on_c, 7, 67, 102
9, 106163, Note_off_c, 7, 67, 64
9, 106174, Note_on_c, 7, 70, 94
9, 106180, Note_off_c, 7, 70, 64
9, 106180, Note_on_c, 7, 44, 67
9, 106183, Note_off_c, 7, 44, 64
9, 106254, Note_on_c, 7, 67, 102
9, 106260, Note_off_c, 7, 67, 64
9, 106272, Note_on_c, 7, 60, 43
9, 106274, Note_off_c, 7, 60, 64
9, 106366, Note_on_c, 7, 33, 114
9, 106372, Note_off_c, 7, 33, 64
9, 106372, Note_on_c, 7, 40, 114
9, 106372, Note_on_c, 7, 43, 76
9, 106374, Note_off_c, 7, 43, 64
9, 106374, Note_off_c, 7, 40, 64
9, 106374, Note_on_c, 7, 37, 99
9, 106380, Note_off_c, 7, 37, 64
9, 106463, Note_on_c, 7, 60, 40
9, 106466, Note_off_c, 7, 60, 64
9, 106560, Note_on_c, 7, 70, 72
9, 106560, Note_on_c, 7, 62, 40
9, 106563, Note_off_c, 7, 62, 64
9, 106563, Note_off_c, 7, 70, 64
9, 106654, Note_on_c, 7, 70, 85
9, 106660, Note_off_c, 7, 70, 64
9, 106752, Note_on_c, 7, 33, 110
9, 106752, Note_on_c, 7, 60, 54
9, 106754, Note_off_c, 7, 60, 64
9, 106754, Note_off_c, 7, 33, 64
9, 106943, Note_on_c, 7, 70, 94
9, 106946, Note_off_c, 7, 70, 64
9, 106946, Note_on_c, 7, 44, 63
9, 106952, Note_off_c, 7, 44, 64
9, 107040, Note_on_c, 7, 60, 40
9, 107043, Note_off_c, 7, 60, 64
9, 107134, Note_on_c, 7, 33, 114
9, 107140, Note_off_c, 7, 33, 64
9, 107140, Note_on_c, 7, 40, 114
9, 107140, Note_on_c, 7, 43, 63
9, 107143, Note_off_c, 7, 43, 64
9, 107143, Note_off_c, 7, 40, 64
9, 107143, Note_on_c, 7, 37, 99
9, 107146, Note_off_c, 7, 37, 64
9, 107232, Note_on_c, 7, 60, 43
9, 107234, Note_off_c, 7, 60, 64
9, 107326, Note_on_c, 7, 70, 94
9, 107326, Note_on_c, 7, 62, 54
9, 107332, Note_off_c, 7, 62, 64
9, 107332, Note_off_c, 7, 70, 64
9, 107332, Note_on_c, 7, 44, 63
9, 107334, Note_off_c, 7, 44, 64
9, 107520, Note_on_c, 7, 33, 114
9, 107520, Note_on_c, 7, 60, 49
9, 107523, Note_off_c, 7, 60, 64
9, 107523, Note_off_c, 7, 33, 64
9, 107523, Note_on_c, 7, 43, 67
9, 107526, Note_off_c, 7, 43, 64
9, 107710, Note_on_c, 7, 70, 99
9, 107712, Note_off_c, 7, 70, 64
9, 107712, Note_on_c, 7, 44, 63
9, 107720, Note_off_c, 7, 44, 64
9, 107806, Note_on_c, 7, 60, 40
9, 107810, Note_off_c, 7, 60, 64
9, 107903, Note_on_c, 7, 33, 110
9, 107906, Note_off_c, 7, 33, 64
9, 107906, Note_on_c, 7, 40, 114
9, 107906, Note_on_c, 7, 43, 63
9, 107910, Note_off_c, 7, 43, 64
9, 107910, Note_off_c, 7, 40, 64
9, 107910, Note_on_c, 7, 37, 99
9, 107912, Note_off_c, 7, 37, 64
9, 108000, Note_on_c, 7, 60, 43
9, 108003, Note_off_c, 7, 60, 64
9, 108094, Note_on_c, 7, 70, 78
9, 108094, Note_on_c, 7, 62, 40
9, 108100, Note_off_c, 7, 62, 64
9, 108100, Note_off_c, 7, 70, 64
9, 108100, Note_on_c, 7, 44, 63
9, 108103, Note_off_c, 7, 44, 64
9, 108192, Note_on_c, 7, 70, 85
9, 108194, Note_off_c, 7, 70, 64
9, 108286, Note_on_c, 7, 33, 114
9, 108286, Note_on_c, 7, 60, 49
9, 108292, Note_off_c, 7, 60, 64
9, 108292, Note_off_c, 7, 33, 64
9, 108292, Note_on_c, 7, 43, 63
9, 108294, Note_off_c, 7, 43, 64
9, 108480, Note_on_c, 7, 70, 99
9, 108483, Note_off_c, 7, 70, 64
9, 108483, Note_on_c, 7, 44, 63
9, 108486, Note_off_c, 7, 44, 64
9, 108574, Note_on_c, 7, 60, 40
9, 108580, Note_off_c, 7, 60, 64
9, 108672, Note_on_c, 7, 33, 114
9, 108674, Note_off_c, 7, 33, 64
9, 108674, Note_on_c, 7, 40, 114
9, 108674, Note_on_c, 7, 43, 67
9, 108680, Note_off_c, 7, 43, 64
9, 108680, Note_off_c, 7, 40, 64
9, 108680, Note_on_c, 7, 37, 99
9, 108683, Note_off_c, 7, 37, 64
9, 108766, Note_on_c, 7, 60, 40
9, 108772, Note_off_c, 7, 60, 64
9, 108863, Note_on_c, 7, 70, 81
9, 108863, Note_on_c, 7, 62, 49
9, 108866, Note_off_c, 7, 62, 64
9, 108866, Note_off_c, 7, 70, 64
9, 108866, Note_on_c, 7, 44, 67
9, 108872, Note_off_c, 7, 44, 64
9, 108960, Note_on_c, 7, 70, 99
9, 108963, Note_off_c, 7, 70, 64
9, 109054, Note_on_c, 7, 33, 110
9, 109054, Note_on_c, 7, 67, 74
9, 109054, Note_on_c, 7, 60, 54
9, 109060, Note_off_c, 7, 60, 64
9, 109060, Note_off_c, 7, 67, 64
9, 109060, Note_off_c, 7, 33, 64
9, 109060, Note_on_c, 7, 43, 76
9, 109063, Note_off_c, 7, 43, 64
9, 109146, Note_on_c, 7, 67, 28
9, 109152, Note_off_c, 7, 67, 64
9, 109232, Note_on_c, 7, 67, 102
9, 109234, Note_off_c, 7, 67, 64
9, 109246, Note_on_c, 7, 70, 99
9, 109252, Note_off_c, 7, 70, 64
9, 109252, Note_on_c, 7, 44, 63
9, 109254, Note_off_c, 7, 44, 64
9, 109326, Note_on_c, 7, 67, 102
9, 109332, Note_off_c, 7, 67, 64
9, 109343, Note_on_c, 7, 60, 54
9, 109346, Note_off_c, 7, 60, 64
9, 109440, Note_on_c, 7, 33, 114
9, 109443, Note_off_c, 7, 33, 64
9, 109443, Note_on_c, 7, 40, 110
9, 109443, Note_on_c, 7, 43, 60
9, 109446, Note_off_c, 7, 43, 64
9, 109446, Note_off_c, 7, 40, 64
9, 109446, Note_on_c, 7, 37, 95
9, 109452, Note_off_c, 7, 37, 64
9, 109534, Note_on_c, 7, 60, 43
9, 109540, Note_off_c, 7, 60, 64
9, 109632, Note_on_c, 7, 70, 81
9, 109632, Note_on_c, 7, 62, 49
9, 109634, Note_off_c, 7, 62, 64
9, 109634, Note_off_c, 7, 70, 64
9, 109726, Note_on_c, 7, 70, 99
9, 109732, Note_off_c, 7, 70, 64
9, 109823, Note_on_c, 7, 33, 110
9, 109823, Note_on_c, 7, 60, 54
9, 109826, Note_off_c, 7, 60, 64
9, 109826, Note_off_c, 7, 33, 64
9, 110012, Note_on_c, 7, 70, 94
9, 110020, Note_off_c, 7, 70, 64
9, 110020, Note_on_c, 7, 44, 67
9, 110023, Note_off_c, 7, 44, 64
9, 110110, Note_on_c, 7, 60, 43
9, 110112, Note_off_c, 7, 60, 64
9, 110206, Note_on_c, 7, 33, 114
9, 110210, Note_off_c, 7, 33, 64
9, 110210, Note_on_c, 7, 40, 110
9, 110210, Note_on_c, 7, 43, 67
9, 110212, Note_off_c, 7, 43, 64
9, 110212, Note_off_c, 7, 40, 64
9, 110212, Note_on_c, 7, 37, 95
9, 110220, Note_off_c, 7, 37, 64
9, 110303, Note_on_c, 7, 60, 49
9, 110306, Note_off_c, 7, 60, 64
9, 110400, Note_on_c, 7, 70, 94
9, 110400, Note_on_c, 7, 62, 54
9, 110403, Note_off_c, 7, 62, 64
9, 110403, Note_off_c, 7, 70, 64
9, 110403, Note_on_c, 7, 44, 63
9, 110406, Note_off_c, 7, 44, 64
9, 110592, Note_on_c, 7, 33, 110
9, 110592, Note_on_c, 7, 60, 54
9, 110594, Note_off_c, 7, 60, 64
9, 110594, Note_off_c, 7, 33, 64
9, 110594, Note_on_c, 7, 43, 63
9, 110600, Note_off_c, 7, 43, 64
9, 110783, Note_on_c, 7, 70, 94
9, 110786, Note_off_c, 7, 70, 64
9, 110786, Note_on_c, 7, 44, 60
9, 110792, Note_off_c, 7, 44, 64
9, 110880, Note_on_c, 7, 60, 33
9, 110883, Note_off_c, 7, 60, 64
9, 110974, Note_on_c, 7, 33, 110
9, 110980, Note_off_c, 7, 33, 64
9, 110980, Note_on_c, 7, 40, 110
9, 110980, Note_on_c, 7, 43, 63
9, 110983, Note_off_c, 7, 43, 64
9, 110983, Note_off_c, 7, 40, 64
9, 110983, Note_on_c, 7, 37, 95
9, 110986, Note_off_c, 7, 37, 64
9, 111072, Note_on_c, 7, 60, 36
9, 111074, Note_off_c, 7, 60, 64
9, 111166, Note_on_c, 7, 70, 78
9, 111166, Note_on_c, 7, 62, 49
9, 111172, Note_off_c, 7, 62, 64
9, 111172, Note_off_c, 7, 70, 64
9, 111172, Note_on_c, 7, 44, 54
9, 111174, Note_off_c, 7, 44, 64
9, 111263, Note_on_c, 7, 70, 94
9, 111266, Note_off_c, 7, 70, 64
9, 111360, Note_on_c, 7, 33, 110
9, 111360, Note_on_c, 7, 60, 54
9, 111363, Note_off_c, 7, 60, 64
9, 111363, Note_off_c, 7, 33, 64
9, 111363, Note_on_c, 7, 43, 63
9, 111366, Note_off_c, 7, 43, 64
9, 111552, Note_on_c, 7, 70, 94
9, 111554, Note_off_c, 7, 70, 64
9, 111554, Note_on_c, 7, 44, 54
9, 111560, Note_off_c, 7, 44, 64
9, 111646, Note_on_c, 7, 60, 43
9, 111652, Note_off_c, 7, 60, 64
9, 111743, Note_on_c, 7, 33, 114
9, 111746, Note_off_c, 7, 33, 64
9, 111746, Note_on_c, 7, 40, 110
9, 111746, Note_on_c, 7, 43, 63
9, 111752, Note_off_c, 7, 43, 64
9, 111752, Note_off_c, 7, 40, 64
9, 111752, Note_on_c, 7, 37, 95
9, 111754, Note_off_c, 7, 37, 64
9, 111840, Note_on_c, 7, 60, 40
9, 111843, Note_off_c, 7, 60, 64
9, 111934, Note_on_c, 7, 70, 78
9, 111934, Note_on_c, 7, 62, 49
9, 111940, Note_off_c, 7, 62, 64
9, 111940, Note_off_c, 7, 70, 64
9, 111940, Note_on_c, 7, 44, 60
9, 111943, Note_off_c, 7, 44, 64
9, 112032, Note_on_c, 7, 70, 99
9, 112034, Note_off_c, 7, 70, 64
9, 112126, Note_on_c, 7, 33, 114
9, 112126, Note_on_c, 7, 67, 74
9, 112126, Note_on_c, 7, 60, 54
9, 112132, Note_off_c, 7, 60, 64
9, 112132, Note_off_c, 7, 67, 64
9, 112132, Note_off_c, 7, 33, 64
9, 112132, Note_on_c, 7, 43, 63
9, 112134, Note_off_c, 7, 43, 64
9, 112220, Note_on_c, 7, 67, 28
9, 112223, Note_off_c, 7, 67, 64
9, 112303, Note_on_c, 7, 67, 102
9, 112306, Note_off_c, 7, 67, 64
9, 112320, Note_on_c, 7, 70, 94
9, 112323, Note_off_c, 7, 70, 64
9, 112323, Note_on_c, 7, 44, 67
9, 112326, Note_off_c, 7, 44, 64
9, 112400, Note_on_c, 7, 67, 102
9, 112403, Note_off_c, 7, 67, 64
9, 112412, Note_on_c, 7, 60, 43
9, 112420, Note_off_c, 7, 60, 64
9, 112510, Note_on_c, 7, 33, 114
9, 112512, Note_off_c, 7, 33, 64
9, 112512, Note_on_c, 7, 40, 114
9, 112512, Note_on_c, 7, 43, 76
9, 112520, Note_off_c, 7, 43, 64
9, 112520, Note_off_c, 7, 40, 64
9, 112520, Note_on_c, 7, 37, 99
9, 112523, Note_off_c, 7, 37, 64
9, 112606, Note_on_c, 7, 60, 40
9, 112610, Note_off_c, 7, 60, 64
9, 112703, Note_on_c, 7, 70, 72
9, 112703, Note_on_c, 7, 62, 40
9, 112706, Note_off_c, 7, 62, 64
9, 112706, Note_off_c, 7, 70, 64
9, 112800, Note_on_c, 7, 70, 85
9, 112803, Note_off_c, 7, 70, 64
9, 112894, Note_on_c, 7, 33, 110
9, 112894, Note_on_c, 7, 60, 54
9, 112900, Note_off_c, 7, 60, 64
9, 112900, Note_off_c, 7, 33, 64
9, 113086, Note_on_c, 7, 70, 94
9, 113092, Note_off_c, 7, 70, 64
9, 113092, Note_on_c, 7, 44, 63
9, 113094, Note_off_c, 7, 44, 64
9, 113183, Note_on_c, 7, 60, 40
9, 113186, Note_off_c, 7, 60, 64
9, 113280, Note_on_c, 7, 33, 114
9, 113283, Note_off_c, 7, 33, 64
9, 113283, Note_on_c, 7, 40, 114
9, 113283, Note_on_c, 7, 43, 63
9, 113286, Note_off_c, 7, 43, 64
9, 113286, Note_off_c, 7, 40, 64
9, 113286, Note_on_c, 7, 37, 99
9, 113292, Note_off_c, 7, 37, 64
9, 113374, Note_on_c, 7, 60, 43
9, 113380, Note_off_c, 7, 60, 64
9, 113472, Note_on_c, 7, 70, 94
9, 113472, Note_on_c, 7, 62, 54
9, 113474, Note_off_c, 7, 62, 64
9, 113474, Note_off_c, 7, 70, 64
9, 113474, Note_on_c, 7, 44, 63
9, 113480, Note_off_c, 7, 44, 64
9, 113663, Note_on_c, 7, 33, 114
9, 113663, Note_on_c, 7, 60, 49
9, 113666, Note_off_c, 7, 60, 64
9, 113666, Note_off_c, 7, 33, 64
9, 113666, Note_on_c, 7, 43, 67
9, 113672, Note_off_c, 7, 43, 64
9, 113854, Note_on_c, 7, 70, 99
9, 113860, Note_off_c, 7, 70, 64
9, 113860, Note_on_c, 7, 44, 63
9, 113863, Note_off_c, 7, 44, 64
9, 113952, Note_on_c, 7, 60, 40
9, 113954, Note_off_c, 7, 60, 64
9, 114046, Note_on_c, 7, 33, 110
9, 114052, Note_off_c, 7, 33, 64
9, 114052, Note_on_c, 7, 40, 114
9, 114052, Note_on_c, 7, 43, 63
9, 114054, Note_off_c, 7, 43, 64
9, 114054, Note_off_c, 7, 40, 64
9, 114054, Note_on_c, 7, 37, 99
9, 114060, Note_off_c, 7, 37, 64
9, 114143, Note_on_c, 7, 60, 43
9, 114146, Note_off_c, 7, 60, 64
9, 114240, Note_on_c, 7, 70, 78
9, 114240, Note_on_c, 7, 62, 40
9, 114243, Note_off_c, 7, 62, 64
9, 114243, Note_off_c, 7, 70, 64
9, 114243, Note_on_c, 7, 44, 63
9, 114246, Note_off_c, 7, 44, 64
9, 114334, Note_on_c, 7, 70, 85
9, 114340, Note_off_c, 7, 70, 64
9, 114432, Note_on_c, 7, 33, 114
9, 114432, Note_on_c, 7, 60, 49
9, 114434, Note_off_c, 7, 60, 64
9, 114434, Note_off_c, 7, 33, 64
9, 114434, Note_on_c, 7, 43, 63
9, 114440, Note_off_c, 7, 43, 64
9, 114623, Note_on_c, 7, 70, 99
9, 114626, Note_off_c, 7, 70, 64
9, 114626, Note_on_c, 7, 44, 63
9, 114632, Note_off_c, 7, 44, 64
9, 114720, Note_on_c, 7, 60, 40
9, 114723, Note_off_c, 7, 60, 64
9, 114812, Note_on_c, 7, 33, 114
9, 114820, Note_off_c, 7, 33, 64
9, 114820, Note_on_c, 7, 40, 114
9, 114820, Note_on_c, 7, 43, 67
9, 114823, Note_off_c, 7, 43, 64
9, 114823, Note_off_c, 7, 40, 64
9, 114823, Note_on_c, 7, 37, 99
9, 114826, Note_off_c, 7, 37, 64
9, 114910, Note_on_c, 7, 60, 40
9, 114912, Note_off_c, 7, 60, 64
9, 115006, Note_on_c, 7, 70, 81
9, 115006, Note_on_c, 7, 62, 49
9, 115010, Note_off_c, 7, 62, 64
9, 115010, Note_off_c, 7, 70, 64
9, 115010, Note_on_c, 7, 44, 67
9, 115012, Note_off_c, 7, 44, 64
9, 115103, Note_on_c, 7, 70, 99
9, 115106, Note_off_c, 7, 70, 64
9, 115200, Note_on_c, 7, 33, 110
9, 115200, Note_on_c, 7, 67, 74
9, 115200, Note_on_c, 7, 60, 54
9, 115203, Note_off_c, 7, 60, 64
9, 115203, Note_off_c, 7, 67, 64
9, 115203, Note_off_c, 7, 33, 64
9, 115203, Note_on_c, 7, 43, 76
9, 115206, Note_off_c, 7, 43, 64
9, 115292, Note_on_c, 7, 67, 28
9, 115294, Note_off_c, 7, 67, 64
9, 115374, Note_on_c, 7, 67, 102
9, 115380, Note_off_c, 7, 67, 64
9, 115392, Note_on_c, 7, 70, 99
9, 115394, Note_off_c, 7, 70, 64
9, 115394, Note_on_c, 7, 44, 63
9, 115400, Note_off_c, 7, 44, 64
9, 115472, Note_on_c, 7, 67, 102
9, 115474, Note_off_c, 7, 67, 64
9, 115486, Note_on_c, 7, 60, 54
9, 115492, Note_off_c, 7, 60, 64
9, 115583, Note_on_c, 7, 33, 114
9, 115586, Note_off_c, 7, 33, 64
9, 115586, Note_on_c, 7, 40, 110
9, 115586, Note_on_c, 7, 43, 60
9, 115592, Note_off_c, 7, 43, 64
9, 115592, Note_off_c, 7, 40, 64
9, 115592, Note_on_c, 7, 37, 95
9, 115594, Note_off_c, 7, 37, 64
9, 115680, Note_on_c, 7, 60, 43
9, 115683, Note_off_c, 7, 60, 64
9, 115774, Note_on_c, 7, 70, 81
9, 115774, Note_on_c, 7, 62, 49
9, 115780, Note_off_c, 7, 62, 64
9, 115780, Note_off_c, 7, 70, 64
9, 115872, Note_on_c, 7, 70, 99
9, 115874, Note_off_c, 7, 70, 64
9, 115966, Note_on_c, 7, 33, 110
9, 115966, Note_on_c, 7, 60, 54
9, 115972, Note_off_c, 7, 60, 64
9, 115972, Note_off_c, 7, 33, 64
9, 116160, Note_on_c, 7, 70, 94
9, 116163, Note_off_c, 7, 70, 64
9, 116163, Note_on_c, 7, 44, 67
9, 116166, Note_off_c, 7, 44, 64
9, 116254, Note_on_c, 7, 60, 43
9, 116260, Note_off_c, 7, 60, 64
9, 116352, Note_on_c, 7, 33, 114
9, 116354, Note_off_c, 7, 33, 64
9, 116354, Note_on_c, 7, 40, 110
9, 116354, Note_on_c, 7, 43, 67
9, 116360, Note_off_c, 7, 43, 64
9, 116360, Note_off_c, 7, 40, 64
9, 116360, Note_on_c, 7, 37, 95
9, 116363, Note_off_c, 7, 37, 64
9, 116446, Note_on_c, 7, 60, 49
9, 116452, Note_off_c, 7, 60, 64
9, 116543, Note_on_c, 7, 70, 94
9, 116543, Note_on_c, 7, 62, 54
9, 116546, Note_off_c, 7, 62, 64
9, 116546, Note_off_c, 7, 70, 64
9, 116546, Note_on_c, 7, 44, 63
9, 116552, Note_off_c, 7, 44, 64
9, 116734, Note_on_c, 7, 33, 110
9, 116734, Note_on_c, 7, 60, 54
9, 116740, Note_off_c, 7, 60, 64
9, 116740, Note_off_c, 7, 33, 64
9, 116740, Note_on_c, 7, 43, 63
9, 116743, Note_off_c, 7, 43, 64
9, 116926, Note_on_c, 7, 70, 94
9, 116932, Note_off_c, 7, 70, 64
9, 116932, Note_on_c, 7, 44, 60
9, 116934, Note_off_c, 7, 44, 64
9, 117023, Note_on_c, 7, 60, 33
9, 117026, Note_off_c, 7, 60, 64
9, 117120, Note_on_c, 7, 33, 110
9, 117123, Note_off_c, 7, 33, 64
9, 117123, Note_on_c, 7, 40, 110
9, 117123, Note_on_c, 7, 43, 63
9, 117126, Note_off_c, 7, 43, 64
9, 117126, Note_off_c, 7, 40, 64
9, 117126, Note_on_c, 7, 37, 95
9, 117132, Note_off_c, 7, 37, 64
9, 117212, Note_on_c, 7, 60, 36
9, 117220, Note_off_c, 7, 60, 64
9, 117310, Note_on_c, 7, 70, 78
9, 117310, Note_on_c, 7, 62, 49
9, 117312, Note_off_c, 7, 62, 64
9, 117312, Note_off_c, 7, 70, 64
9, 117312, Note_on_c, 7, 44, 54
9, 117320, Note_off_c, 7, 44, 64
9, 117406, Note_on_c, 7, 70, 94
9, 117410, Note_off_c, 7, 70, 64
9, 117503, Note_on_c, 7, 33, 110
9, 117503, Note_on_c, 7, 60, 54
9, 117506, Note_off_c, 7, 60, 64
9, 117506, Note_off_c, 7, 33, 64
9, 117506, Note_on_c, 7, 43, 63
9, 117510, Note_off_c, 7, 43, 64
9, 117694, Note_on_c, 7, 70, 94
9, 117700, Note_off_c, 7, 70, 64
9, 117700, Note_on_c, 7, 44, 54
9, 117703, Note_off_c, 7, 44, 64
9, 117792, Note_on_c, 7, 60, 43
9, 117794, Note_off_c, 7, 60, 64
9, 117886, Note_on_c, 7, 33, 114
9, 117892, Note_off_c, 7, 33, 64
9, 117892, Note_on_c, 7, 40, 110
9, 117892, Note_on_c, 7, 43, 63
9, 117894, Note_off_c, 7, 43, 64
9, 117894, Note_off_c, 7, 40, 64
9, 117894, Note_on_c, 7, 37, 95
9, 117900, Note_off_c, 7, 37, 64
9, 117983, Note_on_c, 7, 60, 40
9, 117986, Note_off_c, 7, 60, 64
9, 118080, Note_on_c, 7, 70, 78
9, 118080, Note_on_c, 7, 62, 49
9, 118083, Note_off_c, 7, 62, 64
9, 118083, Note_off_c, 7, 70, 64
9, 118083, Note_on_c, 7, 44, 60
9, 118086, Note_off_c, 7, 44, 64
9, 118174, Note_on_c, 7, 70, 99
9, 118180, Note_off_c, 7, 70, 64
9, 118272, Note_on_c, 7, 33, 114
9, 118272, Note_on_c, 7, 67, 74
9, 118272, Note_on_c, 7, 60, 54
9, 118274, Note_off_c, 7, 60, 64
9, 118274, Note_off_c, 7, 67, 64
9, 118274, Note_off_c, 7, 33, 64
9, 118274, Note_on_c, 7, 43, 63
9, 118280, Note_off_c, 7, 43, 64
9, 118363, Note_on_c, 7, 67, 28
9, 118366, Note_off_c, 7, 67, 64
9, 118446, Note_on_c, 7, 67, 102
9, 118452, Note_off_c, 7, 67, 64
9, 118463, Note_on_c, 7, 70, 94
9, 118466, Note_off_c, 7, 70, 64
9, 118466, Note_on_c, 7, 44, 67
9, 118472, Note_off_c, 7, 44, 64
9, 118543, Note_on_c, 7, 67, 102
9, 118546, Note_off_c, 7, 67, 64
9, 118560, Note_on_c, 7, 60, 43
9, 118563, Note_off_c, 7, 60, 64
9, 118654, Note_on_c, 7, 33, 114
9, 118660, Note_off_c, 7, 33, 64
9, 118660, Note_on_c, 7, 40, 114
9, 118660, Note_on_c, 7, 43, 76
9, 118663, Note_off_c, 7, 43, 64
9, 118663, Note_off_c, 7, 40, 64
9, 118663, Note_on_c, 7, 37, 99
9, 118666, Note_off_c, 7, 37, 64
9, 118752, Note_on_c, 7, 60, 40
9, 118754, Note_off_c, 7, 60, 64
9, 118846, Note_on_c, 7, 70, 72
9, 118846, Note_on_c, 7, 62, 40
9, 118852, Note_off_c, 7, 62, 64
9, 118852, Note_off_c, 7, 70, 64
9, 118943, Note_on_c, 7, 70, 85
9, 118946, Note_off_c, 7, 70, 64
9, 119040, Note_on_c, 7, 33, 110
9, 119040, Note_on_c, 7, 60, 54
9, 119043, Note_off_c, 7, 60, 64
9, 119043, Note_off_c, 7, 33, 64
9, 119232, Note_on_c, 7, 70, 94
9, 119234, Note_off_c, 7, 70, 64
9, 119234, Note_on_c, 7, 44, 63
9, 119240, Note_off_c, 7, 44, 64
9, 119326, Note_on_c, 7, 60, 40
9, 119332, Note_off_c, 7, 60, 64
9, 119423, Note_on_c, 7, 33, 114
9, 119426, Note_off_c, 7, 33, 64
9, 119426, Note_on_c, 7, 40, 114
9, 119426, Note_on_c, 7, 43, 63
9, 119432, Note_off_c, 7, 43, 64
9, 119432, Note_off_c, 7, 40, 64
9, 119432, Note_on_c, 7, 37, 99
9, 119434, Note_off_c, 7, 37, 64
9, 119520, Note_on_c, 7, 60, 43
9, 119523, Note_off_c, 7, 60, 64
9, 119612, Note_on_c, 7, 70, 94
9, 119612, Note_on_c, 7, 62, 54
9, 119620, Note_off_c, 7, 62, 64
9, 119620, Note_off_c, 7, 70, 64
9, 119620, Note_on_c, 7, 44, 63
9, 119623, Note_off_c, 7, 44, 64
9, 119806, Note_on_c, 7, 33, 114
9, 119806, Note_on_c, 7, 60, 49
9, 119810, Note_off_c, 7, 60, 64
9, 119810, Note_off_c, 7, 33, 64
9, 119810, Note_on_c, 7, 43, 67
9, 119812, Note_off_c, 7, 43, 64
9, 120000, Note_on_c, 7, 70, 99
9, 120003, Note_off_c, 7, 70, 64
9, 120003, Note_on_c, 7, 44, 63
9, 120006, Note_off_c, 7, 44, 64
9, 120094, Note_on_c, 7, 60, 40
9, 120100, Note_off_c, 7, 60, 64
9, 120192, Note_on_c, 7, 33, 110
9, 120194, Note_off_c, 7, 33, 64
9, 120194, Note_on_c, 7, 40, 114
9, 120194, Note_on_c, 7, 43, 63
9, 120200, Note_off_c, 7, 43, 64
9, 120200, Note_off_c, 7, 40, 64
9, 120200, Note_on_c, 7, 37, 99
9, 120203, Note_off_c, 7, 37, 64
9, 120286, Note_on_c, 7, 60, 43
9, 120292, Note_off_c, 7, 60, 64
9, 120383, Note_on_c, 7, 70, 78
9, 120383, Note_on_c, 7, 62, 40
9, 120386, Note_off_c, 7, 62, 64
9, 120386, Note_off_c, 7, 70, 64
9, 120386, Note_on_c, 7, 44, 63
9, 120392, Note_off_c, 7, 44, 64
9, 120480, Note_on_c, 7, 70, 85
9, 120483, Note_off_c, 7, 70, 64
9, 120574, Note_on_c, 7, 33, 114
9, 120574, Note_on_c, 7, 60, 49
9, 120580, Note_off_c, 7, 60, 64
9, 120580, Note_off_c, 7, 33, 64
9, 120580, Note_on_c, 7, 43, 63
9, 120583, Note_off_c, 7, 43, 64
9, 120674, Note_on_c, 7, 40, 110
9, 120680, Note_off_c, 7, 40, 64
9, 120680, Note_on_c, 7, 37, 95
9, 120683, Note_off_c, 7, 37, 64
9, 120766, Note_on_c, 7, 70, 99
9, 120772, Note_off_c, 7, 70, 64
9, 120772, Note_on_c, 7, 44, 63
9, 120774, Note_off_c, 7, 44, 64
9, 120863, Note_on_c, 7, 60, 40
9, 120866, Note_off_c, 7, 60, 64
9, 120960, Note_on_c, 7, 33, 114
9, 120963, Note_off_c, 7, 33, 64
9, 120963, Note_on_c, 7, 40, 114
9, 120963, Note_on_c, 7, 43, 67
9, 120966, Note_off_c, 7, 43, 64
9, 120966, Note_off_c, 7, 40, 64
9, 120966, Note_on_c, 7, 37, 99
9, 120972, Note_off_c, 7, 37, 64
9, 121054, Note_on_c, 7, 60, 40
9, 121060, Note_off_c, 7, 60, 64
9, 121152, Note_on_c, 7, 70, 81
9, 121152, Note_on_c, 7, 62, 49
9, 121154, Note_off_c, 7, 62, 64
9, 121154, Note_off_c, 7, 70, 64
9, 121154, Note_on_c, 7, 44, 67
9, 121160, Note_off_c, 7, 44, 64
9, 121246, Note_on_c, 7, 70, 99
9, 121252, Note_off_c, 7, 70, 64
9, 121252, Note_on_c, 7, 40, 110
9, 121254, Note_off_c, 7, 40, 64
9, 121254, Note_on_c, 7, 37, 95
9, 121260, Note_off_c, 7, 37, 64
9, 121343, Note_on_c, 7, 33, 110
9, 121343, Note_on_c, 7, 67, 74
9, 121343, Note_on_c, 7, 60, 54
9, 121346, Note_off_c, 7, 60, 64
9, 121346, Note_off_c, 7, 67, 64
9, 121346, Note_off_c, 7, 33, 64
9, 121346, Note_on_c, 7, 43, 76
9, 121352, Note_off_c, 7, 43, 64
9, 121434, Note_on_c, 7, 67, 28
9, 121440, Note_off_c, 7, 67, 64
9, 121520, Note_on_c, 7, 67, 102
9, 121523, Note_off_c, 7, 67, 64
9, 121534, Note_on_c, 7, 70, 99
9, 121540, Note_off_c, 7, 70, 64
9, 121540, Note_on_c, 7, 44, 63
9, 121543, Note_off_c, 7, 44, 64
9, 121612, Note_on_c, 7, 67, 102
9, 121620, Note_off_c, 7, 67, 64
9, 121632, Note_on_c, 7, 60, 54
9, 121634, Note_off_c, 7, 60, 64
9, 121726, Note_on_c, 7, 33, 114
9, 121732, Note_off_c, 7, 33, 64
9, 121732, Note_on_c, 7, 40, 110
9, 121732, Note_on_c, 7, 43, 60
9, 121734, Note_off_c, 7, 43, 64
9, 121734, Note_off_c, 7, 40, 64
9, 121734, Note_on_c, 7, 37, 95
9, 121740, Note_off_c, 7, 37, 64
9, 121823, Note_on_c, 7, 60, 43
9, 121826, Note_off_c, 7, 60, 64
9, 121920, Note_on_c, 7, 70, 81
9, 121920, Note_on_c, 7, 62, 49
9, 121923, Note_off_c, 7, 62, 64
9, 121923, Note_off_c, 7, 70, 64
9, 122012, Note_on_c, 7, 70, 99
9, 122020, Note_off_c, 7, 70, 64
9, 122110, Note_on_c, 7, 33, 110
9, 122110, Note_on_c, 7, 60, 54
9, 122112, Note_off_c, 7, 60, 64
9, 122112, Note_off_c, 7, 33, 64
9, 122303, Note_on_c, 7, 70, 94
9, 122306, Note_off_c, 7, 70, 64
9, 122306, Note_on_c, 7, 44, 67
9, 122310, Note_off_c, 7, 44, 64
9, 122400, Note_on_c, 7, 60, 43
9, 122403, Note_off_c, 7, 60, 64
9, 122494, Note_on_c, 7, 33, 114
9, 122500, Note_off_c, 7, 33, 64
9, 122500, Note_on_c, 7, 40, 110
9, 122500, Note_on_c, 7, 43, 67
9, 122503, Note_off_c, 7, 43, 64
9, 122503, Note_off_c, 7, 40, 64
9, 122503, Note_on_c, 7, 37, 95
9, 122506, Note_off_c, 7, 37, 64
9, 122592, Note_on_c, 7, 60, 49
9, 122594, Note_off_c, 7, 60, 64
9, 122686, Note_on_c, 7, 70, 94
9, 122686, Note_on_c, 7, 62, 54
9, 122692, Note_off_c, 7, 62, 64
9, 122692, Note_off_c, 7, 70, 64
9, 122692, Note_on_c, 7, 44, 63
9, 122694, Note_off_c, 7, 44, 64
9, 122880, Note_on_c, 7, 33, 110
9, 122880, Note_on_c, 7, 60, 54
9, 122883, Note_off_c, 7, 60, 64
9, 122883, Note_off_c, 7, 33, 64
9, 122883, Note_on_c, 7, 43, 63
9, 122886, Note_off_c, 7, 43, 64
9, 123072, Note_on_c, 7, 70, 94
9, 123074, Note_off_c, 7, 70, 64
9, 123074, Note_on_c, 7, 44, 60
9, 123080, Note_off_c, 7, 44, 64
9, 123166, Note_on_c, 7, 60, 33
9, 123172, Note_off_c, 7, 60, 64
9, 123263, Note_on_c, 7, 33, 110
9, 123266, Note_off_c, 7, 33, 64
9, 123266, Note_on_c, 7, 40, 110
9, 123266, Note_on_c, 7, 43, 63
9, 123272, Note_off_c, 7, 43, 64
9, 123272, Note_off_c, 7, 40, 64
9, 123272, Note_on_c, 7, 37, 95
9, 123274, Note_off_c, 7, 37, 64
9, 123360, Note_on_c, 7, 60, 36
9, 123363, Note_off_c, 7, 60, 64
9, 123454, Note_on_c, 7, 70, 78
9, 123454, Note_on_c, 7, 62, 49
9, 123460, Note_off_c, 7, 62, 64
9, 123460, Note_off_c, 7, 70, 64
9, 123460, Note_on_c, 7, 44, 54
9, 123463, Note_off_c, 7, 44, 64
9, 123552, Note_on_c, 7, 70, 94
9, 123554, Note_off_c, 7, 70, 64
9, 123646, Note_on_c, 7, 33, 110
9, 123646, Note_on_c, 7, 60, 54
9, 123652, Note_off_c, 7, 60, 64
9, 123652, Note_off_c, 7, 33, 64
9, 123652, Note_on_c, 7, 43, 63
9, 123654, Note_off_c, 7, 43, 64
9, 123840, Note_on_c, 7, 70, 94
9, 123843, Note_off_c, 7, 70, 64
9, 123843, Note_on_c, 7, 44, 54
9, 123846, Note_off_c, 7, 44, 64
9, 123934, Note_on_c, 7, 60, 43
9, 123940, Note_off_c, 7, 60, 64
9, 124032, Note_on_c, 7, 33, 114
9, 124034, Note_off_c, 7, 33, 64
9, 124034, Note_on_c, 7, 40, 110
9, 124034, Note_on_c, 7, 43, 63
9, 124040, Note_off_c, 7, 43, 64
9, 124040, Note_off_c, 7, 40, 64
9, 124040, Note_on_c, 7, 37, 95
9, 124043, Note_off_c, 7, 37, 64
9, 124126, Note_on_c, 7, 60, 40
9, 124132, Note_off_c, 7, 60, 64
9, 124223, Note_on_c, 7, 70, 78
9, 124223, Note_on_c, 7, 62, 49
9, 124226, Note_off_c, 7, 62, 64
9, 124226, Note_off_c, 7, 70, 64
9, 124226, Note_on_c, 7, 44, 60
9, 124232, Note_off_c, 7, 44, 64
9, 124320, Note_on_c, 7, 70, 99
9, 124323, Note_off_c, 7, 70, 64
9, 124412, Note_on_c, 7, 33, 114
9, 124412, Note_on_c, 7, 67, 74
9, 124412, Note_on_c, 7, 60, 54
9, 124420, Note_off_c, 7, 60, 64
9, 124420, Note_off_c, 7, 67, 64
9, 124420, Note_off_c, 7, 33, 64
9, 124420, Note_on_c, 7, 43, 63
9, 124423, Note_off_c, 7, 43, 64
9, 124506, Note_on_c, 7, 67, 28
9, 124510, Note_off_c, 7, 67, 64
9, 124592, Note_on_c, 7, 67, 102
9, 124594, Note_off_c, 7, 67, 64
9, 124606, Note_on_c, 7, 70, 94
9, 124610, Note_off_c, 7, 70, 64
9, 124610, Note_on_c, 7, 44, 67
9, 124612, Note_off_c, 7, 44, 64
9, 124686, Note_on_c, 7, 67, 102
9, 124692, Note_off_c, 7, 67, 64
9, 124703, Note_on_c, 7, 60, 43
9, 124706, Note_off_c, 7, 60, 64
9, 124800, Note_on_c, 7, 33, 114
9, 124803, Note_off_c, 7, 33, 64
9, 124803, Note_on_c, 7, 40, 114
9, 124803, Note_on_c, 7, 43, 76
9, 124806, Note_off_c, 7, 43, 64
9, 124806, Note_off_c, 7, 40, 64
9, 124806, Note_on_c, 7, 37, 99
9, 124810, Note_off_c, 7, 37, 64
9, 124894, Note_on_c, 7, 60, 40
9, 124900, Note_off_c, 7, 60, 64
9, 124992, Note_on_c, 7, 70, 72
9, 124992, Note_on_c, 7, 62, 40
9, 124994, Note_off_c, 7, 62, 64
9, 124994, Note_off_c, 7, 70, 64
9, 125086, Note_on_c, 7, 70, 85
9, 125092, Note_off_c, 7, 70, 64
9, 125183, Note_on_c, 7, 33, 110
9, 125183, Note_on_c, 7, 60, 54
9, 125186, Note_off_c, 7, 60, 64
9, 125186, Note_off_c, 7, 33, 64
9, 125374, Note_on_c, 7, 70, 94
9, 125380, Note_off_c, 7, 70, 64
9, 125380, Note_on_c, 7, 44, 63
9, 125383, Note_off_c, 7, 44, 64
9, 125472, Note_on_c, 7, 60, 40
9, 125474, Note_off_c, 7, 60, 64
9, 125566, Note_on_c, 7, 33, 114
9, 125572, Note_off_c, 7, 33, 64
9, 125572, Note_on_c, 7, 40, 114
9, 125572, Note_on_c, 7, 43, 63
9, 125574, Note_off_c, 7, 43, 64
9, 125574, Note_off_c, 7, 40, 64
9, 125574, Note_on_c, 7, 37, 99
9, 125580, Note_off_c, 7, 37, 64
9, 125663, Note_on_c, 7, 60, 43
9, 125666, Note_off_c, 7, 60, 64
9, 125760, Note_on_c, 7, 70, 94
9, 125760, Note_on_c, 7, 62, 54
9, 125763, Note_off_c, 7, 62, 64
9, 125763, Note_off_c, 7, 70, 64
9, 125763, Note_on_c, 7, 44, 63
9, 125766, Note_off_c, 7, 44, 64
9, 125952, Note_on_c, 7, 33, 114
9, 125952, Note_on_c, 7, 60, 49
9, 125954, Note_off_c, 7, 60, 64
9, 125954, Note_off_c, 7, 33, 64
9, 125954, Note_on_c, 7, 43, 67
9, 125960, Note_off_c, 7, 43, 64
9, 126143, Note_on_c, 7, 70, 99
9, 126146, Note_off_c, 7, 70, 64
9, 126146, Note_on_c, 7, 44, 63
9, 126152, Note_off_c, 7, 44, 64
9, 126240, Note_on_c, 7, 60, 40
9, 126243, Note_off_c, 7, 60, 64
9, 126334, Note_on_c, 7, 33, 110
9, 126340, Note_off_c, 7, 33, 64
9, 126340, Note_on_c, 7, 40, 114
9, 126340, Note_on_c, 7, 43, 63
9, 126343, Note_off_c, 7, 43, 64
9, 126343, Note_off_c, 7, 40, 64
9, 126343, Note_on_c, 7, 37, 99
9, 126346, Note_off_c, 7, 37, 64
9, 126432, Note_on_c, 7, 60, 43
9, 126434, Note_off_c, 7, 60, 64
9, 126526, Note_on_c, 7, 70, 78
9, 126526, Note_on_c, 7, 62, 40
9, 126532, Note_off_c, 7, 62, 64
9, 126532, Note_off_c, 7, 70, 64
9, 126532, Note_on_c, 7, 44, 63
9, 126534, Note_off_c, 7, 44, 64
9, 126623, Note_on_c, 7, 70, 85
9, 126626, Note_off_c, 7, 70, 64
9, 126720, Note_on_c, 7, 33, 114
9, 126720, Note_on_c, 7, 60, 49
9, 126723, Note_off_c, 7, 60, 64
9, 126723, Note_off_c, 7, 33, 64
9, 126723, Note_on_c, 7, 43, 63
9, 126726, Note_off_c, 7, 43, 64
9, 126910, Note_on_c, 7, 70, 99
9, 126912, Note_off_c, 7, 70, 64
9, 126912, Note_on_c, 7, 44, 63
9, 126920, Note_off_c, 7, 44, 64
9, 127006, Note_on_c, 7, 60, 40
9, 127010, Note_off_c, 7, 60, 64
9, 127103, Note_on_c, 7, 33, 114
9, 127106, Note_off_c, 7, 33, 64
9, 127106, Note_on_c, 7, 40, 114
9, 127106, Note_on_c, 7, 43, 67
9, 127110, Note_off_c, 7, 43, 64
9, 127110, Note_off_c, 7, 40, 64
9, 127110, Note_on_c, 7, 37, 99
9, 127112, Note_off_c, 7, 37, 64
9, 127200, Note_on_c, 7, 60, 40
9, 127203, Note_off_c, 7, 60, 64
9, 127294, Note_on_c, 7, 70, 81
9, 127294, Note_on_c, 7, 62, 49
9, 127300, Note_off_c, 7, 62, 64
9, 127300, Note_off_c, 7, 70, 64
9, 127300, Note_on_c, 7, 44, 67
9, 127303, Note_off_c, 7, 44, 64
9, 127392, Note_on_c, 7, 70, 99
9, 127394, Note_off_c, 7, 70, 64
9, 127486, Note_on_c, 7, 33, 110
9, 127486, Note_on_c, 7, 67, 74
9, 127486, Note_on_c, 7, 60, 54
9, 127492, Note_off_c, 7, 60, 64
9, 127492, Note_off_c, 7, 67, 64
9, 127492, Note_off_c, 7, 33, 64
9, 127492, Note_on_c, 7, 43, 76
9, 127494, Note_off_c, 7, 43, 64
9, 127580, Note_on_c, 7, 67, 28
9, 127583, Note_off_c, 7, 67, 64
9, 127663, Note_on_c, 7, 67, 102
9, 127666, Note_off_c, 7, 67, 64
9, 127680, Note_on_c, 7, 70, 99
9, 127683, Note_off_c, 7, 70, 64
9, 127683, Note_on_c, 7, 44, 63
9, 127686, Note_off_c, 7, 44, 64
9, 127760, Note_on_c, 7, 67, 102
9, 127763, Note_off_c, 7, 67, 64
9, 127774, Note_on_c, 7, 60, 54
9, 127780, Note_off_c, 7, 60, 64
9, 127872, Note_on_c, 7, 33, 114
9, 127874, Note_off_c, 7, 33, 64
9, 127874, Note_on_c, 7, 40, 110
9, 127874, Note_on_c, 7, 43, 60
9, 127880, Note_off_c, 7, 43, 64
9, 127880, Note_off_c, 7, 40, 64
9, 127880, Note_on_c, 7, 37, 95
9, 127883, Note_off_c, 7, 37, 64
9, 127966, Note_on_c, 7, 60, 43
9, 127972, Note_off_c, 7, 60, 64
9, 128063, Note_on_c, 7, 70, 81
9, 128063, Note_on_c, 7, 62, 49
9, 128066, Note_off_c, 7, 62, 64
9, 128066, Note_off_c, 7, 70, 64
9, 128160, Note_on_c, 7, 70, 99
9, 128163, Note_off_c, 7, 70, 64
9, 128254, Note_on_c, 7, 33, 110
9, 128254, Note_on_c, 7, 60, 54
9, 128260, Note_off_c, 7, 60, 64
9, 128260, Note_off_c, 7, 33, 64
9, 128446, Note_on_c, 7, 70, 94
9, 128452, Note_off_c, 7, 70, 64
9, 128452, Note_on_c, 7, 44, 67
9, 128454, Note_off_c, 7, 44, 64
9, 128543, Note_on_c, 7, 60, 43
9, 128546, Note_off_c, 7, 60, 64
9, 128640, Note_on_c, 7, 33, 114
9, 128643, Note_off_c, 7, 33, 64
9, 128643, Note_on_c, 7, 40, 110
9, 128643, Note_on_c, 7, 43, 67
9, 128646, Note_off_c, 7, 43, 64
9, 128646, Note_off_c, 7, 40, 64
9, 128646, Note_on_c, 7, 37, 95
9, 128652, Note_off_c, 7, 37, 64
9, 128734, Note_on_c, 7, 60, 49
9, 128740, Note_off_c, 7, 60, 64
9, 128832, Note_on_c, 7, 70, 94
9, 128832, Note_on_c, 7, 62, 54
9, 128834, Note_off_c, 7, 62, 64
9, 128834, Note_off_c, 7, 70, 64
9, 128834, Note_on_c, 7, 44, 63
9, 128840, Note_off_c, 7, 44, 64
9, 129023, Note_on_c, 7, 33, 110
9, 129023, Note_on_c, 7, 60, 54
9, 129026, Note_off_c, 7, 60, 64
9, 129026, Note_off_c, 7, 33, 64
9, 129026, Note_on_c, 7, 43, 63
9, 129032, Note_off_c, 7, 43, 64
9, 129212, Note_on_c, 7, 70, 94
9, 129220, Note_off_c, 7, 70, 64
9, 129220, Note_on_c, 7, 44, 60
9, 129223, Note_off_c, 7, 44, 64
9, 129310, Note_on_c, 7, 60, 33
9, 129312, Note_off_c, 7, 60, 64
9, 129406, Note_on_c, 7, 33, 110
9, 129410, Note_off_c, 7, 33, 64
9, 129410, Note_on_c, 7, 40, 110
9, 129410, Note_on_c, 7, 43, 63
9, 129412, Note_off_c, 7, 43, 64
9, 129412, Note_off_c, 7, 40, 64
9, 129412, Note_on_c, 7, 37, 95
9, 129420, Note_off_c, 7, 37, 64
9, 129503, Note_on_c, 7, 60, 36
9, 129506, Note_off_c, 7, 60, 64
9, 129600, Note_on_c, 7, 70, 78
9, 129600, Note_on_c, 7, 62, 49
9, 129603, Note_off_c, 7, 62, 64
9, 129603, Note_off_c, 7, 70, 64
9, 129603, Note_on_c, 7, 44, 54
9, 129606, Note_off_c, 7, 44, 64
9, 129694, Note_on_c, 7, 70, 94
9, 129700, Note_off_c, 7, 70, 64
9, 129792, Note_on_c, 7, 33, 110
9, 129792, Note_on_c, 7, 60, 54
9, 129794, Note_off_c, 7, 60, 64
9, 129794, Note_off_c, 7, 33, 64
9, 129794, Note_on_c, 7, 43, 63
9, 129800, Note_off_c, 7, 43, 64
9, 129983, Note_on_c, 7, 70, 94
9, 129986, Note_off_c, 7, 70, 64
9, 129986, Note_on_c, 7, 44, 54
9, 129992, Note_off_c, 7, 44, 64
9, 130080, Note_on_c, 7, 60, 43
9, 130083, Note_off_c, 7, 60, 64
9, 130174, Note_on_c, 7, 33, 114
9, 130180, Note_off_c, 7, 33, 64
9, 130180, Note_on_c, 7, 40, 110
9, 130180, Note_on_c, 7, 43, 63
9, 130183, Note_off_c, 7, 43, 64
9, 130183, Note_off_c, 7, 40, 64
9, 130183, Note_on_c, 7, 37, 95
9, 130186, Note_off_c, 7, 37, 64
9, 130272, Note_on_c, 7, 60, 40
9, 130274, Note_off_c, 7, 60, 64
9, 130366, Note_on_c, 7, 70, 78
9, 130366, Note_on_c, 7, 62, 49
9, 130372, Note_off_c, 7, 62, 64
9, 130372, Note_off_c, 7, 70, 64
9, 130372, Note_on_c, 7, 44, 60
9, 130374, Note_off_c, 7, 44, 64
9, 130463, Note_on_c, 7, 70, 99
9, 130466, Note_off_c, 7, 70, 64
9, 130560, Note_on_c, 7, 33, 114
9, 130560, Note_on_c, 7, 67, 74
9, 130560, Note_on_c, 7, 60, 54
9, 130563, Note_off_c, 7, 60, 64
9, 130563, Note_off_c, 7, 67, 64
9, 130563, Note_off_c, 7, 33, 64
9, 130563, Note_on_c, 7, 43, 63
9, 130566, Note_off_c, 7, 43, 64
9, 130652, Note_on_c, 7, 67, 28
9, 130654, Note_off_c, 7, 67, 64
9, 130734, Note_on_c, 7, 67, 102
9, 130740, Note_off_c, 7, 67, 64
9, 130752, Note_on_c, 7, 70, 94
9, 130754, Note_off_c, 7, 70, 64
9, 130754, Note_on_c, 7, 44, 67
9, 130760, Note_off_c, 7, 44, 64
9, 130832, Note_on_c, 7, 67, 102
9, 130834, Note_off_c, 7, 67, 64
9, 130846, Note_on_c, 7, 60, 43
9, 130852, Note_off_c, 7, 60, 64
9, 130943, Note_on_c, 7, 33, 114
9, 130946, Note_off_c, 7, 33, 64
9, 130946, Note_on_c, 7, 40, 114
9, 130946, Note_on_c, 7, 43, 76
9, 130952, Note_off_c, 7, 43, 64
9, 130952, Note_off_c, 7, 40, 64
9, 130952, Note_on_c, 7, 37, 99
9, 130954, Note_off_c, 7, 37, 64
9, 131040, Note_on_c, 7, 60, 40
9, 131043, Note_off_c, 7, 60, 64
9, 131134, Note_on_c, 7, 70, 72
9, 131134, Note_on_c, 7, 62, 40
9, 131140, Note_off_c, 7, 62, 64
9, 131140, Note_off_c, 7, 70, 64
9, 131232, Note_on_c, 7, 70, 85
9, 131234, Note_off_c, 7, 70, 64
9, 131326, Note_on_c, 7, 33, 110
9, 131326, Note_on_c, 7, 60, 54
9, 131332, Note_off_c, 7, 60, 64
9, 131332, Note_off_c, 7, 33, 64
9, 131520, Note_on_c, 7, 70, 94
9, 131523, Note_off_c, 7, 70, 64
9, 131523, Note_on_c, 7, 44, 63
9, 131526, Note_off_c, 7, 44, 64
9, 131612, Note_on_c, 7, 60, 40
9, 131620, Note_off_c, 7, 60, 64
9, 131710, Note_on_c, 7, 33, 114
9, 131712, Note_off_c, 7, 33, 64
9, 131712, Note_on_c, 7, 40, 114
9, 131712, Note_on_c, 7, 43, 63
9, 131720, Note_off_c, 7, 43, 64
9, 131720, Note_off_c, 7, 40, 64
9, 131720, Note_on_c, 7, 37, 99
9, 131723, Note_off_c, 7, 37, 64
9, 131806, Note_on_c, 7, 60, 43
9, 131810, Note_off_c, 7, 60, 64
9, 131903, Note_on_c, 7, 70, 94
9, 131903, Note_on_c, 7, 62, 54
9, 131906, Note_off_c, 7, 62, 64
9, 131906, Note_off_c, 7, 70, 64
9, 131906, Note_on_c, 7, 44, 63
9, 131910, Note_off_c, 7, 44, 64
9, 132094, Note_on_c, 7, 33, 114
9, 132094, Note_on_c, 7, 60, 49
9, 132100, Note_off_c, 7, 60, 64
9, 132100, Note_off_c, 7, 33, 64
9, 132100, Note_on_c, 7, 43, 67
9, 132103, Note_off_c, 7, 43, 64
9, 132286, Note_on_c, 7, 70, 99
9, 132292, Note_off_c, 7, 70, 64
9, 132292, Note_on_c, 7, 44, 63
9, 132294, Note_off_c, 7, 44, 64
9, 132383, Note_on_c, 7, 60, 40
9, 132386, Note_off_c, 7, 60, 64
9, 132480, Note_on_c, 7, 33, 110
9, 132483, Note_off_c, 7, 33, 64
9, 132483, Note_on_c, 7, 40, 114
9, 132483, Note_on_c, 7, 43, 63
9, 132486, Note_off_c, 7, 43, 64
9, 132486, Note_off_c, 7, 40, 64
9, 132486, Note_on_c, 7, 37, 99
9, 132492, Note_off_c, 7, 37, 64
9, 132574, Note_on_c, 7, 60, 43
9, 132580, Note_off_c, 7, 60, 64
9, 132672, Note_on_c, 7, 70, 78
9, 132672, Note_on_c, 7, 62, 40
9, 132674, Note_off_c, 7, 62, 64
9, 132674, Note_off_c, 7, 70, 64
9, 132674, Note_on_c, 7, 44, 63
9, 132680, Note_off_c, 7, 44, 64
9, 132766, Note_on_c, 7, 70, 85
9, 132772, Note_off_c, 7, 70, 64
9, 132863, Note_on_c, 7, 33, 114
9, 132863, Note_on_c, 7, 60, 49
9, 132866, Note_off_c, 7, 60, 64
9, 132866, Note_off_c, 7, 33, 64
9, 132866, Note_on_c, 7, 43, 63
9, 132872, Note_off_c, 7, 43, 64
9, 133054, Note_on_c, 7, 70, 99
9, 133060, Note_off_c, 7, 70, 64
9, 133060, Note_on_c, 7, 44, 63
9, 133063, Note_off_c, 7, 44, 64
9, 133152, Note_on_c, 7, 60, 40
9, 133154, Note_off_c, 7, 60, 64
9, 133246, Note_on_c, 7, 33, 114
9, 133252, Note_off_c, 7, 33, 64
9, 133252, Note_on_c, 7, 40, 114
9, 133252, Note_on_c, 7, 43, 67
9, 133254, Note_off_c, 7, 43, 64
9, 133254, Note_off_c, 7, 40, 64
9, 133254, Note_on_c, 7, 37, 99
9, 133260, Note_off_c, 7, 37, 64
9, 133343, Note_on_c, 7, 60, 40
9, 133346, Note_off_c, 7, 60, 64
9, 133346, Note_on_c, 7, 40, 110
9, 133352, Note_off_c, 7, 40, 64
9, 133352, Note_on_c, 7, 37, 95
9, 133354, Note_off_c, 7, 37, 64
9, 133440, Note_on_c, 7, 70, 81
9, 133440, Note_on_c, 7, 62, 49
9, 133443, Note_off_c, 7, 62, 64
9, 133443, Note_off_c, 7, 70, 64
9, 133443, Note_on_c, 7, 44, 67
9, 133446, Note_off_c, 7, 44, 64
9, 133534, Note_on_c, 7, 70, 99
9, 133540, Note_off_c, 7, 70, 64
9, 133632, Note_on_c, 7, 33, 110
9, 133632, Note_on_c, 7, 67, 74
9, 133632, Note_on_c, 7, 60, 54
9, 133634, Note_off_c, 7, 60, 64
9, 133634, Note_off_c, 7, 67, 64
9, 133634, Note_off_c, 7, 33, 64
9, 133634, Note_on_c, 7, 43, 76
9, 133640, Note_off_c, 7, 43, 64
9, 133723, Note_on_c, 7, 67, 28
9, 133726, Note_off_c, 7, 67, 64
9, 133806, Note_on_c, 7, 67, 102
9, 133810, Note_off_c, 7, 67, 64
9, 133823, Note_on_c, 7, 70, 99
9, 133826, Note_off_c, 7, 70, 64
9, 133826, Note_on_c, 7, 44, 63
9, 133832, Note_off_c, 7, 44, 64
9, 133903, Note_on_c, 7, 67, 102
9, 133906, Note_off_c, 7, 67, 64
9, 133920, Note_on_c, 7, 60, 54
9, 133923, Note_off_c, 7, 60, 64
9, 134012, Note_on_c, 7, 33, 114
9, 134020, Note_off_c, 7, 33, 64
9, 134020, Note_on_c, 7, 40, 110
9, 134020, Note_on_c, 7, 43, 60
9, 134023, Note_off_c, 7, 43, 64
9, 134023, Note_off_c, 7, 40, 64
9, 134023, Note_on_c, 7, 37, 95
9, 134026, Note_off_c, 7, 37, 64
9, 134110, Note_on_c, 7, 60, 43
9, 134112, Note_off_c, 7, 60, 64
9, 134206, Note_on_c, 7, 70, 81
9, 134206, Note_on_c, 7, 62, 49
9, 134210, Note_off_c, 7, 62, 64
9, 134210, Note_off_c, 7, 70, 64
9, 134303, Note_on_c, 7, 70, 99
9, 134306, Note_off_c, 7, 70, 64
9, 134400, Note_on_c, 7, 33, 110
9, 134400, Note_on_c, 7, 60, 54
9, 134403, Note_off_c, 7, 60, 64
9, 134403, Note_off_c, 7, 33, 64
9, 134592, Note_on_c, 7, 70, 94
9, 134594, Note_off_c, 7, 70, 64
9, 134594, Note_on_c, 7, 44, 67
9, 134600, Note_off_c, 7, 44, 64
9, 134686, Note_on_c, 7, 60, 43
9, 134692, Note_off_c, 7, 60, 64
9, 134783, Note_on_c, 7, 33, 114
9, 134786, Note_off_c, 7, 33, 64
9, 134786, Note_on_c, 7, 40, 110
9, 134786, Note_on_c, 7, 43, 67
9, 134792, Note_off_c, 7, 43, 64
9, 134792, Note_off_c, 7, 40, 64
9, 134792, Note_on_c, 7, 37, 95
9, 134794, Note_off_c, 7, 37, 64
9, 134880, Note_on_c, 7, 60, 49
9, 134883, Note_off_c, 7, 60, 64
9, 134974, Note_on_c, 7, 70, 94
9, 134974, Note_on_c, 7, 62, 54
9, 134980, Note_off_c, 7, 62, 64
9, 134980, Note_off_c, 7, 70, 64
9, 134980, Note_on_c, 7, 44, 63
9, 134983, Note_off_c, 7, 44, 64
9, 135166, Note_on_c, 7, 33, 110
9, 135166, Note_on_c, 7, 60, 54
9, 135172, Note_off_c, 7, 60, 64
9, 135172, Note_off_c, 7, 33, 64
9, 135172, Note_on_c, 7, 43, 63
9, 135174, Note_off_c, 7, 43, 64
9, 135360, Note_on_c, 7, 70, 94
9, 135363, Note_off_c, 7, 70, 64
9, 135363, Note_on_c, 7, 44, 60
9, 135366, Note_off_c, 7, 44, 64
9, 135454, Note_on_c, 7, 60, 33
9, 135460, Note_off_c, 7, 60, 64
9, 135552, Note_on_c, 7, 33, 110
9, 135554, Note_off_c, 7, 33, 64
9, 135554, Note_on_c, 7, 40, 110
9, 135554, Note_on_c, 7, 43, 63
9, 135560, Note_off_c, 7, 43, 64
9, 135560, Note_off_c, 7, 40, 64
9, 135560, Note_on_c, 7, 37, 95
9, 135563, Note_off_c, 7, 37, 64
9, 135646, Note_on_c, 7, 60, 36
9, 135652, Note_off_c, 7, 60, 64
9, 135743, Note_on_c, 7, 70, 78
9, 135743, Note_on_c, 7, 62, 49
9, 135746, Note_off_c, 7, 62, 64
9, 135746, Note_off_c, 7, 70, 64
9, 135746, Note_on_c, 7, 44, 54
9, 135752, Note_off_c, 7, 44, 64
9, 135840, Note_on_c, 7, 70, 94
9, 135843, Note_off_c, 7, 70, 64
9, 135934, Note_on_c, 7, 33, 110
9, 135934, Note_on_c, 7, 60, 54
9, 135940, Note_off_c, 7, 60, 64
9, 135940, Note_off_c, 7, 33, 64
9, 135940, Note_on_c, 7, 43, 63
9, 135943, Note_off_c, 7, 43, 64
9, 136126, Note_on_c, 7, 70, 94
9, 136132, Note_off_c, 7, 70, 64
9, 136132, Note_on_c, 7, 44, 54
9, 136134, Note_off_c, 7, 44, 64
9, 136223, Note_on_c, 7, 60, 43
9, 136226, Note_off_c, 7, 60, 64
9, 136320, Note_on_c, 7, 33, 114
9, 136323, Note_off_c, 7, 33, 64
9, 136323, Note_on_c, 7, 40, 110
9, 136323, Note_on_c, 7, 43, 63
9, 136326, Note_off_c, 7, 43, 64
9, 136326, Note_off_c, 7, 40, 64
9, 136326, Note_on_c, 7, 37, 95
9, 136332, Note_off_c, 7, 37, 64
9, 136412, Note_on_c, 7, 60, 40
9, 136420, Note_off_c, 7, 60, 64
9, 136510, Note_on_c, 7, 70, 78
9, 136510, Note_on_c, 7, 62, 49
9, 136512, Note_off_c, 7, 62, 64
9, 136512, Note_off_c, 7, 70, 64
9, 136512, Note_on_c, 7, 44, 60
9, 136520, Note_off_c, 7, 44, 64
9, 136606, Note_on_c, 7, 70, 99
9, 136610, Note_off_c, 7, 70, 64
9, 136703, Note_on_c, 7, 33, 114
9, 136703, Note_on_c, 7, 67, 74
9, 136703, Note_on_c, 7, 60, 54
9, 136706, Note_off_c, 7, 60, 64
9, 136706, Note_off_c, 7, 67, 64
9, 136706, Note_off_c, 7, 33, 64
9, 136706, Note_on_c, 7, 43, 63
9, 136710, Note_off_c, 7, 43, 64
9, 136794, Note_on_c, 7, 67, 28
9, 136800, Note_off_c, 7, 67, 64
9, 136880, Note_on_c, 7, 67, 102
9, 136883, Note_off_c, 7, 67, 64
9, 136894, Note_on_c, 7, 70, 94
9, 136900, Note_off_c, 7, 70, 64
9, 136900, Note_on_c, 7, 44, 67
9, 136903, Note_off_c, 7, 44, 64
9, 136974, Note_on_c, 7, 67, 102
9, 136980, Note_off_c, 7, 67, 64
9, 136992, Note_on_c, 7, 60, 43
9, 136994, Note_off_c, 7, 60, 64
9, 137086, Note_on_c, 7, 33, 114
9, 137092, Note_off_c, 7, 33, 64
9, 137092, Note_on_c, 7, 40, 114
9, 137092, Note_on_c, 7, 43, 76
9, 137094, Note_off_c, 7, 43, 64
9, 137094, Note_off_c, 7, 40, 64
9, 137094, Note_on_c, 7, 37, 99
9, 137100, Note_off_c, 7, 37, 64
9, 137183, Note_on_c, 7, 60, 40
9, 137186, Note_off_c, 7, 60, 64
9, 137280, Note_on_c, 7, 70, 72
9, 137280, Note_on_c, 7, 62, 40
9, 137283, Note_off_c, 7, 62, 64
9, 137283, Note_off_c, 7, 70, 64
9, 137374, Note_on_c, 7, 70, 85
9, 137380, Note_off_c, 7, 70, 64
9, 137472, Note_on_c, 7, 33, 110
9, 137472, Note_on_c, 7, 60, 54
9, 137474, Note_off_c, 7, 60, 64
9, 137474, Note_off_c, 7, 33, 64
9, 137663, Note_on_c, 7, 70, 94
9, 137666, Note_off_c, 7, 70, 64
9, 137666, Note_on_c, 7, 44, 63
9, 137672, Note_off_c, 7, 44, 64
9, 137760, Note_on_c, 7, 60, 40
9, 137763, Note_off_c, 7, 60, 64
9, 137854, Note_on_c, 7, 33, 114
9, 137860, Note_off_c, 7, 33, 64
9, 137860, Note_on_c, 7, 40, 114
9, 137860, Note_on_c, 7, 43, 63
9, 137863, Note_off_c, 7, 43, 64
9, 137863, Note_off_c, 7, 40, 64
9, 137863, Note_on_c, 7, 37, 99
9, 137866, Note_off_c, 7, 37, 64
9, 137952, Note_on_c, 7, 60, 43
9, 137954, Note_off_c, 7, 60, 64
9, 138046, Note_on_c, 7, 70, 94
9, 138046, Note_on_c, 7, 62, 54
9, 138052, Note_off_c, 7, 62, 64
9, 138052, Note_off_c, 7, 70, 64
9, 138052, Note_on_c, 7, 44, 63
9, 138054, Note_off_c, 7, 44, 64
9, 138240, Note_on_c, 7, 33, 114
9, 138240, Note_on_c, 7, 60, 49
9, 138243, Note_off_c, 7, 60, 64
9, 138243, Note_off_c, 7, 33, 64
9, 138243, Note_on_c, 7, 43, 67
9, 138246, Note_off_c, 7, 43, 64
9, 138432, Note_on_c, 7, 70, 99
9, 138434, Note_off_c, 7, 70, 64
9, 138434, Note_on_c, 7, 44, 63
9, 138440, Note_off_c, 7, 44, 64
9, 138526, Note_on_c, 7, 60, 40
9, 138532, Note_off_c, 7, 60, 64
9, 138623, Note_on_c, 7, 33, 110
9, 138626, Note_off_c, 7, 33, 64
9, 138626, Note_on_c, 7, 40, 114
9, 138626, Note_on_c, 7, 43, 63
9, 138632, Note_off_c, 7, 43, 64
9, 138632, Note_off_c, 7, 40, 64
9, 138632, Note_on_c, 7, 37, 99
9, 138634, Note_off_c, 7, 37, 64
9, 138720, Note_on_c, 7, 60, 43
9, 138723, Note_off_c, 7, 60, 64
9, 138812, Note_on_c, 7, 70, 78
9, 138812, Note_on_c, 7, 62, 40
9, 138820, Note_off_c, 7, 62, 64
9, 138820, Note_off_c, 7, 70, 64
9, 138820, Note_on_c, 7, 44, 63
9, 138823, Note_off_c, 7, 44, 64
9, 138910, Note_on_c, 7, 70, 85
9, 138912, Note_off_c, 7, 70, 64
9, 139006, Note_on_c, 7, 33, 114
9, 139006, Note_on_c, 7, 60, 49
9, 139010, Note_off_c, 7, 60, 64
9, 139010, Note_off_c, 7, 33, 64
9, 139010, Note_on_c, 7, 43, 63
9, 139012, Note_off_c, 7, 43, 64
9, 139200, Note_on_c, 7, 70, 99
9, 139203, Note_off_c, 7, 70, 64
9, 139203, Note_on_c, 7, 44, 63
9, 139206, Note_off_c, 7, 44, 64
9, 139294, Note_on_c, 7, 60, 40
9, 139300, Note_off_c, 7, 60, 64
9, 139392, Note_on_c, 7, 33, 114
9, 139394, Note_off_c, 7, 33, 64
9, 139394, Note_on_c, 7, 40, 114
9, 139394, Note_on_c, 7, 43, 67
9, 139400, Note_off_c, 7, 43, 64
9, 139400, Note_off_c, 7, 40, 64
9, 139400, Note_on_c, 7, 37, 99
9, 139403, Note_off_c, 7, 37, 64
9, 139486, Note_on_c, 7, 60, 40
9, 139492, Note_off_c, 7, 60, 64
9, 139583, Note_on_c, 7, 70, 81
9, 139583, Note_on_c, 7, 62, 49
9, 139586, Note_off_c, 7, 62, 64
9, 139586, Note_off_c, 7, 70, 64
9, 139586, Note_on_c, 7, 44, 67
9, 139592, Note_off_c, 7, 44, 64
9, 139680, Note_on_c, 7, 70, 99
9, 139683, Note_off_c, 7, 70, 64
9, 139774, Note_on_c, 7, 33, 110
9, 139774, Note_on_c, 7, 67, 74
9, 139774, Note_on_c, 7, 60, 54
9, 139780, Note_off_c, 7, 60, 64
9, 139780, Note_off_c, 7, 67, 64
9, 139780, Note_off_c, 7, 33, 64
9, 139780, Note_on_c, 7, 43, 76
9, 139783, Note_off_c, 7, 43, 64
9, 139866, Note_on_c, 7, 67, 28
9, 139872, Note_off_c, 7, 67, 64
9, 139952, Note_on_c, 7, 67, 102
9, 139954, Note_off_c, 7, 67, 64
9, 139966, Note_on_c, 7, 70, 99
9, 139972, Note_off_c, 7, 70, 64
9, 139972, Note_on_c, 7, 44, 63
9, 139974, Note_off_c, 7, 44, 64
9, 140046, Note_on_c, 7, 67, 102
9, 140052, Note_off_c, 7, 67, 64
9, 140063, Note_on_c, 7, 60, 54
9, 140066, Note_off_c, 7, 60, 64
9, 140160, Note_on_c, 7, 33, 114
9, 140163, Note_off_c, 7, 33, 64
9, 140163, Note_on_c, 7, 40, 110
9, 140163, Note_on_c, 7, 43, 60
9, 140166, Note_off_c, 7, 43, 64
9, 140166, Note_off_c, 7, 40, 64
9, 140166, Note_on_c, 7, 37, 95
9, 140172, Note_off_c, 7, 37, 64
9, 140254, Note_on_c, 7, 60, 43
9, 140260, Note_off_c, 7, 60, 64
9, 140352, Note_on_c, 7, 70, 81
9, 140352, Note_on_c, 7, 62, 49
9, 140354, Note_off_c, 7, 62, 64
9, 140354, Note_off_c, 7, 70, 64
9, 140446, Note_on_c, 7, 70, 99
9, 140452, Note_off_c, 7, 70, 64
9, 140543, Note_on_c, 7, 33, 110
9, 140543, Note_on_c, 7, 60, 54
9, 140546, Note_off_c, 7, 60, 64
9, 140546, Note_off_c, 7, 33, 64
9, 140734, Note_on_c, 7, 70, 94
9, 140740, Note_off_c, 7, 70, 64
9, 140740, Note_on_c, 7, 44, 67
9, 140743, Note_off_c, 7, 44, 64
9, 140832, Note_on_c, 7, 60, 43
9, 140834, Note_off_c, 7, 60, 64
9, 140926, Note_on_c, 7, 33, 114
9, 140932, Note_off_c, 7, 33, 64
9, 140932, Note_on_c, 7, 40, 110
9, 140932, Note_on_c, 7, 43, 67
9, 140934, Note_off_c, 7, 43, 64
9, 140934, Note_off_c, 7, 40, 64
9, 140934, Note_on_c, 7, 37, 95
9, 140940, Note_off_c, 7, 37, 64
9, 141023, Note_on_c, 7, 60, 49
9, 141026, Note_off_c, 7, 60, 64
9, 141120, Note_on_c, 7, 70, 94
9, 141120, Note_on_c, 7, 62, 54
9, 141123, Note_off_c, 7, 62, 64
9, 141123, Note_off_c, 7, 70, 64
9, 141123, Note_on_c, 7, 44, 63
9, 141126, Note_off_c, 7, 44, 64
9, 141310, Note_on_c, 7, 33, 110
9, 141310, Note_on_c, 7, 60, 54
9, 141312, Note_off_c, 7, 60, 64
9, 141312, Note_off_c, 7, 33, 64
9, 141312, Note_on_c, 7, 43, 63
9, 141320, Note_off_c, 7, 43, 64
9, 141503, Note_on_c, 7, 70, 94
9, 141506, Note_off_c, 7, 70, 64
9, 141506, Note_on_c, 7, 44, 60
9, 141510, Note_off_c, 7, 44, 64
9, 141600, Note_on_c, 7, 60, 33
9, 141603, Note_off_c, 7, 60, 64
9, 141694, Note_on_c, 7, 33, 110
9, 141700, Note_off_c, 7, 33, 64
9, 141700, Note_on_c, 7, 40, 110
9, 141700, Note_on_c, 7, 43, 63
9, 141703, Note_off_c, 7, 43, 64
9, 141703, Note_off_c, 7, 40, 64
9, 141703, Note_on_c, 7, 37, 95
9, 141706, Note_off_c, 7, 37, 64
9, 141792, Note_on_c, 7, 60, 36
9, 141794, Note_off_c, 7, 60, 64
9, 141886, Note_on_c, 7, 70, 78
9, 141886, Note_on_c, 7, 62, 49
9, 141892, Note_off_c, 7, 62, 64
9, 141892, Note_off_c, 7, 70, 64
9, 141892, Note_on_c, 7, 44, 54
9, 141894, Note_off_c, 7, 44, 64
9, 141983, Note_on_c, 7, 70, 94
9, 141986, Note_off_c, 7, 70, 64
9, 142080, Note_on_c, 7, 33, 110
9, 142080, Note_on_c, 7, 60, 54
9, 142083, Note_off_c, 7, 60, 64
9, 142083, Note_off_c, 7, 33, 64
9, 142083, Note_on_c, 7, 43, 63
9, 142086, Note_off_c, 7, 43, 64
9, 142272, Note_on_c, 7, 70, 94
9, 142274, Note_off_c, 7, 70, 64
9, 142274, Note_on_c, 7, 44, 54
9, 142280, Note_off_c, 7, 44, 64
9, 142366, Note_on_c, 7, 60, 43
9, 142372, Note_off_c, 7, 60, 64
9, 142463, Note_on_c, 7, 33, 114
9, 142466, Note_off_c, 7, 33, 64
9, 142466, Note_on_c, 7, 40, 110
9, 142466, Note_on_c, 7, 43, 63
9, 142472, Note_off_c, 7, 43, 64
9, 142472, Note_off_c, 7, 40, 64
9, 142472, Note_on_c, 7, 37, 95
9, 142474, Note_off_c, 7, 37, 64
9, 142560, Note_on_c, 7, 60, 40
9, 142563, Note_off_c, 7, 60, 64
9, 142654, Note_on_c, 7, 70, 78
9, 142654, Note_on_c, 7, 62, 49
9, 142660, Note_off_c, 7, 62, 64
9, 142660, Note_off_c, 7, 70, 64
9, 142660, Note_on_c, 7, 44, 60
9, 142663, Note_off_c, 7, 44, 64
9, 142752, Note_on_c, 7, 70, 99
9, 142754, Note_off_c, 7, 70, 64
9, 142846, Note_on_c, 7, 33, 114
9, 142846, Note_on_c, 7, 67, 74
9, 142846, Note_on_c, 7, 60, 54
9, 142852, Note_off_c, 7, 60, 64
9, 142852, Note_off_c, 7, 67, 64
9, 142852, Note_off_c, 7, 33, 64
9, 142852, Note_on_c, 7, 43, 63
9, 142854, Note_off_c, 7, 43, 64
9, 142940, Note_on_c, 7, 67, 28
9, 142943, Note_off_c, 7, 67, 64
9, 143023, Note_on_c, 7, 67, 102
9, 143026, Note_off_c, 7, 67, 64
9, 143040, Note_on_c, 7, 70, 94
9, 143043, Note_off_c, 7, 70, 64
9, 143043, Note_on_c, 7, 44, 67
9, 143046, Note_off_c, 7, 44, 64
9, 143120, Note_on_c, 7, 67, 102
9, 143123, Note_off_c, 7, 67, 64
9, 143134, Note_on_c, 7, 60, 43
9, 143140, Note_off_c, 7, 60, 64
9, 143232, Note_on_c, 7, 33, 114
9, 143234, Note_off_c, 7, 33, 64
9, 143234, Note_on_c, 7, 40, 114
9, 143234, Note_on_c, 7, 43, 76
9, 143240, Note_off_c, 7, 43, 64
9, 143240, Note_off_c, 7, 40, 64
9, 143240, Note_on_c, 7, 37, 99
9, 143243, Note_off_c, 7, 37, 64
9, 143326, Note_on_c, 7, 60, 40
9, 143332, Note_off_c, 7, 60, 64
9, 143423, Note_on_c, 7, 70, 72
9, 143423, Note_on_c, 7, 62, 40
9, 143426, Note_off_c, 7, 62, 64
9, 143426, Note_off_c, 7, 70, 64
9, 143520, Note_on_c, 7, 70, 85
9, 143523, Note_off_c, 7, 70, 64
9, 143612, Note_on_c, 7, 33, 110
9, 143612, Note_on_c, 7, 60, 54
9, 143620, Note_off_c, 7, 60, 64
9, 143620, Note_off_c, 7, 33, 64
9, 143806, Note_on_c, 7, 70, 94
9, 143810, Note_off_c, 7, 70, 64
9, 143810, Note_on_c, 7, 44, 63
9, 143812, Note_off_c, 7, 44, 64
9, 143903, Note_on_c, 7, 60, 40
9, 143906, Note_off_c, 7, 60, 64
9, 144000, Note_on_c, 7, 33, 114
9, 144003, Note_off_c, 7, 33, 64
9, 144003, Note_on_c, 7, 40, 114
9, 144003, Note_on_c, 7, 43, 63
9, 144006, Note_off_c, 7, 43, 64
9, 144006, Note_off_c, 7, 40, 64
9, 144006, Note_on_c, 7, 37, 99
9, 144010, Note_off_c, 7, 37, 64
9, 144094, Note_on_c, 7, 60, 43
9, 144100, Note_off_c, 7, 60, 64
9, 144192, Note_on_c, 7, 70, 94
9, 144192, Note_on_c, 7, 62, 54
9, 144194, Note_off_c, 7, 62, 64
9, 144194, Note_off_c, 7, 70, 64
9, 144194, Note_on_c, 7, 44, 63
9, 144200, Note_off_c, 7, 44, 64
9, 144383, Note_on_c, 7, 33, 114
9, 144383, Note_on_c, 7, 60, 49
9, 144386, Note_off_c, 7, 60, 64
9, 144386, Note_off_c, 7, 33, 64
9, 144386, Note_on_c, 7, 43, 67
9, 144392, Note_off_c, 7, 43, 64
9, 144574, Note_on_c, 7, 70, 99
9, 144580, Note_off_c, 7, 70, 64
9, 144580, Note_on_c, 7, 44, 63
9, 144583, Note_off_c, 7, 44, 64
9, 144672, Note_on_c, 7, 60, 40
9, 144674, Note_off_c, 7, 60, 64
9, 144766, Note_on_c, 7, 33, 110
9, 144772, Note_off_c, 7, 33, 64
9, 144772, Note_on_c, 7, 40, 114
9, 144772, Note_on_c, 7, 43, 63
9, 144774, Note_off_c, 7, 43, 64
9, 144774, Note_off_c, 7, 40, 64
9, 144774, Note_on_c, 7, 37, 99
9, 144780, Note_off_c, 7, 37, 64
9, 144863, Note_on_c, 7, 60, 43
9, 144866, Note_off_c, 7, 60, 64
9, 144960, Note_on_c, 7, 70, 78
9, 144960, Note_on_c, 7, 62, 40
9, 144963, Note_off_c, 7, 62, 64
9, 144963, Note_off_c, 7, 70, 64
9, 144963, Note_on_c, 7, 44, 63
9, 144966, Note_off_c, 7, 44, 64
9, 145054, Note_on_c, 7, 70, 85
9, 145060, Note_off_c, 7, 70, 64
9, 145152, Note_on_c, 7, 33, 114
9, 145152, Note_on_c, 7, 60, 49
9, 145154, Note_off_c, 7, 60, 64
9, 145154, Note_off_c, 7, 33, 64
9, 145154, Note_on_c, 7, 43, 63
9, 145160, Note_off_c, 7, 43, 64
9, 145343, Note_on_c, 7, 70, 99
9, 145346, Note_off_c, 7, 70, 64
9, 145346, Note_on_c, 7, 44, 63
9, 145352, Note_off_c, 7, 44, 64
9, 145440, Note_on_c, 7, 60, 40
9, 145443, Note_off_c, 7, 60, 64
9, 145534, Note_on_c, 7, 33, 114
9, 145540, Note_off_c, 7, 33, 64
9, 145540, Note_on_c, 7, 40, 114
9, 145540, Note_on_c, 7, 43, 67
9, 145543, Note_off_c, 7, 43, 64
9, 145543, Note_off_c, 7, 40, 64
9, 145543, Note_on_c, 7, 37, 99
9, 145546, Note_off_c, 7, 37, 64
9, 145632, Note_on_c, 7, 60, 40
9, 145634, Note_off_c, 7, 60, 64
9, 145634, Note_on_c, 7, 40, 114
9, 145640, Note_off_c, 7, 40, 64
9, 145640, Note_on_c, 7, 37, 99
9, 145643, Note_off_c, 7, 37, 64
9, 145726, Note_on_c, 7, 70, 81
9, 145726, Note_on_c, 7, 62, 49
9, 145732, Note_off_c, 7, 62, 64
9, 145732, Note_off_c, 7, 70, 64
9, 145732, Note_on_c, 7, 44, 67
9, 145734, Note_off_c, 7, 44, 64
9, 145823, Note_on_c, 7, 70, 99
9, 145826, Note_off_c, 7, 70, 64
9, 145920, Note_on_c, 7, 33, 110
9, 145920, Note_on_c, 7, 67, 74
9, 145920, Note_on_c, 7, 60, 54
9, 145923, Note_off_c, 7, 60, 64
9, 145923, Note_off_c, 7, 67, 64
9, 145923, Note_off_c, 7, 33, 64
9, 145923, Note_on_c, 7, 43, 76
9, 145926, Note_off_c, 7, 43, 64
9, 146010, Note_on_c, 7, 67, 28
9, 146012, Note_off_c, 7, 67, 64
9, 146094, Note_on_c, 7, 67, 102
9, 146100, Note_off_c, 7, 67, 64
9, 146110, Note_on_c, 7, 70, 99
9, 146112, Note_off_c, 7, 70, 64
9, 146112, Note_on_c, 7, 44, 63
9, 146120, Note_off_c, 7, 44, 64
9, 146192, Note_on_c, 7, 67, 100
9, 146194, Note_off_c, 7, 67, 64
9, 146206, Note_on_c, 7, 60, 53
9, 146210, Note_off_c, 7, 60, 64
9, 146303, Note_on_c, 7, 33, 111
9, 146306, Note_off_c, 7, 33, 64
9, 146306, Note_on_c, 7, 40, 107
9, 146306, Note_on_c, 7, 43, 58
9, 146310, Note_off_c, 7, 43, 64
9, 146310, Note_off_c, 7, 40, 64
9, 146310, Note_on_c, 7, 37, 92
9, 146312, Note_off_c, 7, 37, 64
9, 146400, Note_on_c, 7, 60, 41
9, 146403, Note_off_c, 7, 60, 64
9, 146494, Note_on_c, 7, 70, 77
9, 146494, Note_on_c, 7, 62, 46
9, 146500, Note_off_c, 7, 62, 64
9, 146500, Note_off_c, 7, 70, 64
9, 146592, Note_on_c, 7, 70, 93
9, 146594, Note_off_c, 7, 70, 64
9, 146686, Note_on_c, 7, 33, 102
9, 146686, Note_on_c, 7, 60, 50
9, 146692, Note_off_c, 7, 60, 64
9, 146692, Note_off_c, 7, 33, 64
9, 146880, Note_on_c, 7, 70, 86
9, 146883, Note_off_c, 7, 70, 64
9, 146883, Note_on_c, 7, 44, 61
9, 146886, Note_off_c, 7, 44, 64
9, 146974, Note_on_c, 7, 60, 38
9, 146980, Note_off_c, 7, 60, 64
9, 147072, Note_on_c, 7, 33, 102
9, 147074, Note_off_c, 7, 33, 64
9, 147074, Note_on_c, 7, 40, 99
9, 147074, Note_on_c, 7, 43, 60
9, 147080, Note_off_c, 7, 43, 64
9, 147080, Note_off_c, 7, 40, 64
9, 147080, Note_on_c, 7, 37, 85
9, 147083, Note_off_c, 7, 37, 64
9, 147166, Note_on_c, 7, 60, 43
9, 147172, Note_off_c, 7, 60, 64
9, 147263, Note_on_c, 7, 70, 82
9, 147263, Note_on_c, 7, 62, 46
9, 147266, Note_off_c, 7, 62, 64
9, 147266, Note_off_c, 7, 70, 64
9, 147266, Note_on_c, 7, 44, 54
9, 147272, Note_off_c, 7, 44, 64
9, 147454, Note_on_c, 7, 33, 94
9, 147454, Note_on_c, 7, 60, 45
9, 147460, Note_off_c, 7, 60, 64
9, 147460, Note_off_c, 7, 33, 64
9, 147460, Note_on_c, 7, 43, 53
9, 147463, Note_off_c, 7, 43, 64
9, 147646, Note_on_c, 7, 70, 78
9, 147652, Note_off_c, 7, 70, 64
9, 147652, Note_on_c, 7, 44, 49
9, 147654, Note_off_c, 7, 44, 64
9, 147743, Note_on_c, 7, 60, 26
9, 147746, Note_off_c, 7, 60, 64
9, 147840, Note_on_c, 7, 33, 90
9, 147843, Note_off_c, 7, 33, 64
9, 147843, Note_on_c, 7, 40, 90
9, 147843, Note_on_c, 7, 43, 51
9, 147846, Note_off_c, 7, 43, 64
9, 147846, Note_off_c, 7, 40, 64
9, 147846, Note_on_c, 7, 37, 78
9, 147852, Note_off_c, 7, 37, 64
9, 147934, Note_on_c, 7, 60, 28
9, 147940, Note_off_c, 7, 60, 64
9, 148032, Note_on_c, 7, 70, 62
9, 148032, Note_on_c, 7, 62, 38
9, 148034, Note_off_c, 7, 62, 64
9, 148034, Note_off_c, 7, 70, 64
9, 148034, Note_on_c, 7, 44, 42
9, 148040, Note_off_c, 7, 44, 64
9, 148126, Note_on_c, 7, 70, 74
9, 148132, Note_off_c, 7, 70, 64
9, 148223, Note_on_c, 7, 33, 86
9, 148223, Note_on_c, 7, 60, 41
9, 148226, Note_off_c, 7, 60, 64
9, 148226, Note_off_c, 7, 33, 64
9, 148226, Note_on_c, 7, 43, 48
9, 148232, Note_off_c, 7, 43, 64
9, 148412, Note_on_c, 7, 70, 71
9, 148420, Note_off_c, 7, 70, 64
9, 148420, Note_on_c, 7, 44, 39
9, 148423, Note_off_c, 7, 44, 64
9, 148510, Note_on_c, 7, 60, 30
9, 148512, Note_off_c, 7, 60, 64
9, 148606, Note_on_c, 7, 33, 84
9, 148610, Note_off_c, 7, 33, 64
9, 148610, Note_on_c, 7, 40, 81
9, 148610, Note_on_c, 7, 43, 45
9, 148612, Note_off_c, 7, 43, 64
9, 148612, Note_off_c, 7, 40, 64
9, 148612, Note_on_c, 7, 37, 69
9, 148620, Note_off_c, 7, 37, 64
9, 148703, Note_on_c, 7, 60, 28
9, 148706, Note_off_c, 7, 60, 64
9, 148800, Note_on_c, 7, 70, 56
9, 148800, Note_on_c, 7, 62, 34
9, 148803, Note_off_c, 7, 62, 64
9, 148803, Note_off_c, 7, 70, 64
9, 148803, Note_on_c, 7, 44, 42
9, 148806, Note_off_c, 7, 44, 64
9, 148894, Note_on_c, 7, 70, 70
9, 148900, Note_off_c, 7, 70, 64
9, 148992, Note_on_c, 7, 33, 80
9, 148992, Note_on_c, 7, 67, 51
9, 148992, Note_on_c, 7, 60, 36
9, 148994, Note_off_c, 7, 60, 64
9, 148994, Note_off_c, 7, 67, 64
9, 148994, Note_off_c, 7, 33, 64
9, 148994, Note_on_c, 7, 43, 43
9, 149000, Note_off_c, 7, 43, 64
9, 149083, Note_on_c, 7, 67, 17
9, 149086, Note_off_c, 7, 67, 64
9, 149166, Note_on_c, 7, 67, 69
9, 149172, Note_off_c, 7, 67, 64
9, 149183, Note_on_c, 7, 70, 63
9, 149186, Note_off_c, 7, 70, 64
9, 149186, Note_on_c, 7, 44, 44
9, 149192, Note_off_c, 7, 44, 64
9, 149263, Note_on_c, 7, 67, 68
9, 149266, Note_off_c, 7, 67, 64
9, 149280, Note_on_c, 7, 60, 27
9, 149283, Note_off_c, 7, 60, 64
9, 149374, Note_on_c, 7, 33, 75
9, 149380, Note_off_c, 7, 33, 64
9, 149380, Note_on_c, 7, 40, 75
9, 149380, Note_on_c, 7, 43, 49
9, 149383, Note_off_c, 7, 43, 64
9, 149383, Note_off_c, 7, 40, 64
9, 149383, Note_on_c, 7, 37, 65
9, 149386, Note_off_c, 7, 37, 64
9, 149472, Note_on_c, 7, 60, 24
9, 149474, Note_off_c, 7, 60, 64
9, 149566, Note_on_c, 7, 70, 45
9, 149566, Note_on_c, 7, 62, 24
9, 149572, Note_off_c, 7, 62, 64
9, 149572, Note_off_c, 7, 70, 64
9, 149663, Note_on_c, 7, 70, 53
9, 149666, Note_off_c, 7, 70, 64
9, 149760, Note_on_c, 7, 33, 69
9, 149760, Note_on_c, 7, 60, 32
9, 149763, Note_off_c, 7, 60, 64
9, 149763, Note_off_c, 7, 33, 64
9, 149952, Note_on_c, 7, 70, 56
9, 149954, Note_off_c, 7, 70, 64
9, 149954, Note_on_c, 7, 44, 36
9, 149960, Note_off_c, 7, 44, 64
9, 150046, Note_on_c, 7, 60, 21
9, 150052, Note_off_c, 7, 60, 64
9, 150143, Note_on_c, 7, 33, 66
9, 150146, Note_off_c, 7, 33, 64
9, 150146, Note_on_c, 7, 40, 66
9, 150146, Note_on_c, 7, 43, 35
9, 150152, Note_off_c, 7, 43, 64
9, 150152, Note_off_c, 7, 40, 64
9, 150152, Note_on_c, 7, 37, 57
9, 150154, Note_off_c, 7, 37, 64
9, 150240, Note_on_c, 7, 60, 22
9, 150243, Note_off_c, 7, 60, 64
9, 150334, Note_on_c, 7, 70, 52
9, 150334, Note_on_c, 7, 62, 28
9, 150340, Note_off_c, 7, 62, 64
9, 150340, Note_off_c, 7, 70, 64
9, 150340, Note_on_c, 7, 44, 33
9, 150343, Note_off_c, 7, 44, 64
9, 150526, Note_on_c, 7, 33, 63
9, 150526, Note_on_c, 7, 60, 24
9, 150532, Note_off_c, 7, 60, 64
9, 150532, Note_off_c, 7, 33, 64
9, 150532, Note_on_c, 7, 43, 35
9, 150534, Note_off_c, 7, 43, 64
9, 150720, Note_on_c, 7, 70, 52
9, 150723, Note_off_c, 7, 70, 64
9, 150723, Note_on_c, 7, 44, 31
9, 150726, Note_off_c, 7, 44, 64
9, 150812, Note_on_c, 7, 60, 18
9, 150820, Note_off_c, 7, 60, 64
9, 150910, Note_on_c, 7, 33, 56
9, 150912, Note_off_c, 7, 33, 64
9, 150912, Note_on_c, 7, 40, 58
9, 150912, Note_on_c, 7, 43, 30
9, 150920, Note_off_c, 7, 43, 64
9, 150920, Note_off_c, 7, 40, 64
9, 150920, Note_on_c, 7, 37, 49
9, 150923, Note_off_c, 7, 37, 64
9, 151006, Note_on_c, 7, 60, 18
9, 151010, Note_off_c, 7, 60, 64
9, 151103, Note_on_c, 7, 70, 36
9, 151103, Note_on_c, 7, 62, 16
9, 151106, Note_off_c, 7, 62, 64
9, 151106, Note_off_c, 7, 70, 64
9, 151106, Note_on_c, 7, 44, 28
9, 151110, Note_off_c, 7, 44, 64
9, 151200, Note_on_c, 7, 70, 39
9, 151203, Note_off_c, 7, 70, 64
9, 151294, Note_on_c, 7, 33, 53
9, 151294, Note_on_c, 7, 60, 20
9, 151300, Note_off_c, 7, 60, 64
9, 151300, Note_off_c, 7, 33, 64
9, 151300, Note_on_c, 7, 43, 27
9, 151303, Note_off_c, 7, 43, 64
9, 151486, Note_on_c, 7, 70, 44
9, 151492, Note_off_c, 7, 70, 64
9, 151492, Note_on_c, 7, 44, 26
9, 151494, Note_off_c, 7, 44, 64
9, 151583, Note_on_c, 7, 60, 14
9, 151586, Note_off_c, 7, 60, 64
9, 151680, Note_on_c, 7, 33, 49
9, 151683, Note_off_c, 7, 33, 64
9, 151683, Note_on_c, 7, 40, 49
9, 151683, Note_on_c, 7, 43, 26
9, 151686, Note_off_c, 7, 43, 64
9, 151686, Note_off_c, 7, 40, 64
9, 151686, Note_on_c, 7, 37, 42
9, 151692, Note_off_c, 7, 37, 64
9, 151774, Note_on_c, 7, 60, 13
9, 151780, Note_off_c, 7, 60, 64
9, 151872, Note_on_c, 7, 70, 31
9, 151872, Note_on_c, 7, 62, 17
9, 151874, Note_off_c, 7, 62, 64
9, 151874, Note_off_c, 7, 70, 64
9, 151874, Note_on_c, 7, 44, 25
9, 151880, Note_off_c, 7, 44, 64
9, 151966, Note_on_c, 7, 70, 39
9, 151972, Note_off_c, 7, 70, 64
9, 152063, Note_on_c, 7, 33, 42
9, 152063, Note_on_c, 7, 67, 26
9, 152063, Note_on_c, 7, 60, 18
9, 152066, Note_off_c, 7, 60, 64
9, 152066, Note_off_c, 7, 67, 64
9, 152066, Note_off_c, 7, 33, 64
9, 152066, Note_on_c, 7, 43, 27
9, 152072, Note_off_c, 7, 43, 64
9, 152154, Note_on_c, 7, 67, 6
9, 152160, Note_off_c, 7, 67, 64
9, 152240, Note_on_c, 7, 67, 38
9, 152243, Note_off_c, 7, 67, 64
9, 152254, Note_on_c, 7, 70, 36
9, 152260, Note_off_c, 7, 70, 64
9, 152260, Note_on_c, 7, 44, 21
9, 152263, Note_off_c, 7, 44, 64
9, 152334, Note_on_c, 7, 67, 37
9, 152340, Note_off_c, 7, 67, 64
9, 152352, Note_on_c, 7, 60, 16
9, 152354, Note_off_c, 7, 60, 64
9, 152446, Note_on_c, 7, 33, 40
9, 152452, Note_off_c, 7, 33, 64
9, 152452, Note_on_c, 7, 40, 39
9, 152452, Note_on_c, 7, 43, 18
9, 152454, Note_off_c, 7, 43, 64
9, 152454, Note_off_c, 7, 40, 64
9, 152454, Note_on_c, 7, 37, 33
9, 152460, Note_off_c, 7, 37, 64
9, 152543, Note_on_c, 7, 60, 11
9, 152546, Note_off_c, 7, 60, 64
9, 152640, Note_on_c, 7, 70, 25
9, 152640, Note_on_c, 7, 62, 13
9, 152643, Note_off_c, 7, 62, 64
9, 152643, Note_off_c, 7, 70, 64
9, 152734, Note_on_c, 7, 70, 31
9, 152740, Note_off_c, 7, 70, 64
9, 152832, Note_on_c, 7, 33, 34
9, 152832, Note_on_c, 7, 60, 13
9, 152834, Note_off_c, 7, 60, 64
9, 152834, Note_off_c, 7, 33, 64
9, 153023, Note_on_c, 7, 70, 26
9, 153026, Note_off_c, 7, 70, 64
9, 153026, Note_on_c, 7, 44, 16
9, 153032, Note_off_c, 7, 44, 64
9, 153120, Note_on_c, 7, 60, 8
9, 153123, Note_off_c, 7, 60, 64
9, 153212, Note_on_c, 7, 33, 32
9, 153220, Note_off_c, 7, 33, 64
9, 153220, Note_on_c, 7, 40, 30
9, 153220, Note_on_c, 7, 43, 16
9, 153223, Note_off_c, 7, 43, 64
9, 153223, Note_off_c, 7, 40, 64
9, 153223, Note_on_c, 7, 37, 25
9, 153226, Note_off_c, 7, 37, 64
9, 153310, Note_on_c, 7, 60, 9
9, 153312, Note_off_c, 7, 60, 64
9, 153406, Note_on_c, 7, 70, 23
9, 153406, Note_on_c, 7, 62, 10
9, 153410, Note_off_c, 7, 62, 64
9, 153410, Note_off_c, 7, 70, 64
9, 153410, Note_on_c, 7, 44, 13
9, 153412, Note_off_c, 7, 44, 64
9, 153600, Note_on_c, 7, 33, 26
9, 153600, Note_on_c, 7, 60, 9
9, 153603, Note_off_c, 7, 60, 64
9, 153603, Note_off_c, 7, 33, 64
9, 153603, Note_on_c, 7, 43, 11
9, 153606, Note_off_c, 7, 43, 64
9, 153792, Note_on_c, 7, 70, 19
9, 153794, Note_off_c, 7, 70, 64
9, 153794, Note_on_c, 7, 44, 9
9, 153800, Note_off_c, 7, 44, 64
9, 153886, Note_on_c, 7, 60, 1
9, 153892, Note_off_c, 7, 60, 64
9, 153983, Note_on_c, 7, 33, 21
9, 153986, Note_off_c, 7, 33, 64
9, 153986, Note_on_c, 7, 40, 21
9, 153986, Note_on_c, 7, 43, 8
9, 153992, Note_off_c, 7, 43, 64
9, 153992, Note_off_c, 7, 40, 64
9, 153992, Note_on_c, 7, 37, 17
9, 153994, Note_off_c, 7, 37, 64
9, 154080, Note_on_c, 7, 60, 1
9, 154083, Note_off_c, 7, 60, 64
9, 154174, Note_on_c, 7, 70, 12
9, 154174, Note_on_c, 7, 62, 4
9, 154180, Note_off_c, 7, 62, 64
9, 154180, Note_off_c, 7, 70, 64
9, 154180, Note_on_c, 7, 44, 6
9, 154183, Note_off_c, 7, 44, 64
9, 154272, Note_on_c, 7, 70, 14
9, 154274, Note_off_c, 7, 70, 64
9, 154366, Note_on_c, 7, 33, 17
9, 154366, Note_on_c, 7, 60, 4
9, 154372, Note_off_c, 7, 60, 64
9, 154372, Note_off_c, 7, 33, 64
9, 154372, Note_on_c, 7, 43, 6
9, 154374, Note_off_c, 7, 43, 64
9, 154560, Note_on_c, 7, 70, 11
9, 154563, Note_off_c, 7, 70, 64
9, 154563, Note_on_c, 7, 44, 3
9, 154566, Note_off_c, 7, 44, 64
9, 154654, Note_on_c, 7, 60, 1
9, 154660, Note_off_c, 7, 60, 64
9, 154752, Note_on_c, 7, 33, 13
9, 154754, Note_off_c, 7, 33, 64
9, 154754, Note_on_c, 7, 40, 12
9, 154754, Note_on_c, 7, 43, 3
9, 154760, Note_off_c, 7, 43, 64
9, 154760, Note_off_c, 7, 40, 64
9, 154760, Note_on_c, 7, 37, 9
9, 154763, Note_off_c, 7, 37, 64
9, 154846, Note_on_c, 7, 60, 1
9, 154852, Note_off_c, 7, 60, 64
9, 154943, Note_on_c, 7, 70, 5
9, 154943, Note_on_c, 7, 62, 1
9, 154946, Note_off_c, 7, 62, 64
9, 154946, Note_off_c, 7, 70, 64
9, 154946, Note_on_c, 7, 44, 2
9, 154952, Note_off_c, 7, 44, 64
9, 155040, Note_on_c, 7, 70, 8
9, 155043, Note_off_c, 7, 70, 64
9, 155134, Note_on_c, 7, 33, 9
9, 155134, Note_on_c, 7, 67, 3
9, 155134, Note_on_c, 7, 60, 1
9, 155140, Note_off_c, 7, 60, 64
9, 155140, Note_off_c, 7, 67, 64
9, 155140, Note_off_c, 7, 33, 64
9, 155140, Note_on_c, 7, 43, 1
9, 155143, Note_off_c, 7, 43, 64
9, 155226, Note_on_c, 7, 67, 1
9, 155232, Note_off_c, 7, 67, 64
9, 155310, Note_on_c, 7, 67, 5
9, 155312, Note_off_c, 7, 67, 64
9, 155326, Note_on_c, 7, 70, 4
9, 155332, Note_off_c, 7, 70, 64
9, 155332, Note_on_c, 7, 44, 1
9, 155334, Note_off_c, 7, 44, 64
9, 155406, Note_on_c, 7, 67, 4
9, 155410, Note_off_c, 7, 67, 64
9, 155423, Note_on_c, 7, 60, 1
9, 155426, Note_off_c, 7, 60, 64
9, 155520, Note_on_c, 7, 33, 4
9, 155523, Note_off_c, 7, 33, 64
9, 155523, Note_on_c, 7, 40, 4
9, 155523, Note_on_c, 7, 43, 1
9, 155526, Note_off_c, 7, 43, 64
9, 155526, Note_off_c, 7, 40, 64
9, 155526, Note_on_c, 7, 37, 3
9, 155532, Note_off_c, 7, 37, 64
9, 155612, Note_on_c, 7, 60, 1
9, 155620, Note_off_c, 7, 60, 64
9, 155710, Note_on_c, 7, 70, 1
9, 155710, Note_on_c, 7, 62, 1
9, 155712, Note_off_c, 7, 62, 64
9, 155712, Note_off_c, 7, 70, 64
9, 155806, Note_on_c, 7, 70, 1
9, 155810, Note_off_c, 7, 70, 64
9, 155903, Note_on_c, 7, 33, 1
9, 155903, Note_on_c, 7, 60, 1
9, 155906, Note_off_c, 7, 60, 64
9, 155906, Note_off_c, 7, 33, 64
9, 156094, Note_on_c, 7, 70, 1
9, 156100, Note_off_c, 7, 70, 64
9, 156100, Note_on_c, 7, 44, 1
9, 156103, Note_off_c, 7, 44, 64
9, 156192, Note_on_c, 7, 60, 1
9, 156194, Note_off_c, 7, 60, 64
9, 156286, Note_on_c, 7, 33, 1
9, 156292, Note_off_c, 7, 33, 64
9, 156292, Note_on_c, 7, 40, 1
9, 156292, Note_on_c, 7, 43, 1
9, 156294, Note_off_c, 7, 43, 64
9, 156294, Note_off_c, 7, 40, 64
9, 156294, Note_on_c, 7, 37, 1
9, 156300, Note_off_c, 7, 37, 64
9, 156383, Note_on_c, 7, 60, 1
9, 156386, Note_off_c, 7, 60, 64
9, 156480, Note_on_c, 7, 70, 1
9, 156480, Note_on_c, 7, 62, 1
9, 156483, Note_off_c, 7, 62, 64
9, 156483, Note_off_c, 7, 70, 64
9, 156483, Note_on_c, 7, 44, 1
9, 156486, Note_off_c, 7, 44, 64
9, 158206, End_track
10, 0, Start_track
10, 0, Title_t, "STRINGS"
10, 2126, Program_c, 8, 48
10, 2132, Control_c, 8, 5, 105
10, 2132, Control_c, 8, 8, 64
10, 2132, Control_c, 8, 9, 127
10, 2134, Control_c, 8, 91, 60
10, 2134, Control_c, 8, 92, 0
10, 4620, Note_on_c, 8, 83, 68
10, 4620, Note_on_c, 8, 72, 68
10, 4623, Control_c, 8, 1, 0
10, 4623, Pitch_bend_c, 8, 8192
10, 5166, Note_off_c, 8, 72, 64
10, 5166, Note_off_c, 8, 83, 64
10, 5172, Note_on_c, 8, 85, 68
10, 5172, Note_on_c, 8, 73, 68
10, 5734, Note_off_c, 8, 73, 64
10, 5734, Note_off_c, 8, 85, 64
10, 5740, Note_on_c, 8, 80, 55
10, 5740, Note_on_c, 8, 66, 57
10, 6103, Note_off_c, 8, 66, 64
10, 6103, Note_off_c, 8, 80, 64
10, 6106, Note_on_c, 8, 85, 68
10, 6106, Note_on_c, 8, 73, 68
10, 6720, Note_off_c, 8, 73, 64
10, 6720, Note_off_c, 8, 85, 64
10, 6723, Note_on_c, 8, 87, 84
10, 6723, Note_on_c, 8, 75, 84
10, 7203, Note_off_c, 8, 75, 64
10, 7203, Note_off_c, 8, 87, 64
10, 7274, Note_on_c, 8, 92, 71
10, 7274, Note_on_c, 8, 80, 71
10, 7360, Note_off_c, 8, 80, 64
10, 7360, Note_off_c, 8, 92, 64
10, 7363, Note_on_c, 8, 90, 71
10, 7363, Note_on_c, 8, 76, 71
10, 7443, Note_off_c, 8, 76, 64
10, 7443, Note_off_c, 8, 90, 64
10, 7452, Note_on_c, 8, 87, 78
10, 7452, Note_on_c, 8, 75, 78
10, 7520, Note_off_c, 8, 75, 64
10, 7520, Note_off_c, 8, 87, 64
10, 7560, Note_on_c, 8, 83, 75
10, 7560, Note_on_c, 8, 72, 75
10, 8243, Note_off_c, 8, 72, 64
10, 8243, Note_off_c, 8, 83, 64
10, 8246, Note_on_c, 8, 85, 71
10, 8246, Note_on_c, 8, 73, 71
10, 8823, Note_off_c, 8, 73, 64
10, 8823, Note_off_c, 8, 85, 64
10, 8826, Note_on_c, 8, 80, 45
10, 8826, Note_on_c, 8, 66, 44
10, 9946, Note_off_c, 8, 66, 64
10, 9946, Note_off_c, 8, 80, 64
10, 10366, Note_on_c, 8, 92, 75
10, 10366, Note_on_c, 8, 80, 75
10, 10452, Note_off_c, 8, 80, 64
10, 10452, Note_off_c, 8, 92, 64
10, 10454, Note_on_c, 8, 90, 71
10, 10454, Note_on_c, 8, 76, 71
10, 10543, Note_off_c, 8, 76, 64
10, 10543, Note_off_c, 8, 90, 64
10, 10546, Note_on_c, 8, 87, 84
10, 10546, Note_on_c, 8, 75, 84
10, 10626, Note_off_c, 8, 75, 64
10, 10626, Note_off_c, 8, 87, 64
10, 10654, Note_on_c, 8, 83, 75
10, 10654, Note_on_c, 8, 72, 75
10, 11312, Note_off_c, 8, 72, 64
10, 11312, Note_off_c, 8, 83, 64
10, 11320, Note_on_c, 8, 85, 71
10, 11320, Note_on_c, 8, 73, 71
10, 11880, Note_off_c, 8, 73, 64
10, 11880, Note_off_c, 8, 85, 64
10, 11883, Note_on_c, 8, 80, 55
10, 11883, Note_on_c, 8, 66, 56
10, 12274, Note_off_c, 8, 66, 64
10, 12274, Note_off_c, 8, 80, 64
10, 12280, Note_on_c, 8, 85, 68
10, 12280, Note_on_c, 8, 73, 68
10, 12860, Note_off_c, 8, 73, 64
10, 12860, Note_off_c, 8, 85, 64
10, 12863, Note_on_c, 8, 87, 75
10, 12863, Note_on_c, 8, 75, 75
10, 13406, Note_off_c, 8, 75, 64
10, 13406, Note_off_c, 8, 87, 64
10, 13454, Note_on_c, 8, 92, 68
10, 13454, Note_on_c, 8, 80, 68
10, 13532, Note_off_c, 8, 80, 64
10, 13532, Note_off_c, 8, 92, 64
10, 13534, Note_on_c, 8, 90, 62
10, 13534, Note_on_c, 8, 76, 62
10, 13612, Note_off_c, 8, 76, 64
10, 13612, Note_off_c, 8, 90, 64
10, 13623, Note_on_c, 8, 87, 68
10, 13623, Note_on_c, 8, 75, 68
10, 13694, Note_off_c, 8, 75, 64
10, 13694, Note_off_c, 8, 87, 64
10, 13732, Note_on_c, 8, 83, 62
10, 13732, Note_on_c, 8, 72, 62
10, 14372, Note_off_c, 8, 72, 64
10, 14372, Note_off_c, 8, 83, 64
10, 14374, Note_on_c, 8, 85, 71
10, 14374, Note_on_c, 8, 73, 71
10, 14952, Note_off_c, 8, 73, 64
10, 14952, Note_off_c, 8, 85, 64
10, 14954, Note_on_c, 8, 80, 43
10, 14954, Note_on_c, 8, 66, 44
10, 16386, Note_off_c, 8, 66, 64
10, 16386, Note_off_c, 8, 80, 64
10, 35340, Note_on_c, 8, 83, 68
10, 35340, Note_on_c, 8, 72, 68
10, 35886, Note_off_c, 8, 72, 64
10, 35886, Note_off_c, 8, 83, 64
10, 35892, Note_on_c, 8, 85, 68
10, 35892, Note_on_c, 8, 73, 68
10, 36454, Note_off_c, 8, 73, 64
10, 36454, Note_off_c, 8, 85, 64
10, 36460, Note_on_c, 8, 80, 55
10, 36460, Note_on_c, 8, 66, 57
10, 36823, Note_off_c, 8, 66, 64
10, 36823, Note_off_c, 8, 80, 64
10, 36826, Note_on_c, 8, 85, 68
10, 36826, Note_on_c, 8, 73, 68
10, 37440, Note_off_c, 8, 73, 64
10, 37440, Note_off_c, 8, 85, 64
10, 37443, Note_on_c, 8, 87, 84
10, 37443, Note_on_c, 8, 75, 84
10, 37923, Note_off_c, 8, 75, 64
10, 37923, Note_off_c, 8, 87, 64
10, 37994, Note_on_c, 8, 92, 71
10, 37994, Note_on_c, 8, 80, 71
10, 38080, Note_off_c, 8, 80, 64
10, 38080, Note_off_c, 8, 92, 64
10, 38083, Note_on_c, 8, 90, 71
10, 38083, Note_on_c, 8, 76, 71
10, 38163, Note_off_c, 8, 76, 64
10, 38163, Note_off_c, 8, 90, 64
10, 38172, Note_on_c, 8, 87, 78
10, 38172, Note_on_c, 8, 75, 78
10, 38240, Note_off_c, 8, 75, 64
10, 38240, Note_off_c, 8, 87, 64
10, 38280, Note_on_c, 8, 83, 75
10, 38280, Note_on_c, 8, 72, 75
10, 38963, Note_off_c, 8, 72, 64
10, 38963, Note_off_c, 8, 83, 64
10, 38966, Note_on_c, 8, 85, 71
10, 38966, Note_on_c, 8, 73, 71
10, 39543, Note_off_c, 8, 73, 64
10, 39543, Note_off_c, 8, 85, 64
10, 39546, Note_on_c, 8, 80, 45
10, 39546, Note_on_c, 8, 66, 44
10, 40666, Note_off_c, 8, 66, 64
10, 40666, Note_off_c, 8, 80, 64
10, 41086, Note_on_c, 8, 92, 75
10, 41086, Note_on_c, 8, 80, 75
10, 41172, Note_off_c, 8, 80, 64
10, 41172, Note_off_c, 8, 92, 64
10, 41174, Note_on_c, 8, 90, 71
10, 41174, Note_on_c, 8, 76, 71
10, 41263, Note_off_c, 8, 76, 64
10, 41263, Note_off_c, 8, 90, 64
10, 41266, Note_on_c, 8, 87, 84
10, 41266, Note_on_c, 8, 75, 84
10, 41346, Note_off_c, 8, 75, 64
10, 41346, Note_off_c, 8, 87, 64
10, 41374, Note_on_c, 8, 83, 75
10, 41374, Note_on_c, 8, 72, 75
10, 42034, Note_off_c, 8, 72, 64
10, 42034, Note_off_c, 8, 83, 64
10, 42040, Note_on_c, 8, 85, 71
10, 42040, Note_on_c, 8, 73, 71
10, 42600, Note_off_c, 8, 73, 64
10, 42600, Note_off_c, 8, 85, 64
10, 42603, Note_on_c, 8, 80, 55
10, 42603, Note_on_c, 8, 66, 56
10, 42994, Note_off_c, 8, 66, 64
10, 42994, Note_off_c, 8, 80, 64
10, 43000, Note_on_c, 8, 85, 68
10, 43000, Note_on_c, 8, 73, 68
10, 43580, Note_off_c, 8, 73, 64
10, 43580, Note_off_c, 8, 85, 64
10, 43583, Note_on_c, 8, 87, 75
10, 43583, Note_on_c, 8, 75, 75
10, 44126, Note_off_c, 8, 75, 64
10, 44126, Note_off_c, 8, 87, 64
10, 44174, Note_on_c, 8, 92, 68
10, 44174, Note_on_c, 8, 80, 68
10, 44252, Note_off_c, 8, 80, 64
10, 44252, Note_off_c, 8, 92, 64
10, 44254, Note_on_c, 8, 90, 62
10, 44254, Note_on_c, 8, 76, 62
10, 44334, Note_off_c, 8, 76, 64
10, 44334, Note_off_c, 8, 90, 64
10, 44343, Note_on_c, 8, 87, 68
10, 44343, Note_on_c, 8, 75, 68
10, 44412, Note_off_c, 8, 75, 64
10, 44412, Note_off_c, 8, 87, 64
10, 44452, Note_on_c, 8, 83, 62
10, 44452, Note_on_c, 8, 72, 62
10, 45092, Note_off_c, 8, 72, 64
10, 45092, Note_off_c, 8, 83, 64
10, 45094, Note_on_c, 8, 85, 71
10, 45094, Note_on_c, 8, 73, 71
10, 45672, Note_off_c, 8, 73, 64
10, 45672, Note_off_c, 8, 85, 64
10, 45674, Note_on_c, 8, 80, 43
10, 45674, Note_on_c, 8, 66, 44
10, 47106, Note_off_c, 8, 66, 64
10, 47106, Note_off_c, 8, 80, 64
10, 66060, Note_on_c, 8, 83, 68
10, 66060, Note_on_c, 8, 72, 68
10, 66606, Note_off_c, 8, 72, 64
10, 66606, Note_off_c, 8, 83, 64
10, 66610, Note_on_c, 8, 85, 68
10, 66610, Note_on_c, 8, 73, 68
10, 67174, Note_off_c, 8, 73, 64
10, 67174, Note_off_c, 8, 85, 64
10, 67180, Note_on_c, 8, 80, 55
10, 67180, Note_on_c, 8, 66, 57
10, 67543, Note_off_c, 8, 66, 64
10, 67543, Note_off_c, 8, 80, 64
10, 67546, Note_on_c, 8, 85, 68
10, 67546, Note_on_c, 8, 73, 68
10, 68160, Note_off_c, 8, 73, 64
10, 68160, Note_off_c, 8, 85, 64
10, 68163, Note_on_c, 8, 87, 84
10, 68163, Note_on_c, 8, 75, 84
10, 68643, Note_off_c, 8, 75, 64
10, 68643, Note_off_c, 8, 87, 64
10, 68712, Note_on_c, 8, 92, 71
10, 68712, Note_on_c, 8, 80, 71
10, 68800, Note_off_c, 8, 80, 64
10, 68800, Note_off_c, 8, 92, 64
10, 68803, Note_on_c, 8, 90, 71
10, 68803, Note_on_c, 8, 76, 71
10, 68883, Note_off_c, 8, 76, 64
10, 68883, Note_off_c, 8, 90, 64
10, 68892, Note_on_c, 8, 87, 78
10, 68892, Note_on_c, 8, 75, 78
10, 68960, Note_off_c, 8, 75, 64
10, 68960, Note_off_c, 8, 87, 64
10, 69000, Note_on_c, 8, 83, 75
10, 69000, Note_on_c, 8, 72, 75
10, 69683, Note_off_c, 8, 72, 64
10, 69683, Note_off_c, 8, 83, 64
10, 69686, Note_on_c, 8, 85, 71
10, 69686, Note_on_c, 8, 73, 71
10, 70263, Note_off_c, 8, 73, 64
10, 70263, Note_off_c, 8, 85, 64
10, 70266, Note_on_c, 8, 80, 45
10, 70266, Note_on_c, 8, 66, 44
10, 71386, Note_off_c, 8, 66, 64
10, 71386, Note_off_c, 8, 80, 64
10, 71806, Note_on_c, 8, 92, 75
10, 71806, Note_on_c, 8, 80, 75
10, 71892, Note_off_c, 8, 80, 64
10, 71892, Note_off_c, 8, 92, 64
10, 71894, Note_on_c, 8, 90, 71
10, 71894, Note_on_c, 8, 76, 71
10, 71983, Note_off_c, 8, 76, 64
10, 71983, Note_off_c, 8, 90, 64
10, 71986, Note_on_c, 8, 87, 84
10, 71986, Note_on_c, 8, 75, 84
10, 72066, Note_off_c, 8, 75, 64
10, 72066, Note_off_c, 8, 87, 64
10, 72094, Note_on_c, 8, 83, 75
10, 72094, Note_on_c, 8, 72, 75
10, 72754, Note_off_c, 8, 72, 64
10, 72754, Note_off_c, 8, 83, 64
10, 72760, Note_on_c, 8, 85, 71
10, 72760, Note_on_c, 8, 73, 71
10, 73320, Note_off_c, 8, 73, 64
10, 73320, Note_off_c, 8, 85, 64
10, 73323, Note_on_c, 8, 80, 55
10, 73323, Note_on_c, 8, 66, 56
10, 73712, Note_off_c, 8, 66, 64
10, 73712, Note_off_c, 8, 80, 64
10, 73720, Note_on_c, 8, 85, 68
10, 73720, Note_on_c, 8, 73, 68
10, 74300, Note_off_c, 8, 73, 64
10, 74300, Note_off_c, 8, 85, 64
10, 74303, Note_on_c, 8, 87, 75
10, 74303, Note_on_c, 8, 75, 75
10, 74846, Note_off_c, 8, 75, 64
10, 74846, Note_off_c, 8, 87, 64
10, 74894, Note_on_c, 8, 92, 68
10, 74894, Note_on_c, 8, 80, 68
10, 74972, Note_off_c, 8, 80, 64
10, 74972, Note_off_c, 8, 92, 64
10, 74974, Note_on_c, 8, 90, 62
10, 74974, Note_on_c, 8, 76, 62
10, 75054, Note_off_c, 8, 76, 64
10, 75054, Note_off_c, 8, 90, 64
10, 75063, Note_on_c, 8, 87, 68
10, 75063, Note_on_c, 8, 75, 68
10, 75134, Note_off_c, 8, 75, 64
10, 75134, Note_off_c, 8, 87, 64
10, 75172, Note_on_c, 8, 83, 62
10, 75172, Note_on_c, 8, 72, 62
10, 75810, Note_off_c, 8, 72, 64
10, 75810, Note_off_c, 8, 83, 64
10, 75812, Note_on_c, 8, 85, 71
10, 75812, Note_on_c, 8, 73, 71
10, 76392, Note_off_c, 8, 73, 64
10, 76392, Note_off_c, 8, 85, 64
10, 76394, Note_on_c, 8, 80, 43
10, 76394, Note_on_c, 8, 66, 44
10, 77826, Note_off_c, 8, 66, 64
10, 77826, Note_off_c, 8, 80, 64
10, 78346, Note_on_c, 8, 83, 68
10, 78346, Note_on_c, 8, 72, 68
10, 78894, Note_off_c, 8, 72, 64
10, 78894, Note_off_c, 8, 83, 64
10, 78900, Note_on_c, 8, 85, 68
10, 78900, Note_on_c, 8, 73, 68
10, 79463, Note_off_c, 8, 73, 64
10, 79463, Note_off_c, 8, 85, 64
10, 79466, Note_on_c, 8, 80, 55
10, 79466, Note_on_c, 8, 66, 57
10, 79832, Note_off_c, 8, 66, 64
10, 79832, Note_off_c, 8, 80, 64
10, 79834, Note_on_c, 8, 85, 68
10, 79834, Note_on_c, 8, 73, 68
10, 80446, Note_off_c, 8, 73, 64
10, 80446, Note_off_c, 8, 85, 64
10, 80452, Note_on_c, 8, 87, 84
10, 80452, Note_on_c, 8, 75, 84
10, 80932, Note_off_c, 8, 75, 64
10, 80932, Note_off_c, 8, 87, 64
10, 81003, Note_on_c, 8, 92, 71
10, 81003, Note_on_c, 8, 80, 71
10, 81086, Note_off_c, 8, 80, 64
10, 81086, Note_off_c, 8, 92, 64
10, 81092, Note_on_c, 8, 90, 71
10, 81092, Note_on_c, 8, 76, 71
10, 81172, Note_off_c, 8, 76, 64
10, 81172, Note_off_c, 8, 90, 64
10, 81180, Note_on_c, 8, 87, 78
10, 81180, Note_on_c, 8, 75, 78
10, 81246, Note_off_c, 8, 75, 64
10, 81246, Note_off_c, 8, 87, 64
10, 81286, Note_on_c, 8, 83, 75
10, 81286, Note_on_c, 8, 72, 75
10, 81972, Note_off_c, 8, 72, 64
10, 81972, Note_off_c, 8, 83, 64
10, 81974, Note_on_c, 8, 85, 71
10, 81974, Note_on_c, 8, 73, 71
10, 82552, Note_off_c, 8, 73, 64
10, 82552, Note_off_c, 8, 85, 64
10, 82554, Note_on_c, 8, 80, 45
10, 82554, Note_on_c, 8, 66, 44
10, 83674, Note_off_c, 8, 66, 64
10, 83674, Note_off_c, 8, 80, 64
10, 84094, Note_on_c, 8, 92, 75
10, 84094, Note_on_c, 8, 80, 75
10, 84180, Note_off_c, 8, 80, 64
10, 84180, Note_off_c, 8, 92, 64
10, 84183, Note_on_c, 8, 90, 71
10, 84183, Note_on_c, 8, 76, 71
10, 84272, Note_off_c, 8, 76, 64
10, 84272, Note_off_c, 8, 90, 64
10, 84274, Note_on_c, 8, 87, 84
10, 84274, Note_on_c, 8, 75, 84
10, 84354, Note_off_c, 8, 75, 64
10, 84354, Note_off_c, 8, 87, 64
10, 84383, Note_on_c, 8, 83, 75
10, 84383, Note_on_c, 8, 72, 75
10, 85043, Note_off_c, 8, 72, 64
10, 85043, Note_off_c, 8, 83, 64
10, 85046, Note_on_c, 8, 85, 71
10, 85046, Note_on_c, 8, 73, 71
10, 85606, Note_off_c, 8, 73, 64
10, 85606, Note_off_c, 8, 85, 64
10, 85610, Note_on_c, 8, 80, 55
10, 85610, Note_on_c, 8, 66, 56
10, 86003, Note_off_c, 8, 66, 64
10, 86003, Note_off_c, 8, 80, 64
10, 86006, Note_on_c, 8, 85, 68
10, 86006, Note_on_c, 8, 73, 68
10, 86586, Note_off_c, 8, 73, 64
10, 86586, Note_off_c, 8, 85, 64
10, 86592, Note_on_c, 8, 87, 75
10, 86592, Note_on_c, 8, 75, 75
10, 87134, Note_off_c, 8, 75, 64
10, 87134, Note_off_c, 8, 87, 64
10, 87183, Note_on_c, 8, 92, 68
10, 87183, Note_on_c, 8, 80, 68
10, 87260, Note_off_c, 8, 80, 64
10, 87260, Note_off_c, 8, 92, 64
10, 87263, Note_on_c, 8, 90, 62
10, 87263, Note_on_c, 8, 76, 62
10, 87343, Note_off_c, 8, 76, 64
10, 87343, Note_off_c, 8, 90, 64
10, 87352, Note_on_c, 8, 87, 68
10, 87352, Note_on_c, 8, 75, 68
10, 87423, Note_off_c, 8, 75, 64
10, 87423, Note_off_c, 8, 87, 64
10, 87460, Note_on_c, 8, 83, 62
10, 87460, Note_on_c, 8, 72, 62
10, 88100, Note_off_c, 8, 72, 64
10, 88100, Note_off_c, 8, 83, 64
10, 88103, Note_on_c, 8, 85, 71
10, 88103, Note_on_c, 8, 73, 71
10, 88680, Note_off_c, 8, 73, 64
10, 88680, Note_off_c, 8, 85, 64
10, 88683, Note_on_c, 8, 80, 43
10, 88683, Note_on_c, 8, 66, 44
10, 90112, Note_off_c, 8, 66, 64
10, 90112, Note_off_c, 8, 80, 64
10, 115206, Note_on_c, 8, 83, 50
10, 115206, Note_on_c, 8, 72, 48
10, 116523, Note_on_c, 8, 85, 52
10, 116534, Note_on_c, 8, 73, 44
10, 116543, Note_off_c, 8, 72, 64
10, 116543, Note_off_c, 8, 83, 64
10, 117483, Note_on_c, 8, 87, 65
10, 117486, Note_off_c, 8, 85, 64
10, 117492, Note_on_c, 8, 75, 61
10, 117494, Note_off_c, 8, 73, 64
10, 118266, Note_on_c, 8, 82, 50
10, 118266, Note_on_c, 8, 70, 48
10, 118272, Note_off_c, 8, 75, 64
10, 118272, Note_off_c, 8, 87, 64
10, 119634, Note_off_c, 8, 82, 64
10, 119643, Note_off_c, 8, 70, 64
10, 121354, Note_on_c, 8, 83, 68
10, 121354, Note_on_c, 8, 72, 68
10, 121903, Note_off_c, 8, 72, 64
10, 121903, Note_off_c, 8, 83, 64
10, 121906, Note_on_c, 8, 85, 68
10, 121906, Note_on_c, 8, 73, 68
10, 122472, Note_off_c, 8, 73, 64
10, 122472, Note_off_c, 8, 85, 64
10, 122474, Note_on_c, 8, 80, 55
10, 122474, Note_on_c, 8, 66, 57
10, 122840, Note_off_c, 8, 66, 64
10, 122840, Note_off_c, 8, 80, 64
10, 122843, Note_on_c, 8, 85, 68
10, 122843, Note_on_c, 8, 73, 68
10, 123454, Note_off_c, 8, 73, 64
10, 123454, Note_off_c, 8, 85, 64
10, 123460, Note_on_c, 8, 87, 84
10, 123460, Note_on_c, 8, 75, 84
10, 123940, Note_off_c, 8, 75, 64
10, 123940, Note_off_c, 8, 87, 64
10, 124010, Note_on_c, 8, 92, 71
10, 124010, Note_on_c, 8, 80, 71
10, 124094, Note_off_c, 8, 80, 64
10, 124094, Note_off_c, 8, 92, 64
10, 124100, Note_on_c, 8, 90, 71
10, 124100, Note_on_c, 8, 76, 71
10, 124180, Note_off_c, 8, 76, 64
10, 124180, Note_off_c, 8, 90, 64
10, 124186, Note_on_c, 8, 87, 78
10, 124186, Note_on_c, 8, 75, 78
10, 124254, Note_off_c, 8, 75, 64
10, 124254, Note_off_c, 8, 87, 64
10, 124294, Note_on_c, 8, 83, 75
10, 124294, Note_on_c, 8, 72, 75
10, 124980, Note_off_c, 8, 72, 64
10, 124980, Note_off_c, 8, 83, 64
10, 124983, Note_on_c, 8, 85, 71
10, 124983, Note_on_c, 8, 73, 71
10, 125560, Note_off_c, 8, 73, 64
10, 125560, Note_off_c, 8, 85, 64
10, 125563, Note_on_c, 8, 80, 45
10, 125563, Note_on_c, 8, 66, 44
10, 126683, Note_off_c, 8, 66, 64
10, 126683, Note_off_c, 8, 80, 64
10, 127103, Note_on_c, 8, 92, 75
10, 127103, Note_on_c, 8, 80, 75
10, 127186, Note_off_c, 8, 80, 64
10, 127186, Note_off_c, 8, 92, 64
10, 127192, Note_on_c, 8, 90, 71
10, 127192, Note_on_c, 8, 76, 71
10, 127280, Note_off_c, 8, 76, 64
10, 127280, Note_off_c, 8, 90, 64
10, 127283, Note_on_c, 8, 87, 84
10, 127283, Note_on_c, 8, 75, 84
10, 127363, Note_off_c, 8, 75, 64
10, 127363, Note_off_c, 8, 87, 64
10, 127392, Note_on_c, 8, 83, 75
10, 127392, Note_on_c, 8, 72, 75
10, 128052, Note_off_c, 8, 72, 64
10, 128052, Note_off_c, 8, 83, 64
10, 128054, Note_on_c, 8, 85, 71
10, 128054, Note_on_c, 8, 73, 71
10, 128612, Note_off_c, 8, 73, 64
10, 128612, Note_off_c, 8, 85, 64
10, 128620, Note_on_c, 8, 80, 55
10, 128620, Note_on_c, 8, 66, 56
10, 129010, Note_off_c, 8, 66, 64
10, 129010, Note_off_c, 8, 80, 64
10, 129012, Note_on_c, 8, 85, 68
10, 129012, Note_on_c, 8, 73, 68
10, 129594, Note_off_c, 8, 73, 64
10, 129594, Note_off_c, 8, 85, 64
10, 129600, Note_on_c, 8, 87, 75
10, 129600, Note_on_c, 8, 75, 75
10, 130143, Note_off_c, 8, 75, 64
10, 130143, Note_off_c, 8, 87, 64
10, 130192, Note_on_c, 8, 92, 68
10, 130192, Note_on_c, 8, 80, 68
10, 130266, Note_off_c, 8, 80, 64
10, 130266, Note_off_c, 8, 92, 64
10, 130272, Note_on_c, 8, 90, 62
10, 130272, Note_on_c, 8, 76, 62
10, 130352, Note_off_c, 8, 76, 64
10, 130352, Note_off_c, 8, 90, 64
10, 130360, Note_on_c, 8, 87, 68
10, 130360, Note_on_c, 8, 75, 68
10, 130432, Note_off_c, 8, 75, 64
10, 130432, Note_off_c, 8, 87, 64
10, 130466, Note_on_c, 8, 83, 62
10, 130466, Note_on_c, 8, 72, 62
10, 131106, Note_off_c, 8, 72, 64
10, 131106, Note_off_c, 8, 83, 64
10, 131110, Note_on_c, 8, 85, 71
10, 131110, Note_on_c, 8, 73, 71
10, 131686, Note_off_c, 8, 73, 64
10, 131686, Note_off_c, 8, 85, 64
10, 131692, Note_on_c, 8, 80, 43
10, 131692, Note_on_c, 8, 66, 44
10, 133123, Note_off_c, 8, 66, 64
10, 133123, Note_off_c, 8, 80, 64
10, 133643, Note_on_c, 8, 83, 68
10, 133643, Note_on_c, 8, 72, 68
10, 134192, Note_off_c, 8, 72, 64
10, 134192, Note_off_c, 8, 83, 64
10, 134194, Note_on_c, 8, 85, 68
10, 134194, Note_on_c, 8, 73, 68
10, 134760, Note_off_c, 8, 73, 64
10, 134760, Note_off_c, 8, 85, 64
10, 134763, Note_on_c, 8, 80, 55
10, 134763, Note_on_c, 8, 66, 57
10, 135126, Note_off_c, 8, 66, 64
10, 135126, Note_off_c, 8, 80, 64
10, 135132, Note_on_c, 8, 85, 68
10, 135132, Note_on_c, 8, 73, 68
10, 135743, Note_off_c, 8, 73, 64
10, 135743, Note_off_c, 8, 85, 64
10, 135746, Note_on_c, 8, 87, 84
10, 135746, Note_on_c, 8, 75, 84
10, 136226, Note_off_c, 8, 75, 64
10, 136226, Note_off_c, 8, 87, 64
10, 136300, Note_on_c, 8, 92, 71
10, 136300, Note_on_c, 8, 80, 71
10, 136383, Note_off_c, 8, 80, 64
10, 136383, Note_off_c, 8, 92, 64
10, 136386, Note_on_c, 8, 90, 71
10, 136386, Note_on_c, 8, 76, 71
10, 136466, Note_off_c, 8, 76, 64
10, 136466, Note_off_c, 8, 90, 64
10, 136474, Note_on_c, 8, 87, 78
10, 136474, Note_on_c, 8, 75, 78
10, 136543, Note_off_c, 8, 75, 64
10, 136543, Note_off_c, 8, 87, 64
10, 136583, Note_on_c, 8, 83, 75
10, 136583, Note_on_c, 8, 72, 75
10, 137266, Note_off_c, 8, 72, 64
10, 137266, Note_off_c, 8, 83, 64
10, 137272, Note_on_c, 8, 85, 71
10, 137272, Note_on_c, 8, 73, 71
10, 137846, Note_off_c, 8, 73, 64
10, 137846, Note_off_c, 8, 85, 64
10, 137852, Note_on_c, 8, 80, 45
10, 137852, Note_on_c, 8, 66, 44
10, 138972, Note_off_c, 8, 66, 64
10, 138972, Note_off_c, 8, 80, 64
10, 139392, Note_on_c, 8, 92, 75
10, 139392, Note_on_c, 8, 80, 75
10, 139474, Note_off_c, 8, 80, 64
10, 139474, Note_off_c, 8, 92, 64
10, 139480, Note_on_c, 8, 90, 71
10, 139480, Note_on_c, 8, 76, 71
10, 139566, Note_off_c, 8, 76, 64
10, 139566, Note_off_c, 8, 90, 64
10, 139572, Note_on_c, 8, 87, 84
10, 139572, Note_on_c, 8, 75, 84
10, 139652, Note_off_c, 8, 75, 64
10, 139652, Note_off_c, 8, 87, 64
10, 139680, Note_on_c, 8, 83, 75
10, 139680, Note_on_c, 8, 72, 75
10, 140340, Note_off_c, 8, 72, 64
10, 140340, Note_off_c, 8, 83, 64
10, 140343, Note_on_c, 8, 85, 71
10, 140343, Note_on_c, 8, 73, 71
10, 140903, Note_off_c, 8, 73, 64
10, 140903, Note_off_c, 8, 85, 64
10, 140906, Note_on_c, 8, 80, 55
10, 140906, Note_on_c, 8, 66, 56
10, 141300, Note_off_c, 8, 66, 64
10, 141300, Note_off_c, 8, 80, 64
10, 141303, Note_on_c, 8, 85, 68
10, 141303, Note_on_c, 8, 73, 68
10, 141883, Note_off_c, 8, 73, 64
10, 141883, Note_off_c, 8, 85, 64
10, 141886, Note_on_c, 8, 87, 75
10, 141886, Note_on_c, 8, 75, 75
10, 142432, Note_off_c, 8, 75, 64
10, 142432, Note_off_c, 8, 87, 64
10, 142480, Note_on_c, 8, 92, 68
10, 142480, Note_on_c, 8, 80, 68
10, 142554, Note_off_c, 8, 80, 64
10, 142554, Note_off_c, 8, 92, 64
10, 142560, Note_on_c, 8, 90, 62
10, 142560, Note_on_c, 8, 76, 62
10, 142640, Note_off_c, 8, 76, 64
10, 142640, Note_off_c, 8, 90, 64
10, 142646, Note_on_c, 8, 87, 68
10, 142646, Note_on_c, 8, 75, 68
10, 142720, Note_off_c, 8, 75, 64
10, 142720, Note_off_c, 8, 87, 64
10, 142754, Note_on_c, 8, 83, 62
10, 142754, Note_on_c, 8, 72, 62
10, 143394, Note_off_c, 8, 72, 64
10, 143394, Note_off_c, 8, 83, 64
10, 143400, Note_on_c, 8, 85, 71
10, 143400, Note_on_c, 8, 73, 71
10, 143974, Note_off_c, 8, 73, 64
10, 143974, Note_off_c, 8, 85, 64
10, 143980, Note_on_c, 8, 80, 43
10, 143980, Note_on_c, 8, 66, 44
10, 145410, Note_off_c, 8, 66, 64
10, 145410, Note_off_c, 8, 80, 64
10, 145932, Note_on_c, 8, 83, 68
10, 145932, Note_on_c, 8, 72, 68
10, 146480, Note_off_c, 8, 72, 64
10, 146480, Note_off_c, 8, 83, 64
10, 146483, Note_on_c, 8, 85, 64
10, 146483, Note_on_c, 8, 73, 64
10, 147046, Note_off_c, 8, 73, 64
10, 147046, Note_off_c, 8, 85, 64
10, 147052, Note_on_c, 8, 80, 48
10, 147052, Note_on_c, 8, 66, 50
10, 147412, Note_off_c, 8, 66, 64
10, 147412, Note_off_c, 8, 80, 64
10, 147420, Note_on_c, 8, 85, 57
10, 147420, Note_on_c, 8, 73, 57
10, 148032, Note_off_c, 8, 73, 64
10, 148032, Note_off_c, 8, 85, 64
10, 148034, Note_on_c, 8, 87, 65
10, 148034, Note_on_c, 8, 75, 65
10, 148512, Note_off_c, 8, 75, 64
10, 148512, Note_off_c, 8, 87, 64
10, 148586, Note_on_c, 8, 92, 50
10, 148586, Note_on_c, 8, 80, 50
10, 148672, Note_off_c, 8, 80, 64
10, 148672, Note_off_c, 8, 92, 64
10, 148674, Note_on_c, 8, 90, 49
10, 148674, Note_on_c, 8, 76, 49
10, 148754, Note_off_c, 8, 76, 64
10, 148754, Note_off_c, 8, 90, 64
10, 148763, Note_on_c, 8, 87, 53
10, 148763, Note_on_c, 8, 75, 53
10, 148832, Note_off_c, 8, 75, 64
10, 148832, Note_off_c, 8, 87, 64
10, 148872, Note_on_c, 8, 83, 50
10, 148872, Note_on_c, 8, 72, 50
10, 149554, Note_off_c, 8, 72, 64
10, 149554, Note_off_c, 8, 83, 64
10, 149560, Note_on_c, 8, 85, 41
10, 149560, Note_on_c, 8, 73, 41
10, 150134, Note_off_c, 8, 73, 64
10, 150134, Note_off_c, 8, 85, 64
10, 150140, Note_on_c, 8, 80, 20
10, 150140, Note_on_c, 8, 66, 19
10, 151260, Note_off_c, 8, 66, 64
10, 151260, Note_off_c, 8, 80, 64
10, 151680, Note_on_c, 8, 92, 25
10, 151680, Note_on_c, 8, 80, 25
10, 151763, Note_off_c, 8, 80, 64
10, 151763, Note_off_c, 8, 92, 64
10, 151766, Note_on_c, 8, 90, 22
10, 151766, Note_on_c, 8, 76, 22
10, 151854, Note_off_c, 8, 76, 64
10, 151854, Note_off_c, 8, 90, 64
10, 151860, Note_on_c, 8, 87, 27
10, 151860, Note_on_c, 8, 75, 27
10, 151940, Note_off_c, 8, 75, 64
10, 151940, Note_off_c, 8, 87, 64
10, 151966, Note_on_c, 8, 83, 22
10, 151966, Note_on_c, 8, 72, 22
10, 152626, Note_off_c, 8, 72, 64
10, 152626, Note_off_c, 8, 83, 64
10, 152632, Note_on_c, 8, 85, 15
10, 152632, Note_on_c, 8, 73, 15
10, 153192, Note_off_c, 8, 73, 64
10, 153192, Note_off_c, 8, 85, 64
10, 153194, Note_on_c, 8, 80, 5
10, 153194, Note_on_c, 8, 66, 5
10, 153586, Note_off_c, 8, 66, 64
10, 153586, Note_off_c, 8, 80, 64
10, 153592, Note_on_c, 8, 85, 6
10, 153592, Note_on_c, 8, 73, 6
10, 154172, Note_off_c, 8, 73, 64
10, 154172, Note_off_c, 8, 85, 64
10, 154174, Note_on_c, 8, 87, 3
10, 154174, Note_on_c, 8, 75, 3
10, 154720, Note_off_c, 8, 75, 64
10, 154720, Note_off_c, 8, 87, 64
10, 154766, Note_on_c, 8, 92, 1
10, 154766, Note_on_c, 8, 80, 1
10, 154843, Note_off_c, 8, 80, 64
10, 154843, Note_off_c, 8, 92, 64
10, 154846, Note_on_c, 8, 90, 1
10, 154846, Note_on_c, 8, 76, 1
10, 154926, Note_off_c, 8, 76, 64
10, 154926, Note_off_c, 8, 90, 64
10, 154934, Note_on_c, 8, 87, 1
10, 154934, Note_on_c, 8, 75, 1
10, 155006, Note_off_c, 8, 75, 64
10, 155006, Note_off_c, 8, 87, 64
10, 155043, Note_on_c, 8, 83, 1
10, 155043, Note_on_c, 8, 72, 1
10, 155683, Note_off_c, 8, 72, 64
10, 155683, Note_off_c, 8, 83, 64
10, 155686, Note_on_c, 8, 85, 1
10, 155686, Note_on_c, 8, 73, 1
10, 156280, Note_off_c, 8, 73, 64
10, 156280, Note_off_c, 8, 85, 64
10, 158206, End_track
10, 0, Start_track
10, 0, Title_t, "TRUMPET"
10, 2146, Program_c, 9, 56
10, 2152, Control_c, 9, 5, 75
10, 2152, Control_c, 9, 8, 40
10, 2152, Control_c, 9, 9, 127
10, 2154, Control_c, 9, 91, 66
10, 2154, Control_c, 9, 92, 0
10, 10180, Note_on_c, 9, 80, 104
10, 10180, Note_on_c, 9, 66, 84
10, 10183, Control_c, 9, 1, 0
10, 10183, Pitch_bend_c, 9, 8192
10, 10232, Note_off_c, 9, 80, 64
10, 10234, Note_off_c, 9, 66, 64
10, 10274, Note_on_c, 9, 80, 104
10, 10274, Note_on_c, 9, 66, 84
10, 10332, Note_off_c, 9, 80, 64
10, 10340, Note_off_c, 9, 66, 64
10, 10372, Note_on_c, 9, 82, 104
10, 10372, Note_on_c, 9, 70, 84
10, 10412, Note_off_c, 9, 82, 64
10, 10420, Note_off_c, 9, 70, 64
10, 10466, Note_on_c, 9, 83, 95
10, 10466, Note_on_c, 9, 72, 71
10, 10523, Note_off_c, 9, 83, 64
10, 10532, Note_off_c, 9, 72, 64
10, 10554, Note_on_c, 9, 82, 109
10, 10560, Note_on_c, 9, 70, 84
10, 10603, Note_off_c, 9, 82, 64
10, 10612, Note_off_c, 9, 70, 64
10, 10654, Note_on_c, 9, 83, 104
10, 10660, Note_on_c, 9, 72, 84
10, 10734, Note_off_c, 9, 83, 64
10, 10763, Note_off_c, 9, 72, 64
10, 16126, Note_on_c, 9, 83, 95
10, 16126, Note_on_c, 9, 80, 104
10, 16126, Note_on_c, 9, 72, 95
10, 16160, Note_off_c, 9, 72, 64
10, 16163, Note_off_c, 9, 80, 64
10, 16172, Note_off_c, 9, 83, 64
10, 16220, Note_on_c, 9, 83, 95
10, 16223, Note_on_c, 9, 80, 95
10, 16223, Note_on_c, 9, 72, 82
10, 16254, Note_off_c, 9, 72, 64
10, 16260, Note_off_c, 9, 80, 64
10, 16274, Note_off_c, 9, 83, 64
10, 16420, Note_on_c, 9, 72, 56
10, 16420, Note_on_c, 9, 80, 56
10, 16420, Note_on_c, 9, 83, 56
10, 16454, Note_off_c, 9, 72, 64
10, 16463, Note_off_c, 9, 80, 64
10, 16466, Note_off_c, 9, 83, 64
10, 16510, Note_on_c, 9, 83, 104
10, 16510, Note_on_c, 9, 80, 104
10, 16510, Note_on_c, 9, 72, 109
10, 16546, Note_off_c, 9, 72, 64
10, 16552, Note_off_c, 9, 80, 64
10, 16560, Note_off_c, 9, 83, 64
10, 16603, Note_on_c, 9, 83, 95
10, 16610, Note_on_c, 9, 72, 91
10, 16610, Note_on_c, 9, 80, 104
10, 16643, Note_off_c, 9, 80, 64
10, 16643, Note_off_c, 9, 72, 64
10, 16654, Note_off_c, 9, 83, 64
10, 16706, Note_on_c, 9, 72, 53
10, 16706, Note_on_c, 9, 83, 53
10, 16706, Note_on_c, 9, 80, 53
10, 16740, Note_off_c, 9, 80, 64
10, 16752, Note_off_c, 9, 72, 64
10, 16754, Note_off_c, 9, 83, 64
10, 16800, Note_on_c, 9, 83, 109
10, 16800, Note_on_c, 9, 80, 114
10, 16803, Note_on_c, 9, 72, 109
10, 16840, Note_off_c, 9, 72, 64
10, 16843, Note_off_c, 9, 80, 64
10, 16863, Note_off_c, 9, 83, 64
10, 26110, Note_on_c, 9, 80, 95
10, 26110, Note_on_c, 9, 66, 91
10, 27834, Note_on_c, 9, 75, 109
10, 27843, Note_on_c, 9, 63, 98
10, 27852, Note_off_c, 9, 66, 64
10, 27860, Note_off_c, 9, 80, 64
10, 28232, Note_on_c, 9, 73, 91
10, 28240, Note_off_c, 9, 75, 64
10, 28243, Note_on_c, 9, 62, 91
10, 28246, Note_off_c, 9, 63, 64
10, 28603, Note_on_c, 9, 72, 95
10, 28606, Note_on_c, 9, 61, 91
10, 28623, Note_off_c, 9, 73, 64
10, 28626, Note_off_c, 9, 62, 64
10, 29003, Note_on_c, 9, 70, 104
10, 29010, Note_off_c, 9, 72, 64
10, 29010, Note_on_c, 9, 56, 91
10, 29012, Note_off_c, 9, 61, 64
10, 30574, Note_off_c, 9, 70, 64
10, 30586, Note_off_c, 9, 56, 64
10, 34754, Note_on_c, 9, 80, 104
10, 34754, Note_on_c, 9, 66, 84
10, 34806, Note_off_c, 9, 80, 64
10, 34810, Note_off_c, 9, 66, 64
10, 34852, Note_on_c, 9, 80, 104
10, 34852, Note_on_c, 9, 66, 84
10, 34906, Note_off_c, 9, 80, 64
10, 34912, Note_off_c, 9, 66, 64
10, 34946, Note_on_c, 9, 82, 104
10, 34946, Note_on_c, 9, 70, 84
10, 34992, Note_off_c, 9, 82, 64
10, 34994, Note_off_c, 9, 70, 64
10, 35043, Note_on_c, 9, 83, 95
10, 35043, Note_on_c, 9, 72, 71
10, 35100, Note_off_c, 9, 83, 64
10, 35106, Note_off_c, 9, 72, 64
10, 35132, Note_on_c, 9, 82, 109
10, 35134, Note_on_c, 9, 70, 84
10, 35180, Note_off_c, 9, 82, 64
10, 35192, Note_off_c, 9, 70, 64
10, 35232, Note_on_c, 9, 83, 104
10, 35234, Note_on_c, 9, 72, 84
10, 35310, Note_off_c, 9, 83, 64
10, 35340, Note_off_c, 9, 72, 64
10, 40900, Note_on_c, 9, 80, 104
10, 40900, Note_on_c, 9, 66, 84
10, 40952, Note_off_c, 9, 80, 64
10, 40954, Note_off_c, 9, 66, 64
10, 40994, Note_on_c, 9, 80, 104
10, 40994, Note_on_c, 9, 66, 84
10, 41052, Note_off_c, 9, 80, 64
10, 41060, Note_off_c, 9, 66, 64
10, 41092, Note_on_c, 9, 82, 104
10, 41092, Note_on_c, 9, 70, 84
10, 41134, Note_off_c, 9, 82, 64
10, 41140, Note_off_c, 9, 70, 64
10, 41186, Note_on_c, 9, 83, 95
10, 41186, Note_on_c, 9, 72, 71
10, 41243, Note_off_c, 9, 83, 64
10, 41252, Note_off_c, 9, 72, 64
10, 41274, Note_on_c, 9, 82, 109
10, 41280, Note_on_c, 9, 70, 84
10, 41323, Note_off_c, 9, 82, 64
10, 41334, Note_off_c, 9, 70, 64
10, 41374, Note_on_c, 9, 83, 104
10, 41380, Note_on_c, 9, 72, 84
10, 41454, Note_off_c, 9, 83, 64
10, 41483, Note_off_c, 9, 72, 64
10, 46846, Note_on_c, 9, 83, 95
10, 46846, Note_on_c, 9, 80, 104
10, 46846, Note_on_c, 9, 72, 95
10, 46880, Note_off_c, 9, 72, 64
10, 46883, Note_off_c, 9, 80, 64
10, 46892, Note_off_c, 9, 83, 64
10, 46940, Note_on_c, 9, 83, 95
10, 46943, Note_on_c, 9, 80, 95
10, 46943, Note_on_c, 9, 72, 82
10, 46974, Note_off_c, 9, 72, 64
10, 46980, Note_off_c, 9, 80, 64
10, 46994, Note_off_c, 9, 83, 64
10, 47140, Note_on_c, 9, 72, 56
10, 47140, Note_on_c, 9, 80, 56
10, 47140, Note_on_c, 9, 83, 56
10, 47174, Note_off_c, 9, 72, 64
10, 47183, Note_off_c, 9, 80, 64
10, 47186, Note_off_c, 9, 83, 64
10, 47232, Note_on_c, 9, 83, 104
10, 47232, Note_on_c, 9, 80, 104
10, 47232, Note_on_c, 9, 72, 109
10, 47266, Note_off_c, 9, 72, 64
10, 47272, Note_off_c, 9, 80, 64
10, 47280, Note_off_c, 9, 83, 64
10, 47323, Note_on_c, 9, 83, 95
10, 47332, Note_on_c, 9, 72, 91
10, 47332, Note_on_c, 9, 80, 104
10, 47363, Note_off_c, 9, 80, 64
10, 47363, Note_off_c, 9, 72, 64
10, 47374, Note_off_c, 9, 83, 64
10, 47426, Note_on_c, 9, 72, 53
10, 47426, Note_on_c, 9, 83, 53
10, 47426, Note_on_c, 9, 80, 53
10, 47460, Note_off_c, 9, 80, 64
10, 47472, Note_off_c, 9, 72, 64
10, 47474, Note_off_c, 9, 83, 64
10, 47520, Note_on_c, 9, 83, 109
10, 47520, Note_on_c, 9, 80, 114
10, 47523, Note_on_c, 9, 72, 109
10, 47560, Note_off_c, 9, 72, 64
10, 47563, Note_off_c, 9, 80, 64
10, 47583, Note_off_c, 9, 83, 64
10, 47810, Note_on_c, 9, 83, 83
10, 47810, Note_on_c, 9, 80, 83
10, 47810, Note_on_c, 9, 72, 83
10, 47854, Note_off_c, 9, 72, 64
10, 47854, Note_off_c, 9, 80, 64
10, 47863, Note_off_c, 9, 83, 64
10, 56840, Note_on_c, 9, 80, 109
10, 56846, Note_on_c, 9, 66, 88
10, 58526, Note_off_c, 9, 80, 64
10, 58534, Note_off_c, 9, 66, 64
10, 58574, Note_on_c, 9, 75, 109
10, 58583, Note_on_c, 9, 63, 104
10, 58923, Note_off_c, 9, 63, 64
10, 58940, Note_off_c, 9, 75, 64
10, 58963, Note_on_c, 9, 73, 95
10, 58972, Note_on_c, 9, 62, 95
10, 59306, Note_off_c, 9, 62, 64
10, 59326, Note_off_c, 9, 73, 64
10, 59346, Note_on_c, 9, 72, 104
10, 59363, Note_on_c, 9, 61, 95
10, 59732, Note_on_c, 9, 70, 109
10, 59734, Note_off_c, 9, 72, 64
10, 59743, Note_off_c, 9, 61, 64
10, 59743, Note_on_c, 9, 56, 104
10, 61274, Note_off_c, 9, 70, 64
10, 61286, Note_off_c, 9, 56, 64
10, 65474, Note_on_c, 9, 80, 104
10, 65474, Note_on_c, 9, 66, 84
10, 65526, Note_off_c, 9, 80, 64
10, 65532, Note_off_c, 9, 66, 64
10, 65572, Note_on_c, 9, 80, 104
10, 65572, Note_on_c, 9, 66, 84
10, 65626, Note_off_c, 9, 80, 64
10, 65634, Note_off_c, 9, 66, 64
10, 65666, Note_on_c, 9, 82, 104
10, 65666, Note_on_c, 9, 70, 84
10, 65710, Note_off_c, 9, 82, 64
10, 65712, Note_off_c, 9, 70, 64
10, 65763, Note_on_c, 9, 83, 95
10, 65763, Note_on_c, 9, 72, 71
10, 65820, Note_off_c, 9, 83, 64
10, 65826, Note_off_c, 9, 72, 64
10, 65852, Note_on_c, 9, 82, 109
10, 65854, Note_on_c, 9, 70, 84
10, 65900, Note_off_c, 9, 82, 64
10, 65910, Note_off_c, 9, 70, 64
10, 65952, Note_on_c, 9, 83, 104
10, 65954, Note_on_c, 9, 72, 84
10, 66032, Note_off_c, 9, 83, 64
10, 66060, Note_off_c, 9, 72, 64
10, 71620, Note_on_c, 9, 80, 104
10, 71620, Note_on_c, 9, 66, 84
10, 71672, Note_off_c, 9, 80, 64
10, 71674, Note_off_c, 9, 66, 64
10, 71712, Note_on_c, 9, 80, 104
10, 71712, Note_on_c, 9, 66, 84
10, 71772, Note_off_c, 9, 80, 64
10, 71780, Note_off_c, 9, 66, 64
10, 71810, Note_on_c, 9, 82, 104
10, 71810, Note_on_c, 9, 70, 84
10, 71854, Note_off_c, 9, 82, 64
10, 71860, Note_off_c, 9, 70, 64
10, 71906, Note_on_c, 9, 83, 95
10, 71906, Note_on_c, 9, 72, 71
10, 71963, Note_off_c, 9, 83, 64
10, 71972, Note_off_c, 9, 72, 64
10, 71994, Note_on_c, 9, 82, 109
10, 72000, Note_on_c, 9, 70, 84
10, 72043, Note_off_c, 9, 82, 64
10, 72054, Note_off_c, 9, 70, 64
10, 72094, Note_on_c, 9, 83, 104
10, 72100, Note_on_c, 9, 72, 84
10, 72174, Note_off_c, 9, 83, 64
10, 72203, Note_off_c, 9, 72, 64
10, 77566, Note_on_c, 9, 83, 95
10, 77566, Note_on_c, 9, 80, 104
10, 77566, Note_on_c, 9, 72, 95
10, 77600, Note_off_c, 9, 72, 64
10, 77603, Note_off_c, 9, 80, 64
10, 77610, Note_off_c, 9, 83, 64
10, 77660, Note_on_c, 9, 83, 95
10, 77663, Note_on_c, 9, 80, 95
10, 77663, Note_on_c, 9, 72, 82
10, 77694, Note_off_c, 9, 72, 64
10, 77700, Note_off_c, 9, 80, 64
10, 77712, Note_off_c, 9, 83, 64
10, 77860, Note_on_c, 9, 72, 56
10, 77860, Note_on_c, 9, 80, 56
10, 77860, Note_on_c, 9, 83, 56
10, 77894, Note_off_c, 9, 72, 64
10, 77903, Note_off_c, 9, 80, 64
10, 77906, Note_off_c, 9, 83, 64
10, 77952, Note_on_c, 9, 83, 104
10, 77952, Note_on_c, 9, 80, 104
10, 77952, Note_on_c, 9, 72, 109
10, 77986, Note_off_c, 9, 72, 64
10, 77992, Note_off_c, 9, 80, 64
10, 78000, Note_off_c, 9, 83, 64
10, 78043, Note_on_c, 9, 83, 95
10, 78052, Note_on_c, 9, 72, 91
10, 78052, Note_on_c, 9, 80, 104
10, 78083, Note_off_c, 9, 80, 64
10, 78083, Note_off_c, 9, 72, 64
10, 78094, Note_off_c, 9, 83, 64
10, 78146, Note_on_c, 9, 72, 53
10, 78146, Note_on_c, 9, 83, 53
10, 78146, Note_on_c, 9, 80, 53
10, 78180, Note_off_c, 9, 80, 64
10, 78192, Note_off_c, 9, 72, 64
10, 78194, Note_off_c, 9, 83, 64
10, 83906, Note_on_c, 9, 80, 104
10, 83906, Note_on_c, 9, 66, 84
10, 83960, Note_off_c, 9, 80, 64
10, 83963, Note_off_c, 9, 66, 64
10, 84003, Note_on_c, 9, 80, 104
10, 84003, Note_on_c, 9, 66, 84
10, 84060, Note_off_c, 9, 80, 64
10, 84066, Note_off_c, 9, 66, 64
10, 84100, Note_on_c, 9, 82, 104
10, 84100, Note_on_c, 9, 70, 84
10, 84143, Note_off_c, 9, 82, 64
10, 84146, Note_off_c, 9, 70, 64
10, 84194, Note_on_c, 9, 83, 95
10, 84194, Note_on_c, 9, 72, 71
10, 84252, Note_off_c, 9, 83, 64
10, 84260, Note_off_c, 9, 72, 64
10, 84283, Note_on_c, 9, 82, 109
10, 84286, Note_on_c, 9, 70, 84
10, 84332, Note_off_c, 9, 82, 64
10, 84343, Note_off_c, 9, 70, 64
10, 84383, Note_on_c, 9, 83, 104
10, 84386, Note_on_c, 9, 72, 84
10, 84463, Note_off_c, 9, 83, 64
10, 84492, Note_off_c, 9, 72, 64
10, 89854, Note_on_c, 9, 83, 95
10, 89854, Note_on_c, 9, 80, 104
10, 89854, Note_on_c, 9, 72, 95
10, 89886, Note_off_c, 9, 72, 64
10, 89892, Note_off_c, 9, 80, 64
10, 89900, Note_off_c, 9, 83, 64
10, 89946, Note_on_c, 9, 83, 95
10, 89952, Note_on_c, 9, 80, 95
10, 89952, Note_on_c, 9, 72, 82
10, 89983, Note_off_c, 9, 72, 64
10, 89986, Note_off_c, 9, 80, 64
10, 90003, Note_off_c, 9, 83, 64
10, 90146, Note_on_c, 9, 72, 56
10, 90146, Note_on_c, 9, 80, 56
10, 90146, Note_on_c, 9, 83, 56
10, 90183, Note_off_c, 9, 72, 64
10, 90192, Note_off_c, 9, 80, 64
10, 90194, Note_off_c, 9, 83, 64
10, 90240, Note_on_c, 9, 83, 104
10, 90240, Note_on_c, 9, 80, 104
10, 90240, Note_on_c, 9, 72, 109
10, 90274, Note_off_c, 9, 72, 64
10, 90280, Note_off_c, 9, 80, 64
10, 90286, Note_off_c, 9, 83, 64
10, 90332, Note_on_c, 9, 83, 95
10, 90340, Note_on_c, 9, 72, 91
10, 90340, Note_on_c, 9, 80, 104
10, 90372, Note_off_c, 9, 80, 64
10, 90372, Note_off_c, 9, 72, 64
10, 90383, Note_off_c, 9, 83, 64
10, 90434, Note_on_c, 9, 72, 53
10, 90434, Note_on_c, 9, 83, 53
10, 90434, Note_on_c, 9, 80, 53
10, 90466, Note_off_c, 9, 80, 64
10, 90480, Note_off_c, 9, 72, 64
10, 90483, Note_off_c, 9, 83, 64
10, 120772, Note_on_c, 9, 80, 104
10, 120772, Note_on_c, 9, 66, 84
10, 120823, Note_off_c, 9, 80, 64
10, 120826, Note_off_c, 9, 66, 64
10, 120866, Note_on_c, 9, 80, 104
10, 120866, Note_on_c, 9, 66, 84
10, 120923, Note_off_c, 9, 80, 64
10, 120932, Note_off_c, 9, 66, 64
10, 120963, Note_on_c, 9, 82, 104
10, 120963, Note_on_c, 9, 70, 84
10, 121006, Note_off_c, 9, 82, 64
10, 121010, Note_off_c, 9, 70, 64
10, 121060, Note_on_c, 9, 83, 95
10, 121060, Note_on_c, 9, 72, 71
10, 121112, Note_off_c, 9, 83, 64
10, 121123, Note_off_c, 9, 72, 64
10, 121146, Note_on_c, 9, 82, 109
10, 121152, Note_on_c, 9, 70, 84
10, 121194, Note_off_c, 9, 82, 64
10, 121206, Note_off_c, 9, 70, 64
10, 121246, Note_on_c, 9, 83, 104
10, 121252, Note_on_c, 9, 72, 84
10, 121326, Note_off_c, 9, 83, 64
10, 121354, Note_off_c, 9, 72, 64
10, 126912, Note_on_c, 9, 80, 104
10, 126912, Note_on_c, 9, 66, 84
10, 126966, Note_off_c, 9, 80, 64
10, 126972, Note_off_c, 9, 66, 64
10, 127010, Note_on_c, 9, 80, 104
10, 127010, Note_on_c, 9, 66, 84
10, 127066, Note_off_c, 9, 80, 64
10, 127074, Note_off_c, 9, 66, 64
10, 127106, Note_on_c, 9, 82, 104
10, 127106, Note_on_c, 9, 70, 84
10, 127152, Note_off_c, 9, 82, 64
10, 127154, Note_off_c, 9, 70, 64
10, 127203, Note_on_c, 9, 83, 95
10, 127203, Note_on_c, 9, 72, 71
10, 127260, Note_off_c, 9, 83, 64
10, 127266, Note_off_c, 9, 72, 64
10, 127292, Note_on_c, 9, 82, 109
10, 127294, Note_on_c, 9, 70, 84
10, 127340, Note_off_c, 9, 82, 64
10, 127352, Note_off_c, 9, 70, 64
10, 127392, Note_on_c, 9, 83, 104
10, 127394, Note_on_c, 9, 72, 84
10, 127472, Note_off_c, 9, 83, 64
10, 127500, Note_off_c, 9, 72, 64
10, 132863, Note_on_c, 9, 83, 95
10, 132863, Note_on_c, 9, 80, 104
10, 132863, Note_on_c, 9, 72, 95
10, 132894, Note_off_c, 9, 72, 64
10, 132900, Note_off_c, 9, 80, 64
10, 132906, Note_off_c, 9, 83, 64
10, 132954, Note_on_c, 9, 83, 95
10, 132960, Note_on_c, 9, 80, 95
10, 132960, Note_on_c, 9, 72, 82
10, 132992, Note_off_c, 9, 72, 64
10, 132994, Note_off_c, 9, 80, 64
10, 133010, Note_off_c, 9, 83, 64
10, 133154, Note_on_c, 9, 72, 56
10, 133154, Note_on_c, 9, 80, 56
10, 133154, Note_on_c, 9, 83, 56
10, 133192, Note_off_c, 9, 72, 64
10, 133200, Note_off_c, 9, 80, 64
10, 133203, Note_off_c, 9, 83, 64
10, 133246, Note_on_c, 9, 83, 104
10, 133246, Note_on_c, 9, 80, 104
10, 133246, Note_on_c, 9, 72, 109
10, 133283, Note_off_c, 9, 72, 64
10, 133286, Note_off_c, 9, 80, 64
10, 133294, Note_off_c, 9, 83, 64
10, 133340, Note_on_c, 9, 83, 95
10, 133346, Note_on_c, 9, 72, 91
10, 133346, Note_on_c, 9, 80, 104
10, 133380, Note_off_c, 9, 80, 64
10, 133380, Note_off_c, 9, 72, 64
10, 133392, Note_off_c, 9, 83, 64
10, 133443, Note_on_c, 9, 72, 53
10, 133443, Note_on_c, 9, 83, 53
10, 133443, Note_on_c, 9, 80, 53
10, 133474, Note_off_c, 9, 80, 64
10, 133486, Note_off_c, 9, 72, 64
10, 133492, Note_off_c, 9, 83, 64
10, 139203, Note_on_c, 9, 80, 104
10, 139203, Note_on_c, 9, 66, 84
10, 139254, Note_off_c, 9, 80, 64
10, 139260, Note_off_c, 9, 66, 64
10, 139300, Note_on_c, 9, 80, 104
10, 139300, Note_on_c, 9, 66, 84
10, 139354, Note_off_c, 9, 80, 64
10, 139363, Note_off_c, 9, 66, 64
10, 139394, Note_on_c, 9, 82, 104
10, 139394, Note_on_c, 9, 70, 84
10, 139440, Note_off_c, 9, 82, 64
10, 139443, Note_off_c, 9, 70, 64
10, 139492, Note_on_c, 9, 83, 95
10, 139492, Note_on_c, 9, 72, 71
10, 139546, Note_off_c, 9, 83, 64
10, 139554, Note_off_c, 9, 72, 64
10, 139580, Note_on_c, 9, 82, 109
10, 139583, Note_on_c, 9, 70, 84
10, 139626, Note_off_c, 9, 82, 64
10, 139640, Note_off_c, 9, 70, 64
10, 139680, Note_on_c, 9, 83, 104
10, 139683, Note_on_c, 9, 72, 84
10, 139760, Note_off_c, 9, 83, 64
10, 139786, Note_off_c, 9, 72, 64
10, 145152, Note_on_c, 9, 83, 95
10, 145152, Note_on_c, 9, 80, 104
10, 145152, Note_on_c, 9, 72, 95
10, 145183, Note_off_c, 9, 72, 64
10, 145186, Note_off_c, 9, 80, 64
10, 145194, Note_off_c, 9, 83, 64
10, 145243, Note_on_c, 9, 83, 95
10, 145246, Note_on_c, 9, 80, 95
10, 145246, Note_on_c, 9, 72, 82
10, 145280, Note_off_c, 9, 72, 64
10, 145283, Note_off_c, 9, 80, 64
10, 145300, Note_off_c, 9, 83, 64
10, 145443, Note_on_c, 9, 72, 56
10, 145443, Note_on_c, 9, 80, 56
10, 145443, Note_on_c, 9, 83, 56
10, 145480, Note_off_c, 9, 72, 64
10, 145486, Note_off_c, 9, 80, 64
10, 145492, Note_off_c, 9, 83, 64
10, 145534, Note_on_c, 9, 83, 104
10, 145534, Note_on_c, 9, 80, 104
10, 145534, Note_on_c, 9, 72, 109
10, 145572, Note_off_c, 9, 72, 64
10, 145574, Note_off_c, 9, 80, 64
10, 145583, Note_off_c, 9, 83, 64
10, 145626, Note_on_c, 9, 83, 95
10, 145634, Note_on_c, 9, 72, 91
10, 145634, Note_on_c, 9, 80, 104
10, 145666, Note_off_c, 9, 80, 64
10, 145666, Note_off_c, 9, 72, 64
10, 145680, Note_off_c, 9, 83, 64
10, 145732, Note_on_c, 9, 72, 53
10, 145732, Note_on_c, 9, 83, 53
10, 145732, Note_on_c, 9, 80, 53
10, 145763, Note_off_c, 9, 80, 64
10, 145774, Note_off_c, 9, 72, 64
10, 145780, Note_off_c, 9, 83, 64
10, 151492, Note_on_c, 9, 80, 52
10, 151492, Note_on_c, 9, 66, 42
10, 151543, Note_off_c, 9, 80, 64
10, 151546, Note_off_c, 9, 66, 64
10, 151586, Note_on_c, 9, 80, 50
10, 151586, Note_on_c, 9, 66, 41
10, 151643, Note_off_c, 9, 80, 64
10, 151652, Note_off_c, 9, 66, 64
10, 151683, Note_on_c, 9, 82, 49
10, 151683, Note_on_c, 9, 70, 40
10, 151726, Note_off_c, 9, 82, 64
10, 151732, Note_off_c, 9, 70, 64
10, 151780, Note_on_c, 9, 83, 44
10, 151780, Note_on_c, 9, 72, 33
10, 151834, Note_off_c, 9, 83, 64
10, 151843, Note_off_c, 9, 72, 64
10, 151866, Note_on_c, 9, 82, 50
10, 151872, Note_on_c, 9, 70, 38
10, 151912, Note_off_c, 9, 82, 64
10, 151926, Note_off_c, 9, 70, 64
10, 151966, Note_on_c, 9, 83, 46
10, 151972, Note_on_c, 9, 72, 37
10, 152046, Note_off_c, 9, 83, 64
10, 152074, Note_off_c, 9, 72, 64
10, 158206, End_track
11, 0, Start_track
11, 0, Title_t, "BRASS 1"
11, 2166, Program_c, 10, 61
11, 2172, Control_c, 10, 5, 90
11, 2172, Control_c, 10, 8, 88
11, 2172, Control_c, 10, 9, 127
11, 2174, Control_c, 10, 91, 60
11, 2174, Control_c, 10, 92, 0
11, 10186, Note_on_c, 10, 80, 104
11, 10186, Note_on_c, 10, 66, 84
11, 10192, Control_c, 10, 1, 0
11, 10192, Pitch_bend_c, 10, 8192
11, 10240, Note_off_c, 10, 80, 64
11, 10243, Note_off_c, 10, 66, 64
11, 10283, Note_on_c, 10, 80, 104
11, 10283, Note_on_c, 10, 66, 84
11, 10340, Note_off_c, 10, 80, 64
11, 10346, Note_off_c, 10, 66, 64
11, 10380, Note_on_c, 10, 82, 104
11, 10380, Note_on_c, 10, 70, 84
11, 10423, Note_off_c, 10, 82, 64
11, 10426, Note_off_c, 10, 70, 64
11, 10474, Note_on_c, 10, 83, 95
11, 10474, Note_on_c, 10, 72, 71
11, 10532, Note_off_c, 10, 83, 64
11, 10540, Note_off_c, 10, 72, 64
11, 10563, Note_on_c, 10, 82, 109
11, 10566, Note_on_c, 10, 70, 84
11, 10610, Note_off_c, 10, 82, 64
11, 10623, Note_off_c, 10, 70, 64
11, 10663, Note_on_c, 10, 83, 104
11, 10666, Note_on_c, 10, 72, 84
11, 10743, Note_off_c, 10, 83, 64
11, 10772, Note_off_c, 10, 72, 64
11, 16134, Note_on_c, 10, 83, 95
11, 16134, Note_on_c, 10, 80, 104
11, 16134, Note_on_c, 10, 72, 95
11, 16166, Note_off_c, 10, 72, 64
11, 16172, Note_off_c, 10, 80, 64
11, 16180, Note_off_c, 10, 83, 64
11, 16226, Note_on_c, 10, 83, 95
11, 16232, Note_on_c, 10, 80, 95
11, 16232, Note_on_c, 10, 72, 82
11, 16263, Note_off_c, 10, 72, 64
11, 16266, Note_off_c, 10, 80, 64
11, 16283, Note_off_c, 10, 83, 64
11, 16426, Note_on_c, 10, 72, 56
11, 16426, Note_on_c, 10, 80, 56
11, 16426, Note_on_c, 10, 83, 56
11, 16463, Note_off_c, 10, 72, 64
11, 16472, Note_off_c, 10, 80, 64
11, 16474, Note_off_c, 10, 83, 64
11, 16520, Note_on_c, 10, 83, 104
11, 16520, Note_on_c, 10, 80, 104
11, 16520, Note_on_c, 10, 72, 109
11, 16554, Note_off_c, 10, 72, 64
11, 16560, Note_off_c, 10, 80, 64
11, 16566, Note_off_c, 10, 83, 64
11, 16610, Note_on_c, 10, 83, 95
11, 16620, Note_on_c, 10, 72, 91
11, 16620, Note_on_c, 10, 80, 104
11, 16652, Note_off_c, 10, 80, 64
11, 16652, Note_off_c, 10, 72, 64
11, 16663, Note_off_c, 10, 83, 64
11, 16712, Note_on_c, 10, 72, 53
11, 16712, Note_on_c, 10, 83, 53
11, 16712, Note_on_c, 10, 80, 53
11, 16746, Note_off_c, 10, 80, 64
11, 16760, Note_off_c, 10, 72, 64
11, 16763, Note_off_c, 10, 83, 64
11, 16806, Note_on_c, 10, 83, 109
11, 16806, Note_on_c, 10, 80, 114
11, 16810, Note_on_c, 10, 72, 109
11, 16846, Note_off_c, 10, 72, 64
11, 16852, Note_off_c, 10, 80, 64
11, 16872, Note_off_c, 10, 83, 64
11, 26120, Note_on_c, 10, 80, 95
11, 26120, Note_on_c, 10, 66, 91
11, 27843, Note_on_c, 10, 75, 109
11, 27852, Note_on_c, 10, 63, 98
11, 27860, Note_off_c, 10, 66, 64
11, 27866, Note_off_c, 10, 80, 64
11, 28240, Note_on_c, 10, 73, 91
11, 28246, Note_off_c, 10, 75, 64
11, 28252, Note_on_c, 10, 62, 91
11, 28254, Note_off_c, 10, 63, 64
11, 28610, Note_on_c, 10, 72, 95
11, 28612, Note_on_c, 10, 61, 91
11, 28632, Note_off_c, 10, 73, 64
11, 28634, Note_off_c, 10, 62, 64
11, 29010, Note_on_c, 10, 70, 104
11, 29020, Note_off_c, 10, 72, 64
11, 29020, Note_on_c, 10, 56, 91
11, 29023, Note_off_c, 10, 61, 64
11, 30583, Note_off_c, 10, 70, 64
11, 30594, Note_off_c, 10, 56, 64
11, 34763, Note_on_c, 10, 80, 104
11, 34763, Note_on_c, 10, 66, 84
11, 34812, Note_off_c, 10, 80, 64
11, 34820, Note_off_c, 10, 66, 64
11, 34860, Note_on_c, 10, 80, 104
11, 34860, Note_on_c, 10, 66, 84
11, 34912, Note_off_c, 10, 80, 64
11, 34923, Note_off_c, 10, 66, 64
11, 34954, Note_on_c, 10, 82, 104
11, 34954, Note_on_c, 10, 70, 84
11, 35000, Note_off_c, 10, 82, 64
11, 35003, Note_off_c, 10, 70, 64
11, 35052, Note_on_c, 10, 83, 95
11, 35052, Note_on_c, 10, 72, 71
11, 35106, Note_off_c, 10, 83, 64
11, 35112, Note_off_c, 10, 72, 64
11, 35140, Note_on_c, 10, 82, 109
11, 35143, Note_on_c, 10, 70, 84
11, 35186, Note_off_c, 10, 82, 64
11, 35200, Note_off_c, 10, 70, 64
11, 35240, Note_on_c, 10, 83, 104
11, 35243, Note_on_c, 10, 72, 84
11, 35320, Note_off_c, 10, 83, 64
11, 35346, Note_off_c, 10, 72, 64
11, 40906, Note_on_c, 10, 80, 104
11, 40960, Note_off_c, 10, 80, 64
11, 41003, Note_on_c, 10, 80, 104
11, 41060, Note_off_c, 10, 80, 64
11, 41100, Note_on_c, 10, 82, 104
11, 41143, Note_off_c, 10, 82, 64
11, 41194, Note_on_c, 10, 83, 95
11, 41252, Note_off_c, 10, 83, 64
11, 41283, Note_on_c, 10, 82, 109
11, 41332, Note_off_c, 10, 82, 64
11, 41383, Note_on_c, 10, 83, 104
11, 41463, Note_off_c, 10, 83, 64
11, 46854, Note_on_c, 10, 83, 95
11, 46854, Note_on_c, 10, 80, 104
11, 46854, Note_on_c, 10, 72, 95
11, 46886, Note_off_c, 10, 72, 64
11, 46892, Note_off_c, 10, 80, 64
11, 46900, Note_off_c, 10, 83, 64
11, 46946, Note_on_c, 10, 83, 95
11, 46952, Note_on_c, 10, 80, 95
11, 46952, Note_on_c, 10, 72, 82
11, 46983, Note_off_c, 10, 72, 64
11, 46986, Note_off_c, 10, 80, 64
11, 47003, Note_off_c, 10, 83, 64
11, 47146, Note_on_c, 10, 72, 56
11, 47146, Note_on_c, 10, 80, 56
11, 47146, Note_on_c, 10, 83, 56
11, 47183, Note_off_c, 10, 72, 64
11, 47192, Note_off_c, 10, 80, 64
11, 47194, Note_off_c, 10, 83, 64
11, 47240, Note_on_c, 10, 83, 104
11, 47240, Note_on_c, 10, 80, 104
11, 47240, Note_on_c, 10, 72, 109
11, 47274, Note_off_c, 10, 72, 64
11, 47280, Note_off_c, 10, 80, 64
11, 47286, Note_off_c, 10, 83, 64
11, 47332, Note_on_c, 10, 83, 95
11, 47340, Note_on_c, 10, 72, 91
11, 47340, Note_on_c, 10, 80, 104
11, 47372, Note_off_c, 10, 80, 64
11, 47372, Note_off_c, 10, 72, 64
11, 47383, Note_off_c, 10, 83, 64
11, 47434, Note_on_c, 10, 72, 53
11, 47434, Note_on_c, 10, 83, 53
11, 47434, Note_on_c, 10, 80, 53
11, 47466, Note_off_c, 10, 80, 64
11, 47480, Note_off_c, 10, 72, 64
11, 47483, Note_off_c, 10, 83, 64
11, 47526, Note_on_c, 10, 83, 109
11, 47526, Note_on_c, 10, 80, 114
11, 47532, Note_on_c, 10, 72, 109
11, 47566, Note_off_c, 10, 72, 64
11, 47572, Note_off_c, 10, 80, 64
11, 47592, Note_off_c, 10, 83, 64
11, 47820, Note_on_c, 10, 83, 83
11, 47820, Note_on_c, 10, 80, 83
11, 47820, Note_on_c, 10, 72, 83
11, 47863, Note_off_c, 10, 72, 64
11, 47863, Note_off_c, 10, 80, 64
11, 47872, Note_off_c, 10, 83, 64
11, 56846, Note_on_c, 10, 80, 109
11, 56854, Note_on_c, 10, 66, 88
11, 58534, Note_off_c, 10, 80, 64
11, 58543, Note_off_c, 10, 66, 64
11, 58583, Note_on_c, 10, 75, 109
11, 58592, Note_on_c, 10, 63, 104
11, 58932, Note_off_c, 10, 63, 64
11, 58946, Note_off_c, 10, 75, 64
11, 58972, Note_on_c, 10, 73, 95
11, 58980, Note_on_c, 10, 62, 95
11, 59312, Note_off_c, 10, 62, 64
11, 59334, Note_off_c, 10, 73, 64
11, 59354, Note_on_c, 10, 72, 104
11, 59372, Note_on_c, 10, 61, 95
11, 59740, Note_on_c, 10, 70, 109
11, 59743, Note_off_c, 10, 72, 64
11, 59752, Note_off_c, 10, 61, 64
11, 59752, Note_on_c, 10, 56, 104
11, 61283, Note_off_c, 10, 70, 64
11, 61294, Note_off_c, 10, 56, 64
11, 65483, Note_on_c, 10, 80, 104
11, 65483, Note_on_c, 10, 66, 84
11, 65534, Note_off_c, 10, 80, 64
11, 65540, Note_off_c, 10, 66, 64
11, 65580, Note_on_c, 10, 80, 104
11, 65580, Note_on_c, 10, 66, 84
11, 65634, Note_off_c, 10, 80, 64
11, 65643, Note_off_c, 10, 66, 64
11, 65674, Note_on_c, 10, 82, 104
11, 65674, Note_on_c, 10, 70, 84
11, 65720, Note_off_c, 10, 82, 64
11, 65723, Note_off_c, 10, 70, 64
11, 65772, Note_on_c, 10, 83, 95
11, 65772, Note_on_c, 10, 72, 71
11, 65826, Note_off_c, 10, 83, 64
11, 65834, Note_off_c, 10, 72, 64
11, 65860, Note_on_c, 10, 82, 109
11, 65863, Note_on_c, 10, 70, 84
11, 65906, Note_off_c, 10, 82, 64
11, 65920, Note_off_c, 10, 70, 64
11, 65960, Note_on_c, 10, 83, 104
11, 65963, Note_on_c, 10, 72, 84
11, 66040, Note_off_c, 10, 83, 64
11, 66066, Note_off_c, 10, 72, 64
11, 71626, Note_on_c, 10, 80, 104
11, 71626, Note_on_c, 10, 66, 84
11, 71680, Note_off_c, 10, 80, 64
11, 71683, Note_off_c, 10, 66, 64
11, 71723, Note_on_c, 10, 80, 104
11, 71723, Note_on_c, 10, 66, 84
11, 71780, Note_off_c, 10, 80, 64
11, 71786, Note_off_c, 10, 66, 64
11, 71820, Note_on_c, 10, 82, 104
11, 71820, Note_on_c, 10, 70, 84
11, 71863, Note_off_c, 10, 82, 64
11, 71866, Note_off_c, 10, 70, 64
11, 71912, Note_on_c, 10, 83, 95
11, 71912, Note_on_c, 10, 72, 71
11, 71972, Note_off_c, 10, 83, 64
11, 71980, Note_off_c, 10, 72, 64
11, 72003, Note_on_c, 10, 82, 109
11, 72006, Note_on_c, 10, 70, 84
11, 72052, Note_off_c, 10, 82, 64
11, 72063, Note_off_c, 10, 70, 64
11, 72103, Note_on_c, 10, 83, 104
11, 72106, Note_on_c, 10, 72, 84
11, 72183, Note_off_c, 10, 83, 64
11, 72210, Note_off_c, 10, 72, 64
11, 77574, Note_on_c, 10, 83, 95
11, 77574, Note_on_c, 10, 80, 104
11, 77574, Note_on_c, 10, 72, 95
11, 77606, Note_off_c, 10, 72, 64
11, 77610, Note_off_c, 10, 80, 64
11, 77620, Note_off_c, 10, 83, 64
11, 77666, Note_on_c, 10, 83, 95
11, 77672, Note_on_c, 10, 80, 95
11, 77672, Note_on_c, 10, 72, 82
11, 77703, Note_off_c, 10, 72, 64
11, 77706, Note_off_c, 10, 80, 64
11, 77723, Note_off_c, 10, 83, 64
11, 77866, Note_on_c, 10, 72, 56
11, 77866, Note_on_c, 10, 80, 56
11, 77866, Note_on_c, 10, 83, 56
11, 77903, Note_off_c, 10, 72, 64
11, 77910, Note_off_c, 10, 80, 64
11, 77912, Note_off_c, 10, 83, 64
11, 77960, Note_on_c, 10, 83, 104
11, 77960, Note_on_c, 10, 80, 104
11, 77960, Note_on_c, 10, 72, 109
11, 77994, Note_off_c, 10, 72, 64
11, 78000, Note_off_c, 10, 80, 64
11, 78006, Note_off_c, 10, 83, 64
11, 78052, Note_on_c, 10, 83, 95
11, 78060, Note_on_c, 10, 72, 91
11, 78060, Note_on_c, 10, 80, 104
11, 78092, Note_off_c, 10, 80, 64
11, 78092, Note_off_c, 10, 72, 64
11, 78103, Note_off_c, 10, 83, 64
11, 78154, Note_on_c, 10, 72, 53
11, 78154, Note_on_c, 10, 83, 53
11, 78154, Note_on_c, 10, 80, 53
11, 78186, Note_off_c, 10, 80, 64
11, 78200, Note_off_c, 10, 72, 64
11, 78203, Note_off_c, 10, 83, 64
11, 83912, Note_on_c, 10, 80, 104
11, 83912, Note_on_c, 10, 66, 84
11, 83966, Note_off_c, 10, 80, 64
11, 83972, Note_off_c, 10, 66, 64
11, 84010, Note_on_c, 10, 80, 104
11, 84010, Note_on_c, 10, 66, 84
11, 84066, Note_off_c, 10, 80, 64
11, 84074, Note_off_c, 10, 66, 64
11, 84106, Note_on_c, 10, 82, 104
11, 84106, Note_on_c, 10, 70, 84
11, 84152, Note_off_c, 10, 82, 64
11, 84154, Note_off_c, 10, 70, 64
11, 84203, Note_on_c, 10, 83, 95
11, 84203, Note_on_c, 10, 72, 71
11, 84260, Note_off_c, 10, 83, 64
11, 84266, Note_off_c, 10, 72, 64
11, 84292, Note_on_c, 10, 82, 109
11, 84294, Note_on_c, 10, 70, 84
11, 84340, Note_off_c, 10, 82, 64
11, 84352, Note_off_c, 10, 70, 64
11, 84392, Note_on_c, 10, 83, 104
11, 84394, Note_on_c, 10, 72, 84
11, 84472, Note_off_c, 10, 83, 64
11, 84500, Note_off_c, 10, 72, 64
11, 89863, Note_on_c, 10, 83, 95
11, 89863, Note_on_c, 10, 80, 104
11, 89863, Note_on_c, 10, 72, 95
11, 89894, Note_off_c, 10, 72, 64
11, 89900, Note_off_c, 10, 80, 64
11, 89906, Note_off_c, 10, 83, 64
11, 89954, Note_on_c, 10, 83, 95
11, 89960, Note_on_c, 10, 80, 95
11, 89960, Note_on_c, 10, 72, 82
11, 89992, Note_off_c, 10, 72, 64
11, 89994, Note_off_c, 10, 80, 64
11, 90010, Note_off_c, 10, 83, 64
11, 90154, Note_on_c, 10, 72, 56
11, 90154, Note_on_c, 10, 80, 56
11, 90154, Note_on_c, 10, 83, 56
11, 90192, Note_off_c, 10, 72, 64
11, 90200, Note_off_c, 10, 80, 64
11, 90203, Note_off_c, 10, 83, 64
11, 90246, Note_on_c, 10, 83, 104
11, 90246, Note_on_c, 10, 80, 104
11, 90246, Note_on_c, 10, 72, 109
11, 90283, Note_off_c, 10, 72, 64
11, 90286, Note_off_c, 10, 80, 64
11, 90294, Note_off_c, 10, 83, 64
11, 90340, Note_on_c, 10, 83, 95
11, 90346, Note_on_c, 10, 72, 91
11, 90346, Note_on_c, 10, 80, 104
11, 90380, Note_off_c, 10, 80, 64
11, 90380, Note_off_c, 10, 72, 64
11, 90392, Note_off_c, 10, 83, 64
11, 90443, Note_on_c, 10, 72, 53
11, 90443, Note_on_c, 10, 83, 53
11, 90443, Note_on_c, 10, 80, 53
11, 90474, Note_off_c, 10, 80, 64
11, 90486, Note_off_c, 10, 72, 64
11, 90492, Note_off_c, 10, 83, 64
11, 120780, Note_on_c, 10, 80, 104
11, 120780, Note_on_c, 10, 66, 84
11, 120832, Note_off_c, 10, 80, 64
11, 120834, Note_off_c, 10, 66, 64
11, 120874, Note_on_c, 10, 80, 104
11, 120874, Note_on_c, 10, 66, 84
11, 120932, Note_off_c, 10, 80, 64
11, 120940, Note_off_c, 10, 66, 64
11, 120972, Note_on_c, 10, 82, 104
11, 120972, Note_on_c, 10, 70, 84
11, 121012, Note_off_c, 10, 82, 64
11, 121020, Note_off_c, 10, 70, 64
11, 121066, Note_on_c, 10, 83, 95
11, 121066, Note_on_c, 10, 72, 71
11, 121123, Note_off_c, 10, 83, 64
11, 121132, Note_off_c, 10, 72, 64
11, 121154, Note_on_c, 10, 82, 109
11, 121160, Note_on_c, 10, 70, 84
11, 121203, Note_off_c, 10, 82, 64
11, 121212, Note_off_c, 10, 70, 64
11, 121254, Note_on_c, 10, 83, 104
11, 121260, Note_on_c, 10, 72, 84
11, 121334, Note_off_c, 10, 83, 64
11, 121363, Note_off_c, 10, 72, 64
11, 126923, Note_on_c, 10, 80, 104
11, 126923, Note_on_c, 10, 66, 84
11, 126974, Note_off_c, 10, 80, 64
11, 126980, Note_off_c, 10, 66, 64
11, 127020, Note_on_c, 10, 80, 104
11, 127020, Note_on_c, 10, 66, 84
11, 127074, Note_off_c, 10, 80, 64
11, 127083, Note_off_c, 10, 66, 64
11, 127112, Note_on_c, 10, 82, 104
11, 127112, Note_on_c, 10, 70, 84
11, 127160, Note_off_c, 10, 82, 64
11, 127163, Note_off_c, 10, 70, 64
11, 127210, Note_on_c, 10, 83, 95
11, 127210, Note_on_c, 10, 72, 71
11, 127266, Note_off_c, 10, 83, 64
11, 127274, Note_off_c, 10, 72, 64
11, 127300, Note_on_c, 10, 82, 109
11, 127303, Note_on_c, 10, 70, 84
11, 127346, Note_off_c, 10, 82, 64
11, 127360, Note_off_c, 10, 70, 64
11, 127400, Note_on_c, 10, 83, 104
11, 127403, Note_on_c, 10, 72, 84
11, 127480, Note_off_c, 10, 83, 64
11, 127506, Note_off_c, 10, 72, 64
11, 132872, Note_on_c, 10, 83, 95
11, 132872, Note_on_c, 10, 80, 104
11, 132872, Note_on_c, 10, 72, 95
11, 132903, Note_off_c, 10, 72, 64
11, 132906, Note_off_c, 10, 80, 64
11, 132912, Note_off_c, 10, 83, 64
11, 132963, Note_on_c, 10, 83, 95
11, 132966, Note_on_c, 10, 80, 95
11, 132966, Note_on_c, 10, 72, 82
11, 133000, Note_off_c, 10, 72, 64
11, 133003, Note_off_c, 10, 80, 64
11, 133020, Note_off_c, 10, 83, 64
11, 133163, Note_on_c, 10, 72, 56
11, 133163, Note_on_c, 10, 80, 56
11, 133163, Note_on_c, 10, 83, 56
11, 133200, Note_off_c, 10, 72, 64
11, 133206, Note_off_c, 10, 80, 64
11, 133210, Note_off_c, 10, 83, 64
11, 133254, Note_on_c, 10, 83, 104
11, 133254, Note_on_c, 10, 80, 104
11, 133254, Note_on_c, 10, 72, 109
11, 133292, Note_off_c, 10, 72, 64
11, 133294, Note_off_c, 10, 80, 64
11, 133303, Note_off_c, 10, 83, 64
11, 133346, Note_on_c, 10, 83, 95
11, 133354, Note_on_c, 10, 72, 91
11, 133354, Note_on_c, 10, 80, 104
11, 133386, Note_off_c, 10, 80, 64
11, 133386, Note_off_c, 10, 72, 64
11, 133400, Note_off_c, 10, 83, 64
11, 133452, Note_on_c, 10, 72, 53
11, 133452, Note_on_c, 10, 83, 53
11, 133452, Note_on_c, 10, 80, 53
11, 133483, Note_off_c, 10, 80, 64
11, 133494, Note_off_c, 10, 72, 64
11, 133500, Note_off_c, 10, 83, 64
11, 139210, Note_on_c, 10, 80, 104
11, 139210, Note_on_c, 10, 66, 84
11, 139263, Note_off_c, 10, 80, 64
11, 139266, Note_off_c, 10, 66, 64
11, 139306, Note_on_c, 10, 80, 104
11, 139306, Note_on_c, 10, 66, 84
11, 139363, Note_off_c, 10, 80, 64
11, 139372, Note_off_c, 10, 66, 64
11, 139403, Note_on_c, 10, 82, 104
11, 139403, Note_on_c, 10, 70, 84
11, 139446, Note_off_c, 10, 82, 64
11, 139452, Note_off_c, 10, 70, 64
11, 139500, Note_on_c, 10, 83, 95
11, 139500, Note_on_c, 10, 72, 71
11, 139554, Note_off_c, 10, 83, 64
11, 139563, Note_off_c, 10, 72, 64
11, 139586, Note_on_c, 10, 82, 109
11, 139592, Note_on_c, 10, 70, 84
11, 139634, Note_off_c, 10, 82, 64
11, 139646, Note_off_c, 10, 70, 64
11, 139686, Note_on_c, 10, 83, 104
11, 139692, Note_on_c, 10, 72, 84
11, 139766, Note_off_c, 10, 83, 64
11, 139794, Note_off_c, 10, 72, 64
11, 145160, Note_on_c, 10, 83, 95
11, 145160, Note_on_c, 10, 80, 104
11, 145160, Note_on_c, 10, 72, 95
11, 145192, Note_off_c, 10, 72, 64
11, 145194, Note_off_c, 10, 80, 64
11, 145203, Note_off_c, 10, 83, 64
11, 145252, Note_on_c, 10, 83, 95
11, 145254, Note_on_c, 10, 80, 95
11, 145254, Note_on_c, 10, 72, 82
11, 145286, Note_off_c, 10, 72, 64
11, 145292, Note_off_c, 10, 80, 64
11, 145306, Note_off_c, 10, 83, 64
11, 145452, Note_on_c, 10, 72, 56
11, 145452, Note_on_c, 10, 80, 56
11, 145452, Note_on_c, 10, 83, 56
11, 145486, Note_off_c, 10, 72, 64
11, 145494, Note_off_c, 10, 80, 64
11, 145500, Note_off_c, 10, 83, 64
11, 145543, Note_on_c, 10, 83, 104
11, 145543, Note_on_c, 10, 80, 104
11, 145543, Note_on_c, 10, 72, 109
11, 145580, Note_off_c, 10, 72, 64
11, 145583, Note_off_c, 10, 80, 64
11, 145592, Note_off_c, 10, 83, 64
11, 145634, Note_on_c, 10, 83, 95
11, 145643, Note_on_c, 10, 72, 91
11, 145643, Note_on_c, 10, 80, 104
11, 145674, Note_off_c, 10, 80, 64
11, 145674, Note_off_c, 10, 72, 64
11, 145686, Note_off_c, 10, 83, 64
11, 145740, Note_on_c, 10, 72, 53
11, 145740, Note_on_c, 10, 83, 53
11, 145740, Note_on_c, 10, 80, 53
11, 145772, Note_off_c, 10, 80, 64
11, 145783, Note_off_c, 10, 72, 64
11, 145786, Note_off_c, 10, 83, 64
11, 151500, Note_on_c, 10, 80, 52
11, 151500, Note_on_c, 10, 66, 42
11, 151552, Note_off_c, 10, 80, 64
11, 151554, Note_off_c, 10, 66, 64
11, 151594, Note_on_c, 10, 80, 50
11, 151594, Note_on_c, 10, 66, 41
11, 151652, Note_off_c, 10, 80, 64
11, 151660, Note_off_c, 10, 66, 64
11, 151692, Note_on_c, 10, 82, 49
11, 151692, Note_on_c, 10, 70, 40
11, 151734, Note_off_c, 10, 82, 64
11, 151740, Note_off_c, 10, 70, 64
11, 151786, Note_on_c, 10, 83, 44
11, 151786, Note_on_c, 10, 72, 33
11, 151843, Note_off_c, 10, 83, 64
11, 151852, Note_off_c, 10, 72, 64
11, 151874, Note_on_c, 10, 82, 50
11, 151880, Note_on_c, 10, 70, 38
11, 151923, Note_off_c, 10, 82, 64
11, 151934, Note_off_c, 10, 70, 64
11, 151974, Note_on_c, 10, 83, 46
11, 151980, Note_on_c, 10, 72, 37
11, 152054, Note_off_c, 10, 83, 64
11, 152083, Note_off_c, 10, 72, 64
11, 158206, End_track
12, 0, Start_track
12, 0, Title_t, "WHISTLE"
12, 2186, Program_c, 10, 78
12, 2192, Control_c, 10, 5, 40
12, 2192, Control_c, 10, 8, 64
12, 2192, Control_c, 10, 9, 127
12, 2194, Control_c, 10, 91, 60
12, 2194, Control_c, 10, 92, 0
12, 4726, Note_on_c, 10, 75, 88
12, 4732, Control_c, 10, 1, 0
12, 4732, Pitch_bend_c, 10, 8192
12, 4732, Note_on_c, 10, 72, 74
12, 4732, Note_on_c, 10, 64, 73
12, 4732, Note_on_c, 10, 70, 78
12, 5200, Note_off_c, 10, 75, 64
12, 5206, Note_off_c, 10, 64, 64
12, 5210, Note_off_c, 10, 72, 64
12, 5232, Note_off_c, 10, 70, 64
12, 5363, Note_on_c, 10, 73, 74
12, 5366, Note_on_c, 10, 70, 63
12, 5372, Note_on_c, 10, 66, 78
12, 5374, Note_on_c, 10, 72, 80
12, 6000, Note_off_c, 10, 73, 64
12, 6026, Note_off_c, 10, 66, 64
12, 6032, Note_off_c, 10, 72, 64
12, 6032, Note_off_c, 10, 70, 64
12, 6243, Note_on_c, 10, 73, 78
12, 6246, Note_on_c, 10, 66, 80
12, 6246, Note_on_c, 10, 63, 82
12, 6252, Note_on_c, 10, 72, 88
12, 6732, Note_off_c, 10, 72, 64
12, 6794, Note_off_c, 10, 63, 64
12, 6800, Note_off_c, 10, 73, 64
12, 6810, Note_off_c, 10, 66, 64
12, 6903, Note_on_c, 10, 72, 80
12, 6910, Note_on_c, 10, 66, 62
12, 6910, Note_on_c, 10, 63, 85
12, 6910, Note_on_c, 10, 70, 88
12, 7500, Note_off_c, 10, 63, 64
12, 7520, Note_off_c, 10, 66, 64
12, 7554, Note_off_c, 10, 70, 64
12, 7594, Note_off_c, 10, 72, 64
12, 7772, Note_on_c, 10, 75, 91
12, 7772, Note_on_c, 10, 64, 80
12, 7772, Note_on_c, 10, 72, 78
12, 7772, Note_on_c, 10, 70, 80
12, 8240, Note_off_c, 10, 64, 64
12, 8252, Note_off_c, 10, 75, 64
12, 8266, Note_off_c, 10, 70, 64
12, 8272, Note_off_c, 10, 72, 64
12, 8406, Note_on_c, 10, 66, 73
12, 8410, Note_on_c, 10, 73, 73
12, 8412, Note_on_c, 10, 72, 82
12, 8420, Note_on_c, 10, 70, 78
12, 9072, Note_off_c, 10, 72, 64
12, 9074, Note_off_c, 10, 66, 64
12, 9092, Note_off_c, 10, 70, 64
12, 9132, Note_off_c, 10, 73, 64
12, 9312, Note_on_c, 10, 66, 78
12, 9312, Note_on_c, 10, 73, 80
12, 9323, Note_on_c, 10, 72, 95
12, 9610, Note_off_c, 10, 66, 64
12, 9674, Note_off_c, 10, 73, 64
12, 9683, Note_off_c, 10, 72, 64
12, 9726, Note_on_c, 10, 66, 74
12, 9726, Note_on_c, 10, 72, 74
12, 9732, Note_on_c, 10, 75, 85
12, 9872, Note_off_c, 10, 66, 64
12, 9886, Note_off_c, 10, 75, 64
12, 9894, Note_off_c, 10, 72, 64
12, 9992, Note_on_c, 10, 75, 88
12, 9994, Note_on_c, 10, 72, 74
12, 10000, Note_on_c, 10, 66, 80
12, 10474, Note_off_c, 10, 66, 64
12, 10492, Note_off_c, 10, 72, 64
12, 10503, Note_off_c, 10, 75, 64
12, 10803, Note_on_c, 10, 72, 73
12, 10803, Note_on_c, 10, 75, 85
12, 10806, Note_on_c, 10, 64, 78
12, 10810, Note_on_c, 10, 70, 78
12, 11263, Note_off_c, 10, 72, 64
12, 11283, Note_off_c, 10, 75, 64
12, 11306, Note_off_c, 10, 64, 64
12, 11310, Note_off_c, 10, 70, 64
12, 11472, Note_on_c, 10, 66, 74
12, 11472, Note_on_c, 10, 73, 82
12, 11480, Note_on_c, 10, 72, 73
12, 11480, Note_on_c, 10, 70, 74
12, 12103, Note_off_c, 10, 73, 64
12, 12110, Note_off_c, 10, 70, 64
12, 12110, Note_off_c, 10, 72, 64
12, 12126, Note_off_c, 10, 66, 64
12, 12386, Note_on_c, 10, 66, 74
12, 12386, Note_on_c, 10, 73, 78
12, 12386, Note_on_c, 10, 63, 74
12, 12386, Note_on_c, 10, 72, 82
12, 12903, Note_off_c, 10, 72, 64
12, 12920, Note_off_c, 10, 73, 64
12, 12940, Note_off_c, 10, 66, 64
12, 12946, Note_off_c, 10, 63, 64
12, 13046, Note_on_c, 10, 63, 80
12, 13046, Note_on_c, 10, 66, 71
12, 13052, Note_on_c, 10, 72, 78
12, 13054, Note_on_c, 10, 70, 80
12, 13654, Note_off_c, 10, 63, 64
12, 13672, Note_off_c, 10, 66, 64
12, 13686, Note_off_c, 10, 70, 64
12, 13694, Note_off_c, 10, 72, 64
12, 13923, Note_on_c, 10, 72, 73
12, 13926, Note_on_c, 10, 70, 80
12, 13932, Note_on_c, 10, 75, 95
12, 13932, Note_on_c, 10, 64, 82
12, 14366, Note_off_c, 10, 64, 64
12, 14366, Note_off_c, 10, 72, 64
12, 14383, Note_off_c, 10, 70, 64
12, 14386, Note_off_c, 10, 75, 64
12, 14543, Note_on_c, 10, 66, 78
12, 14552, Note_on_c, 10, 70, 80
12, 14552, Note_on_c, 10, 72, 82
12, 14552, Note_on_c, 10, 73, 78
12, 15152, Note_off_c, 10, 66, 64
12, 15154, Note_off_c, 10, 72, 64
12, 15183, Note_off_c, 10, 73, 64
12, 15194, Note_off_c, 10, 70, 64
12, 15434, Note_on_c, 10, 75, 95
12, 15434, Note_on_c, 10, 72, 82
12, 15440, Note_on_c, 10, 66, 82
12, 15592, Note_off_c, 10, 66, 64
12, 15600, Note_off_c, 10, 72, 64
12, 15600, Note_off_c, 10, 75, 64
12, 15752, Note_on_c, 10, 75, 91
12, 15754, Note_on_c, 10, 66, 88
12, 15754, Note_on_c, 10, 72, 80
12, 16066, Note_off_c, 10, 75, 64
12, 16074, Note_off_c, 10, 66, 64
12, 16080, Note_off_c, 10, 72, 64
12, 17034, Note_on_c, 10, 75, 82
12, 17034, Note_on_c, 10, 64, 71
12, 17034, Note_on_c, 10, 72, 71
12, 17040, Note_on_c, 10, 70, 80
12, 18332, Note_off_c, 10, 72, 64
12, 18346, Note_off_c, 10, 64, 64
12, 18346, Note_off_c, 10, 75, 64
12, 18374, Note_off_c, 10, 70, 64
12, 18540, Note_on_c, 10, 73, 73
12, 18540, Note_on_c, 10, 66, 68
12, 18546, Note_on_c, 10, 70, 78
12, 18560, Note_on_c, 10, 72, 80
12, 19886, Note_off_c, 10, 72, 64
12, 19886, Note_off_c, 10, 70, 64
12, 19894, Note_off_c, 10, 66, 64
12, 19910, Note_off_c, 10, 73, 64
12, 20106, Note_on_c, 10, 72, 73
12, 20106, Note_on_c, 10, 75, 85
12, 20106, Note_on_c, 10, 70, 78
12, 20106, Note_on_c, 10, 64, 73
12, 21510, Note_off_c, 10, 64, 64
12, 21510, Note_off_c, 10, 70, 64
12, 21510, Note_off_c, 10, 75, 64
12, 21520, Note_off_c, 10, 72, 64
12, 23183, Note_on_c, 10, 75, 85
12, 23183, Note_on_c, 10, 64, 71
12, 23192, Note_on_c, 10, 70, 73
12, 23192, Note_on_c, 10, 72, 73
12, 24526, Note_off_c, 10, 72, 64
12, 24526, Note_off_c, 10, 64, 64
12, 24526, Note_off_c, 10, 75, 64
12, 24543, Note_off_c, 10, 70, 64
12, 24723, Note_on_c, 10, 73, 78
12, 24726, Note_on_c, 10, 66, 63
12, 24732, Note_on_c, 10, 72, 78
12, 24734, Note_on_c, 10, 70, 78
12, 26040, Note_off_c, 10, 72, 64
12, 26046, Note_off_c, 10, 66, 64
12, 26052, Note_off_c, 10, 70, 64
12, 26074, Note_off_c, 10, 73, 64
12, 26263, Note_on_c, 10, 75, 78
12, 26263, Note_on_c, 10, 64, 73
12, 26263, Note_on_c, 10, 72, 74
12, 26263, Note_on_c, 10, 70, 74
12, 27654, Note_off_c, 10, 70, 64
12, 27654, Note_off_c, 10, 75, 64
12, 27663, Note_off_c, 10, 72, 64
12, 27663, Note_off_c, 10, 64, 64
12, 35472, Note_on_c, 10, 75, 88
12, 35472, Note_on_c, 10, 72, 78
12, 35480, Note_on_c, 10, 64, 78
12, 35480, Note_on_c, 10, 70, 82
12, 35963, Note_off_c, 10, 72, 64
12, 35963, Note_off_c, 10, 75, 64
12, 35966, Note_off_c, 10, 64, 64
12, 36120, Note_on_c, 10, 73, 78
12, 36123, Note_on_c, 10, 66, 73
12, 36132, Note_on_c, 10, 72, 82
12, 36772, Note_off_c, 10, 70, 64
12, 36783, Note_off_c, 10, 66, 64
12, 36803, Note_off_c, 10, 73, 64
12, 36806, Note_off_c, 10, 72, 64
12, 36980, Note_on_c, 10, 73, 80
12, 36983, Note_on_c, 10, 63, 82
12, 36983, Note_on_c, 10, 66, 80
12, 36986, Note_on_c, 10, 72, 88
12, 37494, Note_off_c, 10, 72, 64
12, 37543, Note_off_c, 10, 73, 64
12, 37554, Note_off_c, 10, 66, 64
12, 37560, Note_off_c, 10, 63, 64
12, 37652, Note_on_c, 10, 66, 63
12, 37654, Note_on_c, 10, 72, 82
12, 37660, Note_on_c, 10, 63, 95
12, 37663, Note_on_c, 10, 70, 88
12, 38234, Note_off_c, 10, 63, 64
12, 38292, Note_off_c, 10, 66, 64
12, 38300, Note_off_c, 10, 70, 64
12, 38300, Note_off_c, 10, 72, 64
12, 38506, Note_on_c, 10, 75, 91
12, 38510, Note_on_c, 10, 64, 84
12, 38512, Note_on_c, 10, 70, 85
12, 38512, Note_on_c, 10, 72, 78
12, 38963, Note_off_c, 10, 72, 64
12, 38994, Note_off_c, 10, 64, 64
12, 39003, Note_off_c, 10, 75, 64
12, 39154, Note_on_c, 10, 73, 69
12, 39154, Note_on_c, 10, 66, 76
12, 39163, Note_on_c, 10, 72, 79
12, 39760, Note_off_c, 10, 72, 64
12, 39786, Note_off_c, 10, 70, 64
12, 39794, Note_off_c, 10, 66, 64
12, 39866, Note_off_c, 10, 73, 64
12, 40032, Note_on_c, 10, 73, 79
12, 40032, Note_on_c, 10, 66, 79
12, 40032, Note_on_c, 10, 72, 88
12, 40320, Note_off_c, 10, 66, 64
12, 40360, Note_off_c, 10, 72, 64
12, 40366, Note_off_c, 10, 73, 64
12, 40443, Note_on_c, 10, 75, 91
12, 40446, Note_on_c, 10, 66, 78
12, 40446, Note_on_c, 10, 72, 78
12, 41174, Note_off_c, 10, 72, 64
12, 41180, Note_off_c, 10, 66, 64
12, 41206, Note_off_c, 10, 75, 64
12, 41510, Note_on_c, 10, 75, 88
12, 41510, Note_on_c, 10, 72, 73
12, 41510, Note_on_c, 10, 64, 73
12, 41523, Note_on_c, 10, 70, 80
12, 41952, Note_off_c, 10, 64, 64
12, 41952, Note_off_c, 10, 72, 64
12, 41963, Note_off_c, 10, 75, 64
12, 41972, Note_off_c, 10, 70, 64
12, 42154, Note_on_c, 10, 73, 78
12, 42163, Note_on_c, 10, 66, 73
12, 42166, Note_on_c, 10, 72, 82
12, 42172, Note_on_c, 10, 70, 82
12, 42834, Note_off_c, 10, 70, 64
12, 42872, Note_off_c, 10, 72, 64
12, 42872, Note_off_c, 10, 73, 64
12, 42883, Note_off_c, 10, 66, 64
12, 43106, Note_on_c, 10, 66, 78
12, 43106, Note_on_c, 10, 63, 78
12, 43106, Note_on_c, 10, 73, 80
12, 43110, Note_on_c, 10, 72, 88
12, 43623, Note_off_c, 10, 72, 64
12, 43626, Note_off_c, 10, 66, 64
12, 43634, Note_off_c, 10, 73, 64
12, 43643, Note_off_c, 10, 63, 64
12, 43772, Note_on_c, 10, 72, 88
12, 43774, Note_on_c, 10, 66, 78
12, 43783, Note_on_c, 10, 63, 85
12, 43786, Note_on_c, 10, 70, 80
12, 44386, Note_off_c, 10, 63, 64
12, 44423, Note_off_c, 10, 66, 64
12, 44452, Note_off_c, 10, 70, 64
12, 44452, Note_off_c, 10, 72, 64
12, 44666, Note_on_c, 10, 75, 95
12, 44666, Note_on_c, 10, 72, 74
12, 44666, Note_on_c, 10, 64, 80
12, 44672, Note_on_c, 10, 70, 80
12, 45106, Note_off_c, 10, 72, 64
12, 45120, Note_off_c, 10, 64, 64
12, 45143, Note_off_c, 10, 75, 64
12, 45210, Note_off_c, 10, 70, 64
12, 45300, Note_on_c, 10, 73, 80
12, 45303, Note_on_c, 10, 66, 78
12, 45310, Note_on_c, 10, 72, 82
12, 45310, Note_on_c, 10, 70, 73
12, 45903, Note_off_c, 10, 72, 64
12, 45910, Note_off_c, 10, 70, 64
12, 45963, Note_off_c, 10, 66, 64
12, 46000, Note_off_c, 10, 73, 64
12, 46172, Note_on_c, 10, 66, 78
12, 46174, Note_on_c, 10, 72, 88
12, 46174, Note_on_c, 10, 73, 82
12, 46523, Note_off_c, 10, 66, 64
12, 46546, Note_off_c, 10, 72, 64
12, 46580, Note_off_c, 10, 73, 64
12, 46634, Note_on_c, 10, 66, 74
12, 46634, Note_on_c, 10, 75, 91
12, 46634, Note_on_c, 10, 72, 82
12, 47306, Note_off_c, 10, 72, 64
12, 47323, Note_off_c, 10, 75, 64
12, 47352, Note_off_c, 10, 66, 64
12, 47772, Note_on_c, 10, 75, 85
12, 47772, Note_on_c, 10, 64, 74
12, 47774, Note_on_c, 10, 72, 74
12, 47774, Note_on_c, 10, 70, 80
12, 49026, Note_off_c, 10, 72, 64
12, 49046, Note_off_c, 10, 64, 64
12, 49052, Note_off_c, 10, 75, 64
12, 49060, Note_off_c, 10, 70, 64
12, 49243, Note_on_c, 10, 73, 78
12, 49243, Note_on_c, 10, 66, 73
12, 49254, Note_on_c, 10, 70, 88
12, 49254, Note_on_c, 10, 72, 82
12, 50583, Note_off_c, 10, 72, 64
12, 50603, Note_off_c, 10, 70, 64
12, 50606, Note_off_c, 10, 66, 64
12, 50632, Note_off_c, 10, 73, 64
12, 50806, Note_on_c, 10, 75, 85
12, 50810, Note_on_c, 10, 64, 74
12, 50812, Note_on_c, 10, 72, 74
12, 50812, Note_on_c, 10, 70, 82
12, 52166, Note_off_c, 10, 70, 64
12, 52172, Note_off_c, 10, 64, 64
12, 52180, Note_off_c, 10, 72, 64
12, 52186, Note_off_c, 10, 75, 64
12, 53883, Note_on_c, 10, 64, 67
12, 53883, Note_on_c, 10, 70, 73
12, 53883, Note_on_c, 10, 75, 85
12, 53883, Note_on_c, 10, 72, 73
12, 55243, Note_off_c, 10, 72, 64
12, 55243, Note_off_c, 10, 64, 64
12, 55252, Note_off_c, 10, 75, 64
12, 55292, Note_off_c, 10, 70, 64
12, 55432, Note_on_c, 10, 73, 78
12, 55440, Note_on_c, 10, 66, 71
12, 55446, Note_on_c, 10, 70, 71
12, 55454, Note_on_c, 10, 72, 78
12, 56763, Note_off_c, 10, 72, 64
12, 56780, Note_off_c, 10, 70, 64
12, 56792, Note_off_c, 10, 66, 64
12, 56810, Note_off_c, 10, 73, 64
12, 57006, Note_on_c, 10, 75, 85
12, 57006, Note_on_c, 10, 72, 71
12, 57020, Note_on_c, 10, 64, 71
12, 57026, Note_on_c, 10, 70, 73
12, 58392, Note_off_c, 10, 70, 64
12, 58392, Note_off_c, 10, 64, 64
12, 58392, Note_off_c, 10, 72, 64
12, 58392, Note_off_c, 10, 75, 64
12, 66192, Note_on_c, 10, 75, 88
12, 66192, Note_on_c, 10, 72, 78
12, 66200, Note_on_c, 10, 64, 78
12, 66200, Note_on_c, 10, 70, 82
12, 66683, Note_off_c, 10, 72, 64
12, 66683, Note_off_c, 10, 75, 64
12, 66686, Note_off_c, 10, 64, 64
12, 66840, Note_on_c, 10, 73, 78
12, 66843, Note_on_c, 10, 66, 73
12, 66852, Note_on_c, 10, 72, 82
12, 67492, Note_off_c, 10, 70, 64
12, 67503, Note_off_c, 10, 66, 64
12, 67523, Note_off_c, 10, 73, 64
12, 67526, Note_off_c, 10, 72, 64
12, 67700, Note_on_c, 10, 73, 80
12, 67703, Note_on_c, 10, 63, 82
12, 67703, Note_on_c, 10, 66, 80
12, 67706, Note_on_c, 10, 72, 88
12, 68212, Note_off_c, 10, 72, 64
12, 68263, Note_off_c, 10, 73, 64
12, 68274, Note_off_c, 10, 66, 64
12, 68280, Note_off_c, 10, 63, 64
12, 68372, Note_on_c, 10, 66, 63
12, 68374, Note_on_c, 10, 72, 82
12, 68380, Note_on_c, 10, 63, 95
12, 68383, Note_on_c, 10, 70, 88
12, 68954, Note_off_c, 10, 63, 64
12, 69010, Note_off_c, 10, 66, 64
12, 69020, Note_off_c, 10, 70, 64
12, 69020, Note_off_c, 10, 72, 64
12, 69226, Note_on_c, 10, 75, 91
12, 69232, Note_on_c, 10, 64, 88
12, 69234, Note_on_c, 10, 70, 82
12, 69234, Note_on_c, 10, 72, 82
12, 69683, Note_off_c, 10, 72, 64
12, 69712, Note_off_c, 10, 64, 64
12, 69723, Note_off_c, 10, 75, 64
12, 69874, Note_on_c, 10, 73, 74
12, 69874, Note_on_c, 10, 66, 78
12, 69883, Note_on_c, 10, 72, 82
12, 70480, Note_off_c, 10, 72, 64
12, 70506, Note_off_c, 10, 70, 64
12, 70512, Note_off_c, 10, 66, 64
12, 70586, Note_off_c, 10, 73, 64
12, 70752, Note_on_c, 10, 73, 74
12, 70752, Note_on_c, 10, 66, 78
12, 70752, Note_on_c, 10, 72, 88
12, 71040, Note_off_c, 10, 66, 64
12, 71080, Note_off_c, 10, 72, 64
12, 71086, Note_off_c, 10, 73, 64
12, 71163, Note_on_c, 10, 75, 91
12, 71166, Note_on_c, 10, 66, 78
12, 71166, Note_on_c, 10, 72, 78
12, 71894, Note_off_c, 10, 72, 64
12, 71900, Note_off_c, 10, 66, 64
12, 71926, Note_off_c, 10, 75, 64
12, 72232, Note_on_c, 10, 75, 88
12, 72232, Note_on_c, 10, 72, 73
12, 72232, Note_on_c, 10, 64, 73
12, 72243, Note_on_c, 10, 70, 80
12, 72672, Note_off_c, 10, 64, 64
12, 72672, Note_off_c, 10, 72, 64
12, 72683, Note_off_c, 10, 75, 64
12, 72692, Note_off_c, 10, 70, 64
12, 72874, Note_on_c, 10, 73, 78
12, 72883, Note_on_c, 10, 66, 73
12, 72886, Note_on_c, 10, 72, 82
12, 72892, Note_on_c, 10, 70, 82
12, 73554, Note_off_c, 10, 70, 64
12, 73592, Note_off_c, 10, 72, 64
12, 73592, Note_off_c, 10, 73, 64
12, 73603, Note_off_c, 10, 66, 64
12, 73826, Note_on_c, 10, 66, 78
12, 73826, Note_on_c, 10, 63, 78
12, 73826, Note_on_c, 10, 73, 80
12, 73832, Note_on_c, 10, 72, 88
12, 74343, Note_off_c, 10, 72, 64
12, 74346, Note_off_c, 10, 66, 64
12, 74354, Note_off_c, 10, 73, 64
12, 74363, Note_off_c, 10, 63, 64
12, 74492, Note_on_c, 10, 72, 88
12, 74494, Note_on_c, 10, 66, 78
12, 74503, Note_on_c, 10, 63, 85
12, 74506, Note_on_c, 10, 70, 80
12, 75106, Note_off_c, 10, 63, 64
12, 75143, Note_off_c, 10, 66, 64
12, 75172, Note_off_c, 10, 70, 64
12, 75172, Note_off_c, 10, 72, 64
12, 75386, Note_on_c, 10, 75, 95
12, 75386, Note_on_c, 10, 72, 74
12, 75386, Note_on_c, 10, 64, 80
12, 75392, Note_on_c, 10, 70, 80
12, 75826, Note_off_c, 10, 72, 64
12, 75840, Note_off_c, 10, 64, 64
12, 75863, Note_off_c, 10, 75, 64
12, 75932, Note_off_c, 10, 70, 64
12, 76020, Note_on_c, 10, 73, 80
12, 76023, Note_on_c, 10, 66, 78
12, 76032, Note_on_c, 10, 72, 82
12, 76032, Note_on_c, 10, 70, 73
12, 76623, Note_off_c, 10, 72, 64
12, 76632, Note_off_c, 10, 70, 64
12, 76683, Note_off_c, 10, 66, 64
12, 76720, Note_off_c, 10, 73, 64
12, 76892, Note_on_c, 10, 66, 78
12, 76894, Note_on_c, 10, 72, 88
12, 76894, Note_on_c, 10, 73, 82
12, 77243, Note_off_c, 10, 66, 64
12, 77266, Note_off_c, 10, 72, 64
12, 77300, Note_off_c, 10, 73, 64
12, 77354, Note_on_c, 10, 66, 74
12, 77354, Note_on_c, 10, 75, 91
12, 77354, Note_on_c, 10, 72, 82
12, 78026, Note_off_c, 10, 72, 64
12, 78043, Note_off_c, 10, 75, 64
12, 78072, Note_off_c, 10, 66, 64
12, 78480, Note_on_c, 10, 75, 88
12, 78480, Note_on_c, 10, 72, 78
12, 78486, Note_on_c, 10, 64, 78
12, 78486, Note_on_c, 10, 70, 82
12, 78972, Note_off_c, 10, 72, 64
12, 78972, Note_off_c, 10, 75, 64
12, 78974, Note_off_c, 10, 64, 64
12, 79126, Note_on_c, 10, 73, 78
12, 79132, Note_on_c, 10, 66, 73
12, 79140, Note_on_c, 10, 72, 82
12, 79780, Note_off_c, 10, 70, 64
12, 79792, Note_off_c, 10, 66, 64
12, 79810, Note_off_c, 10, 73, 64
12, 79812, Note_off_c, 10, 72, 64
12, 79986, Note_on_c, 10, 73, 80
12, 79992, Note_on_c, 10, 63, 82
12, 79992, Note_on_c, 10, 66, 80
12, 79994, Note_on_c, 10, 72, 88
12, 80503, Note_off_c, 10, 72, 64
12, 80552, Note_off_c, 10, 73, 64
12, 80563, Note_off_c, 10, 66, 64
12, 80566, Note_off_c, 10, 63, 64
12, 80660, Note_on_c, 10, 66, 63
12, 80663, Note_on_c, 10, 72, 82
12, 80666, Note_on_c, 10, 63, 95
12, 80672, Note_on_c, 10, 70, 88
12, 81243, Note_off_c, 10, 63, 64
12, 81300, Note_off_c, 10, 66, 64
12, 81306, Note_off_c, 10, 70, 64
12, 81306, Note_off_c, 10, 72, 64
12, 81512, Note_on_c, 10, 75, 91
12, 81520, Note_on_c, 10, 64, 88
12, 81523, Note_on_c, 10, 70, 82
12, 81523, Note_on_c, 10, 72, 82
12, 81972, Note_off_c, 10, 72, 64
12, 82003, Note_off_c, 10, 64, 64
12, 82010, Note_off_c, 10, 75, 64
12, 82163, Note_on_c, 10, 73, 74
12, 82163, Note_on_c, 10, 66, 78
12, 82172, Note_on_c, 10, 72, 82
12, 82766, Note_off_c, 10, 72, 64
12, 82794, Note_off_c, 10, 70, 64
12, 82803, Note_off_c, 10, 66, 64
12, 82874, Note_off_c, 10, 73, 64
12, 83040, Note_on_c, 10, 73, 74
12, 83040, Note_on_c, 10, 66, 78
12, 83040, Note_on_c, 10, 72, 88
12, 83326, Note_off_c, 10, 66, 64
12, 83366, Note_off_c, 10, 72, 64
12, 83374, Note_off_c, 10, 73, 64
12, 83452, Note_on_c, 10, 75, 91
12, 83454, Note_on_c, 10, 66, 78
12, 83454, Note_on_c, 10, 72, 78
12, 84183, Note_off_c, 10, 72, 64
12, 84186, Note_off_c, 10, 66, 64
12, 84212, Note_off_c, 10, 75, 64
12, 84520, Note_on_c, 10, 75, 88
12, 84520, Note_on_c, 10, 72, 73
12, 84520, Note_on_c, 10, 64, 73
12, 84532, Note_on_c, 10, 70, 80
12, 84960, Note_off_c, 10, 64, 64
12, 84960, Note_off_c, 10, 72, 64
12, 84972, Note_off_c, 10, 75, 64
12, 84980, Note_off_c, 10, 70, 64
12, 85163, Note_on_c, 10, 73, 78
12, 85172, Note_on_c, 10, 66, 73
12, 85174, Note_on_c, 10, 72, 82
12, 85180, Note_on_c, 10, 70, 82
12, 85843, Note_off_c, 10, 70, 64
12, 85880, Note_off_c, 10, 72, 64
12, 85880, Note_off_c, 10, 73, 64
12, 85892, Note_off_c, 10, 66, 64
12, 86112, Note_on_c, 10, 66, 78
12, 86112, Note_on_c, 10, 63, 78
12, 86112, Note_on_c, 10, 73, 80
12, 86120, Note_on_c, 10, 72, 88
12, 86632, Note_off_c, 10, 72, 64
12, 86634, Note_off_c, 10, 66, 64
12, 86643, Note_off_c, 10, 73, 64
12, 86652, Note_off_c, 10, 63, 64
12, 86780, Note_on_c, 10, 72, 88
12, 86783, Note_on_c, 10, 66, 78
12, 86792, Note_on_c, 10, 63, 85
12, 86794, Note_on_c, 10, 70, 80
12, 87394, Note_off_c, 10, 63, 64
12, 87432, Note_off_c, 10, 66, 64
12, 87460, Note_off_c, 10, 70, 64
12, 87460, Note_off_c, 10, 72, 64
12, 87674, Note_on_c, 10, 75, 95
12, 87674, Note_on_c, 10, 72, 74
12, 87674, Note_on_c, 10, 64, 80
12, 87680, Note_on_c, 10, 70, 80
12, 88112, Note_off_c, 10, 72, 64
12, 88126, Note_off_c, 10, 64, 64
12, 88152, Note_off_c, 10, 75, 64
12, 88220, Note_off_c, 10, 70, 64
12, 88306, Note_on_c, 10, 73, 80
12, 88310, Note_on_c, 10, 66, 78
12, 88320, Note_on_c, 10, 72, 82
12, 88320, Note_on_c, 10, 70, 73
12, 88910, Note_off_c, 10, 72, 64
12, 88920, Note_off_c, 10, 70, 64
12, 88972, Note_off_c, 10, 66, 64
12, 89006, Note_off_c, 10, 73, 64
12, 89180, Note_on_c, 10, 66, 78
12, 89183, Note_on_c, 10, 72, 88
12, 89183, Note_on_c, 10, 73, 82
12, 89532, Note_off_c, 10, 66, 64
12, 89554, Note_off_c, 10, 72, 64
12, 89586, Note_off_c, 10, 73, 64
12, 89643, Note_on_c, 10, 66, 74
12, 89643, Note_on_c, 10, 75, 91
12, 89643, Note_on_c, 10, 72, 82
12, 90312, Note_off_c, 10, 72, 64
12, 90332, Note_off_c, 10, 75, 64
12, 90360, Note_off_c, 10, 66, 64
12, 121486, Note_on_c, 10, 75, 88
12, 121486, Note_on_c, 10, 72, 78
12, 121494, Note_on_c, 10, 64, 78
12, 121494, Note_on_c, 10, 70, 82
12, 121980, Note_off_c, 10, 72, 64
12, 121980, Note_off_c, 10, 75, 64
12, 121983, Note_off_c, 10, 64, 64
12, 122134, Note_on_c, 10, 73, 78
12, 122140, Note_on_c, 10, 66, 73
12, 122146, Note_on_c, 10, 72, 82
12, 122786, Note_off_c, 10, 70, 64
12, 122800, Note_off_c, 10, 66, 64
12, 122820, Note_off_c, 10, 73, 64
12, 122823, Note_off_c, 10, 72, 64
12, 122994, Note_on_c, 10, 73, 80
12, 123000, Note_on_c, 10, 63, 82
12, 123000, Note_on_c, 10, 66, 80
12, 123003, Note_on_c, 10, 72, 88
12, 123510, Note_off_c, 10, 72, 64
12, 123560, Note_off_c, 10, 73, 64
12, 123572, Note_off_c, 10, 66, 64
12, 123574, Note_off_c, 10, 63, 64
12, 123666, Note_on_c, 10, 66, 63
12, 123672, Note_on_c, 10, 72, 82
12, 123674, Note_on_c, 10, 63, 95
12, 123680, Note_on_c, 10, 70, 88
12, 124252, Note_off_c, 10, 63, 64
12, 124306, Note_off_c, 10, 66, 64
12, 124312, Note_off_c, 10, 70, 64
12, 124312, Note_off_c, 10, 72, 64
12, 124523, Note_on_c, 10, 75, 91
12, 124526, Note_on_c, 10, 64, 88
12, 124532, Note_on_c, 10, 70, 82
12, 124532, Note_on_c, 10, 72, 82
12, 124980, Note_off_c, 10, 72, 64
12, 125010, Note_off_c, 10, 64, 64
12, 125020, Note_off_c, 10, 75, 64
12, 125172, Note_on_c, 10, 73, 74
12, 125172, Note_on_c, 10, 66, 78
12, 125180, Note_on_c, 10, 72, 82
12, 125774, Note_off_c, 10, 72, 64
12, 125803, Note_off_c, 10, 70, 64
12, 125810, Note_off_c, 10, 66, 64
12, 125883, Note_off_c, 10, 73, 64
12, 126046, Note_on_c, 10, 73, 74
12, 126046, Note_on_c, 10, 66, 78
12, 126046, Note_on_c, 10, 72, 88
12, 126334, Note_off_c, 10, 66, 64
12, 126374, Note_off_c, 10, 72, 64
12, 126383, Note_off_c, 10, 73, 64
12, 126460, Note_on_c, 10, 75, 91
12, 126463, Note_on_c, 10, 66, 78
12, 126463, Note_on_c, 10, 72, 78
12, 127192, Note_off_c, 10, 72, 64
12, 127194, Note_off_c, 10, 66, 64
12, 127223, Note_off_c, 10, 75, 64
12, 127526, Note_on_c, 10, 75, 88
12, 127526, Note_on_c, 10, 72, 73
12, 127526, Note_on_c, 10, 64, 73
12, 127540, Note_on_c, 10, 70, 80
12, 127966, Note_off_c, 10, 64, 64
12, 127966, Note_off_c, 10, 72, 64
12, 127980, Note_off_c, 10, 75, 64
12, 127986, Note_off_c, 10, 70, 64
12, 128172, Note_on_c, 10, 73, 78
12, 128180, Note_on_c, 10, 66, 73
12, 128183, Note_on_c, 10, 72, 82
12, 128186, Note_on_c, 10, 70, 82
12, 128852, Note_off_c, 10, 70, 64
12, 128886, Note_off_c, 10, 72, 64
12, 128886, Note_off_c, 10, 73, 64
12, 128900, Note_off_c, 10, 66, 64
12, 129123, Note_on_c, 10, 66, 78
12, 129123, Note_on_c, 10, 63, 78
12, 129123, Note_on_c, 10, 73, 80
12, 129126, Note_on_c, 10, 72, 88
12, 129640, Note_off_c, 10, 72, 64
12, 129643, Note_off_c, 10, 66, 64
12, 129652, Note_off_c, 10, 73, 64
12, 129660, Note_off_c, 10, 63, 64
12, 129786, Note_on_c, 10, 72, 88
12, 129792, Note_on_c, 10, 66, 78
12, 129800, Note_on_c, 10, 63, 85
12, 129803, Note_on_c, 10, 70, 80
12, 130403, Note_off_c, 10, 63, 64
12, 130440, Note_off_c, 10, 66, 64
12, 130466, Note_off_c, 10, 70, 64
12, 130466, Note_off_c, 10, 72, 64
12, 130683, Note_on_c, 10, 75, 95
12, 130683, Note_on_c, 10, 72, 74
12, 130683, Note_on_c, 10, 64, 80
12, 130686, Note_on_c, 10, 70, 80
12, 131123, Note_off_c, 10, 72, 64
12, 131134, Note_off_c, 10, 64, 64
12, 131160, Note_off_c, 10, 75, 64
12, 131226, Note_off_c, 10, 70, 64
12, 131312, Note_on_c, 10, 73, 80
12, 131320, Note_on_c, 10, 66, 78
12, 131326, Note_on_c, 10, 72, 82
12, 131326, Note_on_c, 10, 70, 73
12, 131920, Note_off_c, 10, 72, 64
12, 131926, Note_off_c, 10, 70, 64
12, 131980, Note_off_c, 10, 66, 64
12, 132012, Note_off_c, 10, 73, 64
12, 132186, Note_on_c, 10, 66, 78
12, 132192, Note_on_c, 10, 72, 88
12, 132192, Note_on_c, 10, 73, 82
12, 132540, Note_off_c, 10, 66, 64
12, 132563, Note_off_c, 10, 72, 64
12, 132594, Note_off_c, 10, 73, 64
12, 132652, Note_on_c, 10, 66, 74
12, 132652, Note_on_c, 10, 75, 91
12, 132652, Note_on_c, 10, 72, 82
12, 133323, Note_off_c, 10, 72, 64
12, 133340, Note_off_c, 10, 75, 64
12, 133366, Note_off_c, 10, 66, 64
12, 133774, Note_on_c, 10, 75, 88
12, 133774, Note_on_c, 10, 72, 78
12, 133783, Note_on_c, 10, 64, 78
12, 133783, Note_on_c, 10, 70, 82
12, 134266, Note_off_c, 10, 72, 64
12, 134266, Note_off_c, 10, 75, 64
12, 134272, Note_off_c, 10, 64, 64
12, 134423, Note_on_c, 10, 73, 78
12, 134426, Note_on_c, 10, 66, 73
12, 134434, Note_on_c, 10, 72, 82
12, 135074, Note_off_c, 10, 70, 64
12, 135086, Note_off_c, 10, 66, 64
12, 135106, Note_off_c, 10, 73, 64
12, 135110, Note_off_c, 10, 72, 64
12, 135283, Note_on_c, 10, 73, 80
12, 135286, Note_on_c, 10, 63, 82
12, 135286, Note_on_c, 10, 66, 80
12, 135292, Note_on_c, 10, 72, 88
12, 135800, Note_off_c, 10, 72, 64
12, 135846, Note_off_c, 10, 73, 64
12, 135860, Note_off_c, 10, 66, 64
12, 135863, Note_off_c, 10, 63, 64
12, 135954, Note_on_c, 10, 66, 63
12, 135960, Note_on_c, 10, 72, 82
12, 135963, Note_on_c, 10, 63, 95
12, 135966, Note_on_c, 10, 70, 88
12, 136540, Note_off_c, 10, 63, 64
12, 136594, Note_off_c, 10, 66, 64
12, 136603, Note_off_c, 10, 70, 64
12, 136603, Note_off_c, 10, 72, 64
12, 136810, Note_on_c, 10, 75, 91
12, 136812, Note_on_c, 10, 64, 88
12, 136820, Note_on_c, 10, 70, 82
12, 136820, Note_on_c, 10, 72, 82
12, 137266, Note_off_c, 10, 72, 64
12, 137300, Note_off_c, 10, 64, 64
12, 137306, Note_off_c, 10, 75, 64
12, 137460, Note_on_c, 10, 73, 74
12, 137460, Note_on_c, 10, 66, 78
12, 137466, Note_on_c, 10, 72, 82
12, 138063, Note_off_c, 10, 72, 64
12, 138092, Note_off_c, 10, 70, 64
12, 138100, Note_off_c, 10, 66, 64
12, 138172, Note_off_c, 10, 73, 64
12, 138334, Note_on_c, 10, 73, 74
12, 138334, Note_on_c, 10, 66, 78
12, 138334, Note_on_c, 10, 72, 88
12, 138623, Note_off_c, 10, 66, 64
12, 138663, Note_off_c, 10, 72, 64
12, 138672, Note_off_c, 10, 73, 64
12, 138746, Note_on_c, 10, 75, 91
12, 138752, Note_on_c, 10, 66, 78
12, 138752, Note_on_c, 10, 72, 78
12, 139480, Note_off_c, 10, 72, 64
12, 139483, Note_off_c, 10, 66, 64
12, 139510, Note_off_c, 10, 75, 64
12, 139812, Note_on_c, 10, 75, 88
12, 139812, Note_on_c, 10, 72, 73
12, 139812, Note_on_c, 10, 64, 73
12, 139826, Note_on_c, 10, 70, 80
12, 140254, Note_off_c, 10, 64, 64
12, 140254, Note_off_c, 10, 72, 64
12, 140266, Note_off_c, 10, 75, 64
12, 140274, Note_off_c, 10, 70, 64
12, 140460, Note_on_c, 10, 73, 78
12, 140466, Note_on_c, 10, 66, 73
12, 140472, Note_on_c, 10, 72, 82
12, 140474, Note_on_c, 10, 70, 82
12, 141140, Note_off_c, 10, 70, 64
12, 141174, Note_off_c, 10, 72, 64
12, 141174, Note_off_c, 10, 73, 64
12, 141186, Note_off_c, 10, 66, 64
12, 141410, Note_on_c, 10, 66, 78
12, 141410, Note_on_c, 10, 63, 78
12, 141410, Note_on_c, 10, 73, 80
12, 141412, Note_on_c, 10, 72, 88
12, 141926, Note_off_c, 10, 72, 64
12, 141932, Note_off_c, 10, 66, 64
12, 141940, Note_off_c, 10, 73, 64
12, 141946, Note_off_c, 10, 63, 64
12, 142074, Note_on_c, 10, 72, 88
12, 142080, Note_on_c, 10, 66, 78
12, 142086, Note_on_c, 10, 63, 85
12, 142092, Note_on_c, 10, 70, 80
12, 142692, Note_off_c, 10, 63, 64
12, 142726, Note_off_c, 10, 66, 64
12, 142754, Note_off_c, 10, 70, 64
12, 142754, Note_off_c, 10, 72, 64
12, 142972, Note_on_c, 10, 75, 95
12, 142972, Note_on_c, 10, 72, 74
12, 142972, Note_on_c, 10, 64, 80
12, 142974, Note_on_c, 10, 70, 80
12, 143410, Note_off_c, 10, 72, 64
12, 143423, Note_off_c, 10, 64, 64
12, 143446, Note_off_c, 10, 75, 64
12, 143512, Note_off_c, 10, 70, 64
12, 143603, Note_on_c, 10, 73, 80
12, 143606, Note_on_c, 10, 66, 78
12, 143612, Note_on_c, 10, 72, 82
12, 143612, Note_on_c, 10, 70, 73
12, 144206, Note_off_c, 10, 72, 64
12, 144212, Note_off_c, 10, 70, 64
12, 144266, Note_off_c, 10, 66, 64
12, 144303, Note_off_c, 10, 73, 64
12, 144474, Note_on_c, 10, 66, 78
12, 144480, Note_on_c, 10, 72, 88
12, 144480, Note_on_c, 10, 73, 82
12, 144826, Note_off_c, 10, 66, 64
12, 144852, Note_off_c, 10, 72, 64
12, 144883, Note_off_c, 10, 73, 64
12, 144940, Note_on_c, 10, 66, 74
12, 144940, Note_on_c, 10, 75, 91
12, 144940, Note_on_c, 10, 72, 82
12, 145610, Note_off_c, 10, 72, 64
12, 145626, Note_off_c, 10, 75, 64
12, 145654, Note_off_c, 10, 66, 64
12, 146063, Note_on_c, 10, 75, 88
12, 146063, Note_on_c, 10, 72, 78
12, 146072, Note_on_c, 10, 64, 78
12, 146072, Note_on_c, 10, 70, 82
12, 146554, Note_off_c, 10, 72, 64
12, 146554, Note_off_c, 10, 75, 64
12, 146560, Note_off_c, 10, 64, 64
12, 146710, Note_on_c, 10, 73, 73
12, 146712, Note_on_c, 10, 66, 68
12, 146723, Note_on_c, 10, 72, 77
12, 147363, Note_off_c, 10, 70, 64
12, 147374, Note_off_c, 10, 66, 64
12, 147394, Note_off_c, 10, 73, 64
12, 147400, Note_off_c, 10, 72, 64
12, 147572, Note_on_c, 10, 73, 68
12, 147574, Note_on_c, 10, 63, 70
12, 147574, Note_on_c, 10, 66, 68
12, 147580, Note_on_c, 10, 72, 75
12, 148086, Note_off_c, 10, 72, 64
12, 148134, Note_off_c, 10, 73, 64
12, 148146, Note_off_c, 10, 66, 64
12, 148152, Note_off_c, 10, 63, 64
12, 148243, Note_on_c, 10, 66, 50
12, 148246, Note_on_c, 10, 72, 65
12, 148252, Note_on_c, 10, 63, 76
12, 148254, Note_on_c, 10, 70, 70
12, 148826, Note_off_c, 10, 63, 64
12, 148883, Note_off_c, 10, 66, 64
12, 148892, Note_off_c, 10, 70, 64
12, 148892, Note_off_c, 10, 72, 64
12, 149100, Note_on_c, 10, 75, 65
12, 149103, Note_on_c, 10, 64, 63
12, 149106, Note_on_c, 10, 70, 59
12, 149106, Note_on_c, 10, 72, 59
12, 149554, Note_off_c, 10, 72, 64
12, 149586, Note_off_c, 10, 64, 64
12, 149594, Note_off_c, 10, 75, 64
12, 149746, Note_on_c, 10, 73, 48
12, 149746, Note_on_c, 10, 66, 51
12, 149754, Note_on_c, 10, 72, 54
12, 150352, Note_off_c, 10, 72, 64
12, 150380, Note_off_c, 10, 70, 64
12, 150386, Note_off_c, 10, 66, 64
12, 150460, Note_off_c, 10, 73, 64
12, 150623, Note_on_c, 10, 73, 42
12, 150623, Note_on_c, 10, 66, 45
12, 150623, Note_on_c, 10, 72, 51
12, 150910, Note_off_c, 10, 66, 64
12, 150952, Note_off_c, 10, 72, 64
12, 150960, Note_off_c, 10, 73, 64
12, 151034, Note_on_c, 10, 75, 49
12, 151040, Note_on_c, 10, 66, 42
12, 151040, Note_on_c, 10, 72, 42
12, 151766, Note_off_c, 10, 72, 64
12, 151772, Note_off_c, 10, 66, 64
12, 151800, Note_off_c, 10, 75, 64
12, 152103, Note_on_c, 10, 75, 38
12, 152103, Note_on_c, 10, 72, 32
12, 152103, Note_on_c, 10, 64, 32
12, 152112, Note_on_c, 10, 70, 35
12, 152543, Note_off_c, 10, 64, 64
12, 152543, Note_off_c, 10, 72, 64
12, 152554, Note_off_c, 10, 75, 64
12, 152563, Note_off_c, 10, 70, 64
12, 152746, Note_on_c, 10, 73, 29
12, 152754, Note_on_c, 10, 66, 27
12, 152760, Note_on_c, 10, 72, 31
12, 152763, Note_on_c, 10, 70, 31
12, 153426, Note_off_c, 10, 70, 64
12, 153463, Note_off_c, 10, 72, 64
12, 153463, Note_off_c, 10, 73, 64
12, 153474, Note_off_c, 10, 66, 64
12, 153700, Note_on_c, 10, 66, 22
12, 153700, Note_on_c, 10, 63, 22
12, 153700, Note_on_c, 10, 73, 23
12, 153703, Note_on_c, 10, 72, 25
12, 154212, Note_off_c, 10, 72, 64
12, 154220, Note_off_c, 10, 66, 64
12, 154226, Note_off_c, 10, 73, 64
12, 154234, Note_off_c, 10, 63, 64
12, 154363, Note_on_c, 10, 72, 20
12, 154366, Note_on_c, 10, 66, 17
12, 154374, Note_on_c, 10, 63, 19
12, 154380, Note_on_c, 10, 70, 18
12, 154980, Note_off_c, 10, 63, 64
12, 155012, Note_off_c, 10, 66, 64
12, 155043, Note_off_c, 10, 70, 64
12, 155043, Note_off_c, 10, 72, 64
12, 155260, Note_on_c, 10, 75, 14
12, 155260, Note_on_c, 10, 72, 11
12, 155260, Note_on_c, 10, 64, 12
12, 155263, Note_on_c, 10, 70, 12
12, 155700, Note_off_c, 10, 72, 64
12, 155710, Note_off_c, 10, 64, 64
12, 155734, Note_off_c, 10, 75, 64
12, 155803, Note_off_c, 10, 70, 64
12, 155892, Note_on_c, 10, 73, 7
12, 155894, Note_on_c, 10, 66, 7
12, 155903, Note_on_c, 10, 72, 7
12, 155903, Note_on_c, 10, 70, 6
12, 156494, Note_off_c, 10, 72, 64
12, 156503, Note_off_c, 10, 70, 64
12, 156554, Note_off_c, 10, 66, 64
12, 156592, Note_off_c, 10, 73, 64
12, 158206, End_track
12, 0, Start_track
12, 0, Title_t, "MUTED GTR"
12, 2206, Program_c, 11, 28
12, 2210, Control_c, 11, 5, 87
12, 2210, Control_c, 11, 8, 23
12, 2210, Control_c, 11, 9, 127
12, 2212, Control_c, 11, 91, 80
12, 2212, Control_c, 11, 92, 0
12, 91583, Note_on_c, 11, 41, 94
12, 91586, Control_c, 11, 1, 0
12, 91586, Pitch_bend_c, 11, 8192
12, 91620, Note_off_c, 11, 41, 64
12, 91674, Note_on_c, 11, 41, 94
12, 91723, Note_off_c, 11, 41, 64
12, 91772, Note_on_c, 11, 41, 71
12, 91840, Note_off_c, 11, 41, 64
12, 91866, Note_on_c, 11, 44, 107
12, 91946, Note_off_c, 11, 44, 64
12, 92080, Note_on_c, 11, 44, 102
12, 92160, Note_off_c, 11, 44, 64
12, 93112, Note_on_c, 11, 44, 92
12, 93163, Note_off_c, 11, 44, 64
12, 93220, Note_on_c, 11, 44, 92
12, 93260, Note_off_c, 11, 44, 64
12, 93306, Note_on_c, 11, 44, 73
12, 93374, Note_off_c, 11, 44, 64
12, 93410, Note_on_c, 11, 51, 104
12, 93492, Note_off_c, 11, 51, 64
12, 93623, Note_on_c, 11, 51, 99
12, 93692, Note_off_c, 11, 51, 64
12, 94654, Note_on_c, 11, 41, 94
12, 94692, Note_off_c, 11, 41, 64
12, 94746, Note_on_c, 11, 41, 94
12, 94794, Note_off_c, 11, 41, 64
12, 94843, Note_on_c, 11, 41, 71
12, 94910, Note_off_c, 11, 41, 64
12, 94940, Note_on_c, 11, 44, 107
12, 95020, Note_off_c, 11, 44, 64
12, 95152, Note_on_c, 11, 44, 102
12, 95232, Note_off_c, 11, 44, 64
12, 96186, Note_on_c, 11, 44, 92
12, 96234, Note_off_c, 11, 44, 64
12, 96292, Note_on_c, 11, 44, 92
12, 96332, Note_off_c, 11, 44, 64
12, 96380, Note_on_c, 11, 44, 73
12, 96446, Note_off_c, 11, 44, 64
12, 96483, Note_on_c, 11, 51, 104
12, 96563, Note_off_c, 11, 51, 64
12, 96694, Note_on_c, 11, 51, 99
12, 96763, Note_off_c, 11, 51, 64
12, 97726, Note_on_c, 11, 41, 94
12, 97763, Note_off_c, 11, 41, 64
12, 97820, Note_on_c, 11, 41, 94
12, 97866, Note_off_c, 11, 41, 64
12, 97912, Note_on_c, 11, 41, 71
12, 97983, Note_off_c, 11, 41, 64
12, 98010, Note_on_c, 11, 44, 107
12, 98092, Note_off_c, 11, 44, 64
12, 98223, Note_on_c, 11, 44, 102
12, 98303, Note_off_c, 11, 44, 64
12, 99260, Note_on_c, 11, 44, 92
12, 99306, Note_off_c, 11, 44, 64
12, 99363, Note_on_c, 11, 44, 92
12, 99403, Note_off_c, 11, 44, 64
12, 99452, Note_on_c, 11, 44, 73
12, 99520, Note_off_c, 11, 44, 64
12, 99554, Note_on_c, 11, 51, 104
12, 99634, Note_off_c, 11, 51, 64
12, 99766, Note_on_c, 11, 51, 99
12, 99834, Note_off_c, 11, 51, 64
12, 100800, Note_on_c, 11, 41, 94
12, 100834, Note_off_c, 11, 41, 64
12, 100892, Note_on_c, 11, 41, 94
12, 100940, Note_off_c, 11, 41, 64
12, 100986, Note_on_c, 11, 41, 71
12, 101054, Note_off_c, 11, 41, 64
12, 101083, Note_on_c, 11, 44, 107
12, 101163, Note_off_c, 11, 44, 64
12, 101294, Note_on_c, 11, 44, 102
12, 101374, Note_off_c, 11, 44, 64
12, 102332, Note_on_c, 11, 44, 92
12, 102380, Note_off_c, 11, 44, 64
12, 102434, Note_on_c, 11, 44, 92
12, 102474, Note_off_c, 11, 44, 64
12, 102523, Note_on_c, 11, 44, 73
12, 102592, Note_off_c, 11, 44, 64
12, 102626, Note_on_c, 11, 51, 104
12, 102706, Note_off_c, 11, 51, 64
12, 115203, Note_on_c, 11, 54, 96
12, 115263, Note_off_c, 11, 54, 64
12, 115394, Note_on_c, 11, 54, 110
12, 115474, Note_off_c, 11, 54, 64
12, 115683, Note_on_c, 11, 54, 100
12, 115743, Note_off_c, 11, 54, 64
12, 115874, Note_on_c, 11, 54, 110
12, 115943, Note_off_c, 11, 54, 64
12, 116154, Note_on_c, 11, 54, 100
12, 116210, Note_off_c, 11, 54, 64
12, 116443, Note_on_c, 11, 54, 100
12, 116503, Note_off_c, 11, 54, 64
12, 116634, Note_on_c, 11, 54, 100
12, 116700, Note_off_c, 11, 54, 64
12, 116923, Note_on_c, 11, 54, 100
12, 116986, Note_off_c, 11, 54, 64
12, 117210, Note_on_c, 11, 54, 100
12, 117266, Note_off_c, 11, 54, 64
12, 117410, Note_on_c, 11, 54, 100
12, 117480, Note_off_c, 11, 54, 64
12, 117700, Note_on_c, 11, 54, 100
12, 117763, Note_off_c, 11, 54, 64
12, 117986, Note_on_c, 11, 54, 96
12, 118046, Note_off_c, 11, 54, 64
12, 118183, Note_on_c, 11, 54, 100
12, 118254, Note_off_c, 11, 54, 64
12, 118466, Note_on_c, 11, 54, 100
12, 118526, Note_off_c, 11, 54, 64
12, 118754, Note_on_c, 11, 54, 100
12, 118810, Note_off_c, 11, 54, 64
12, 118952, Note_on_c, 11, 54, 100
12, 119020, Note_off_c, 11, 54, 64
12, 119234, Note_on_c, 11, 54, 96
12, 119294, Note_off_c, 11, 54, 64
12, 119526, Note_on_c, 11, 54, 100
12, 119583, Note_off_c, 11, 54, 64
12, 119720, Note_on_c, 11, 54, 93
12, 119786, Note_off_c, 11, 54, 64
12, 120003, Note_on_c, 11, 54, 100
12, 120066, Note_off_c, 11, 54, 64
12, 120294, Note_on_c, 11, 54, 100
12, 120352, Note_off_c, 11, 54, 64
12, 120486, Note_on_c, 11, 54, 100
12, 120554, Note_off_c, 11, 54, 64
12, 120772, Note_on_c, 11, 54, 110
12, 120840, Note_off_c, 11, 54, 64
12, 121060, Note_on_c, 11, 54, 110
12, 121110, Note_off_c, 11, 54, 64
12, 158206, End_track
13, 0, Start_track
13, 0, Title_t, "GS/RESET"
13, 0, System_exclusive, 8, 63, 12, 64, 16, 63, 0, 125, 0, 63, 247
13, 6143, End_track
0, 0, End_of_file
